<svg width="36" height="36" viewBox="0 0 36 36" fill="none" xmlns="http://www.w3.org/2000/svg">
<path d="M6.60002 22.2C6.60002 24.6 8.85002 26.7 10.2 27V17.4C8.85002 17.7 6.60002 19.8 6.60002 22.2ZM25.8 17.4V27C27.15 26.7 29.4 24.6 29.4 22.2C29.4 19.65 27.15 17.55 25.8 17.4ZM35.55 31.5L32.1 14.7C31.65 12.75 30.3 11.25 28.35 10.2L20.7 6.75L23.85 4.2C24.75 3.45 24.45 2.25 23.4 1.8C22.05 1.2 20.1 0.599998 18 0.599998C15.9 0.599998 13.95 1.05 12.6 1.65C11.55 2.25 11.4 3.45 12.3 4.2L15.45 6.75L7.65002 10.2C5.70002 11.1 4.20002 12.75 3.90002 14.7L0.45002 31.5C0.15002 32.7 1.05002 33.75 2.40002 34.05C5.40002 34.65 10.95 35.55 17.25 35.55H18.45C24.9 35.55 30.45 34.65 33.3 34.05C34.95 33.75 35.7 32.55 35.55 31.5ZM25.65 28.35H10.5C8.25002 28.2 5.40002 25.35 5.40002 22.2C5.40002 19.05 8.25002 16.2 10.5 16.05H10.65H25.35H25.5C27.75 16.2 30.6 19.05 30.6 22.2C30.75 25.35 27.9 28.2 25.65 28.35Z" fill="#4F4F4F"/>
</svg>
