<svg xmlns="http://www.w3.org/2000/svg" width="30" height="30" viewBox="0 0 30 30"><defs><style>.a{fill:none;}.b{fill:#4d4d4d;}</style></defs><path class="a" d="M0,0H30V30H0Z"/><path class="b" d="M14.786,24.75V18.563H8.625a2.477,2.477,0,0,1-2.464-2.476V8.774a2.518,2.518,0,0,1,2.23-2.562,2.439,2.439,0,0,1,1.466.322h.012c.013,0,.013.012.026.012a2.374,2.374,0,0,1,.751.557l1.59,1.77a6.905,6.905,0,0,0,5.014,2.264v2.475A10.494,10.494,0,0,1,11.089,11.2v4.269h3.7a2.477,2.477,0,0,1,2.464,2.475V24.75ZM0,18.563A6.183,6.183,0,0,1,4.929,12.5V15.06A3.711,3.711,0,1,0,9.647,19.8H12.2A6.159,6.159,0,0,1,0,18.563ZM6.161,2.475A2.464,2.464,0,1,1,8.625,4.95,2.47,2.47,0,0,1,6.161,2.475Z" transform="translate(6.5 2.5)"/></svg>