<svg xmlns="http://www.w3.org/2000/svg" width="30" height="30" viewBox="0 0 30 30"><defs><style>.a{fill:none;}.b{fill:#4d4d4d;}</style></defs><g transform="translate(0 0.474)"><rect class="a" width="30" height="30" transform="translate(0 -0.474)"/><g transform="translate(3.75 3.75)"><path class="b" d="M20.5,13V3H8V8H3V25.5H13v-5h2.5v5h10V13ZM8,23H5.5V20.5H8Zm0-5H5.5V15.5H8Zm0-5H5.5V10.5H8Zm5,5H10.5V15.5H13Zm0-5H10.5V10.5H13Zm0-5H10.5V5.5H13Zm5,10H15.5V15.5H18Zm0-5H15.5V10.5H18Zm0-5H15.5V5.5H18Zm5,15H20.5V20.5H23Zm0-5H20.5V15.5H23Z" transform="translate(-3 -3)"/></g></g></svg>