<svg xmlns="http://www.w3.org/2000/svg" width="30" height="30" viewBox="0 0 30 30"><defs><style>.a{fill:none;}.b{fill:#4d4d4d;}</style></defs><path class="a" d="M0,0H30V30H0Z"/><path class="b" d="M15.375,6.5a2.5,2.5,0,1,0-2.5-2.5A2.507,2.507,0,0,0,15.375,6.5ZM10.75,10.75,7.25,28.375H9.875l2.25-10,2.625,2.5v7.5h2.5V19l-2.625-2.5.75-3.75a9.153,9.153,0,0,0,6.875,3.125v-2.5a6.149,6.149,0,0,1-5.375-3l-1.25-2A2.578,2.578,0,0,0,13.5,7.125c-.375,0-.625.125-1,.125L6,10v5.875H8.5v-4.25l2.25-.875" transform="translate(1.5 0.375)"/></svg>