<svg xmlns="http://www.w3.org/2000/svg" width="26" height="26" viewBox="0 0 26 26"><defs><style>.a{fill:none;}.b{fill:#4d4d4d;}</style></defs><path class="a" d="M0,0H26V26H0Z"/><path class="b" d="M6.922,11.439a16.411,16.411,0,0,0,7.139,7.139L16.444,16.2a1.077,1.077,0,0,1,1.1-.26,12.358,12.358,0,0,0,3.867.617A1.087,1.087,0,0,1,22.5,17.636v3.781A1.087,1.087,0,0,1,21.417,22.5,18.415,18.415,0,0,1,3,4.083,1.087,1.087,0,0,1,4.083,3H7.875A1.087,1.087,0,0,1,8.958,4.083a12.307,12.307,0,0,0,.617,3.867A1.087,1.087,0,0,1,9.3,9.056Z" transform="translate(0.25 0.25)"/></svg>