<svg xmlns="http://www.w3.org/2000/svg" width="45.36" height="45.36" viewBox="0 0 45.36 45.36"><defs><style>.a{fill:none;}.b{fill:#4d4d4d;}</style></defs><path class="a" d="M0,0H45.36V45.36H0Z"/><path class="b" d="M0,18.047A18.047,18.047,0,1,1,18.029,36.094,18.038,18.038,0,0,1,0,18.047Zm3.609,0A14.438,14.438,0,1,0,18.047,3.609,14.434,14.434,0,0,0,3.609,18.047Zm20.664,9.926a7.176,7.176,0,0,0-12.453,0H8.807a9.917,9.917,0,0,1,18.481,0ZM21.656,13.535a2.707,2.707,0,1,1,2.708,2.708A2.706,2.706,0,0,1,21.656,13.535Zm-12.634,0a2.708,2.708,0,1,1,2.708,2.708A2.707,2.707,0,0,1,9.022,13.535Z" transform="translate(4.413 4.412)"/></svg>