<svg xmlns="http://www.w3.org/2000/svg" viewBox="0 0 124 32" width="124" height="32">
	<path fill="#00ae6f" d="M22.344 19.068c4.07 0 7.368-3.33 7.368-7.434 0-1.37-.375-2.666-1.017-3.768C26.015 3.332 21.067.282 15.417.282 6.902.282 0 7.183 0 15.698c0 .636.04 1.263.114 1.877.966-3.749 4.352-6.527 8.366-6.527 3.799 0 5.817 1.934 7.495 4.307 1.72 2.433 3.6 3.713 6.37 3.713"/>
	<path fill="#0072bc" d="M22.354 20.35c4.014 0 7.4-2.777 8.365-6.526a15.388 15.388 0 0 1-5.22 13.54c-.404-2.03-2.496-4.698-5.858-4.698-3.727 0-5.117 2.012-5.117 3.493a1.503 1.503 0 0 0 1.506 1.503 1.504 1.504 0 0 0 1.507-1.503 1.504 1.504 0 0 0-.598-1.204c1.548 0 2.636 1.097 2.636 2.75 0 1.652-1.568 3.414-4.158 3.414-5.65 0-10.596-3.054-13.28-7.586a7.507 7.507 0 0 1-1.013-3.768c0-4.106 3.295-7.435 7.363-7.435 2.807 0 4.734 1.28 6.417 3.727 1.683 2.448 3.697 4.292 7.45 4.292"/>
	<path fill="#231f20" d="M46.506 20.385v1.872h15.09v-1.872h-2.795v-6.598h2.116v-1.87H50.49V9.282c3.85-.15 7.185-1.177 9.27-1.994V5.264c-1.968.831-5.823 2.171-10.206 2.171h-.935v12.95zm3.985-6.598h6.44v6.598h-6.44v-6.598m36.89 5.853c.259.319 1.717 2.216 2.736 4.847-2.143 1.327-6.469 1.589-8.095 1.567h-.296c2.687-4.57 3.62-9.676 3.893-11.599h-1.896c-.327 2.117-1.381 7.338-4.198 11.6H78.18v1.87h3.83c.627.007 5.616.015 8.69-1.619.146.57.261 1.161.334 1.766h1.88c-.37-3.664-2.117-6.784-3.22-8.432H87.38m26.252-14.366h-1.87v2.645h-9.895v1.87h9.895v2.482h-8.495v13.371h1.871V14.14h6.624v13.932h1.87V14.14h6.624v9.333c-.006.314-.109.706-.54.706h-2.94v1.867h2.94c1.77 0 2.413-1.54 2.413-2.573V12.27h-8.497V9.79h9.895V7.92h-9.895V5.273m-66.364 12.02h-1.951l-.103.345c-1.365 4.546-3.87 7.061-5.209 8.136v2.28l.01-.005c.199-.11 4.846-2.737 6.99-9.874l.263-.883m-1.923-1.506v-2.484c-1.905-1.527-3.918-2.568-5.34-3.194v2.066c1.527.735 3.513 1.883 5.217 3.495l.123.117m1.16-4.813V8.49c-1.904-1.529-3.916-2.567-5.34-3.194V7.36c1.527.738 3.513 1.885 5.218 3.496l.123.118m31.578 4.86h2.228c2.926-4.685 3.75-9.026 3.88-9.802H82.29c-.258 1.282-1.278 5.537-4.211 9.8l.005.002m8.873-9.802c.13.776.951 5.116 3.878 9.802h2.227l.006-.003c-2.933-4.262-3.953-8.517-4.21-9.799h-1.901m-41.468 22.04h2.615a30.636 30.636 0 0 0 3.322-4.438h-2.228c-1.481 2.193-2.9 3.67-3.71 4.438m12.67-4.438h-2.23a30.784 30.784 0 0 0 3.32 4.438h2.618c-.81-.767-2.228-2.245-3.708-4.438m20.072-3.92l.018-.014v-3.216a30.513 30.513 0 0 1-2.044-3.737v-.9h2.512V9.978h-2.512V5.274h-1.869v4.704H71v1.87h3.323c-.24 3.993-4.45 11.21-4.909 11.986h2.159c.673-1.194 1.793-3.273 2.762-5.52v9.758h1.87V16.93c.582.948 1.27 1.942 2.026 2.783"/>
</svg>