<svg width="24" height="24" viewBox="0 0 24 24" fill="none" xmlns="http://www.w3.org/2000/svg">
<path d="M12 7.49997C12.69 7.49997 13.27 7.72997 13.76 8.19997C14.25 8.66997 14.5 9.26997 14.5 9.99997C14.5 11.05 14 11.81 13 12.28V21H11V12.28C10 11.81 9.5 11.05 9.5 9.99997C9.5 9.26997 9.76 8.66997 10.24 8.19997C10.72 7.72997 11.31 7.49997 12 7.49997ZM16.69 5.29997C17.94 6.54997 18.61 8.10997 18.7 9.99997C18.7 11.8 18.03 13.38 16.69 14.72L15.5 13.5C16.5 12.59 17 11.42 17 9.99997C17 8.66997 16.5 7.49997 15.5 6.49997L16.69 5.29997ZM6.09 4.07997C4.5 5.66997 3.7 7.63997 3.7 9.99997C3.7 12.36 4.5 14.3 6.09 15.89L4.92 17.11C3 15.08 2 12.7 2 9.99997C2 7.29997 3 4.93997 4.92 2.90997L6.09 4.07997ZM19.08 2.90997C21 4.93997 22 7.29997 22 9.99997C22 12.8 21 15.17 19.08 17.11L17.91 15.89C19.5 14.3 20.3 12.33 20.3 9.99997C20.3 7.66997 19.5 5.66997 17.91 4.07997L19.08 2.90997ZM7.31 5.29997L8.5 6.49997C7.5 7.41997 7 8.57997 7 9.99997C7 11.33 7.5 12.5 8.5 13.5L7.31 14.72C5.97 13.38 5.3 11.8 5.3 9.99997C5.3 8.19997 5.97 6.63997 7.31 5.29997Z" fill="black"/>
</svg>
