<?xml version="1.0" encoding="utf-8"?>
<!-- Generator: Adobe Illustrator 24.1.1, SVG Export Plug-In . SVG Version: 6.00 Build 0)  -->
<svg version="1.2" baseProfile="tiny" id="レイヤー_1"
	 xmlns="http://www.w3.org/2000/svg" xmlns:xlink="http://www.w3.org/1999/xlink" x="0px" y="0px" viewBox="0 0 150 40"
	 xml:space="preserve">
<g>
	<g>
		<path fill="#E50019" d="M140.93,2.5h8.42l-8.66,21.18h-10.1L121.92,2.5h9.1l4.89,13.37L140.93,2.5z"/>
		<path fill="#E50019" d="M121.86,2.5v5.17h-6.44v16.01h-8.26V7.67h-6.44V2.5H121.86z"/>
		<path fill="#E50019" d="M90.39,8.14l3.04,7.38h-6.22L90.39,8.14z M85.61,2.5l-9.99,21.18h8.09l1.52-3.51h10.13l1.44,3.51h9.1
			L95.91,2.5H85.61z"/>
		<path fill="#E50019" d="M68.62,15.6h8.42c-0.13,5.75-4.14,8.63-12.03,8.63c-4.09,0-7.2-0.76-9.32-2.27
			c-2.5-1.82-3.75-4.78-3.75-8.89c0-3.95,1.29-6.87,3.86-8.75c2.19-1.59,5.26-2.38,9.21-2.38c3.69,0,6.38,0.45,8.07,1.34
			c2.39,1.26,3.6,3.61,3.64,7.06h-8.42c-0.2-2.52-1.36-3.78-3.48-3.78c-1.56,0-2.71,0.71-3.45,2.12c-0.56,1.11-0.84,2.57-0.84,4.39
			c0,1.82,0.28,3.29,0.84,4.42c0.72,1.41,1.87,2.12,3.45,2.12C67.27,19.62,68.54,18.28,68.62,15.6z"/>
	</g>
	<g>
		<path fill="#009FA7" d="M2.18,6.83c0-2.18,0.42-3.85,1.2-4.44c0.78-0.59,3.37-0.93,5.8-0.93c2.44,0,5.31,0.35,5.95,0.93
			c0.66,0.6,1.2,2.22,1.2,4.33c0,2.1-0.43,3.83-1.2,4.4c-0.78,0.59-3.55,0.93-5.92,0.93c-2.36,0-5.15-0.37-5.84-0.93
			C2.68,10.57,2.18,8.9,2.18,6.83z"/>
		<path fill="#E50019" d="M9.22,12.77c-1.99,0-5.3-0.29-6.29-1.09c-0.9-0.73-1.46-2.59-1.46-4.85c0-1.45,0.19-4.03,1.48-5.01
			c1.04-0.79,4.01-1.07,6.24-1.07c0.21,0,5.22,0.01,6.44,1.11c0.88,0.8,1.43,2.66,1.43,4.86c0,1.16-0.14,3.98-1.48,4.98
			C14.44,12.55,11.05,12.77,9.22,12.77L9.22,12.77z M9.18,2.19c-2.68,0-4.88,0.41-5.37,0.78C3.39,3.29,2.9,4.49,2.9,6.83
			c0,1.94,0.48,3.37,0.93,3.73c0.39,0.31,2.68,0.77,5.39,0.77c2.66,0,4.98-0.41,5.49-0.78c0.44-0.33,0.91-1.66,0.91-3.83
			c0-2.15-0.57-3.45-0.96-3.79C14.31,2.63,12,2.19,9.18,2.19L9.18,2.19z"/>
	</g>
	<g>
		<path fill="#F19200" d="M18.15,6.83c0-2.18,0.42-3.85,1.19-4.44c0.78-0.59,3.37-0.93,5.8-0.93c2.44,0,5.31,0.35,5.96,0.93
			c0.66,0.6,1.19,2.22,1.19,4.33c0,2.1-0.43,3.83-1.19,4.4c-0.78,0.59-3.55,0.93-5.92,0.93c-2.36,0-5.15-0.37-5.84-0.93
			C18.65,10.57,18.15,8.9,18.15,6.83z"/>
		<path fill="#E50019" d="M25.18,12.77c-1.99,0-5.3-0.29-6.29-1.09c-0.9-0.73-1.46-2.59-1.46-4.85c0-1.45,0.19-4.03,1.48-5.01
			c1.04-0.79,4.01-1.07,6.24-1.07c0.21,0,5.22,0.01,6.44,1.11c0.88,0.8,1.43,2.66,1.43,4.86c0,1.16-0.14,3.98-1.48,4.98
			C30.41,12.55,27.01,12.77,25.18,12.77L25.18,12.77z M25.15,2.19c-2.68,0-4.87,0.41-5.37,0.78c-0.42,0.32-0.91,1.52-0.91,3.86
			c0,1.94,0.48,3.37,0.93,3.73c0.39,0.31,2.68,0.77,5.39,0.77c2.66,0,4.98-0.41,5.49-0.78c0.44-0.33,0.91-1.67,0.91-3.83
			c0-2.15-0.57-3.45-0.96-3.79C30.27,2.63,27.97,2.19,25.15,2.19L25.15,2.19z"/>
	</g>
	<g>
		<path fill="#5395D0" d="M34.11,6.83c0-2.18,0.42-3.85,1.19-4.44c0.78-0.59,3.37-0.93,5.81-0.93c2.44,0,5.31,0.35,5.95,0.93
			c0.66,0.6,1.19,2.22,1.19,4.33c0,2.1-0.43,3.83-1.19,4.4c-0.78,0.59-3.55,0.93-5.92,0.93c-2.36,0-5.15-0.37-5.84-0.93
			C34.61,10.57,34.11,8.9,34.11,6.83z"/>
		<path fill="#E50019" d="M41.15,12.77c-1.99,0-5.3-0.29-6.29-1.09c-0.9-0.73-1.46-2.59-1.46-4.85c0-1.45,0.19-4.03,1.48-5.01
			c1.04-0.79,4.01-1.07,6.24-1.07c0.21,0,5.22,0.01,6.44,1.11c0.88,0.8,1.43,2.66,1.43,4.86c0,1.16-0.14,3.98-1.48,4.98
			C46.37,12.55,42.98,12.77,41.15,12.77L41.15,12.77z M41.11,2.19c-2.68,0-4.88,0.41-5.37,0.78c-0.42,0.32-0.91,1.52-0.91,3.86
			c0,1.94,0.48,3.37,0.93,3.73c0.39,0.31,2.68,0.77,5.39,0.77c2.66,0,4.98-0.41,5.49-0.78c0.44-0.33,0.91-1.66,0.91-3.83
			c0-2.15-0.57-3.45-0.96-3.79C46.24,2.63,43.93,2.19,41.11,2.19L41.11,2.19z"/>
	</g>
	<g>
		<path fill="#EA6BA3" d="M2.07,19.3c0-2.18,0.42-3.85,1.19-4.44c0.78-0.59,3.37-0.93,5.81-0.93c2.44,0,5.31,0.35,5.95,0.93
			c0.66,0.6,1.19,2.22,1.19,4.32c0,2.1-0.43,3.83-1.19,4.41c-0.78,0.59-3.55,0.93-5.92,0.93c-2.36,0-5.15-0.37-5.84-0.93
			C2.57,23.03,2.07,21.37,2.07,19.3z"/>
		<path fill="#E50019" d="M9.11,25.24c-1.99,0-5.3-0.29-6.29-1.09c-0.9-0.73-1.46-2.59-1.46-4.85c0-1.45,0.19-4.03,1.48-5.01
			c1.04-0.79,4.01-1.08,6.24-1.08c0.21,0,5.22,0.01,6.44,1.11c0.88,0.8,1.43,2.66,1.43,4.86c0,1.16-0.14,3.97-1.48,4.98
			C14.33,25.01,10.94,25.24,9.11,25.24L9.11,25.24z M9.07,14.65c-2.68,0-4.88,0.41-5.37,0.78c-0.42,0.32-0.91,1.52-0.91,3.86
			c0,1.94,0.48,3.37,0.93,3.73c0.39,0.31,2.68,0.77,5.39,0.77c2.66,0,4.98-0.41,5.49-0.78c0.44-0.33,0.91-1.67,0.91-3.83
			c0-2.15-0.57-3.44-0.96-3.79C14.19,15.09,11.89,14.65,9.07,14.65L9.07,14.65z"/>
	</g>
	<g>
		<path fill="#A57EB6" d="M18.03,19.3c0-2.18,0.42-3.85,1.19-4.44c0.78-0.59,3.37-0.93,5.8-0.93c2.44,0,5.31,0.35,5.96,0.93
			c0.66,0.6,1.19,2.22,1.19,4.32c0,2.1-0.43,3.83-1.19,4.41c-0.78,0.59-3.56,0.93-5.92,0.93c-2.37,0-5.15-0.37-5.84-0.93
			C18.53,23.03,18.03,21.37,18.03,19.3z"/>
		<path fill="#E50019" d="M25.07,25.24c-1.99,0-5.3-0.29-6.29-1.09c-0.9-0.73-1.46-2.59-1.46-4.85c0-1.45,0.19-4.03,1.48-5.01
			c1.04-0.79,4.01-1.08,6.24-1.08c0.21,0,5.22,0.01,6.44,1.11c0.88,0.8,1.43,2.66,1.43,4.86c0,1.16-0.14,3.97-1.48,4.98
			C30.29,25.01,26.9,25.24,25.07,25.24L25.07,25.24z M25.03,14.65c-2.68,0-4.88,0.41-5.37,0.78c-0.42,0.32-0.91,1.52-0.91,3.86
			c0,1.94,0.48,3.37,0.93,3.73c0.39,0.31,2.68,0.77,5.39,0.77c2.66,0,4.98-0.41,5.49-0.78c0.44-0.33,0.91-1.67,0.91-3.83
			c0-2.15-0.57-3.44-0.96-3.79C30.16,15.09,27.85,14.65,25.03,14.65L25.03,14.65z"/>
	</g>
	<g>
		<path fill="#00A6E3" d="M34,19.3c0-2.18,0.42-3.85,1.2-4.44c0.77-0.59,3.37-0.93,5.8-0.93c2.44,0,5.31,0.35,5.96,0.93
			c0.66,0.6,1.2,2.22,1.2,4.32c0,2.1-0.43,3.83-1.2,4.41c-0.78,0.59-3.56,0.93-5.92,0.93c-2.36,0-5.15-0.37-5.84-0.93
			C34.5,23.03,34,21.37,34,19.3z"/>
		<path fill="#E50019" d="M41.03,25.24c-1.99,0-5.3-0.29-6.29-1.09c-0.9-0.73-1.46-2.59-1.46-4.85c0-1.45,0.19-4.03,1.48-5.01
			c1.04-0.79,4.01-1.08,6.24-1.08c0.21,0,5.22,0.01,6.44,1.11c0.88,0.8,1.43,2.66,1.43,4.86c0,1.16-0.14,3.97-1.48,4.98
			C46.26,25.01,42.86,25.24,41.03,25.24L41.03,25.24z M41,14.65c-2.68,0-4.88,0.41-5.37,0.78c-0.42,0.32-0.91,1.52-0.91,3.87
			c0,1.94,0.48,3.37,0.93,3.73c0.39,0.31,2.68,0.77,5.39,0.77c2.66,0,4.98-0.41,5.49-0.78c0.44-0.33,0.91-1.67,0.91-3.83
			c0-2.15-0.57-3.44-0.96-3.79C46.12,15.09,43.81,14.65,41,14.65L41,14.65z"/>
	</g>
	<path fill="#FFFFFF" d="M12.81,3.64v1.6h-2.13v4.97H7.93V5.24H5.8v-1.6H12.81z"/>
	<path fill="#FFFFFF" d="M24.99,5.38L26,7.67h-2.06L24.99,5.38z M23.41,3.64l-3.32,6.57h2.68l0.51-1.09h3.36l0.48,1.09h3.02
		l-3.32-6.57H23.41z"/>
	<path fill="#FFFFFF" d="M45.46,3.64v6.57h-3.88l-2.33-4.68h-0.02v4.68h-2.38V3.64h4.01l2.19,4.41h0.03V3.64H45.46z"/>
	<path fill="#FFFFFF" d="M13.47,16.1v6.57H9.58l-2.33-4.68H7.24v4.68H4.86V16.1h4.01l2.19,4.41h0.03V16.1H13.47z"/>
	<path fill="#FFFFFF" d="M25.02,17.85l1.01,2.29h-2.06L25.02,17.85z M23.44,16.1l-3.32,6.57h2.68l0.51-1.09h3.36l0.48,1.09h3.02
		l-3.32-6.57H23.44z"/>
	<path fill="#FFFFFF" d="M45.33,16.1v6.57h-3.88l-2.32-4.68H39.1v4.68h-2.38V16.1h4.01l2.19,4.41h0.03V16.1H45.33z"/>
	<g>
		<path fill="#231815" d="M18.15,32.39L18.15,32.39h-2.49v6.76h-1.24v-7.88h4.26v-1.1h-4.96v-1.18h4.96v-0.92h1.25v0.92h4.94v1.18
			h-4.94v1.1h4.26v6.79c0,0.75-0.49,1.09-0.99,1.09h-1.69l0.01-1.16h1.16c0.07,0,0.29,0,0.29-0.23v-5.37h-2.59v0.02l1.08,0.13
			c-0.08,0.41-0.29,1.03-0.44,1.42h1.27v0.98h-2.45v1h2.45v0.99h-2.45v2.05h-1.16v-2.05h-2.36v-0.99h2.36v-1h-2.36v-0.98h1.1
			c-0.07-0.48-0.37-1.29-0.42-1.42L18.15,32.39z M19.83,33.97c0.25-0.62,0.46-1.53,0.47-1.58h-2.15c0.05,0.15,0.29,0.8,0.32,0.94
			c0.06,0.22,0.09,0.39,0.14,0.64H19.83z"/>
		<path fill="#231815" d="M35.95,30.73v1.25h-2.72c-0.59,3.99-1.06,6.09-6.3,7.03l-0.03-1.39c3.5-0.41,4.7-2.21,4.93-5.65h-3.04
			c-0.55,0.97-1.46,2.77-3.03,2.97l0-1.6c1.12-0.03,2.27-2.72,2.67-5.03l1.5,0c-0.14,0.89-0.32,1.66-0.59,2.42H35.95z"/>
		<path fill="#231815" d="M45.71,32.84v1.44h-9.44v-1.44H45.71z"/>
		<path fill="#231815" d="M54.29,27.91c0.21,0.5,0.33,0.9,0.5,1.65l-0.36,0.05v0.02h0.71c-0.2,5.16-2.66,8.6-8.04,9.35l0-1.43
			c1.91-0.37,5.88-1.29,6.52-6.64h-7.26v-1.28h7.36c-0.11-0.59-0.22-0.95-0.45-1.55L54.29,27.91z M55.54,29.71
			c-0.08-0.47-0.31-1.27-0.51-1.72L56,27.81c0.23,0.58,0.33,0.94,0.5,1.67L55.54,29.71z"/>
		<path fill="#231815" d="M59.58,32.13c0,4.5-0.67,6.04-3.52,6.93v-1.63c2.02-0.45,2.14-2.7,2.14-5.04v-3.94h1.38V32.13z
			 M62.27,37.3c2.6-0.63,3.08-3,3.47-4.62l1.33,0c-1.09,5.25-3.97,6.14-6.13,6.19V28.44h1.33V37.3z"/>
		<path fill="#231815" d="M77.98,28.71v1.23h-8.91v-1.23H77.98z M78.45,31.86v1.24h-3.87l-0.01,0.14c-0.2,3.27-1.51,5.3-5.55,5.72
			l0-1.27c3.21-0.52,3.89-1.59,4.19-4.43l0.01-0.17h-4.54v-1.24H78.45z"/>
		<path fill="#231815" d="M81.41,37.28c4.31-0.42,5.4-3.19,6.14-5.6h1.37c-0.67,2.66-2.03,6.88-8.89,7.11V28.45h1.39V37.28z"/>
		<path fill="#231815" d="M91.85,28.44v3.79c2.73-0.53,4.76-1.02,7.07-1.66l0,1.37c-2.84,0.75-5.05,1.2-7.07,1.61v3.15
			c0,0.56,0.24,0.66,0.96,0.66h3.96c1.26,0,1.98-0.13,2.33-0.19v1.43c-0.5,0.05-0.97,0.1-2.46,0.1H92.6c-1.58,0-2.14-0.47-2.14-1.61
			v-8.66H91.85z M97.68,30.2c-0.32-0.88-0.46-1.19-0.84-1.91l0.89-0.33c0.36,0.63,0.63,1.2,0.87,1.88L97.68,30.2z M99.27,30.15
			c-0.37-1.01-0.57-1.4-0.83-1.89l0.88-0.33c0.31,0.55,0.65,1.25,0.85,1.88L99.27,30.15z"/>
		<path fill="#231815" d="M107.06,31.04c-0.2,0.41-0.31,0.59-0.53,0.94h-1.53c0.14-0.18,0.3-0.39,0.43-0.58h-1.45v0.97
			c0.37,0.67,0.68,1.03,1.06,1.37v1.68c-0.36-0.42-0.67-0.82-1.03-1.3h-0.02v5.07h-1.13V33.7h-0.02c-0.28,0.91-0.86,1.87-1.68,2.69
			v-1.76c0.93-1.01,1.16-1.89,1.54-3.24h-1.54v-1.18h1.71v-2.14h1.13v2.14h1.45v1.18h0.02c0.32-0.53,0.64-1.18,1.08-2.92l1.27-0.02
			c-0.07,0.33-0.2,0.89-0.36,1.42h0.91v-1.79h1.18v1.79h2.5v1.16h-2.5v1.66h2.74v1.17h-2.36c0.83,1.52,1.35,2.22,2.19,2.86l0,1.87
			c-1.16-0.87-1.82-1.74-2.55-3.38h-0.02v3.95h-1.18v-3.92h-0.02c-0.57,1.5-1.39,2.47-3.08,3.3v-1.38c1.2-0.6,1.98-1.61,2.77-3.3
			h-2.6V32.7h2.93v-1.66H107.06z"/>
		<path fill="#231815" d="M123.35,29.96h1.08v1.19h-3.56c0.07,2.05,0.52,4.18,0.93,5.15c0.14,0.33,0.66,1.4,1.08,1.4
			c0.43,0,0.55-0.86,0.6-1.27h1.2c-0.17,0.91-0.52,2.77-1.59,2.77c-1.15,0-1.93-1.37-2.22-1.91c-1.03-2.01-1.12-4.19-1.19-6.14h-6.3
			v-1.19h6.25c-0.02-0.63-0.06-1.7-0.07-1.88h1.26c0,0.6,0,1.04,0.01,1.88h2.15v-0.02c-0.65-0.47-1.07-0.69-1.67-0.99l0.61-0.98
			c0.94,0.47,0.96,0.49,1.91,1.13L123.35,29.96z M113.32,37.55c0.3-0.02,2.26-0.26,2.57-0.3v-3.44h-2.32v-1.18h5.72v1.18h-2.18v3.29
			c1.37-0.2,2.09-0.34,2.55-0.44v1.12c-1.92,0.41-4.92,0.84-6.34,1.01V37.55z"/>
		<path fill="#231815" d="M135.45,39.05l-0.31-0.44c0,0-7.34,0.4-9.15,0.4l0.01-1.3c0.25,0,0.93-0.01,1.5-0.02
			c0.37-0.7,0.92-1.69,1.27-2.76h-3.05v-1.15h10.7v1.15h-6.18c-0.58,1.32-1.03,2.05-1.39,2.73c2.44-0.06,3.67-0.07,5.49-0.18
			c-0.78-1.04-1.11-1.55-1.45-1.99h1.53c0.69,0.88,1.39,1.81,2.49,3.56H135.45z M127.94,31.78c-0.9,0.56-1.51,0.99-2.44,1.29
			l0.01-1.48c1.91-0.67,3.91-2.05,4.91-3.58h1.37c0.88,1.38,2.61,2.52,4.94,3.53v1.57c-0.5-0.25-1.75-0.9-2.48-1.36v0.68h-6.3V31.78
			z M133.58,31.29v-0.03c-0.91-0.62-1.73-1.39-2.47-2.23c-0.47,0.57-1.12,1.29-2.45,2.23v0.03H133.58z"/>
		<path fill="#231815" d="M140.7,39.22h-1.21v-4.58c-0.68,0.63-1.43,1.2-1.94,1.53v-1.64c1.53-0.89,2.67-2.16,3.2-3.46h-3.06V29.9
			h1.8v-1.85h1.21v1.85h1.4v1.16c0,0.25-0.95,1.67-1.2,2.01c0.61,0.69,0.91,0.97,1.36,1.23v1.53c-0.55-0.45-1.14-0.94-1.56-1.42
			V39.22z M144.76,28.05h1.25v3.36h2.54v1.27h-2.54v4.88h2.81v1.27h-7.05v-1.27h2.99v-4.88h-2.48v-1.27h2.48V28.05z"/>
		<path fill="#231815" d="M11.39,33.07v-4.55H3.38v4.55H1.74v1.16h1.59c-0.26,2.22-0.75,3.28-1.7,3.58l0.25,1.47
			c1.6-0.37,2.33-1.97,2.7-5.05h5.57v3.35c0,0.36-0.23,0.36-0.44,0.36H8.26l0.06,1.28h2.02c0.49,0,1.06-0.42,1.06-1.2v-3.79h1.41
			v-1.16H11.39z M4.63,29.69h3.08c-0.46,0.1-0.98,0.57-1.31,1.25c-0.45,0.92-0.39,1.87,0.13,2.12c0.01,0,0.01,0.01,0.02,0.01H4.63
			V29.69z M10.14,33.07H7.1c0.42-0.15,0.88-0.6,1.18-1.22c0.45-0.92,0.39-1.87-0.13-2.12c-0.04-0.02-0.09-0.03-0.13-0.04h2.12V33.07
			z"/>
	</g>
</g>
</svg>
