<?xml version="1.0" encoding="utf-8"?>
<!-- Generator: Adobe Illustrator 24.0.3, SVG Export Plug-In . SVG Version: 6.00 Build 0)  -->
<svg version="1.1" id="レイヤー_1" xmlns="http://www.w3.org/2000/svg" xmlns:xlink="http://www.w3.org/1999/xlink" x="0px"
	 y="0px" viewBox="0 0 340 120" style="enable-background:new 0 0 340 120;" xml:space="preserve">
<style type="text/css">
	.st0{fill-rule:evenodd;clip-rule:evenodd;fill:#00B849;}
	.st1{fill:#FFFFFF;}
	.st2{fill:#00D154;}
	.st3{fill:#FFFFFF;stroke:#333333;}
	.st4{fill:#4D4D4D;}
	.st5{fill-rule:evenodd;clip-rule:evenodd;fill:#00A040;}
	.st6{fill:#00B849;}
</style>
<path class="st0" d="M141,24H98v96h47V44h97V24h-97H141z"/>
<path class="st1" d="M109.3,77.1v1.2h2.3c0,0.3,0.1,0.7,0.1,1.1l-0.6-0.1c-0.6,2.6-1.7,4.6-3.8,5.6c0.3,0.2,0.9,0.7,1.1,1
	c1.7-1,2.9-2.7,3.7-4.9c0.5,1.8,1.6,3.7,3.7,4.9c0.2-0.3,0.7-0.8,1-1c-3.7-2.2-4-5.8-4-7.7H109.3z M125.5,79.4h-3.6v-0.8h3.6V79.4z
	 M120.8,77.6v2h0.7v0.9h4.3v-0.9h0.8v-2h-2.4v-1.1H123v1.1H120.8z M120.1,76.9l-0.2,0h-2.2v8.9h1V78h0.8c-0.2,0.7-0.4,1.6-0.6,2.2
	c0.6,0.7,0.7,1.3,0.7,1.8c0,0.3,0,0.5-0.2,0.6c-0.1,0.1-0.2,0.1-0.3,0.1c-0.1,0-0.3,0-0.4,0c0.2,0.3,0.2,0.7,0.3,1
	c0.2,0,0.5,0,0.6,0c0.2,0,0.4-0.1,0.6-0.2c0.3-0.2,0.4-0.6,0.4-1.3c0-0.6-0.1-1.2-0.7-2c0.3-0.8,0.6-1.9,0.9-2.7L120.1,76.9z
	 M125.2,84.7c-0.1,0-0.2,0-0.2-0.3v-2.2h1.5v-1.1h-5.6v1.1h1.1c-0.1,1.4-0.4,2.2-2,2.7c0.2,0.2,0.5,0.7,0.6,0.9
	c2-0.7,2.4-1.8,2.5-3.6h0.7v2.2c0,1,0.2,1.4,1.1,1.4h0.7c0.7,0,1-0.4,1.1-1.8c-0.3-0.1-0.8-0.3-1-0.4c0,1,0,1.2-0.2,1.2H125.2z
	 M132.6,81.6v-2.2h2.3v2.2H132.6z M129.1,81.6v-2.2h2.2v2.2H129.1z M132.6,78.3v-1.7h-1.3v1.7h-3.5v5h1.2v-0.6h2.2v3.1h1.3v-3.1h2.3
	v0.5h1.2v-5H132.6z"/>
<path class="st2" d="M147,46h46v74h-46V46z"/>
<path class="st1" d="M162.7,71.3h1.5v-1h-1.5v-1.1h-1.2v1.1H160v1h1.5v1.2h-2v1.1h5.2v-1.1h-2V71.3z M162.9,66
	c-0.2,0.5-0.5,0.9-0.9,1.3c-0.3-0.4-0.6-0.8-0.8-1.3H162.9z M158.7,68.5h-0.7v-0.6h0.7V68.5z M158.7,69.8h-0.7v-0.6h0.7V69.8z
	 M156.4,69.2h0.7v0.6h-0.7V69.2z M156.4,67.9h0.7v0.6h-0.7V67.9z M163.7,64.9l-0.2,0h-3.6v1h1.2l-0.8,0.2c0.3,0.7,0.6,1.2,1,1.7
	c-0.5,0.3-1.1,0.6-1.7,0.8v-1.7h-1.5v-0.6h1.6v-1h-1.6v-0.9H157v0.9h-1.5v1h1.5v0.6h-1.4v3.6h1.4v0.6h-1.7v1h1.7v1.6h1.1v-1.6h1.6
	v-1h-1.6v-0.6h1.5V69c0.2,0.2,0.3,0.5,0.4,0.7c0.8-0.2,1.5-0.6,2.1-1c0.6,0.4,1.2,0.8,2,1c0.1-0.3,0.5-0.7,0.7-1
	c-0.7-0.2-1.3-0.4-1.9-0.8c0.7-0.7,1.2-1.6,1.5-2.7L163.7,64.9z M168,66.7h6.6v-1.1h-3.6v-1.1h-1.3v1.1h-3V68
	c-0.1-0.5-0.4-1.1-0.7-1.6l-0.9,0.4c0.3,0.6,0.6,1.4,0.7,1.9l0.9-0.4v0.3c0,0.3,0,0.6,0,0.9c-0.6,0.3-1.2,0.6-1.6,0.8l0.3,1.1
	c0.4-0.2,0.7-0.4,1.1-0.7c-0.2,0.8-0.5,1.7-1.2,2.3c0.2,0.1,0.7,0.6,0.9,0.8c1.4-1.4,1.6-3.7,1.6-5.3V66.7z M172.1,72.6v-1.8h2.1v-1
	h-2.1v-1.4h2.3v-1h-5.8v1h2.4v4.1h-1v-3.1h-1.1v3.1h-1v1h6.9v-1H172.1z M180,67.9c-0.7,0-1.3,0.6-1.3,1.3c0,0.7,0.6,1.3,1.3,1.3
	s1.3-0.6,1.3-1.3C181.3,68.5,180.7,67.9,180,67.9z M160.6,81.6v-2.2h2.3v2.2H160.6z M157.1,81.6v-2.2h2.2v2.2H157.1z M160.6,78.3
	v-1.7h-1.3v1.7h-3.5v5h1.2v-0.6h2.2v3.1h1.3v-3.1h2.3v0.5h1.2v-5H160.6z M174.6,81.9v-1h-3.9v-0.6h3v-1h-3V79
	c0.2-0.2,0.4-0.5,0.6-0.8h0.4c0.3,0.4,0.5,0.8,0.6,1.1l1-0.4c-0.1-0.2-0.2-0.4-0.4-0.6h1.7v-1h-2.8c0.1-0.2,0.2-0.3,0.2-0.5
	l-1.1-0.3c-0.2,0.6-0.5,1.2-0.9,1.6v-0.8h-2.2c0.1-0.2,0.2-0.3,0.2-0.5l-1.1-0.3c-0.4,0.9-0.9,1.7-1.6,2.2c0.3,0.1,0.8,0.5,1,0.7
	c0.3-0.3,0.6-0.7,0.9-1.1h0.1c0.2,0.4,0.4,0.8,0.5,1l1-0.4c-0.1-0.2-0.2-0.4-0.3-0.6h1.3c-0.1,0.1-0.2,0.2-0.4,0.3
	c0.1,0.1,0.4,0.2,0.6,0.4h-0.6v0.5h-2.9v1h2.9v0.6h-3.9v1h5.9v0.6h-5.5v1h1.8l-0.5,0.4c0.6,0.4,1.2,1.1,1.5,1.5l0.9-0.7
	c-0.2-0.3-0.7-0.8-1.2-1.2h3v1.1c0,0.1-0.1,0.2-0.2,0.2c-0.2,0-0.8,0-1.3,0c0.2,0.3,0.4,0.8,0.4,1.1c0.7,0,1.3,0,1.7-0.2
	c0.4-0.2,0.6-0.5,0.6-1.1v-1.1h1.7v-1h-1.7v-0.6H174.6z M178,78.7h6.6v-1.1h-3.6v-1.1h-1.3v1.1h-3V80c-0.1-0.5-0.4-1.1-0.7-1.6
	l-0.9,0.4c0.3,0.6,0.6,1.4,0.7,1.9l0.9-0.4v0.3c0,0.3,0,0.6,0,0.9c-0.6,0.3-1.2,0.6-1.6,0.8l0.3,1.1c0.4-0.2,0.7-0.4,1.1-0.7
	c-0.2,0.8-0.5,1.7-1.2,2.3c0.2,0.1,0.7,0.6,0.9,0.8c1.4-1.4,1.6-3.7,1.6-5.3V78.7z M182.1,84.6v-1.8h2.1v-1h-2.1v-1.4h2.3v-1h-5.8v1
	h2.4v4.1h-1v-3.1h-1.1v3.1h-1v1h6.9v-1H182.1z"/>
<rect x="195" y="46" class="st2" width="47" height="74"/>
<rect x="0.5" y="0.5" class="st3" width="46" height="119"/>
<path class="st4" d="M9.1,70.3v-0.9h1v0.6c0,0.1,0,0.2,0,0.3H9.1z M12.2,69.3v0.9h-1.1c0-0.1,0-0.2,0-0.3v-0.6H12.2z M9.4,66.8
	c0.5-0.4,0.9-0.8,1.2-1.3c0.3,0.4,0.7,0.9,1.2,1.3H9.4z M13.3,71.2v-2.8h-2.1v-0.6h1.3v-0.5c0.3,0.2,0.5,0.3,0.8,0.5
	c0.2-0.3,0.4-0.8,0.6-1c-1-0.4-2.1-1.2-2.8-2.2H10c-0.5,0.8-1.3,1.6-2.3,2.1v-0.1H6.8v-2.1H5.7v2.1H4.5v1.1h1.2
	c-0.3,1.2-0.8,2.6-1.4,3.4c0.2,0.3,0.4,0.7,0.5,1.1c0.3-0.5,0.7-1.2,0.9-1.9v3.7h1.1v-4.2C7,70,7.2,70.5,7.3,70.8l0.6-0.9
	c-0.2-0.2-0.8-1.3-1.1-1.7v-0.5h0.9v-0.5c0.1,0.2,0.2,0.4,0.3,0.6c0.3-0.1,0.6-0.3,0.8-0.5v0.5h1.2v0.6h-2v2.8h1.8
	c-0.3,0.7-0.9,1.4-2.5,1.8c0.2,0.2,0.5,0.6,0.6,0.9c1.5-0.5,2.3-1.2,2.7-2c0.6,1.1,1.4,1.6,2.4,2c0.1-0.4,0.4-0.7,0.7-1
	c-1-0.3-1.7-0.7-2.3-1.7H13.3z M16.2,68.8c0.8-0.5,1.6-1.2,2.2-1.9v1.6h1.2V67c0.6,0.7,1.4,1.4,2.2,1.8H16.2z M17.3,72.7v-0.4h3.4
	v0.4H17.3z M17.3,71h3.4v0.4h-3.4V71z M20.7,70.2h-3.4v-0.4h3.4V70.2z M23.5,66.7v-1h-3.9v-1.1h-1.2v1.1h-3.8v1h2.7
	c-0.8,0.8-1.9,1.4-3,1.8c0.2,0.2,0.6,0.7,0.7,0.9c0.4-0.2,0.8-0.3,1.1-0.6v3.8h-1.6v1h9v-1h-1.6v-3.8c0.3,0.2,0.7,0.4,1.1,0.5
	c0.2-0.3,0.5-0.7,0.8-0.9c-1.1-0.3-2.3-1-3.1-1.7H23.5z M25.9,67.2v-0.8H32v0.8h-2.5v-0.6h-1.2v0.6H25.9z M33.4,71.4v-1h-4
	c0-0.2,0.1-0.4,0.1-0.6h2.7v-1h-2.7v-0.6h2.9v-0.7h0.8v-2.1h-3.7v-0.9h-1.2v0.9h-3.6v2.1h0.9v0.7h2.7v0.6h-2.6v1h2.6
	c0,0.2,0,0.4-0.1,0.6h-3.6v1h3c-0.5,0.6-1.5,1.1-3.2,1.5c0.3,0.2,0.6,0.7,0.7,1c2-0.6,3.2-1.3,3.7-2.2c0.8,1.2,2,1.9,3.9,2.2
	c0.1-0.3,0.5-0.8,0.7-1c-1.6-0.2-2.7-0.6-3.4-1.4H33.4z M38.2,69.7l0-1v-0.4h-1.8c0-0.3,0-0.7,0-1.1h1.9c-0.1,0.1-0.2,0.2-0.3,0.4
	c0.3,0.2,0.7,0.6,0.9,0.8l0.1-0.1v1L38.2,69.7z M40.7,72.8c-0.5,0-0.6-0.1-0.6-0.5V70l0.5-0.2v2.3h1v-2.8l0.6-0.3c0,1,0,1.5,0,1.6
	c0,0.1-0.1,0.1-0.1,0.1c-0.1,0-0.2,0-0.3,0c0.1,0.2,0.2,0.6,0.2,0.9c0.3,0,0.6,0,0.8-0.1c0.3-0.1,0.4-0.3,0.4-0.7c0-0.3,0-1.3,0-2.7
	l0-0.2l-0.7-0.3l-0.2,0.1l0,0l-0.7,0.3v-1h-1v1.4l-0.5,0.2v-1h-0.7c0.2-0.3,0.4-0.6,0.6-1h3.6v-1.1h-3.1c0.1-0.3,0.2-0.7,0.3-1
	l-1.2-0.2c-0.2,0.8-0.5,1.6-0.9,2.3v-0.8h-1.6v-1.5h-1.1v1.5h-1.5v1.1h1c0,2.3-0.1,4.5-1.1,5.9c0.3,0.2,0.7,0.6,0.9,0.8
	c0.8-1.1,1.1-2.8,1.3-4.6h0.8c0,2.3-0.1,3.2-0.2,3.4c-0.1,0.1-0.2,0.2-0.3,0.2s-0.4,0-0.7,0c0.2,0.3,0.3,0.7,0.3,1.1
	c0.4,0,0.8,0,1-0.1c0.3-0.1,0.5-0.2,0.6-0.4c0.2-0.3,0.3-1.3,0.3-3.7l0.4,1l0.4-0.2v1.9c0,1.1,0.3,1.5,1.5,1.5h1.8
	c1,0,1.3-0.4,1.4-1.6c-0.3-0.1-0.7-0.2-1-0.4c-0.1,0.9-0.1,1-0.5,1H40.7z M18.2,76.8c-0.1,1.3,0.1,5.9-3.9,8.1
	c0.4,0.3,0.8,0.6,1,0.9c2.1-1.3,3.2-3.2,3.7-5c0.6,1.8,1.7,3.9,3.9,5c0.2-0.3,0.6-0.7,0.9-1c-3.7-1.8-4.2-6.1-4.3-7.4
	c0-0.2,0-0.4,0-0.6H18.2z M29.4,82.7v-1c0.1,0.1,0.1,0.1,0.1,0.2c0.2-0.2,0.3-0.5,0.5-0.7c0.2,0.7,0.4,1.4,0.7,2
	c-0.4,0.6-1,1.1-1.8,1.5c-0.2-0.2-0.5-0.3-0.8-0.5c0.2-0.4,0.4-0.9,0.5-1.4H29.4z M26.5,82.7h1c-0.1,0.4-0.2,0.7-0.4,0.9
	c-0.3-0.1-0.6-0.3-0.9-0.4L26.5,82.7z M31.9,79.4c-0.1,0.9-0.3,1.7-0.5,2.3c-0.3-0.7-0.5-1.5-0.6-2.3H31.9z M33.7,79.4v-1.1H31
	c0.1-0.5,0.2-1.1,0.3-1.6l-1.2-0.2c-0.2,1.8-0.7,3.5-1.6,4.5c0.2,0.2,0.6,0.5,0.8,0.7H27l0.2-0.5l-0.4-0.1h0.6v-1.2
	c0.4,0.3,0.8,0.7,1,0.9l0.6-0.8c-0.2-0.2-0.9-0.6-1.4-0.8h1.6v-0.9h-0.9c0.2-0.3,0.5-0.7,0.9-1.2l-1-0.4c-0.2,0.4-0.4,0.9-0.7,1.3
	l0.7,0.3h-0.8v-1.7h-1.1v1.7h-0.8l0.6-0.3c-0.1-0.3-0.3-0.9-0.6-1.2l-0.9,0.4c0.2,0.4,0.4,0.8,0.5,1.2h-0.8v0.9H26
	c-0.5,0.5-1.1,1-1.8,1.2c0.2,0.2,0.5,0.6,0.6,0.9c0.5-0.3,1-0.7,1.5-1.2v1l-0.2,0c-0.1,0.2-0.2,0.5-0.3,0.7h-1.5v1h1
	c-0.2,0.5-0.5,0.9-0.7,1.3l1,0.3l0.1-0.2c0.2,0.1,0.4,0.2,0.6,0.3c-0.5,0.3-1.1,0.4-1.9,0.5c0.2,0.2,0.4,0.6,0.5,1
	c1.1-0.2,1.9-0.5,2.5-0.9c0.4,0.3,0.8,0.5,1,0.8l0.5-0.5c0.2,0.2,0.3,0.5,0.4,0.7c0.9-0.4,1.6-1,2.1-1.6c0.4,0.7,1,1.2,1.7,1.6
	c0.2-0.3,0.5-0.8,0.8-1c-0.7-0.4-1.3-0.9-1.8-1.7c0.5-1,0.9-2.2,1.1-3.7H33.7z"/>
<path class="st4" d="M13,93.2c0,0.4-0.1,0.8-0.3,1.2c-0.2,0.3-0.5,0.6-0.9,0.8c0.4,0.2,0.8,0.5,1.1,0.9c0.3,0.4,0.4,0.8,0.4,1.3
	c0,0.8-0.3,1.5-0.8,1.9c-0.6,0.5-1.3,0.7-2.3,0.7c-1,0-1.7-0.2-2.3-0.7c-0.6-0.5-0.8-1.1-0.8-1.9c0-0.5,0.1-1,0.4-1.3
	c0.3-0.4,0.6-0.7,1.1-0.9C8,95,7.7,94.8,7.4,94.4c-0.2-0.3-0.3-0.7-0.3-1.2c0-0.8,0.3-1.4,0.8-1.9c0.5-0.5,1.2-0.7,2.1-0.7
	c0.9,0,1.6,0.2,2.1,0.7C12.7,91.8,13,92.4,13,93.2z M11.3,97.3c0-0.4-0.1-0.7-0.3-1C10.7,96.1,10.4,96,10,96c-0.4,0-0.7,0.1-0.9,0.4
	c-0.2,0.2-0.3,0.6-0.3,1c0,0.4,0.1,0.7,0.3,1c0.2,0.2,0.5,0.4,1,0.4c0.4,0,0.7-0.1,0.9-0.3C11.2,98.1,11.3,97.7,11.3,97.3z
	 M11.1,93.3c0-0.4-0.1-0.6-0.3-0.9c-0.2-0.2-0.5-0.3-0.8-0.3c-0.3,0-0.6,0.1-0.8,0.3c-0.2,0.2-0.3,0.5-0.3,0.9
	c0,0.4,0.1,0.7,0.3,0.9c0.2,0.2,0.5,0.3,0.8,0.3c0.3,0,0.6-0.1,0.8-0.3C11,94,11.1,93.7,11.1,93.3z M20.6,96.2
	c0,1.3-0.3,2.3-0.8,2.9c-0.5,0.7-1.3,1-2.3,1c-1,0-1.8-0.3-2.3-1c-0.5-0.7-0.8-1.6-0.8-2.9v-1.7c0-1.3,0.3-2.3,0.8-2.9
	c0.5-0.7,1.3-1,2.3-1c1,0,1.8,0.3,2.3,1c0.5,0.7,0.8,1.6,0.8,2.9V96.2z M18.8,94.3c0-0.8-0.1-1.3-0.3-1.7c-0.2-0.4-0.5-0.5-1-0.5
	c-0.4,0-0.8,0.2-1,0.5c-0.2,0.3-0.3,0.8-0.3,1.6v2.2c0,0.8,0.1,1.3,0.3,1.7c0.2,0.4,0.5,0.5,1,0.5c0.4,0,0.8-0.2,1-0.5
	c0.2-0.4,0.3-0.9,0.3-1.6V94.3z M26.3,100h-1.8v-7.1l-2.2,0.7v-1.5l3.8-1.4h0.2V100z M32.9,91.8c-0.1,1.3,0.1,5.9-3.9,8.1
	c0.4,0.3,0.8,0.6,1,0.9c2.1-1.3,3.2-3.2,3.7-5c0.6,1.8,1.7,3.9,3.9,5c0.2-0.3,0.5-0.7,0.9-1c-3.7-1.8-4.2-6.1-4.3-7.4
	c0-0.2,0-0.4,0-0.6H32.9z"/>
<path class="st5" d="M340,0H49v17v5v98h47V22h244V0z"/>
<path class="st1" d="M60.8,78.2h-2.3v-0.5h2.3V78.2z M60.8,79.5h-2.3V79h2.3V79.5z M62,76.9h-4.5v3.4H62V76.9z M62.7,81.6v-0.9h-5.9
	v0.9h1c-0.3,0.5-0.7,1-1.2,1.4c0.1-0.2,0.2-0.5,0.2-0.9c0-0.6-0.1-1.2-0.7-2c0.3-0.8,0.6-1.9,0.9-2.7l-0.8-0.4l-0.2,0h-2.2v8.9h1V78
	h0.8c-0.2,0.7-0.4,1.6-0.6,2.2c0.6,0.7,0.7,1.3,0.7,1.8c0,0.3,0,0.5-0.1,0.6c-0.1,0.1-0.2,0.1-0.3,0.1c-0.1,0-0.3,0-0.4,0
	c0.2,0.3,0.2,0.7,0.3,1c0.2,0,0.5,0,0.6,0c0.2,0,0.4-0.1,0.5-0.2c0.2,0.2,0.5,0.5,0.6,0.6c0.4-0.3,0.8-0.6,1.1-1h0.5
	c-0.5,0.8-1.2,1.4-2,1.9c0.2,0.2,0.5,0.6,0.7,0.7c0.9-0.6,1.9-1.5,2.4-2.6H60c-0.4,0.9-1,1.7-1.7,2.2c0.2,0.2,0.6,0.5,0.7,0.7
	c0.8-0.7,1.5-1.7,2-2.8h0.2c-0.1,1.2-0.2,1.7-0.3,1.8c-0.1,0.1-0.2,0.1-0.3,0.1c-0.1,0-0.4,0-0.6,0c0.1,0.3,0.2,0.7,0.3,1
	c0.4,0,0.7,0,1,0c0.2,0,0.4-0.1,0.6-0.3c0.2-0.3,0.4-1.1,0.5-3l0-0.4h-3.8c0.1-0.2,0.2-0.3,0.2-0.5H62.7z M70.3,84.4v-2h1.8v-1.1
	h-1.8v-1.6h2v-1.1h-2v-2h-1.2v2h-0.8c0.1-0.5,0.2-0.9,0.2-1.4L67.4,77c-0.1,0.8-0.3,1.7-0.5,2.4c-0.1-0.4-0.3-0.9-0.6-1.3l-0.6,0.2
	v-1.9h-1.2v2l-0.8-0.1c-0.1,0.8-0.2,1.9-0.5,2.6l0.9,0.3c0.2-0.7,0.4-1.8,0.5-2.7v7.2h1.2V79c0.2,0.4,0.3,0.8,0.4,1.2l0.6-0.3
	c-0.1,0.2-0.2,0.4-0.3,0.6c0.3,0.1,0.8,0.4,1.1,0.5c0.2-0.4,0.4-0.9,0.6-1.4h1.1v1.6h-1.9v1.1h1.9v2h-2.7v1.1h6.2v-1.1H70.3z
	 M77.9,78.6h1.6c-0.3,0.3-0.7,0.6-1.1,0.9h-0.5V78.6z M80.1,83h-3.4v-0.6h3.4V83z M76.7,84.6v-0.7h3.4v0.7H76.7z M82.5,80.6v-1h-2.3
	c0.7-0.7,1.4-1.4,2-2.2l-1-0.5c-0.3,0.4-0.7,0.9-1,1.3v-0.5h-2.2v-1.1h-1.2v1.1h-2.4v1h2.4v0.9h-3.2v1h3.4c-1.2,0.7-2.4,1.2-3.7,1.7
	c0.2,0.2,0.6,0.7,0.7,1c0.5-0.2,1-0.4,1.5-0.6v3.3h1.2v-0.3h3.4v0.3h1.2v-4.4h-3.6c0.4-0.3,0.8-0.5,1.2-0.8H82.5z M88.4,82.7v-1
	c0.1,0.1,0.1,0.1,0.1,0.2c0.2-0.2,0.3-0.5,0.5-0.7c0.2,0.7,0.4,1.4,0.7,2c-0.4,0.6-1,1.1-1.8,1.5c-0.2-0.2-0.5-0.3-0.8-0.5
	c0.2-0.4,0.4-0.9,0.5-1.4H88.4z M85.5,82.7h1c-0.1,0.4-0.2,0.7-0.4,0.9c-0.3-0.1-0.6-0.3-0.9-0.4L85.5,82.7z M90.9,79.4
	c-0.1,0.9-0.3,1.7-0.5,2.3c-0.3-0.7-0.5-1.5-0.6-2.3H90.9z M92.7,79.4v-1.1H90c0.1-0.5,0.2-1.1,0.3-1.6l-1.2-0.2
	c-0.2,1.8-0.7,3.5-1.6,4.5c0.2,0.2,0.6,0.5,0.8,0.7H86l0.2-0.5l-0.4-0.1h0.6v-1.2c0.4,0.3,0.8,0.7,1,0.9l0.6-0.8
	c-0.2-0.2-0.9-0.6-1.4-0.8h1.6v-0.9h-0.9c0.2-0.3,0.5-0.7,0.9-1.2l-1-0.4c-0.2,0.4-0.4,0.9-0.7,1.3l0.7,0.3h-0.8v-1.7h-1.1v1.7h-0.8
	l0.6-0.3c-0.1-0.3-0.3-0.9-0.6-1.2l-0.9,0.4c0.2,0.4,0.4,0.8,0.5,1.2h-0.8v0.9H85c-0.5,0.5-1.2,1-1.8,1.2c0.2,0.2,0.5,0.6,0.6,0.9
	c0.5-0.3,1-0.7,1.5-1.2v1l-0.2,0c-0.1,0.2-0.2,0.5-0.3,0.7h-1.4v1h0.9c-0.2,0.5-0.5,0.9-0.7,1.3l1,0.3l0.1-0.2
	c0.2,0.1,0.4,0.2,0.6,0.3c-0.5,0.3-1.1,0.4-1.9,0.5c0.2,0.2,0.4,0.6,0.5,1c1.1-0.2,1.9-0.5,2.5-0.9c0.4,0.3,0.8,0.5,1,0.8l0.5-0.5
	c0.2,0.2,0.3,0.5,0.4,0.7c0.9-0.4,1.6-1,2.1-1.6c0.5,0.7,1,1.2,1.7,1.6c0.2-0.3,0.6-0.8,0.8-1c-0.7-0.4-1.3-0.9-1.8-1.7
	c0.5-1,0.9-2.2,1.1-3.7H92.7z"/>
<rect x="244" y="24" class="st6" width="47" height="96"/>
<rect x="293" y="24" class="st6" width="47" height="96"/>
<path class="st1" d="M261.6,80.8c-0.1,0.5-0.3,1-0.5,1.4c-0.4-0.3-0.8-0.6-1.3-0.8c0.1-0.2,0.3-0.4,0.4-0.6H261.6z M264.8,85
	c-0.3,0-0.4-0.1-0.4-0.6v-1.9c0.9-0.5,1.8-1,2.7-1.6l-0.9-1c-0.5,0.4-1.1,0.9-1.8,1.4v-2.6h2.7v-1.1h-8.9v1.1h1.7
	c-0.4,1.2-1.1,2.6-2,3.4c0.3,0.2,0.7,0.5,0.9,0.8c0.2-0.2,0.3-0.3,0.5-0.5c0.5,0.3,1,0.6,1.3,0.9c-0.6,0.9-1.3,1.5-2.3,1.9
	c0.3,0.2,0.7,0.7,0.9,0.9c1.9-1,3.3-3,3.8-6.2l-0.8-0.3l-0.2,0h-1.2c0.2-0.4,0.3-0.7,0.4-1l-0.2,0h2.2v5.7c0,1.3,0.3,1.6,1.4,1.6
	h1.3c1,0,1.3-0.5,1.4-2.1c-0.3-0.1-0.8-0.3-1.1-0.5c-0.1,1.2-0.1,1.5-0.5,1.5H264.8z M277.2,79.9v-1.2h-4v-1.9H272v1.9h-3.9v1.2h1.1
	v3.8c0,1.7,0.7,2.1,2.4,2.1h3.4c0.7,0,1.6,0,1.9-0.1c-0.1-0.3-0.1-0.9-0.2-1.2c-0.4,0.1-1.1,0.1-1.7,0.1h-3.6c-0.8,0-1-0.2-1-0.9
	v-3.9H277.2z"/>
<path class="st1" d="M65.5,94.6h1c0.5,0,0.8-0.1,1-0.3c0.2-0.2,0.3-0.5,0.3-0.9c0-0.4-0.1-0.7-0.3-0.9c-0.2-0.2-0.5-0.3-0.9-0.3
	c-0.4,0-0.6,0.1-0.9,0.3c-0.2,0.2-0.4,0.4-0.4,0.7h-1.8c0-0.5,0.1-0.9,0.4-1.3c0.3-0.4,0.6-0.7,1.1-0.9c0.5-0.2,1-0.3,1.5-0.3
	c1,0,1.7,0.2,2.3,0.7c0.6,0.5,0.8,1.1,0.8,1.9c0,0.4-0.1,0.8-0.4,1.2c-0.3,0.4-0.6,0.6-1,0.8c0.5,0.2,0.9,0.5,1.2,0.8
	c0.3,0.4,0.4,0.8,0.4,1.3c0,0.8-0.3,1.5-0.9,2c-0.6,0.5-1.4,0.7-2.4,0.7c-0.9,0-1.7-0.2-2.3-0.7c-0.6-0.5-0.9-1.1-0.9-1.9h1.8
	c0,0.3,0.1,0.6,0.4,0.9c0.3,0.2,0.6,0.3,1,0.3c0.4,0,0.8-0.1,1-0.3c0.2-0.2,0.4-0.5,0.4-0.9c0-0.9-0.5-1.4-1.5-1.4h-1V94.6z
	 M75.4,96.3c-0.5,0.5-1,0.7-1.7,0.7c-0.8,0-1.5-0.3-2-0.8c-0.5-0.6-0.7-1.3-0.7-2.3c0-0.6,0.1-1.2,0.4-1.7c0.3-0.5,0.6-0.9,1.1-1.2
	c0.5-0.3,1-0.4,1.6-0.4c0.6,0,1.2,0.2,1.6,0.5c0.5,0.3,0.8,0.7,1.1,1.3c0.3,0.6,0.4,1.2,0.4,2V95c0,1.5-0.4,2.8-1.1,3.6
	c-0.8,0.9-1.9,1.3-3.3,1.4l-0.5,0v-1.5l0.4,0C74.4,98.5,75.3,97.7,75.4,96.3z M74.2,95.6c0.3,0,0.6-0.1,0.8-0.2
	c0.2-0.2,0.4-0.3,0.5-0.6v-0.8c0-0.6-0.1-1.1-0.4-1.4c-0.2-0.3-0.6-0.5-1-0.5c-0.4,0-0.7,0.2-0.9,0.5c-0.2,0.3-0.4,0.8-0.4,1.3
	c0,0.5,0.1,0.9,0.3,1.2C73.4,95.4,73.8,95.6,74.2,95.6z M82.1,91.8c-0.1,1.3,0.1,5.9-3.9,8.1c0.4,0.3,0.8,0.6,1,0.9
	c2.1-1.3,3.2-3.2,3.7-5c0.6,1.8,1.7,3.9,3.9,5c0.2-0.3,0.6-0.7,0.9-1c-3.7-1.8-4.2-6.1-4.3-7.4c0-0.2,0-0.4,0-0.6H82.1z"/>
<path class="st1" d="M118,100h-6.3v-1.3l3-3.2c0.4-0.4,0.7-0.8,0.9-1.2c0.2-0.3,0.3-0.7,0.3-1c0-0.4-0.1-0.7-0.3-1
	c-0.2-0.2-0.5-0.4-0.9-0.4c-0.4,0-0.7,0.1-1,0.4c-0.2,0.3-0.4,0.7-0.4,1.1h-1.8c0-0.6,0.1-1.1,0.4-1.5c0.3-0.5,0.7-0.8,1.1-1.1
	c0.5-0.3,1-0.4,1.7-0.4c1,0,1.7,0.2,2.2,0.7c0.5,0.5,0.8,1.1,0.8,1.9c0,0.5-0.1,0.9-0.4,1.4c-0.2,0.5-0.6,1-1.2,1.7l-2.1,2.2h4V100z
	 M121,94.6h1c0.5,0,0.8-0.1,1-0.3c0.2-0.2,0.3-0.5,0.3-0.9c0-0.4-0.1-0.7-0.3-0.9c-0.2-0.2-0.5-0.3-0.9-0.3c-0.4,0-0.6,0.1-0.9,0.3
	c-0.2,0.2-0.4,0.4-0.4,0.7H119c0-0.5,0.1-0.9,0.4-1.3c0.3-0.4,0.6-0.7,1.1-0.9c0.5-0.2,1-0.3,1.5-0.3c1,0,1.7,0.2,2.3,0.7
	c0.6,0.5,0.8,1.1,0.8,1.9c0,0.4-0.1,0.8-0.4,1.2c-0.3,0.4-0.6,0.6-1,0.8c0.5,0.2,0.9,0.5,1.2,0.8c0.3,0.4,0.4,0.8,0.4,1.3
	c0,0.8-0.3,1.5-0.9,2c-0.6,0.5-1.4,0.7-2.4,0.7c-0.9,0-1.7-0.2-2.3-0.7c-0.6-0.5-0.9-1.1-0.9-1.9h1.8c0,0.3,0.1,0.6,0.4,0.9
	c0.3,0.2,0.6,0.3,1,0.3c0.4,0,0.8-0.1,1-0.3c0.2-0.2,0.4-0.5,0.4-0.9c0-0.9-0.5-1.4-1.5-1.4h-1V94.6z M130.1,91.8
	c-0.1,1.3,0.1,5.9-3.9,8.1c0.4,0.3,0.8,0.6,1,0.9c2.1-1.3,3.2-3.2,3.7-5c0.6,1.8,1.7,3.9,3.9,5c0.2-0.3,0.6-0.7,0.9-1
	c-3.7-1.8-4.2-6.1-4.3-7.4c0-0.2,0-0.4,0-0.6H130.1z"/>
<path class="st1" d="M162.1,100h-1.8v-7.1l-2.2,0.7v-1.5l3.8-1.4h0.2V100z M171.2,93.2c0,0.4-0.1,0.8-0.3,1.2s-0.5,0.6-0.9,0.8
	c0.4,0.2,0.8,0.5,1.1,0.9c0.3,0.4,0.4,0.8,0.4,1.3c0,0.8-0.3,1.5-0.8,1.9c-0.6,0.5-1.3,0.7-2.3,0.7c-1,0-1.7-0.2-2.3-0.7
	c-0.6-0.5-0.8-1.1-0.8-1.9c0-0.5,0.1-1,0.4-1.3c0.3-0.4,0.6-0.7,1.1-0.9c-0.4-0.2-0.7-0.5-0.9-0.8c-0.2-0.3-0.3-0.7-0.3-1.2
	c0-0.8,0.3-1.4,0.8-1.9c0.5-0.5,1.2-0.7,2.1-0.7c0.9,0,1.6,0.2,2.1,0.7C170.9,91.8,171.2,92.4,171.2,93.2z M169.5,97.3
	c0-0.4-0.1-0.7-0.3-1c-0.2-0.2-0.5-0.4-0.9-0.4c-0.4,0-0.7,0.1-0.9,0.4c-0.2,0.2-0.3,0.6-0.3,1c0,0.4,0.1,0.7,0.3,1
	c0.2,0.2,0.5,0.4,1,0.4c0.4,0,0.7-0.1,0.9-0.3C169.4,98.1,169.5,97.7,169.5,97.3z M169.3,93.3c0-0.4-0.1-0.6-0.3-0.9
	c-0.2-0.2-0.5-0.3-0.8-0.3c-0.3,0-0.6,0.1-0.8,0.3c-0.2,0.2-0.3,0.5-0.3,0.9c0,0.4,0.1,0.7,0.3,0.9c0.2,0.2,0.5,0.3,0.8,0.3
	s0.6-0.1,0.8-0.3C169.2,94,169.3,93.7,169.3,93.3z M176.1,91.8c-0.1,1.3,0.1,5.9-3.9,8.1c0.4,0.3,0.8,0.6,1,0.9
	c2.1-1.3,3.2-3.2,3.7-5c0.6,1.8,1.7,3.9,3.9,5c0.2-0.3,0.6-0.7,0.9-1c-3.7-1.8-4.2-6.1-4.3-7.4c0-0.2,0-0.4,0-0.6H176.1z"/>
<path class="st1" d="M211.2,95.5l0.5-4.7h5.2v1.5h-3.7l-0.2,2c0.4-0.2,0.9-0.3,1.4-0.3c0.9,0,1.6,0.3,2.1,0.8
	c0.5,0.5,0.7,1.3,0.7,2.3c0,0.6-0.1,1.1-0.4,1.6c-0.2,0.5-0.6,0.8-1.1,1.1c-0.5,0.3-1,0.4-1.7,0.4c-0.6,0-1.1-0.1-1.6-0.3
	c-0.5-0.2-0.9-0.5-1.1-1c-0.3-0.4-0.4-0.9-0.4-1.4h1.8c0,0.4,0.2,0.7,0.4,0.9c0.2,0.2,0.5,0.3,0.9,0.3c0.4,0,0.7-0.1,1-0.4
	c0.2-0.3,0.3-0.7,0.3-1.3c0-0.5-0.1-0.9-0.4-1.2c-0.3-0.3-0.6-0.4-1.1-0.4c-0.4,0-0.8,0.1-1.1,0.3l-0.2,0.2L211.2,95.5z M221.9,91.8
	c-0.1,1.3,0.1,5.9-3.9,8.1c0.4,0.3,0.8,0.6,1,0.9c2.1-1.3,3.2-3.2,3.7-5c0.6,1.8,1.7,3.9,3.9,5c0.2-0.3,0.6-0.7,0.9-1
	c-3.7-1.8-4.2-6.1-4.3-7.4c0-0.2,0-0.4,0-0.6H221.9z"/>
<path class="st1" d="M308.7,99.6h-1.8v-7.1l-2.2,0.7v-1.5l3.8-1.4h0.2V99.6z M312,95l0.5-4.7h5.2v1.5H314l-0.2,2
	c0.4-0.2,0.9-0.3,1.4-0.3c0.9,0,1.6,0.3,2.1,0.8c0.5,0.5,0.7,1.3,0.7,2.3c0,0.6-0.1,1.1-0.4,1.6c-0.2,0.5-0.6,0.8-1.1,1.1
	c-0.5,0.3-1,0.4-1.7,0.4c-0.6,0-1.1-0.1-1.6-0.3c-0.5-0.2-0.9-0.5-1.1-1c-0.3-0.4-0.4-0.9-0.4-1.4h1.8c0,0.4,0.2,0.7,0.4,0.9
	c0.2,0.2,0.5,0.3,0.9,0.3c0.4,0,0.7-0.1,1-0.4c0.2-0.3,0.3-0.7,0.3-1.3c0-0.5-0.1-0.9-0.4-1.2s-0.6-0.4-1.1-0.4
	c-0.4,0-0.8,0.1-1.1,0.3l-0.2,0.2L312,95z M322.7,91.3c-0.1,1.3,0.1,5.9-3.9,8.1c0.4,0.3,0.8,0.6,1,0.9c2.1-1.3,3.2-3.2,3.7-5
	c0.6,1.8,1.7,3.9,3.9,5c0.2-0.3,0.5-0.7,0.9-1c-3.7-1.8-4.2-6.1-4.3-7.4c0-0.2,0-0.4,0-0.6H322.7z"/>
<path class="st1" d="M311.6,81.1h0.8c0.2,0.6,0.4,1.1,0.7,1.6c-0.5,0.1-1,0.2-1.5,0.3V81.1z M314.1,78.1v0.5h-2.5v-0.5H314.1z
	 M314.9,81.1c-0.3,0.3-0.7,0.5-1,0.8c-0.2-0.2-0.3-0.5-0.4-0.8H314.9z M311.6,80.1v-0.6h2.5v0.6H311.6z M310,84.4
	c0.9-0.2,2.1-0.5,3.2-0.8l-0.1-0.9c0.5,0.8,1.2,1.4,2.2,1.8c0.2-0.3,0.5-0.8,0.8-1c-0.7-0.2-1.2-0.5-1.7-0.9c0.5-0.3,1-0.6,1.6-0.9
	l-0.8-0.6v-3.9h-4.8v6.1c-0.2,0-0.4,0.1-0.6,0.1L310,84.4z M309.6,78.5c-0.4-0.5-1.1-1.1-1.7-1.5l-0.9,0.7c0.6,0.4,1.3,1.1,1.6,1.6
	L309.6,78.5z M309.3,80.7H307v1.1h1.1v2.1c-0.4,0.3-0.9,0.7-1.4,0.9l0.6,1.2c0.6-0.4,1-0.8,1.4-1.2c0.6,0.8,1.5,1.1,2.7,1.1
	c1.2,0.1,3.2,0,4.4,0c0.1-0.3,0.2-0.9,0.4-1.2c-1.3,0.1-3.6,0.1-4.8,0.1c-1,0-1.8-0.3-2.2-1V80.7z M325,79.7h-3.6v-0.8h3.6V79.7z
	 M320.3,77.9v2h0.7v0.9h4.3v-0.9h0.8v-2h-2.4v-1.1h-1.2v1.1H320.3z M319.6,77.2l-0.2,0h-2.2v8.9h1v-7.9h0.8
	c-0.2,0.7-0.4,1.6-0.6,2.2c0.6,0.7,0.7,1.3,0.7,1.8c0,0.3,0,0.5-0.2,0.6c-0.1,0.1-0.2,0.1-0.3,0.1c-0.1,0-0.3,0-0.4,0
	c0.2,0.3,0.2,0.7,0.3,1c0.2,0,0.5,0,0.6,0c0.2,0,0.4-0.1,0.6-0.2c0.3-0.2,0.4-0.6,0.4-1.3c0-0.6-0.1-1.2-0.7-2
	c0.3-0.8,0.6-1.9,0.9-2.7L319.6,77.2z M324.7,85c-0.1,0-0.2,0-0.2-0.3v-2.2h1.5v-1.1h-5.6v1.1h1.1c-0.1,1.4-0.4,2.2-2,2.7
	c0.2,0.2,0.5,0.7,0.6,0.9c1.9-0.7,2.4-1.8,2.5-3.6h0.7v2.2c0,1,0.2,1.4,1.1,1.4h0.7c0.7,0,1-0.4,1.1-1.8c-0.3-0.1-0.8-0.3-1-0.4
	c0,1,0,1.2-0.2,1.2H324.7z"/>
<path class="st1" d="M264.5,99.6h-1.8v-7.1l-2.2,0.7v-1.5l3.8-1.4h0.2V99.6z M271.1,91.4c-0.1,1.3,0.1,5.9-3.9,8.1
	c0.4,0.3,0.8,0.6,1,0.9c2.1-1.3,3.2-3.2,3.7-5c0.6,1.8,1.7,3.9,3.9,5c0.2-0.3,0.5-0.7,0.9-1c-3.7-1.8-4.2-6.1-4.3-7.4
	c0-0.2,0-0.4,0-0.6H271.1z"/>
<path class="st1" d="M211.1,82.6v-0.5h1.7v0.5H211.1z M211.1,81h1.7v0.4h-1.7V81z M215.7,81v0.4H214V81H215.7z M215.7,82.6H214v-0.5
	h1.8V82.6z M214,85.2v-0.5h3.3v-0.9H214v-0.4h3v-3.2h-3v-0.4h3.9v-0.9H214v-0.5c1.1-0.1,2.1-0.2,3-0.3l-0.6-0.9
	c-1.7,0.3-4.4,0.4-6.7,0.5c0.1,0.2,0.2,0.6,0.2,0.9c0.9,0,1.9,0,2.8-0.1v0.4H209v0.9h3.8v0.4H210v3.2h2.8v0.4h-3.1v0.9h3.1v0.5h-3.9
	v0.9h9.1v-0.9H214z M221.4,79.3h6.6v-1.1h-3.6v-1.1h-1.3v1.1h-3v2.4c-0.1-0.5-0.4-1.1-0.7-1.6l-0.9,0.4c0.3,0.6,0.6,1.4,0.7,1.9
	l0.8-0.4v0.3c0,0.3,0,0.6,0,0.9c-0.6,0.3-1.2,0.6-1.6,0.8L219,84c0.4-0.2,0.7-0.4,1.1-0.6c-0.2,0.8-0.5,1.7-1.2,2.3
	c0.2,0.1,0.7,0.6,0.9,0.8c1.4-1.4,1.6-3.7,1.6-5.3V79.3z M225.5,85.2v-1.8h2.1v-1h-2.1V81h2.3v-1h-5.8v1h2.4v4.1h-1v-3.1h-1.1v3.1
	h-1v1h6.9v-1H225.5z"/>
</svg>
