<svg width="340" height="120" viewBox="0 0 340 120" fill="none" xmlns="http://www.w3.org/2000/svg">
<mask id="path-1-inside-1" fill="white">
<path fill-rule="evenodd" clip-rule="evenodd" d="M141 24H98V120H145V44H242V24H145H141Z"/>
</mask>
<path fill-rule="evenodd" clip-rule="evenodd" d="M141 24H98V120H145V44H242V24H145H141Z" fill="white"/>
<path d="M98 24V22H96V24H98ZM98 120H96V122H98V120ZM145 120V122H147V120H145ZM145 44V42H143V44H145ZM242 44V46H244V44H242ZM242 24H244V22H242V24ZM98 26H141V22H98V26ZM100 120V24H96V120H100ZM145 118H98V122H145V118ZM143 44V120H147V44H143ZM242 42H145V46H242V42ZM240 24V44H244V24H240ZM145 26H242V22H145V26ZM141 26H145V22H141V26Z" fill="#00A040" mask="url(#path-1-inside-1)"/>
<path d="M109.31 77.09V78.3H111.59C111.62 78.64 111.66 79 111.73 79.38L111.12 79.27C110.57 81.9 109.38 83.83 107.3 84.88C107.61 85.11 108.17 85.6 108.39 85.85C110.13 84.81 111.33 83.15 112.08 80.91C112.63 82.7 113.69 84.59 115.76 85.84C115.97 85.53 116.46 85.01 116.72 84.8C113.04 82.63 112.77 78.98 112.77 77.09H109.31ZM125.47 79.45H121.85V78.63H125.47V79.45ZM120.79 77.62V79.59H121.53V80.47H125.79V79.58H126.56V77.62H124.17V76.57H123.02V77.62H120.79ZM120.08 76.91L119.91 76.96H117.74V85.87H118.77V78.02H119.55C119.39 78.7 119.18 79.57 118.98 80.2C119.54 80.87 119.67 81.49 119.67 81.95C119.67 82.23 119.63 82.43 119.52 82.51C119.44 82.57 119.35 82.59 119.24 82.6C119.11 82.6 118.98 82.6 118.8 82.59C118.96 82.87 119.05 83.32 119.06 83.6C119.29 83.61 119.53 83.6 119.7 83.58C119.93 83.54 120.12 83.48 120.28 83.37C120.59 83.15 120.72 82.73 120.72 82.09C120.72 81.51 120.59 80.84 119.99 80.08C120.27 79.3 120.6 78.21 120.86 77.36L120.08 76.91ZM125.17 84.73C125.03 84.73 125.01 84.7 125.01 84.41V82.25H126.51V81.19H120.94V82.25H122.04C121.94 83.64 121.64 84.45 120.04 84.93C120.28 85.14 120.57 85.58 120.67 85.86C122.62 85.21 123.04 84.06 123.16 82.25H123.9V84.42C123.9 85.44 124.09 85.78 124.96 85.78H125.63C126.34 85.78 126.6 85.4 126.7 84C126.41 83.93 125.93 83.74 125.71 83.56C125.69 84.58 125.66 84.73 125.5 84.73H125.17ZM132.61 81.58V79.43H134.87V81.58H132.61ZM129.1 81.58V79.43H131.35V81.58H129.1ZM132.61 78.26V76.53H131.35V78.26H127.9V83.3H129.1V82.75H131.35V85.87H132.61V82.75H134.87V83.25H136.12V78.26H132.61Z" fill="#00A040"/>
<path d="M148 47H192V119H148V47Z" fill="white" stroke="#00A040" stroke-width="2"/>
<path d="M162.69 71.35H164.23V70.35H162.69V69.24H161.51V70.35H160V71.35H161.51V72.6H159.47V73.65H164.68V72.6H162.69V71.35ZM162.95 66C162.73 66.47 162.43 66.89 162.08 67.26C161.74 66.89 161.46 66.46 161.25 66H162.95ZM158.66 68.47H157.92V67.87H158.66V68.47ZM158.66 69.84H157.92V69.23H158.66V69.84ZM156.4 69.23H157.11V69.84H156.4V69.23ZM156.4 67.87H157.11V68.47H156.4V67.87ZM163.67 64.94L163.47 64.98H159.88V66H161.04L160.25 66.21C160.52 66.86 160.86 67.44 161.28 67.94C160.77 68.29 160.18 68.57 159.55 68.75V67.05H158.05V66.5H159.62V65.47H158.05V64.53H156.99V65.47H155.45V66.5H156.99V67.05H155.55V70.66H156.99V71.26H155.33V72.3H156.99V73.87H158.05V72.3H159.7V71.26H158.05V70.66H159.55V69.04C159.71 69.27 159.89 69.55 159.98 69.75C160.76 69.5 161.47 69.16 162.09 68.71C162.66 69.15 163.33 69.49 164.11 69.71C164.26 69.42 164.57 68.98 164.82 68.75C164.11 68.58 163.48 68.32 162.94 67.97C163.61 67.26 164.12 66.36 164.43 65.23L163.67 64.94ZM168.03 66.7H174.66V65.63H171.11V64.54H169.85V65.63H166.89V68.03C166.76 67.55 166.49 66.94 166.22 66.45L165.36 66.87C165.66 67.49 165.95 68.28 166.04 68.77L166.89 68.32V68.6C166.89 68.9 166.89 69.21 166.87 69.53C166.27 69.83 165.69 70.1 165.28 70.28L165.62 71.4C165.97 71.2 166.34 70.98 166.71 70.75C166.54 71.59 166.21 72.42 165.56 73.08C165.79 73.22 166.25 73.64 166.42 73.87C167.8 72.5 168.03 70.21 168.03 68.61V66.7ZM172.08 72.6V70.82H174.22V69.82H172.08V68.46H174.36V67.46H168.52V68.46H170.94V72.6H169.92V69.48H168.84V72.6H167.81V73.63H174.68V72.6H172.08ZM180 67.92C179.3 67.92 178.72 68.5 178.72 69.2C178.72 69.9 179.3 70.48 180 70.48C180.7 70.48 181.28 69.9 181.28 69.2C181.28 68.5 180.7 67.92 180 67.92ZM160.61 81.58V79.43H162.87V81.58H160.61ZM157.1 81.58V79.43H159.35V81.58H157.1ZM160.61 78.26V76.53H159.35V78.26H155.9V83.3H157.1V82.75H159.35V85.87H160.61V82.75H162.87V83.25H164.12V78.26H160.61ZM174.56 81.95V80.94H170.61V80.37H173.64V79.39H170.61V78.99C170.82 78.77 171.01 78.51 171.2 78.22H171.59C171.85 78.58 172.1 79 172.21 79.28L173.23 78.85C173.15 78.68 173.01 78.45 172.85 78.22H174.51V77.25H171.75C171.83 77.08 171.91 76.9 171.96 76.74L170.82 76.45C170.62 77.02 170.29 77.6 169.89 78.06V77.25H167.7C167.79 77.08 167.87 76.92 167.94 76.75L166.8 76.45C166.45 77.3 165.86 78.16 165.21 78.7C165.48 78.84 165.97 79.17 166.2 79.36C166.5 79.05 166.83 78.66 167.13 78.22H167.23C167.42 78.58 167.62 78.99 167.69 79.27L168.71 78.85C168.65 78.68 168.54 78.45 168.41 78.22H169.75C169.64 78.34 169.52 78.46 169.39 78.56C169.54 78.64 169.76 78.78 169.97 78.91H169.37V79.39H166.47V80.37H169.37V80.94H165.46V81.95H171.34V82.55H165.84V83.55H167.68L167.15 83.95C167.73 84.38 168.38 85 168.66 85.45L169.58 84.71C169.33 84.36 168.85 83.91 168.37 83.55H171.34V84.61C171.34 84.73 171.29 84.77 171.13 84.77C170.97 84.77 170.37 84.77 169.86 84.75C170.02 85.06 170.22 85.52 170.29 85.86C171.03 85.86 171.6 85.85 172.02 85.68C172.45 85.5 172.57 85.22 172.57 84.63V83.55H174.26V82.55H172.57V81.95H174.56ZM178.03 78.7H184.66V77.63H181.11V76.54H179.85V77.63H176.89V80.03C176.76 79.55 176.49 78.94 176.22 78.45L175.36 78.87C175.66 79.49 175.95 80.28 176.04 80.77L176.89 80.32V80.6C176.89 80.9 176.89 81.21 176.87 81.53C176.27 81.83 175.69 82.1 175.28 82.28L175.62 83.4C175.97 83.2 176.34 82.98 176.71 82.75C176.54 83.59 176.21 84.42 175.56 85.08C175.79 85.22 176.25 85.64 176.42 85.87C177.8 84.5 178.03 82.21 178.03 80.61V78.7ZM182.08 84.6V82.82H184.22V81.82H182.08V80.46H184.36V79.46H178.52V80.46H180.94V84.6H179.92V81.48H178.84V84.6H177.81V85.63H184.68V84.6H182.08Z" fill="#00A040"/>
<rect x="196" y="47" width="45" height="72" fill="white" stroke="#00A040" stroke-width="2"/>
<rect x="1" y="1" width="45" height="118" fill="white" stroke="#333333" stroke-width="2"/>
<path d="M9.08 70.29V69.35H10.07V69.95C10.07 70.06 10.07 70.18 10.06 70.29H9.08ZM12.2 69.35V70.29H11.13C11.14 70.19 11.14 70.08 11.14 69.98V69.35H12.2ZM9.44 66.82C9.91 66.42 10.32 65.98 10.6 65.56C10.9 65.98 11.33 66.43 11.81 66.82H9.44ZM13.27 71.2V68.44H11.14V67.8H12.46V67.31C12.72 67.48 12.99 67.64 13.25 67.77C13.41 67.45 13.64 67.01 13.86 66.73C12.82 66.34 11.8 65.5 11.11 64.54H10.03C9.55 65.31 8.68 66.16 7.71 66.65V66.58H6.8V64.53H5.7V66.58H4.48V67.68H5.63C5.37 68.87 4.83 70.25 4.25 71.04C4.43 71.32 4.68 71.78 4.79 72.1C5.13 71.62 5.44 70.93 5.7 70.18V73.86H6.8V69.61C7.01 70.03 7.21 70.46 7.32 70.75L7.92 69.83C7.77 69.58 7.07 68.51 6.8 68.16V67.68H7.71V67.2C7.83 67.4 7.93 67.61 8 67.78C8.28 67.64 8.55 67.48 8.82 67.29V67.8H10.07V68.44H8.05V71.2H9.88C9.6 71.91 8.93 72.56 7.4 73.04C7.58 73.23 7.92 73.68 8.03 73.92C9.5 73.45 10.3 72.74 10.72 71.94C11.33 73.02 12.12 73.53 13.11 73.91C13.24 73.56 13.52 73.17 13.79 72.92C12.83 72.62 12.08 72.24 11.5 71.2H13.27ZM16.21 68.8C17.04 68.3 17.79 67.65 18.38 66.92V68.53H19.55V66.96C20.16 67.68 20.93 68.32 21.78 68.8H16.21ZM17.3 72.65V72.23H20.66V72.65H17.3ZM17.3 70.99H20.66V71.41H17.3V70.99ZM20.66 70.17H17.3V69.77H20.66V70.17ZM23.46 66.67V65.64H19.55V64.53H18.38V65.64H14.55V66.67H17.24C16.47 67.44 15.37 68.11 14.27 68.47C14.52 68.69 14.84 69.12 15.01 69.39C15.4 69.24 15.77 69.05 16.14 68.84V72.65H14.49V73.69H23.53V72.65H21.89V68.86C22.23 69.05 22.58 69.22 22.94 69.35C23.12 69.05 23.46 68.61 23.71 68.4C22.57 68.05 21.44 67.42 20.64 66.67H23.46ZM25.91 67.24V66.45H32.03V67.24H29.54V66.67H28.35V67.24H25.91ZM33.4 71.42V70.39H29.45C29.5 70.18 29.52 69.97 29.53 69.76H32.26V68.8H29.54V68.2H32.46V67.54H33.26V65.41H29.6V64.54H28.38V65.41H24.73V67.54H25.62V68.2H28.35V68.8H25.78V69.76H28.34C28.32 69.97 28.29 70.18 28.24 70.39H24.65V71.42H27.66C27.11 72.01 26.15 72.53 24.47 72.91C24.73 73.16 25.07 73.61 25.21 73.87C27.25 73.32 28.36 72.53 28.95 71.64C29.74 72.88 30.93 73.59 32.83 73.89C32.98 73.57 33.29 73.1 33.53 72.85C31.95 72.68 30.83 72.22 30.12 71.42H33.4ZM38.24 69.67L38.26 68.67V68.22H36.46C36.47 67.87 36.48 67.51 36.49 67.15H38.4C38.3 67.28 38.19 67.4 38.08 67.51C38.34 67.69 38.78 68.13 38.97 68.35L39.06 68.25V69.29L38.24 69.67ZM40.68 72.85C40.18 72.85 40.11 72.79 40.11 72.38V69.97L40.65 69.72V72.05H41.64V69.26L42.28 68.96C42.27 69.91 42.27 70.46 42.25 70.55C42.24 70.68 42.19 70.7 42.11 70.7C42.03 70.7 41.89 70.7 41.77 70.69C41.88 70.91 41.96 71.29 41.98 71.56C42.25 71.56 42.57 71.55 42.81 71.45C43.08 71.34 43.22 71.12 43.24 70.76C43.27 70.46 43.27 69.44 43.28 68.02L43.32 67.86L42.58 67.6L42.4 67.73L42.36 67.76L41.64 68.09V67.12H40.65V68.55L40.11 68.8V67.84H39.38C39.59 67.55 39.78 67.22 39.95 66.87H43.54V65.79H40.4C40.51 65.45 40.62 65.1 40.7 64.75L39.53 64.53C39.35 65.35 39.05 66.15 38.64 66.8V66.05H37.08V64.54H35.94V66.05H34.41V67.15H35.37C35.34 69.46 35.25 71.66 34.26 73.03C34.55 73.22 34.92 73.58 35.11 73.86C35.94 72.72 36.26 71.1 36.4 69.3H37.18C37.14 71.65 37.08 72.49 36.95 72.69C36.87 72.82 36.79 72.85 36.66 72.85C36.53 72.85 36.25 72.85 35.94 72.81C36.1 73.1 36.21 73.54 36.23 73.87C36.63 73.87 37.01 73.88 37.26 73.82C37.53 73.77 37.72 73.67 37.9 73.41C38.13 73.09 38.2 72.13 38.24 69.68L38.65 70.65L39.06 70.46V72.38C39.06 73.52 39.38 73.84 40.56 73.84H42.31C43.28 73.84 43.58 73.46 43.71 72.21C43.42 72.14 42.99 71.97 42.75 71.8C42.69 72.68 42.61 72.85 42.22 72.85H40.68ZM18.17 76.76C18.1 78.08 18.24 82.62 14.25 84.83C14.65 85.11 15.04 85.47 15.25 85.78C17.36 84.49 18.41 82.56 18.95 80.76C19.51 82.6 20.63 84.66 22.89 85.78C23.08 85.46 23.44 85.05 23.81 84.77C20.08 83.02 19.58 78.71 19.5 77.33C19.51 77.12 19.52 76.92 19.53 76.76H18.17ZM29.36 82.68V81.72C29.42 81.78 29.46 81.83 29.5 81.87C29.66 81.65 29.82 81.41 29.96 81.15C30.14 81.87 30.36 82.53 30.64 83.12C30.2 83.74 29.62 84.24 28.88 84.63C28.65 84.46 28.36 84.28 28.05 84.1C28.3 83.71 28.47 83.24 28.58 82.68H29.36ZM26.49 82.68H27.46C27.37 83.04 27.24 83.34 27.08 83.59C26.79 83.45 26.5 83.33 26.2 83.21L26.49 82.68ZM31.87 79.43C31.76 80.31 31.58 81.1 31.33 81.78C31.06 81.06 30.86 80.27 30.72 79.43H31.87ZM33.66 79.43V78.33H31C31.13 77.8 31.24 77.25 31.32 76.69L30.12 76.53C29.88 78.31 29.4 80.01 28.55 81.03C28.77 81.18 29.13 81.49 29.36 81.72H26.98L27.22 81.24L26.79 81.15H27.43V79.94C27.82 80.25 28.24 80.6 28.46 80.81L29.09 79.99C28.87 79.84 28.16 79.42 27.68 79.15H29.32V78.21H28.37C28.61 77.9 28.92 77.48 29.23 77.05L28.23 76.65C28.07 77.03 27.79 77.56 27.56 77.92L28.22 78.21H27.43V76.53H26.34V78.21H25.5L26.14 77.93C26.06 77.58 25.8 77.07 25.54 76.69L24.68 77.05C24.89 77.41 25.11 77.87 25.2 78.21H24.44V79.15H26C25.52 79.67 24.85 80.15 24.24 80.4C24.46 80.61 24.71 81 24.84 81.26C25.34 80.98 25.88 80.56 26.34 80.1V81.06L26.12 81.01C26.02 81.23 25.9 81.47 25.78 81.72H24.33V82.68H25.28C25.03 83.16 24.78 83.61 24.56 83.96L25.6 84.28L25.71 84.09C25.9 84.17 26.09 84.26 26.27 84.36C25.8 84.63 25.18 84.79 24.37 84.9C24.56 85.14 24.77 85.54 24.84 85.88C25.91 85.66 26.71 85.37 27.3 84.93C27.71 85.19 28.07 85.45 28.34 85.68L28.79 85.22C28.95 85.46 29.1 85.73 29.17 85.9C30.04 85.46 30.73 84.92 31.28 84.26C31.73 84.91 32.28 85.44 32.96 85.85C33.14 85.52 33.51 85.06 33.78 84.82C33.05 84.44 32.47 83.87 32.01 83.16C32.55 82.15 32.89 80.91 33.1 79.43H33.66Z" fill="#4D4D4D"/>
<path d="M12.9551 93.2144C12.9551 93.6629 12.8429 94.0607 12.6187 94.4077C12.3944 94.7547 12.0854 95.0319 11.6919 95.2393C12.1405 95.4551 12.4959 95.7534 12.7583 96.1343C13.0207 96.5109 13.1519 96.9552 13.1519 97.4673C13.1519 98.2882 12.8726 98.9378 12.314 99.416C11.7554 99.89 10.9958 100.127 10.0352 100.127C9.07454 100.127 8.31283 99.8879 7.75 99.4097C7.18717 98.9315 6.90576 98.284 6.90576 97.4673C6.90576 96.9552 7.03695 96.5088 7.29932 96.1279C7.56169 95.7471 7.91504 95.4508 8.35938 95.2393C7.96582 95.0319 7.6569 94.7547 7.43262 94.4077C7.21257 94.0607 7.10254 93.6629 7.10254 93.2144C7.10254 92.4272 7.36491 91.8009 7.88965 91.3354C8.41439 90.8657 9.12744 90.6309 10.0288 90.6309C10.9259 90.6309 11.6369 90.8636 12.1616 91.3291C12.6906 91.7904 12.9551 92.4188 12.9551 93.2144ZM11.311 97.334C11.311 96.932 11.1947 96.6104 10.9619 96.3691C10.7292 96.1279 10.416 96.0073 10.0225 96.0073C9.63314 96.0073 9.3221 96.1279 9.08936 96.3691C8.85661 96.6061 8.74023 96.9277 8.74023 97.334C8.74023 97.7275 8.85449 98.0449 9.08301 98.2861C9.31152 98.5273 9.62891 98.6479 10.0352 98.6479C10.4329 98.6479 10.744 98.5316 10.9683 98.2988C11.1968 98.0661 11.311 97.7445 11.311 97.334ZM11.1206 93.3032C11.1206 92.9435 11.0254 92.6558 10.835 92.4399C10.6445 92.2199 10.3758 92.1099 10.0288 92.1099C9.68604 92.1099 9.41943 92.2157 9.229 92.4272C9.03857 92.6388 8.94336 92.9308 8.94336 93.3032C8.94336 93.6714 9.03857 93.9676 9.229 94.1919C9.41943 94.4162 9.68815 94.5283 10.0352 94.5283C10.3822 94.5283 10.6488 94.4162 10.835 94.1919C11.0254 93.9676 11.1206 93.6714 11.1206 93.3032ZM20.6167 96.1787C20.6167 97.4567 20.3522 98.4342 19.8232 99.1113C19.2943 99.7884 18.5199 100.127 17.5 100.127C16.4928 100.127 15.7227 99.7948 15.1895 99.1304C14.6562 98.466 14.3833 97.5138 14.3706 96.2739V94.5728C14.3706 93.2821 14.6372 92.3024 15.1704 91.6338C15.7078 90.9652 16.4801 90.6309 17.4873 90.6309C18.4945 90.6309 19.2646 90.9631 19.7979 91.6274C20.3311 92.2876 20.604 93.2376 20.6167 94.4775V96.1787ZM18.7822 94.3125C18.7822 93.5465 18.6764 92.9901 18.4648 92.6431C18.2575 92.2918 17.9316 92.1162 17.4873 92.1162C17.0557 92.1162 16.7362 92.2834 16.5288 92.6177C16.3257 92.9478 16.2178 93.4661 16.2051 94.1729V96.4199C16.2051 97.1732 16.3066 97.7339 16.5098 98.1021C16.7171 98.466 17.0472 98.6479 17.5 98.6479C17.9486 98.6479 18.2723 98.4723 18.4712 98.1211C18.6701 97.7699 18.7738 97.2324 18.7822 96.5088V94.3125ZM26.3169 100H24.4824V92.9287L22.2925 93.6079V92.1162L26.1201 90.7451H26.3169V100ZM32.8673 91.76C32.7973 93.08 32.9373 97.62 28.9473 99.83C29.3473 100.11 29.7373 100.47 29.9473 100.78C32.0573 99.49 33.1073 97.56 33.6473 95.76C34.2073 97.6 35.3273 99.66 37.5873 100.78C37.7773 100.46 38.1373 100.05 38.5073 99.77C34.7773 98.02 34.2773 93.71 34.1973 92.33C34.2073 92.12 34.2173 91.92 34.2273 91.76H32.8673Z" fill="#4D4D4D"/>
<mask id="path-10-inside-2" fill="white">
<path fill-rule="evenodd" clip-rule="evenodd" d="M340 0H49V17V22V120H96V22H340V0Z"/>
</mask>
<path fill-rule="evenodd" clip-rule="evenodd" d="M340 0H49V17V22V120H96V22H340V0Z" fill="white"/>
<path d="M49 0V-2H47V0H49ZM340 0H342V-2H340V0ZM49 120H47V122H49V120ZM96 120V122H98V120H96ZM96 22V20H94V22H96ZM340 22V24H342V22H340ZM49 2H340V-2H49V2ZM51 17V0H47V17H51ZM51 22V17H47V22H51ZM51 120V22H47V120H51ZM96 118H49V122H96V118ZM94 22V120H98V22H94ZM340 20H96V24H340V20ZM338 0V22H342V0H338Z" fill="#00A040" mask="url(#path-10-inside-2)"/>
<path d="M60.83 78.21H58.56V77.73H60.83V78.21ZM60.83 79.48H58.56V78.99H60.83V79.48ZM61.97 76.9H57.5V80.31H61.97V76.9ZM62.67 81.63V80.7H56.72V81.63H57.77C57.47 82.16 57.05 82.62 56.57 83C56.67 82.77 56.72 82.47 56.72 82.09C56.72 81.51 56.59 80.84 55.99 80.08C56.27 79.3 56.6 78.21 56.86 77.36L56.08 76.91L55.91 76.96H53.74V85.87H54.77V78.02H55.55C55.39 78.7 55.18 79.57 54.98 80.2C55.54 80.87 55.67 81.49 55.67 81.95C55.67 82.23 55.63 82.43 55.52 82.51C55.44 82.57 55.35 82.59 55.24 82.6C55.11 82.6 54.98 82.6 54.8 82.59C54.96 82.87 55.05 83.32 55.06 83.6C55.29 83.61 55.53 83.6 55.7 83.58C55.91 83.54 56.08 83.49 56.23 83.4C56.44 83.59 56.71 83.87 56.84 84.03C57.24 83.76 57.62 83.42 57.96 83.02H58.44C57.95 83.79 57.22 84.46 56.42 84.9C56.61 85.07 56.93 85.46 57.07 85.64C58.01 85.04 58.93 84.1 59.51 83.02H60.01C59.63 83.89 59.04 84.67 58.34 85.18C58.54 85.34 58.91 85.66 59.07 85.84C59.87 85.18 60.58 84.17 61.04 83.02H61.28C61.2 84.19 61.11 84.67 60.99 84.81C60.91 84.91 60.84 84.93 60.71 84.93C60.58 84.93 60.35 84.92 60.07 84.89C60.21 85.15 60.32 85.56 60.33 85.87C60.71 85.88 61.07 85.87 61.29 85.84C61.53 85.79 61.72 85.72 61.9 85.49C62.15 85.21 62.28 84.42 62.38 82.5L62.41 82.1H58.61C58.7 81.95 58.79 81.79 58.86 81.63H62.67ZM70.26 84.42V82.42H72.09V81.31H70.26V79.67H72.3V78.55H70.26V76.59H69.07V78.55H68.27C68.37 78.1 68.45 77.63 68.52 77.16L67.36 77C67.26 77.85 67.08 78.71 66.83 79.44C66.69 79.05 66.48 78.57 66.28 78.18L65.7 78.42V76.53H64.51V78.57L63.67 78.45C63.6 79.27 63.42 80.39 63.18 81.05L64.06 81.37C64.29 80.66 64.45 79.56 64.51 78.72V85.87H65.7V79.04C65.87 79.45 66.02 79.89 66.08 80.19L66.65 79.93C66.55 80.14 66.45 80.33 66.35 80.51C66.63 80.63 67.17 80.9 67.41 81.05C67.62 80.67 67.82 80.19 67.97 79.67H69.07V81.31H67.14V82.42H69.07V84.42H66.4V85.55H72.62V84.42H70.26ZM77.91 78.64H79.54C79.2 78.96 78.84 79.26 78.46 79.55H77.91V78.64ZM80.09 83.01H76.65V82.37H80.09V83.01ZM76.65 84.59V83.91H80.09V84.59H76.65ZM82.48 80.6V79.55H80.16C80.89 78.88 81.56 78.14 82.13 77.35L81.11 76.83C80.8 77.27 80.46 77.69 80.08 78.1V77.61H77.91V76.53H76.73V77.61H74.38V78.64H76.73V79.55H73.52V80.6H76.92C75.77 81.28 74.52 81.85 73.21 82.26C73.43 82.5 73.79 82.98 73.93 83.24C74.44 83.05 74.96 82.83 75.46 82.61V85.88H76.65V85.58H80.09V85.84H81.34V81.4H77.7C78.11 81.14 78.49 80.88 78.88 80.6H82.48ZM88.36 82.68V81.72C88.42 81.78 88.46 81.83 88.5 81.87C88.66 81.65 88.82 81.41 88.96 81.15C89.14 81.87 89.36 82.53 89.64 83.12C89.2 83.74 88.62 84.24 87.88 84.63C87.65 84.46 87.36 84.28 87.05 84.1C87.3 83.71 87.47 83.24 87.58 82.68H88.36ZM85.49 82.68H86.46C86.37 83.04 86.24 83.34 86.08 83.59C85.79 83.45 85.5 83.33 85.2 83.21L85.49 82.68ZM90.87 79.43C90.76 80.31 90.58 81.1 90.33 81.78C90.06 81.06 89.86 80.27 89.72 79.43H90.87ZM92.66 79.43V78.33H90C90.13 77.8 90.24 77.25 90.32 76.69L89.12 76.53C88.88 78.31 88.4 80.01 87.55 81.03C87.77 81.18 88.13 81.49 88.36 81.72H85.98L86.22 81.24L85.79 81.15H86.43V79.94C86.82 80.25 87.24 80.6 87.46 80.81L88.09 79.99C87.87 79.84 87.16 79.42 86.68 79.15H88.32V78.21H87.37C87.61 77.9 87.92 77.48 88.23 77.05L87.23 76.65C87.07 77.03 86.79 77.56 86.56 77.92L87.22 78.21H86.43V76.53H85.34V78.21H84.5L85.14 77.93C85.06 77.58 84.8 77.07 84.54 76.69L83.68 77.05C83.89 77.41 84.11 77.87 84.2 78.21H83.44V79.15H85C84.52 79.67 83.85 80.15 83.24 80.4C83.46 80.61 83.71 81 83.84 81.26C84.34 80.98 84.88 80.56 85.34 80.1V81.06L85.12 81.01C85.02 81.23 84.9 81.47 84.78 81.72H83.33V82.68H84.28C84.03 83.16 83.78 83.61 83.56 83.96L84.6 84.28L84.71 84.09C84.9 84.17 85.09 84.26 85.27 84.36C84.8 84.63 84.18 84.79 83.37 84.9C83.56 85.14 83.77 85.54 83.84 85.88C84.91 85.66 85.71 85.37 86.3 84.93C86.71 85.19 87.07 85.45 87.34 85.68L87.79 85.22C87.95 85.46 88.1 85.73 88.17 85.9C89.04 85.46 89.73 84.92 90.28 84.26C90.73 84.91 91.28 85.44 91.96 85.85C92.14 85.52 92.51 85.06 92.78 84.82C92.05 84.44 91.47 83.87 91.01 83.16C91.55 82.15 91.89 80.91 92.1 79.43H92.66Z" fill="#00A040"/>
<path d="M214.05 80.8H214.85C215.04 81.4 215.27 81.94 215.57 82.41C215.06 82.51 214.54 82.62 214.05 82.72V80.8ZM216.56 77.87V78.39H214.05V77.87H216.56ZM217.35 80.8C217.06 81.06 216.68 81.35 216.34 81.58C216.18 81.34 216.04 81.08 215.93 80.8H217.35ZM214.05 79.8V79.25H216.56V79.8H214.05ZM212.47 84.18C213.4 83.96 214.58 83.69 215.7 83.42L215.62 82.49C216.14 83.29 216.86 83.88 217.85 84.24C218.01 83.92 218.35 83.46 218.6 83.22C217.92 83.03 217.37 82.71 216.93 82.29C217.41 82.03 217.97 81.68 218.48 81.35L217.72 80.72V76.87H212.9V82.94C212.68 82.98 212.47 83.02 212.28 83.05L212.47 84.18ZM212.07 78.29C211.72 77.82 210.99 77.2 210.4 76.78L209.52 77.5C210.11 77.94 210.82 78.6 211.12 79.08L212.07 78.29ZM211.78 80.41H209.47V81.5H210.62V83.61C210.18 83.95 209.68 84.28 209.25 84.53L209.83 85.77C210.38 85.35 210.82 84.96 211.26 84.57C211.91 85.35 212.73 85.63 213.96 85.68C215.15 85.73 217.16 85.71 218.36 85.65C218.42 85.31 218.6 84.73 218.73 84.45C217.4 84.55 215.15 84.58 213.98 84.53C212.94 84.49 212.19 84.22 211.78 83.55V80.41ZM227.47 79.45H223.85V78.63H227.47V79.45ZM222.79 77.62V79.59H223.53V80.47H227.79V79.58H228.56V77.62H226.17V76.57H225.02V77.62H222.79ZM222.08 76.91L221.91 76.96H219.74V85.87H220.77V78.02H221.55C221.39 78.7 221.18 79.57 220.98 80.2C221.54 80.87 221.67 81.49 221.67 81.95C221.67 82.23 221.63 82.43 221.52 82.51C221.44 82.57 221.35 82.59 221.24 82.6C221.11 82.6 220.98 82.6 220.8 82.59C220.96 82.87 221.05 83.32 221.06 83.6C221.29 83.61 221.53 83.6 221.7 83.58C221.93 83.54 222.12 83.48 222.28 83.37C222.59 83.15 222.72 82.73 222.72 82.09C222.72 81.51 222.59 80.84 221.99 80.08C222.27 79.3 222.6 78.21 222.86 77.36L222.08 76.91ZM227.17 84.73C227.03 84.73 227.01 84.7 227.01 84.41V82.25H228.51V81.19H222.94V82.25H224.04C223.94 83.64 223.64 84.45 222.04 84.93C222.28 85.14 222.57 85.58 222.67 85.86C224.62 85.21 225.04 84.06 225.16 82.25H225.9V84.42C225.9 85.44 226.09 85.78 226.96 85.78H227.63C228.34 85.78 228.6 85.4 228.7 84C228.41 83.93 227.93 83.74 227.71 83.56C227.69 84.58 227.66 84.73 227.5 84.73H227.17Z" fill="#00A040"/>
<rect x="245" y="25" width="45" height="94" stroke="#00A040" stroke-width="2"/>
<rect x="294" y="25" width="45" height="94" stroke="#00A040" stroke-width="2"/>
<path d="M309.05 78.8H309.85C310.04 79.4 310.27 79.94 310.57 80.41C310.06 80.51 309.54 80.62 309.05 80.72V78.8ZM311.56 75.87V76.39H309.05V75.87H311.56ZM312.35 78.8C312.06 79.06 311.68 79.35 311.34 79.58C311.18 79.34 311.04 79.08 310.93 78.8H312.35ZM309.05 77.8V77.25H311.56V77.8H309.05ZM307.47 82.18C308.4 81.96 309.58 81.69 310.7 81.42L310.62 80.49C311.14 81.29 311.86 81.88 312.85 82.24C313.01 81.92 313.35 81.46 313.6 81.22C312.92 81.03 312.37 80.71 311.93 80.29C312.41 80.03 312.97 79.68 313.48 79.35L312.72 78.72V74.87H307.9V80.94C307.68 80.98 307.47 81.02 307.28 81.05L307.47 82.18ZM307.07 76.29C306.72 75.82 305.99 75.2 305.4 74.78L304.52 75.5C305.11 75.94 305.82 76.6 306.12 77.08L307.07 76.29ZM306.78 78.41H304.47V79.5H305.62V81.61C305.18 81.95 304.68 82.28 304.25 82.53L304.83 83.77C305.38 83.35 305.82 82.96 306.26 82.57C306.91 83.35 307.73 83.63 308.96 83.68C310.15 83.73 312.16 83.71 313.36 83.65C313.42 83.31 313.6 82.73 313.73 82.45C312.4 82.55 310.15 82.58 308.98 82.53C307.94 82.49 307.19 82.22 306.78 81.55V78.41ZM322.47 77.45H318.85V76.63H322.47V77.45ZM317.79 75.62V77.59H318.53V78.47H322.79V77.58H323.56V75.62H321.17V74.57H320.02V75.62H317.79ZM317.08 74.91L316.91 74.96H314.74V83.87H315.77V76.02H316.55C316.39 76.7 316.18 77.57 315.98 78.2C316.54 78.87 316.67 79.49 316.67 79.95C316.67 80.23 316.63 80.43 316.52 80.51C316.44 80.57 316.35 80.59 316.24 80.6C316.11 80.6 315.98 80.6 315.8 80.59C315.96 80.87 316.05 81.32 316.06 81.6C316.29 81.61 316.53 81.6 316.7 81.58C316.93 81.54 317.12 81.48 317.28 81.37C317.59 81.15 317.72 80.73 317.72 80.09C317.72 79.51 317.59 78.84 316.99 78.08C317.27 77.3 317.6 76.21 317.86 75.36L317.08 74.91ZM322.17 82.73C322.03 82.73 322.01 82.7 322.01 82.41V80.25H323.51V79.19H317.94V80.25H319.04C318.94 81.64 318.64 82.45 317.04 82.93C317.28 83.14 317.57 83.58 317.67 83.86C319.62 83.21 320.04 82.06 320.16 80.25H320.9V82.42C320.9 83.44 321.09 83.78 321.96 83.78H322.63C323.34 83.78 323.6 83.4 323.7 82C323.41 81.93 322.93 81.74 322.71 81.56C322.69 82.58 322.66 82.73 322.5 82.73H322.17Z" fill="#00A040"/>
<path d="M65.5298 94.5664H66.5073C66.9728 94.5664 67.3177 94.45 67.542 94.2173C67.7663 93.9845 67.8784 93.6756 67.8784 93.2905C67.8784 92.9181 67.7663 92.6283 67.542 92.4209C67.3219 92.2135 67.0173 92.1099 66.6279 92.1099C66.2767 92.1099 65.9826 92.2072 65.7456 92.4019C65.5086 92.5923 65.3901 92.842 65.3901 93.1509H63.5557C63.5557 92.6685 63.6847 92.2368 63.9429 91.856C64.2052 91.4709 64.5692 91.1704 65.0347 90.9546C65.5044 90.7388 66.0207 90.6309 66.5835 90.6309C67.561 90.6309 68.327 90.8657 68.8813 91.3354C69.4357 91.8009 69.7129 92.4442 69.7129 93.2651C69.7129 93.6883 69.5838 94.0776 69.3257 94.4331C69.0675 94.7886 68.729 95.0615 68.3101 95.252C68.8306 95.4382 69.2178 95.7174 69.4717 96.0898C69.7298 96.4622 69.8589 96.9023 69.8589 97.4102C69.8589 98.2311 69.5584 98.8892 68.9575 99.3843C68.3608 99.8794 67.5695 100.127 66.5835 100.127C65.661 100.127 64.9056 99.8836 64.3174 99.397C63.7334 98.9103 63.4414 98.2671 63.4414 97.4673H65.2759C65.2759 97.8143 65.4049 98.0978 65.6631 98.3179C65.9255 98.5379 66.2471 98.6479 66.6279 98.6479C67.0638 98.6479 67.4045 98.5337 67.6499 98.3052C67.8996 98.0724 68.0244 97.7656 68.0244 97.3848C68.0244 96.4622 67.5166 96.001 66.501 96.001H65.5298V94.5664ZM75.4194 96.3057C74.9412 96.7754 74.3826 97.0103 73.7437 97.0103C72.9269 97.0103 72.2731 96.731 71.7822 96.1724C71.2913 95.6095 71.0459 94.8521 71.0459 93.8999C71.0459 93.2948 71.1771 92.7404 71.4395 92.2368C71.7061 91.729 72.0763 91.3354 72.5503 91.0562C73.0243 90.7726 73.5575 90.6309 74.1499 90.6309C74.7593 90.6309 75.3009 90.7832 75.7749 91.0879C76.2489 91.3926 76.617 91.8306 76.8794 92.4019C77.1418 92.9731 77.2751 93.627 77.2793 94.3633V95.0425C77.2793 96.5828 76.8963 97.7931 76.1304 98.6733C75.3644 99.5535 74.279 100.023 72.874 100.083L72.4233 100.089V98.5591L72.8296 98.5527C74.425 98.4808 75.2882 97.7318 75.4194 96.3057ZM74.1943 95.6074C74.4906 95.6074 74.7445 95.5312 74.9561 95.3789C75.1719 95.2266 75.3348 95.0425 75.4448 94.8267V94.0713C75.4448 93.4492 75.3263 92.9668 75.0894 92.624C74.8524 92.2812 74.535 92.1099 74.1372 92.1099C73.769 92.1099 73.4665 92.2791 73.2295 92.6177C72.9925 92.952 72.874 93.373 72.874 93.8809C72.874 94.3844 72.9883 94.7992 73.2168 95.125C73.4495 95.4466 73.7754 95.6074 74.1943 95.6074ZM82.1348 91.76C82.0648 93.08 82.2048 97.62 78.2148 99.83C78.6148 100.11 79.0048 100.47 79.2148 100.78C81.3248 99.49 82.3748 97.56 82.9148 95.76C83.4748 97.6 84.5948 99.66 86.8548 100.78C87.0448 100.46 87.4048 100.05 87.7748 99.77C84.0448 98.02 83.5448 93.71 83.4648 92.33C83.4748 92.12 83.4848 91.92 83.4948 91.76H82.1348Z" fill="#00A040"/>
<path d="M117.999 100H111.664V98.7432L114.653 95.5566C115.064 95.1081 115.366 94.7166 115.561 94.3823C115.76 94.048 115.859 93.7306 115.859 93.4302C115.859 93.0197 115.756 92.6981 115.548 92.4653C115.341 92.2284 115.045 92.1099 114.66 92.1099C114.245 92.1099 113.917 92.2537 113.676 92.5415C113.439 92.825 113.32 93.1995 113.32 93.665H111.479C111.479 93.1022 111.613 92.5881 111.879 92.1226C112.15 91.6571 112.531 91.2931 113.022 91.0308C113.513 90.7642 114.069 90.6309 114.691 90.6309C115.644 90.6309 116.382 90.8594 116.907 91.3164C117.436 91.7734 117.7 92.4188 117.7 93.2524C117.7 93.7095 117.582 94.175 117.345 94.6489C117.108 95.1229 116.701 95.6751 116.126 96.3057L114.025 98.521H117.999V100ZM120.995 94.5664H121.972C122.438 94.5664 122.783 94.45 123.007 94.2173C123.231 93.9845 123.343 93.6756 123.343 93.2905C123.343 92.9181 123.231 92.6283 123.007 92.4209C122.787 92.2135 122.482 92.1099 122.093 92.1099C121.742 92.1099 121.447 92.2072 121.21 92.4019C120.973 92.5923 120.855 92.842 120.855 93.1509H119.021C119.021 92.6685 119.15 92.2368 119.408 91.856C119.67 91.4709 120.034 91.1704 120.5 90.9546C120.969 90.7388 121.486 90.6309 122.048 90.6309C123.026 90.6309 123.792 90.8657 124.346 91.3354C124.901 91.8009 125.178 92.4442 125.178 93.2651C125.178 93.6883 125.049 94.0776 124.791 94.4331C124.532 94.7886 124.194 95.0615 123.775 95.252C124.295 95.4382 124.683 95.7174 124.937 96.0898C125.195 96.4622 125.324 96.9023 125.324 97.4102C125.324 98.2311 125.023 98.8892 124.422 99.3843C123.826 99.8794 123.034 100.127 122.048 100.127C121.126 100.127 120.37 99.8836 119.782 99.397C119.198 98.9103 118.906 98.2671 118.906 97.4673H120.741C120.741 97.8143 120.87 98.0978 121.128 98.3179C121.39 98.5379 121.712 98.6479 122.093 98.6479C122.529 98.6479 122.869 98.5337 123.115 98.3052C123.364 98.0724 123.489 97.7656 123.489 97.3848C123.489 96.4622 122.981 96.001 121.966 96.001H120.995V94.5664ZM130.135 91.76C130.065 93.08 130.205 97.62 126.215 99.83C126.615 100.11 127.005 100.47 127.215 100.78C129.325 99.49 130.375 97.56 130.915 95.76C131.475 97.6 132.595 99.66 134.855 100.78C135.045 100.46 135.405 100.05 135.775 99.77C132.045 98.02 131.545 93.71 131.465 92.33C131.475 92.12 131.485 91.92 131.495 91.76H130.135Z" fill="#00A040"/>
<path d="M162.12 100H160.285V92.9287L158.095 93.6079V92.1162L161.923 90.7451H162.12V100ZM171.152 93.2144C171.152 93.6629 171.04 94.0607 170.816 94.4077C170.592 94.7547 170.283 95.0319 169.889 95.2393C170.338 95.4551 170.693 95.7534 170.956 96.1343C171.218 96.5109 171.349 96.9552 171.349 97.4673C171.349 98.2882 171.07 98.9378 170.511 99.416C169.953 99.89 169.193 100.127 168.232 100.127C167.272 100.127 166.51 99.8879 165.947 99.4097C165.384 98.9315 165.103 98.284 165.103 97.4673C165.103 96.9552 165.234 96.5088 165.497 96.1279C165.759 95.7471 166.112 95.4508 166.557 95.2393C166.163 95.0319 165.854 94.7547 165.63 94.4077C165.41 94.0607 165.3 93.6629 165.3 93.2144C165.3 92.4272 165.562 91.8009 166.087 91.3354C166.612 90.8657 167.325 90.6309 168.226 90.6309C169.123 90.6309 169.834 90.8636 170.359 91.3291C170.888 91.7904 171.152 92.4188 171.152 93.2144ZM169.508 97.334C169.508 96.932 169.392 96.6104 169.159 96.3691C168.926 96.1279 168.613 96.0073 168.22 96.0073C167.83 96.0073 167.519 96.1279 167.287 96.3691C167.054 96.6061 166.938 96.9277 166.938 97.334C166.938 97.7275 167.052 98.0449 167.28 98.2861C167.509 98.5273 167.826 98.6479 168.232 98.6479C168.63 98.6479 168.941 98.5316 169.166 98.2988C169.394 98.0661 169.508 97.7445 169.508 97.334ZM169.318 93.3032C169.318 92.9435 169.223 92.6558 169.032 92.4399C168.842 92.2199 168.573 92.1099 168.226 92.1099C167.883 92.1099 167.617 92.2157 167.426 92.4272C167.236 92.6388 167.141 92.9308 167.141 93.3032C167.141 93.6714 167.236 93.9676 167.426 94.1919C167.617 94.4162 167.885 94.5283 168.232 94.5283C168.579 94.5283 168.846 94.4162 169.032 94.1919C169.223 93.9676 169.318 93.6714 169.318 93.3032ZM176.135 91.76C176.065 93.08 176.205 97.62 172.215 99.83C172.615 100.11 173.005 100.47 173.215 100.78C175.325 99.49 176.375 97.56 176.915 95.76C177.475 97.6 178.595 99.66 180.855 100.78C181.045 100.46 181.405 100.05 181.775 99.77C178.045 98.02 177.545 93.71 177.465 92.33C177.475 92.12 177.485 91.92 177.495 91.76H176.135Z" fill="#00A040"/>
<path d="M211.169 95.4551L211.702 90.7578H216.882V92.2876H213.207L212.978 94.2744C213.414 94.0417 213.877 93.9253 214.368 93.9253C215.248 93.9253 215.938 94.1982 216.438 94.7441C216.937 95.29 217.187 96.0539 217.187 97.0356C217.187 97.6323 217.06 98.1676 216.806 98.6416C216.556 99.1113 216.196 99.4774 215.727 99.7397C215.257 99.9979 214.702 100.127 214.063 100.127C213.505 100.127 212.986 100.015 212.508 99.7905C212.03 99.562 211.651 99.2425 211.372 98.832C211.097 98.4215 210.951 97.9539 210.934 97.4292H212.75C212.788 97.8143 212.921 98.1147 213.149 98.3306C213.382 98.5422 213.685 98.6479 214.057 98.6479C214.472 98.6479 214.791 98.4998 215.016 98.2036C215.24 97.9032 215.352 97.48 215.352 96.9341C215.352 96.4093 215.223 96.0073 214.965 95.728C214.707 95.4487 214.341 95.3091 213.867 95.3091C213.431 95.3091 213.077 95.4233 212.807 95.6519L212.629 95.8169L211.169 95.4551ZM221.902 91.76C221.832 93.08 221.972 97.62 217.982 99.83C218.382 100.11 218.772 100.47 218.982 100.78C221.092 99.49 222.142 97.56 222.682 95.76C223.242 97.6 224.362 99.66 226.622 100.78C226.812 100.46 227.172 100.05 227.542 99.77C223.812 98.02 223.312 93.71 223.232 92.33C223.242 92.12 223.252 91.92 223.262 91.76H221.902Z" fill="#00A040"/>
<path d="M264.352 100H262.518V92.9287L260.328 93.6079V92.1162L264.155 90.7451H264.352V100ZM270.902 91.76C270.832 93.08 270.972 97.62 266.982 99.83C267.382 100.11 267.772 100.47 267.982 100.78C270.092 99.49 271.142 97.56 271.682 95.76C272.242 97.6 273.362 99.66 275.622 100.78C275.812 100.46 276.172 100.05 276.542 99.77C272.812 98.02 272.312 93.71 272.232 92.33C272.242 92.12 272.252 91.92 272.262 91.76H270.902Z" fill="#00A040"/>
<path d="M262.97 80.54C262.85 81.06 262.7 81.53 262.51 81.96C262.14 81.69 261.66 81.41 261.24 81.18C261.37 80.97 261.5 80.76 261.62 80.54H262.97ZM266.19 84.68C265.84 84.68 265.79 84.61 265.79 84.13V82.23C266.69 81.76 267.64 81.22 268.46 80.65L267.57 79.62C267.1 80.05 266.46 80.56 265.79 80.99V78.39H268.47V77.25H259.55V78.39H261.24C260.87 79.6 260.17 81.01 259.22 81.84C259.48 82.02 259.89 82.38 260.1 82.61C260.27 82.45 260.44 82.27 260.6 82.07C261.06 82.35 261.57 82.7 261.95 83C261.36 83.86 260.6 84.49 259.68 84.91C259.94 85.1 260.37 85.57 260.54 85.85C262.45 84.88 263.82 82.89 264.34 79.68L263.57 79.42L263.37 79.46H262.13C262.28 79.11 262.41 78.77 262.52 78.43L262.35 78.39H264.58V84.13C264.58 85.4 264.89 85.78 266.01 85.78H267.33C268.32 85.78 268.62 85.24 268.75 83.67C268.43 83.59 267.94 83.39 267.67 83.18C267.62 84.41 267.56 84.68 267.22 84.68H266.19ZM278.55 79.62V78.42H274.57V76.54H273.35V78.42H269.46V79.62H270.55V83.43C270.55 85.09 271.26 85.55 272.94 85.55H276.33C277.04 85.55 277.89 85.53 278.22 85.46C278.16 85.15 278.09 84.57 278.07 84.26C277.66 84.33 276.94 84.38 276.37 84.38H272.8C272 84.38 271.79 84.13 271.79 83.48V79.62H278.55Z" fill="#00A040"/>
<path d="M307.12 100H305.285V92.9287L303.095 93.6079V92.1162L306.923 90.7451H307.12V100ZM310.401 95.4551L310.935 90.7578H316.114V92.2876H312.439L312.21 94.2744C312.646 94.0417 313.11 93.9253 313.601 93.9253C314.481 93.9253 315.171 94.1982 315.67 94.7441C316.169 95.29 316.419 96.0539 316.419 97.0356C316.419 97.6323 316.292 98.1676 316.038 98.6416C315.788 99.1113 315.429 99.4774 314.959 99.7397C314.489 99.9979 313.935 100.127 313.296 100.127C312.737 100.127 312.219 100.015 311.741 99.7905C311.263 99.562 310.884 99.2425 310.604 98.832C310.329 98.4215 310.183 97.9539 310.167 97.4292H311.982C312.02 97.8143 312.153 98.1147 312.382 98.3306C312.615 98.5422 312.917 98.6479 313.29 98.6479C313.704 98.6479 314.024 98.4998 314.248 98.2036C314.472 97.9032 314.584 97.48 314.584 96.9341C314.584 96.4093 314.455 96.0073 314.197 95.728C313.939 95.4487 313.573 95.3091 313.099 95.3091C312.663 95.3091 312.31 95.4233 312.039 95.6519L311.861 95.8169L310.401 95.4551ZM321.135 91.76C321.065 93.08 321.205 97.62 317.215 99.83C317.615 100.11 318.005 100.47 318.215 100.78C320.325 99.49 321.375 97.56 321.915 95.76C322.475 97.6 323.595 99.66 325.855 100.78C326.045 100.46 326.405 100.05 326.775 99.77C323.045 98.02 322.545 93.71 322.465 92.33C322.475 92.12 322.485 91.92 322.495 91.76H321.135Z" fill="#00A040"/>
</svg>
