<?xml version="1.0" encoding="utf-8"?>
<!-- Generator: Adobe Illustrator 16.0.3, SVG Export Plug-In . SVG Version: 6.00 Build 0)  -->
<!DOCTYPE svg PUBLIC "-//W3C//DTD SVG 1.1//EN" "http://www.w3.org/Graphics/SVG/1.1/DTD/svg11.dtd">
<svg version="1.1" id="レイヤー_1" xmlns="http://www.w3.org/2000/svg" xmlns:xlink="http://www.w3.org/1999/xlink" x="0px"
	 y="0px" width="340px" height="120px" viewBox="0 0 340 120" enable-background="new 0 0 340 120" xml:space="preserve">
<path fill="#FFFFFF" d="M141,24H98v96h47V44h97V24h-97H141z"/>
<defs>
	<filter id="Adobe_OpacityMaskFilter" filterUnits="userSpaceOnUse" x="96" y="22" width="148" height="100">
		<feColorMatrix  type="matrix" values="1 0 0 0 0  0 1 0 0 0  0 0 1 0 0  0 0 0 1 0"/>
	</filter>
</defs>
<mask maskUnits="userSpaceOnUse" x="96" y="22" width="148" height="100" id="a">
	<path fill="#FFFFFF" filter="url(#Adobe_OpacityMaskFilter)" d="M141,24H98v96h47V44h97V24h-97H141z"/>
</mask>
<path mask="url(#a)" fill="#325685" d="M98,24v-2h-2v2H98z M98,120h-2v2h2V120z M145,120v2h2v-2H145z M145,44v-2h-2v2H145z M242,44
	v2h2v-2H242z M242,24h2v-2h-2V24z M98,26h43v-4H98V26z M100,120V24h-4v96H100z M145,118H98v4h47V118z M143,44v76h4V44H143z M242,42
	h-97v4h97V42z M240,24v20h4V24H240z M145,26h97v-4h-97V26z M141,26h4v-4h-4V26z"/>
<path fill="#325685" d="M109.31,77.09v1.21h2.28c0.03,0.341,0.07,0.7,0.14,1.08l-0.61-0.11c-0.55,2.631-1.74,4.561-3.82,5.61
	c0.31,0.229,0.87,0.72,1.09,0.97c1.74-1.039,2.94-2.699,3.69-4.939c0.55,1.79,1.61,3.68,3.68,4.93c0.21-0.311,0.7-0.83,0.96-1.04
	c-3.68-2.17-3.95-5.819-3.95-7.71H109.31z M125.47,79.45h-3.62v-0.82h3.62V79.45z M120.79,77.62v1.97h0.74v0.881h4.26V79.58h0.77
	v-1.96h-2.39v-1.05h-1.15v1.05H120.79z M120.08,76.91l-0.17,0.05h-2.17v8.91h1.03V78.02h0.78c-0.16,0.681-0.37,1.551-0.57,2.181
	c0.56,0.67,0.69,1.29,0.69,1.75c0,0.28-0.04,0.479-0.15,0.56c-0.08,0.061-0.17,0.08-0.28,0.09c-0.13,0-0.26,0-0.44-0.01
	c0.16,0.28,0.25,0.73,0.26,1.01c0.23,0.01,0.47,0,0.64-0.02c0.23-0.04,0.42-0.1,0.58-0.21c0.31-0.22,0.44-0.64,0.44-1.28
	c0-0.58-0.13-1.25-0.73-2.01c0.28-0.78,0.61-1.87,0.87-2.721L120.08,76.91z M125.17,84.73c-0.14,0-0.16-0.03-0.16-0.32v-2.16h1.5
	v-1.061h-5.57v1.061h1.1c-0.1,1.391-0.4,2.2-2,2.68c0.24,0.211,0.53,0.65,0.63,0.93c1.95-0.649,2.37-1.799,2.49-3.609h0.74v2.17
	c0,1.02,0.19,1.359,1.06,1.359h0.67c0.71,0,0.97-0.379,1.07-1.779c-0.29-0.07-0.77-0.26-0.99-0.439c-0.02,1.02-0.05,1.17-0.21,1.17
	H125.17z M132.61,81.58v-2.15h2.26v2.15H132.61z M129.1,81.58v-2.15h2.25v2.15H129.1z M132.61,78.26v-1.73h-1.26v1.73h-3.45v5.04
	h1.2v-0.55h2.25v3.12h1.26v-3.12h2.26v0.5h1.25v-4.99H132.61z"/>
<path fill="#FFFFFF" stroke="#325685" stroke-width="2" d="M148,47h44v72h-44V47z"/>
<path fill="#325685" d="M162.69,71.35h1.54v-1h-1.54V69.24h-1.18v1.109H160v1h1.51v1.25h-2.04v1.051h5.21V72.6h-1.99V71.35z
	 M162.95,66c-0.22,0.471-0.52,0.891-0.87,1.26c-0.34-0.369-0.62-0.8-0.83-1.26H162.95z M158.66,68.471h-0.74V67.87h0.74V68.471z
	 M158.66,69.84h-0.74V69.23h0.74V69.84z M156.4,69.23h0.71v0.609h-0.71V69.23z M156.4,67.87h0.71v0.601h-0.71V67.87z M163.67,64.939
	l-0.2,0.041h-3.59V66h1.16l-0.79,0.21c0.27,0.649,0.61,1.229,1.03,1.729c-0.51,0.351-1.1,0.631-1.73,0.811v-1.7h-1.5V66.5h1.57
	v-1.029h-1.57v-0.941h-1.06v0.941h-1.54V66.5h1.54v0.55h-1.44v3.61h1.44v0.6h-1.66v1.04h1.66v1.57h1.06V72.3h1.65v-1.04h-1.65v-0.6
	h1.5v-1.62c0.16,0.229,0.34,0.51,0.43,0.71c0.78-0.25,1.49-0.59,2.11-1.04c0.57,0.44,1.24,0.78,2.02,1
	c0.15-0.29,0.46-0.729,0.71-0.96c-0.71-0.17-1.34-0.43-1.88-0.779c0.67-0.711,1.18-1.611,1.49-2.74L163.67,64.939z M168.03,66.7
	h6.63v-1.07h-3.551v-1.09h-1.259v1.09h-2.96v2.399c-0.13-0.479-0.4-1.09-0.67-1.579l-0.86,0.42c0.3,0.62,0.59,1.409,0.68,1.899
	l0.85-0.449V68.6c0,0.301,0,0.61-0.02,0.93c-0.6,0.301-1.18,0.57-1.59,0.75l0.34,1.121c0.35-0.2,0.72-0.42,1.09-0.65
	c-0.17,0.84-0.5,1.67-1.15,2.33c0.23,0.141,0.69,0.561,0.86,0.79c1.38-1.37,1.61-3.66,1.61-5.261V66.7z M172.08,72.6V70.82h2.141v-1
	h-2.141v-1.36h2.279v-1h-5.839v1h2.419v4.14h-1.02V69.48h-1.08V72.6h-1.03v1.03h6.87V72.6H172.08z M180,67.92
	c-0.7,0-1.279,0.58-1.279,1.28s0.579,1.28,1.279,1.28s1.279-0.58,1.279-1.28S180.7,67.92,180,67.92z M160.61,81.58v-2.15h2.26v2.15
	H160.61z M157.1,81.58v-2.15h2.25v2.15H157.1z M160.61,78.26v-1.73h-1.26v1.73h-3.45v5.04h1.2v-0.55h2.25v3.12h1.26v-3.12h2.26v0.5
	h1.25v-4.99H160.61z M174.561,81.95v-1.011h-3.951V80.37h3.031v-0.979h-3.031v-0.4c0.211-0.221,0.4-0.48,0.591-0.77h0.39
	c0.26,0.359,0.51,0.779,0.62,1.059l1.021-0.43c-0.08-0.17-0.221-0.399-0.381-0.629h1.66V77.25h-2.76c0.08-0.17,0.16-0.35,0.21-0.51
	l-1.14-0.29c-0.2,0.569-0.53,1.149-0.93,1.61V77.25h-2.19c0.09-0.17,0.17-0.33,0.24-0.5l-1.14-0.3c-0.35,0.85-0.94,1.71-1.59,2.25
	c0.27,0.14,0.76,0.47,0.99,0.659c0.3-0.31,0.63-0.699,0.93-1.139h0.1c0.19,0.359,0.39,0.77,0.46,1.049l1.02-0.42
	c-0.06-0.17-0.17-0.399-0.3-0.629h1.34c-0.11,0.119-0.23,0.239-0.36,0.34c0.15,0.08,0.37,0.219,0.58,0.35h-0.6v0.48h-2.9v0.979h2.9
	v0.569h-3.91v1.011h5.88v0.6h-5.5v1h1.84l-0.53,0.4c0.58,0.43,1.23,1.05,1.51,1.5l0.92-0.74c-0.25-0.351-0.73-0.8-1.21-1.16h2.97
	v1.06c0,0.121-0.05,0.16-0.21,0.16c-0.159,0-0.76,0-1.27-0.02c0.16,0.311,0.36,0.77,0.43,1.109c0.739,0,1.31-0.01,1.729-0.18
	c0.431-0.18,0.551-0.459,0.551-1.05v-1.08h1.689v-1h-1.689v-0.6H174.561z M178.029,78.7h6.631v-1.07h-3.551v-1.09h-1.26v1.09h-2.959
	v2.399c-0.131-0.479-0.4-1.09-0.67-1.579l-0.861,0.42c0.301,0.62,0.591,1.409,0.681,1.899l0.851-0.449V80.6
	c0,0.301,0,0.61-0.021,0.93c-0.601,0.301-1.181,0.57-1.591,0.75l0.341,1.121c0.351-0.2,0.72-0.42,1.09-0.65
	c-0.17,0.84-0.5,1.67-1.149,2.33c0.229,0.141,0.689,0.561,0.859,0.79c1.38-1.37,1.609-3.66,1.609-5.261V78.7z M182.08,84.6V82.82
	h2.141v-1h-2.141v-1.36h2.279v-1h-5.84v1h2.42v4.14h-1.02V81.48h-1.08V84.6h-1.029v1.03h6.869V84.6H182.08z"/>
<path fill="#FFFFFF" stroke="#325685" stroke-width="2" d="M196,47h45v72h-45V47z"/>
<path fill="#FFFFFF" stroke="#333333" stroke-width="2" d="M1,1h45v118H1V1z"/>
<path fill="#4D4D4D" d="M9.08,70.29v-0.94h0.99v0.601c0,0.11,0,0.229-0.01,0.34H9.08z M12.2,69.35v0.94h-1.07
	c0.01-0.101,0.01-0.21,0.01-0.31V69.35H12.2z M9.44,66.82c0.47-0.4,0.88-0.84,1.16-1.26c0.3,0.42,0.73,0.869,1.21,1.26H9.44z
	 M13.27,71.2v-2.761h-2.13V67.8h1.32v-0.489c0.26,0.17,0.53,0.33,0.79,0.459c0.16-0.319,0.39-0.76,0.61-1.039
	c-1.04-0.391-2.06-1.23-2.75-2.19h-1.08c-0.48,0.771-1.35,1.62-2.32,2.11v-0.07H6.8v-2.051H5.7v2.051H4.48v1.1h1.15
	c-0.26,1.19-0.8,2.57-1.38,3.36c0.18,0.28,0.43,0.739,0.54,1.06c0.34-0.479,0.65-1.17,0.91-1.92v3.68h1.1v-4.25
	c0.21,0.42,0.41,0.851,0.52,1.141l0.6-0.92c-0.15-0.25-0.85-1.32-1.12-1.67v-0.48h0.91V67.2c0.12,0.2,0.22,0.409,0.29,0.579
	c0.28-0.139,0.55-0.299,0.82-0.489v0.51h1.25v0.64H8.05V71.2h1.83c-0.28,0.71-0.95,1.36-2.48,1.84c0.18,0.19,0.52,0.64,0.63,0.88
	c1.47-0.47,2.27-1.18,2.69-1.98c0.61,1.08,1.4,1.59,2.39,1.971c0.13-0.35,0.41-0.74,0.68-0.99c-0.96-0.3-1.71-0.68-2.29-1.72H13.27z
	 M16.21,68.8c0.83-0.5,1.58-1.149,2.17-1.88v1.609h1.17V66.96c0.61,0.72,1.38,1.36,2.23,1.84H16.21z M17.3,72.65v-0.42h3.36v0.42
	H17.3z M17.3,70.99h3.36v0.42H17.3V70.99z M20.66,70.17H17.3v-0.4h3.36V70.17z M23.46,66.67v-1.029h-3.91v-1.111h-1.17v1.111h-3.83
	v1.029h2.69c-0.77,0.77-1.87,1.439-2.97,1.801c0.25,0.219,0.57,0.649,0.74,0.92c0.39-0.15,0.76-0.341,1.13-0.551v3.811h-1.65v1.039
	h9.04V72.65h-1.64v-3.791c0.34,0.19,0.69,0.361,1.05,0.49c0.18-0.3,0.52-0.74,0.77-0.949c-1.14-0.351-2.27-0.98-3.07-1.73H23.46z
	 M25.91,67.24v-0.79h6.12v0.79h-2.49v-0.57h-1.19v0.57H25.91z M33.4,71.42v-1.029h-3.95c0.05-0.211,0.07-0.42,0.08-0.631h2.73V68.8
	h-2.72v-0.6h2.92v-0.66h0.8v-2.13H29.6v-0.87h-1.22v0.87h-3.65v2.13h0.89v0.66h2.73v0.6h-2.57v0.96h2.56
	c-0.02,0.211-0.05,0.42-0.1,0.631h-3.59v1.029h3.01c-0.55,0.59-1.51,1.109-3.19,1.49c0.26,0.25,0.6,0.699,0.74,0.96
	c2.04-0.55,3.15-1.341,3.74-2.229c0.79,1.239,1.98,1.949,3.88,2.25c0.15-0.32,0.46-0.791,0.7-1.041c-1.58-0.17-2.7-0.629-3.41-1.43
	H33.4z M38.24,69.67l0.02-1v-0.449h-1.8c0.01-0.351,0.02-0.711,0.03-1.07h1.91c-0.1,0.129-0.21,0.25-0.32,0.359
	c0.26,0.18,0.7,0.62,0.89,0.84l0.09-0.1v1.04L38.24,69.67z M40.68,72.85c-0.5,0-0.57-0.06-0.57-0.47v-2.409l0.54-0.25v2.329h0.99
	v-2.79l0.64-0.3c-0.01,0.95-0.01,1.5-0.03,1.59c-0.01,0.13-0.06,0.149-0.14,0.149s-0.22,0-0.34-0.01
	c0.11,0.221,0.19,0.601,0.21,0.871c0.27,0,0.59-0.011,0.83-0.111c0.27-0.109,0.41-0.329,0.43-0.689c0.03-0.3,0.03-1.32,0.04-2.74
	l0.04-0.16l-0.74-0.26L42.4,67.73l-0.04,0.029l-0.72,0.33v-0.97h-0.99v1.43l-0.54,0.25v-0.96h-0.73c0.21-0.29,0.4-0.619,0.57-0.97
	h3.59v-1.08H40.4c0.11-0.341,0.22-0.69,0.3-1.04l-1.17-0.221c-0.18,0.82-0.48,1.621-0.89,2.271v-0.75h-1.56v-1.51h-1.14v1.51h-1.53
	v1.101h0.96c-0.03,2.31-0.12,4.51-1.11,5.879c0.29,0.191,0.66,0.551,0.85,0.83c0.83-1.139,1.15-2.76,1.29-4.56h0.78
	c-0.04,2.351-0.1,3.19-0.23,3.39c-0.08,0.131-0.16,0.16-0.29,0.16c-0.13,0-0.41,0-0.72-0.039c0.16,0.289,0.27,0.729,0.29,1.06
	c0.4,0,0.78,0.01,1.03-0.05c0.27-0.051,0.46-0.15,0.64-0.41c0.23-0.32,0.3-1.28,0.34-3.73l0.41,0.971l0.41-0.19v1.92
	c0,1.14,0.32,1.46,1.5,1.46h1.75c0.97,0,1.27-0.38,1.4-1.63c-0.29-0.069-0.72-0.239-0.96-0.41c-0.06,0.88-0.14,1.05-0.53,1.05H40.68
	z M18.17,76.76c-0.07,1.32,0.07,5.86-3.92,8.07c0.4,0.279,0.79,0.641,1,0.949c2.11-1.289,3.16-3.219,3.7-5.02
	c0.56,1.84,1.68,3.9,3.94,5.02c0.19-0.319,0.55-0.729,0.92-1.01c-3.73-1.75-4.23-6.06-4.31-7.439c0.01-0.21,0.02-0.41,0.03-0.57
	H18.17z M29.36,82.68v-0.959c0.06,0.059,0.1,0.109,0.14,0.149c0.16-0.22,0.32-0.46,0.46-0.72c0.18,0.72,0.4,1.379,0.68,1.97
	c-0.44,0.62-1.02,1.12-1.76,1.51c-0.23-0.17-0.52-0.351-0.83-0.53c0.25-0.39,0.42-0.859,0.53-1.42H29.36z M26.49,82.68h0.97
	c-0.09,0.36-0.22,0.66-0.38,0.91c-0.29-0.14-0.58-0.26-0.88-0.38L26.49,82.68z M31.87,79.43c-0.11,0.881-0.29,1.67-0.54,2.35
	c-0.27-0.719-0.47-1.51-0.61-2.35H31.87z M33.66,79.43v-1.1H31c0.13-0.53,0.24-1.08,0.32-1.641l-1.2-0.16
	c-0.24,1.781-0.72,3.48-1.57,4.5c0.22,0.15,0.58,0.461,0.81,0.691h-2.38l0.24-0.48l-0.43-0.09h0.64v-1.211
	c0.39,0.311,0.81,0.66,1.03,0.871l0.63-0.82c-0.22-0.15-0.93-0.57-1.41-0.84h1.64v-0.94h-0.95c0.24-0.31,0.55-0.729,0.86-1.16
	l-1-0.399c-0.16,0.379-0.44,0.91-0.67,1.27l0.66,0.29h-0.79v-1.681h-1.09v1.681H25.5l0.64-0.28c-0.08-0.35-0.34-0.859-0.6-1.24
	l-0.86,0.36c0.21,0.36,0.43,0.82,0.52,1.16h-0.76v0.94H26c-0.48,0.52-1.15,1-1.76,1.25c0.22,0.209,0.47,0.6,0.6,0.859
	c0.5-0.279,1.04-0.699,1.5-1.16v0.961l-0.22-0.051c-0.1,0.221-0.22,0.461-0.34,0.711h-1.45v0.959h0.95
	c-0.25,0.48-0.5,0.93-0.72,1.28l1.04,0.319l0.11-0.189c0.19,0.08,0.38,0.17,0.56,0.27c-0.47,0.271-1.09,0.431-1.9,0.541
	c0.19,0.24,0.4,0.64,0.47,0.979c1.07-0.22,1.87-0.51,2.46-0.95c0.41,0.26,0.77,0.521,1.04,0.75l0.45-0.459
	c0.16,0.239,0.31,0.51,0.38,0.68c0.87-0.44,1.56-0.98,2.11-1.641c0.45,0.65,1,1.18,1.68,1.59c0.18-0.33,0.55-0.789,0.82-1.029
	c-0.73-0.381-1.31-0.95-1.77-1.66c0.54-1.01,0.88-2.25,1.09-3.73H33.66z"/>
<path fill="#4D4D4D" d="M12.955,93.215c0,0.448-0.112,0.846-0.336,1.193c-0.224,0.347-0.533,0.623-0.927,0.831
	c0.449,0.216,0.804,0.515,1.066,0.896c0.262,0.376,0.394,0.82,0.394,1.332c0,0.821-0.279,1.471-0.838,1.949
	c-0.559,0.475-1.318,0.711-2.279,0.711S8.313,99.888,7.75,99.41c-0.563-0.479-0.844-1.126-0.844-1.943
	c0-0.512,0.131-0.958,0.394-1.339s0.616-0.677,1.06-0.889c-0.394-0.208-0.703-0.484-0.927-0.831c-0.22-0.348-0.33-0.745-0.33-1.193
	c0-0.787,0.262-1.414,0.787-1.879c0.525-0.471,1.238-0.705,2.139-0.705c0.897,0,1.608,0.232,2.133,0.698
	C12.69,91.791,12.955,92.419,12.955,93.215z M11.311,97.334c0-0.402-0.116-0.724-0.349-0.965s-0.546-0.361-0.939-0.361
	c-0.389,0-0.7,0.12-0.933,0.361c-0.233,0.236-0.349,0.559-0.349,0.965c0,0.394,0.114,0.711,0.343,0.952s0.546,0.362,0.952,0.362
	c0.398,0,0.709-0.117,0.933-0.35C11.197,98.066,11.311,97.744,11.311,97.334z M11.121,93.303c0-0.359-0.095-0.646-0.286-0.863
	c-0.19-0.22-0.459-0.33-0.806-0.33c-0.343,0-0.609,0.106-0.8,0.318c-0.19,0.211-0.286,0.503-0.286,0.875
	c0,0.369,0.095,0.665,0.286,0.889c0.19,0.225,0.459,0.337,0.806,0.337s0.614-0.112,0.8-0.337
	C11.025,93.968,11.121,93.672,11.121,93.303z M20.617,96.179c0,1.278-0.265,2.255-0.793,2.933s-1.303,1.016-2.323,1.016
	c-1.007,0-1.777-0.332-2.311-0.996c-0.533-0.665-0.806-1.617-0.819-2.857v-1.701c0-1.29,0.267-2.27,0.8-2.938
	c0.538-0.669,1.31-1.003,2.317-1.003s1.777,0.332,2.311,0.996c0.533,0.66,0.806,1.611,0.819,2.851V96.179z M18.782,94.313
	c0-0.766-0.106-1.322-0.317-1.67c-0.208-0.351-0.533-0.526-0.978-0.526c-0.432,0-0.751,0.167-0.958,0.501
	c-0.203,0.33-0.311,0.85-0.324,1.556v2.247c0,0.754,0.102,1.314,0.305,1.682c0.208,0.364,0.538,0.547,0.99,0.547
	c0.449,0,0.772-0.176,0.971-0.527s0.303-0.889,0.311-1.612V94.313z M26.317,100h-1.834v-7.071l-2.19,0.679v-1.491l3.828-1.371h0.197
	V100z M32.867,91.76c-0.07,1.32,0.07,5.86-3.92,8.07c0.4,0.279,0.79,0.641,1,0.949c2.11-1.289,3.16-3.219,3.7-5.02
	c0.56,1.84,1.68,3.9,3.94,5.02c0.19-0.319,0.55-0.729,0.92-1.01c-3.73-1.75-4.23-6.06-4.31-7.439c0.01-0.21,0.02-0.41,0.03-0.57
	H32.867z"/>
<path fill="#FFFFFF" d="M340,0H49v17v5v98h47V22h244V0z"/>
<defs>
	<filter id="Adobe_OpacityMaskFilter_1_" filterUnits="userSpaceOnUse" x="47" y="-2" width="295" height="124">
		<feColorMatrix  type="matrix" values="1 0 0 0 0  0 1 0 0 0  0 0 1 0 0  0 0 0 1 0"/>
	</filter>
</defs>
<mask maskUnits="userSpaceOnUse" x="47" y="-2" width="295" height="124" id="b">
	<path fill="#FFFFFF" filter="url(#Adobe_OpacityMaskFilter_1_)" d="M340,0H49v17v5v98h47V22h244V0z"/>
</mask>
<path mask="url(#b)" fill="#325685" d="M49,0v-2h-2v2H49z M340,0h2v-2h-2V0z M49,120h-2v2h2V120z M96,120v2h2v-2H96z M96,22v-2h-2v2
	H96z M340,22v2h2v-2H340z M49,2h291v-4H49V2z M51,17V0h-4v17H51z M51,22v-5h-4v5H51z M51,120V22h-4v98H51z M96,118H49v4h47V118z
	 M94,22v98h4V22H94z M340,20H96v4h244V20z M338,0v22h4V0H338z"/>
<path fill="#325685" d="M60.83,78.21h-2.27V77.73h2.27V78.21z M60.83,79.48h-2.27v-0.49h2.27V79.48z M61.97,76.9H57.5v3.41h4.47
	V76.9z M62.67,81.63V80.7h-5.95v0.93h1.05c-0.3,0.53-0.72,0.99-1.2,1.37c0.1-0.23,0.15-0.529,0.15-0.91c0-0.58-0.13-1.25-0.73-2.01
	c0.28-0.78,0.61-1.87,0.87-2.721l-0.78-0.449l-0.17,0.05h-2.17v8.91h1.03V78.02h0.78c-0.16,0.681-0.37,1.551-0.57,2.181
	c0.56,0.67,0.69,1.29,0.69,1.75c0,0.28-0.04,0.479-0.15,0.56c-0.08,0.061-0.17,0.08-0.28,0.09c-0.13,0-0.26,0-0.44-0.01
	c0.16,0.28,0.25,0.73,0.26,1.01c0.23,0.01,0.47,0,0.64-0.02c0.21-0.04,0.38-0.09,0.53-0.18c0.21,0.189,0.48,0.47,0.61,0.629
	c0.4-0.27,0.78-0.609,1.12-1.01h0.48c-0.49,0.771-1.22,1.44-2.02,1.881c0.19,0.17,0.51,0.56,0.65,0.74
	c0.94-0.601,1.86-1.541,2.44-2.621h0.5c-0.38,0.871-0.97,1.65-1.67,2.16c0.2,0.16,0.57,0.48,0.73,0.66c0.8-0.66,1.51-1.67,1.97-2.82
	h0.24c-0.08,1.17-0.17,1.65-0.29,1.791c-0.08,0.1-0.15,0.119-0.28,0.119s-0.36-0.01-0.64-0.039c0.14,0.26,0.25,0.67,0.26,0.979
	c0.38,0.01,0.74,0,0.96-0.03c0.24-0.05,0.43-0.119,0.61-0.35c0.25-0.28,0.38-1.07,0.48-2.99l0.03-0.4h-3.8
	c0.09-0.149,0.18-0.31,0.25-0.47H62.67z M70.26,84.42v-2h1.83v-1.109h-1.83V79.67h2.04v-1.12h-2.04v-1.96h-1.19v1.96h-0.8
	c0.1-0.45,0.18-0.92,0.25-1.39L67.36,77c-0.1,0.85-0.28,1.71-0.53,2.439c-0.14-0.39-0.35-0.869-0.55-1.26l-0.58,0.24v-1.891h-1.19
	v2.041l-0.84-0.12c-0.07,0.819-0.25,1.94-0.49,2.6l0.88,0.32c0.23-0.71,0.39-1.81,0.45-2.649v7.149h1.19v-6.83
	c0.17,0.41,0.32,0.851,0.38,1.149l0.57-0.26c-0.1,0.211-0.2,0.4-0.3,0.58c0.28,0.12,0.82,0.391,1.06,0.54
	c0.21-0.38,0.41-0.86,0.56-1.38h1.1v1.641h-1.93v1.109h1.93v2H66.4v1.13h6.22v-1.13H70.26z M77.91,78.641h1.63
	c-0.34,0.319-0.7,0.619-1.08,0.909h-0.55V78.641z M80.09,83.01h-3.44v-0.64h3.44V83.01z M76.65,84.59v-0.68h3.44v0.68H76.65z
	 M82.48,80.6v-1.05h-2.32c0.73-0.67,1.4-1.409,1.97-2.2l-1.02-0.52c-0.31,0.439-0.65,0.859-1.03,1.27v-0.49h-2.17v-1.08h-1.18v1.08
	h-2.35v1.031h2.35v0.909h-3.21v1.05h3.4c-1.15,0.68-2.4,1.25-3.71,1.66c0.22,0.24,0.58,0.721,0.72,0.98
	c0.51-0.189,1.03-0.41,1.53-0.631v3.271h1.19v-0.3h3.44v0.26h1.25V81.4H77.7c0.41-0.26,0.79-0.521,1.18-0.801H82.48z M88.36,82.68
	v-0.959c0.06,0.059,0.1,0.109,0.14,0.149c0.16-0.22,0.32-0.46,0.46-0.72c0.18,0.72,0.4,1.379,0.68,1.97
	c-0.44,0.62-1.02,1.12-1.76,1.51c-0.23-0.17-0.52-0.351-0.83-0.53c0.25-0.39,0.42-0.859,0.53-1.42H88.36z M85.49,82.68h0.97
	c-0.09,0.36-0.22,0.66-0.38,0.91c-0.29-0.14-0.58-0.26-0.88-0.38L85.49,82.68z M90.87,79.43c-0.11,0.881-0.29,1.67-0.54,2.35
	c-0.27-0.719-0.47-1.51-0.61-2.35H90.87z M92.66,79.43v-1.1H90c0.13-0.53,0.24-1.08,0.32-1.641l-1.2-0.16
	c-0.24,1.781-0.72,3.48-1.57,4.5c0.22,0.15,0.58,0.461,0.81,0.691h-2.38l0.24-0.48l-0.43-0.09h0.64v-1.211
	c0.39,0.311,0.81,0.66,1.03,0.871l0.63-0.82c-0.22-0.15-0.93-0.57-1.41-0.84h1.64v-0.94h-0.95c0.24-0.31,0.55-0.729,0.86-1.16
	l-1-0.399c-0.16,0.379-0.44,0.91-0.67,1.27l0.66,0.29h-0.79v-1.681h-1.09v1.681H84.5l0.64-0.28c-0.08-0.35-0.34-0.859-0.6-1.24
	l-0.86,0.36c0.21,0.36,0.43,0.82,0.52,1.16h-0.76v0.94H85c-0.48,0.52-1.15,1-1.76,1.25c0.22,0.209,0.47,0.6,0.6,0.859
	c0.5-0.279,1.04-0.699,1.5-1.16v0.961l-0.22-0.051c-0.1,0.221-0.22,0.461-0.34,0.711h-1.45v0.959h0.95
	c-0.25,0.48-0.5,0.93-0.72,1.28l1.04,0.319l0.11-0.189c0.19,0.08,0.38,0.17,0.56,0.27c-0.47,0.271-1.09,0.431-1.9,0.541
	c0.19,0.24,0.4,0.64,0.47,0.979c1.07-0.22,1.87-0.51,2.46-0.95c0.41,0.26,0.77,0.521,1.04,0.75l0.45-0.459
	c0.16,0.239,0.31,0.51,0.38,0.68c0.87-0.44,1.56-0.98,2.11-1.641c0.45,0.65,1,1.18,1.68,1.59c0.18-0.33,0.55-0.789,0.82-1.029
	c-0.73-0.381-1.31-0.95-1.77-1.66c0.54-1.01,0.88-2.25,1.09-3.73H92.66z"/>
<path fill="#325685" d="M214.05,80.8h0.8c0.19,0.601,0.42,1.14,0.721,1.61c-0.51,0.1-1.03,0.21-1.521,0.311V80.8z M216.561,77.87
	v0.521h-2.511V77.87H216.561z M217.35,80.8c-0.289,0.261-0.67,0.55-1.01,0.78c-0.16-0.24-0.3-0.5-0.41-0.78H217.35z M214.05,79.8
	v-0.55h2.511v0.55H214.05z M212.471,84.18c0.93-0.22,2.109-0.49,3.229-0.76l-0.08-0.93c0.521,0.8,1.239,1.39,2.229,1.75
	c0.16-0.32,0.5-0.78,0.75-1.02c-0.68-0.191-1.229-0.511-1.67-0.931c0.48-0.261,1.04-0.61,1.551-0.94l-0.76-0.629V76.87h-4.82v6.069
	c-0.221,0.041-0.43,0.08-0.621,0.11L212.471,84.18z M212.07,78.29c-0.35-0.47-1.08-1.09-1.67-1.511L209.52,77.5
	c0.59,0.439,1.301,1.1,1.601,1.58L212.07,78.29z M211.779,80.41h-2.309v1.09h1.149v2.109c-0.44,0.341-0.94,0.67-1.37,0.92l0.58,1.24
	c0.55-0.42,0.99-0.81,1.43-1.199c0.65,0.779,1.471,1.06,2.7,1.109c1.19,0.051,3.2,0.03,4.399-0.029c0.061-0.34,0.24-0.92,0.371-1.2
	c-1.33,0.1-3.58,0.13-4.75,0.079c-1.041-0.039-1.791-0.309-2.201-0.979V80.41z M227.471,79.45h-3.621v-0.82h3.621V79.45z
	 M222.79,77.62v1.97h0.739v0.881h4.261V79.58h0.771v-1.96h-2.391v-1.05h-1.15v1.05H222.79z M222.08,76.91l-0.17,0.05h-2.17v8.91
	h1.029V78.02h0.78c-0.159,0.681-0.37,1.551-0.569,2.181c0.56,0.67,0.689,1.29,0.689,1.75c0,0.28-0.04,0.479-0.15,0.56
	c-0.08,0.061-0.17,0.08-0.279,0.09c-0.131,0-0.26,0-0.44-0.01c0.16,0.28,0.25,0.73,0.261,1.01c0.229,0.01,0.469,0,0.64-0.02
	c0.229-0.04,0.42-0.1,0.579-0.21c0.311-0.22,0.441-0.64,0.441-1.28c0-0.58-0.131-1.25-0.73-2.01c0.279-0.78,0.609-1.87,0.869-2.721
	L222.08,76.91z M227.17,84.73c-0.141,0-0.16-0.03-0.16-0.32v-2.16h1.5v-1.061h-5.57v1.061h1.101c-0.101,1.391-0.399,2.2-2,2.68
	c0.239,0.211,0.53,0.65,0.63,0.93c1.95-0.649,2.37-1.799,2.49-3.609h0.74v2.17c0,1.02,0.189,1.359,1.06,1.359h0.67
	c0.71,0,0.97-0.379,1.07-1.779c-0.29-0.07-0.771-0.26-0.99-0.439c-0.021,1.02-0.05,1.17-0.21,1.17H227.17z"/>
<path fill="none" stroke="#325685" stroke-width="2" d="M245,25h45v94h-45V25z"/>
<path fill="none" stroke="#325685" stroke-width="2" d="M294,25h45v94h-45V25z"/>
<g>
	<path fill="#325685" d="M309.05,78.8h0.8c0.19,0.601,0.42,1.14,0.721,1.61c-0.511,0.1-1.03,0.21-1.521,0.311V78.8z M311.56,75.87
		v0.521h-2.51V75.87H311.56z M312.35,78.8c-0.29,0.261-0.67,0.55-1.01,0.78c-0.16-0.24-0.3-0.5-0.41-0.78H312.35z M309.05,77.8
		v-0.55h2.51v0.55H309.05z M307.47,82.18c0.931-0.22,2.11-0.49,3.23-0.76l-0.08-0.93c0.52,0.8,1.24,1.39,2.229,1.75
		c0.16-0.32,0.5-0.78,0.75-1.02c-0.68-0.191-1.229-0.511-1.67-0.931c0.48-0.261,1.04-0.61,1.551-0.94l-0.761-0.629V74.87H307.9
		v6.069c-0.221,0.041-0.431,0.08-0.62,0.11L307.47,82.18z M307.07,76.29c-0.351-0.47-1.08-1.09-1.67-1.511l-0.88,0.721
		c0.59,0.439,1.3,1.1,1.6,1.58L307.07,76.29z M306.78,78.41h-2.311v1.09h1.15v2.109c-0.44,0.341-0.94,0.67-1.37,0.92l0.58,1.24
		c0.55-0.42,0.99-0.81,1.43-1.199c0.65,0.779,1.471,1.06,2.7,1.109c1.19,0.051,3.2,0.03,4.4-0.029c0.06-0.34,0.239-0.92,0.37-1.2
		c-1.33,0.1-3.58,0.13-4.75,0.079c-1.04-0.039-1.79-0.309-2.2-0.979V78.41z M322.47,77.45h-3.62v-0.82h3.62V77.45z M317.79,75.62
		v1.97h0.74v0.881h4.26V77.58h0.77v-1.96h-2.39v-1.05h-1.149v1.05H317.79z M317.08,74.91l-0.17,0.05h-2.17v8.91h1.03V76.02h0.779
		c-0.16,0.681-0.37,1.551-0.569,2.181c0.56,0.67,0.689,1.29,0.689,1.75c0,0.28-0.04,0.479-0.149,0.56
		c-0.08,0.061-0.171,0.08-0.28,0.09c-0.13,0-0.26,0-0.44-0.01c0.16,0.28,0.25,0.73,0.26,1.01c0.23,0.01,0.471,0,0.641-0.02
		c0.229-0.04,0.42-0.1,0.58-0.21c0.31-0.22,0.439-0.64,0.439-1.28c0-0.58-0.13-1.25-0.729-2.01c0.28-0.78,0.609-1.87,0.87-2.721
		L317.08,74.91z M322.17,82.73c-0.14,0-0.16-0.03-0.16-0.32v-2.16h1.5v-1.061h-5.569v1.061h1.1c-0.1,1.391-0.4,2.2-2,2.68
		c0.24,0.211,0.53,0.65,0.63,0.93c1.95-0.649,2.37-1.799,2.49-3.609h0.74v2.17c0,1.02,0.189,1.359,1.06,1.359h0.67
		c0.71,0,0.97-0.379,1.07-1.779c-0.29-0.07-0.771-0.26-0.99-0.439c-0.02,1.02-0.05,1.17-0.21,1.17H322.17z"/>
	<path fill="#325685" d="M65.53,94.566h0.978c0.465,0,0.811-0.116,1.035-0.35c0.224-0.232,0.336-0.541,0.336-0.926
		c0-0.373-0.112-0.662-0.336-0.87c-0.22-0.208-0.525-0.312-0.914-0.312c-0.351,0-0.646,0.098-0.882,0.293
		c-0.237,0.189-0.355,0.439-0.355,0.748h-1.834c0-0.482,0.129-0.914,0.387-1.295c0.262-0.385,0.626-0.686,1.092-0.9
		c0.47-0.217,0.986-0.324,1.549-0.324c0.978,0,1.744,0.234,2.298,0.705c0.554,0.465,0.832,1.108,0.832,1.93
		c0,0.423-0.129,0.813-0.387,1.168s-0.597,0.628-1.016,0.818c0.521,0.186,0.908,0.465,1.162,0.838
		c0.258,0.373,0.387,0.813,0.387,1.32c0,0.82-0.3,1.479-0.901,1.975c-0.597,0.494-1.388,0.742-2.374,0.742
		c-0.922,0-1.678-0.243-2.266-0.73c-0.584-0.486-0.876-1.129-0.876-1.93h1.834c0,0.348,0.129,0.631,0.387,0.852
		c0.262,0.22,0.584,0.33,0.965,0.33c0.436,0,0.776-0.115,1.022-0.344c0.25-0.232,0.375-0.539,0.375-0.92
		c0-0.922-0.508-1.384-1.523-1.384H65.53V94.566z M75.419,96.306c-0.478,0.47-1.037,0.704-1.676,0.704
		c-0.817,0-1.471-0.279-1.961-0.838c-0.491-0.563-0.736-1.32-0.736-2.271c0-0.605,0.131-1.16,0.394-1.664
		c0.267-0.508,0.637-0.9,1.111-1.18c0.474-0.284,1.007-0.426,1.6-0.426c0.609,0,1.151,0.152,1.625,0.457s0.842,0.742,1.104,1.314
		c0.262,0.57,0.396,1.225,0.4,1.961v0.68c0,1.54-0.383,2.75-1.149,3.631c-0.766,0.88-1.852,1.35-3.256,1.409l-0.451,0.006v-1.53
		l0.406-0.006C74.425,98.48,75.288,97.732,75.419,96.306L75.419,96.306z M74.194,95.607c0.296,0,0.55-0.076,0.762-0.229
		c0.216-0.152,0.379-0.336,0.489-0.553v-0.755c0-0.622-0.119-1.104-0.355-1.447s-0.554-0.515-0.952-0.515
		c-0.368,0-0.671,0.17-0.908,0.508c-0.237,0.335-0.355,0.756-0.355,1.264c0,0.504,0.114,0.918,0.343,1.244
		C73.45,95.447,73.775,95.607,74.194,95.607z M82.135,91.76c-0.07,1.32,0.07,5.86-3.92,8.07c0.4,0.279,0.79,0.641,1,0.949
		c2.11-1.289,3.16-3.219,3.7-5.02c0.56,1.84,1.68,3.9,3.94,5.02c0.19-0.319,0.55-0.729,0.92-1.01c-3.73-1.75-4.23-6.06-4.31-7.439
		c0.01-0.21,0.02-0.41,0.03-0.57H82.135z"/>
	<path fill="#325685" d="M117.999,100h-6.335v-1.257l2.989-3.187c0.411-0.449,0.713-0.84,0.908-1.174
		c0.199-0.335,0.298-0.652,0.298-0.953c0-0.41-0.103-0.731-0.311-0.965c-0.207-0.236-0.503-0.355-0.888-0.355
		c-0.415,0-0.743,0.145-0.984,0.432c-0.237,0.284-0.356,0.658-0.356,1.124h-1.841c0-0.563,0.134-1.077,0.4-1.542
		c0.271-0.466,0.652-0.83,1.143-1.092c0.491-0.268,1.047-0.4,1.669-0.4c0.953,0,1.691,0.229,2.216,0.686
		c0.529,0.457,0.793,1.103,0.793,1.936c0,0.457-0.118,0.923-0.355,1.396c-0.237,0.475-0.644,1.027-1.219,1.657l-2.101,2.216h3.974
		V100z M120.995,94.566h0.977c0.466,0,0.811-0.116,1.035-0.35c0.224-0.232,0.336-0.541,0.336-0.926c0-0.373-0.112-0.662-0.336-0.87
		c-0.22-0.208-0.525-0.312-0.914-0.312c-0.351,0-0.646,0.098-0.883,0.293c-0.237,0.189-0.355,0.439-0.355,0.748h-1.834
		c0-0.482,0.129-0.914,0.387-1.295c0.262-0.385,0.626-0.686,1.092-0.9c0.469-0.217,0.986-0.324,1.548-0.324
		c0.978,0,1.744,0.234,2.298,0.705c0.555,0.465,0.832,1.108,0.832,1.93c0,0.423-0.129,0.813-0.387,1.168
		c-0.259,0.355-0.597,0.628-1.016,0.818c0.52,0.186,0.908,0.465,1.162,0.838c0.258,0.373,0.387,0.813,0.387,1.32
		c0,0.82-0.301,1.479-0.902,1.975c-0.596,0.494-1.388,0.742-2.374,0.742c-0.922,0-1.678-0.243-2.266-0.73
		c-0.584-0.486-0.876-1.129-0.876-1.93h1.835c0,0.348,0.129,0.631,0.387,0.852c0.262,0.22,0.584,0.33,0.965,0.33
		c0.436,0,0.776-0.115,1.022-0.344c0.249-0.232,0.374-0.539,0.374-0.92c0-0.922-0.508-1.384-1.523-1.384h-0.971V94.566z
		 M130.135,91.76c-0.07,1.32,0.07,5.86-3.92,8.07c0.4,0.279,0.79,0.641,1,0.949c2.11-1.289,3.16-3.219,3.7-5.02
		c0.56,1.84,1.68,3.9,3.94,5.02c0.19-0.319,0.55-0.729,0.92-1.01c-3.73-1.75-4.23-6.06-4.31-7.439c0.01-0.21,0.02-0.41,0.03-0.57
		H130.135z"/>
	<path fill="#325685" d="M162.12,100h-1.835v-7.071l-2.19,0.679v-1.491l3.828-1.371h0.197V100z M171.152,93.215
		c0,0.448-0.112,0.846-0.336,1.193c-0.225,0.347-0.533,0.623-0.927,0.831c0.449,0.216,0.804,0.515,1.067,0.896
		c0.262,0.376,0.394,0.82,0.394,1.332c0,0.821-0.279,1.471-0.838,1.949c-0.559,0.475-1.319,0.711-2.28,0.711
		c-0.96,0-1.722-0.239-2.285-0.717c-0.563-0.479-0.844-1.126-0.844-1.943c0-0.512,0.131-0.958,0.394-1.339
		c0.262-0.381,0.615-0.677,1.06-0.889c-0.394-0.208-0.703-0.484-0.927-0.831c-0.22-0.348-0.33-0.745-0.33-1.193
		c0-0.787,0.262-1.414,0.787-1.879c0.525-0.471,1.238-0.705,2.139-0.705c0.897,0,1.608,0.232,2.133,0.698
		C170.889,91.791,171.152,92.419,171.152,93.215L171.152,93.215z M169.508,97.334c0-0.402-0.116-0.724-0.349-0.965
		c-0.233-0.241-0.546-0.361-0.939-0.361c-0.39,0-0.701,0.12-0.933,0.361c-0.233,0.236-0.349,0.559-0.349,0.965
		c0,0.394,0.114,0.711,0.342,0.952c0.229,0.241,0.546,0.362,0.952,0.362c0.398,0,0.709-0.117,0.934-0.35
		C169.394,98.066,169.508,97.744,169.508,97.334z M169.318,93.303c0-0.359-0.095-0.646-0.286-0.863
		c-0.19-0.22-0.459-0.33-0.806-0.33c-0.343,0-0.609,0.106-0.8,0.318c-0.19,0.211-0.285,0.503-0.285,0.875
		c0,0.369,0.095,0.665,0.285,0.889c0.191,0.225,0.459,0.337,0.806,0.337s0.614-0.112,0.8-0.337
		C169.223,93.968,169.318,93.672,169.318,93.303z M176.135,91.76c-0.07,1.32,0.07,5.86-3.92,8.07c0.4,0.279,0.79,0.641,1,0.949
		c2.11-1.289,3.16-3.219,3.7-5.02c0.56,1.84,1.681,3.9,3.94,5.02c0.189-0.319,0.549-0.729,0.92-1.01
		c-3.73-1.75-4.23-6.06-4.311-7.439c0.01-0.21,0.02-0.41,0.03-0.57H176.135z"/>
	<path fill="#325685" d="M211.169,95.455l0.533-4.697h5.18v1.529h-3.675l-0.229,1.987c0.436-0.233,0.898-0.349,1.39-0.349
		c0.88,0,1.569,0.272,2.069,0.818s0.75,1.31,0.75,2.291c0,0.598-0.127,1.133-0.381,1.606c-0.25,0.47-0.611,0.836-1.08,1.099
		c-0.47,0.258-1.024,0.387-1.664,0.387c-0.558,0-1.076-0.111-1.555-0.336c-0.479-0.229-0.857-0.549-1.136-0.959
		c-0.274-0.41-0.421-0.878-0.438-1.402h1.816c0.038,0.385,0.171,0.686,0.398,0.9c0.233,0.212,0.537,0.318,0.908,0.318
		c0.416,0,0.734-0.148,0.959-0.445c0.225-0.3,0.336-0.723,0.336-1.27c0-0.524-0.129-0.926-0.387-1.205s-0.624-0.42-1.098-0.42
		c-0.436,0-0.79,0.115-1.061,0.344l-0.178,0.164L211.169,95.455z M221.902,91.76c-0.07,1.32,0.07,5.86-3.92,8.07
		c0.399,0.279,0.789,0.641,1,0.949c2.109-1.289,3.16-3.219,3.699-5.02c0.561,1.84,1.68,3.9,3.94,5.02
		c0.19-0.319,0.55-0.729,0.92-1.01c-3.729-1.75-4.229-6.06-4.31-7.439c0.01-0.21,0.02-0.41,0.029-0.57H221.902z"/>
	<path fill="#325685" d="M264.352,100h-1.834v-7.071l-2.189,0.679v-1.491l3.826-1.371h0.197V100z M270.902,91.76
		c-0.07,1.32,0.07,5.86-3.92,8.07c0.399,0.279,0.789,0.641,1,0.949c2.109-1.289,3.16-3.219,3.699-5.02
		c0.561,1.84,1.68,3.9,3.94,5.02c0.19-0.319,0.55-0.729,0.92-1.01c-3.729-1.75-4.229-6.06-4.31-7.439
		c0.01-0.21,0.02-0.41,0.029-0.57H270.902z"/>
	<path fill="#325685" d="M262.971,80.54c-0.121,0.521-0.271,0.989-0.461,1.42c-0.369-0.271-0.85-0.55-1.27-0.78
		c0.13-0.209,0.26-0.42,0.38-0.64H262.971z M266.189,84.68c-0.35,0-0.399-0.07-0.399-0.55V82.23c0.899-0.471,1.851-1.01,2.67-1.58
		l-0.89-1.03c-0.471,0.43-1.11,0.94-1.78,1.37v-2.6h2.681V77.25h-8.921v1.141h1.69c-0.37,1.209-1.07,2.619-2.02,3.449
		c0.26,0.18,0.67,0.54,0.879,0.77c0.17-0.159,0.34-0.34,0.5-0.539c0.461,0.279,0.971,0.63,1.351,0.93
		c-0.591,0.859-1.351,1.49-2.271,1.91c0.26,0.189,0.69,0.66,0.86,0.939c1.91-0.97,3.28-2.959,3.8-6.17l-0.77-0.26l-0.2,0.04h-1.24
		c0.149-0.351,0.28-0.69,0.39-1.03l-0.17-0.039h2.23v5.739c0,1.271,0.311,1.649,1.43,1.649h1.32c0.99,0,1.29-0.539,1.42-2.109
		c-0.32-0.08-0.811-0.279-1.08-0.49c-0.05,1.23-0.109,1.5-0.449,1.5H266.189z M278.55,79.62v-1.2h-3.979v-1.88h-1.221v1.88h-3.89
		v1.2h1.09v3.81c0,1.66,0.71,2.12,2.39,2.12h3.391c0.71,0,1.561-0.021,1.891-0.09c-0.061-0.31-0.131-0.89-0.15-1.2
		c-0.41,0.07-1.131,0.12-1.7,0.12h-3.57c-0.8,0-1.01-0.25-1.01-0.899v-3.86H278.55z"/>
	<path fill="#325685" d="M307.12,100h-1.835v-7.071l-2.19,0.679v-1.491l3.828-1.371h0.197V100z M310.401,95.455l0.533-4.697h5.18
		v1.529h-3.675l-0.229,1.987c0.436-0.233,0.9-0.349,1.391-0.349c0.881,0,1.57,0.272,2.069,0.818s0.749,1.31,0.749,2.291
		c0,0.598-0.127,1.133-0.381,1.606c-0.25,0.47-0.609,0.836-1.079,1.099c-0.47,0.258-1.024,0.387-1.663,0.387
		c-0.559,0-1.077-0.111-1.555-0.336c-0.479-0.229-0.857-0.549-1.138-0.959c-0.274-0.41-0.421-0.878-0.437-1.402h1.815
		c0.037,0.385,0.171,0.686,0.399,0.9c0.233,0.212,0.535,0.318,0.908,0.318c0.414,0,0.734-0.148,0.958-0.445
		c0.224-0.3,0.336-0.723,0.336-1.27c0-0.524-0.129-0.926-0.387-1.205c-0.259-0.279-0.624-0.42-1.099-0.42
		c-0.436,0-0.789,0.115-1.06,0.344l-0.178,0.164L310.401,95.455z M321.135,91.76c-0.069,1.32,0.07,5.86-3.92,8.07
		c0.4,0.279,0.79,0.641,1,0.949c2.11-1.289,3.16-3.219,3.7-5.02c0.56,1.84,1.68,3.9,3.94,5.02c0.189-0.319,0.55-0.729,0.92-1.01
		c-3.73-1.75-4.23-6.06-4.311-7.439c0.01-0.21,0.021-0.41,0.03-0.57H321.135z"/>
</g>
</svg>
