<svg xmlns="http://www.w3.org/2000/svg" viewBox="0 0 24 24"><defs><style>.a{fill:none;}.b{fill:#040000;}</style></defs><title>名称未設定-2</title><path class="a" d="M0,0H24V24H0Z"/><path class="b" d="M12,17.48a.55.55,0,0,1-.45-.36l-.47-1.55a.51.51,0,0,1,.25-.61,4.56,4.56,0,0,0,2.27-2.52.52.52,0,0,1,.57-.32l.49.08a.57.57,0,0,1,.48.39.73.73,0,0,0,.54.56h.1a.71.71,0,0,0,.54-.34,1.79,1.79,0,0,0,.31-.8c.1-.71-.15-1.3-.59-1.36h0a.72.72,0,0,0-.68.38.53.53,0,0,1-.5.25l-.52-.06a.53.53,0,0,1-.46-.51,2.53,2.53,0,0,0,0-.28,3.85,3.85,0,0,0-.08-.49.53.53,0,0,1,.35-.6l1.37-.42a.59.59,0,0,1,.68.11.72.72,0,0,0,.74.26.71.71,0,0,0,.44-.6,1.77,1.77,0,0,0-.08-.87c-.23-.7-.73-1.12-1.16-1a.72.72,0,0,0-.44.65.55.55,0,0,1-.35.45L13.7,8.5a.51.51,0,0,1-.6-.18,4.48,4.48,0,0,0-.69-.81.51.51,0,0,1-.06-.67l.81-1.13a.6.6,0,0,1,.6-.32.78.78,0,0,0,.79-.26.74.74,0,0,0,0-.76,2,2,0,0,0-.62-.67,1.83,1.83,0,0,0-.84-.32.73.73,0,0,0-.71.26.77.77,0,0,0,.05.83.54.54,0,0,1,0,.56l-.8,1.23c-.21.33-.47.41-.69.32a5,5,0,0,0-1.09-.27.51.51,0,0,1-.43-.46L9.22,3.43c0-.41.08-.6.26-.7A.81.81,0,0,0,10,2a.74.74,0,0,0-.53-.6,2,2,0,0,0-1-.13c-.81.08-1.38.51-1.34,1a.85.85,0,0,0,.63.64.5.5,0,0,1,.36.43l.29,2.57a.52.52,0,0,1-.37.55,5,5,0,0,0-.86.34.56.56,0,0,1-.69-.16L6.05,6A.55.55,0,0,1,6,5.38a.83.83,0,0,0,0-.92c-.31-.38-1-.27-1.64.24s-.87,1.2-.56,1.58a.84.84,0,0,0,.91.16.5.5,0,0,1,.54.15l.51.57a.54.54,0,0,1,.07.74,5.09,5.09,0,0,0-.52.76.5.5,0,0,1-.63.22L3.41,8.4C3.08,8.27,3,8.09,3,7.88a.83.83,0,0,0-.47-.8c-.47-.18-1,.28-1.33,1.06S1,9.63,1.47,9.81a.85.85,0,0,0,.88-.31.52.52,0,0,1,.55-.14l1.48.51a.52.52,0,0,1,.35.53c0,.15,0,.42,0,.65a.55.55,0,0,1-.38.56L3,12.07a.5.5,0,0,1-.54-.14.85.85,0,0,0-.87-.32.77.77,0,0,0-.46.68,2,2,0,0,0,.12,1c.25.68.71,1.12,1.14,1.1l.18,0A.84.84,0,0,0,3,13.55a.51.51,0,0,1,.33-.47l1.17-.45a.51.51,0,0,1,.65.25,4.34,4.34,0,0,0,.65,1,.49.49,0,0,1,0,.66L5.42,15a.55.55,0,0,1-.59.22.77.77,0,0,0-.8.18.64.64,0,0,0-.13.47,1.7,1.7,0,0,0,.64,1,1.7,1.7,0,0,0,1.06.42.66.66,0,0,0,.49-.22.75.75,0,0,0,0-.82.52.52,0,0,1,.05-.56l.43-.54A.53.53,0,0,1,7.25,15a8.84,8.84,0,0,0,2.81.41l.53,2a.53.53,0,0,1-.18.55.77.77,0,0,0-.35.78c.1.34.49.52,1,.5a1.79,1.79,0,0,0,.54-.09,1.9,1.9,0,0,0,.83-.45.72.72,0,0,0,.26-.71A.75.75,0,0,0,12,17.48Zm-3.9-3.34a.89.89,0,0,1-1-.81.9.9,0,1,1,1,.81ZM7.87,11A1.48,1.48,0,1,1,9.21,9.43,1.47,1.47,0,0,1,7.87,11Zm2.14.47a1.27,1.27,0,1,1,1.14,1.38A1.27,1.27,0,0,1,10,11.51Z"/><path class="b" d="M22.81,19.83a.61.61,0,0,0-.65,0,.37.37,0,0,1-.39,0l-1.6-1.19a.38.38,0,0,1-.14-.44,2.13,2.13,0,0,0,.15-.49.38.38,0,0,1,.37-.29h.76a.38.38,0,0,1,.33.21.7.7,0,0,0,.62.47h0a.67.67,0,0,0,.55-.42,1.86,1.86,0,0,0,.15-.77,1.61,1.61,0,0,0-.2-.76.65.65,0,0,0-.57-.38h0a.69.69,0,0,0-.58.5.38.38,0,0,1-.33.23l-.75,0a.36.36,0,0,1-.38-.26,3.41,3.41,0,0,0-.18-.48.37.37,0,0,1,.13-.46l.62-.45a.59.59,0,0,1,.61-.1.56.56,0,0,0,.59,0c.31-.23.26-.76-.1-1.24a1.45,1.45,0,0,0-.54-.46.61.61,0,0,0-.63,0,.63.63,0,0,0-.18.64.37.37,0,0,1-.13.37l-.62.48a.54.54,0,0,1-.69.06l-.2-.14a.36.36,0,0,1-.13-.44c.06-.16.26-.79.26-.79a.4.4,0,0,1,.31-.25.61.61,0,0,0,.53-.39c.11-.36-.23-.77-.8-1a1.56,1.56,0,0,0-.7,0,.61.61,0,0,0-.5.38.62.62,0,0,0,.23.63.38.38,0,0,1,.1.38l-.21.74a.37.37,0,0,1-.39.28,3.08,3.08,0,0,0-2.71,1.08.52.52,0,0,1-.62.13l-.11-.06a.52.52,0,0,1-.28-.45.59.59,0,0,0-.3-.49.6.6,0,0,0-.62.1,1.49,1.49,0,0,0-.42.55c-.26.53-.19,1.06.15,1.22a.58.58,0,0,0,.58-.09.55.55,0,0,1,.53-.06l.12.05a.51.51,0,0,1,.29.55,3.16,3.16,0,0,0,.07,1.37,4.87,4.87,0,0,0,.28.56.32.32,0,0,1-.1.4L14.2,19a.54.54,0,0,1-.36,0,.47.47,0,0,0-.54,0c-.26.21-.21.68.12,1.1a1.49,1.49,0,0,0,.49.4.63.63,0,0,0,.21.05.45.45,0,0,0,.35-.08c.21-.2.12-.43.1-.62a.34.34,0,0,1,.1-.27l.19-.15a.26.26,0,0,1,.32,0c.18.13.43.29.61.4a.3.3,0,0,1,.13.36l-.36,1.13a.34.34,0,0,1-.26.22.5.5,0,0,0-.3.9,1.35,1.35,0,0,0,.54.31,1.67,1.67,0,0,0,.47.07.63.63,0,0,0,.61-.38.55.55,0,0,0-.19-.55.39.39,0,0,1-.09-.36l.31-1.08a.4.4,0,0,1,.4-.28,2.72,2.72,0,0,0,.64,0,.39.39,0,0,1,.43.23l.17.43a.51.51,0,0,1-.06.48.46.46,0,0,0-.06.42.52.52,0,0,0,.53.26,1.16,1.16,0,0,0,.42-.1,1.14,1.14,0,0,0,.44-.32.49.49,0,0,0,.1-.48.44.44,0,0,0-.34-.24.55.55,0,0,1-.4-.29l-.18-.39a.39.39,0,0,1,.13-.47,2.31,2.31,0,0,0,.39-.31.39.39,0,0,1,.49,0l1.31,1a.64.64,0,0,1,.3.6.57.57,0,0,0,.19.54.43.43,0,0,0,.25.1.8.8,0,0,0,.36-.07A1.6,1.6,0,0,0,22.7,21a1.52,1.52,0,0,0,.29-.62A.62.62,0,0,0,22.81,19.83ZM15.38,15.6a.68.68,0,0,1,1.2.66.68.68,0,1,1-1.2-.66Zm1.32,3.1a.8.8,0,0,1-1.39-.78.8.8,0,0,1,1.08-.31A.81.81,0,0,1,16.7,18.7Zm2.59-1.57a.94.94,0,1,1-.36-1.29A1,1,0,0,1,19.29,17.13Z"/></svg>