<svg width="14" height="14" viewBox="0 0 14 14" fill="none" xmlns="http://www.w3.org/2000/svg">
<path d="M9.90625 8.34375H12.1562C12.2812 7.76042 12.3438 7.3125 12.3438 7C12.3438 6.6875 12.2812 6.23958 12.1562 5.65625H9.90625C9.96875 6.09375 10 6.54167 10 7C10 7.45833 9.96875 7.90625 9.90625 8.34375ZM8.71875 12.0312C9.98958 11.6146 10.9583 10.8229 11.625 9.65625H9.65625C9.44792 10.4896 9.13542 11.2812 8.71875 12.0312ZM8.5625 8.34375C8.625 7.90625 8.65625 7.45833 8.65625 7C8.65625 6.54167 8.625 6.09375 8.5625 5.65625H5.4375C5.375 6.09375 5.34375 6.54167 5.34375 7C5.34375 7.45833 5.375 7.90625 5.4375 8.34375H8.5625ZM7 12.3125C7.58333 11.4583 8.01042 10.5729 8.28125 9.65625H5.71875C5.98958 10.5729 6.41667 11.4583 7 12.3125ZM4.34375 4.34375C4.55208 3.51042 4.86458 2.71875 5.28125 1.96875C4.01042 2.38542 3.04167 3.17708 2.375 4.34375H4.34375ZM2.375 9.65625C3.04167 10.8229 4.01042 11.6146 5.28125 12.0312C4.86458 11.2812 4.55208 10.4896 4.34375 9.65625H2.375ZM1.84375 8.34375H4.09375C4.03125 7.90625 4 7.45833 4 7C4 6.54167 4.03125 6.09375 4.09375 5.65625H1.84375C1.71875 6.23958 1.65625 6.6875 1.65625 7C1.65625 7.3125 1.71875 7.76042 1.84375 8.34375ZM7 1.6875C6.41667 2.54167 5.98958 3.42708 5.71875 4.34375H8.28125C8.01042 3.42708 7.58333 2.54167 7 1.6875ZM11.625 4.34375C10.9583 3.17708 9.98958 2.38542 8.71875 1.96875C9.13542 2.71875 9.44792 3.51042 9.65625 4.34375H11.625ZM2.28125 2.3125C3.59375 1 5.16667 0.34375 7 0.34375C8.83333 0.34375 10.3958 1 11.6875 2.3125C13 3.60417 13.6562 5.16667 13.6562 7C13.6562 8.83333 13 10.4062 11.6875 11.7188C10.3958 13.0104 8.83333 13.6562 7 13.6562C5.16667 13.6562 3.59375 13.0104 2.28125 11.7188C0.989583 10.4062 0.34375 8.83333 0.34375 7C0.34375 5.16667 0.989583 3.60417 2.28125 2.3125Z" fill="#4D4D4D"/>
</svg>
