<?xml version="1.0" encoding="iso-8859-1"?>
<!-- Generator: Adobe Illustrator 24.0.3, SVG Export Plug-In . SVG Version: 6.00 Build 0)  -->
<svg version="1.1" id="&#x30EC;&#x30A4;&#x30E4;&#x30FC;_1"
	 xmlns="http://www.w3.org/2000/svg" xmlns:xlink="http://www.w3.org/1999/xlink" x="0px" y="0px" viewBox="0 0 512 512"
	 style="enable-background:new 0 0 512 512;" xml:space="preserve">
<path style="fill:#00A29A;" d="M410.792,269.123l-0.133-0.133l-0.45,0.15l0.117-0.317l-0.2-0.2l0.167-0.1h-0.217v-0.367v-0.2
	l0.233-0.1l-0.083-0.133h-0.117l-0.3-0.1l0.167-0.267h0.35l-0.233-0.283l-0.283-0.25l0.183-0.133l-0.083-0.167h0.183l-0.15-0.233
	l0.35-0.2l-0.317-0.2l0.117-0.217h-0.3l0.2-0.15l-0.183-0.384l-0.183-0.117l-0.183,0.133l-0.2-0.267h-0.133v0.3h-0.934l-0.133,0.15
	l-0.25,0.317h-0.183l-0.25-0.183l0.133-0.283l0.117-0.2h0.25v-0.267l-0.25-0.45h-0.133l-0.267-0.1v-0.217v-0.167l-0.133-0.1v-0.233
	h0.167h0.133v-0.217v-0.267h-0.283v-0.267l0.484-0.217l-0.183-0.283h-0.183h-0.2l0.367-0.467h-0.417h-0.384v0.317l-0.15,0.25v-0.567
	l-0.283,0.584v-0.233h-0.133h-0.167v-0.434h-0.434l-0.217,0.133l-0.734,0.4l-0.183-0.317l-0.25,0.133l-0.384-0.15l-0.283,0.383
	l-0.25-0.183v0.15l-0.283,0.15v-0.434h0.133h0.217v-0.267v-0.233l-0.417,0.133l0.167-0.317l-0.133-0.133l-0.067-0.05l-0.217,0.2
	l0.167,0.367l-0.4,0.384h-0.367l-0.1-0.434v0.167l-0.517-0.133l-0.183,0.267l-0.133-0.117l0.333-0.4l0.25,0.117v-0.167h-0.35
	l-0.15-0.217l-0.25-0.3l0.15-0.3v-0.15l0.083-0.25l0.217-0.2l0.2-0.25l-0.1-0.333v-0.15l0.2-0.283v-0.317l0.467-0.684l-0.35-0.15
	l-0.2-0.2v-0.2v-0.15l0.2-0.267l0.117-0.2l-0.183-0.217V256.3l0.233-0.517h0.117l0.534-0.517h-0.183h-0.133l-0.283,0.083h-0.133
	l-0.417-0.2l-0.467-0.7l-0.267-0.95l0.133-0.267v-0.15v-0.333l0.267-0.15l0.15-0.15l0.1-0.1h0.167h0.333v-0.167h0.167l0.183-0.117
	l0.167,0.133h0.267v-0.183h-0.133l-0.2-0.1h-0.317v-0.15v-0.167l-0.117-0.217h-0.2l0.2-0.317h-0.133v-0.183h-0.15l-0.1,0.1
	l-0.133,0.15v-0.25l-0.167,0.3v-0.5l-0.3,0.417h-0.183h-0.2l-0.133-0.15l-0.15-0.283v-0.283l-0.233-0.133l0.283-0.3l-0.233-0.25
	l0.233-0.133v-0.217l0.2-0.15l-0.2-0.15l0.1-0.133v-0.534l0.117-0.117v-0.233h-0.25l-0.1-0.317l-0.317-0.15l0.3-0.133v0.133
	l0.233-0.2l0.133-0.2h-0.217l0.333-0.217l-0.167-0.1h-0.3v-0.183h-0.15v-0.183l0.9-0.133l0.4-0.35l-0.133-0.267h-0.267l-0.3-0.35
	l0.183-0.183h-0.283l0.233-0.183h-0.417v-0.2l-0.233-0.133l0.4-0.35l0.434,0.167v-0.167h0.367l-0.5-0.233l0.117-0.417h-0.417v-0.2
	l0.317-0.1v-0.133h-0.283l-0.133-0.15l0.233-0.1l0.333-0.217l0.183-0.117l-0.167-0.083l-0.283-0.117l-0.3-0.1l0.467-0.1v-0.15h0.1
	l0.083-0.65h-0.217v-0.15l-0.5,0.083l-0.1-0.183v-0.133l0.117-0.1v-0.117l0.133-0.117l0.15-0.233l-0.417-0.133h-0.267l0.083-0.217
	l-0.233-0.15l0.417-0.233h0.133v-0.183h0.2v-0.217l-0.333-0.083h-0.2l0.083-0.283l-0.35,0.233l-0.15,0.183v-0.133l-0.167-0.217
	h-0.183l-0.384,0.3l-0.15-0.283l-0.167,0.083h-0.117h-0.15l0.3,0.1l-0.35,0.1l0.15,0.117l-0.167,0.417h-0.367l0.117,0.233
	l-0.467,0.25l0.1,0.3l-0.117,0.384l-0.3,0.267h-0.267l-0.233,0.333l0.133,0.183h-0.117l-0.434,0.283v0.133l-0.167,0.25v0.233
	l0.183,0.367l-0.584,0.217l0.133,0.083v0.567h-0.217l-0.35,0.15h0.1l-0.1,0.417l-0.317,0.1v0.267l-0.3,0.25l-0.233,0.267l-0.2,0.367
	l-0.3,0.484l-0.3,0.484l-0.3,0.384l-0.3,0.584v0.2l-0.784,1.667v0.167l-0.517,0.45l-0.117,0.367l-0.767,0.183l-0.2,0.3l-0.25,0.1
	l-0.617,0.4l0.45,0.083l-0.417,0.634l-0.117,0.317l-0.283,0.183l-0.217,0.133l-0.133,0.083l-0.15,0.1v0.133l-0.083,0.267
	l-0.183,0.667l-0.534,0.3l0.117,0.167l-0.25,0.417l0.117,0.3l-0.6,0.634l-0.083,0.35v0.267l-0.367,0.217l0.083,0.25l-0.183,0.233
	h-0.267v0.6l-0.367,0.283l-0.183,0.517h-1.217l-0.3-0.317l-0.1,0.15l-0.65-0.25l0.317-0.6l-0.117-0.167h-0.333l0.367-0.55
	l-0.517-0.233l-0.384-0.917v-0.75l0.434-0.25l0.7,0.517l0.117-0.15l-0.617-0.634l0.35-0.434l0.884-0.467l0.283,0.217l0.133,0.1
	l0.267-0.283l-0.233-0.65l0.417-0.617l1.001-0.684l0.183-0.117l-0.3-0.734v-0.5l0.3-0.15v-0.4l0.15-0.183h0.3v0.517l0.233-0.25
	l-0.133-0.1v-0.367h-0.117l-0.167-0.567h-0.267l-0.133-0.484l0.15-0.384l0.45,0.2h0.784v-0.734h0.467l-0.634-1.401v-0.55
	l-0.617-0.25v-0.5l1.367,0.367l-0.183-0.35l-0.834-0.283l-0.8-0.267v-0.367v-0.367l1.434,0.4l0.3-0.25l0.083-0.217l-0.984-0.417
	l0.333-1.467h0.317l0.15,0.367l0.784,0.667l0.25-0.3h0.567l0.417-0.25l0.167-0.217v-0.117l0.25-0.217h-0.85v-0.217l0.267-0.1
	l0.283-0.117l-0.5-0.117l0.1-0.333l-0.25-0.117l-0.15-0.65l-1.034,0.367l-0.484,0.217l-0.267-0.15l-0.117-0.384l0.2-0.117
	l-0.15-0.233h0.3l-0.1-0.267h0.267v-0.1l0.1-0.367l0.283-0.167l-0.267-0.384l-0.317-0.567h-0.1v-0.283h0.183l0.217,0.317v-0.283
	v-0.15l0.333-0.117l0.117-0.317h-0.083l0.183-0.117l-0.233-0.267l0.133-0.283v-0.5l0.484-0.717l0.133-0.267h0.417l0.117-0.283
	l0.117-0.55v-0.267l0.283-0.117l0.1-0.233v-0.567v-0.167h0.167l0.167-0.117v-0.2v-0.3l0.484-0.4l0.117-0.15l-0.117-0.467l0.233-0.2
	l-0.3-0.15v-0.417h-0.467v-0.2l-0.183,0.183v-0.217h-0.133v0.133h-0.183h-0.2h-0.167l-0.1-0.217l-0.35,0.4h-0.6l-0.2-0.417v-0.133
	l-0.183-0.283v0.634l-0.283-0.117l-0.1-0.233h-0.233l0.083,0.233l-0.367,0.1l-0.233-0.333v-0.267h-0.15l-0.15-0.283v-0.183h0.183
	v-0.3h0.417l0.267-0.267l0.133-0.183l0.1-0.867l0.317-0.183l-0.5-0.484v-0.4l0.267-0.45h0.117h0.283v-0.3v-0.2l0.117-0.75
	l0.283-0.183v0.217l0.133-0.1l0.584,0.183h0.1l-0.267-0.15l0.3-0.133l0.183-0.167l0.183-0.167l0.183-0.317l0.117-0.183h0.35h0.2
	l-0.217-0.167h-0.15l0.283-0.934l-0.267-0.15l0.133-0.167l-0.167-0.15l-0.35-0.15h-0.183v-0.384l0.167-0.584l0.267-0.2l-0.167-0.133
	l0.15-0.5h0.333h0.15l0.317-0.167h-0.333h-0.167h-0.3l-0.083-0.267l0.15-0.083l-0.25-0.25l0.3-0.15l-0.35-0.083l-0.083-0.217h-0.167
	h-0.367h-0.15h-0.133l-0.384,0.217l-0.45-0.167v-0.217h-0.25v-0.217l-0.25,0.117l-0.25-0.25v-0.367h-0.117l0.117-0.267h0.384
	l-0.484-0.267l0.283-0.467l0.45,0.1l-0.1-0.617h0.7l0.117,0.7l-0.2,0.117h0.4l0.65-0.117l0.1-0.1h-0.217v-0.317h0.183h0.684
	l-0.417-0.3v-0.283l0.467-0.267h0.167v-0.333l0.167-0.25v-0.584l0.667-1.334l0.434-0.317h0.167l0.217,0.083l0.317-0.317l0.117-0.117
	l0.517-0.117h0.167h0.15l0.15,0.133l-0.117-0.117v-0.167h0.117h0.117h0.167h0.2l0.2-0.117l0.133-0.217l-0.083-0.133l-0.183-0.3
	l-0.183,0.117l-0.367,0.217l-0.283-0.2l0.233-0.25L394,211.712l-0.317-0.167l-0.183,0.367h0.2v0.183h-0.484l-0.584-0.45
	l-0.217-0.083l-0.584-1.051l-0.133-1.184v-0.25l0.117-0.333h0.217l-0.15-0.233l0.117-0.717l0.183-0.083h-0.133l0.167-0.083
	l0.2-0.517l0.967-0.634l0.283-0.4l0.767-0.25l0.467-0.167l0.317-0.384l-0.283-0.167v-0.217h-0.217v-0.217h-0.167l-0.15-0.1h-0.3
	h-0.283H393.4l-0.117-0.3l-0.25-0.517l-0.35-0.1l-0.217-0.584l-0.333-0.2l0.133-0.3l0.083-0.217h-0.117h-0.35v-0.384h-0.183h-0.333
	l-0.217-0.1h-0.217l-0.233-0.2l0.317-0.1l-0.15-0.6h0.25l0.15-0.1l0.217-0.2v-0.167l-0.133-0.25v-0.183l-0.167-0.133l0.133-0.1
	l0.1-0.15l-0.083-0.133l0.367-0.25v-0.167l-0.3-0.183v-0.267h-0.684l0.283-0.283l0.117-0.133l-0.65-0.65l0.15-0.233l0.1-0.133
	l-0.267-0.55l0.2-0.5v-0.4l0.133-0.117l0.217-0.2h-0.1l-0.15-0.133h-0.183v-0.6h0.3h0.25h0.217l0.217-0.117l-0.15-0.417l0.417-0.2
	h0.15h-0.183v-0.333l0.1-0.15l0.117-0.117l0.217-0.283l-0.333-0.1v-0.4l-0.5-0.517v-0.317h0.267v-0.333l-0.133-0.233l-0.267-0.117
	l-0.217-0.417l0.1-0.2h-0.217l-0.183,0.117l-0.567,0.367l-0.317,0.167l-0.35-0.25l0.1-0.15l-0.133-0.3l-0.1-0.267l0.484,0.15
	l-0.167-0.167l0.133-0.333v-0.133h-0.133v-0.467v-0.15l0.283-0.317v-0.2l-0.1-0.167v-0.183l0.133-0.117l0.217-0.333h-0.3
	l-0.267-0.133l-0.167-0.083h-0.15h0.183h-0.367v-0.417l0.133-0.1l0.384-0.434h-0.434l-0.133-0.117h-0.15l-0.1-0.1h-0.117v-0.65
	h0.317v-0.25l-0.283-0.083l-0.133-0.367l0.6-0.133h0.117l0.233-0.1l-0.3-0.15l-0.467,0.233l0.233-0.233l-0.1-0.2h0.484l0.117-0.183
	l-0.133-0.15h-0.367l-0.083-0.467h0.217l-0.183-0.117l0.1-0.117h-0.117h-0.1l0.283-0.2h-0.384h0.133l-0.183-0.267l0.2-0.15v-1.784
	h0.2h0.1h0.117v-0.35l0.283-0.2v-0.217v-0.35l-0.467-0.5v-0.567v-0.25v-0.25l-0.367-0.434l-0.333-0.367l0.117-0.267l-0.267-0.25
	l0.083-0.167v-0.384l-0.217-0.117v-0.167h-0.25l-0.167-0.417l0.2-0.117l-0.217-0.233v-0.15v-0.417l-0.217-0.2l-0.133-0.1l-0.2,0.217
	l-1.117-0.1l-0.484-0.45l-0.4-0.233l-0.117-0.2l-0.183-0.35l-0.1-0.167l-0.3-0.167l-0.283-0.133v-0.767l-0.4-0.567v-0.384v-0.183
	l-0.367-0.934v-0.3l-0.5-1l0.1-0.734v-0.117l-0.4-0.467l0.25-0.3l-0.217,0.15l-0.167-0.217l0.217-0.15v-0.283l-0.283,0.1
	l-0.767-0.717v-0.167h-0.417l-0.1-0.217l-0.317-0.684l0.2-0.934l0.117-0.15h0.183l0.1-0.183l0.15-0.283l-0.183-0.117h-0.167h-0.133
	h-0.1l-0.1-0.4l0.133-0.133l0.517-0.333v-0.167h-0.15v-0.467l-0.584,0.1l-0.267-0.233l0.167-0.484h0.217l0.283-0.117l0.117-0.283
	v-0.217v-0.25v-0.217l-0.167-0.117v-0.333v0.217l-0.25-0.167l0.734-0.417l0.117-0.4l-0.083-0.25v-0.183l0.5-0.7l0.417,0.1h0.15
	h0.167h0.367l0.167-0.117h0.25h0.133v0.117h0.15h0.15h0.133v0.183l0.167,0.1h0.167l-0.083-0.15l0.233-0.217l0.133-0.1l0.45,0.45
	l0.167-0.333l-0.217-0.117v-0.317l-0.083-0.167h-0.15l-0.15-0.233l-0.117-0.167v-0.3l0.3-0.333v0.183h0.233v-0.233h0.117h0.2v-0.183
	h-0.167l0.4-0.25l-0.617,0.133h-0.117h-0.183l-0.233-0.267l-0.267-0.167v-0.267l0.1-0.167l0.167-0.117l0.1-0.217h-0.133
	l-0.333-0.117l-0.25-0.25v-0.3v-1l0.15-0.133h-0.217v-0.384v-0.2v-0.2v-0.2l0.1-0.1h-0.2h0.133l0.217-0.167l-0.333-0.133l0.15-0.2
	l-0.267-0.1v-0.233v-0.2l0.133-0.133l0.2-0.3h-0.167l-0.1-0.317v-0.183l0.217-0.1l-0.2-0.2v-0.2v-0.2l0.25-0.217l0.233-0.317
	l-0.1-0.117h-0.117h-0.167l0.167-0.283l-0.167-0.117l0.167-0.1l-0.333-0.333l0.283-0.233l-0.283-0.133l-0.1-0.283h-0.467l0.45-0.534
	h-0.267l-0.267,0.233v-0.2h-0.5v-0.15v-0.217h-0.233v-0.233l-0.167-0.317l-0.2,0.317h-0.15l-0.15-0.133v-0.55l-0.2-0.417
	l-0.183-0.15l-0.15,0.133v-0.2h-0.217l0.233-0.1h0.183v-0.217h-0.15v-0.484h-0.283l-0.333-0.484v0.15l-0.534-0.2l0.25-0.484v-0.517
	l-0.1,0.15h-0.333v-1.034h-0.15h-0.283l0.083-0.167l0.117-0.283v-0.384l-0.183-0.183v-0.217l-0.117-0.283l-0.217-0.367l-0.3,0.2
	l-0.217-0.4h-0.25l-0.567,0.667l-0.2-0.133v-0.183h-0.133l-0.25-0.133l-0.117,0.133h-0.15v0.15l-0.117,0.133l-0.083,0.117h-0.417
	l-0.2-0.15h-0.183l-0.684,0.1l-0.35-0.15l-0.6-0.167l-0.05-0.3l-0.167-0.25l-0.233,0.183l-0.15-0.1l-0.233,0.233l-0.217,0.3
	l-0.133-0.117l-0.183-0.333h0.183l-0.333-0.3l-0.133-0.117l-0.083-0.417l0.25-0.217v-0.2l-0.267,0.233l-0.167,0.167v-0.367
	l-0.534,0.217l-0.384-0.384l0.117-0.484l0.333-0.45l-0.167-0.283h-0.434l-0.4-0.65l0.167-0.2l-0.15-0.3l-0.4-0.2l0.2-0.217h-0.233
	l-0.25-0.5l-0.317-0.183l-0.283-0.167l-0.233-0.117l-0.117-0.35l-0.45-0.317h-0.167v-0.35l-0.133-0.333l-0.267,0.2l-0.117-0.183
	l0.1-0.317v-0.167h-0.217l0.183-0.333h-0.267v-0.283h-0.25l0.1-0.25v-0.2h-0.233v-0.217l-0.15-0.183l0.233-0.2h-0.25v-0.2h-0.25
	l0.183-0.117v-0.183l-0.167,0.117l-0.133-0.217h-0.183l0.1-0.25l-0.3-0.233l0.117-0.45h-0.15h-0.25v-0.167l-0.083-0.117v-0.183
	l-0.167,0.167h-0.2h-0.167l-0.25,0.083h-0.484l-0.2-0.317v-0.317l-0.083-0.15h-0.417l0.25-0.217l-0.083-0.133v-0.167l-0.684,0.45
	h-0.133l-0.167-0.15v0.267l-0.1,0.1v-0.25l-0.3-0.1h-0.117l-0.434-0.267h-0.133l-0.4-0.2h-0.167v-0.2h-0.233l-0.1-0.15h-0.183
	h-0.717l-0.35-0.784l0.133-0.233h-0.217l0.083-0.117v-0.167l-0.2-0.133l-0.167-0.083l-0.117-0.1l-0.133-0.117h-0.117l-0.1-0.133
	h0.117l-0.183-0.083v-0.25l-0.317-0.467h-0.15l0.083-0.133h-0.183v-0.167l-0.2-0.183l-0.233-0.15v-0.233l-0.367-0.233v-0.167
	l-1.084-1.051l-0.15-0.55l0.083-0.634l-0.217-0.384v-0.233l-0.233-0.167h-0.117l-0.217-0.467l-0.167-2.001l0.467-1.117l-0.1-0.4
	l-0.817-0.934l-0.117-0.467v-0.417l-0.15-0.333l0.333-2.935l0.534-1.017l0.233-0.167l0.1,0.117l0.45-0.384l-0.15-0.183l0.367-0.167
	l0.35,0.333l-0.233-0.467v-1.034l0.517-1.101l1.067-1.451l1.217-1.201l0.233,0.45v-0.2l0.45-0.15l1.217,0.634l0.4,0.233h0.133
	l0.1-0.117h0.133h0.1l1.034-0.2v-0.183l0.417-0.35h0.617l0.333-0.25v-0.384v-0.267v-0.517l0.267-0.3l0.2-0.384l0.15-0.183v-0.167
	h0.133l-0.267-0.167h-0.15h-0.117l-0.267-0.117l-0.667-1.384v-0.517l-0.183-0.15l-0.367-0.133l-0.217-0.283v-0.133l-0.45-0.133
	v-0.567l-0.133-0.183l-0.384-0.283l0.117-0.45l0.217-0.267h-0.717l-0.1-0.283l0.2-0.484l-0.167-0.484l-0.15-0.083h-0.133l-0.117-0.1
	l-0.85-0.6l-0.183-0.1v-0.267l-0.15-0.1v0.15h-1.267v-0.4v-0.167h-0.15h-0.15l-0.917-0.467l-0.684-0.6l-0.367-0.283v-0.183
	l-0.233-0.367l-0.567-0.1v-0.317l-0.767,0.15l-0.384-0.2V91.72l-0.417,0.1l-0.15-0.167h-0.133l-0.6-0.233l0.4,0.35l-0.5,0.133
	l-0.3,0.1l-0.717-0.5l-0.183-0.1l0-0.434h-1.818v-0.167l-0.634,0.117l-0.217-0.517h-0.267l-0.283-0.5l-0.2-0.65l-0.183-0.334
	l-0.967-0.233l-0.1-1.217h0.45l0.133,0.7h0.233v0.283l1.184,0.667l-0.434-0.367l0.584-0.584v-0.35l-0.35-0.2v-0.75l1.067-0.117
	l-0.2-0.4l-1.134-0.1v0.283h-0.2v-0.25l-0.133-0.5v-0.467V85.1l0.367-1.484l0.767-0.7l0.55-1.184h0.1l1.084,0.817l0.383-0.5
	l-0.7-0.534l0.233-0.3l0.35-0.484l0.35,0.217l0.45-0.767l0.333-0.217l1.451,0.3l1.051-0.183l0.534,0.3v0.167v-0.417h-0.183
	l0.167-0.167h-0.35l-0.15-0.333l0.15-0.45v-0.4l-0.117-0.167l-0.2-0.384l0.167-0.367v-0.15l-0.15-0.484l0.283-0.717l-0.083-0.434
	v-0.2l-0.417-0.684v-0.417l-0.6-0.584l0.083-0.384l-0.133-0.15l-0.3-0.25l-0.15-0.2l-0.367-0.217v-0.183l-0.1-0.233l0.384-0.2
	v-0.083h0.117l-0.15-0.117l0.2-0.183l-0.117-0.117v-0.15h-0.283l0.183-0.25h0.183V71.26h-0.183h-0.217l0.1-0.167h-0.183v-0.3h-0.167
	h-0.2v-0.25v-0.217v-0.133l-0.117-0.183v-0.217l0.117-0.167l-0.384-0.15l0.333-0.1h-0.233l0.167-0.1l-0.167-0.1h-0.133l-0.167-0.083
	l0.1-0.15h0.1h0.15v-0.133l-0.4-0.2l0.267-0.1h0.133l-0.15-0.417v-0.183l-0.3,0.15v-0.217h-0.15v-0.15l-0.117-0.083v0.017h0.2
	l-0.7-0.233h0.1h0.2v-0.384l-0.217,0.183l0.233-0.5l-0.233-0.15h0.267l-0.117-0.417l-0.183-0.1l-0.083-0.167l-0.167-0.217h-0.167
	v-0.183l-0.117-0.183h-0.183l0.117-0.15l-0.25-0.083l0.183-0.1h-0.434l0.167-0.083h-0.15h0.25l-0.367-0.384l-0.233-0.417l-0.1-0.183
	l0.083-0.183l-0.167-0.2v-0.15h-0.183h-0.25l0.167-0.2h-0.25l0.25-0.167l-0.2-0.283v0.167l-0.233-0.167v-0.167l-0.584-0.367v-0.183
	v-0.117h-0.25v-0.384l-0.217-0.183l-0.2-0.117l0.25-0.133l-0.333-0.267h0.15l-0.133-0.333h-0.133l-0.267-0.15l-0.1-0.233
	l-0.233-0.25v-0.25l0.217-0.117l-0.133-0.35h-0.1l-0.283-0.617l-0.317-0.2v-0.15v-0.2l-0.133-0.183l-0.25-0.317v-0.3v-0.2v-0.15
	l-0.117-0.267l-0.167-0.333h0.167l-0.217-0.117l0.083-0.2l-0.25-0.217h-0.117h-0.117v-0.133v-0.233v-0.167l-0.15-0.2l0.15-0.2
	l-0.267-0.233l0,0h-0.183h-0.183l-0.484-0.317v-0.283v-0.183l-0.383-0.15h-0.2v-0.15l-0.55-0.5l-0.15-0.75v-0.684l-0.634-1.434
	v-1.901l-0.167-0.4l0.1-1.034l0.333-0.634l-0.267-0.4v-0.367l-0.133-0.183l-0.267,0.117l-0.233-0.3l-0.484,0.25l-0.383-0.233
	l-0.1-0.333V44.28h0.35l-0.283-0.467l0.317-0.25h-0.75l-0.233-0.25l-1.051-0.3l-0.434-0.517l-0.317-0.984l0.434-1.417v-1.051
	l-0.233-0.217v-0.15l-0.534-0.45l-0.217-0.6l-0.667-0.8l-1.534-1.034l-0.117-0.717l-0.317-0.467l-1.134-0.367l-0.183-0.2l0.15-0.133
	l-0.25-0.183h-0.167l-0.55-0.6l-0.217-0.6v-0.5l-0.534-0.567l-0.517-0.85l-0.117-0.083h-0.283l-0.183-0.4l0.183-0.25h-0.133
	l-0.15-0.6l0.567-0.2l0.117,0.233v-0.3l-0.217-0.317v0.217l-0.55-0.1l0.117-0.517v-0.217v-0.45h0.333h-0.417l-0.333-1.184
	l-1.184-1.884l0.3-0.25l-0.233,0.117l-0.2-0.217l-1.667-0.3l-0.734-1.451l-0.133-0.867l0.2-0.25l-0.2-0.333h-0.15l-0.867-0.283
	l-0.684-0.5l-0.95-1.667v-0.183h-0.183v-0.65l-1.284-1.517l-0.117-0.2l-1.367,0.484v0.367L321.765,17v0.25l0.167,0.667l-0.467,0.367
	l-0.55,1.401l-0.484,0.384l-1.401,0.567v0.3l-0.233,0.417l-0.967,0.434l-0.117,0.3l-0.55,0.267l-1.184-0.15l-1.484,1.451
	l-1.817,0.617l-0.267,0.25l-0.4-0.15l-2.835,0.2l-0.384,0.267l-0.267,0.517v0.3l-0.267,0.283h-0.584l-0.784,0.384l-0.7-0.117
	l-0.984,0.367l-0.617,0.25l-0.317,0.484v0.367h-0.35l-0.417,0.534h-0.634l-0.283,0.717v0.467l-0.167,0.467l-0.817,0.767v1.984
	l0.384,0.133l0.367,0.517l-0.367,1.284l0.217,0.65l0.65,0.55l-0.25,0.667l-0.834,0.467l-0.117,0.15v0.65l-0.984,0.9l-0.934,0.35
	l-0.1,1.017l-0.484,0.133l-1.284,1.134l-0.65,0.217l-1-0.15l-0.484,0.734l-0.15,0.25l-1.134,0.85l-0.484,1h-0.467v0.167
	l-0.817,0.617h-0.267l-0.233,0.15h-0.317v-0.367l-0.35-0.117l-0.167-0.367l-0.434-0.283l-0.317,0.3l-0.667,0.133l-0.734-0.417
	l-1.201-0.1l-0.65-0.467l-0.85-1.317l-0.45-0.317l-0.333-0.584v-0.4h-0.35l-0.434-0.317l-1.051,0.484l-0.467-0.484v-0.584
	l-0.133-0.417l-1.834-1.351h-0.584l-0.434-0.767h-0.484l-0.2-0.367l-0.65,0.083l-0.9-0.333l-0.417,0.217l-0.717-0.2h-0.317
	l-0.734,0.65l-1.367,0.133l-0.467,0.45l-1.517-0.117l-0.417-0.384l-0.183-0.1l-0.367-0.083l-0.834,0.717h-0.817v0.384l-0.484,1.201
	l-0.5,0.117v0.333l-0.417,0.517v0.817l-0.8,0.267l-0.183-0.667h-0.767l-2.568,1.667l-0.417-0.667v-0.417l-0.283-0.083l-0.25-0.934
	l-0.333-0.484h-0.15l-0.1-0.1l-0.667-0.1l-0.717,0.95l-0.2,0.567v0.367l-0.85,0.4l-0.117,0.467l0.183,0.3v0.534v0.434v0.133
	l-1.301,1.667l-0.367,0.817v0.55l-1.051,0.917v-0.6l-0.734-0.6l-0.684,1.317l-2.184,1.167l-0.6,0.133l-0.867,0.834h-0.45v-1.017
	h-0.734l-0.3-0.233l0.5-0.734l-0.333-0.534l-0.734-0.384l-1.151-0.25l-0.3-0.55l-0.6-0.333l0.083-0.784l0.4-0.484l0.133-0.45v-0.534
	l0.15-0.45V43.03l-0.317-0.417v-0.767l-0.517-0.484h-0.817l-0.384-0.333l-0.15-0.617l-0.55-0.117l-0.167-0.367l0.117-0.45
	l-0.1-0.367h-0.867l-0.083-0.3l-0.634-0.467h-0.233l-0.333,0.467v0.4l-0.817,0.75l-0.984,0.367l-0.5-0.15l-1.084,0.1l-1.051,0.717
	l0.4,0.333l0.117,0.384l-0.167,0.35l-0.684,0.45l0.217,1.151l-0.133,0.6l-0.734,0.7l-1.667,0.767l-0.4,0.484l-0.784,0.133
	l-1.968-1.417l-0.534-0.167l-0.417,0.15l-0.517,0.9v0.517l0.233,0.3l-0.183,0.417h-1.284l-1.251,0.3l-0.784,1.101l-1.417,0.817
	l-0.517,0.884l-0.6,0.3l-0.1,0.467l-1.351,0.15l-0.217,0.417v0.25l-0.35,0.2l-0.083,0.6l-1.034,1.301v0.8l-2.001,0.35l-0.5,0.45
	l-0.65,0.117l-1.401,1.234h-1.367l-0.4,0.167l-2.301-0.717l-1.234-0.1l-0.884,0.967l-1.484,0.2h-0.167l-0.384,0.283l-1.101,0.95
	l-1.667,0.283l-0.217,0.217l-1.451-0.233l-0.45,0.484l-0.484,1.267l-1.117,0.283l-2.034,1.101l-0.367,0.584l-1.051,0.55l-0.333,0.5
	l-1.017,0.7l-0.784,0.333l-0.734-0.15l2.218,5.603l-0.784,0.55l-0.484,0.95l-2.134,0.267l-0.9,0.8h-0.367h-0.534l-0.5-0.417
	l-0.967,0.3l-0.567-0.1l-0.934,0.867l-0.617,0.217l-0.784,0.967l-0.384,1l-0.7,0.65l-0.167,0.384l-0.967,0.367l-1.101,0.117
	l-0.784-0.2h-1v0.75l-0.984,0.484l-0.8,0.85l-0.467,0.117l-0.367,0.5l-0.55,0.217l-0.233,0.667v0.7l-0.834,0.434l-1.151,0.1h-0.15
	v0.417l-0.684,0.083h-0.083l-0.467-0.317l-0.934,0.3l-0.85-0.767l-1.134,0.417l-1.184-1.034l-1.051,0.517l-1.434,0.35l-0.333-0.817
	l-0.434-0.25l0.1-0.384l-0.1-0.233l-0.834-0.3l-0.767,0.117l0.2-0.667l-0.2-0.584v-0.584l-0.55-0.6l0.267-0.267v-0.567l-0.75-0.734
	l-1.101-0.333l-0.667-0.75v-0.684v-0.2l-2.134,0.367l-0.117,0.1l-0.283,0.834l-0.634,0.717l0.267,1.101l-0.117,1.201l0.317,0.834
	l-0.3,0.7l-0.634-0.133l-0.834,0.367h-2.151l-1.401,0.7l-1.667,0.133l-0.3-0.117l-0.9,0.45l-0.25,1.134l-0.467,0.45l-0.817,0.25
	l-0.5,0.484l0.717,0.367l-0.167,0.95v0.267l-0.45,0.25l-0.183,0.434l-1.351,1.434v0.634l0.367,0.534l0.133,1.067l0.167,0.183
	l-3.018,2.751l-0.233,0.484l-0.467,0.4l-0.7,0.4l-1.101,0.283l-1.484,1.117l-0.217,0.534l0.167,0.717l0.3,0.333v0.5l0.467,0.584
	l0.684,0.417l0.4,0.767l1.434-0.35l1.201,0.217l0.567,0.75l-0.283,0.4l0.183,0.65l-0.167,0.784l-0.617,0.5l-0.584,1.151l-0.5,0.517
	v1.017l-0.75,0.6l-0.9,1.417v0.484l1.484,2.318l-0.684,1.301v0.517l1.451,0.217h0.167l0.5,0.317v0.15l-0.35,0.617l0.1,1.367
	l-0.083,0.183h-0.384l-0.117,0.8v1.234l-0.367,0.467v0.534l-0.333,0.167l-0.4,0.834l-0.784,0.35l-0.384,0.684l-0.8,0.734
	l-0.834-0.317l-0.667,0.333l-0.15,0.15v0.75l-0.567,0.217v0.917l-1.451,0.9v0.4l0.617,2.268l0.333,0.634l0.5,0.467l-0.2,0.867
	l0.25,0.467v0.884l0.917,1.884v0.784l-0.25,0.467l0.167,1.451l-1.017,1.567l0.283,0.584l-0.233,0.233l0.35,0.55l-0.133,0.317
	l0.617,0.384l0.217,0.567l-0.534,0.584v0.417l0.584,0.9l-0.1,0.45l-0.817,0.584l-0.567,1.051v0.717l-0.15,0.567l0.517,1.117v1.667
	l-0.283,1.267l-0.283,0.4l-0.283,3.335l-0.333,0.333l0.517,1.501l-0.117,1.134l0.35,1.034l-0.183,0.734v0.283l1.234,0.367l0.2,0.6
	l0.55,0.617l-0.35,0.417l0.167,0.417l-0.117,0.55l0.2,1.017l-0.817,0.717v0.867l-0.183,0.6l0.183,0.484l0.967,1.217v0.534
	l-0.35,0.717v0.35l-0.3,0.317l2.151,1.851l0.133,0.15l0.6,1.251v2.651l-0.2,0.283v0.317l1.667,1.667v0.3l0.5,0.884l0.517,1.667
	v0.267v1.434l-0.317,1.101l-1.001,0.3l-0.784,0.584l-0.85-0.15l-1.667,0.35l-0.25,0.2l-0.267,0.684l-0.567,0.367h-0.117
	l-1.067-0.534h-0.117l-0.467-0.434l-0.467-0.484l0.333-0.417l-0.05-0.167l-1.367-0.584l-0.55,0.25l-0.634-0.1v-0.467l0.55-0.767
	l-0.2-0.584l-0.283-0.283h-0.684l-0.25-0.817l-0.567-0.35l-0.417,0.15l-0.1,0.617l-0.267,0.233l-0.817,0.183l-0.35-0.133
	l-0.25,0.884h-1.667l-1.851-0.667l-0.35,0.2l-0.233,0.884l-0.884,0.85l-0.95,0.15l-0.367,0.333v0.317l-0.35,0.15l-0.117,0.617
	l-0.4,0.4l0.25,1.667v0.384l1,0.484l-0.817,0.75l1.017,1.117l0.1,0.6l-0.467,1.667l-0.417,0.534l0.283,0.667v1.501l-0.65,0.934
	v0.817l1.067,0.517l-0.367,0.884l1.801,0.667l0.75,0.567l0.183,0.6l0.5,0.1l0.534,0.4l1.667-0.917l0.384,0.15l0.467,0.517l0.7-0.167
	l0.617,0.333l0.367,0.35l0.434,1.251h0.784l0.85,0.867l0.5,0.083l0.734,0.45l0.317-0.15l0.434,0.183l0.45,1.117l0.434,0.267
	l0.317,0.484v1.134l0.217,0.283l-0.934,0.517l-0.85,0.817l-1.301,2.134l-0.917,0.6l-1.051,1.251h-0.734l-0.567,0.75l-0.35,1.201
	l-0.4,0.6l0.133,0.367l-0.133,0.367l-1.067,0.9l-0.6,0.083l-0.684,0.767l0.367,1.001l-0.217,1.667l-0.5,0.717l-1.351,1.017
	l-2.318,0.9h-1.317l-0.183,0.333l-1.117,0.617v0.484l0.9,0.1l0.584,0.333l0.45,0.634l-0.15,0.95l0.567,0.183l0.267,0.434
	l0.333,0.167l-0.183,0.384l0.1,0.517l0.133,0l0.183,0.9l0.384,0.15l0.083,0.45l0.233,0.2l0.233,1.017l1.017-0.333h1.351l1,0.784
	l0.1,0.734l-0.317,1.001l0.217,0.133v0.834l0.233,0.233v0.584l0.317,0.484l0.6,0.4v0.4l0.834,0.434l0.333,0.434h0.317l-0.167,0.584
	l-0.567,0.584l-0.167,1.117l0.417,0.7l-0.167,0.717l0.5,0.5l-0.083,0.767l0.233,0.4l0.083,1.034l-0.233,0.417l-0.367,3.051l0.45,0.9
	l-0.85,0.85l-0.65,0.233v0.534l-0.434,0.7l-0.117,1.417l-1,1.267v0.634l0.283,0.767v0.834l-0.534,0.317l-0.734,1.201l0.283,0.634
	l0.217,1.301l-0.317,0.217v0.25l-0.183,0.267l-0.617,0.834l-0.467,0.333l-0.1,0.317v0.133l-0.167,0.117l-0.2,0.1h-0.233l-0.65-0.167
	h-0.817l-1.117-0.183l-0.117,0.55l-0.55,0.567l-0.167,1.167l0.45,1.551l-1.401-0.167l-0.5,0.2l-0.4,0.484l-1.301,0.233l-0.434,0.834
	v0.584l-0.884,1.667l-0.35,0.25l-0.484,1.451l-1.567,0.5l-1.501,1.017l-0.85,0.1l-1.284-0.25l-0.717,2.018v0.767l0.417,0.5v0.35
	l2.301,1.801l0.133,0.45l-0.233,0.333v0.917l0.384,1.217l-0.183,0.567l-0.35,0.384l-0.233,2.935l-0.283,0.283l-1.067-0.283
	l-0.734,0.567l-0.45,0.117l-0.333,0.4v0.367l-0.35,0.834h-0.45l0.7,0.817l-0.2,0.667l0.117,1.234l-0.25,0.1l-0.667-0.217
	l-0.517,0.917l-0.834,0.767v0.784l-0.133,0.567l0.45,0.434l0.35,1.034l0.3,0.317l0.133,0.817l0.817,0.5l0.367,0.7l-0.667,0.55
	h-1.067l-0.734,0.6l-0.133,0.3l-0.767,0.2l-0.45,0.317l-0.15,0.467l-0.5,0.5h-0.333l-0.834,0.75l-0.283,0.283h-0.1l-1.451,0.517
	l-0.484,1.301l-0.417,0.217l-0.434,0.634h-0.333l-0.2,1.151l-0.434,0.35l-0.2,0.767l-0.283,0.367l0.2,0.734h0.283l0.3,0.567
	l0.417,0.317l0.117,0.15l0.584,1.084l0.15,0.834v0.15v0.3l-0.133,0.817l-0.417,0.867l0.25,0.617l-0.367,0.817l-0.15,0.133
	l-0.283,0.484l-0.15,0.5l-0.267,0.2l-0.133-0.25l-0.45-0.25l-0.384,0.55l-1.184-0.2l-1.667,0.834l-0.45,0.117l-0.384-0.233
	l-0.167,1.101l0.267,0.534l0.884,0.333l-0.233,0.767l0.417,0.484l-1.151,1l-0.1,0.133v0.384l-0.233,0.25l-0.3,0.9h-0.3l-0.283,0.817
	l0.65,0.517l0.367,0.167l0.634,0.717l0.934,0.2l0.2,0.333h0.684l0.367-0.384l1-0.133l0.817,0.734v0.367l0.167,0.083l-0.283,0.7
	l0.1,0.534l-0.233,0.484l0.15,0.584l-0.567,0.584l-0.133,0.834h0.2l0.217,0.55h0.317l0.6,0.584l0.183,0.634l0.617,0.133l0.667,0.634
	l0.934,0.2l-0.634,2.001l-0.35,0.3l0.133,0.267v0.7l0.917,0.85l0.667-0.25l0.967,0.55h0.684l0.133,0.283v0.617l0.367,0.133
	l0.167,0.3v0.3l0.183,0.85h0.317l0.267,1.251l-1.217,0.384h-1.151l0.083,0.317l-0.267,0.634l0.1,0.417l-0.15,0.5l-0.767,0.567v0.417
	l-0.367,0.717v0.6l0.55,0.233l0.45,0.7l-0.233,0.75l-0.65,0.967v1.301l0.517-0.167h1.317l0.45-0.534l0.3,0.534l0.567,0.45l0.1,0.4
	l0.517,0.317l0.267-0.233h0.55l0.2,0.217l0.4-0.183l0.333,0.65v0.867l-0.467,0.4l0.317,1.417l-0.183,0.784l0.15,0.5l-0.2,0.634
	l0.317,0.3v1.167l0.417,0.183h0.734l0.267,0.467h0.767v0.267l1.117,0.817h0.767l0.55,0.817l1.017,0.584h0.484l0.333-0.367h0.75
	v0.517l0.417,0.567v0.25l0.6,0.367l0.283,0.567l0.4,0.133l0.517-0.117l0.267,0.317l0.484,0.133l0.3,0.567l0.584-0.384l0.333,0.984
	l0.45,0.684l0.784,0.7l0.233,0.7l0.9,0.45l1.667,0.434l-0.584,1.201l0.117,0.25v0.75l0.267,0.584v0.5l-0.617,0.417l-1.667,0.534
	h-1.501l-0.2,1.117l-0.65,0.233l-0.117,0.767l-0.617,0.784l0.8,1.301l0.2,1.051l-0.25,0.484v0.834l-0.35,0.617l0.934,0.717
	l0.4,0.534l1.667-0.367l0.467,0.784l0.867,0.3l0.834,0.634h0.117l1.834-0.384l0.667,0.617l0.384,0.617l0.817,0.65l0.5,0.817v0.6
	l-1.034,0.534l-0.8,0.35l-0.734-0.417l-0.784,0.7l-0.9,0.4l-0.5,1.667l-0.55,0.384l-0.834-0.417l-0.3-0.467l-0.967,0.2l-0.567,1.351
	l-0.183,1.034l-1.117,1.234l0.133,0.2l-0.15,0.55l-1.284,1.667l-0.117,0.75h-0.667l-0.717,0.317l-0.7,0.6l-0.167,0.65l0.5,1.417
	h1.451v-0.217l0.584,1.117l1.484,0.9l0.534,0.667l-0.75,1.101l-1.384,0.55h-1.017l0.1,0.967l-0.2,0.45l0.1,0.3h0.45l0.8,0.384v0.684
	l0.333,0.233l-0.283,0.5v0.2l-0.317,0.1l-0.384,0.8l-0.183,0.95l-0.467,0.7v0.4l0.25,0.567l-0.283,0.517l-0.567,0.333l-0.117,1.301
	l1.267,0.233l0.1,0.567l0.667,0.367l0.267,0.417l0.734-0.133l0.333,0.417l0.517,0.2h0.8l0.934-0.834l0.834,0.167l0.283,0.684
	l1.667,0.25l0.7,0.317l0.784-0.133l0.5,0.283v-0.333h0.467l-0.35,1.101h0.384l0.333,0.467v0.417l-0.233,0.317l0.117,0.634
	l-0.884,0.95v0.8l0.55,0.6l0.617,0.267l0.8-0.083l0.384,0.217l-1.217,1.251l0.1,0.267l-0.3,0.434l-0.65,0.283v0.617l-0.3,0.35v0.467
	l-1.284,0.7l0.567,1.667l-0.634,0.967v0.283l0.35,0.317v0.333l-0.534,0.4l-0.534,1.201l-1.034,0.634l-0.183,0.5l-0.3,0.9
	l-0.767,0.534v0.567l-0.367,1.267l-0.984,0.834l-1.201,0.484l-0.1,0.7l-0.934,0.217l0.15,0.217v0.817l0.567,0.25l0.133,0.267
	l-0.15,0.784l-0.734,0.7l0.217,0.584v0.5l0.934,0.967l0.3,1.667l0.65,0.8l0.367,0.784v0.45l-0.567,0.667v0.734l0.65,1.017
	l-0.283,0.634l0.65-0.25l1.151,0.233l1.934-1.001l0.7-0.634l1.117,0.317l0.35,0.3l0.984-0.417h0.984l0.35-0.367l0.6,0.117h2.334
	l1.901,1.501l0.967,0.317l0.183,0.784l0.617,1.284l1.667,0.8l1.434,1.167l2.118,0.567l0.384,0.534l0.567,0.317l0.834,0.917
	l0.317,0.85l0.884,0.567h0.667v0.484l0.867,0.25l0.367-0.567l1.667,0.484l1.834-0.55l0.617,0.183l0.233,0.3h0.85l0.534,0.684
	l-0.1,0.3l0.267,0.484l-0.15,0.467h0.484l-0.117,1l1.284,0.167l0.4,0.534v-1.117l0.467-0.684l0.45-0.183l1.067,0.267l-0.15,0.7
	l0.283,0.45h0.45l0.083,0.334l0.384,0.117h0.384l0.434-0.367l0.85,0.384l0.267,0.434l-0.1,0.35l0.584,0.55l0.517-0.283l0.35,0.467
	l0.767-0.117l0.734,0.467l0.434,0.534l0.35,0.117l0.1,1h0.617l0.3,0.267l0.117,0.934l0.667,0.767h0.283v0.534l0.35,0.684
	l-0.434,0.734l0.917,0.25l0.133,0.334l0.534,0.2v0.384l0.55,0.083l0.117,0.6l0.817,0.417l-0.434,0.317l0.65,1l1.034,0.25
	l0.817-0.684l0.267-0.934l0.217-0.15h0.617l0.45-0.267l0.283,0.1l0.534,0.7h0.267l0.45-0.6l0.45-0.2l0.333,0.25h0.35l0.934-0.917
	l0.884-0.484h0.183v0.684l-0.117,0.133l0.35,0.617h0.267l0.3-0.6l1-0.15l0.417,0.75l0.25,0.117l0.083,0.4l-0.117,0.3l0.45,0.2
	l0.183-0.117l0.317,0.25l0.717-0.183l0.717,0.25l0.567-0.684l-0.117-0.183v-0.117l0.367-0.317h0.283l0.7-0.65l0.417,0.434
	l0.867-0.117l0.817-0.5l1.667,0.717l0.517-0.183l0.767,0.7l0.984-0.517h0.417l0.15-0.384l0.7-0.317h0.817l0.65-1.101l0.367-0.117
	l1.167,0.867h0.884v1.134l1.084,0.9l0.584-0.317l0.884,0.167l0.15-0.3h0.333l0.133-0.384h0.317l0.15,0.183l1.101-0.133l0.3,0.283
	h0.95l1.334,0.717l0.934-0.15l0.467,1.084l0.25,0.317l0.1,0.534l0.55,0.317l-0.1,1.334v0.4l0.183,0.1l0.083,0.834l-0.3,0.467
	l0.2,0.584l-1.484,1.534l-0.417,0.884l-1.184,0.667l-0.534,0.867v0.617l-1.051,0.834l-0.484,0.284l-0.584,0.25l-0.85-0.25
	l-0.767-0.584l-0.834,0.217l-0.7-0.167l-0.3,0.167v0.667l-0.283,0.467l-0.133,0.75l0.167,0.65h0.333l-0.233,0.5l0.267,1.101
	l0.317-0.534l0.467-0.183l1.667,0.75l0.367-0.65l0.55-0.334h0.167l0.584,0.233l0.5,1.017l-0.467,0.634v0.834l1.034,0.167l0.4,0.917
	h1.217l0.4-0.35l0.534-0.1l0.567,0.634l-0.317,1.034l-0.083,3.602l-0.417,1.367l0.75,0.934l0.967,0.65v0.183h0.4v-0.45h0.634
	l0.5,0.517l0.9,0.367h0.4l0.367,0.334l0.634-0.15l0.834,0.917v0.367h0.233l0.2-0.083l0.283-0.367l0.5,0.2l0.133-0.784h0.5
	l0.684-0.317l0.384-0.667l1.234,1.351l1.201,0.684l0.834,0.1l0.35,0.367l0.117,0.467l0.684,0.684l0.45,0.384l0.717,0.167l0.267,0.7
	v1.384l0.267,0.267l-0.267,0.734v0.484l0.417,0.75l0.45,0.117l0.45,0.517l0.567,0.95L228.92,496l0.75-0.384v-0.8l-1.667,0.15v-0.3
	l1.401-1.017h0.267v0.25l1.117-0.133v-0.584l1.434-0.15v-0.584l1.151-0.117l0.317,0.35l0.55-0.417l0.183-0.25l-0.384-1.317v-1.134
	l0.5-0.934v-0.634l1.134-1.167l-0.117-0.284l0.15-1.301l-0.1-0.4l0.317-0.233l0.6,0.25l0.4-0.267v-1.384l0.384-0.284l0.417-0.8
	l0.567,0.284v0.467l0.717,0.133l0.517,0.367l0.434-0.35v-0.384l0.65-0.717l1.184,0.417l0.367-0.083l0.167,0.3l1.067,0.55h1.551
	l0.083-0.2l-0.183-0.934l-0.45-0.35l0.133-0.217v-0.2l0.283-0.434l-0.267-0.434l0.133-0.434l0.934-1.084l-0.217-0.517l0.267-0.233
	v-1.401l-0.217-0.85l0.517-0.384v-0.417h1.067l0.534-0.3h0.15l0.15,0.267l0.634,1.051l0.7,0.384l0.133,0.45l0.884,0.333l0.85,0.65
	v0.684l0.283,0.233l0.167,0.5h0.6l0.317,0.233l0.584-0.083l0.117-0.2l-0.117-0.434h0.717l0.767-0.35l-0.183-0.617h0.634l0.634,0.467
	h0.767l0.133,0.1v0.467l0.517,0.217h0.55l0.35-0.267l0.567,0.417l0.584,0.117l0.233,0.917l0.634,0.484l0.834,1.751h0.283
	l0.717-0.717l0.734-0.384h0.333l0.317,0.45l0.85-0.45l0.4,0.434l0.417,0.85l0.15,0.834l-0.333,0.484v0.15l1.968,0.45l1.117,0.8
	l0.3-0.217h0.6l-0.133,0.467h0.3v1.384l-0.634,1.301l-0.584,0.584l0.1,0.317v0.284v0.2l-0.25,0.434l0.083,0.2l0.867-0.083
	l0.967-0.767h0.75l0.467-0.233v-0.8l-0.4-0.917l0.117-0.55l0.8-0.434h0.967v-0.4l0.267-0.283l0.884,0.217l0.2-0.2l0.45,0.284
	l0.35-0.8v-0.2l-0.233-0.35l-0.634,0.1l-0.734-1.384l0.167-0.284l-0.083-0.434l0.3-0.5l-0.1-0.417l0.667-1.067l-0.1-1.117
	l-0.65-0.55l-0.434,0.283l-0.45-1.134l0.534-0.45l0.2,0.284h0.35l0.75-0.5l0.7,0.434l1.217,0.233l1.067-0.4l0.667,0.267l0.95-0.867
	l0.083-0.367l-1-0.317l-0.333-0.617l0.35-1.017l-0.584-1.667v-0.917l-0.4-0.384l-0.083-1.351l1.034-2.785l0.6-0.8l1.434-0.834
	l0.5-1.034l-0.434-0.45l-1.884-0.567l-0.667-0.617l0.3-0.85l-0.267-0.35l-0.384-1.267l-0.1-1.184l0.65-0.967l1.034-0.6l0.55-0.717
	l1.117-0.534l0.267-0.784l-0.417-0.85l0.217-0.767l0.9-0.283l0.484-0.734l1.151-0.617l0.5-0.6l0.617-0.2l0.417-0.6l0.9-0.684
	l0.267-1.084l0.317-0.55v-0.55l-0.617-0.75l0.45-0.567l0.15-0.617l-0.5-0.667v-0.384l-0.617-1.368l-0.2-0.617l0.133-0.233
	l-0.133-0.734l1.101-2.318l0.183-1.367l-0.333-0.4l0.85-1.467l-0.834-0.534l-0.2-0.917l0.2-0.617l-0.333-1.667v-0.233l-0.434-0.517
	l-0.3-1.367l-0.384-0.534l0.434-1.184l-0.317-0.867l0.484-0.85l-0.1-0.517l0.233-0.233l0.083-0.8l0.333-0.284l0.267-0.817
	l0.55-0.384l1.267,0.117l0.917-0.467l0.934,0.1l0.384-0.817h0.133h0.35l1.667,0.3l-0.384,0.884l1.451,1.934l3.018-1.167l0.834,0.167
	l0.467-0.267l0.283,0.133l0.85-0.317l1.167,0.417l0.817-0.283l0.717,0.55l1.501-0.617l0.384,0.317l0.517,1.067l0.75,1.051
	l1.251,0.133l0.7-0.534h0.784l1.167,0.5l2.051,0.167l0.584,0.233h0.183l1.534,1.551l0.15,0.117l0.934,0.634l0.5,0.767l0.534,0.35
	l0.167,0.083l1.284,0.584h0.233l0.6-0.083v-0.334l0.367-0.217v-0.35l-0.65-0.367v-0.217l-0.467-0.167l-0.183-0.3v-0.317
	l-0.117-0.684h-0.367v-0.384l0.117-0.3v-0.15l-0.15-0.267l0.567-0.7h0.317l-0.217-0.284h0.1l0.2-0.1v-0.133l-0.167-0.167h0.133
	v-0.167v-0.217l-0.5,0.183v0.2h-0.217l-0.45-0.267h0.217l-0.117-0.267h-0.217l-0.183-0.317l1.351-0.35l-0.967-1.251l0.333-0.317
	l0.717-0.617l2.218-0.934l1.367-0.133h0.167v0.3h0.6h0.233l-0.283-0.267l1.768,0.133v0.183l0.4,0.083v-0.117l0.35,0.233
	l-0.384,0.333l0.183,0.2l-0.333,0.5l0.1,0.183l0.467-0.133l0.15-0.4h0.283l0.65-0.834l0.233-0.1l0.317-0.1l0.8,0.3l1.101,0.75
	l0.384,0.5l0.183,0.217v0.167l0.267-0.133l0.667,0.484h-0.133l1,0.317h-0.75l-0.317,0.183l0.15,0.434h-0.4l0.183,0.133h-0.35v-0.217
	l-0.4,0.467h-0.934l-0.45,1.084l-0.484,0.1v-0.25l-0.417,0.3l-0.133,0.65l0.35,0.567l-0.15,0.484h-0.183l-0.25,0.384l0.467,0.3
	l0.233,0.617l-0.267,0.367l0.15,0.55l0.434-0.233l0.384,0.317v0.434l1.184,0.367v0.217l-0.534,0.017l-0.133,0.417l1.517-0.117
	l0.484,0.333v0.3v0.267h0.1l0.8,0.333v0.384l-0.333,0.317h0.167v0.3l-0.384,0.15l0.4,0.133l0.1,0.283v0.233l-0.183,0.1l0.117,0.083
	l-0.1,0.117h-0.333l0.1,0.233v0.117l0.233-0.133l0.2,0.167h0.217l0.35,0.1l-0.133,0.684h0.267v0.267l-0.534,0.467h-0.267v0.784
	l0.133,0.167h0.217v0.183l0.267,0.167h0.2l0.15-0.117v-0.133l0.434-0.267h0.3l0.15,0.2l0.417,0.567l-0.617,0.434h0.133v0.167h0.217
	l-0.217,0.3h0.167l0.767-0.133l0.25,0.317l-0.3,0.167l-0.183,0.15v0.217h0.267h0.584h0.117h0.167h0.15l-0.117-0.117h0.267v-0.284
	l0.35-0.183h-0.35v-0.3l-0.517-0.233l0.117-0.534l0.5,0.083l0.834-0.133v-0.167l0.183,0.133v-0.2h0.534l0.167-0.15l-0.25-0.217
	v-0.217l0.434,0.083l-0.517-0.584l-0.267-0.1v-0.233l0.5-0.217h0.183l0.233,0.15l0.317-0.117v-0.117l0.267-0.15l0.367-0.083
	l0.384,0.534l0.233,0.133l0.183-0.484h0.267v-0.167v0.2l0.2,0.1l0.283-0.133l0.083-0.117l-0.55-0.317l0.217-0.183h-0.217
	l0.183-0.083h0.117l0.15-0.167v-0.15h-0.167h-0.233h-0.167v-0.2h-0.15l-0.2-0.2l0.2-0.25v0.267l0.117-0.233v-0.517h-0.133
	l-0.283-0.133l0.2-0.317l-0.133-0.183l0.167-0.133l-0.117-0.15l-0.25-0.167l-0.384-0.317h-0.167v0.2l-0.417-0.117l0.1-0.284
	l-0.283-0.183l0.233-0.133l-0.2-0.117l-0.117-0.15l-0.117,0.2l-0.333-0.133l-0.183-0.15l-0.167-0.167l-0.133,0.2h-0.15h-0.1h-0.117
	h-0.217h-0.4l-0.283,0.183l0.1,0.4h-0.7v0.467l-0.517,0.617l0.117-0.317l-0.267-0.434l-0.45-0.15l0.133-0.367l-0.333-0.15
	l-0.333-0.7v-0.517l0.5-0.183h-0.233l0.1-0.183l-0.167-0.15l0.317-0.2v-0.517h0.3v0.167l0.367,0.083v-0.167l-0.183-0.117
	l0.233-0.267h0.233l0.267,0.317l-0.133-0.3l0.183-0.15h0.8h0.333l-0.267-0.25h0.167l-0.15-0.3v-0.284l-0.133-0.484l0.217-0.233
	v-0.25l-0.15-0.2l0.467,0.267v0.284l0.333,0.117l0.117-0.133l0.183,0.233l0.283,0.4l0.1,0.1l0.45-0.367h-0.167l-0.1-0.3l0.117-0.133
	l-0.1-0.083l-0.217-0.083l-0.15-0.1h-0.167v-0.283v-0.3l0.1-0.233v-0.25l-0.133-0.083v-0.3l-0.3-0.167l0.167-0.317l-0.484-0.4
	v-0.317v-0.133v-0.35l0.25-0.233l0.934-0.2v0.434h0.45l0.6,0.183v0.25l0.367,0.6l0.15,0.467l-0.1,0.384h-0.2v0.067l0.083-0.133
	h0.267l0.15-0.35l0.55,0.133v-0.217h0.133v-0.15l0.167-0.183l0.233,0.25l-0.217,0.2l0.283,0.217l0.233-0.117l-0.117-0.1l0.133-0.167
	l0.283,0.1h0.117v0.25l0.15,0.3l0.317-0.167l0.1,0.167h0.15l0.183-0.15l0.117,0.083v-0.233h0.233l0.1,0.117l0.317,0.35h0.15v0.317
	l0.217,0.2l0.183-0.7h0.233l-0.1-0.534h0.2v-0.317v-0.417h-0.133l-0.2-0.233v-0.183h-0.15l0.15-0.083l-0.167-0.1l0.417-0.25
	l0.117-0.2v-0.183l-0.2-0.083h-0.233h-0.15l0.15-0.384l-0.133-0.083l-0.517-0.2l-0.183-0.15l0.1-0.217l-0.233,0.2v-0.367l0.117-0.65
	v-0.2l-0.15,0.083l-0.2-0.1l-0.3-0.617l0.133-0.167l-0.2-0.083l-0.117-0.117l-0.083-0.083l-0.15-0.2v-0.334h-0.167l-0.167-0.167
	v-0.183v-1.067v0.233h-0.384l-0.3,0.133l-0.2-0.167v-0.4h-0.217h-0.133v-0.15l-0.233-0.317l-0.267-0.217l-0.117-0.2h-0.233
	l-0.434,0.384l0.417,0.284l-0.183,0.367v0.367l-0.534,0.45l0.417-0.534v-0.45l-0.5-0.3v-0.35v-0.2l-0.217-0.15v0.183l-0.35,0.217
	v0.85h-0.117l-0.217-0.567l0.384-0.917l-0.534-0.434l-0.35-0.233l-0.2,0.133l-0.467-0.517l0.1-0.417l0.267-0.133l0.1-0.167
	l0.167-0.133l0.1-0.317l0.35-0.117v-0.367v-0.167l0.2-0.15l0.167-0.15l0.133-0.6l1.051-0.584l0.2-0.4h-0.1l0.2-0.25l0.317-0.667
	l-0.15-1.367l-0.1-0.567l-0.25-0.384l-0.117-0.8h0.25v-0.45l-0.283-0.133v-0.283v-0.333l0.4-0.117l0.35-1.534l-0.333-0.4
	l-0.617-0.767l0.183-0.183l0.517,0.584l0.717-0.7l-0.333-0.384l0.6-0.8l0.534,0.367l0.1,0.283h0.133l0.15,0.333l0.1,0.317l0.4,0.484
	h0.384v0.3h0.317l-0.117,0.434h-0.133l-0.333,1.284l-0.317-0.1l-0.2,0.717l0.417,0.1l-0.4,0.267v0.267l0.217,0.617h0.267
	l0.667-1.034h0.233v0.384l0.233,0.117v0.534l-0.584,0.45h-0.484v0.217l0.217,0.167l-0.75,0.65l0.133,0.75l0.317-0.283l0.217,0.934
	l0.434,0.584v0.167l-0.333-0.133l-0.117,0.333h0.25l0.133,0.283l-0.283,0.333l-0.217-0.167l-0.3,0.217h-0.367l-0.4,0.517v0.25h0.5
	l0.267-0.384h0.133v0.384l0.584-0.183l0.1,0.1l-0.117,0.167l0.217,0.35l-0.15,0.217l-0.667-0.2l-0.217,0.317h-0.267v0.25l-0.25,0.2
	h-0.767v0.3l0.1,0.4l0.117,0.317l0.534,0.384l0.183,0.083l0.133,0.083v0.317v-0.4h0.283l0.2,0.15l0.2-0.217l0.434,0.3l0.15-0.083
	v-0.133l0.2,0.183l0.133-0.183h0.183l0.1-0.417l0.6-0.133l0.183,0.167l0.167,0.217v0.15h0.183v0.167v0.133l0.2,0.133v0.283v0.117
	l0.233,0.083l0.167,0.083v-0.384h0.884l0.133,0.117l-0.25,0.083h0.183l-0.1,0.267h0.25h0.133l0.15-0.15l0.1-0.117l0.367,0.133
	l0.317,0.467v-0.384l0.567-0.133h-0.384v-0.15h0.5l0.183-0.183l0.267-0.65h-0.35v-0.133l-0.15-0.25l0.133-0.1h0.283v-0.283v-0.284
	h0.233v-0.233l-0.133-0.267h0.25h0.167l-0.1-0.233l-0.117-0.15l0.217-0.434l0.3,0.317l0.2,0.167v-0.2l-0.1-0.283v-0.233v-0.167
	v-0.15h0.317l-0.3-0.133l0.117-0.133l0.2-0.1l0.333,0.233v0.217h0.15h0.133v0.267l0.2,0.15l0.2,0.283l0.267,0.267h0.167l0.167,0.333
	h0.183h0.25l0.217,0.133l0.133,0.117v-0.133v-0.15h0.183l0.117,0.217l0.083-0.15v-0.183h0.167v-0.217l-0.183-0.2l0.183-0.117v-0.15
	l0.117-0.434h0.317h0.167l0.1-0.117v-0.333h0.167h0.3v0.283h0.15v-0.183l0.183-0.7v-0.167l0.083-0.4h0.45l0.15-0.667h-0.267
	l0.467-0.217l0.183-0.384l0.133,0.15l0.35,0.45l-0.217,0.517h-0.233l0.35,0.317l-0.417,0.667l-0.2,0.384v0.233l0.1,0.167
	l-0.267,0.317l-0.117,0.167v0.217v0.217v0.167h0.217v0.567l0.2,0.133v0.2h0.183v0.183l0.183,0.133v-0.25h0.15l0.2,0.183v0.2h0.25
	v0.2h0.15h0.183l0.15-0.484h0.117h0.3v-0.15l0.3-0.217l0.484,0.35h0.133v-0.133h0.217l0.283,0.267h0.1l0.367,0.384l0.1,0.083
	l0.117-0.1l0.167-0.15v0.267l0.35-0.384v0.517l0.15,0.117v-0.217l0.083,0.267l0.333-0.55l0.1,0.1h0.117l0.083-0.133v-0.4h0.283h0.15
	l0.133-0.133l0.167-0.284l0.35,0.317l0.133,0.1l0.25-0.15v0.233h0.684v0.15h0.45h0.183h0.25h0.117l0.634-0.167l-0.15-0.1l0.2-0.117
	l0.233,0.117l0.217,0.1l0.267-0.4l0.267,0.167h0.467h0.183h0.233h0.133l0.25-0.167l0.15-0.117h-0.15l0.117-0.133l-0.1-0.15h0.417
	h0.283l0.117-0.2h-0.4l0.133-0.167l-0.283-0.167h-0.167l0.367-0.25h-0.283l0.183-0.217l-0.183-0.1l0.167-0.083h-0.233l-0.167-0.534
	h-0.167l0.333-0.35l-0.167-0.15h-0.1l-0.183-0.133l-0.15-0.1h-0.2h-0.3v-0.233h-0.233l0.167-0.233l-0.35,0.167l0.1-0.333
	l-0.167,0.217v-0.367l-0.2,0.283l-0.283-0.133h-0.183v-0.333h-0.267h-0.167v-0.267v0.217l-0.233-0.267l-0.117-0.1h-0.233h-0.117
	l-0.183,0.133l0.1-0.35l-0.233-0.1l-0.117,0.117v-0.2l-0.517-0.2l-0.417,0.083l0.1-0.15h-0.4l0.133-0.167h-0.517l-0.117-0.15h-0.183
	l0.083-0.233l-0.467-0.083l-0.25-0.317h-0.3h-0.2l-0.117-0.2l-0.25-0.567l0.167-0.15l0.117-0.35v-0.333v0.183h-0.217l-0.15-0.3
	l-0.267,0.15v-0.95l0.217-0.25h0.15h0.417h0.2v-0.233h0.217l0.333,0.083h0.483l0.133,0.183l0.133,0.133l0.367-0.1h0.167v-0.25h0.1
	v-0.117l0.267,0.317h0.517h0.183v-0.3h0.467l0.167-0.317l0.233,0.117l0.634-0.283l0.4,0.183h0.133h0.133l0.3,0.133h0.183h0.484h0.15
	h0.167v0.15h0.35l0.5,0.384l-0.133-0.3h0.217l0.434,0.1l0.1-0.133h-0.167l0.133-0.183l0.217,0.2l0.133-0.384l0.3,0.183v-0.167h-0.2
	l0.1-0.083l0.567-0.2l0.267-0.133l0.233,0.55l0.25-0.2v-0.25h0.2v0.217l0.267-0.167l0.133,0.233l-0.133,0.35l0.95-0.55l-0.233-0.117
	v-0.15l0.467-0.4l0.1,0.1l0.384,0.117l0.7-0.3l0.267-0.384l-0.45,0.083v-0.133l-0.45-0.25l0.15-0.217l0.15-0.317h-0.167v-0.217
	l0.133-0.167h-0.267v-0.2v-0.283h-0.233v-0.3h-0.15h-0.35l-0.5,0.484l-0.333-0.25l-0.2,0.2l-0.15-0.217l-0.283,0.3v-0.283
	l-0.35-0.083l-0.167,0.15v0.133l-0.283-0.083v-0.25l-0.2,0.133l-0.2-0.1v-0.367h-1.667l-0.934-0.834l-0.384,0.15l-0.267-0.117
	l-0.484,0.333l0.367-0.15v0.25l-0.167,0.15l-0.333-0.117v0.217h-0.167l-0.367-0.2l-0.35,0.384l-0.25-0.534h-0.167v-0.183v0.15h-1
	l-0.634,0.233l-0.417-0.167l-0.117-0.267l-0.25-0.083l-0.117-0.283l0.15-0.083l0.2-0.267l-0.1-0.183l-0.267-0.3v-0.283l-0.083-0.25
	l-0.117-0.15h0.183h0.133l0.1-0.117l0.3-0.167v-0.183l0.217-0.233l-0.15-0.083l0.133-0.1h-0.384l-0.417,0.3l-0.5-0.434l-0.6,0.367
	l-0.417-0.3l-0.35,0.133l-0.167-0.584l-0.15,0.117l-0.117-0.167l-0.333-0.467v-0.517l0.2-0.333l0.834-0.233h0.2h0.117l0.167-0.083
	v-0.15l-0.133-0.133v-0.35l-0.267-0.333l-0.133-0.15l-0.217-0.15v-0.25l0.133-0.183l-0.75-0.55l0.2-0.183l0.117-0.133h0.233h0.167
	l0.4-0.3v-0.25l0.267-0.117l-0.167-0.15v-0.217l-0.3-0.167v0.333l-0.283-0.133l-0.15-0.25v-0.317h-0.2v-0.183l0.45-0.767v-0.267
	l0.25-0.267l0.233,0.15v-0.183h0.133l-0.15-0.233l0.7,0.467l0.767,0.083v0.3l-0.133,0.083h0.35l0.133,0.083h0.333l0.3,0.4
	l0.867,0.35l0.1,0.2v0.35l0.233,0.25l0.183,0.2h0.35l0.1,0.417h0.517h0.333l0.233,0.133l0.167,0.1h0.634h0.167h0.283l0.283-0.1
	h0.333h0.15l0.2,0.117l0.15,0.133l0.35-0.25l0.2-0.133h0.2h0.2l0.167,0.167h0.1l0.15-0.1h0.45l0.233,0.333l0.3-0.117l0.233,0.484
	l0.283,0.934v0.283l0.133,0.233l-0.15,0.2h0.217l0.434-0.083l0.367-0.117h0.233h0.2l0.217,0.117h0.167l0.283,0.15l0.1,0.2
	l0.117,0.117l0.267,0.1l0.133,0.384h0.217v0.233l0.3-0.167h0.25v0.434v0.167l0.133,0.167l-0.1,0.1v0.167l-0.133,0.367l0.2,0.267
	l-0.1,0.133v0.167l0.517,0.584v-0.233l0.2,0.117l0.217-0.25l-0.117-0.283h0.15v-0.133l-0.167-0.183l0.15-0.083l-0.15-0.283
	l0.117-0.15v-0.233h0.167h0.2h0.2l0.1-0.283l0.417,0.25l0.133,0.1h0.167h0.2v-0.183l-0.15-0.167h0.333l-0.167-0.083l0.133-0.1
	l-0.167-0.367l0.35-0.117h0.1l-0.167-0.167v-0.233l0.083-0.217l0.117-0.267h0.5h0.233h0.117l0.133-0.1l0.083-0.1h0.267l0.2-0.333
	h0.183h0.25v-0.267l0.117-0.367h0.133h0.2l0.15-0.117h0.233h0.167l0.217-0.2l0.133-0.133l0.784-0.117l0.45-0.65l0.35,0.3h0.2h0.317
	v-0.15l0.383,0.283v-0.217l0.317,0.117v-0.3h-0.35h-0.283l0.3-0.517l-0.634,0.167l-0.85-0.183v-0.517h-0.384l-0.3,0.25l-0.15-0.167
	l-0.1-0.217l0.1-0.2v-0.15l-0.133-0.217l-0.183,0.117v-0.183l-0.217,0.1V393.8h-0.25l0.083-0.317v-0.2h-0.2l0.15-0.6h-0.133h-0.117
	v-0.2l-0.2,0.183l0.083-0.283h-0.15l-0.2,0.183V392.4l-0.333,0.117v-0.133l0.117-0.4l-0.15-0.1l-0.217,0.3l0.083-0.384l-0.183,0.267
	v-0.267l-0.217,0.1l-0.25,0.117l-0.167,0.25l-0.183,0.25l-0.15-0.183v0.167l-0.083-0.217v0.167h-0.2l-0.367,0.534h-0.167v-0.25
	h-0.167h-0.183l-0.117,0.333l-0.217-0.117l-0.384,0.183h-0.367V392.9l-0.167,0.2l-0.4,0.083v-2.068l-0.15,0.2v-0.183h-0.25h-0.283
	l-0.267,0.283v-0.3l-0.467,0.417l-0.1-0.083h-0.1l0.083-0.267l-0.283,0.117l-0.117-0.2l0.2-0.667l0.1-0.25l-0.1-0.233l0.1-0.083
	v-0.2h-0.133h-0.133l-0.217,0.333h-0.167l0.117-0.25h-0.233l0.167-0.267h-0.15v-0.033l0.2-0.217v-0.117l-0.083-0.1l0.517-0.4h-0.2
	l0.117-0.267l0.317-0.35h-0.183l-0.283-0.2h0.2l-0.2-0.117l0.25-0.167h-0.367h-0.283v-0.35l-0.333,0.083v-0.217h-0.15v-0.183h-0.117
	v-0.167l-0.35,0.2v-0.167h-0.15h-0.15l-0.167-0.15h-0.35h-0.2v-0.167l-0.183,0.083v-0.183l-0.217-0.1l-0.267,0.167l0.117-0.183
	l-0.417,0.133v-0.15l-0.217,0.083v-0.15h-0.183h-0.183v-0.133l-0.317-0.434l-0.233-0.233h-0.35l0.217-0.3h-0.217l0.117-0.25
	l-0.217,0.083v-0.317v-0.183l-0.267,0.1l-0.6-0.467h-0.15h-0.417l-0.267-0.133l-0.167-0.367l-0.984,0.1l0.2-0.85l0.817-0.467
	l0.3-0.934l0.5-0.434l0.167-0.217l0.5-0.3l0.634-0.267l0.333,0.083h0.15l0.217-0.1l0.467-0.233l0.333,0.183v0.217h0.15l-0.183,0.117
	l0.25,0.167l0.15-0.333l0.4,0.25l0.083-0.117l-0.233-0.15l0.3-0.15l0.4,0.467l0.25,0.333l0.4,0.083h0.283h0.467h0.117h0.434h0.167
	l0.15-0.1v0.15l0.283-0.133l-0.133-0.133h0.45l0.15-0.2l0.167-0.117h0.333h0.367l0.35,0.283l0.517-0.217l0.65-0.167v-0.45
	l0.267,0.183l0.367-0.217h-0.267l0.384-0.083v-0.25h0.2l0.167-0.117v-0.183l0.1-0.167h0.283l0.25-0.117v0.267l0.183-0.117
	l-0.167-0.367v-0.133l0.233-0.083l-0.117-0.15h0.3v-0.15l0.217-0.183h0.233h0.317l0.233-0.2h0.183v-0.15l0.083-0.15v-0.167h0.117
	l0.167-0.2l0.217-0.367h0.117l0.167-0.1h0.15l0.517-0.217l0.217-0.25l0.283-0.333l0.167,0.2l0.384-0.367v0.15l0.534-0.3h-0.3
	l0.167-0.167l-0.117-0.1l0.384-0.367h0.367v-0.25l0.2-0.2l0.417-0.333h-0.267v-0.567l0.133-0.267l0.283-0.1l-0.384-0.317l0.367-0.15
	l-0.133-0.133l0.233-0.217l-0.15-0.117l-0.167-0.2l-0.6-0.25l-0.15,0.2l-0.333-0.167l-0.317-0.167l-0.233,0.384l-0.634-0.267h-0.767
	l-0.517,0.3l-0.55,0.283l-0.15,0.1l-0.434-0.1v-0.233h-0.183h-0.283l-0.167-0.117l-0.217,0.117l-0.267,0.133v-0.2l-0.233,0.1
	l0.083,0.317h-0.117l0.2,0.133l-0.083,0.133l-0.4,0.117v0.217h-0.467l-0.283-0.283v-0.233h-0.217v-0.417h-0.167h-0.15h-0.117v-0.233
	h-0.15h-0.267h-0.167h-0.1h-0.15h-0.25v-0.417v-0.25l0.317-0.233h-0.333l0.083-0.217l-0.384-0.167l0.133-0.3l-0.4,0.1l-0.117-0.183
	l-0.3-0.233h-0.233l-0.95,0.283h-0.217v-0.15v-0.167l-0.183,0.333h-0.534v-0.183l-0.117,0.15l-0.117-0.55l0.183-0.3l0.167-0.133
	l0.467-0.5h0.534l0.233-0.233l-0.484-0.217l0.15-0.217l-0.25-0.233l-0.117-0.083v-0.2l-0.384,0.367l-0.1-0.167l-0.15,0.1l0.1,0.133
	l-0.267-0.083l-0.434-0.917l0.183-0.233v-0.167l0.283-0.534l0.85-0.2l0.417,0.117v0.1l0.417-0.133l1.034,0.5l0.5,0.45h0.283
	l0.283,0.233l0.417-0.117l0.3,0.634l-0.083,0.15l0.1,0.117h0.15l0.45,0.25l0.4-0.3l0.083-0.1l0.267-0.217l0.133-0.15v-0.15
	l-0.333,0.1v-0.317l-0.083-0.133l0.217-0.1v-0.233l0.133-0.233h-0.584v-0.484l-0.117-0.167l-0.55-0.283l-0.25-0.1v-0.217l0.25-0.117
	l0.2,0.317v-0.15l0.8,0.117l0.6-0.333l0.2,0.117v0.25l0.567,0.117v0.517l0.35-0.15l0.167-0.083v0.283l0.117,0.217l0.434-0.25
	l-0.1,0.183h0.233l0.083-0.317v-0.267h0.133h0.133l0.65-0.167v-0.517l0.25-0.083l0.25-0.1h0.15l0.133-0.083l0.133-0.467l0.567-0.467
	l1.067-0.55l0.25,0.083h0.367l0.1,0.217l0.15-0.233l0.584-0.133h-0.133l0.183-0.15v-0.35h-0.183l0.167-0.15h-0.133l-0.484-0.117
	l0.083-0.317h-0.5v-0.2h0.133l0.317-0.117h-0.367v-0.3l0.5,0.317h0.1l0.117,0.2l0.117-0.1l0.25-0.1l0.117-0.167l0.283,0.25
	l-0.117,0.133l0.2-0.15l0.167-0.267l0.183-0.15l0.267,0.117l0.167,0.167h0.117l0.1-0.167l0.183-0.267h0.267l0.183,0.317l0.2,0.133
	l0.317,0.417v0.15l0.117,0.167h0.15l0.117,0.35h0.167l0.133-0.1v0.267l0.15-0.15v0.233l0.217-0.167l0.133-0.15v0.15l0.1,0.117
	v-0.183l0.183-0.484l0.584-0.4l0.75-0.467v-0.183v-0.233l0.183-0.217h-0.15h-0.133h-0.167h-0.15h-0.2l-0.2-0.283l0.117-0.15v-0.167
	l-0.217-0.1l-0.15-0.117V359.7v-0.267l-0.1-0.467v-0.15l-0.183-0.567l0.35-0.45h-0.217l0.1-0.183h-0.183l-0.217-0.434v0.283
	l-0.3-0.267h-0.283l-0.317,0.117v-0.6h0.15l0.283-0.133l-0.25-0.434h0.15l0.267-0.217l0.484,0.384h0.117l0.317-0.417l0.283-0.45
	h0.267h0.3l0.117,0.167l0.317-0.167l0.083,0.133l0.1,0.167l0.233-0.2l0.117-0.117l-0.133-0.183l0.217-0.15l-0.133-0.15l0.434-0.3
	l0.45,0.367v-0.3l0.233-0.133l0.183,0.25v0.267l0.167-0.1l0.2-0.083l-0.183,0.267h0.3v-0.417l0.183-0.15h0.267h0.167h0.25h0.15
	l-0.217-0.55l0.183-0.317v-0.133h-0.2l-0.167-0.1h-0.15v0.2h-0.15l-0.133,0.133h-0.133v-0.35l-0.183,0.317v-0.167l-0.133,0.167
	l-0.183-0.117l-0.6,0.1v-0.15l-0.55,0.4l-0.267-0.15l0.117,0.267h-0.167v0.233l-0.417,0.1l-0.233-0.35l-0.133,0.117v0.133l-0.5-0.15
	l-0.083,0.233l-0.967,0.467l-0.283-0.167l-0.133-0.117l-0.233,0.283l-0.117,0.2l-0.183-0.45l-0.267,0.117v-0.25h-0.5v0.333v0.417
	l0.133,0.117v0.183v0.233h-0.634h-0.2l0.083,0.267l-0.15,0.083l-0.3,0.35l-0.367-0.167v-0.634l-0.133-0.167l-0.534-0.217
	l-0.167,0.217l-0.133,0.167l-0.133,0.484h-0.183v0.367l-0.3,0.467v0.367l-0.233,0.167l-0.3-0.117v0.217h-0.4l-0.1-0.367h-0.283
	l-0.083-0.317l-0.2-0.133l-0.384,0.333l-0.417-0.267v-0.484l0.183-0.45v-0.15l-0.117-0.217l0.183-0.15v-0.267l-0.133-0.333
	l-0.117-0.167l-0.384,0.3h-0.717l-0.267,0.083l-0.183-0.15v-0.2v-0.2h-0.217l0.167-0.117l-0.3-0.267l-0.2,0.317l-0.45-0.117
	l-0.233,0.45h-0.417l-0.417-0.25l-0.4,0.3l0.117,0.167h-0.7l0.15,0.1l-0.217,0.217l-0.283-0.133l-0.233-0.167l-0.117-0.267h0.784
	l0.6-0.333l1.434-0.867l-0.434-0.784h0.3l0.1-0.117l0.117-0.283l-0.217-0.1v-0.25h-0.45h-0.25v-0.267l-0.1-0.517l0.133-0.15
	l-0.25-0.233l-0.1-0.083l-0.1-0.083l-0.367-0.333l0.083-0.3h0.233l0.083-0.3l-1.234-0.517l-0.3,0.133l-0.484-0.133l-0.367-0.1
	l-0.133-0.367l0.167-0.35l0.167-0.367l0.083-0.2l0.417,0.1l-0.317-0.25l0.55-0.15l0.834,0.784h0.15l0.4-0.15l0.434-0.133l0.8-0.1
	l0.083,0.217h0.7l0.217,0.25l0.634,0.634l0.267,0.534l0.183-0.1l0.25,0.2l0.083-0.434l-0.117-0.467l0.183-0.167v-0.233h0.333
	l0.267,1.117l0.734-0.467l0.15,0.183l0.25,0.167v0.283v0.167v0.133l0.117-0.333l0.3,0.1h0.267l0.167-0.117l0.367-0.1l0.117-0.083
	h0.117l-0.217-0.45l0.35-0.35l-0.15-0.367h-0.133h-0.133l-0.1-0.083v-0.15l-0.117,0.133l-0.133-0.317l-0.15-0.467h0.167v-0.283
	v-0.217l-0.183-0.1l-0.1-0.117h-0.233v-0.183h-0.367l-0.133-0.25l0.35-0.367l0.3-0.117l0.15,0.2l0.133-0.317h0.133v0.133
	l0.083,0.167v-0.233v-0.367h-0.15v-0.183l0.117-0.167v-0.183h-0.167v-0.333l-0.117-0.117h-0.734l-0.083-0.117l-0.183,0.167h-0.183
	h-0.3v-0.217l-0.217,0.2h-0.15l-0.167-0.217l-0.117,0.267h-0.283l-0.1-0.167v-0.133v-0.333l-0.1-0.267l-0.117-0.117l-0.117,0.1
	v-0.15l-0.133-0.133h-0.1h-0.183v0.25h-0.283h-0.25l0.1-0.2l-0.133-0.167l-0.25,0.1l-0.1-0.167h-0.117h-0.283v-0.15l-0.2,0.083
	v-0.183v-0.233l0.4-0.15l0.117-0.3h0.167l0.1-0.25h0.317l-0.183-0.283h-0.25v-0.167l-0.117-0.183l-0.267,0.133l-0.25-0.183
	l-0.5-0.35h-0.4l-0.384-0.3l-0.267,0.233l-0.517-0.1l-0.267-0.5l-0.133-0.083l-0.183,0.2h-0.8l-0.384-0.317v-0.384l0.5-0.484h0.4
	l0.083-0.283h-0.333l0.167-0.717h0.233l-0.1,0.2l0.15,0.267l0.5,0.217l0.35-0.333h0.2v0.55l0.317-0.534l0.6-0.283h0.317l0.2-0.384
	l0.6,0.2l-0.133-0.317h0.15l0.4,0.217l-0.217,0.4v0.15l0.217,0.367h0.133l0,0l0.15,0.25v-0.267h0.2l0.233,0.217l0.217,0.1h0.167
	v-0.2l0.317-0.183l0.1,0.35l0.083,0.15l0.1,0.217h0.2v0.183l0.117,0.133v-0.25l-0.35-0.3h0.3l-0.2-0.35h0.267h0.217l-0.1-0.45
	l0.484-0.75l0.584,0.117l0.4-0.15l0.384,0.15v0.25l0.167-0.317h0.55h0.2h0.283l0.2,0.1l0.517,0.467l0.2-0.15h0.3l0.4-0.2v-0.884
	l0.233-0.233h0.617l0.117-0.15l-0.2-0.384l0.35-0.25h0.233v0.25h0.15l0.934,0.517h0.417l0.584-0.217l-0.15-0.317l0.133-0.1
	l-0.167-0.233l0.283-0.2l0.584,0.267h0.417l0.6,0.55l1.201,0.267h0.133v-0.4v-0.2v-0.133v-0.5l0.333-0.183l0.133,0.15l0.183-0.434
	h0.117h0.434l-0.083-0.217h0.15v-0.317l-0.317-0.167l0.217-0.267v-0.217l-0.15-0.233h-0.317v-0.233l-0.083-0.183l0.233-0.217
	l0.183-0.2l-0.15-0.183l0.2-0.467l0.484-0.117v-0.2l0.2-0.267h-0.133l0.367-0.367v-0.233l-0.217,0.183v-0.183l0.35-0.4l0.15-0.367
	l-0.233-0.167h0.2l0.117-0.183l0.2-0.333l0.183-0.484v0.267l0.217-0.417v0.217h0.167l0.65-0.634l-0.217-0.384h0.417v-0.434h0.217
	h0.117l-0.133-0.233h0.217l0.25-0.35v0.167l0.317-1.251l0.517-0.684l0.167-0.45l-0.333,0.317v-0.35h-0.167l-0.133,0.1l-0.233,0.35
	l-0.9,0.2V325.4h-0.183l-0.317,0.517l-0.117-0.167l-0.317,0.15l-0.133,0.1v-0.317l-0.233,0.4h-0.2l-0.2,0.217l-0.1,0.467l-0.3,0.117
	l-0.1,0.133v0.35l-0.3,0.3h0.117l-0.183,0.3l0.1,0.25l-0.233,0.183l-0.317,0.417l-0.467-0.183l-0.15,0.167l-0.15-0.083l-0.2,0.167
	v-0.3l-0.167,0.15l0.083,0.35l-0.2,0.1h-0.15v-0.15l-0.133,0.083v-0.25h-0.25h-0.233v-0.167l-0.283,0.117l-0.15,0.117h-0.133v-0.217
	l-0.133,0.267l-0.25-0.117h-0.167h-0.133l-0.25,0.167h-0.233l-0.1-0.367l0.384-0.55l0.083-0.133h-0.1h-0.15l-0.317,0.117v-0.133
	l-0.25,0.117v-0.15l-0.367,0.367h-0.267l-0.25,0.384l-0.117,0.117v0.5l-0.3,0.117l-0.317-0.317l-0.183,0.167l-0.167,0.384
	l-0.4,0.217l-0.1,0.217l0.117,0.417l0,0l0.133,0.233l-0.233,0.217h-0.684v0.133h-0.384l-0.4-0.2l-0.183-0.1h-0.367l-0.167-0.267
	l-0.183-0.317h-0.117l-0.517,0.167l-0.183-0.2h-0.15h-0.467h-0.15h-0.5l-1.051,0.867l-0.2,0.65l-0.534,0.317h0.2l0.083,0.2
	l-0.1,0.467l-0.584,0.1l-0.317-0.1v-0.5l-0.233-0.283v-0.517l-0.617,0.517l-0.567-0.183l0.15,0.15l-0.183,0.233l-0.117,0.15
	l-0.25-0.15l0.15-0.183l-0.467-0.1l-0.534-0.9l-0.283-1.667l0.317-0.817l0.4-0.283l0.6-0.15l0.65-0.15v-0.434l0.283-0.283l0.4-0.1
	h0.333l0.2-0.167l0.434-0.283v-0.484l-0.2-0.15l-0.25-0.1l-0.167-0.417l1.217-0.8l-0.2-0.35h-0.217l-0.4-0.3l0.2-0.4l0.617,0.484
	l0.25-0.217l1.951,0.834v-0.233h0.4v0.217l0.684,0.25l0.083,0.3l0.117-0.217h0.233l0.917,0.767h0.1l0.434-0.584l0.117-0.117h0.283
	h0.183h0.15h0.15h0.183l0.867-0.617l0.25-0.083l0.3-0.183l0.4-0.15l0.083-0.367h0.133l0.3-0.167v-0.15v-0.217l0.083-0.2l0.083-0.183
	v-0.2h-0.133l-0.367-0.5l-0.117,0.1v-0.3l0.317-0.167l0.233-0.183h0.117v-0.333l0.367-0.233l0.25-0.167l0.434-0.567l-0.133,0.4
	l0.367-0.45l-0.183-0.15l-0.133-0.117l0.484-0.15l-0.25-0.434h0.15h0.117l-0.283-0.183h0.467l0.233-0.384v-0.167v-0.267l-0.35-0.233
	v-0.183l0.117-0.15v-0.35h-0.267l-0.183-0.267l-0.283,0.117l-0.2,0.35h-0.634l-0.15,0.233h-0.283h-0.167h-0.167l-0.1,0.183
	l0.117,0.25h-0.233l-0.167,0.133v0.267h-0.417l0.217,0.333l-0.834,0.233l-0.1,0.217h-0.3l-0.817-0.85l0.217-0.283l-0.117-0.217
	h0.367l-0.117-0.484l-0.35,0.15l-0.1-0.133l-0.45-0.484l0.083-0.2l-0.117-0.2h-0.15h-0.183l-0.35-1.084l0.383-0.817l0.333-0.117
	l0.384-0.183h-0.133l0.4-0.384h-0.267l0.333-0.434h0.183l0.333-0.167l-0.117-0.133l0.167-0.117h-0.3v-0.25l0.717-0.35l0.167-0.267
	h0.117h0.117l-0.2-0.333h0.183l0.233-0.1v-0.2l0.15,0.083v-0.183v-0.2l0.133-0.133v-0.167l0.133-0.133h0.434l-0.15-0.283l0.3-0.183
	l-0.183-0.25l0.283-0.15v-0.2v-0.567h0.517l0.1-0.15l0.083-0.15l0.283-0.567l0.2-0.133v-0.233l0.117-0.217v-0.283l0.233-0.133h0.15
	l0.317-0.3l0.45-0.9l0.1,0.133l0.1-0.15l0.2-0.5l0.384-0.2h0.117v-0.734h0.35v-0.417v-0.567l0.333-0.183l-0.117-0.133l0.283-0.2
	v0.183l0.367-0.133l0.934,0.4v0.2l-0.6,0.233v0.133l0.534-0.183l0.317,0.867l-0.384,0.183l0.467-0.083l0.367,1.001l-0.484,0.35
	l-0.25,0.434l-0.1,0.217v0.85l-0.183,0.233l0.584,0.384h0.133h0.25h0.233l0.767-0.283l0.183,0.15l0.15,0.083l0.35-0.117h0.2
	l0.267-0.1h-0.2l0.317-0.1v-0.167v-0.317l0.3-0.233l0.367,0.2l0.083,0.117l0.167,0.1h0.15h0.15h0.25l0.35,0.117v-0.167v-0.15v-0.133
	v-0.233v-0.5l0.517-0.267l0.35,0.333l0.083-0.267l0.15-0.117l-0.117-0.417l-0.333-0.183l0.117-0.183h-0.1l-0.384-0.3v-0.2
	l-0.1-0.267l0.317-0.467v-0.233v-0.333l0.45-0.434h0.434h0.2l0.417,0.3l0.133,0.217h0.434l0.1,0.283l0.434,0.9l0.317-0.117l0.35,0.2
	l-0.117,0.333h0.117v0.367l0.167,0.117l0.217-0.133l0.283,0.367h0.133l0.15,0.117v0.15h0.15h0.133l0.534-0.283v0.2l0.15-0.283
	h-0.167l0.317-0.217l0.217,0.083l0.133-0.167h0.017h-0.317l0.984-0.133v-0.217l-0.167-0.233l0.167-0.384h0.133h0.233l0.15-0.25
	l-0.3-0.15l0.217-0.367l-0.167-0.133v-0.167l0.367,0.15l0.3-0.434l0.333,0.217l0.117-0.083h0.167l0.15-0.133l-0.133-0.384h-0.217
	v-0.117h-0.3l0.267-0.283l-0.333-0.434l0.367-0.3h-0.15l0.25-0.384h-0.367v-0.25h-0.4v-0.317v-0.417l-0.6,0.167l0.133-0.133v-0.217
	l-0.1-0.1l0.267-0.1l0.183-0.15l-0.333-0.267h0.467l-0.25-0.434l0.5,0.333l-0.233-0.283l0.434,0.117l0.117-0.267l-0.133-0.25h-0.384
	l0.167-0.25h-0.283h-0.183h-0.333l0.283-0.283h-0.117v-0.317l-0.217-0.183h0.333l-0.117-0.15l-0.167-0.15l0.2-0.267l0.517,0.2
	l0.25-0.4l0.2-0.117v-0.2l0.55-0.15h0.2l0.434-0.217h-0.25v-0.233l-0.183-0.133v-0.333l0.25-0.117l-0.217-0.1v-0.634l0.417-0.5
	l0.1-0.133l0.384-0.434l0.434-0.25v-0.667l0.15-0.117v-0.15l0.133-0.2l0.283-0.083h0.15l0.333-0.167l-0.484-0.183v-0.3h0.233v-0.233
	h0.317l-0.35-0.467l0.617-0.3h-0.767v-0.267l0.233-0.117h0.083l-0.133-0.167v-0.133l-0.267-0.133h-0.1l-0.1-0.2l-0.283,0.3
	l-0.183-0.15v-0.35l-0.133-0.1l0.117-0.1l-0.484-0.217l-0.1-0.25l-0.183-0.3v-0.183l0.117-0.217h0.2h0.2l-0.083-0.25l0.083-0.133
	v-0.167l0.1-0.283h-0.35l-0.167,0.2l-0.367,0.434l-0.2-0.117l-0.267-0.083h-0.95h-0.15v0.317l-0.25,0.117v-0.25h-0.6l0.117-0.217
	l-0.133-0.1l-0.233,0.3l-0.15,0.117v0.217h-0.117l-0.133,0.167l-0.117,0.567l-0.267,0.2l-0.3,0.283h-0.333l0.15,0.317l-0.55,0.117
	l-0.083,0.233l0.133,0.384l-0.183,0.1l-0.25,0.1l-0.667,0.35l-0.4,0.217l-0.35,0.15l-0.484,0.6l-0.333,0.217h-0.25l-0.35,0.5
	l-0.434,0.183v0.167v0.317l-0.25,0.317l-0.467,0.584l-0.3,0.484l-0.267,0.95h-0.25l0.283,0.2l-0.133,0.467l0.183,0.35v0.65
	l0.2,0.283l0.15,0.784l-0.15-0.183l-0.333,0.133l-0.167-0.534h-0.167l-1.351-1.434l-0.6,0.634h-0.667v0.634h-0.517v0.45l-0.667,0.8
	l-0.25,0.617l-0.367,0.233l-0.183,0.4v0.267l-0.133-0.117l-0.367,0.2l-0.9-0.417l-0.267-0.317l0.1-0.634l-0.283-0.384l0.2-0.233
	l-0.2-0.217v-0.7l-0.317-0.2l-0.45,0.484h-0.7l-0.367-0.6l-0.1-0.484l-0.25-0.617l0.283,0.167l-0.2-0.384h-0.4l-0.65-0.55
	l0.267-0.317l0.117,0.133l0.584-0.167v-0.434l-0.117-0.217v0.2l-0.834-0.15l-0.117-0.217l-0.567-1.667v0.317l-0.167-0.167l0.083-0.9
	v-0.634l0.117-0.584l0.65-0.584l0.55,0.1l0.884-0.434l0.167,0.3h0.233l0.233-0.133l-0.167-0.2l0.333-0.567l0.25-0.183l0.517-0.167
	v-0.15l0.434-0.3l0.367-0.083l-0.317,0.283h0.817l-0.3-0.267h0.867l-0.15,0.4l0.417,0.167l-0.183,0.15l0.75-0.183l0.267-0.4
	l0.317,0.1l0.217-1.101l0.634-0.283l0.1,0.233l0.283-0.117l2.034,1.284l0.834-0.2l0.567,0.95l0.233-0.15h0.3l-0.1-0.183l0.1-0.133
	v-0.45l0.233-0.15h-0.217v-0.617v-0.367l-0.15-0.183l-0.117-0.167l0.2-0.183v-0.117l-0.1-0.217l-0.167-0.434v-0.283v-0.117v-0.217
	l-0.1-0.317v-0.367l0.083-0.15l-0.117-0.5l0.167-0.384l0.317-0.15h0.133v-0.217h0.25l-0.367-0.434l-0.033-0.384l-0.217,0.15
	l0.267-0.534h0.2l0.667,0.233l0.267-0.233l0.133,0.317h0.183v0.25l0.317,0.15v-0.233h0.3h0.117v-0.233l-0.167,0.133l-0.15-0.2
	l-0.1-0.133h0.2h0.267l0.133-0.267l0.217,0.133v-0.283h0.117l0.117-0.4l0.167-0.217v0.133v-0.117v-0.167l-0.2-0.117v-0.333
	l0.217-0.083h0.167h0.2l0.2-0.233v-0.2h-0.267l0.15-0.3l0.133-0.183l0.083-0.434l-0.117-0.133l0.1-0.083v-0.183v-0.167v-0.2
	l0.183-0.333v-0.15h0.133l-0.083-0.167v-0.183l0.183-0.083h0.15v-0.25l-0.484-0.45l-0.1-0.267l0.133-0.283v-0.35l0.417-0.167
	l0.117-0.133v-0.233l0.117-0.5v-0.167h0.25l-0.267-0.2l0.35-0.267l0.083,0.384l0.233-0.367v-0.2l0.267-0.183l0.384,0.15h0.15
	l0.183,0.1l0.3-0.133l0.333-0.083h0.183l0.133,0.1l0.133,0.133l0.15,0.117l0.15,0.117l0.267,0.267l0.117,0.2l0.1,0.133v0.15v0.133
	l0.083,0.117h0.15l0.15,0.1l0.25,0.183l0.333,0.167v0.2v0.35l0.217,0.117l0.267-0.2h0.584l0.117-0.25l0.217-0.1h0.083h0.133
	l0.083-0.283l0.217-0.25h-0.333h-0.2v-0.15h-0.117v-0.233h-0.133h-0.067l-0.183-0.333h-0.2v-0.183h-0.233l-0.317,0.133v-0.384
	l-0.217-0.183l0.55-0.233h-0.333h-0.167l-0.083-0.317h-0.183l-0.167-0.1l0.434-0.117l0.383,0.267l0.133-0.117v-0.133l0.2,0.2
	l0.283-0.117l0.083,0.2l0.183-0.1l-0.183-0.4l0.1-0.133h0.233h0.467h0.25h0.233v-0.233l0.133,0.384h0.267l0.1-0.283l-0.167-0.3
	l0.167-0.133h-0.117h-0.233l0.25-0.25l-0.133-0.167l0.4-0.434l-0.367-0.4h0.35l0.3,0.2l0.117-0.317l0.217,0.167l-0.133-0.3h0.267
	l-0.3-0.25l0.233-0.267l-0.2-0.3l0.35,0.1l0.367-0.8l-0.25,0.217L410.792,269.123z M179.796,231.238l0.517,0.25l-0.083,0.517
	l0.183,0.5l0.634,0.417h-0.5l-0.3-0.3v-0.35v-0.167l-0.3-0.434l-0.267-0.317L179.796,231.238z"/>
</svg>
