<?xml version="1.0" encoding="utf-8"?>
<!-- Generator: Adobe Illustrator 24.1.0, SVG Export Plug-In . SVG Version: 6.00 Build 0)  -->
<svg version="1.1" id="レイヤー_1" xmlns="http://www.w3.org/2000/svg" xmlns:xlink="http://www.w3.org/1999/xlink" x="0px"
	 y="0px" viewBox="0 0 111 28" style="enable-background:new 0 0 111 28;" xml:space="preserve">
<style type="text/css">
	.st0{fill-rule:evenodd;clip-rule:evenodd;fill:#04773D;stroke:#04773D;}
	.st1{fill:#898989;}
</style>
<path id="path1871" class="st0" d="M22.6,4.3c1.4,1.2,3.1,2.6,5.2,2.6c2.1,0,2.8-0.7,4.2-1.3c0,0-1.5,3.8-1.6,5.1
	c-0.1,1.3-0.1,1.2,0,2.3c0.1,1.1,1.2,6.9,5.2,9.5h-26c3.4-3,5.4-6.8,5.4-11.8h4c0.3,2.4,0.1,5.8,1.6,6.6c1.4,0.8,2-1.4,2-2.1h1.8
	c-0.1,1.1,0.6,2.1,1.6,2.1c1.1,0,1.8-2.7,1.8-4.3c0-1.6-0.3-2.1-1.2-2.3c-0.9-0.2-2.9,1.2-4,2.3V4.3z"/>
<g>
	<path class="st1" d="M53.4,7c0-0.7,0-1-0.1-1.3h2.1C55.3,6,55.3,6.3,55.3,7h4.4c0.9,0,1.5,0,2-0.1v1.7c-0.5-0.1-1-0.1-1.8-0.1h-4.6
		v0.8h4c0.7,0,1.2,0,1.7-0.1v1.6c-0.5-0.1-1-0.1-1.7-0.1h-4v0.8h5.3c0.9,0,1.4,0,1.8-0.1V13c-0.5-0.1-1-0.1-1.8-0.1H48.3
		c-0.8,0-1.3,0-1.8,0.1v-1.7c0.5,0.1,0.9,0.1,1.8,0.1h5.1v-0.8h-3.7c-0.7,0-1.2,0-1.7,0.1V9.1c0.5,0.1,1,0.1,1.7,0.1h3.7V8.5h-4.4
		c-0.9,0-1.3,0-1.8,0.1V6.9C47.6,7,48.3,7,49.1,7H53.4z M50.6,19.4v0.9c0,0.8,0,1.5,0.1,2h-2.1c0.1-0.6,0.1-0.9,0.1-2.2v-4.7
		c0-0.7,0-1.2-0.1-1.7c0.4,0.1,0.8,0.1,1.6,0.1h8.5c0.8,0,1.2,0,1.6-0.1c-0.1,0.5-0.1,1-0.1,1.7v5c0,0.7-0.2,1.1-0.6,1.4
		c-0.4,0.3-1,0.4-2.3,0.4c-0.5,0-0.9,0-1.6-0.1c-0.1-0.6-0.2-1.1-0.4-1.7c0.8,0.1,1.4,0.1,2,0.1c0.8,0,0.9-0.1,0.9-0.5v-0.6H50.6z
		 M58.3,15h-7.6v0.8h7.6V15z M50.6,17.2V18h7.6v-0.8H50.6z"/>
	<path class="st1" d="M65.9,16c-0.8,0-1.2,0-1.6,0.1v-1.9c0.4,0.1,0.8,0.1,1.7,0.1h1.6v-0.4c0-0.5,0-0.9-0.1-1.2h1.9
		c-0.1,0.3-0.1,0.6-0.1,1.2v0.4h0.9c0.8,0,1.1,0,1.6-0.1V16C71.3,16,71,16,70.2,16h-0.5c0.5,0.8,1.1,1.3,2.2,2
		c-0.5,0.6-0.5,0.6-1.1,1.5c-0.7-0.7-1.1-1.2-1.6-2c0.1,0.5,0.1,0.9,0.1,1.4v1.9c0,0.7,0,1.2,0.1,1.6h-1.9c0.1-0.4,0.1-0.8,0.1-1.5
		V19c0-0.3,0-0.9,0.1-1.3c-0.8,1.4-1.6,2.4-2.7,3.3c-0.3-0.7-0.6-1-1.1-1.5c1.3-0.9,2.4-2.1,3.3-3.6H65.9z M77.7,7.2
		c0.9,0,1.5,0,2.1-0.1V9c-0.6-0.1-1.2-0.1-2.1-0.1h-3.1c1.5,1.2,3.3,2,5.8,2.6c-0.5,0.7-0.7,1-1,1.8c-1.8-0.6-2.4-0.9-3.6-1.5
		c-1.1-0.6-1.6-1-2.7-2.1c0,0.1,0,0.1,0,0.3c0,0.1,0,0.4,0,0.6v1.7c0,0.6,0,1,0.1,1.3h-2.1c0.1-0.4,0.1-0.8,0.1-1.3v-1.6
		c0-0.2,0-0.4,0-0.5c0-0.3,0-0.3,0-0.3c-1.6,1.6-3.5,2.7-6,3.5c-0.3-0.7-0.4-1-0.9-1.6c2.3-0.6,4-1.4,5.5-2.6H67
		c-0.8,0-1.5,0-2.1,0.1V7.1c0.6,0.1,1.2,0.1,2.1,0.1h4.2V7.1c0-0.6,0-1-0.1-1.4h2.1c-0.1,0.4-0.1,0.7-0.1,1.4v0.1H77.7z M73.9,16
		c-0.8,0-1.1,0-1.6,0.1v-1.8c0.4,0.1,0.7,0.1,1.6,0.1h1v-0.4c0-0.6,0-0.9-0.1-1.2h1.9c-0.1,0.3-0.1,0.6-0.1,1.2v0.4h1.9
		c0.9,0,1.2,0,1.6-0.1v1.9C79.9,16,79.5,16,78.8,16h-1.6c0.1,0.1,0.1,0.1,0.2,0.3c0.9,1.2,2.1,2.3,3.6,3.1c-0.5,0.5-0.9,1-1.2,1.7
		c-0.6-0.4-1-0.8-1.7-1.5c-0.6-0.7-0.9-1.1-1.4-2c0,0.3,0,0.3,0.1,0.7c0,0.1,0,0.2,0,0.3c0,0.2,0,0.3,0,0.3v1.8c0,0.8,0,1.2,0.1,1.6
		h-2c0.1-0.5,0.1-0.9,0.1-1.6v-1.8c0-0.3,0-0.4,0.1-1.2c-0.8,1.5-1.7,2.4-3.2,3.5c-0.3-0.7-0.5-1-1.1-1.5c1.7-1,2.6-1.9,3.8-3.6
		H73.9z"/>
	<path class="st1" d="M87.7,18.4c-1.3,1.7-2.4,2.7-4.1,3.6c-0.6-0.7-0.8-0.9-1.4-1.5c1-0.4,1.6-0.8,2.3-1.4c0.7-0.5,1-0.9,1.6-1.7
		L87.7,18.4z M91.2,20.3c0,1,0,1.5,0.1,2h-2.2c0.1-0.5,0.1-1.1,0.1-2v-3h-4.4c-0.8,0-1.3,0-1.9,0.1c0.1-0.5,0.1-0.9,0.1-1.9V9.3
		c0-0.9,0-1.3-0.1-1.8h2.1C85,8,85,8.4,85,9.2v6.4h11.3c1,0,1.4,0,2-0.1v1.9c-0.6-0.1-1.1-0.1-2-0.1h-5V20.3z M96.4,13.2
		c0,0.7,0,1.2,0.1,1.6c-0.5-0.1-1.1-0.1-1.8-0.1h-6.5c-0.7,0-1.2,0-1.8,0.1c0.1-0.5,0.1-1,0.1-1.7V7.9c0-0.6,0-1.1-0.1-1.6
		c0.6,0.1,1,0.1,1.8,0.1h6.4c0.7,0,1.2,0,1.7-0.1c-0.1,0.5-0.1,0.9-0.1,1.6V13.2z M88.4,8.8h6.1V7.9h-6.1V8.8z M88.4,11h6.1v-0.9
		h-6.1V11z M88.4,13.3h6.1v-0.9h-6.1V13.3z M94.3,17.6c1.4,1.5,2.3,2.1,4.2,2.9c-0.6,0.6-0.8,0.9-1.3,1.6c-1.1-0.6-1.6-0.9-2.3-1.5
		c-0.9-0.7-1.3-1.2-2.1-2.1L94.3,17.6z"/>
</g>
</svg>
