<?xml version="1.0" encoding="UTF-8" standalone="no"?>
<!-- Created with Inkscape (http://www.inkscape.org/) -->

<svg
   xmlns:dc="http://purl.org/dc/elements/1.1/"
   xmlns:cc="http://creativecommons.org/ns#"
   xmlns:rdf="http://www.w3.org/1999/02/22-rdf-syntax-ns#"
   xmlns:svg="http://www.w3.org/2000/svg"
   xmlns="http://www.w3.org/2000/svg"
   xmlns:sodipodi="http://sodipodi.sourceforge.net/DTD/sodipodi-0.dtd"
   xmlns:inkscape="http://www.inkscape.org/namespaces/inkscape"
   width="70mm"
   height="20mm"
   viewBox="0 0 69.999998 20"
   version="1.1"
   id="svg8"
   inkscape:version="0.92.4 (5da689c313, 2019-01-14)"
   sodipodi:docname="logo.svg">
  <defs
     id="defs2" />
  <sodipodi:namedview
     id="base"
     pagecolor="#ffffff"
     bordercolor="#666666"
     borderopacity="1.0"
     inkscape:pageopacity="0.0"
     inkscape:pageshadow="2"
     inkscape:zoom="1"
     inkscape:cx="178.87839"
     inkscape:cy="-170.31327"
     inkscape:document-units="mm"
     inkscape:current-layer="layer1"
     showgrid="false"
     fit-margin-top="0"
     fit-margin-left="0"
     fit-margin-right="0"
     fit-margin-bottom="0"
     inkscape:window-width="1192"
     inkscape:window-height="736"
     inkscape:window-x="146"
     inkscape:window-y="99"
     inkscape:window-maximized="0" />
  <metadata
     id="metadata5">
    <rdf:RDF>
      <cc:Work
         rdf:about="">
        <dc:format>image/svg+xml</dc:format>
        <dc:type
           rdf:resource="http://purl.org/dc/dcmitype/StillImage" />
        <dc:title></dc:title>
      </cc:Work>
    </rdf:RDF>
  </metadata>
  <g
     inkscape:label="レイヤー 1"
     inkscape:groupmode="layer"
     id="layer1"
     transform="translate(-5.86208,-9.3333269)">
    <g
       id="g5176"
       transform="matrix(0.31002659,0,0,0.31002659,-3.7189984,-25.59727)">
      <text
         xml:space="preserve"
         style="font-style:normal;font-weight:normal;font-size:32.16534805px;line-height:1.25;font-family:sans-serif;letter-spacing:0px;word-spacing:0px;fill:#898989;fill-opacity:1;stroke:none;stroke-width:1.50775051"
         x="74.248474"
         y="153.43983"
         id="text4586"><tspan
           sodipodi:role="line"
           id="tspan4584"
           x="74.248474"
           y="153.43983"
           style="fill:#898989;fill-opacity:1;stroke-width:1.50775051">岩手県</tspan></text>
      <path
         id="path4606"
         d="m 66.599883,144.71956 -0.01314,-0.0131 -0.04444,0.0148 0.01159,-0.0313 -0.01973,-0.0197 0.01649,-0.01 h -0.02142 v -0.0363 -0.0197 l 0.02303,-0.01 -0.0082,-0.0131 h -0.01159 l -0.02963,-0.01 0.01649,-0.0263 h 0.03456 l -0.02299,-0.0279 -0.02795,-0.0247 0.01807,-0.0131 -0.0082,-0.0165 h 0.01807 l -0.01481,-0.0231 0.03456,-0.0197 -0.0313,-0.0197 0.01159,-0.0214 h -0.02963 l 0.01975,-0.0148 -0.01807,-0.0379 -0.01807,-0.0113 -0.01807,0.0131 -0.01973,-0.0263 h -0.01314 v 0.0297 h -0.09222 l -0.01314,0.0148 -0.02468,0.0313 h -0.01807 l -0.02468,-0.0181 0.01314,-0.0279 0.01159,-0.0197 h 0.02466 v -0.0263 l -0.02466,-0.0443 h -0.01318 l -0.02634,-0.01 v -0.0214 -0.0164 l -0.01314,-0.01 v -0.0229 h 0.01649 0.01314 v -0.0214 -0.0263 h -0.02795 v -0.0263 l 0.04779,-0.0215 -0.01807,-0.0279 h -0.01807 -0.01973 l 0.03623,-0.0461 h -0.04117 -0.03791 v 0.0313 l -0.01481,0.0247 v -0.0559 l -0.02795,0.0577 v -0.0229 h -0.01314 -0.01649 v -0.0429 h -0.04285 l -0.02142,0.0131 -0.07247,0.0395 -0.01807,-0.0313 -0.02471,0.0131 -0.03791,-0.0148 -0.02795,0.0378 -0.02468,-0.0181 v 0.0148 l -0.02795,0.0148 v -0.0429 h 0.01314 0.02142 v -0.0263 -0.0229 l -0.04118,0.0131 0.01649,-0.0313 -0.01314,-0.0131 -0.0066,-0.005 -0.02142,0.0197 0.01649,0.0363 -0.03949,0.0379 h -0.03623 l -0.0099,-0.0429 v 0.0164 l -0.05105,-0.0131 -0.01807,0.0263 -0.01314,-0.0113 0.03288,-0.0395 0.02466,0.0113 v -0.0164 h -0.03456 l -0.01481,-0.0214 -0.02468,-0.0297 0.01481,-0.0297 v -0.0148 l 0.0082,-0.0247 0.02142,-0.0197 0.01973,-0.0247 -0.0099,-0.0329 v -0.0148 l 0.01973,-0.0279 v -0.0313 l 0.04612,-0.0675 -0.03456,-0.0148 -0.01973,-0.0197 v -0.0197 -0.0148 l 0.01973,-0.0263 0.01159,-0.0197 -0.01807,-0.0214 v -0.0182 l 0.02303,-0.051 h 0.01159 l 0.05273,-0.0511 h -0.01807 -0.01314 l -0.02795,0.009 h -0.01314 l -0.04117,-0.0197 -0.04612,-0.0691 -0.02634,-0.0938 0.01314,-0.0263 v -0.0148 -0.0329 l 0.02634,-0.0148 0.01481,-0.0148 0.0099,-0.01 h 0.01649 0.03288 v -0.0164 h 0.01649 l 0.01807,-0.0113 0.01649,0.0131 h 0.02634 v -0.0181 h -0.01314 l -0.01973,-0.01 h -0.0313 v -0.0148 -0.0165 l -0.01159,-0.0214 h -0.01971 l 0.01973,-0.0313 h -0.01314 v -0.0181 h -0.01481 l -0.0099,0.01 -0.01314,0.0148 v -0.0247 l -0.01649,0.0297 v -0.0493 l -0.02963,0.0411 h -0.01807 -0.01975 l -0.01314,-0.0148 -0.01481,-0.0279 v -0.0279 l -0.02303,-0.0131 0.02795,-0.0297 -0.02299,-0.0247 0.02299,-0.0131 v -0.0214 l 0.01973,-0.0148 -0.01973,-0.0148 0.0099,-0.0131 v -0.0527 l 0.01159,-0.0113 v -0.0231 h -0.02471 l -0.0099,-0.0313 -0.0313,-0.0148 0.02964,-0.0131 v 0.0131 l 0.02303,-0.0197 0.01314,-0.0197 h -0.02142 l 0.03288,-0.0214 -0.01649,-0.01 h -0.02963 v -0.0181 h -0.01481 v -0.0181 l 0.08886,-0.0131 0.03949,-0.0345 -0.01314,-0.0263 h -0.02634 l -0.02963,-0.0345 0.01807,-0.0181 h -0.02795 l 0.02299,-0.0181 h -0.04118 v -0.0197 l -0.02299,-0.0131 0.0395,-0.0345 0.04285,0.0165 v -0.0165 h 0.03625 l -0.04937,-0.0229 0.01159,-0.0411 h -0.04118 v -0.0197 l 0.0313,-0.01 v -0.0131 h -0.02795 l -0.01314,-0.0148 0.02299,-0.01 0.03288,-0.0214 0.01807,-0.0112 -0.01649,-0.009 -0.02795,-0.0112 -0.02963,-0.01 0.0461,-0.01 v -0.0148 h 0.0099 l 0.0082,-0.0642 h -0.02142 v -0.0151 l -0.04937,0.009 -0.0099,-0.0181 v -0.0131 l 0.01159,-0.01 v -0.0113 l 0.01314,-0.0112 0.01481,-0.0231 -0.04118,-0.0131 h -0.02634 l 0.0082,-0.0214 -0.02303,-0.0148 0.04118,-0.0231 h 0.01314 v -0.0181 h 0.01973 v -0.0214 l -0.03288,-0.009 h -0.01973 l 0.0082,-0.0279 -0.03456,0.0229 -0.01481,0.0181 v -0.0131 l -0.01649,-0.0214 h -0.01807 l -0.03791,0.0297 -0.01481,-0.0279 -0.01649,0.009 h -0.01159 -0.01481 l 0.02964,0.01 -0.03456,0.01 0.01481,0.0113 -0.01649,0.0411 h -0.0362 l 0.01159,0.0231 -0.04612,0.0247 0.0099,0.0297 -0.01159,0.0379 -0.02964,0.0263 h -0.02634 l -0.02303,0.0329 0.01314,0.0181 h -0.01159 l -0.04285,0.0279 v 0.0131 l -0.01649,0.0247 v 0.0231 l 0.01807,0.0363 -0.05766,0.0214 0.01314,0.009 v 0.0559 h -0.02142 l -0.03456,0.0148 h 0.0099 l -0.0099,0.0411 -0.0313,0.01 v 0.0263 l -0.02964,0.0247 -0.02299,0.0263 -0.01973,0.0363 -0.02964,0.0477 -0.02963,0.0477 -0.02964,0.0379 -0.02964,0.0577 v 0.0197 l -0.07741,0.16459 v 0.0165 l -0.05105,0.0444 -0.01159,0.0363 -0.07573,0.0181 -0.01974,0.0297 -0.02466,0.01 -0.06093,0.0395 0.04444,0.009 -0.04117,0.0626 -0.01159,0.0313 -0.02795,0.0181 -0.02142,0.0131 -0.01314,0.009 -0.01481,0.01 v 0.0131 l -0.0082,0.0263 -0.01807,0.0658 -0.05272,0.0297 0.01159,0.0165 -0.02468,0.0411 0.01159,0.0297 -0.05925,0.0626 -0.0082,0.0345 v 0.0263 l -0.03623,0.0214 0.0082,0.0247 -0.01807,0.0229 h -0.02634 v 0.0592 l -0.03623,0.0279 -0.01807,0.051 H 64.03072 l -0.02963,-0.0313 -0.0099,0.0148 -0.06418,-0.0247 0.0313,-0.0592 -0.01159,-0.0165 h -0.03288 l 0.03624,-0.0543 -0.05105,-0.0229 -0.03791,-0.0905 v -0.074 l 0.04285,-0.0247 0.06912,0.051 0.01159,-0.0148 -0.06091,-0.0626 0.03456,-0.0429 0.08728,-0.0461 0.02795,0.0215 0.01314,0.01 0.02634,-0.0279 -0.02303,-0.0642 0.04117,-0.0609 0.09884,-0.0675 0.01807,-0.0113 -0.02963,-0.0724 v -0.0493 l 0.02963,-0.0148 v -0.0395 l 0.01481,-0.0181 h 0.02964 v 0.0511 l 0.02303,-0.0247 -0.01314,-0.01 v -0.0363 h -0.01159 l -0.01649,-0.0559 h -0.02634 l -0.01314,-0.0477 0.01481,-0.0379 0.04444,0.0197 h 0.07741 v -0.0724 h 0.0461 l -0.0626,-0.13834 v -0.0543 l -0.06091,-0.0247 v -0.0493 l 0.134975,0.0363 -0.01807,-0.0345 -0.08235,-0.0279 -0.079,-0.0263 v -0.0363 -0.0363 l 0.141596,0.0395 0.02964,-0.0247 0.0082,-0.0214 -0.09716,-0.0411 0.03288,-0.14485 h 0.0313 l 0.01481,0.0363 0.07741,0.0658 0.02466,-0.0297 h 0.05598 l 0.04118,-0.0247 0.01649,-0.0215 v -0.0112 l 0.02468,-0.0215 h -0.08392 v -0.0214 l 0.02634,-0.01 0.02795,-0.0112 -0.04937,-0.0113 0.0099,-0.0329 -0.02466,-0.0112 -0.01481,-0.0642 -0.102097,0.0363 -0.04779,0.0214 -0.02634,-0.0148 -0.01159,-0.0379 0.01975,-0.0113 -0.01481,-0.0231 h 0.02964 l -0.0099,-0.0263 h 0.02634 v -0.01 l 0.0099,-0.0363 0.02795,-0.0165 -0.02634,-0.0379 -0.0313,-0.0559 h -0.0099 v -0.0279 h 0.01807 l 0.02142,0.0313 v -0.0279 -0.0148 l 0.03288,-0.0112 0.01159,-0.0313 h -0.0082 l 0.01807,-0.0113 -0.02303,-0.0263 0.01314,-0.0279 v -0.0493 l 0.04779,-0.0708 0.01314,-0.0263 h 0.04117 l 0.01159,-0.0279 0.01159,-0.0543 v -0.0263 l 0.02795,-0.0113 0.0099,-0.0229 v -0.0559 -0.0165 h 0.01649 l 0.01649,-0.0112 v -0.0197 -0.0297 l 0.04779,-0.0395 0.01159,-0.0148 -0.01159,-0.0461 0.02299,-0.0197 -0.02964,-0.0148 v -0.0411 h -0.04612 v -0.0197 l -0.01807,0.0181 v -0.0214 h -0.01314 v 0.0131 h -0.01807 -0.01975 -0.01649 l -0.0099,-0.0214 -0.03456,0.0395 h -0.05925 l -0.01973,-0.0411 v -0.0131 l -0.01807,-0.0279 v 0.0626 l -0.02795,-0.0112 -0.0099,-0.0231 h -0.02299 l 0.0082,0.0231 -0.03623,0.01 -0.02299,-0.0329 v -0.0263 h -0.01481 l -0.01481,-0.0279 v -0.0181 h 0.01807 v -0.0293 h 0.04118 l 0.02634,-0.0263 0.01314,-0.0181 0.0099,-0.0856 0.0313,-0.0181 -0.04937,-0.0477 v -0.0395 l 0.02634,-0.0443 h 0.01159 0.02795 v -0.0297 -0.0197 l 0.01159,-0.074 0.02795,-0.0181 v 0.0214 l 0.01314,-0.01 0.05766,0.0181 h 0.0099 l -0.02634,-0.0148 0.02964,-0.0131 0.01807,-0.0165 0.01807,-0.0164 0.01807,-0.0313 0.01159,-0.0181 h 0.03456 0.01973 l -0.02142,-0.0164 h -0.01481 l 0.02795,-0.0923 -0.02634,-0.0148 0.01314,-0.0165 -0.01649,-0.0148 -0.03456,-0.0148 h -0.01807 v -0.0379 l 0.01649,-0.0577 0.02634,-0.0197 -0.01649,-0.0131 0.01481,-0.0493 h 0.03288 0.01481 l 0.03131,-0.0165 h -0.03288 -0.01649 -0.02964 l -0.0082,-0.0263 0.01481,-0.009 -0.02466,-0.0247 0.02964,-0.0148 -0.03456,-0.009 -0.0082,-0.0214 h -0.01649 -0.03623 -0.01481 -0.01314 l -0.03791,0.0214 -0.04444,-0.0164 v -0.0214 h -0.02468 v -0.0214 l -0.02466,0.0112 -0.02471,-0.0247 v -0.0363 h -0.01159 l 0.01159,-0.0263 h 0.03791 l -0.04779,-0.0263 0.02795,-0.0461 0.04444,0.01 -0.0099,-0.0609 h 0.06912 l 0.01159,0.0691 -0.01975,0.0113 h 0.03949 l 0.06419,-0.0113 0.0099,-0.01 h -0.02142 v -0.0313 h 0.01807 0.06754 l -0.04118,-0.0297 v -0.0279 l 0.04612,-0.0263 h 0.01649 v -0.0329 l 0.01649,-0.0247 v -0.0577 l 0.06586,-0.13172 0.04285,-0.0313 h 0.01649 l 0.02142,0.009 0.03131,-0.0313 0.01159,-0.0112 0.05105,-0.0113 h 0.01649 0.01481 l 0.01481,0.0131 -0.01159,-0.0113 v -0.0164 h 0.01159 0.01159 0.01649 0.01973 l 0.01973,-0.0113 0.01314,-0.0214 -0.0082,-0.0131 -0.01807,-0.0297 -0.01807,0.0113 -0.03624,0.0214 -0.02795,-0.0197 0.02303,-0.0247 -0.03396,0.0176 -0.03131,-0.0165 -0.01807,0.0363 h 0.01975 v 0.0181 h -0.04779 l -0.05766,-0.0443 -0.02142,-0.009 -0.05766,-0.10372 -0.01314,-0.11695 v -0.0247 l 0.01159,-0.0329 h 0.02142 l -0.01481,-0.0231 0.01159,-0.0708 0.01807,-0.009 h -0.01314 l 0.01649,-0.009 0.01974,-0.051 0.09549,-0.0626 0.02795,-0.0395 0.07573,-0.0247 0.04612,-0.0165 0.0313,-0.0379 -0.02795,-0.0164 v -0.0214 h -0.02142 v -0.0214 h -0.01649 l -0.01481,-0.01 h -0.02963 -0.02795 -0.04118 l -0.01159,-0.0297 -0.02468,-0.051 -0.03456,-0.01 -0.02142,-0.0577 -0.03288,-0.0197 0.01314,-0.0297 0.0082,-0.0214 h -0.01159 -0.03456 v -0.0379 h -0.01807 -0.03288 l -0.02142,-0.01 h -0.02142 l -0.02303,-0.0197 0.0313,-0.01 -0.01481,-0.0592 h 0.02468 l 0.01481,-0.01 0.02142,-0.0197 v -0.0165 l -0.01314,-0.0247 v -0.0181 l -0.01649,-0.0131 0.01314,-0.01 0.0099,-0.0148 -0.0082,-0.0131 0.03625,-0.0247 v -0.0165 l -0.02964,-0.0181 v -0.0263 h -0.06754 l 0.02795,-0.0279 0.01159,-0.0131 -0.06419,-0.0642 0.01481,-0.0231 0.0099,-0.0131 -0.02634,-0.0543 0.01973,-0.0493 v -0.0395 l 0.01314,-0.0113 0.02142,-0.0197 h -0.0099 l -0.01481,-0.0131 h -0.01807 v -0.0592 h 0.02963 0.02471 0.02142 l 0.02142,-0.0112 -0.01481,-0.0411 0.04117,-0.0197 h 0.01481 -0.01807 v -0.0329 l 0.0099,-0.0148 0.01159,-0.0112 0.02142,-0.0279 -0.03288,-0.01 v -0.0395 l -0.04937,-0.051 v -0.0313 h 0.02634 v -0.0329 l -0.01314,-0.0231 -0.02634,-0.0113 -0.02142,-0.0411 0.0099,-0.0197 h -0.02142 l -0.01807,0.0113 -0.05598,0.0363 -0.0313,0.0165 -0.03456,-0.0247 0.0099,-0.0148 -0.01314,-0.0297 -0.0099,-0.0263 0.04779,0.0148 -0.01649,-0.0164 0.01314,-0.0329 v -0.0131 h -0.01314 v -0.0461 -0.0148 l 0.02795,-0.0313 v -0.0197 l -0.0099,-0.0164 v -0.0181 l 0.01314,-0.0113 0.02142,-0.0329 h -0.02963 l -0.02634,-0.0131 -0.01649,-0.009 h -0.01481 0.01807 -0.03623 v -0.0411 l 0.01314,-0.01 0.03791,-0.0429 h -0.04285 l -0.01314,-0.0112 h -0.01481 l -0.0099,-0.01 h -0.01159 v -0.0642 h 0.03131 v -0.0247 l -0.02795,-0.009 -0.01314,-0.0363 0.05925,-0.0131 h 0.01159 l 0.02299,-0.01 -0.02963,-0.0148 -0.04612,0.0229 0.02299,-0.0229 -0.0099,-0.0197 h 0.04779 l 0.01159,-0.0181 -0.01314,-0.0148 h -0.03623 l -0.0082,-0.0461 h 0.02142 l -0.01807,-0.0113 0.0099,-0.0113 h -0.01159 -0.0099 l 0.02795,-0.0197 h -0.03791 0.01314 l -0.01807,-0.0263 0.01973,-0.0148 v -0.17616 h 0.01975 0.0099 0.01159 v -0.0345 l 0.02795,-0.0197 v -0.0215 -0.0345 l -0.04612,-0.0493 v -0.0559 -0.0247 -0.0247 l -0.03623,-0.0429 -0.03288,-0.0363 0.01159,-0.0263 -0.02634,-0.0247 0.0082,-0.0165 v -0.0379 l -0.02142,-0.0112 v -0.0164 h -0.02468 l -0.01649,-0.0411 0.01975,-0.0112 -0.02142,-0.0229 v -0.0148 -0.0411 l -0.02142,-0.0197 -0.01314,-0.01 -0.01975,0.0215 -0.110289,-0.01 -0.04779,-0.0444 -0.03949,-0.0231 -0.01159,-0.0197 -0.01807,-0.0345 -0.0099,-0.0165 -0.02964,-0.0165 -0.02795,-0.0131 v -0.0758 l -0.03949,-0.056 v -0.0379 -0.0181 l -0.03625,-0.0922 v -0.0297 l -0.04937,-0.0987 0.0099,-0.0724 v -0.0113 l -0.03949,-0.0461 0.02466,-0.0297 -0.02142,0.0148 -0.01649,-0.0214 0.02142,-0.0148 v -0.0279 l -0.02795,0.01 -0.07574,-0.0708 v -0.0165 h -0.04118 l -0.0099,-0.0214 -0.03131,-0.0675 0.01973,-0.0923 0.01159,-0.0148 h 0.01807 l 0.0099,-0.0181 0.01481,-0.0279 -0.01807,-0.0113 h -0.01649 -0.01314 -0.0099 l -0.0099,-0.0395 0.01314,-0.0131 0.05105,-0.0329 v -0.0164 h -0.01481 v -0.0461 l -0.05766,0.01 -0.02634,-0.0231 0.01649,-0.0477 h 0.02142 l 0.02795,-0.0113 0.01159,-0.0279 v -0.0214 -0.0247 -0.0214 l -0.01649,-0.0113 v -0.0329 0.0214 l -0.02466,-0.0165 0.07247,-0.0411 0.01159,-0.0395 -0.0082,-0.0247 v -0.0181 l 0.04937,-0.0691 0.04117,0.01 h 0.01481 0.01649 0.03623 l 0.01649,-0.0113 h 0.02468 0.01314 v 0.0113 h 0.01481 0.01481 0.01314 v 0.0181 l 0.01649,0.01 h 0.01649 l -0.0082,-0.0148 0.02299,-0.0214 0.01314,-0.01 0.04444,0.0444 0.01649,-0.0329 -0.02142,-0.0113 v -0.0313 l -0.0082,-0.0165 h -0.01481 l -0.01481,-0.0231 -0.01159,-0.0164 v -0.0297 l 0.02963,-0.0329 v 0.0181 h 0.02303 v -0.0229 h 0.01159 0.01974 v -0.0181 h -0.01649 l 0.0395,-0.0247 -0.06091,0.0131 h -0.01159 -0.01807 l -0.02299,-0.0263 -0.02634,-0.0165 v -0.0263 l 0.0099,-0.0165 0.01649,-0.0113 0.0099,-0.0214 h -0.01314 l -0.03288,-0.0113 -0.02468,-0.0247 v -0.0297 -0.0987 l 0.01481,-0.0131 h -0.02142 v -0.0379 -0.0197 -0.0197 -0.0197 l 0.0099,-0.01 h -0.01973 0.01314 l 0.02142,-0.0164 -0.03288,-0.0131 0.01481,-0.0197 -0.02634,-0.01 v -0.0229 -0.0197 l 0.01314,-0.0131 0.01973,-0.0297 h -0.01649 l -0.0099,-0.0313 v -0.0181 l 0.02142,-0.01 -0.01973,-0.0197 v -0.0197 -0.0197 l 0.02468,-0.0214 0.02299,-0.0313 -0.0099,-0.0113 h -0.01159 -0.01649 l 0.01649,-0.0279 -0.01649,-0.0113 0.01649,-0.01 -0.03288,-0.0329 0.02795,-0.0229 -0.02795,-0.0131 -0.0099,-0.0279 h -0.04612 l 0.04444,-0.0527 h -0.02634 l -0.02634,0.0229 v -0.0197 h -0.04937 v -0.0148 -0.0214 h -0.02303 v -0.0231 l -0.01649,-0.0313 -0.01974,0.0313 h -0.01481 l -0.01481,-0.0131 v -0.0543 l -0.01973,-0.0411 -0.01807,-0.0148 -0.01481,0.0131 v -0.0197 h -0.02142 l 0.02303,-0.01 h 0.01807 v -0.0214 h -0.01481 v -0.0477 h -0.02795 l -0.03288,-0.0477 v 0.0148 l -0.05272,-0.0197 0.02468,-0.0477 v -0.051 l -0.0099,0.0148 h -0.03288 v -0.10211 h -0.01481 -0.02795 l 0.0082,-0.0164 0.01159,-0.0279 v -0.0379 l -0.01807,-0.0181 v -0.0214 l -0.01159,-0.0279 -0.02142,-0.0363 -0.02964,0.0197 -0.02142,-0.0395 h -0.02468 l -0.05598,0.0658 -0.01973,-0.0131 v -0.0181 h -0.01314 l -0.02466,-0.0131 -0.01159,0.0131 h -0.01481 v 0.0148 l -0.01159,0.0131 -0.0082,0.0113 h -0.04117 l -0.01973,-0.0148 h -0.01807 l -0.06754,0.01 -0.03456,-0.0148 -0.05925,-0.0164 -0.005,-0.0297 -0.01649,-0.0247 -0.02303,0.0181 -0.01481,-0.01 -0.02299,0.0231 -0.02142,0.0297 -0.01314,-0.0113 -0.01807,-0.0329 h 0.01807 l -0.03288,-0.0297 -0.01314,-0.0112 -0.0082,-0.0411 0.02471,-0.0214 v -0.0197 l -0.02634,0.0231 -0.01649,0.0165 v -0.0363 l -0.05273,0.0214 -0.03791,-0.0379 0.01159,-0.0477 0.03288,-0.0443 -0.01649,-0.0279 h -0.04285 l -0.03949,-0.0642 0.01649,-0.0197 -0.01481,-0.0297 -0.03949,-0.0197 0.01973,-0.0214 h -0.02299 l -0.02468,-0.0493 -0.0313,-0.0181 -0.02795,-0.0165 -0.02299,-0.0113 -0.01159,-0.0345 -0.04446,-0.0313 h -0.01649 v -0.0345 l -0.01314,-0.0329 -0.02634,0.0197 -0.01159,-0.0181 0.0099,-0.0313 v -0.0164 h -0.02142 l 0.01807,-0.0329 h -0.02634 v -0.0279 h -0.02468 l 0.0099,-0.0247 v -0.0197 h -0.02299 v -0.0214 l -0.01481,-0.0181 0.02303,-0.0197 h -0.02471 v -0.0197 h -0.02468 l 0.01807,-0.0113 v -0.0181 l -0.01649,0.0112 -0.01314,-0.0214 h -0.01807 l 0.0099,-0.0247 -0.02964,-0.0231 0.01159,-0.0443 h -0.01481 -0.02466 v -0.0165 l -0.0082,-0.0113 v -0.0181 l -0.01649,0.0165 h -0.01973 -0.01649 l -0.02468,0.009 h -0.04779 l -0.01973,-0.0313 v -0.0313 l -0.0082,-0.0148 h -0.04118 l 0.02471,-0.0214 -0.0082,-0.0131 v -0.0165 l -0.06754,0.0444 h -0.01314 l -0.01649,-0.0148 v 0.0263 l -0.0099,0.01 v -0.0247 l -0.02964,-0.01 h -0.01159 l -0.04285,-0.0263 h -0.01314 l -0.03949,-0.0197 h -0.01676 v -0.0197 h -0.02299 l -0.0099,-0.0148 h -0.01807 -0.07079 l -0.03456,-0.0774 0.01314,-0.0231 h -0.02142 l 0.0082,-0.0113 v -0.0164 l -0.01975,-0.0131 -0.01649,-0.009 -0.01159,-0.01 -0.01314,-0.0113 h -0.01159 l -0.0099,-0.0131 h 0.01159 l -0.01807,-0.009 v -0.0247 l -0.0313,-0.0461 h -0.01481 l 0.0082,-0.0131 h -0.01807 v -0.0164 l -0.01973,-0.0181 -0.02303,-0.0148 v -0.0231 l -0.03625,-0.0231 v -0.0165 l -0.107034,-0.10374 -0.01481,-0.0543 0.0082,-0.0626 -0.02142,-0.0379 v -0.023 l -0.02303,-0.0165 h -0.01159 l -0.02142,-0.0461 -0.01649,-0.19759 0.04612,-0.11034 -0.0099,-0.0395 -0.08068,-0.0923 -0.01159,-0.0461 v -0.0411 l -0.01481,-0.0329 0.03288,-0.2898 0.05273,-0.10036 0.02299,-0.0165 0.0099,0.0113 0.04444,-0.0379 -0.01481,-0.0181 0.03624,-0.0164 0.03456,0.0329 -0.02299,-0.0461 v -0.10211 l 0.05105,-0.10871 0.105352,-0.14327 0.120163,-0.11857 0.02303,0.0443 v -0.0197 l 0.04444,-0.0148 0.120163,0.0626 0.03949,0.0231 h 0.01314 l 0.0099,-0.0113 h 0.01314 0.0099 l 0.102097,-0.0197 v -0.0181 l 0.04118,-0.0345 h 0.06091 l 0.03288,-0.0247 v -0.0379 -0.0263 -0.051 l 0.02634,-0.0297 0.01973,-0.0379 0.01481,-0.0181 v -0.0164 h 0.01314 l -0.02634,-0.0165 h -0.01481 -0.01159 l -0.02634,-0.0113 -0.06585,-0.13665 v -0.051 l -0.01807,-0.0148 -0.03625,-0.0131 -0.02142,-0.0279 v -0.0131 l -0.04442,-0.0131 v -0.056 l -0.01314,-0.0181 -0.03791,-0.0279 0.01159,-0.0443 0.02142,-0.0263 h -0.07081 l -0.0099,-0.0279 0.01973,-0.0477 -0.01649,-0.0477 -0.01481,-0.009 h -0.01314 l -0.01159,-0.01 -0.08393,-0.0592 -0.01807,-0.01 v -0.0263 l -0.01481,-0.01 v 0.0148 h -0.1251 v -0.0395 -0.0164 h -0.01481 -0.01481 l -0.09055,-0.0461 -0.06754,-0.0592 -0.03625,-0.0279 v -0.0181 l -0.02299,-0.0363 -0.05598,-0.01 v -0.0313 l -0.07574,0.0148 -0.03791,-0.0197 v -0.0229 l -0.04118,0.01 -0.01481,-0.0165 h -0.01314 l -0.05925,-0.0231 0.03949,0.0345 -0.04937,0.0131 -0.02963,0.01 -0.07081,-0.0493 -0.01807,-0.01 v -0.0429 h -0.179507 v -0.0165 l -0.0626,0.0113 -0.02142,-0.0509 h -0.02634 l -0.02795,-0.0494 -0.01973,-0.0642 -0.01807,-0.033 -0.09548,-0.0231 -0.0099,-0.12018 h 0.04444 l 0.01314,0.0691 h 0.02303 v 0.0279 l 0.116909,0.0658 -0.04285,-0.0363 0.05766,-0.0577 v -0.0345 l -0.03456,-0.0197 v -0.074 l 0.105351,-0.0113 -0.01975,-0.0395 -0.111972,-0.01 v 0.0279 h -0.01973 v -0.0247 l -0.01314,-0.0493 v -0.0461 -0.0213 l 0.03623,-0.14652 0.07573,-0.0691 0.05431,-0.11695 h 0.0099 l 0.107035,0.0807 0.03782,-0.0493 -0.06912,-0.0527 0.02303,-0.0297 0.03456,-0.0477 0.03456,0.0214 0.04444,-0.0756 0.03288,-0.0214 0.14327,0.0297 0.103781,-0.0181 0.05273,0.0297 v 0.0165 -0.0411 h -0.01807 l 0.01649,-0.0165 h -0.03456 l -0.01481,-0.0329 0.01481,-0.0444 v -0.0395 l -0.01159,-0.0164 -0.01973,-0.0379 0.01649,-0.0363 v -0.0148 l -0.01481,-0.0477 0.02795,-0.0708 -0.0082,-0.0429 v -0.0197 l -0.04118,-0.0675 v -0.0411 l -0.05925,-0.0577 0.0082,-0.0379 -0.01314,-0.0148 -0.02964,-0.0247 -0.01481,-0.0197 -0.03623,-0.0214 v -0.0181 l -0.0099,-0.0231 0.03791,-0.0197 v -0.009 h 0.01159 l -0.01481,-0.0113 0.01973,-0.0181 -0.01159,-0.0113 v -0.0148 h -0.02795 l 0.01807,-0.0247 h 0.01807 v -0.0213 h -0.01807 -0.02142 l 0.0099,-0.0164 h -0.01807 v -0.0297 h -0.01649 -0.01973 v -0.0247 -0.0214 -0.0131 l -0.01159,-0.0181 v -0.0214 l 0.01159,-0.0165 -0.03791,-0.0148 0.03288,-0.01 h -0.02299 l 0.01649,-0.01 -0.01649,-0.01 h -0.01314 l -0.01649,-0.009 0.0099,-0.0148 h 0.0099 0.01481 v -0.0131 l -0.03949,-0.0197 0.02634,-0.01 h 0.01314 l -0.01481,-0.0411 v -0.0181 l -0.02963,0.0148 v -0.0214 h -0.01481 v -0.0148 l -0.01159,-0.009 v 8.5e-4 h 0.01973 l -0.06912,-0.0231 h 0.0099 0.01975 v -0.0379 l -0.02142,0.0181 0.02299,-0.0494 -0.02299,-0.0148 h 0.02634 l -0.01159,-0.0411 -0.01807,-0.01 -0.0082,-0.0165 -0.01649,-0.0214 h -0.01649 v -0.0181 l -0.01159,-0.0181 h -0.01807 l 0.01159,-0.0148 -0.02466,-0.009 0.01807,-0.01 h -0.04285 l 0.01649,-0.009 h -0.01481 0.02468 l -0.03623,-0.0379 -0.02303,-0.0411 -0.0099,-0.0181 0.0082,-0.0181 -0.01649,-0.0197 v -0.0148 h -0.01807 -0.02466 l 0.01649,-0.0197 h -0.02468 l 0.02468,-0.0164 -0.01975,-0.0279 v 0.0164 l -0.02299,-0.0164 v -0.0165 l -0.05766,-0.0363 v -0.0181 -0.0113 h -0.02468 v -0.0379 l -0.02142,-0.0181 -0.01973,-0.0112 0.02466,-0.0131 -0.03288,-0.0263 h 0.01481 l -0.01314,-0.0329 h -0.01314 l -0.02634,-0.0148 -0.0099,-0.0231 -0.02303,-0.0247 v -0.0247 l 0.02142,-0.0113 -0.01314,-0.0345 h -0.0099 l -0.02795,-0.061 -0.0313,-0.0197 v -0.0148 -0.0197 l -0.01314,-0.0181 -0.02466,-0.0313 v -0.0297 -0.0197 -0.0148 l -0.01159,-0.0263 -0.01649,-0.0329 h 0.01649 l -0.02142,-0.0112 0.0082,-0.0197 -0.02468,-0.0214 h -0.01159 -0.01159 v -0.0131 -0.0231 -0.0164 l -0.01481,-0.0197 0.01481,-0.0197 -0.02634,-0.023 v 0 h -0.01807 -0.01807 l -0.04779,-0.0313 v -0.0279 -0.0181 l -0.0378,-0.0147 h -0.01975 v -0.0148 l -0.05431,-0.0493 -0.01481,-0.074 v -0.0676 l -0.0626,-0.1416 v -0.1877 l -0.01649,-0.0395 0.0099,-0.10211 0.03288,-0.0626 -0.02634,-0.0395 v -0.0363 l -0.01314,-0.0181 -0.02634,0.0113 -0.02299,-0.0297 -0.04779,0.0247 -0.03781,-0.0231 -0.0099,-0.0329 v -0.0322 h 0.03456 l -0.02795,-0.0461 0.0313,-0.0247 h -0.07406 l -0.02303,-0.0247 -0.103768,-0.0297 -0.04285,-0.0509 -0.0313,-0.0971 0.04285,-0.13993 v -0.10373 l -0.02303,-0.0214 v -0.0148 l -0.05273,-0.0443 -0.02142,-0.0592 -0.06586,-0.079 -0.151465,-0.10211 -0.01159,-0.0708 -0.0313,-0.0461 -0.111972,-0.0363 -0.01807,-0.0197 0.01481,-0.0131 -0.02468,-0.0181 h -0.01649 l -0.05431,-0.0592 -0.02142,-0.0592 v -0.0493 l -0.05273,-0.0559 -0.05105,-0.0839 -0.01159,-0.009 h -0.02795 l -0.01807,-0.0395 0.01807,-0.0247 h -0.01314 l -0.01481,-0.0592 0.05598,-0.0197 0.01159,0.0231 v -0.0297 l -0.02142,-0.0313 v 0.0214 l -0.05431,-0.01 0.01159,-0.051 v -0.0214 -0.0443 h 0.03288 -0.04118 l -0.03288,-0.11695 -0.116908,-0.18602 0.02963,-0.0247 -0.02303,0.0113 -0.01973,-0.0214 -0.164599,-0.0297 -0.07247,-0.14328 -0.01314,-0.0857 0.01974,-0.0247 -0.01974,-0.0329 h -0.01481 l -0.0856,-0.0279 -0.06754,-0.0493 -0.09381,-0.1646 v -0.0181 h -0.01807 v -0.0628 l -0.12678,-0.14978 -0.01159,-0.0197 -0.134979,0.0477 v 0.0363 l -0.03396,0.0141 v 0.0247 l 0.01649,0.0658 -0.04612,0.0363 -0.05431,0.13833 -0.04779,0.0379 -0.138334,0.056 v 0.0297 l -0.02299,0.0411 -0.09548,0.0429 -0.01159,0.0297 -0.05431,0.0263 -0.116908,-0.0148 -0.14653,0.14328 -0.17941,0.061 -0.02634,0.0247 -0.03949,-0.0148 -0.279925,0.0197 -0.03791,0.0263 -0.02634,0.051 v 0.0297 l -0.02634,0.0279 h -0.05766 l -0.07741,0.0379 -0.06912,-0.0113 -0.09716,0.0363 -0.06092,0.0247 -0.0313,0.0477 v 0.0363 h -0.03456 l -0.04118,0.0527 h -0.0626 l -0.02795,0.0708 v 0.0461 l -0.01649,0.0461 -0.08066,0.0756 v 0.19591 l 0.03791,0.0131 0.03624,0.051 -0.03624,0.12677 0.02142,0.0642 0.06419,0.0543 -0.02466,0.0658 -0.08235,0.0461 -0.01159,0.0148 v 0.0642 l -0.09716,0.0889 -0.09222,0.0345 -0.0099,0.10037 -0.04779,0.0131 -0.126781,0.11196 -0.06419,0.0214 -0.09874,-0.0148 -0.04779,0.0724 -0.01481,0.0247 -0.111972,0.084 -0.04779,0.0987 h -0.04612 v 0.0164 l -0.08066,0.0609 h -0.02634 l -0.02303,0.0148 h -0.0313 v -0.0363 l -0.03456,-0.0113 -0.01649,-0.0363 -0.04285,-0.0279 -0.0313,0.0297 -0.06585,0.0131 -0.07249,-0.0411 -0.11858,-0.01 -0.06419,-0.0461 -0.08393,-0.13005 -0.04444,-0.0313 -0.03288,-0.0577 v -0.0395 h -0.03456 l -0.04285,-0.0313 -0.103781,0.0477 -0.04612,-0.0477 v -0.0577 l -0.01314,-0.0411 -0.181088,-0.13339 h -0.05766 l -0.04285,-0.0756 h -0.04779 l -0.01975,-0.0363 -0.06419,0.009 -0.08886,-0.0329 -0.04117,0.0214 -0.07081,-0.0197 h -0.0313 l -0.07247,0.0642 -0.134979,0.0131 -0.04612,0.0443 -0.149787,-0.0113 -0.04117,-0.0379 -0.01807,-0.01 -0.03623,-0.009 -0.08235,0.0708 h -0.08066 v 0.0379 l -0.04779,0.11856 -0.04937,0.0113 v 0.0329 l -0.04118,0.051 v 0.0806 l -0.079,0.0263 -0.01807,-0.0658 h -0.07573 l -0.253563,0.1646 -0.04118,-0.0658 v -0.0411 l -0.02795,-0.009 -0.02468,-0.0923 -0.03288,-0.0477 h -0.01481 l -0.0099,-0.01 -0.06585,-0.01 -0.07081,0.0937 -0.01973,0.056 v 0.0363 l -0.08393,0.0395 -0.01159,0.0461 0.01807,0.0297 v 0.0527 0.0429 0.0131 l -0.128463,0.16461 -0.03623,0.0806 v 0.0543 l -0.103768,0.0905 v -0.0592 l -0.07247,-0.0592 -0.06754,0.13004 -0.215646,0.1152 -0.05925,0.0131 -0.0856,0.0824 h -0.04442 v -0.10036 h -0.07247 l -0.02964,-0.023 0.04937,-0.0724 -0.03288,-0.0527 -0.07247,-0.0379 -0.113643,-0.0247 -0.02963,-0.0543 -0.05925,-0.0329 0.0082,-0.0774 0.03949,-0.0477 0.01314,-0.0443 v -0.0527 l 0.01481,-0.0444 v -0.0406 l -0.0313,-0.0411 v -0.0756 l -0.05105,-0.0477 h -0.08066 l -0.03791,-0.0329 -0.01481,-0.0609 -0.05431,-0.0112 -0.01649,-0.0363 0.01159,-0.0443 -0.0099,-0.0363 h -0.08562 l -0.0082,-0.0297 -0.0626,-0.0461 h -0.02303 l -0.03288,0.0461 v 0.0395 l -0.08068,0.074 -0.09716,0.0363 -0.04937,-0.0148 -0.107033,0.01 -0.103781,0.0708 0.03949,0.0329 0.01159,0.0379 -0.01649,0.0345 -0.06754,0.0443 0.02142,0.11358 -0.01314,0.0592 -0.07247,0.0691 -0.164599,0.0756 -0.03949,0.0477 -0.07741,0.0131 -0.19432,-0.13991 -0.05272,-0.0165 -0.04117,0.0148 -0.05105,0.0889 v 0.051 l 0.02303,0.0297 -0.01807,0.0411 H 48.8788 l -0.123528,0.0297 -0.07742,0.10872 -0.139913,0.0807 -0.05105,0.0873 -0.05924,0.0297 -0.0099,0.0461 -0.133401,0.0148 -0.02142,0.0411 v 0.0247 l -0.03456,0.0197 -0.0082,0.0592 -0.102098,0.12845 v 0.079 l -0.197576,0.0345 -0.04937,0.0444 -0.06419,0.0112 -0.138335,0.12181 h -0.134968 l -0.03949,0.0165 -0.227198,-0.0708 -0.121846,-0.01 -0.08729,0.0955 -0.146529,0.0197 h -0.01649 l -0.03791,0.0279 -0.108718,0.0937 -0.164599,0.0279 -0.02142,0.0214 -0.143272,-0.0231 -0.04444,0.0477 -0.04779,0.1251 -0.110289,0.0279 -0.200835,0.10872 -0.03623,0.0577 -0.103781,0.0543 -0.03288,0.0493 -0.100413,0.0691 -0.07742,0.0329 -0.07247,-0.0148 0.219006,0.55323 -0.07741,0.0543 -0.04779,0.0937 -0.210709,0.0263 -0.08887,0.079 h -0.03623 -0.05272 l -0.04937,-0.0411 -0.09548,0.0297 -0.05598,-0.01 -0.09222,0.0857 -0.06092,0.0214 -0.07741,0.0955 -0.03791,0.0987 -0.06912,0.0642 -0.01649,0.0379 -0.09548,0.0363 -0.108718,0.0113 -0.07741,-0.0197 h -0.09874 v 0.074 l -0.09716,0.0477 -0.079,0.084 -0.0461,0.0113 -0.03623,0.0493 -0.05431,0.0214 -0.02303,0.0658 v 0.0691 l -0.08235,0.0429 -0.113642,0.01 h -0.01481 v 0.0411 l -0.06754,0.009 h -0.0082 l -0.0461,-0.0313 -0.09222,0.0297 -0.08393,-0.0758 -0.111972,0.0411 -0.116909,-0.10211 -0.10378,0.051 -0.141593,0.0345 -0.03288,-0.0806 -0.04285,-0.0247 0.0099,-0.0379 -0.0099,-0.0231 -0.08235,-0.0297 -0.07573,0.0113 0.01975,-0.0658 -0.01975,-0.0577 v -0.0577 l -0.05431,-0.0592 0.02636,-0.0263 v -0.056 l -0.07405,-0.0724 -0.108718,-0.0329 -0.06585,-0.074 v -0.0675 -0.0197 l -0.21071,0.0363 -0.01159,0.01 -0.02794,0.0824 -0.0626,0.0708 0.02637,0.10873 -0.01159,0.11856 0.03129,0.0824 -0.02963,0.0691 -0.0626,-0.0131 -0.08235,0.0363 h -0.212389 l -0.138335,0.0691 -0.164598,0.0131 -0.02963,-0.0112 -0.08887,0.0444 -0.02468,0.11195 -0.04612,0.0443 -0.08066,0.0247 -0.04937,0.0477 0.07079,0.0363 -0.01649,0.0937 v 0.0263 l -0.04444,0.0247 -0.01807,0.0429 -0.133397,0.14161 v 0.0626 l 0.03625,0.0527 0.01312,0.10535 0.01649,0.0181 -0.297996,0.27164 -0.023,0.0477 -0.04612,0.0395 -0.06912,0.0395 -0.108717,0.0279 -0.14653,0.11034 -0.02144,0.0527 0.01648,0.0708 0.02963,0.0329 v 0.0493 l 0.0461,0.0577 0.06754,0.0411 0.03949,0.0756 0.141591,-0.0345 0.11858,0.0214 0.05598,0.074 -0.02794,0.0395 0.01807,0.0642 -0.01649,0.0774 -0.06093,0.0493 -0.05766,0.11357 -0.04937,0.051 v 0.10037 l -0.07406,0.0592 -0.08887,0.13991 v 0.0477 l 0.14653,0.22888 -0.06754,0.12846 v 0.051 l 0.143272,0.0214 h 0.01649 l 0.04937,0.0313 v 0.0148 l -0.03456,0.0609 0.0099,0.13498 -0.0082,0.0181 h -0.03791 l -0.01159,0.079 v 0.12181 l -0.03623,0.0461 v 0.0527 l -0.03288,0.0165 -0.03949,0.0824 -0.07741,0.0345 -0.03791,0.0676 -0.079,0.0724 -0.08235,-0.0313 -0.06585,0.0329 -0.01481,0.0148 v 0.074 l -0.05598,0.0215 v 0.0905 l -0.143272,0.0889 v 0.0395 l 0.06092,0.22394 0.03288,0.0626 0.04937,0.0461 -0.01975,0.0857 0.02468,0.0461 v 0.0873 l 0.09054,0.18603 v 0.0774 l -0.02468,0.0461 0.01649,0.14326 -0.100415,0.15474 0.02794,0.0576 -0.023,0.0231 0.03456,0.0543 -0.01313,0.0313 0.06091,0.0379 0.02144,0.056 -0.05273,0.0577 v 0.0411 l 0.05766,0.0889 -0.0099,0.0443 -0.08066,0.0576 -0.05598,0.10373 v 0.0708 l -0.01481,0.0559 0.05105,0.11034 v 0.16459 l -0.02794,0.1251 -0.02794,0.0395 -0.02794,0.3293 -0.03288,0.0329 0.05105,0.14822 -0.01159,0.11196 0.03456,0.10211 -0.01807,0.0724 v 0.0279 l 0.121845,0.0363 0.01975,0.0592 0.05431,0.0609 -0.03456,0.0411 0.01649,0.0411 -0.01159,0.0543 0.01975,0.10036 -0.08066,0.0708 v 0.0857 l -0.01807,0.0592 0.01807,0.0477 0.09548,0.12019 v 0.0527 l -0.03456,0.0708 v 0.0345 l -0.02962,0.0313 0.212388,0.18276 0.01312,0.0148 0.05925,0.12355 v 0.26176 l -0.01975,0.0279 v 0.0313 l 0.164599,0.16459 v 0.0297 l 0.04937,0.0873 0.05105,0.16459 v 0.0263 0.1416 l -0.03129,0.10872 -0.09884,0.0297 -0.07742,0.0576 -0.08393,-0.0148 -0.164599,0.0345 -0.02469,0.0197 -0.02635,0.0676 -0.05598,0.0363 h -0.01159 l -0.105352,-0.0527 h -0.01159 l -0.04612,-0.0429 -0.0461,-0.0477 0.03288,-0.0411 -0.005,-0.0165 -0.134977,-0.0577 -0.05431,0.0247 -0.0626,-0.01 v -0.0461 l 0.05431,-0.0756 -0.01975,-0.0577 -0.02794,-0.0279 h -0.06754 l -0.02468,-0.0807 -0.05598,-0.0345 -0.04118,0.0148 -0.0099,0.0609 -0.02637,0.0229 -0.08066,0.0181 -0.03456,-0.0131 -0.02469,0.0873 h -0.164583 l -0.182767,-0.0658 -0.03456,0.0197 -0.023,0.0873 -0.08729,0.0839 -0.09381,0.0148 -0.03623,0.0329 v 0.0313 l -0.03456,0.0148 -0.01159,0.0609 -0.03949,0.0395 0.02468,0.16459 v 0.0379 l 0.09874,0.0477 -0.08066,0.074 0.100414,0.11034 0.0099,0.0592 -0.0461,0.16459 -0.04118,0.0527 0.02794,0.0658 v 0.1482 l -0.06419,0.0923 v 0.0807 l 0.105351,0.0511 -0.03623,0.0873 0.177831,0.0658 0.07406,0.0559 0.01807,0.0592 0.04937,0.01 0.05273,0.0395 0.164599,-0.0905 0.03791,0.0148 0.0461,0.0511 0.06912,-0.0165 0.06092,0.0329 0.03623,0.0345 0.04285,0.12356 h 0.07741 l 0.08393,0.0856 0.04937,0.009 0.07247,0.0443 0.03129,-0.0148 0.04285,0.0181 0.04444,0.11034 0.04285,0.0263 0.03129,0.0477 v 0.11197 l 0.02142,0.0279 -0.09222,0.0511 -0.08393,0.0807 -0.12846,0.21071 -0.09054,0.0592 -0.10378,0.12355 h -0.07247 l -0.05598,0.074 -0.03456,0.11857 -0.03949,0.0592 0.01313,0.0363 -0.01313,0.0363 -0.105352,0.0889 -0.05925,0.009 -0.06754,0.0757 0.03623,0.0989 -0.02144,0.1646 -0.04937,0.0708 -0.133398,0.10036 -0.228879,0.0889 h -0.13004 l -0.01807,0.0329 -0.110289,0.0609 v 0.0477 l 0.08887,0.01 0.05766,0.0329 0.04444,0.0625 -0.01481,0.0938 0.05598,0.0181 0.02636,0.0429 0.03288,0.0165 -0.01807,0.0379 0.0099,0.0511 h 0.01313 l 0.01807,0.0889 0.03791,0.0148 0.0082,0.0443 0.023,0.0197 0.023,0.10037 0.100415,-0.0329 h 0.133396 l 0.09874,0.0774 0.0099,0.0724 -0.03129,0.0989 0.02144,0.0131 v 0.0823 l 0.023,0.0231 v 0.0576 l 0.03129,0.0477 0.05925,0.0395 v 0.0395 l 0.08235,0.0429 0.03288,0.0429 h 0.03129 l -0.01649,0.0576 -0.05598,0.0577 -0.01649,0.11034 0.04117,0.0691 -0.01649,0.0708 0.04937,0.0493 -0.0082,0.0757 0.023,0.0395 0.0082,0.10211 -0.023,0.0411 -0.03625,0.30125 0.04444,0.0889 -0.08393,0.084 -0.06419,0.0231 v 0.0527 l -0.04285,0.0691 -0.01159,0.13991 -0.09874,0.1251 v 0.0626 l 0.02794,0.0758 v 0.0823 l -0.05273,0.0313 -0.07247,0.11856 0.02794,0.0626 0.02144,0.12846 -0.03129,0.0214 v 0.0247 l -0.01807,0.0263 -0.06091,0.0822 -0.0461,0.0329 -0.0099,0.0313 v 0.0131 l -0.01649,0.0113 -0.01975,0.01 h -0.023 l -0.06418,-0.0165 h -0.08066 l -0.110288,-0.0181 -0.01159,0.0543 -0.05431,0.0559 -0.01649,0.11521 0.04444,0.15314 -0.138335,-0.0165 -0.04937,0.0197 -0.0395,0.0477 -0.128459,0.0229 -0.04285,0.0824 v 0.0576 l -0.08729,0.16459 -0.03456,0.0247 -0.04779,0.14328 -0.154724,0.0493 -0.148209,0.10037 -0.08393,0.01 -0.126783,-0.0247 -0.07079,0.19926 v 0.0757 l 0.04118,0.0493 v 0.0345 l 0.2272,0.17783 0.01312,0.0443 -0.023,0.0329 v 0.0905 l 0.03791,0.12019 -0.01807,0.056 -0.03456,0.0379 -0.023,0.28981 -0.02794,0.0279 -0.10535,-0.0279 -0.07247,0.0559 -0.04444,0.0113 -0.03288,0.0395 v 0.0363 l -0.03456,0.0824 h -0.04444 l 0.06912,0.0807 -0.01975,0.0658 0.01159,0.12181 -0.02468,0.01 -0.06586,-0.0214 -0.05105,0.0905 -0.08235,0.0758 v 0.0774 l -0.01313,0.0559 0.04444,0.0429 0.03456,0.10211 0.02963,0.0313 0.01313,0.0807 0.08066,0.0493 0.03623,0.0691 -0.06585,0.0543 h -0.105351 l -0.07247,0.0592 -0.01312,0.0297 -0.07574,0.0197 -0.04444,0.0313 -0.01481,0.0461 -0.04937,0.0493 h -0.03288 l -0.08235,0.0741 -0.02794,0.0279 h -0.0099 l -0.14327,0.051 -0.04779,0.12847 -0.04118,0.0214 -0.04285,0.0626 h -0.03288 l -0.01975,0.11358 -0.04285,0.0345 -0.01975,0.0757 -0.02794,0.0363 0.01975,0.0724 h 0.02794 l 0.02962,0.0559 0.04117,0.0313 0.01159,0.0148 0.05766,0.10697 0.01481,0.0824 v 0.0148 0.0297 l -0.01313,0.0806 -0.04118,0.0857 0.02468,0.0609 -0.03623,0.0807 -0.01481,0.0131 -0.02794,0.0477 -0.01481,0.0493 -0.02637,0.0197 -0.01313,-0.0247 -0.04444,-0.0247 -0.03791,0.0543 -0.116908,-0.0197 -0.1646,0.0824 -0.04444,0.0113 -0.03791,-0.0231 -0.01649,0.10873 0.02636,0.0527 0.08729,0.0329 -0.023,0.0756 0.04118,0.0477 -0.113654,0.0987 -0.0099,0.0131 v 0.0379 l -0.023,0.0247 -0.02962,0.0889 h -0.02963 l -0.02794,0.0807 0.06419,0.0509 0.03624,0.0165 0.0626,0.0708 0.09222,0.0197 0.01975,0.0329 h 0.06754 l 0.03623,-0.0379 0.09874,-0.0131 0.08066,0.0724 v 0.0363 l 0.01649,0.009 -0.02794,0.069 0.0099,0.0527 -0.023,0.0477 0.01481,0.0577 -0.05598,0.0577 -0.01313,0.0823 h 0.01975 l 0.02144,0.0543 h 0.03129 l 0.05924,0.0577 0.01807,0.0626 0.06092,0.0131 0.06585,0.0626 0.09222,0.0197 -0.0626,0.19757 -0.03456,0.0297 0.01313,0.0263 v 0.0691 l 0.09054,0.0839 0.06585,-0.0247 0.09548,0.0543 h 0.06754 l 0.01312,0.0279 v 0.0609 l 0.03625,0.0131 0.01649,0.0297 v 0.0297 l 0.01807,0.084 h 0.03129 l 0.02637,0.12356 -0.120162,0.0379 h -0.113655 l 0.0082,0.0313 -0.02636,0.0626 0.0099,0.0411 -0.01481,0.0493 -0.07573,0.0559 v 0.0411 l -0.03623,0.0708 v 0.0592 l 0.05431,0.023 0.04444,0.0691 -0.023,0.074 -0.06419,0.0955 v 0.12847 l 0.05105,-0.0165 h 0.130039 l 0.04444,-0.0527 0.02963,0.0527 0.05598,0.0443 0.0099,0.0395 0.05105,0.0313 0.02637,-0.0231 h 0.05431 l 0.01975,0.0214 0.03949,-0.0181 0.03288,0.0642 v 0.0856 l -0.04612,0.0395 0.03129,0.13991 -0.01807,0.0774 0.01481,0.0493 -0.01975,0.0626 0.03129,0.0297 v 0.1152 l 0.04118,0.0181 h 0.07247 l 0.02637,0.0461 h 0.07573 v 0.0263 l 0.110288,0.0806 h 0.07573 l 0.05431,0.0807 0.100415,0.0577 h 0.04779 l 0.03288,-0.0363 h 0.07405 v 0.051 l 0.04118,0.0559 v 0.0247 l 0.05924,0.0363 0.02794,0.056 0.03949,0.0131 0.05105,-0.0112 0.02637,0.0313 0.04779,0.0131 0.02962,0.056 0.05766,-0.0379 0.03288,0.0971 0.04444,0.0675 0.07742,0.0691 0.023,0.0691 0.08887,0.0443 0.164598,0.0429 -0.05766,0.11857 0.01159,0.0247 v 0.074 l 0.02637,0.0577 v 0.0493 l -0.06091,0.0411 -0.164599,0.0527 h -0.148207 l -0.01975,0.11033 -0.06419,0.0231 -0.01159,0.0758 -0.06091,0.0774 0.079,0.12845 0.01975,0.10373 -0.02468,0.0477 v 0.0824 l -0.03456,0.0609 0.09222,0.0708 0.03949,0.0527 0.164599,-0.0363 0.04612,0.0774 0.0856,0.0297 0.08235,0.0626 h 0.01159 l 0.181089,-0.0379 0.06585,0.0609 0.03791,0.0609 0.08066,0.0642 0.04937,0.0806 v 0.0592 l -0.102097,0.0527 -0.079,0.0345 -0.07247,-0.0411 -0.07741,0.0691 -0.08887,0.0395 -0.04937,0.1646 -0.05431,0.0379 -0.08235,-0.0411 -0.02963,-0.0461 -0.09548,0.0197 -0.05598,0.13339 -0.01807,0.10211 -0.110288,0.12181 0.01312,0.0197 -0.01481,0.0542 -0.126782,0.1646 -0.01159,0.074 h -0.06585 l -0.07079,0.0313 -0.06912,0.0592 -0.01649,0.0642 0.04937,0.13991 h 0.14327 v -0.0214 l 0.05766,0.11033 0.14653,0.0889 0.05272,0.0658 -0.07405,0.10871 -0.136655,0.0543 H 38.24076 l 0.0099,0.0955 -0.01975,0.0444 0.0099,0.0297 h 0.04444 l 0.079,0.0379 v 0.0675 l 0.03288,0.0231 -0.02794,0.0493 v 0.0197 l -0.03129,0.01 -0.03791,0.079 -0.01807,0.0938 -0.04612,0.0691 v 0.0395 l 0.02468,0.056 -0.02794,0.051 -0.05598,0.0329 -0.01159,0.12846 0.125103,0.0231 0.0099,0.0559 0.06585,0.0363 0.02637,0.0411 0.07247,-0.0131 0.03288,0.0411 0.05105,0.0197 h 0.079 l 0.09222,-0.0824 0.08235,0.0164 0.02794,0.0676 0.164599,0.0247 0.06912,0.0313 0.07741,-0.0131 0.04937,0.0279 v -0.0329 h 0.04612 l -0.03456,0.10872 h 0.03791 l 0.03288,0.0461 v 0.0411 l -0.023,0.0313 0.01159,0.0626 -0.08729,0.0938 v 0.079 l 0.05431,0.0592 0.06093,0.0263 0.079,-0.009 0.03791,0.0215 -0.120163,0.12355 0.0099,0.0263 -0.02962,0.0429 -0.06419,0.0279 v 0.0609 l -0.02962,0.0345 v 0.0461 l -0.126782,0.0691 0.05598,0.1646 -0.0626,0.0955 v 0.0279 l 0.03456,0.0313 v 0.0329 l -0.05273,0.0395 -0.05273,0.11857 -0.102097,0.0626 -0.01807,0.0493 -0.02963,0.0889 -0.07573,0.0527 v 0.056 l -0.03623,0.1251 -0.09716,0.0824 -0.118593,0.0477 -0.0099,0.0691 -0.09222,0.0214 0.01481,0.0214 v 0.0806 l 0.05598,0.0247 0.01313,0.0263 -0.01481,0.0774 -0.07247,0.069 0.02142,0.0577 v 0.0493 l 0.09222,0.0955 0.02963,0.16459 0.06419,0.079 0.03623,0.0774 v 0.0443 l -0.05598,0.0658 v 0.0724 l 0.06419,0.10037 -0.02794,0.0626 0.06419,-0.0247 0.113655,0.0231 0.190963,-0.0989 0.06912,-0.0626 0.110289,0.0313 0.03456,0.0297 0.09716,-0.0411 h 0.09716 l 0.03456,-0.0363 0.05925,0.0112 h 0.230457 l 0.187706,0.1482 0.09548,0.0313 0.01807,0.0774 0.06092,0.12678 0.164598,0.079 0.141593,0.1152 0.209132,0.0559 0.03791,0.0527 0.05598,0.0313 0.08235,0.0905 0.03129,0.084 0.08729,0.0559 h 0.06585 v 0.0477 l 0.0856,0.0247 0.03623,-0.0559 0.164601,0.0477 0.181088,-0.0543 0.06091,0.0181 0.023,0.0297 h 0.08393 l 0.05273,0.0675 -0.0099,0.0297 0.02636,0.0477 -0.01481,0.0461 h 0.04779 l -0.01159,0.0987 0.126781,0.0164 0.0395,0.0527 v -0.11034 l 0.0461,-0.0676 0.04444,-0.0181 0.105352,0.0263 -0.01481,0.0691 0.02794,0.0444 h 0.04444 l 0.0082,0.033 0.03791,0.0113 h 0.03791 l 0.04285,-0.0363 0.08393,0.0379 0.02635,0.0429 -0.0099,0.0345 0.05766,0.0543 0.05105,-0.0279 0.03456,0.0461 0.07573,-0.0112 0.07247,0.0461 0.04285,0.0527 0.03456,0.0112 0.0099,0.0987 h 0.06091 l 0.02963,0.0263 0.01159,0.0923 0.06585,0.0756 h 0.02794 v 0.0527 l 0.03456,0.0676 -0.04285,0.0724 0.09054,0.0247 0.01312,0.033 0.05273,0.0197 v 0.0379 l 0.05431,0.009 0.01159,0.0592 0.08066,0.0411 -0.04285,0.0313 0.06419,0.0988 0.102097,0.0247 0.08066,-0.0675 0.02634,-0.0923 0.02142,-0.0148 h 0.06091 l 0.04444,-0.0264 0.02795,0.01 0.05272,0.0691 h 0.02634 l 0.04444,-0.0592 0.04444,-0.0197 0.03288,0.0247 h 0.03456 l 0.09222,-0.0905 0.08729,-0.0477 h 0.01807 v 0.0675 l -0.01159,0.0131 0.03456,0.0609 h 0.02634 l 0.02963,-0.0592 0.09874,-0.0148 0.04117,0.074 0.02471,0.0113 0.0082,0.0395 -0.01159,0.0297 0.04444,0.0197 0.01807,-0.0113 0.0313,0.0247 0.07081,-0.0181 0.07081,0.0247 0.05598,-0.0675 -0.01159,-0.0181 v -0.0113 l 0.03623,-0.0313 h 0.02795 l 0.06912,-0.0642 0.04117,0.0429 0.08561,-0.0112 0.08066,-0.0493 0.164599,0.0708 0.05105,-0.0181 0.07574,0.0691 0.09716,-0.051 h 0.04119 l 0.01481,-0.0379 0.06912,-0.0313 h 0.08066 l 0.06419,-0.10871 0.03625,-0.0113 0.115226,0.0857 h 0.08729 v 0.11196 l 0.107035,0.0889 0.05766,-0.0313 0.08728,0.0164 0.01481,-0.0297 h 0.03288 l 0.01314,-0.0379 h 0.0313 l 0.01481,0.0181 0.108718,-0.0131 0.02963,0.0279 h 0.09381 l 0.131721,0.0708 0.09222,-0.0148 0.04612,0.10709 0.02471,0.0313 0.0099,0.0527 0.05431,0.0313 -0.0099,0.13172 v 0.0395 l 0.01807,0.01 0.0082,0.0824 -0.02964,0.0461 0.01973,0.0577 -0.14653,0.15146 -0.04117,0.0873 -0.116908,0.0658 -0.05273,0.0856 v 0.0609 l -0.103768,0.0824 -0.04779,0.028 -0.05766,0.0247 -0.08393,-0.0247 -0.07573,-0.0577 -0.08235,0.0214 -0.06912,-0.0165 -0.02964,0.0165 v 0.0658 l -0.02795,0.0461 -0.01314,0.074 0.01649,0.0642 h 0.03288 l -0.02303,0.0493 0.02634,0.10872 0.0313,-0.0527 0.0461,-0.0181 0.1646,0.074 0.03623,-0.0642 0.05431,-0.033 h 0.01649 l 0.05766,0.023 0.04937,0.10036 -0.04612,0.0626 v 0.0824 l 0.102097,0.0164 0.0395,0.0905 h 0.120162 l 0.03949,-0.0345 0.05272,-0.01 0.05598,0.0626 -0.0313,0.10211 -0.0082,0.35566 -0.04118,0.13498 0.07406,0.0923 0.09549,0.0642 v 0.0181 h 0.03949 v -0.0443 h 0.0626 l 0.04937,0.0511 0.08887,0.0363 h 0.03949 l 0.03625,0.033 0.0626,-0.0148 0.08235,0.0905 v 0.0363 h 0.02303 l 0.01973,-0.009 0.02795,-0.0363 0.04937,0.0197 0.01314,-0.0774 h 0.04937 l 0.06754,-0.0313 0.03791,-0.0658 0.121845,0.13339 0.11858,0.0676 0.08235,0.01 0.03456,0.0363 0.01159,0.0461 0.06754,0.0675 0.04444,0.0379 0.07081,0.0164 0.02634,0.0691 v 0.13666 l 0.02634,0.0263 -0.02634,0.0724 v 0.0477 l 0.04118,0.074 0.04444,0.0112 0.04444,0.051 0.05598,0.0938 0.391703,0.0172 0.07406,-0.0379 v -0.079 l -0.164599,0.0148 v -0.0297 l 0.138337,-0.10036 h 0.02634 v 0.0247 l 0.110288,-0.0131 v -0.0577 l 0.141595,-0.0148 v -0.0577 l 0.113642,-0.0113 0.0313,0.0345 0.05431,-0.0411 0.01807,-0.0247 -0.03791,-0.13003 v -0.11196 l 0.04937,-0.0923 v -0.0626 l 0.111972,-0.11521 -0.01159,-0.028 0.01481,-0.12847 -0.0099,-0.0395 0.03131,-0.0231 0.05925,0.0247 0.03949,-0.0263 v -0.13715 l 0.03791,-0.0281 0.04118,-0.079 0.05598,0.028 v 0.0461 l 0.07079,0.0131 0.05105,0.0363 0.04285,-0.0345 v -0.0379 l 0.06418,-0.0708 0.116909,0.0411 0.03625,-0.009 0.01649,0.0297 0.105351,0.0543 h 0.153146 l 0.0082,-0.0197 -0.01807,-0.0923 -0.04444,-0.0345 0.01314,-0.0214 v -0.0197 l 0.02795,-0.0429 -0.02634,-0.0429 0.01314,-0.0429 0.09222,-0.10697 -0.02142,-0.0511 0.02634,-0.0231 v -0.13833 l -0.02142,-0.0839 0.05105,-0.0379 v -0.0411 h 0.105352 l 0.05273,-0.0297 h 0.01481 l 0.01481,0.0263 0.0626,0.10373 0.06912,0.0379 0.01314,0.0443 0.08729,0.0329 0.08393,0.0642 v 0.0675 l 0.02795,0.0231 0.01649,0.0493 h 0.05924 l 0.0313,0.0231 0.05766,-0.009 0.01159,-0.0197 -0.01159,-0.0429 h 0.07081 l 0.07573,-0.0345 -0.01807,-0.0609 h 0.0626 l 0.0626,0.0461 h 0.07574 l 0.01314,0.01 v 0.0461 l 0.05104,0.0214 h 0.05431 l 0.03456,-0.0264 0.05598,0.0411 0.05766,0.0112 0.02303,0.0905 0.0626,0.0477 0.08235,0.17291 h 0.02795 l 0.07079,-0.0708 0.07247,-0.0379 h 0.03288 l 0.03131,0.0443 0.08393,-0.0443 0.03949,0.0429 0.04118,0.0839 0.01481,0.0824 -0.03288,0.0477 v 0.0148 l 0.19432,0.0443 0.110289,0.079 0.02963,-0.0214 h 0.05925 l -0.01314,0.0461 h 0.02963 v 0.13664 l -0.0626,0.12847 -0.05766,0.0577 0.0099,0.0313 v 0.0281 0.0197 l -0.02466,0.0429 0.0082,0.0197 0.0856,-0.009 0.09548,-0.0756 h 0.07405 l 0.0461,-0.023 v -0.079 l -0.03949,-0.0905 0.01159,-0.0542 0.07898,-0.0429 h 0.09549 v -0.0395 l 0.02634,-0.0279 0.08729,0.0214 0.01973,-0.0197 0.04444,0.0281 0.03456,-0.0789 v -0.0197 l -0.02303,-0.0345 -0.0626,0.01 -0.07247,-0.13665 0.01649,-0.028 -0.0082,-0.0429 0.02963,-0.0494 -0.0099,-0.0411 0.06586,-0.10536 -0.0099,-0.11033 -0.06419,-0.0543 -0.04285,0.0279 -0.04444,-0.11196 0.05273,-0.0443 0.01974,0.0281 h 0.03456 l 0.07406,-0.0493 0.06912,0.0429 0.120163,0.0231 0.105351,-0.0395 0.06585,0.0263 0.09381,-0.0856 0.0082,-0.0363 -0.09874,-0.0313 -0.03288,-0.0609 0.03456,-0.10036 -0.05766,-0.1646 v -0.0905 l -0.03949,-0.0379 -0.0082,-0.13339 0.102097,-0.275 0.05925,-0.0789 0.141596,-0.0824 0.04937,-0.10211 -0.04285,-0.0444 -0.186027,-0.0559 -0.06585,-0.0609 0.02963,-0.084 -0.02634,-0.0345 -0.03791,-0.1251 -0.0099,-0.11695 0.06418,-0.0955 0.102097,-0.0592 0.05431,-0.0708 0.11029,-0.0527 0.02634,-0.0774 -0.04118,-0.0839 0.02142,-0.0756 0.08887,-0.0279 0.04779,-0.0724 0.113642,-0.0609 0.04937,-0.0592 0.06092,-0.0197 0.04117,-0.0592 0.08887,-0.0676 0.02634,-0.10697 0.0313,-0.0543 v -0.0543 l -0.06092,-0.074 0.04444,-0.0559 0.01481,-0.0609 -0.04937,-0.0658 v -0.0379 l -0.06091,-0.13508 -0.01973,-0.0609 0.01314,-0.0231 -0.01314,-0.0724 0.108705,-0.22887 0.01807,-0.13499 -0.03288,-0.0395 0.08393,-0.14486 -0.08235,-0.0527 -0.01973,-0.0905 0.01973,-0.0609 -0.03288,-0.1646 v -0.0229 l -0.04285,-0.0509 -0.02964,-0.13499 -0.03791,-0.0527 0.04285,-0.11694 -0.0313,-0.0856 0.04779,-0.0839 -0.0099,-0.051 0.02299,-0.0231 0.0082,-0.079 0.03288,-0.0281 0.02634,-0.0806 0.05431,-0.0379 0.125103,0.0112 0.09054,-0.0461 0.09222,0.01 0.03791,-0.0806 h 0.01314 0.03456 l 0.164599,0.0297 -0.03791,0.0873 0.143274,0.19096 0.297996,-0.1152 0.08235,0.0165 0.04612,-0.0263 0.02795,0.0131 0.08393,-0.0313 0.115225,0.0411 0.08066,-0.0279 0.07079,0.0543 0.148208,-0.061 0.03791,0.0313 0.05105,0.10535 0.07406,0.10373 0.123529,0.0131 0.06912,-0.0527 h 0.07741 l 0.115226,0.0493 0.202515,0.0165 0.05766,0.0231 h 0.01807 l 0.151467,0.15313 0.01481,0.0113 0.09222,0.0626 0.04937,0.0756 0.05273,0.0345 0.01649,0.009 0.126783,0.0577 h 0.02299 l 0.05925,-0.009 v -0.033 l 0.03625,-0.0214 v -0.0345 l -0.06418,-0.0363 v -0.0214 l -0.04612,-0.0164 -0.01807,-0.0297 v -0.0313 l -0.01159,-0.0675 h -0.03623 v -0.0379 l 0.01159,-0.0297 v -0.0148 l -0.01481,-0.0263 0.05598,-0.0691 h 0.0313 l -0.02142,-0.028 h 0.0099 l 0.01975,-0.01 v -0.0131 l -0.01649,-0.0165 h 0.01314 v -0.0165 -0.0214 l -0.04937,0.0181 v 0.0197 h -0.02142 l -0.04444,-0.0263 h 0.02142 l -0.01159,-0.0264 h -0.02142 l -0.01807,-0.0313 0.133401,-0.0345 -0.09549,-0.12355 0.03288,-0.0313 0.07079,-0.0609 0.219005,-0.0923 0.134975,-0.0131 h 0.01649 v 0.0297 h 0.05924 0.02303 l -0.02795,-0.0264 0.174571,0.0131 v 0.0181 l 0.03949,0.009 v -0.0113 l 0.03456,0.023 -0.03791,0.0329 0.01807,0.0197 -0.03288,0.0493 0.0099,0.0181 0.0461,-0.0131 0.01481,-0.0395 h 0.02795 l 0.06418,-0.0824 0.02299,-0.01 0.0313,-0.01 0.079,0.0297 0.108718,0.074 0.03791,0.0493 0.01807,0.0214 v 0.0164 l 0.02634,-0.0131 0.06586,0.0477 H 58.3748 l 0.09874,0.0313 h -0.07406 l -0.0313,0.0181 0.01481,0.0429 H 58.3435 l 0.01807,0.0131 h -0.03456 v -0.0214 l -0.03949,0.0461 H 58.1953 l -0.04444,0.1071 -0.04779,0.01 v -0.0247 l -0.04118,0.0297 -0.01314,0.0642 0.03456,0.0559 -0.01481,0.0477 h -0.01807 l -0.02466,0.0379 0.04612,0.0297 0.02299,0.0609 -0.02634,0.0363 0.01481,0.0543 0.04285,-0.0231 0.03791,0.0313 v 0.0429 l 0.116909,0.0363 v 0.0214 l -0.05273,8.5e-4 -0.01314,0.0411 0.149787,-0.0112 0.04779,0.0329 v 0.0297 0.0263 h 0.0099 l 0.079,0.0329 v 0.0379 l -0.03288,0.0313 h 0.01649 v 0.0297 l -0.03791,0.0148 0.03949,0.0131 0.0099,0.0279 v 0.0231 l -0.01807,0.01 0.01159,0.009 -0.0099,0.0113 h -0.03288 l 0.0099,0.0231 v 0.0112 l 0.02299,-0.0131 0.01973,0.0165 h 0.02142 l 0.03456,0.01 -0.01314,0.0676 h 0.02634 v 0.0264 l -0.05273,0.0461 h -0.02634 v 0.0774 l 0.01314,0.0165 h 0.02142 v 0.0181 l 0.02634,0.0165 h 0.01975 l 0.01481,-0.0113 v -0.0131 l 0.04285,-0.0264 h 0.02963 l 0.01481,0.0197 0.04117,0.056 -0.06091,0.0429 h 0.01314 v 0.0164 h 0.02142 l -0.02142,0.0297 h 0.01649 l 0.07573,-0.0131 0.02468,0.0313 -0.02964,0.0165 -0.01807,0.0148 v 0.0214 h 0.02634 0.05766 0.01159 0.01649 0.01481 l -0.01159,-0.0112 h 0.02634 v -0.0281 l 0.03456,-0.0181 h -0.03456 v -0.0297 l -0.05105,-0.023 0.01159,-0.0527 0.04937,0.009 0.08235,-0.0131 v -0.0164 l 0.01807,0.0131 v -0.0197 h 0.05273 l 0.01649,-0.0148 -0.02466,-0.0214 v -0.0214 l 0.04285,0.009 -0.05105,-0.0577 -0.02634,-0.01 v -0.0231 l 0.04937,-0.0214 h 0.01807 l 0.02299,0.0148 0.0313,-0.0113 v -0.0113 l 0.02634,-0.0148 0.03623,-0.009 0.03791,0.0527 0.02299,0.0131 0.01807,-0.0477 h 0.02634 v -0.0165 0.0197 l 0.01973,0.01 0.02795,-0.0131 0.0082,-0.0112 -0.05431,-0.0313 0.02142,-0.0181 h -0.02142 l 0.01807,-0.009 h 0.01159 l 0.01481,-0.0165 v -0.0148 h -0.01649 -0.02303 -0.01649 v -0.0197 h -0.01481 l -0.01975,-0.0197 0.01975,-0.0247 v 0.0263 l 0.01159,-0.0229 v -0.051 h -0.01314 l -0.02795,-0.0131 0.01973,-0.0313 -0.01314,-0.0181 0.01649,-0.0131 -0.01159,-0.0148 -0.02466,-0.0164 -0.03791,-0.0313 h -0.01649 v 0.0197 l -0.04117,-0.0113 0.0099,-0.0281 -0.02795,-0.0181 0.02303,-0.0131 -0.01973,-0.0113 -0.01159,-0.0148 -0.01159,0.0197 -0.03288,-0.0131 -0.01807,-0.0148 -0.01649,-0.0165 -0.01314,0.0197 h -0.01481 -0.0099 -0.01159 -0.02142 -0.03949 l -0.02795,0.0181 0.0099,0.0395 h -0.06912 v 0.0461 l -0.05105,0.0609 0.01159,-0.0313 -0.02634,-0.0429 -0.04444,-0.0148 0.01314,-0.0363 -0.03288,-0.0148 -0.03288,-0.0691 v -0.051 l 0.04937,-0.0181 h -0.02294 l 0.0099,-0.0181 -0.01649,-0.0148 0.0313,-0.0197 v -0.051 h 0.02964 v 0.0165 l 0.03625,0.009 v -0.0165 l -0.01807,-0.0112 0.02303,-0.0263 h 0.02299 l 0.02634,0.0313 -0.01314,-0.0297 0.01807,-0.0148 h 0.079 0.03288 l -0.02634,-0.0247 h 0.01649 l -0.01481,-0.0297 v -0.028 l -0.01314,-0.0477 0.02142,-0.0231 v -0.0247 l -0.01481,-0.0197 0.04612,0.0263 v 0.0281 l 0.03288,0.0113 0.01159,-0.0131 0.01807,0.0231 0.02795,0.0395 0.0099,0.01 0.04444,-0.0363 h -0.01607 l -0.0099,-0.0297 0.01159,-0.0131 -0.0099,-0.009 -0.02142,-0.009 -0.01481,-0.01 h -0.01649 v -0.0279 -0.0297 l 0.0099,-0.0231 v -0.0247 l -0.01314,-0.009 v -0.0297 l -0.02963,-0.0164 0.01649,-0.0313 -0.04779,-0.0395 v -0.0313 -0.0131 -0.0345 l 0.02466,-0.0231 0.09222,-0.0197 v 0.0429 h 0.04444 l 0.05925,0.0181 v 0.0247 l 0.03624,0.0592 0.01481,0.0461 -0.0099,0.0379 h -0.01975 v 0.006 l 0.0082,-0.0131 h 0.02634 l 0.01481,-0.0345 0.05431,0.0131 v -0.0214 h 0.01314 v -0.0148 l 0.01649,-0.0181 0.02303,0.0247 -0.02142,0.0197 0.02795,0.0214 0.02299,-0.0113 -0.01159,-0.01 0.01314,-0.0164 0.02795,0.01 h 0.01159 v 0.0247 l 0.01481,0.0297 0.0313,-0.0165 0.0099,0.0165 h 0.01481 l 0.01807,-0.0148 0.01159,0.009 v -0.0231 h 0.02299 l 0.0099,0.0112 0.0313,0.0345 h 0.01481 v 0.0313 l 0.02142,0.0197 0.01807,-0.0691 h 0.02303 l -0.0099,-0.0527 h 0.01973 v -0.0313 -0.0411 h -0.01314 l -0.01975,-0.0231 v -0.0181 h -0.01481 l 0.01481,-0.009 -0.01649,-0.01 0.04118,-0.0247 0.01159,-0.0197 v -0.0181 l -0.01975,-0.009 h -0.02303 -0.01481 l 0.01481,-0.0379 -0.01314,-0.009 -0.05105,-0.0197 -0.01807,-0.0148 0.0099,-0.0214 -0.02299,0.0197 v -0.0363 l 0.01159,-0.0642 v -0.0197 l -0.01481,0.009 -0.01975,-0.01 -0.02963,-0.0609 0.01314,-0.0164 -0.01974,-0.009 -0.01159,-0.0112 -0.0082,-0.009 -0.01481,-0.0197 v -0.033 h -0.01654 l -0.01649,-0.0165 v -0.0181 -0.10535 0.0231 h -0.03791 l -0.02963,0.0131 -0.01974,-0.0165 v -0.0395 h -0.02142 -0.01314 v -0.0148 l -0.02303,-0.0313 -0.02634,-0.0214 -0.01159,-0.0197 h -0.02299 l -0.04285,0.0379 0.04118,0.0281 -0.01807,0.0363 v 0.0363 l -0.05273,0.0443 0.04118,-0.0527 v -0.0443 l -0.04937,-0.0297 v -0.0345 -0.0197 l -0.02142,-0.0148 v 0.0181 l -0.03456,0.0214 v 0.0839 h -0.01159 l -0.02142,-0.0559 0.03791,-0.0905 -0.05273,-0.0429 -0.03456,-0.0231 -0.01973,0.0131 -0.0461,-0.051 0.0099,-0.0411 0.02634,-0.0131 0.0099,-0.0164 0.01649,-0.0131 0.0099,-0.0313 0.03456,-0.0113 v -0.0363 -0.0165 l 0.01975,-0.0148 0.01649,-0.0148 0.01314,-0.0592 0.103781,-0.0577 0.01975,-0.0395 h -0.0099 l 0.01975,-0.0247 0.0313,-0.0658 -0.01481,-0.13498 -0.0099,-0.0559 -0.02468,-0.0379 -0.01159,-0.079 h 0.02468 v -0.0444 l -0.02795,-0.0131 v -0.0279 -0.0329 l 0.03949,-0.0112 0.03456,-0.15147 -0.03288,-0.0395 -0.06091,-0.0757 0.01807,-0.0181 0.05105,0.0577 0.07079,-0.0691 -0.03288,-0.0379 0.05924,-0.079 0.05273,0.0363 0.0099,0.0279 h 0.01314 l 0.01481,0.0329 0.0099,0.0313 0.03949,0.0477 h 0.03791 v 0.0297 h 0.0313 l -0.01159,0.0429 h -0.01314 l -0.03288,0.12678 -0.0313,-0.01 -0.01973,0.0708 0.04117,0.01 -0.03949,0.0263 v 0.0263 l 0.02142,0.0609 h 0.02634 l 0.06586,-0.10212 h 0.02299 v 0.0379 l 0.02303,0.0113 v 0.0527 l -0.05766,0.0443 h -0.04779 v 0.0214 l 0.02142,0.0165 -0.07405,0.0642 0.01314,0.074 0.0313,-0.0279 0.02142,0.0922 0.04285,0.0577 v 0.0165 l -0.03288,-0.0131 -0.01159,0.0329 h 0.02463 l 0.01314,0.0279 -0.02795,0.0329 -0.02142,-0.0164 -0.02964,0.0214 h -0.03624 l -0.03949,0.051 v 0.0247 h 0.04937 l 0.02634,-0.0379 h 0.01314 v 0.0379 l 0.05766,-0.0181 0.0099,0.01 -0.01159,0.0164 0.02142,0.0345 -0.01481,0.0214 -0.06586,-0.0197 -0.02142,0.0313 h -0.02634 v 0.0247 l -0.02466,0.0197 h -0.0757 v 0.0297 l 0.0099,0.0395 0.01159,0.0313 0.05273,0.0379 0.01807,0.009 0.01314,0.009 v 0.0313 -0.0395 h 0.02795 l 0.01973,0.0148 0.01974,-0.0214 0.04285,0.0297 0.01481,-0.009 v -0.0131 l 0.01973,0.0181 0.01314,-0.0181 h 0.01807 l 0.0099,-0.0411 0.05924,-0.0131 0.01807,0.0164 0.01649,0.0215 v 0.0148 h 0.01807 v 0.0165 0.0131 l 0.01975,0.0131 v 0.0279 0.0112 l 0.02303,0.009 0.01649,0.009 v -0.0379 h 0.08729 l 0.01314,0.0113 -0.02466,0.009 h 0.01807 l -0.0099,0.0263 h 0.02468 0.01314 l 0.01481,-0.0148 0.0099,-0.0112 0.03623,0.0131 0.0313,0.0461 v -0.0379 l 0.05598,-0.0131 h -0.03791 v -0.0148 h 0.04937 l 0.01807,-0.0181 0.02634,-0.0642 h -0.03456 v -0.0131 l -0.01481,-0.0247 0.01314,-0.01 h 0.02795 v -0.0279 -0.0281 h 0.02303 v -0.0231 l -0.01314,-0.0263 h 0.02466 0.01649 l -0.0099,-0.0231 -0.01159,-0.0148 0.02142,-0.0429 0.02963,0.0313 0.01973,0.0164 v -0.0197 l -0.0099,-0.0279 v -0.023 -0.0165 -0.0148 h 0.0313 l -0.02964,-0.0131 0.01159,-0.0131 0.01973,-0.01 0.03288,0.0231 v 0.0214 h 0.01481 0.01314 v 0.0264 l 0.01975,0.0148 0.01973,0.0279 0.02634,0.0264 h 0.01649 l 0.01649,0.0329 h 0.01807 0.02468 l 0.02142,0.0131 0.01314,0.0113 v -0.0131 -0.0148 h 0.01807 l 0.01159,0.0214 0.0082,-0.0148 v -0.0181 h 0.01649 v -0.0214 l -0.01807,-0.0197 0.01807,-0.0112 v -0.0148 l 0.01159,-0.0429 h 0.0313 0.01649 l 0.0099,-0.0113 v -0.0329 h 0.01649 0.02964 v 0.0279 h 0.01481 v -0.0181 l 0.01807,-0.0691 v -0.0165 l 0.0082,-0.0395 h 0.04444 l 0.01481,-0.0658 h -0.02634 l 0.04612,-0.0214 0.01807,-0.0379 0.01314,0.0148 0.03456,0.0443 -0.02142,0.051 h -0.02299 l 0.03456,0.0313 -0.04117,0.0658 -0.01973,0.0379 v 0.0231 l 0.0099,0.0165 -0.02634,0.0313 -0.01159,0.0165 v 0.0214 0.0214 0.0164 h 0.02142 v 0.056 l 0.01973,0.0131 v 0.0197 h 0.01807 v 0.0181 l 0.01807,0.0131 v -0.0247 h 0.01481 l 0.01975,0.0181 v 0.0197 h 0.02466 v 0.0197 h 0.01481 0.01807 l 0.01481,-0.0477 h 0.01159 0.02963 v -0.0148 l 0.02964,-0.0214 0.04779,0.0345 h 0.01314 v -0.0131 h 0.02142 l 0.02795,0.0264 h 0.0099 l 0.03623,0.0379 0.0099,0.009 0.01159,-0.01 0.01649,-0.0148 v 0.0263 l 0.03456,-0.0379 v 0.051 l 0.01481,0.0112 v -0.0214 l 0.0082,0.0263 0.03288,-0.0543 0.0099,0.01 h 0.01159 l 0.0082,-0.0131 v -0.0395 h 0.02795 0.01481 l 0.01314,-0.0131 0.01649,-0.0281 0.03456,0.0313 0.01314,0.01 0.02466,-0.0148 v 0.0229 h 0.06754 v 0.0148 h 0.04444 0.01807 0.02471 0.01159 l 0.0626,-0.0164 -0.01481,-0.01 0.01973,-0.0113 0.02299,0.0113 0.02142,0.01 0.02634,-0.0395 0.02634,0.0164 h 0.04612 0.01807 0.02303 0.01314 l 0.02468,-0.0164 0.01481,-0.0112 h -0.01481 l 0.01159,-0.0131 -0.0099,-0.0148 h 0.04117 0.02795 l 0.01159,-0.0197 h -0.03949 l 0.01314,-0.0165 -0.02795,-0.0165 h -0.01649 l 0.03625,-0.0247 h -0.02789 l 0.01807,-0.0214 -0.01807,-0.01 0.01649,-0.009 h -0.02303 l -0.01649,-0.0527 h -0.01649 l 0.03288,-0.0345 -0.01649,-0.0148 h -0.0099 l -0.01807,-0.0131 -0.01481,-0.01 h -0.01975 -0.02964 v -0.0231 h -0.02303 l 0.01649,-0.0231 -0.03456,0.0164 0.0099,-0.0329 -0.01649,0.0215 v -0.0363 l -0.01973,0.0279 -0.02795,-0.0131 h -0.01807 v -0.0329 h -0.02634 -0.01649 v -0.0263 0.0214 l -0.02299,-0.0263 -0.01159,-0.01 h -0.02299 -0.01159 l -0.01807,0.0131 0.0099,-0.0345 -0.02303,-0.01 -0.01159,0.0112 v -0.0197 l -0.05105,-0.0197 -0.04118,0.009 0.0099,-0.0148 h -0.03949 l 0.01314,-0.0165 h -0.05105 l -0.01159,-0.0148 h -0.01807 l 0.0082,-0.0231 -0.04612,-0.009 -0.02466,-0.0313 h -0.02963 -0.01973 l -0.01159,-0.0197 -0.02468,-0.0559 0.01649,-0.0148 0.01159,-0.0345 v -0.0329 0.0181 h -0.02142 l -0.01481,-0.0297 -0.02634,0.0148 v -0.0938 l 0.02142,-0.0247 h 0.01481 0.04117 0.01974 v -0.0231 h 0.02142 l 0.03288,0.009 h 0.04769 l 0.01314,0.0181 0.01314,0.0131 0.03624,-0.01 h 0.01649 v -0.0247 h 0.0099 v -0.0113 l 0.02634,0.0313 h 0.05105 0.01807 v -0.0297 h 0.04612 l 0.01649,-0.0313 0.02303,0.0113 0.0626,-0.0279 0.03949,0.0181 h 0.01314 0.01314 l 0.02964,0.0131 h 0.01807 0.04779 0.01481 0.01649 v 0.0148 h 0.03456 l 0.04937,0.0379 -0.01314,-0.0297 h 0.02142 l 0.04285,0.01 0.0099,-0.0131 h -0.01649 l 0.01314,-0.0181 0.02142,0.0197 0.01314,-0.0379 0.02964,0.0181 v -0.0164 h -0.01974 l 0.0099,-0.009 0.05598,-0.0197 0.02634,-0.0131 0.02299,0.0543 0.02466,-0.0197 v -0.0247 h 0.01974 v 0.0214 l 0.02634,-0.0164 0.01314,0.0231 -0.01314,0.0345 0.09381,-0.0543 -0.02299,-0.0113 v -0.0148 l 0.0461,-0.0395 0.0099,0.01 0.03791,0.0113 0.06912,-0.0297 0.02634,-0.0379 -0.04444,0.009 v -0.0131 l -0.04444,-0.0247 0.01481,-0.0214 0.01481,-0.0313 h -0.01649 v -0.0214 l 0.01314,-0.0165 h -0.02634 v -0.0197 -0.0279 h -0.02303 v -0.0297 h -0.01481 -0.03456 l -0.04937,0.0477 -0.03288,-0.0247 -0.01974,0.0197 -0.01481,-0.0214 -0.02795,0.0297 v -0.0279 l -0.03456,-0.009 -0.01649,0.0148 v 0.0131 l -0.02795,-0.009 v -0.0247 l -0.01973,0.0131 -0.01973,-0.01 v -0.0363 h -0.164599 l -0.09222,-0.0822 -0.03791,0.0148 -0.02634,-0.0113 -0.04779,0.0329 0.03625,-0.0148 v 0.0247 l -0.01649,0.0148 -0.03288,-0.0113 v 0.0214 h -0.01702 l -0.03625,-0.0197 -0.03456,0.0379 -0.02466,-0.0527 h -0.01649 v -0.0181 0.0148 h -0.09874 l -0.0626,0.0231 -0.04117,-0.0164 -0.01159,-0.0264 -0.02468,-0.009 -0.01159,-0.0279 0.01481,-0.009 0.01973,-0.0263 -0.0099,-0.0181 -0.02634,-0.0297 v -0.0279 l -0.0082,-0.0247 -0.01159,-0.0148 h 0.01807 0.01314 l 0.0099,-0.0113 0.02964,-0.0165 v -0.0181 l 0.02142,-0.0231 -0.01481,-0.009 0.01314,-0.01 h -0.03791 l -0.04118,0.0297 -0.04937,-0.0429 -0.05925,0.0363 -0.04118,-0.0297 -0.03456,0.0131 -0.01649,-0.0577 -0.01481,0.0113 -0.01159,-0.0165 -0.03288,-0.0461 v -0.051 l 0.01975,-0.0329 0.08235,-0.0231 h 0.01973 0.01159 l 0.01649,-0.009 v -0.0148 l -0.01314,-0.0131 v -0.0345 l -0.02634,-0.0329 -0.01314,-0.0148 -0.02142,-0.0148 v -0.0247 l 0.01314,-0.0181 -0.07406,-0.0543 0.01973,-0.0181 0.01159,-0.0131 h 0.02303 0.01649 l 0.0395,-0.0297 v -0.0247 l 0.02634,-0.0112 -0.01649,-0.0148 v -0.0214 l -0.02964,-0.0165 v 0.0329 l -0.02795,-0.0131 -0.01481,-0.0247 v -0.0313 h -0.01973 v -0.0181 l 0.04444,-0.0757 v -0.0263 l 0.02466,-0.0263 0.02303,0.0148 v -0.0181 h 0.01314 l -0.01481,-0.0231 0.06912,0.0461 0.07573,0.009 v 0.0297 l -0.01314,0.009 h 0.03456 l 0.01314,0.009 h 0.03288 l 0.02964,0.0395 0.08561,0.0345 0.0099,0.0197 v 0.0345 l 0.02303,0.0247 0.01807,0.0197 h 0.03456 l 0.0099,0.0411 h 0.05105 0.03288 l 0.02299,0.0131 0.01649,0.01 h 0.0626 0.01649 0.02795 l 0.02795,-0.01 h 0.03288 0.01481 l 0.01973,0.0112 0.01481,0.0131 0.03456,-0.0247 0.01973,-0.0131 h 0.01975 0.01973 l 0.01649,0.0164 h 0.0099 l 0.01481,-0.01 h 0.04444 l 0.02299,0.0329 0.02963,-0.0112 0.02303,0.0477 0.02795,0.0923 v 0.0279 l 0.01314,0.0231 -0.01481,0.0197 h 0.02142 l 0.04285,-0.009 0.03625,-0.0113 h 0.02303 0.01973 l 0.02142,0.0113 h 0.01649 l 0.02795,0.0148 0.0099,0.0197 0.01159,0.0113 0.02634,0.01 0.01314,0.0379 h 0.02142 v 0.0231 l 0.02964,-0.0165 h 0.02466 v 0.0429 0.0165 l 0.01314,0.0165 -0.0099,0.01 v 0.0165 l -0.01314,0.0363 0.01973,0.0263 -0.0099,0.0131 v 0.0165 l 0.05105,0.0577 v -0.0231 l 0.01973,0.0113 0.02142,-0.0247 -0.01159,-0.0279 h 0.01481 v -0.0131 l -0.01649,-0.0181 0.01481,-0.009 -0.01481,-0.0279 0.01159,-0.0148 v -0.0231 h 0.01649 0.01975 0.01973 l 0.0099,-0.0279 0.04117,0.0247 0.01314,0.01 h 0.01649 0.01973 v -0.0181 l -0.01481,-0.0165 h 0.03288 l -0.01649,-0.009 0.01314,-0.01 -0.01649,-0.0363 0.03456,-0.0113 h 0.0099 l -0.01649,-0.0165 v -0.023 l 0.0082,-0.0215 0.01159,-0.0264 h 0.04937 0.02303 0.01159 l 0.01314,-0.01 0.0082,-0.01 h 0.02634 l 0.01973,-0.0329 h 0.01807 0.02468 v -0.0263 l 0.01159,-0.0363 h 0.01314 0.01973 l 0.01481,-0.0112 h 0.02303 0.01649 l 0.02142,-0.0197 0.01314,-0.0131 0.07741,-0.0112 0.04444,-0.0642 0.03456,0.0297 h 0.01973 0.0313 v -0.0148 l 0.03782,0.0279 v -0.0214 l 0.03131,0.0112 v -0.0297 h -0.03456 -0.02795 l 0.02964,-0.051 -0.0626,0.0165 -0.08393,-0.0181 v -0.051 h -0.03804 l -0.02964,0.0247 -0.01481,-0.0164 -0.0099,-0.0214 0.0099,-0.0197 v -0.0148 l -0.01314,-0.0215 -0.01807,0.0112 v -0.0181 l -0.02142,0.01 v -0.0206 h -0.02458 l 0.0082,-0.0313 v -0.0197 h -0.01973 l 0.01481,-0.0592 h -0.01314 -0.01159 v -0.0197 l -0.01973,0.0181 0.0082,-0.0279 h -0.01481 l -0.01973,0.0181 v -0.0163 l -0.03288,0.0112 v -0.0131 l 0.01159,-0.0395 -0.01481,-0.01 -0.02142,0.0297 0.0082,-0.0379 -0.01807,0.0263 v -0.0263 l -0.02142,0.01 -0.02466,0.0112 -0.01649,0.0247 -0.01807,0.0247 -0.01481,-0.0181 v 0.0165 l -0.0082,-0.0215 v 0.0165 h -0.01973 l -0.03623,0.0527 h -0.01649 v -0.0247 h -0.01649 -0.01807 l -0.01159,0.0329 -0.02142,-0.0112 -0.03791,0.0181 h -0.03623 v -0.0231 l -0.01649,0.0197 -0.03949,0.009 v -0.20367 l -0.01481,0.0197 v -0.0181 h -0.02466 -0.02795 l -0.02634,0.0279 v -0.0297 l -0.04612,0.0411 -0.0099,-0.009 h -0.0099 l 0.0082,-0.0263 -0.02795,0.0112 -0.01159,-0.0197 0.01973,-0.0658 0.0099,-0.0247 -0.0099,-0.0229 0.0099,-0.009 v -0.0197 h -0.01314 -0.01314 l -0.02142,0.0329 h -0.01649 l 0.01159,-0.0247 h -0.02303 l 0.01649,-0.0263 h -0.01449 v -0.003 l 0.01975,-0.0214 v -0.0113 l -0.0082,-0.01 0.05105,-0.0395 h -0.01973 l 0.01159,-0.0263 0.03131,-0.0345 h -0.01807 l -0.02795,-0.0197 h 0.01973 l -0.01973,-0.0112 0.02471,-0.0164 h -0.03625 -0.02795 v -0.0345 l -0.03288,0.009 v -0.0214 h -0.01485 v -0.0181 h -0.01159 v -0.0165 l -0.03456,0.0197 v -0.0165 h -0.01481 -0.01481 l -0.01649,-0.0148 h -0.03456 -0.01975 v -0.0165 l -0.01807,0.009 v -0.0181 l -0.02142,-0.01 -0.02634,0.0164 0.01159,-0.0181 -0.04118,0.0131 v -0.0148 l -0.02142,0.009 v -0.0148 h -0.01807 -0.01807 v -0.0131 l -0.03131,-0.0429 -0.02303,-0.0229 h -0.03456 l 0.02142,-0.0297 h -0.02142 l 0.01159,-0.0247 -0.02142,0.009 v -0.0313 -0.0181 l -0.02634,0.01 -0.05924,-0.0461 h -0.01481 -0.04117 l -0.02634,-0.0131 -0.01649,-0.0363 -0.09716,0.01 0.01973,-0.0839 0.08066,-0.0461 0.02964,-0.0923 0.04937,-0.0429 0.01649,-0.0214 0.04937,-0.0297 0.0626,-0.0263 0.03288,0.009 h 0.01481 l 0.02142,-0.01 0.0461,-0.0231 0.03288,0.0181 v 0.0214 h 0.01481 l -0.01807,0.0113 0.02468,0.0164 0.01481,-0.0329 0.03949,0.0247 0.0082,-0.0113 -0.02303,-0.0148 0.02964,-0.0148 0.03949,0.0461 0.02468,0.0329 0.03949,0.009 h 0.02795 0.04612 0.01159 0.04285 0.01649 l 0.01481,-0.01 v 0.0148 l 0.02795,-0.0131 -0.01314,-0.0131 h 0.04444 l 0.01481,-0.0197 0.01649,-0.0113 h 0.03288 0.03624 l 0.03456,0.0279 0.05105,-0.0214 0.06418,-0.0165 v -0.0443 l 0.02634,0.0181 0.03624,-0.0214 h -0.02634 l 0.03791,-0.009 v -0.0247 h 0.01973 l 0.01649,-0.0113 v -0.0181 l 0.0099,-0.0165 h 0.02795 l 0.02466,-0.0112 v 0.0263 l 0.01807,-0.0113 -0.01649,-0.0363 v -0.0131 l 0.02303,-0.009 -0.01159,-0.0148 h 0.02964 v -0.0148 l 0.02142,-0.0181 h 0.02299 0.0313 l 0.02299,-0.0197 h 0.01807 v -0.0148 l 0.0082,-0.0148 v -0.0165 h 0.01159 l 0.01649,-0.0197 0.02142,-0.0363 h 0.01159 l 0.01649,-0.01 h 0.01481 l 0.05105,-0.0214 0.02142,-0.0247 0.02795,-0.0329 0.01649,0.0197 0.03791,-0.0363 v 0.0148 l 0.05273,-0.0297 h -0.02963 l 0.01649,-0.0164 -0.01159,-0.01 0.03791,-0.0363 h 0.03625 v -0.0247 l 0.01973,-0.0197 0.04118,-0.0329 h -0.02634 v -0.0559 l 0.01314,-0.0263 0.02795,-0.01 -0.03791,-0.0313 0.03623,-0.0148 -0.01314,-0.0131 0.02303,-0.0214 -0.01481,-0.0113 -0.01649,-0.0197 -0.05925,-0.0247 -0.01481,0.0197 -0.03288,-0.0165 -0.0313,-0.0165 -0.02299,0.0379 -0.0626,-0.0263 h -0.07573 l -0.05105,0.0297 -0.05431,0.0279 -0.01481,0.01 -0.04285,-0.01 v -0.0231 h -0.01807 -0.02795 l -0.01649,-0.0112 -0.02142,0.0112 -0.02634,0.0131 v -0.0197 l -0.02303,0.01 0.0082,0.0313 h -0.01159 l 0.01974,0.0131 -0.0082,0.0131 -0.03949,0.0113 v 0.0214 h -0.04612 l -0.02795,-0.0279 v -0.0231 h -0.02142 v -0.0411 h -0.01649 -0.01481 -0.01159 v -0.0231 h -0.01481 -0.02634 -0.01649 -0.0099 -0.01481 -0.02468 v -0.0411 -0.0247 l 0.03131,-0.0231 h -0.03288 l 0.0082,-0.0214 -0.03791,-0.0165 0.01314,-0.0297 -0.03949,0.01 -0.01159,-0.0181 -0.02964,-0.0231 h -0.02303 l -0.09381,0.0279 h -0.02142 v -0.0148 -0.0164 l -0.01807,0.0329 h -0.05273 v -0.0181 l -0.01159,0.0148 -0.01159,-0.0543 0.01807,-0.0297 0.01649,-0.0131 0.0461,-0.0494 h 0.05273 l 0.02299,-0.023 -0.04779,-0.0214 0.01481,-0.0214 -0.02466,-0.0229 -0.01159,-0.009 v -0.0197 l -0.03791,0.0363 -0.0099,-0.0165 -0.01481,0.01 0.0099,0.0131 -0.02634,-0.009 -0.04285,-0.0905 0.01807,-0.023 v -0.0165 l 0.02795,-0.0527 0.08393,-0.0197 0.04118,0.0113 v 0.01 l 0.04117,-0.0131 0.102097,0.0493 0.04937,0.0444 h 0.02795 l 0.02795,0.0231 0.04117,-0.0113 0.02963,0.0626 -0.0082,0.0148 0.0099,0.0113 h 0.01481 l 0.04444,0.0247 0.03949,-0.0297 0.0082,-0.01 0.02634,-0.0214 0.01314,-0.0148 v -0.0148 l -0.03288,0.01 v -0.0313 l -0.0082,-0.0131 0.02142,-0.01 v -0.023 l 0.01314,-0.0231 h -0.05766 v -0.0477 l -0.01159,-0.0165 -0.05431,-0.0279 -0.02471,-0.01 v -0.0214 l 0.02471,-0.0112 0.01973,0.0313 v -0.0148 l 0.079,0.0113 0.05925,-0.0329 0.01973,0.0113 v 0.0247 l 0.05598,0.0113 v 0.051 l 0.03456,-0.0148 0.01649,-0.009 v 0.0279 l 0.01159,0.0214 0.04285,-0.0247 -0.0099,0.0181 h 0.02303 l 0.0082,-0.0313 v -0.0263 h 0.01314 0.01314 l 0.06419,-0.0164 v -0.051 l 0.02466,-0.009 0.02468,-0.01 h 0.01481 l 0.01314,-0.009 0.01314,-0.0461 0.05598,-0.0461 0.105351,-0.0542 0.02466,0.009 h 0.03624 l 0.0099,0.0214 0.01481,-0.0231 0.05766,-0.0131 h -0.01314 l 0.01807,-0.0148 v -0.0345 h -0.01807 l 0.01649,-0.0148 h -0.01314 l -0.04779,-0.0113 0.0082,-0.0313 h -0.04937 v -0.0197 h 0.01314 l 0.0313,-0.0113 h -0.03623 v -0.0297 l 0.04937,0.0313 h 0.0099 l 0.01159,0.0197 0.01159,-0.01 0.02471,-0.01 0.01159,-0.0164 0.02795,0.0247 -0.01159,0.0131 0.01973,-0.0148 0.01649,-0.0263 0.01807,-0.0148 0.02634,0.0112 0.01649,0.0165 h 0.01159 l 0.0099,-0.0165 0.01807,-0.0263 h 0.02634 l 0.01807,0.0313 0.01975,0.0131 0.0313,0.0411 v 0.0148 l 0.01159,0.0164 h 0.01481 l 0.01159,0.0345 h 0.01649 l 0.01314,-0.01 v 0.0263 l 0.01481,-0.0148 v 0.0231 l 0.02142,-0.0165 0.01314,-0.0148 v 0.0148 l 0.0099,0.0113 v -0.0181 l 0.01807,-0.0477 0.05766,-0.0395 0.07405,-0.0461 v -0.0181 -0.0231 l 0.01807,-0.0214 h -0.01481 -0.01314 -0.01649 -0.01481 -0.01973 l -0.01973,-0.0279 0.01159,-0.0148 v -0.0164 l -0.02142,-0.01 -0.01481,-0.0112 v -0.0219 -0.0263 l -0.0099,-0.0461 v -0.0148 l -0.01807,-0.0559 0.03456,-0.0444 h -0.02142 l 0.0099,-0.0181 h -0.01807 l -0.02142,-0.0429 v 0.0279 l -0.02964,-0.0263 h -0.02795 l -0.03131,0.0113 v -0.0592 h 0.01481 l 0.02795,-0.0131 -0.02468,-0.0429 h 0.01481 l 0.02634,-0.0214 0.04779,0.0379 h 0.01159 l 0.0313,-0.0411 0.02795,-0.0444 h 0.02634 0.02964 l 0.01159,0.0164 0.0313,-0.0164 0.0082,0.0131 0.0099,0.0165 0.02303,-0.0197 0.01159,-0.0113 -0.01314,-0.0181 0.02142,-0.0148 -0.01314,-0.0148 0.04285,-0.0297 0.04444,0.0363 v -0.0297 l 0.02299,-0.0131 0.01807,0.0247 v 0.0263 l 0.01649,-0.01 0.01975,-0.009 -0.01807,0.0263 h 0.02963 v -0.0411 l 0.01807,-0.0148 h 0.02634 0.01649 0.02471 0.01481 l -0.02142,-0.0543 0.01807,-0.0313 v -0.0131 h -0.01973 l -0.01649,-0.01 h -0.01481 v 0.0197 h -0.01481 l -0.01314,0.0131 h -0.01314 v -0.0345 l -0.01807,0.0313 v -0.0165 l -0.01314,0.0165 -0.01807,-0.0113 -0.05924,0.01 v -0.0148 l -0.05431,0.0395 -0.02634,-0.0148 0.01159,0.0263 h -0.01649 v 0.023 l -0.04118,0.01 -0.02299,-0.0345 -0.01314,0.0113 v 0.0131 l -0.04937,-0.0148 -0.0082,0.0231 -0.09548,0.0461 -0.02795,-0.0165 -0.01314,-0.0113 -0.02303,0.0279 -0.01159,0.0197 -0.01807,-0.0444 -0.02634,0.0113 v -0.0247 h -0.04937 v 0.0329 0.0411 l 0.01314,0.0113 v 0.0181 0.0231 h -0.06261 -0.01975 l 0.0082,0.0263 -0.01481,0.009 -0.02963,0.0345 -0.03625,-0.0165 v -0.0626 l -0.01314,-0.0165 -0.05273,-0.0214 -0.01649,0.0214 -0.01314,0.0165 -0.01314,0.0477 h -0.01807 v 0.0363 l -0.02963,0.0461 v 0.0363 l -0.02299,0.0164 -0.02963,-0.0113 v 0.0214 h -0.03949 l -0.0099,-0.0363 h -0.02795 l -0.0082,-0.0313 -0.01973,-0.0131 -0.03791,0.0329 -0.04118,-0.0263 v -0.0477 l 0.01807,-0.0443 v -0.0148 l -0.01159,-0.0214 0.01807,-0.0148 v -0.0263 l -0.01314,-0.0329 -0.01159,-0.0165 -0.03791,0.0297 h -0.07079 l -0.02634,0.009 -0.01807,-0.0148 v -0.0197 -0.0197 h -0.02142 l 0.01649,-0.0112 -0.02963,-0.0263 -0.01973,0.0313 -0.04444,-0.0112 -0.02303,0.0443 h -0.04118 l -0.04118,-0.0247 -0.03949,0.0297 0.01159,0.0164 h -0.06912 l 0.01481,0.01 -0.02142,0.0214 -0.02795,-0.0131 -0.02303,-0.0165 -0.01159,-0.0263 h 0.07741 l 0.05925,-0.0329 0.141595,-0.0856 -0.04285,-0.0774 h 0.02963 l 0.0099,-0.0113 0.01159,-0.0279 -0.02142,-0.01 v -0.0247 h -0.04455 -0.02468 v -0.0263 l -0.0099,-0.051 0.01314,-0.0148 -0.02466,-0.023 -0.0099,-0.009 -0.0099,-0.009 -0.03624,-0.0329 0.0082,-0.0297 h 0.02299 l 0.0082,-0.0297 -0.121846,-0.051 -0.02964,0.0131 -0.04779,-0.0131 -0.03623,-0.01 -0.01314,-0.0363 0.01649,-0.0345 0.01649,-0.0363 0.0082,-0.0197 0.04117,0.01 -0.0313,-0.0247 0.05431,-0.0148 0.08235,0.0774 h 0.01481 l 0.03949,-0.0148 0.04285,-0.0131 0.079,-0.01 0.0082,0.0214 h 0.06912 l 0.02142,0.0247 0.0626,0.0626 0.02634,0.0527 0.01807,-0.01 0.02468,0.0197 0.0082,-0.0429 -0.01159,-0.0461 0.01807,-0.0165 v -0.0231 h 0.03288 l 0.02634,0.11034 0.07247,-0.0461 0.01481,0.0181 0.02466,0.0165 v 0.0279 0.0164 0.0131 l 0.01159,-0.0329 0.02964,0.01 h 0.02634 l 0.01649,-0.0113 0.03625,-0.01 0.01159,-0.009 h 0.01159 l -0.02142,-0.0444 0.03456,-0.0345 -0.01481,-0.0363 h -0.01314 -0.01314 l -0.0099,-0.009 v -0.0148 l -0.01159,0.0131 -0.01314,-0.0313 -0.01481,-0.0461 h 0.01649 v -0.0279 -0.0214 l -0.01807,-0.01 -0.0099,-0.0113 h -0.02299 v -0.0181 h -0.03625 l -0.01314,-0.0247 0.03456,-0.0363 0.02964,-0.0112 0.01481,0.0197 0.01314,-0.0313 h 0.01314 v 0.0131 l 0.0082,0.0165 v -0.0231 -0.0363 h -0.01481 v -0.0181 l 0.01159,-0.0165 v -0.0181 h -0.01649 v -0.0329 l -0.01159,-0.0113 h -0.07247 l -0.0082,-0.0112 -0.01807,0.0164 h -0.01807 -0.02964 v -0.0214 l -0.02142,0.0197 h -0.01481 l -0.01649,-0.0214 -0.01159,0.0263 h -0.02795 l -0.0099,-0.0165 v -0.0131 -0.0329 l -0.0099,-0.0263 -0.01159,-0.0113 -0.01159,0.01 v -0.0148 l -0.01314,-0.0131 h -0.0099 -0.01807 v 0.0247 h -0.02795 -0.02471 l 0.0099,-0.0197 -0.01314,-0.0165 -0.02468,0.01 -0.0099,-0.0164 h -0.01159 -0.02795 v -0.0148 l -0.01973,0.009 v -0.0181 -0.0231 l 0.03949,-0.0148 0.01159,-0.0297 h 0.01649 l 0.0099,-0.0247 h 0.0313 l -0.01807,-0.0279 h -0.02466 v -0.0165 l -0.01159,-0.0181 -0.02634,0.0131 -0.02466,-0.0181 -0.04937,-0.0345 h -0.03949 l -0.03791,-0.0297 -0.02634,0.0231 -0.05105,-0.01 -0.02634,-0.0493 -0.01314,-0.009 -0.01807,0.0197 h -0.07898 l -0.03791,-0.0313 v -0.0379 l 0.04937,-0.0477 h 0.03949 l 0.0082,-0.0279 h -0.03288 l 0.01649,-0.0708 h 0.02299 l -0.0099,0.0197 0.01481,0.0263 0.04937,0.0214 0.03456,-0.0329 h 0.01975 v 0.0543 l 0.0313,-0.0527 0.05924,-0.0279 h 0.0313 l 0.01973,-0.0379 0.05925,0.0197 -0.01314,-0.0313 h 0.01481 l 0.03949,0.0214 -0.02142,0.0395 v 0.0148 l 0.02142,0.0363 h 0.01314 v 0 l 0.01481,0.0247 v -0.0263 h 0.01973 l 0.02303,0.0214 0.02142,0.01 h 0.01649 v -0.0197 l 0.0313,-0.0181 0.0099,0.0345 0.0082,0.0148 0.0099,0.0214 h 0.01973 v 0.0181 l 0.01159,0.0131 v -0.0247 l -0.03456,-0.0297 h 0.02964 l -0.01975,-0.0345 h 0.02634 0.02142 l -0.0099,-0.0445 0.04779,-0.074 0.05766,0.0112 0.03949,-0.0148 0.03791,0.0148 v 0.0247 l 0.01649,-0.0313 h 0.05431 0.01973 0.02795 l 0.01973,0.01 0.05105,0.0461 0.01974,-0.0148 h 0.02963 l 0.03949,-0.0197 v -0.0873 l 0.02303,-0.0231 h 0.06091 l 0.01159,-0.0148 -0.01973,-0.0379 0.03456,-0.0247 h 0.02299 v 0.0247 h 0.01481 l 0.09222,0.051 h 0.04118 l 0.05766,-0.0214 -0.01481,-0.0313 0.01314,-0.01 -0.01649,-0.023 0.02795,-0.0197 0.05766,0.0263 h 0.04117 l 0.05925,0.0543 0.118592,0.0263 h 0.01314 v -0.0395 -0.0197 -0.0131 -0.0493 l 0.03288,-0.0181 0.01314,0.0148 0.01807,-0.0429 h 0.01159 0.04285 l -0.0082,-0.0214 h 0.01481 v -0.0313 l -0.0313,-0.0164 0.02142,-0.0263 v -0.0214 l -0.01481,-0.0231 h -0.0313 v -0.023 l -0.0082,-0.0181 0.02299,-0.0214 0.01807,-0.0197 -0.01481,-0.0181 0.01973,-0.0461 0.04779,-0.0113 v -0.0197 l 0.01974,-0.0263 h -0.01314 l 0.03623,-0.0363 v -0.0231 l -0.02142,0.0181 v -0.0181 l 0.03456,-0.0395 0.01481,-0.0363 -0.02303,-0.0164 h 0.01975 l 0.01159,-0.0181 0.01974,-0.0329 0.01807,-0.0477 v 0.0263 l 0.02142,-0.0411 v 0.0214 h 0.01649 l 0.06419,-0.0626 -0.02142,-0.0379 h 0.04118 v -0.0429 h 0.02142 0.01159 l -0.01314,-0.0231 h 0.02142 l 0.02468,-0.0345 v 0.0164 l 0.03131,-0.12356 0.05105,-0.0675 0.01649,-0.0443 -0.03288,0.0313 v -0.0345 h -0.01649 l -0.01314,0.01 -0.02299,0.0345 -0.08887,0.0197 v -0.0169 h -0.01807 l -0.03131,0.0509 -0.01159,-0.0164 -0.0313,0.0148 -0.01314,0.01 v -0.0313 l -0.02299,0.0395 h -0.01975 l -0.01973,0.0214 -0.0099,0.0461 -0.02964,0.0113 -0.0099,0.0131 v 0.0345 l -0.02964,0.0297 h 0.01159 l -0.01807,0.0297 0.0099,0.0247 -0.02299,0.0181 -0.03131,0.0411 -0.04612,-0.0181 -0.01481,0.0164 -0.01481,-0.009 -0.01973,0.0165 v -0.0297 l -0.01649,0.0148 0.0082,0.0345 -0.01973,0.01 h -0.01481 v -0.0148 l -0.01314,0.009 v -0.0247 h -0.02466 -0.02303 v -0.0164 l -0.02795,0.0113 -0.01481,0.0112 h -0.01314 v -0.0215 l -0.01314,0.0263 -0.02466,-0.0113 h -0.01649 -0.01314 l -0.02468,0.0165 h -0.02303 l -0.0099,-0.0363 0.03791,-0.0543 0.0082,-0.0131 h -0.0099 -0.01481 l -0.0313,0.0113 v -0.0131 l -0.02468,0.0113 v -0.0148 l -0.03623,0.0363 h -0.02634 l -0.02466,0.0379 -0.01159,0.0113 v 0.0493 l -0.02963,0.0113 -0.0313,-0.0313 -0.01807,0.0164 -0.01649,0.0379 -0.03949,0.0214 -0.0099,0.0214 0.01159,0.0411 v 0 l 0.01314,0.0231 -0.02303,0.0214 h -0.06754 v 0.0131 h -0.03791 l -0.03949,-0.0197 -0.01807,-0.01 h -0.03624 l -0.01649,-0.0263 -0.01807,-0.0313 h -0.01159 l -0.05105,0.0165 -0.01807,-0.0197 h -0.01481 -0.04612 -0.01481 -0.04937 l -0.103781,0.0856 -0.01973,0.0642 -0.05272,0.0313 h 0.01973 l 0.0082,0.0197 -0.0099,0.0461 -0.05766,0.01 -0.0313,-0.01 v -0.0493 l -0.02303,-0.0279 v -0.051 l -0.06091,0.051 -0.05598,-0.0181 0.01481,0.0148 -0.01807,0.0231 -0.01159,0.0148 -0.02468,-0.0148 0.01481,-0.0181 -0.04612,-0.01 -0.05273,-0.0889 -0.02795,-0.1646 0.03131,-0.0806 0.03949,-0.0279 0.05924,-0.0148 0.06419,-0.0148 v -0.0429 l 0.02795,-0.0279 0.03949,-0.01 h 0.03288 l 0.01973,-0.0165 0.04285,-0.0279 v -0.0477 l -0.01973,-0.0148 -0.02471,-0.01 -0.01649,-0.0411 0.120164,-0.079 -0.01974,-0.0345 h -0.02142 l -0.03949,-0.0297 0.01973,-0.0395 0.06093,0.0477 0.02468,-0.0214 0.19264,0.0823 v -0.0231 h 0.03949 v 0.0215 l 0.06754,0.0247 0.0082,0.0297 0.01159,-0.0214 h 0.02299 l 0.09054,0.0757 h 0.0099 l 0.04285,-0.0577 0.01159,-0.0113 h 0.02795 0.01807 0.01481 0.01481 0.01807 l 0.0856,-0.0609 0.02468,-0.009 0.02964,-0.0181 0.03949,-0.0148 0.0082,-0.0363 h 0.01314 l 0.02963,-0.0165 v -0.0148 -0.0214 l 0.0082,-0.0197 0.0082,-0.0181 v -0.0197 H 64.2042 l -0.03623,-0.0493 -0.01159,0.01 v -0.0297 l 0.0313,-0.0164 0.02303,-0.0181 h 0.01159 v -0.0329 l 0.03623,-0.0231 0.02468,-0.0165 0.04285,-0.0559 -0.01314,0.0395 0.03625,-0.0443 -0.01807,-0.0148 -0.01314,-0.0112 0.04779,-0.0148 -0.02471,-0.0429 h 0.01481 0.01159 l -0.02795,-0.0181 h 0.0461 l 0.02299,-0.0379 v -0.0165 -0.0263 l -0.03456,-0.0231 v -0.0181 l 0.01159,-0.0148 v -0.0345 h -0.02634 l -0.01807,-0.0263 -0.02795,0.0112 -0.01973,0.0345 h -0.0626 l -0.01481,0.0231 h -0.02795 -0.01649 -0.01649 l -0.0099,0.0181 0.01159,0.0247 h -0.02299 l -0.01649,0.0131 v 0.0263 h -0.04118 l 0.02142,0.0329 -0.08235,0.0231 -0.0099,0.0214 h -0.02964 l -0.08068,-0.084 0.02142,-0.0279 -0.01159,-0.0214 h 0.03624 l -0.01159,-0.0477 -0.03456,0.0148 -0.0099,-0.0131 -0.04444,-0.0477 0.0082,-0.0197 -0.01159,-0.0197 h -0.01481 -0.01807 l -0.03456,-0.10697 0.03782,-0.0807 0.03288,-0.0112 0.03791,-0.0181 h -0.01314 l 0.03949,-0.0379 h -0.02634 l 0.03288,-0.0429 h 0.01807 l 0.03288,-0.0164 -0.01159,-0.0131 0.01649,-0.0113 h -0.02963 v -0.0247 l 0.07079,-0.0345 0.01649,-0.0263 h 0.01159 0.01159 l -0.01975,-0.0329 h 0.01807 l 0.02299,-0.01 v -0.0197 l 0.01481,0.009 v -0.0181 -0.0197 l 0.01314,-0.0131 v -0.0164 l 0.01314,-0.0131 h 0.04285 l -0.01481,-0.0279 0.02963,-0.0181 -0.01807,-0.0247 0.02795,-0.0148 v -0.0197 -0.0559 h 0.05105 l 0.0099,-0.0148 0.0082,-0.0148 0.02795,-0.0559 0.01973,-0.0131 v -0.0231 l 0.01159,-0.0214 v -0.0279 l 0.02303,-0.0131 h 0.01481 l 0.0313,-0.0297 0.04444,-0.0889 0.0099,0.0131 0.0099,-0.0148 0.01973,-0.0493 0.03791,-0.0197 h 0.01159 v -0.0724 h 0.03456 v -0.0411 -0.056 l 0.03288,-0.0181 -0.01159,-0.0131 0.02795,-0.0197 v 0.0181 l 0.03623,-0.0131 0.09222,0.0395 v 0.0197 l -0.05925,0.0231 v 0.0131 l 0.05273,-0.0181 0.0313,0.0857 -0.03791,0.0181 0.04612,-0.009 0.03623,0.0989 -0.04779,0.0345 -0.02471,0.0429 -0.0099,0.0214 v 0.0839 l -0.01807,0.0231 0.05766,0.0379 h 0.01314 0.02468 0.02303 l 0.07573,-0.0279 0.01807,0.0148 0.01481,0.009 0.03456,-0.0113 h 0.01973 l 0.02634,-0.01 h -0.01975 l 0.0313,-0.01 v -0.0164 -0.0313 l 0.02964,-0.0231 0.03623,0.0197 0.0082,0.0112 0.01649,0.01 h 0.01481 0.01481 0.02466 l 0.03456,0.0113 v -0.0164 -0.0148 -0.0131 -0.0231 -0.0493 l 0.05105,-0.0263 0.03456,0.0329 0.0082,-0.0263 0.01481,-0.0112 -0.01159,-0.0411 -0.03288,-0.0181 0.01159,-0.0181 h -0.0099 l -0.03791,-0.0297 v -0.0197 l -0.0099,-0.0263 0.0313,-0.0461 v -0.0231 -0.0329 l 0.04444,-0.0429 h 0.04285 0.01973 l 0.04118,0.0297 0.01314,0.0214 h 0.04285 l 0.0099,0.0279 0.04285,0.0889 0.0313,-0.0113 0.03456,0.0197 -0.01159,0.0329 h 0.01159 v 0.0363 l 0.01649,0.0113 0.02142,-0.0131 0.02795,0.0363 h 0.01314 l 0.01481,0.0113 v 0.0148 h 0.01481 0.01314 l 0.05273,-0.0279 v 0.0197 l 0.01481,-0.0279 h -0.01649 l 0.03131,-0.0214 0.02142,0.009 0.01314,-0.0165 h 0.0019 -0.0313 l 0.09716,-0.0131 v -0.0214 l -0.01649,-0.0229 0.01649,-0.0379 h 0.01314 0.02299 l 0.01481,-0.0247 -0.02964,-0.0148 0.02142,-0.0363 -0.01649,-0.0131 v -0.0165 l 0.03625,0.0148 0.02964,-0.0429 0.03288,0.0214 0.01159,-0.009 h 0.01649 l 0.01478,-0.0131 -0.01314,-0.0379 h -0.02142 v -0.0112 H 65.9709 l 0.02634,-0.0279 -0.03288,-0.0429 0.03625,-0.0297 H 65.9858 l 0.02468,-0.0379 h -0.03623 v -0.0247 h -0.03949 v -0.0313 -0.0411 l -0.05925,0.0165 0.01314,-0.0131 v -0.0214 l -0.0099,-0.01 0.02634,-0.01 0.01807,-0.0148 -0.03288,-0.0263 h 0.04612 l -0.02468,-0.0429 0.04937,0.0329 -0.02299,-0.0279 0.04285,0.0112 0.01159,-0.0263 -0.01314,-0.0247 h -0.03791 l 0.01649,-0.0247 h -0.02795 -0.01807 -0.03288 l 0.02795,-0.0279 h -0.01159 v -0.0313 l -0.02142,-0.0181 h 0.03288 l -0.01159,-0.0148 -0.01649,-0.0148 0.01975,-0.0263 0.05105,0.0197 0.02466,-0.0395 0.01975,-0.0113 v -0.0197 l 0.05431,-0.0148 h 0.01973 l 0.04285,-0.0214 h -0.02471 v -0.0231 l -0.01807,-0.0131 v -0.0329 l 0.02466,-0.0112 -0.02142,-0.01 v -0.0625 l 0.04118,-0.0493 0.0098,-0.0131 0.03791,-0.0429 0.04285,-0.0247 v -0.0658 l 0.01481,-0.0113 v -0.0148 l 0.01314,-0.0197 0.02795,-0.009 h 0.01481 l 0.03288,-0.0165 -0.04779,-0.0181 v -0.0297 h 0.02303 v -0.023 h 0.0313 l -0.03456,-0.0461 0.06092,-0.0297 h -0.07574 v -0.0263 l 0.02303,-0.0112 h 0.0082 l -0.01314,-0.0164 v -0.0131 l -0.02634,-0.0131 h -0.0099 l -0.0099,-0.0197 -0.02795,0.0297 -0.01807,-0.0148 v -0.0345 l -0.01314,-0.01 0.01159,-0.01 -0.04779,-0.0214 -0.0099,-0.0247 -0.01807,-0.0297 v -0.0181 l 0.01159,-0.0214 h 0.01973 0.01973 l -0.0082,-0.0247 0.0082,-0.0131 v -0.0165 l 0.0099,-0.0279 h -0.03456 l -0.01649,0.0197 -0.03624,0.0429 -0.01973,-0.0112 -0.02634,-0.009 h -0.09381 -0.01481 v 0.0313 l -0.02466,0.0113 v -0.0247 h -0.05925 l 0.01159,-0.0214 -0.01314,-0.01 -0.02299,0.0297 -0.01481,0.0113 v 0.0214 h -0.01159 l -0.01314,0.0164 -0.01159,0.056 -0.02634,0.0197 -0.02963,0.0279 h -0.03288 l 0.01481,0.0313 -0.05431,0.0113 -0.0082,0.0231 0.01314,0.0379 -0.01807,0.01 -0.02466,0.01 -0.06586,0.0345 -0.03949,0.0214 -0.03456,0.0148 -0.04779,0.0592 -0.03288,0.0214 H 65.3605 l -0.03456,0.0493 -0.04285,0.0181 v 0.0165 0.0313 l -0.02468,0.0313 -0.04612,0.0576 -0.02963,0.0477 -0.02634,0.0938 h -0.02468 l 0.02795,0.0197 -0.01314,0.0461 0.01807,0.0345 v 0.0642 l 0.01975,0.0279 0.01481,0.0774 -0.01481,-0.0181 -0.03288,0.0131 -0.01649,-0.0527 h -0.01649 l -0.133397,-0.14159 -0.05925,0.0626 h -0.06585 v 0.0626 h -0.05105 v 0.0443 l -0.06585,0.079 -0.02468,0.061 -0.03623,0.023 -0.01807,0.0395 v 0.0263 l -0.01314,-0.0113 -0.03624,0.0197 -0.08887,-0.0411 -0.02634,-0.0313 0.0099,-0.0625 -0.02795,-0.0379 0.01973,-0.0231 -0.01973,-0.0214 v -0.0691 l -0.0313,-0.0197 -0.04444,0.0477 h -0.06912 l -0.03625,-0.0592 -0.0099,-0.0477 -0.02466,-0.0609 0.02795,0.0165 -0.01973,-0.0379 h -0.03949 l -0.06419,-0.0543 0.02634,-0.0313 0.01159,0.0131 0.05766,-0.0164 v -0.0429 l -0.01159,-0.0214 v 0.0197 l -0.08235,-0.0148 -0.01159,-0.0214 -0.05598,-0.16461 v 0.0313 l -0.01649,-0.0164 0.0082,-0.0889 v -0.0626 l 0.01159,-0.0577 0.06419,-0.0576 0.05431,0.01 0.08729,-0.0429 0.01649,0.0297 h 0.02299 l 0.02303,-0.0131 -0.01649,-0.0197 0.03288,-0.056 0.02468,-0.0181 0.05105,-0.0165 v -0.0148 l 0.04285,-0.0297 0.03625,-0.009 -0.0313,0.0279 h 0.08066 l -0.02963,-0.0263 h 0.0856 l -0.01481,0.0395 0.04118,0.0164 -0.01807,0.0148 0.07406,-0.0181 0.02634,-0.0395 0.0313,0.01 0.02142,-0.10871 0.0626,-0.0279 0.0099,0.0231 0.02795,-0.0113 0.200835,0.12676 0.08235,-0.0197 0.05598,0.0937 0.02299,-0.0148 h 0.02964 l -0.0099,-0.0181 0.0099,-0.0131 v -0.0444 l 0.02299,-0.0148 h -0.02142 v -0.061 -0.0363 l -0.01481,-0.0181 -0.01159,-0.0165 0.01973,-0.0181 v -0.0113 l -0.0099,-0.0214 -0.01649,-0.0429 v -0.0279 -0.0113 -0.0214 l -0.0099,-0.0313 v -0.0363 l 0.0082,-0.0148 -0.01159,-0.0493 0.01649,-0.0379 0.03131,-0.0148 h 0.01314 v -0.0214 h 0.02466 l -0.03623,-0.0429 -0.0034,-0.0379 -0.02142,0.0148 0.02634,-0.0527 h 0.01973 l 0.06585,0.0231 0.02634,-0.0231 0.01314,0.0313 h 0.01807 v 0.0247 l 0.0313,0.0148 v -0.0231 h 0.02964 0.01159 v -0.0231 l -0.01649,0.0131 -0.01481,-0.0197 -0.0098,-0.0131 h 0.01975 0.02634 l 0.01314,-0.0263 0.02142,0.0131 v -0.0279 h 0.01159 l 0.01159,-0.0395 0.01649,-0.0214 v 0.0131 -0.0113 -0.0164 l -0.01973,-0.0113 v -0.0329 l 0.02142,-0.009 h 0.01649 0.01975 l 0.01974,-0.0231 v -0.0197 h -0.02634 l 0.01481,-0.0297 0.01314,-0.0181 0.0082,-0.0429 -0.01159,-0.0131 0.0099,-0.009 v -0.0181 -0.0165 -0.0197 l 0.01807,-0.0329 v -0.0148 h 0.01314 l -0.0082,-0.0165 v -0.0181 l 0.01807,-0.009 h 0.01481 v -0.0247 l -0.04779,-0.0444 -0.0099,-0.0263 0.01314,-0.0279 v -0.0345 l 0.04118,-0.0165 0.01159,-0.0131 v -0.0229 l 0.01159,-0.0493 v -0.0165 h 0.02468 l -0.02634,-0.0197 0.03456,-0.0263 0.0082,0.0379 0.02303,-0.0363 v -0.0197 l 0.02634,-0.0181 0.03791,0.0148 h 0.01481 l 0.01807,0.01 0.02963,-0.0131 0.03288,-0.009 h 0.01807 l 0.01314,0.01 0.01314,0.0131 0.01481,0.0113 0.01481,0.0113 0.02634,0.0263 0.01159,0.0197 0.0099,0.0131 v 0.0148 0.0131 l 0.0082,0.0113 h 0.01481 l 0.01481,0.01 0.02466,0.0181 0.03288,0.0164 v 0.0197 0.0345 l 0.02142,0.0112 0.02634,-0.0197 h 0.05766 l 0.01159,-0.0247 0.02142,-0.01 h 0.0082 0.01314 l 0.0082,-0.0279 0.02142,-0.0247 h -0.03288 -0.01975 v -0.0148 h -0.01159 v -0.0229 h -0.01314 -0.0066 l -0.01807,-0.0329 h -0.01973 v -0.0173 h -0.02299 l -0.0313,0.0131 v -0.0379 l -0.02142,-0.0181 0.05431,-0.0231 h -0.03288 -0.01649 l -0.0082,-0.0313 h -0.01807 l -0.01649,-0.01 0.04285,-0.0113 0.03782,0.0263 0.01314,-0.0113 v -0.0131 l 0.01973,0.0197 0.02795,-0.0113 0.0082,0.0197 0.01807,-0.01 -0.01807,-0.0395 0.0099,-0.0131 h 0.02299 0.0461 0.02468 0.02299 v -0.0229 l 0.01314,0.0379 h 0.02634 l 0.0099,-0.0279 -0.01649,-0.0297 0.01649,-0.0131 h -0.01159 -0.02303 l 0.02468,-0.0247 -0.01314,-0.0164 0.03949,-0.0429 -0.03624,-0.0395 h 0.03456 l 0.02964,0.0197 0.01159,-0.0313 0.02142,0.0165 -0.01314,-0.0297 h 0.02634 l -0.02963,-0.0247 0.02299,-0.0263 -0.01973,-0.0297 0.03456,0.01 0.03623,-0.079 -0.02471,0.0214 z m -22.808467,-3.74076 0.05105,0.0247 -0.0082,0.051 0.01807,0.0493 0.0626,0.0411 h -0.04937 l -0.02964,-0.0297 v -0.0345 -0.0165 l -0.02964,-0.0429 -0.02634,-0.0313 z"
         style="fill:#00a29a;stroke-width:0.09873966"
         inkscape:connector-curvature="0" />
    </g>
  </g>
</svg>
