<?xml version="1.0" encoding="utf-8"?>
<!-- Generator: Adobe Illustrator 12.0.0, SVG Export Plug-In . SVG Version: 6.00 Build 51448)  -->
<!DOCTYPE svg PUBLIC "-//W3C//DTD SVG 1.1//EN" "http://www.w3.org/Graphics/SVG/1.1/DTD/svg11.dtd" [
	<!ENTITY ns_svg "http://www.w3.org/2000/svg">
	<!ENTITY ns_xlink "http://www.w3.org/1999/xlink">
]>
<svg  version="1.1" id="レイヤー_1" xmlns="&ns_svg;" xmlns:xlink="&ns_xlink;" width="1105.849" height="468.592"
	 viewBox="0 0 1105.849 468.592" overflow="visible" enable-background="new 0 0 1105.849 468.592" xml:space="preserve">
<g>
	<g>
		<g>
			<g>
				<path fill="#D52018" d="M171.53,329.853l23.763-27.887c-31.114-12.256-53.11-42.343-53.11-77.568
					c0-46.093,37.681-83.454,84.193-83.454c46.505,0,84.225,37.361,84.225,83.454c0,33.665-20.112,62.636-49.057,75.837
					l24.531,26.998c35.852-20.484,59.989-58.855,59.989-102.835c0-65.505-53.597-118.612-119.688-118.612
					c-66.086,0-119.66,53.107-119.66,118.612C106.717,270.33,133.035,310.142,171.53,329.853z"/>
			</g>
		</g>
		<g>
			<g>
				<path fill="#228DB0" d="M101.756,411.736l23.288-27.33C71.44,350.954,35.81,291.773,35.81,224.382
					c0-104.313,85.325-188.9,190.575-188.9c105.234,0,190.602,84.586,190.602,188.9c0,64.645-32.802,121.733-82.794,155.807
					l24.142,26.57c57.202-40.725,94.459-107.225,94.459-182.361C452.792,100.463,351.447,0,226.384,0C101.357,0,0,100.463,0,224.397
					C0,302.683,40.452,371.588,101.756,411.736z"/>
			</g>
		</g>
		<g>
			<g>
				<path fill="#E6C01E" d="M148.202,357.229l23.328-27.377c-38.496-19.711-64.813-59.522-64.813-105.455
					c0-65.505,53.573-118.612,119.66-118.612c66.091,0,119.688,53.107,119.688,118.612c0,43.979-24.138,82.351-59.989,102.835
					l24.135,26.563c42.896-27.368,71.324-75.113,71.324-129.414c0-84.902-69.505-153.741-155.158-153.741
					c-85.668,0-155.116,68.839-155.116,153.741C71.26,281.034,102.181,330.544,148.202,357.229z"/>
			</g>
		</g>
		<g>
			<g>
				<path fill="#17804D" d="M125.043,384.407l23.16-27.179C102.18,330.543,71.26,281.033,71.26,224.382
					c0-84.902,69.448-153.741,155.124-153.741c85.645,0,155.15,68.839,155.15,153.741c0,54.302-28.428,102.047-71.324,129.415
					l23.98,26.392c49.993-34.073,82.794-91.162,82.794-155.807c0-104.313-85.368-188.9-190.602-188.9
					c-105.25,0-190.586,84.586-190.586,188.9C35.798,291.774,71.435,350.956,125.043,384.407z"/>
			</g>
		</g>
	</g>
	<g>
		<path fill="#221815" d="M141.047,447.247h-7.192l-11.577-15.214c-0.435-0.57-0.697-0.957-0.793-1.155h-0.089v16.369h-5.525
			v-33.265h5.525v15.632h0.089c0.188-0.338,0.454-0.708,0.793-1.14l11.158-14.492h6.614l-13.063,15.971L141.047,447.247z"/>
		<path fill="#221815" d="M172.229,447.247h-6.056l-2.991-8.469h-13.083l-2.88,8.469h-6.033l12.458-33.265h6.218L172.229,447.247z
			 M161.718,434.296l-4.616-13.276c-0.138-0.446-0.285-1.123-0.438-2.094h-0.096c-0.139,0.879-0.289,1.57-0.462,2.094l-4.57,13.276
			H161.718z"/>
		<path fill="#221815" d="M215.939,413.982l-9.118,33.265h-6.241l-6.333-23.27c-0.265-0.986-0.423-2.064-0.489-3.234h-0.088
			c-0.081,1.093-0.266,2.156-0.56,3.188l-6.356,23.315h-6.379l-9.306-33.265h6.056l6.033,24.349c0.243,1.031,0.4,2.094,0.461,3.203
			h0.12c0.058-0.785,0.274-1.849,0.647-3.203l6.823-24.349h5.682l6.311,24.549c0.22,0.831,0.381,1.816,0.489,2.957h0.092
			c0.046-0.771,0.223-1.787,0.536-3.049l5.917-24.457H215.939z"/>
		<path fill="#221815" d="M245.754,447.247h-6.056l-2.991-8.469H223.62l-2.875,8.469h-6.033l12.462-33.265h6.214L245.754,447.247z
			 M235.243,434.296l-4.616-13.276c-0.138-0.446-0.285-1.123-0.438-2.094h-0.092c-0.143,0.879-0.293,1.57-0.466,2.094l-4.57,13.276
			H235.243z"/>
		<path fill="#221815" d="M248.796,445.923v-5.684c0.508,0.447,1.12,0.879,1.817,1.249c0.708,0.384,1.452,0.692,2.244,0.954
			c0.786,0.247,1.579,0.446,2.364,0.585c0.79,0.139,1.518,0.217,2.179,0.217c2.327,0,4.051-0.386,5.187-1.172
			c1.139-0.755,1.705-1.894,1.705-3.356c0-0.786-0.188-1.479-0.565-2.049c-0.377-0.584-0.905-1.108-1.59-1.602
			c-0.685-0.478-1.482-0.939-2.402-1.386c-0.919-0.432-1.906-0.894-2.957-1.37c-1.128-0.602-2.183-1.217-3.158-1.834
			c-0.969-0.614-1.816-1.308-2.541-2.048c-0.716-0.753-1.282-1.602-1.69-2.54c-0.412-0.956-0.616-2.048-0.616-3.312
			c0-1.57,0.35-2.927,1.055-4.081c0.705-1.155,1.632-2.095,2.78-2.85c1.155-0.754,2.464-1.309,3.938-1.663
			c1.471-0.369,2.969-0.555,4.497-0.555c3.484,0,6.022,0.386,7.612,1.187v5.452c-1.89-1.355-4.316-2.034-7.285-2.034
			c-0.82,0-1.636,0.078-2.452,0.232c-0.805,0.153-1.533,0.415-2.179,0.754c-0.639,0.369-1.159,0.816-1.563,1.37
			c-0.404,0.555-0.601,1.218-0.601,2.018c0,0.739,0.15,1.37,0.462,1.91c0.309,0.555,0.762,1.048,1.359,1.495
			c0.593,0.446,1.321,0.892,2.179,1.323c0.854,0.415,1.852,0.878,2.979,1.37c1.164,0.616,2.256,1.248,3.285,1.91
			c1.028,0.661,1.933,1.386,2.714,2.202c0.786,0.801,1.398,1.693,1.859,2.68c0.459,0.986,0.686,2.095,0.686,3.341
			c0,1.695-0.343,3.112-1.024,4.267c-0.686,1.17-1.594,2.11-2.75,2.835c-1.159,0.722-2.48,1.246-3.98,1.585
			c-1.498,0.323-3.088,0.477-4.755,0.477c-0.558,0-1.239-0.03-2.055-0.121c-0.809-0.094-1.641-0.201-2.492-0.37
			c-0.85-0.17-1.658-0.355-2.414-0.601C249.87,446.492,249.258,446.216,248.796,445.923z"/>
		<path fill="#221815" d="M303.529,447.247h-6.053l-2.999-8.469H281.39l-2.872,8.469h-6.037l12.459-33.265h6.222L303.529,447.247z
			 M293.021,434.296l-4.624-13.276c-0.139-0.446-0.285-1.123-0.438-2.094h-0.092c-0.139,0.879-0.293,1.57-0.463,2.094l-4.569,13.276
			H293.021z"/>
		<path fill="#221815" d="M333.273,447.247h-7.195L314.5,432.033c-0.431-0.57-0.692-0.957-0.789-1.155h-0.092v16.369h-5.521v-33.265
			h5.521v15.632h0.092c0.189-0.338,0.454-0.708,0.789-1.14l11.162-14.492h6.615l-13.067,15.971L333.273,447.247z"/>
		<path fill="#221815" d="M342.784,447.247h-5.679v-33.265h5.679V447.247z"/>
	</g>
	<g>
		<path fill="#221815" d="M185.365,397.319c-4.789,0-8.632-1.555-11.519-4.666c-2.879-3.096-4.324-7.146-4.324-12.136
			c0-5.344,1.467-9.609,4.405-12.797c2.941-3.188,6.926-4.774,11.974-4.774c4.674,0,8.436,1.54,11.285,4.635
			c2.856,3.097,4.281,7.146,4.281,12.136c0,5.421-1.459,9.718-4.386,12.875C194.163,395.749,190.255,397.319,185.365,397.319z
			 M185.62,367.813c-3.049,0-5.521,1.124-7.435,3.404c-1.91,2.278-2.865,5.251-2.865,8.978c0,3.681,0.928,6.653,2.783,8.917
			c1.856,2.248,4.281,3.373,7.284,3.373c3.188,0,5.698-1.063,7.543-3.203c1.844-2.156,2.76-5.159,2.76-9.041
			c0-3.957-0.893-7.022-2.684-9.193C191.226,368.875,188.761,367.813,185.62,367.813z"/>
		<path fill="#221815" d="M213.067,384.691v12.073h-5.498V363.5h10.095c3.819,0,6.78,0.894,8.886,2.664
			c2.102,1.787,3.157,4.282,3.157,7.517s-1.101,5.883-3.295,7.931c-2.195,2.064-5.167,3.08-8.909,3.08H213.067z M213.067,368.059
			v12.151h3.577c2.368,0,4.166-0.555,5.406-1.647c1.235-1.109,1.855-2.649,1.855-4.636c0-3.912-2.271-5.868-6.822-5.868H213.067z"/>
		<path fill="#221815" d="M254.02,396.765h-18.677V363.5h17.938v4.667h-12.417v9.44h11.438v4.682h-11.438v9.795h13.156V396.765z"/>
		<path fill="#221815" d="M288.151,396.765h-6.033l-15.893-24.455c-0.401-0.616-0.736-1.263-1.001-1.925h-0.138
			c0.126,0.708,0.185,2.233,0.185,4.574v21.806h-5.333V363.5h6.426l15.362,23.871c0.65,0.985,1.066,1.663,1.248,2.049h0.096
			c-0.154-0.894-0.234-2.388-0.234-4.482V363.5h5.316V396.765z"/>
	</g>
</g>
<g>
	<g>
		<path fill="#221815" d="M612.655,319.595c-1.188-0.679-2.527-1.032-4.051-1.032c-4.267,0-6.392,2.418-6.392,7.254v5.267h9.01
			v6.884h-8.979v31.895h-8.794v-31.895h-6.623v-6.884h6.623v-6.299c0-4.097,1.34-7.314,4.02-9.687s6.021-3.542,10.041-3.542
			c2.171,0,3.896,0.23,5.145,0.724V319.595z"/>
		<path fill="#221815" d="M634.677,370.754c-5.991,0-10.765-1.817-14.338-5.436c-3.588-3.619-5.374-8.424-5.374-14.399
			c0-6.515,1.878-11.596,5.59-15.246c3.727-3.666,8.747-5.498,15.062-5.498c6.052,0,10.78,1.786,14.168,5.344
			c3.389,3.558,5.067,8.485,5.067,14.799c0,6.176-1.818,11.135-5.468,14.861C645.733,368.891,640.837,370.754,634.677,370.754z
			 M635.093,337.197c-3.435,0-6.159,1.2-8.147,3.603c-2.002,2.388-2.987,5.698-2.987,9.903c0,4.065,1.001,7.269,3.02,9.594
			c2.016,2.342,4.727,3.497,8.115,3.497c3.45,0,6.114-1.141,7.961-3.435c1.863-2.296,2.789-5.56,2.789-9.811
			c0-4.25-0.926-7.546-2.789-9.871C641.207,338.367,638.543,337.197,635.093,337.197z"/>
		<path fill="#221815" d="M686.298,339.43c-1.063-0.847-2.587-1.278-4.589-1.278c-2.603,0-4.773,1.187-6.499,3.527
			c-1.755,2.355-2.633,5.56-2.633,9.595v18.588h-8.778v-38.778h8.778v7.946h0.153c0.862-2.726,2.187-4.851,3.974-6.376
			c1.771-1.524,3.758-2.278,5.96-2.278c1.586,0,2.803,0.23,3.634,0.708V339.43z"/>
		<path fill="#221815" d="M755.923,369.861h-11.75l-18.896-24.841c-0.708-0.925-1.14-1.556-1.293-1.895h-0.154v26.735h-9.009
			v-54.286h9.009v25.518h0.154c0.308-0.569,0.739-1.17,1.293-1.863l18.219-23.654h10.796l-21.33,26.041L755.923,369.861z"/>
		<path fill="#221815" d="M806.821,369.861h-9.887l-4.882-13.846h-21.36l-4.697,13.846h-9.841l20.328-54.286h10.165L806.821,369.861
			z M789.665,348.686l-7.546-21.669c-0.216-0.708-0.462-1.832-0.709-3.402h-0.153c-0.231,1.432-0.478,2.571-0.755,3.402
			l-7.469,21.669H789.665z"/>
		<path fill="#221815" d="M878.187,315.575l-14.893,54.286H853.1l-10.334-37.978c-0.431-1.617-0.693-3.372-0.801-5.298h-0.14
			c-0.138,1.802-0.431,3.542-0.923,5.221l-10.365,38.055h-10.425l-15.186-54.286h9.888l9.84,39.748
			c0.416,1.663,0.663,3.403,0.755,5.221h0.2c0.108-1.278,0.463-3.02,1.063-5.221l11.135-39.748h9.286l10.288,40.056
			c0.354,1.355,0.632,2.972,0.801,4.836h0.152c0.078-1.263,0.371-2.927,0.879-4.99l9.641-39.901H878.187z"/>
		<path fill="#221815" d="M926.852,369.861h-9.888l-4.883-13.846h-21.359l-4.696,13.846h-9.856l20.344-54.286h10.148
			L926.852,369.861z M909.695,348.686l-7.531-21.669c-0.23-0.708-0.461-1.832-0.724-3.402h-0.154
			c-0.215,1.432-0.477,2.571-0.754,3.402l-7.469,21.669H909.695z"/>
		<path fill="#221815" d="M931.81,367.674v-9.286c0.848,0.754,1.833,1.433,2.988,2.049c1.14,0.601,2.371,1.124,3.65,1.539
			c1.293,0.416,2.571,0.739,3.864,0.971c1.295,0.23,2.479,0.339,3.558,0.339c3.789,0,6.623-0.632,8.471-1.895
			c1.863-1.246,2.772-3.095,2.772-5.482c0-1.294-0.293-2.402-0.909-3.357c-0.632-0.939-1.493-1.802-2.603-2.588
			c-1.108-0.785-2.433-1.539-3.928-2.263c-1.493-0.724-3.11-1.464-4.819-2.249c-1.849-0.985-3.558-1.986-5.159-3.003
			c-1.587-1.001-2.972-2.125-4.144-3.342c-1.17-1.232-2.094-2.603-2.771-4.142c-0.662-1.541-1.001-3.358-1.001-5.422
			c0-2.557,0.585-4.773,1.725-6.652c1.155-1.879,2.664-3.436,4.543-4.651c1.878-1.232,4.019-2.141,6.422-2.741
			c2.402-0.586,4.851-0.878,7.346-0.878c5.683,0,9.826,0.646,12.429,1.925v8.917c-3.08-2.218-7.055-3.327-11.89-3.327
			c-1.34,0-2.68,0.14-4.004,0.386s-2.51,0.662-3.558,1.247c-1.047,0.569-1.894,1.324-2.557,2.218
			c-0.662,0.909-0.985,2.002-0.985,3.281c0,1.231,0.262,2.264,0.755,3.156c0.508,0.878,1.248,1.694,2.218,2.417
			c0.971,0.74,2.171,1.448,3.573,2.141c1.385,0.694,3.019,1.448,4.866,2.265c1.879,0.97,3.665,2.018,5.344,3.096
			c1.678,1.094,3.157,2.294,4.435,3.604c1.279,1.309,2.279,2.771,3.035,4.373c0.739,1.602,1.123,3.42,1.123,5.468
			c0,2.758-0.555,5.082-1.678,6.977c-1.108,1.894-2.604,3.434-4.482,4.62c-1.878,1.186-4.05,2.048-6.498,2.571
			c-2.449,0.539-5.036,0.801-7.762,0.801c-0.91,0-2.032-0.062-3.357-0.2c-1.325-0.153-2.68-0.354-4.065-0.616
			c-1.386-0.262-2.71-0.584-3.943-0.97C933.565,368.599,932.58,368.167,931.81,367.674z"/>
		<path fill="#221815" d="M1021.178,369.861h-9.902l-4.882-13.846h-21.36l-4.696,13.846h-9.842l20.328-54.286h10.164
			L1021.178,369.861z M1004.006,348.686l-7.53-21.669c-0.23-0.708-0.478-1.832-0.723-3.402h-0.155
			c-0.215,1.432-0.477,2.571-0.755,3.402l-7.469,21.669H1004.006z"/>
		<path fill="#221815" d="M1069.72,369.861h-11.735l-18.896-24.841c-0.708-0.925-1.14-1.556-1.293-1.895h-0.155v26.735h-9.008
			v-54.286h9.008v25.518h0.155c0.292-0.569,0.724-1.17,1.293-1.863l18.219-23.654h10.781l-21.314,26.041L1069.72,369.861z"/>
		<path fill="#221815" d="M1085.259,369.861h-9.287v-54.286h9.287V369.861z"/>
	</g>
	<g>
		<g>
			<path fill="#228DB0" d="M773.896,132.15c-41.458,0-75.061,33.311-75.061,74.414c0,41.08,33.603,74.391,75.061,74.391
				c41.473,0,75.076-33.312,75.076-74.391C848.972,165.46,815.368,132.15,773.896,132.15z M773.896,269.205
				c-34.897,0-63.187-28.076-63.187-62.649c0-34.597,28.289-62.648,63.187-62.648s63.203,28.052,63.203,62.648
				C837.099,241.129,808.793,269.205,773.896,269.205z"/>
		</g>
	</g>
	<g>
		<g>
			<path fill="#17804D" d="M773.896,143.908c-34.897,0-63.187,28.052-63.187,62.648c0,34.573,28.289,62.649,63.187,62.649
				s63.203-28.076,63.203-62.649C837.099,171.959,808.793,143.908,773.896,143.908z M773.896,257.547
				c-28.414,0-51.422-22.839-51.422-50.991c0-28.159,23.008-50.983,51.422-50.983s51.452,22.824,51.452,50.983
				C825.348,234.708,802.31,257.547,773.896,257.547z"/>
		</g>
	</g>
	<g>
		<g>
			<path fill="#E6C01E" d="M773.896,155.573c-28.414,0-51.422,22.824-51.422,50.983c0,28.152,23.008,50.991,51.422,50.991
				s51.452-22.839,51.452-50.991C825.348,178.397,802.31,155.573,773.896,155.573z M773.896,245.889
				c-21.898,0-39.671-17.602-39.671-39.325c0-21.729,17.772-39.333,39.671-39.333c21.915,0,39.687,17.603,39.687,39.333
				C813.582,228.287,795.811,245.889,773.896,245.889z"/>
		</g>
	</g>
	<g>
		<g>
			<path fill="#D52018" d="M773.896,167.231c-21.898,0-39.671,17.603-39.671,39.333c0,21.723,17.772,39.325,39.671,39.325
				c21.915,0,39.687-17.602,39.687-39.325C813.582,184.834,795.811,167.231,773.896,167.231z M773.896,234.23
				c-15.416,0-27.921-12.382-27.921-27.667s12.505-27.682,27.921-27.682s27.936,12.397,27.936,27.682S789.312,234.23,773.896,234.23
				z"/>
		</g>
	</g>
	<g>
		<path fill="#221815" d="M681.4,271.576c-11.164,5.591-25.056,8.378-41.688,8.378c-21.484,0-38.67-6.545-51.591-19.636
			c-12.906-13.09-19.359-30.261-19.359-51.545c0-22.861,7.255-41.334,21.777-55.417c14.538-14.099,32.956-21.137,55.271-21.137
			c14.322,0,26.181,1.956,35.59,5.883v17.841c-10.811-5.698-22.745-8.547-35.789-8.547c-17.341,0-31.401,5.483-42.166,16.439
			c-10.78,10.966-16.154,25.619-16.154,43.961c0,17.41,5.02,31.286,15.106,41.604c10.057,10.333,23.286,15.507,39.625,15.507
			c15.17,0,28.291-3.203,39.378-9.577V271.576z"/>
		<path fill="#221815" d="M874.675,277.536V134.637h41.688c53.208,0,79.805,23.224,79.805,69.655
			c0,22.054-7.392,39.778-22.161,53.163c-14.784,13.397-34.559,20.081-59.321,20.081H874.675z M892.354,149.83v112.521h22.53
			c19.79,0,35.206-5.021,46.216-15.046c11.027-10.019,16.525-24.217,16.525-42.613c0-36.583-20.56-54.863-61.679-54.863H892.354z"/>
		<path fill="#221815" d="M1105.849,277.536h-80.005V134.637h76.647v15.193h-58.951v47.455h54.532v15.054h-54.532v50.013h62.309
			V277.536z"/>
	</g>
</g>
</svg>
