<svg xmlns="http://www.w3.org/2000/svg" viewBox="0 0 98.46 73.9"><defs><style>.cls-1{fill:#e50011;}.cls-2{fill:#666;}.cls-3{fill:#fff;}</style></defs><g id="レイヤー_2" data-name="レイヤー 2"><g id="レイヤー_1-2" data-name="レイヤー 1"><path class="cls-1" d="M16,0a9.65,9.65,0,1,0,9.65,9.65A9.65,9.65,0,0,0,16,0Zm0,14.52a6.74,6.74,0,1,1,6.74-6.73A6.73,6.73,0,0,1,16,14.52Z"/><path class="cls-1" d="M16,2.1a4.34,4.34,0,1,0,4.34,4.34A4.33,4.33,0,0,0,16,2.1Z"/><path class="cls-2" d="M35.09,8.91a14.06,14.06,0,0,0-3.23-1.66l.59-.85A15.15,15.15,0,0,1,35.7,8ZM32.42,16a50.8,50.8,0,0,0,3.12-5.36l.82.72c-.87,1.75-2.06,3.84-3,5.39Zm.93-14.11a12.93,12.93,0,0,1,3.19,1.77l-.65.9a13,13,0,0,0-3.14-1.85ZM46.72,5V12.2H45.64v-.89H42.42V17H41.31V11.31H38.16v1h-1V5h4.19V1.83h1.11V5Zm-5.41,5.24V6.1H38.16v4.16Zm4.33,0V6.1H42.42v4.16Z"/><path class="cls-2" d="M52.38,11.38a16.39,16.39,0,0,1-1.17,4.24,3.74,3.74,0,0,0-.85-.42,12.63,12.63,0,0,0,1.06-4ZM55.2,7.1a14.31,14.31,0,0,1,1.63,3.41l-.9.42a9,9,0,0,0-.35-1.1l-1.43.1V17h-1V10l-2.7.15-.09-1,1.17,0c.35-.43.72-.93,1.09-1.46a16.67,16.67,0,0,0-2.11-2.43l.6-.7c.17.15.35.32.52.49A21.42,21.42,0,0,0,53.18,1.8l1,.36A28.61,28.61,0,0,1,52.24,5.6c.37.4.7.8,1,1.15.68-1,1.35-2.17,1.82-3.08l.95.45A54,54,0,0,1,52.59,9l2.57-.11a13.55,13.55,0,0,0-.78-1.47Zm.43,4.08a11.12,11.12,0,0,1,.9,3l-.87.27a12.18,12.18,0,0,0-.85-3Zm8.88,5c.47,0,.57-.28.6-1.42a3.23,3.23,0,0,0,.9.39c-.08,1.45-.38,1.9-1.45,1.9H62.14c-1.28,0-1.64-.32-1.64-1.7v-.79H58v.9H57V9H60.5V7.91H57.17V2.58H65V7.91H61.52V9H65.3v5.57H61.52v.8c0,.69.1.82.75.82ZM58,9.81v1.5H60.5V9.81Zm2.53,3.86V12.16H58v1.51ZM58.13,4.83H60.5V3.42H58.13ZM60.5,7.07V5.64H58.13V7.07ZM64,3.42H61.52V4.83H64Zm0,2.22H61.52V7.07H64ZM61.52,9.81v1.5h2.77V9.81Zm2.77,3.86V12.16H61.52v1.51Z"/><path class="cls-2" d="M74.32,13.43a16.64,16.64,0,0,1-4,3.34c-.24-.22-.62-.57-.87-.75a13,13,0,0,0,3.76-3Zm9.93-2.14v1H77.43V17H76.29V12.3H71.5v.46H70.4V3.25h1.1v8Zm-2-1.3h-9V2.43h9ZM81.23,3.27H74.34v1.4h6.89Zm0,2.2H74.34V6.92h6.89Zm0,2.25H74.34V9.16h6.89Zm-1,5.26a35.35,35.35,0,0,1,4,3.11l-.95.7a35.62,35.62,0,0,0-3.91-3.22Z"/><path class="cls-2" d="M12.54,64a21.45,21.45,0,0,1-1.31,4.79,20.49,20.49,0,0,1,1.71,2.66l-.81.69a18.55,18.55,0,0,0-1.39-2.31,10.24,10.24,0,0,1-3.53,3.94,3.72,3.72,0,0,0-.7-.76,9.34,9.34,0,0,0,3.59-4,39.24,39.24,0,0,0-2.73-3.3l.71-.56a36,36,0,0,1,2.46,2.82,19.73,19.73,0,0,0,1-4.06Zm1.35-.51h-7v-.94h3V60h1v2.52h3.1Zm6.64,1.19H18.67v7.81c0,.72-.2,1-.63,1.21a7.74,7.74,0,0,1-2.49.2,3.91,3.91,0,0,0-.33-1c1,0,1.83,0,2.07,0s.39-.09.39-.36V64.67H13.43v-1h4.25V60h1v3.72h1.86Zm-5.19,5.49a13.16,13.16,0,0,0-1.67-3.44l.85-.38a12.25,12.25,0,0,1,1.69,3.38Z"/><path class="cls-2" d="M27.15,62.23a11.1,11.1,0,0,1-1.44,1.83c-.2-.15-.63-.44-.86-.58a9.23,9.23,0,0,0,2.4-3.54l1,.26c-.16.38-.35.78-.55,1.16h4v.87H29a9,9,0,0,1,.67,1.47l-.9.35A8,8,0,0,0,28,62.23Zm5.34,6.71A12.81,12.81,0,0,0,39,72.45a7.67,7.67,0,0,0-.64.89,13.7,13.7,0,0,1-5.85-3.26V73.9H31.44V70.07a13.64,13.64,0,0,1-5.79,3.33,3.6,3.6,0,0,0-.66-.84,12.36,12.36,0,0,0,6.45-3.73V67.49H27.53v3H26.47V66.58h5V65.33H25.37v-.9h6.07V64a6.91,6.91,0,0,0-.84-.59,8.08,8.08,0,0,0,2.49-3.5l1,.24a10.38,10.38,0,0,1-.53,1.18H38.6v.87H35.3a7.77,7.77,0,0,1,.8,1.47l-.92.32a8.07,8.07,0,0,0-1-1.79H33a8.91,8.91,0,0,1-.95,1.21h.43v1H38.4v.9H32.49v1.25h5v2.88c0,.5-.1.71-.49.87a6.24,6.24,0,0,1-1.8.13,3.86,3.86,0,0,0-.36-.81c.65,0,1.23,0,1.39,0s.23-.06.23-.21v-2h-4Z"/><path class="cls-2" d="M56.32,63.62a11.09,11.09,0,0,0,1.44-.08v1.22c-.15,0-.74,0-1.42,0H54.45v.56c0,4.36-.92,6.52-4.57,8.17l-1-.92c2.91-1.13,4.39-2.5,4.39-7.14v-.67H48.57V67.4c0,.58,0,1.29,0,1.42H47.35c0-.13.08-.83.08-1.42V64.72H45.62c-.7,0-1.45,0-1.6,0V63.52a14.76,14.76,0,0,0,1.6.1h1.81V61.47a9.06,9.06,0,0,0-.07-1.13h1.28a8.49,8.49,0,0,0-.07,1.11v2.17H53.3V61.54a10.25,10.25,0,0,0-.08-1.3h1.31a10.58,10.58,0,0,0-.08,1.3v2.08Z"/><path class="cls-2" d="M74.51,61.1a26.19,26.19,0,0,1-4.35,3.49v7a10.1,10.1,0,0,0,.1,1.65H68.84a13,13,0,0,0,.1-1.65V65.31a31.74,31.74,0,0,1-6.17,2.57l-.66-1.11a27,27,0,0,0,7.2-3,17.59,17.59,0,0,0,4.23-3.59Z"/><path class="cls-2" d="M89.8,68.53a40.77,40.77,0,0,0-6.43-2.62l0,5.44c0,.52,0,1.34.08,1.86H82.08a13.56,13.56,0,0,0,.1-1.86V61.94a11.74,11.74,0,0,0-.11-1.63h1.4c0,.48-.1,1.18-.1,1.63v2.69a53.79,53.79,0,0,1,6.93,2.68Z"/><rect class="cls-1" y="27.45" width="98.46" height="25.51" rx="4"/><path class="cls-3" d="M18.74,33.89v2.43a5.67,5.67,0,0,0-3.68-1.48,4.71,4.71,0,0,0-3.53,1.5A5.09,5.09,0,0,0,10.09,40a5,5,0,0,0,1.44,3.61,4.79,4.79,0,0,0,3.54,1.47,4.25,4.25,0,0,0,1.84-.36,4.75,4.75,0,0,0,.88-.47,10.37,10.37,0,0,0,.95-.72V46a7.41,7.41,0,0,1-3.69,1,6.81,6.81,0,0,1-5-2A6.74,6.74,0,0,1,8,40a7,7,0,0,1,1.72-4.63A6.83,6.83,0,0,1,15.2,32.9,6.92,6.92,0,0,1,18.74,33.89Z"/><path class="cls-3" d="M20.2,39.9A6.67,6.67,0,0,1,22.31,35a6.9,6.9,0,0,1,5-2.06A7.12,7.12,0,0,1,34.42,40a6.67,6.67,0,0,1-2.1,5,7.16,7.16,0,0,1-9.81.23A6.66,6.66,0,0,1,20.2,39.9Zm2.07,0a4.91,4.91,0,0,0,1.52,3.7,4.85,4.85,0,0,0,3.48,1.46,4.93,4.93,0,0,0,3.61-1.48A5,5,0,0,0,32.35,40a5,5,0,0,0-1.46-3.64,4.77,4.77,0,0,0-3.57-1.48,4.84,4.84,0,0,0-3.59,1.48A4.9,4.9,0,0,0,22.27,39.93Z"/><path class="cls-3" d="M36.73,33.16l3.76,9.43,3.81-9.43h2.25L40.44,47.78l-6-14.62Z"/><path class="cls-3" d="M50.29,33.16v13.6h-2V33.16Z"/><path class="cls-3" d="M53.56,46.76V33.16h2.85a10.34,10.34,0,0,1,3.24.41A5.91,5.91,0,0,1,62,34.92a6.48,6.48,0,0,1,2.11,5,6.62,6.62,0,0,1-4.5,6.42,10.59,10.59,0,0,1-3.2.38Zm2-1.93h.92a7.86,7.86,0,0,0,2.3-.29,4.5,4.5,0,0,0,1.65-1A4.65,4.65,0,0,0,62,40a4.73,4.73,0,0,0-1.5-3.63,5.71,5.71,0,0,0-4-1.24h-.92Z"/><path class="cls-3" d="M66.46,39.12h3.93v1.72H66.46Z"/><path class="cls-3" d="M74.92,35.08H72.57l1.12-1.92H77v13.6h-2Z"/><path class="cls-3" d="M83.41,47.23,81.9,46.11l3.25-4.43-.45,0-.3,0a3.8,3.8,0,0,1-2.85-1.26,4.19,4.19,0,0,1-1.2-3,4.56,4.56,0,0,1,4.54-4.55,4.54,4.54,0,0,1,3.23,1.33,4.15,4.15,0,0,1,1.37,3.1,5.91,5.91,0,0,1-1.34,3.42Zm-1.06-9.9a2.52,2.52,0,0,0,.75,1.85,2.49,2.49,0,0,0,1.82.76,2.45,2.45,0,0,0,1.81-.75,2.57,2.57,0,0,0,0-3.65,2.57,2.57,0,0,0-4.38,1.79Z"/></g></g></svg>