<?xml version="1.0" encoding="utf-8"?>
<!-- Generator: Adobe Illustrator 16.0.3, SVG Export Plug-In . SVG Version: 6.00 Build 0)  -->
<!DOCTYPE svg PUBLIC "-//W3C//DTD SVG 1.1//EN" "http://www.w3.org/Graphics/SVG/1.1/DTD/svg11.dtd">
<svg version="1.1" id="レイヤー_1" xmlns="http://www.w3.org/2000/svg" xmlns:xlink="http://www.w3.org/1999/xlink" x="0px"
	 y="0px" width="1706.67px" height="1365.33px" viewBox="0 0 1706.67 1365.33" enable-background="new 0 0 1706.67 1365.33"
	 xml:space="preserve">
<rect x="296.455" y="246.965" transform="matrix(0.866 -0.5001 0.5001 0.866 -101.2968 187.028)" fill="#DAD5CD" width="3.668" height="71.077"/>
<g>
	<defs>
		<rect id="SVGID_1_" y="-0.003" width="1706.667" height="1365.333"/>
	</defs>
	<clipPath id="SVGID_2_">
		<use xlink:href="#SVGID_1_"  overflow="visible"/>
	</clipPath>
	<path clip-path="url(#SVGID_2_)" fill="#DAD5CD" d="M335.14,314.856c0,11.271-9.137,20.409-20.409,20.409
		s-20.41-9.138-20.41-20.409s9.138-20.41,20.41-20.41S335.14,303.585,335.14,314.856"/>
	<path clip-path="url(#SVGID_2_)" fill="#CE000D" d="M402.038,149.53c0,48.218-39.089,87.307-87.307,87.307
		c-48.218,0-87.307-39.089-87.307-87.307c0-48.219,39.089-87.307,87.307-87.307C362.949,62.223,402.038,101.311,402.038,149.53"/>
	<path clip-path="url(#SVGID_2_)" fill="#8E8171" d="M184.468,180.756c45.846,14.896,70.936,64.138,56.04,109.984
		c-14.896,45.846-64.138,70.935-109.984,56.039c-45.846-14.896-70.936-64.137-56.039-109.983
		C89.381,190.949,138.622,165.86,184.468,180.756"/>
	<path clip-path="url(#SVGID_2_)" fill="#CE000D" d="M146.926,397.295c28.34-39.007,82.936-47.654,121.942-19.314
		c39.007,28.34,47.654,82.936,19.314,121.942c-28.34,39.007-82.935,47.654-121.942,19.314
		C127.233,490.896,118.586,436.301,146.926,397.295"/>
	<path clip-path="url(#SVGID_2_)" fill="#CE000D" d="M341.28,499.923c-28.34-39.007-19.693-93.602,19.313-121.942
		c39.007-28.34,93.603-19.693,121.943,19.314c28.34,39.006,19.693,93.602-19.314,121.941
		C424.215,547.576,369.62,538.929,341.28,499.923"/>
	<path clip-path="url(#SVGID_2_)" fill="#CE000D" d="M498.938,346.78c-45.846,14.896-95.087-10.194-109.983-56.04
		c-14.897-45.846,10.193-95.087,56.039-109.983c45.846-14.896,95.087,10.193,109.984,56.039
		C569.874,282.642,544.784,331.884,498.938,346.78"/>
	<path clip-path="url(#SVGID_2_)" fill="#DAD5CD" d="M201.987,270.415c0,11.742-9.519,21.26-21.26,21.26
		c-11.741,0-21.26-9.518-21.26-21.26c0-11.742,9.519-21.26,21.26-21.26C192.468,249.155,201.987,258.673,201.987,270.415"/>
	<path clip-path="url(#SVGID_2_)" fill="#DAD5CD" d="M237.625,408.35c11.167,3.628,17.278,15.623,13.649,26.789
		c-3.628,11.167-15.622,17.278-26.789,13.65c-11.166-3.628-17.277-15.623-13.649-26.789
		C214.463,410.833,226.458,404.721,237.625,408.35"/>
	<path clip-path="url(#SVGID_2_)" fill="#DAD5CD" d="M379.821,417.08c6.901-9.499,20.197-11.605,29.696-4.704
		c9.499,6.902,11.605,20.197,4.703,29.696c-6.901,9.499-20.197,11.605-29.696,4.704C375.025,439.874,372.92,426.579,379.821,417.08"
		/>
	<path clip-path="url(#SVGID_2_)" fill="#DAD5CD" d="M432.065,284.541c-6.902-9.499-4.796-22.794,4.703-29.696
		c9.499-6.901,22.795-4.796,29.696,4.704c6.901,9.499,4.796,22.794-4.703,29.696C452.262,296.146,438.966,294.04,432.065,284.541"/>
	<path clip-path="url(#SVGID_2_)" fill="#DAD5CD" d="M322.158,193.897c-11.167,3.628-23.161-2.483-26.789-13.65
		c-3.628-11.166,2.483-23.161,13.65-26.789c11.166-3.628,23.16,2.483,26.788,13.65C339.436,178.275,333.325,190.27,322.158,193.897"
		/>
	<path clip-path="url(#SVGID_2_)" fill="#DAD5CD" d="M298.723,251.962c0,9.394-7.615,17.008-17.008,17.008
		c-9.393,0-17.008-7.615-17.008-17.008s7.615-17.008,17.008-17.008C291.107,234.954,298.723,242.568,298.723,251.962"/>
	<path clip-path="url(#SVGID_2_)" fill="#DAD5CD" d="M249.968,310.646c8.934,2.902,13.822,12.498,10.919,21.431
		c-2.902,8.933-12.497,13.822-21.431,10.92c-8.933-2.903-13.822-12.498-10.919-21.432
		C231.44,312.632,241.034,307.743,249.968,310.646"/>
	<path clip-path="url(#SVGID_2_)" fill="#DAD5CD" d="M290.713,375.149c5.521-7.6,16.158-9.284,23.757-3.763
		c7.599,5.521,9.284,16.158,3.763,23.757s-16.158,9.283-23.757,3.762C286.877,393.384,285.192,382.748,290.713,375.149"/>
	<path clip-path="url(#SVGID_2_)" fill="#DAD5CD" d="M364.65,356.33c-5.521-7.599-3.836-18.235,3.763-23.757
		c7.599-5.521,18.236-3.836,23.757,3.763s3.836,18.236-3.763,23.757C380.809,365.614,370.171,363.929,364.65,356.33"/>
	<path clip-path="url(#SVGID_2_)" fill="#DAD5CD" d="M369.601,280.196c-8.934,2.903-18.529-1.986-21.431-10.92
		c-2.903-8.933,1.986-18.528,10.919-21.431c8.934-2.902,18.529,1.986,21.431,10.92C383.422,267.698,378.534,277.293,369.601,280.196
		"/>
	<path clip-path="url(#SVGID_2_)" fill="#DAD5CD" d="M359.601,240.537c-8.934,2.903-18.529-1.986-21.431-10.919
		c-2.903-8.934,1.986-18.529,10.919-21.432c8.934-2.902,18.529,1.986,21.431,10.92C373.422,228.039,368.534,237.635,359.601,240.537
		"/>
	<path clip-path="url(#SVGID_2_)" fill="#DAD5CD" d="M235.85,345.215c8.933,2.903,13.822,12.498,10.919,21.431
		c-2.902,8.934-12.497,13.822-21.431,10.92c-8.933-2.903-13.822-12.497-10.919-21.431
		C217.321,347.201,226.916,342.313,235.85,345.215"/>
	<path clip-path="url(#SVGID_2_)" fill="#DAD5CD" d="M321.012,397.962c5.521-7.599,16.157-9.284,23.756-3.763
		c7.6,5.522,9.285,16.158,3.763,23.757c-5.521,7.599-16.157,9.284-23.756,3.763C317.176,416.198,315.491,405.562,321.012,397.962"/>
	<path clip-path="url(#SVGID_2_)" fill="#DAD5CD" d="M397.494,333.268c-5.521-7.6-3.836-18.236,3.763-23.757
		c7.599-5.521,18.236-3.836,23.757,3.763s3.836,18.235-3.763,23.757C413.652,342.552,403.015,340.867,397.494,333.268"/>
	<path clip-path="url(#SVGID_2_)" fill="#DAD5CD" d="M259.698,247.921c0,9.394-7.615,17.008-17.008,17.008
		c-9.393,0-17.008-7.615-17.008-17.008s7.615-17.008,17.008-17.008C252.083,230.913,259.698,238.527,259.698,247.921"/>
	<rect x="311.391" y="173.678" clip-path="url(#SVGID_2_)" fill="#DAD5CD" width="4.252" height="141.179"/>
	
		<rect x="308.265" y="312.904" transform="matrix(-0.9856 -0.1692 0.1692 -0.9856 556.2133 746.9036)" clip-path="url(#SVGID_2_)" fill="#DAD5CD" width="3.325" height="73.702"/>
	
		<rect x="245.725" y="221.476" transform="matrix(0.309 -0.9511 0.9511 0.309 -106.5043 437.5449)" clip-path="url(#SVGID_2_)" fill="#DAD5CD" width="4.253" height="141.179"/>
	
		<rect x="272.746" y="299.625" transform="matrix(-0.809 -0.5877 0.5877 -0.809 279.662 831.2889)" clip-path="url(#SVGID_2_)" fill="#DAD5CD" width="4.252" height="141.179"/>
	
		<rect x="355.728" y="301.125" transform="matrix(-0.8089 0.5879 -0.5879 -0.8089 865.8661 462.0261)" clip-path="url(#SVGID_2_)" fill="#DAD5CD" width="4.252" height="141.18"/>
	
		<rect x="277.582" y="283.3" transform="matrix(0.1564 0.9877 -0.9877 0.1564 549.6377 -7.4136)" clip-path="url(#SVGID_2_)" fill="#DAD5CD" width="3.154" height="69.496"/>
	
		<rect x="343.575" y="294.901" transform="matrix(0.4291 -0.9033 0.9033 0.4291 -101.2495 500.8019)" clip-path="url(#SVGID_2_)" fill="#DAD5CD" width="3.943" height="71.192"/>
	
		<rect x="337.741" y="253.664" transform="matrix(0.7361 0.6769 -0.6769 0.7361 286.2194 -153.067)" clip-path="url(#SVGID_2_)" fill="#DAD5CD" width="3.324" height="73.703"/>
	
		<rect x="332.816" y="219.76" transform="matrix(0.9251 0.3797 -0.3797 0.9251 126.8958 -106.9499)" clip-path="url(#SVGID_2_)" fill="#DAD5CD" width="3.524" height="96.92"/>
	
		<rect x="360.816" y="270.761" transform="matrix(-0.0934 0.9956 -0.9956 -0.0934 714.2661 -11.9586)" clip-path="url(#SVGID_2_)" fill="#DAD5CD" width="3.524" height="96.919"/>
	
		<rect x="380.391" y="223.678" transform="matrix(-0.309 -0.9511 0.9511 -0.309 220.8416 748.9902)" clip-path="url(#SVGID_2_)" fill="#DAD5CD" width="4.253" height="141.179"/>
	
		<rect x="324.838" y="313.69" transform="matrix(0.9806 -0.1958 0.1958 0.9806 -64.5782 70.9461)" clip-path="url(#SVGID_2_)" fill="#DAD5CD" width="3.524" height="96.919"/>
	
		<rect x="270.617" y="290.352" transform="matrix(0.5001 0.866 -0.866 0.5001 429.5811 -66.4921)" clip-path="url(#SVGID_2_)" fill="#DAD5CD" width="3.524" height="96.919"/>
	
		<rect x="277.397" y="234.044" transform="matrix(-0.677 0.7359 -0.7359 -0.677 676.0679 268.3282)" clip-path="url(#SVGID_2_)" fill="#DAD5CD" width="3.524" height="96.919"/>
</g>
<text transform="matrix(-0.9621 0.2728 -0.2717 -0.9624 143.7441 183.8799)" fill="#DAD5CD" font-family="'CenturyGothic'" font-size="21">C</text>
<text transform="matrix(-0.8867 0.4623 -0.4623 -0.8867 126.2148 189.1572)" fill="#DAD5CD" font-family="'CenturyGothic'" font-size="21">o</text>
<text transform="matrix(-0.7857 0.6186 -0.6195 -0.785 113.0586 196.1011)" fill="#DAD5CD" font-family="'CenturyGothic'" font-size="21">d</text>
<text transform="matrix(-0.6565 0.7543 -0.7547 -0.6561 100.9492 205.8149)" fill="#DAD5CD" font-family="'CenturyGothic'" font-size="21">e</text>
<text transform="matrix(-0.5525 0.8335 -0.8331 -0.5531 91.7344 216.8682)" font-family="'CenturyGothic'" font-size="21"> </text>
<text transform="matrix(-0.4814 0.8765 -0.8758 -0.4826 88.2637 222.1064)" fill="#CE000D" font-family="'CenturyGothic'" font-size="21">f</text>
<text transform="matrix(-0.3586 0.9335 -0.9331 -0.3596 84.5205 228.5322)" fill="#CE000D" font-family="'CenturyGothic'" font-size="21">o</text>
<text transform="matrix(-0.2331 0.9725 -0.9728 -0.2318 79.5859 242.2104)" fill="#CE000D" font-family="'CenturyGothic'" font-size="21">r</text>
<text transform="matrix(-0.1541 0.9881 -0.9883 -0.1526 78.0332 248.8091)" fill="#CE000D" font-family="'CenturyGothic'" font-size="21"> </text>
<text transform="matrix(-0.0471 0.9989 -0.9989 -0.0464 76.957 255.1797)" fill="#DAD5CD" font-family="'CenturyGothic'" font-size="21">F</text>
<text transform="matrix(0.1068 0.9943 -0.9944 0.1061 76.4053 266.2568)" fill="#DAD5CD" font-family="'CenturyGothic'" font-size="21">u</text>
<text transform="matrix(0.2597 0.9657 -0.966 0.2586 78.022 279.8398)" fill="#DAD5CD" font-family="'CenturyGothic'" font-size="21">k</text>
<text transform="matrix(0.4056 0.9141 -0.9142 0.4052 80.9951 290.9424)" fill="#DAD5CD" font-family="'CenturyGothic'" font-size="21">u</text>
<text transform="matrix(0.559 0.8292 -0.8287 0.5597 86.6543 303.5703)" fill="#DAD5CD" font-family="'CenturyGothic'" font-size="21">o</text>
<text transform="matrix(0.6852 0.7284 -0.7276 0.686 95.0464 315.6484)" fill="#DAD5CD" font-family="'CenturyGothic'" font-size="21">k</text>
<text transform="matrix(0.7967 0.6044 -0.6044 0.7967 102.9048 324.1123)" fill="#DAD5CD" font-family="'CenturyGothic'" font-size="21">a</text>
</svg>
