<?xml version="1.0" standalone="no"?>
<!DOCTYPE svg PUBLIC "-//W3C//DTD SVG 20010904//EN"
 "http://www.w3.org/TR/2001/REC-SVG-20010904/DTD/svg10.dtd">
<svg version="1.0" xmlns="http://www.w3.org/2000/svg"
 width="400.000000pt" height="347.000000pt" viewBox="0 0 400.000000 347.000000"
 preserveAspectRatio="xMidYMid meet">

<g transform="translate(0.000000,347.000000) scale(0.100000,-0.100000)"
fill="#000000" stroke="none">
<path d="M1984 3413 c-6 -10 -107 -184 -224 -388 -117 -203 -251 -434 -297
-513 -46 -79 -83 -145 -83 -147 0 -3 102 -5 228 -5 l227 1 80 139 c43 77 82
140 85 140 3 0 42 -63 85 -140 l80 -139 228 -1 c125 0 227 2 227 4 0 2 -31 57
-69 122 -37 66 -94 164 -126 219 -79 137 -184 318 -300 520 -117 203 -118 205
-125 205 -3 0 -10 -8 -16 -17z"/>
<path d="M1380 2306 c0 -2 66 -118 146 -257 81 -140 195 -337 253 -439 183
-316 215 -370 221 -370 3 0 63 98 132 218 365 629 488 843 488 847 0 3 -102 5
-227 5 l-228 0 -79 -140 c-44 -77 -82 -140 -86 -140 -4 0 -42 63 -86 140 l-79
140 -227 0 c-126 0 -228 -2 -228 -4z"/>
<path d="M1020 1725 c0 -3 9 -20 21 -38 11 -17 80 -135 153 -262 l132 -230
227 -3 226 -2 -39 70 c-22 38 -40 74 -40 79 0 6 37 11 84 13 l84 3 -107 185
-107 185 -317 3 c-174 1 -317 0 -317 -3z"/>
<path d="M2343 1718 c-4 -7 -53 -92 -109 -188 l-101 -175 83 -3 c53 -2 84 -7
84 -14 0 -6 -18 -42 -40 -80 l-39 -68 226 2 227 3 121 210 c66 116 136 236
154 268 l32 57 -315 0 c-241 0 -317 -3 -323 -12z"/>
<path d="M705 1132 c-2 -2 47 -91 108 -198 l112 -194 163 0 c89 0 162 -4 162
-9 0 -4 -34 -66 -75 -137 -41 -71 -75 -135 -75 -143 0 -11 145 -269 207 -370
15 -24 15 -23 55 45 84 144 195 336 303 524 62 107 149 257 194 334 44 76 81
141 81 145 0 6 -1229 9 -1235 3z"/>
<path d="M2060 1130 c0 -3 77 -138 171 -300 94 -162 232 -402 307 -532 75
-131 139 -238 142 -238 7 1 214 366 218 386 2 8 -31 74 -72 146 -42 72 -76
135 -76 140 0 4 73 8 163 8 l162 0 109 189 c59 105 109 192 110 196 0 3 -277
7 -617 8 -339 1 -617 0 -617 -3z"/>
<path d="M558 947 c-47 -84 -127 -222 -176 -307 -49 -85 -148 -256 -220 -380
l-129 -225 615 -3 c338 -1 617 0 620 3 2 2 -29 62 -70 132 -41 70 -90 156
-109 190 l-34 63 -167 0 c-93 0 -168 3 -168 6 0 3 36 69 80 145 44 77 80 142
80 144 0 2 -22 42 -49 87 -27 46 -59 101 -71 123 -52 94 -103 175 -109 175 -3
0 -45 -69 -93 -153z"/>
<path d="M3302 1033 c-22 -38 -52 -90 -67 -118 -16 -27 -38 -66 -50 -85 -12
-19 -32 -54 -44 -77 l-21 -43 75 -129 c41 -71 78 -137 81 -145 5 -14 -13 -16
-162 -16 l-169 0 -34 -63 c-19 -34 -68 -120 -109 -190 -41 -70 -72 -130 -70
-132 3 -3 282 -4 620 -3 l616 3 -73 125 c-39 69 -141 244 -225 390 -84 146
-190 329 -234 407 -45 78 -84 143 -87 143 -4 0 -25 -30 -47 -67z"/>
<path d="M1819 813 c-46 -81 -95 -166 -109 -190 l-25 -44 28 -52 c71 -128 282
-487 288 -487 3 0 26 35 51 78 24 42 92 161 151 263 59 102 107 191 107 198 0
8 -15 39 -34 70 -34 57 -48 81 -133 229 -25 45 -49 82 -52 82 -3 0 -24 -32
-45 -70 -22 -39 -42 -70 -46 -70 -3 0 -23 29 -44 65 -21 36 -41 67 -45 69 -4
3 -45 -61 -92 -141z"/>
</g>
</svg>
