<?xml version="1.0" encoding="utf-8"?>
<!-- Generator: Adobe Illustrator 24.0.3, SVG Export Plug-In . SVG Version: 6.00 Build 0)  -->
<svg version="1.1" id="レイヤー_1" xmlns="http://www.w3.org/2000/svg" xmlns:xlink="http://www.w3.org/1999/xlink" x="0px"
	 y="0px" height="28" viewBox="0 0 111 28" width="111" style="enable-background:new 0 0 111 28;" xml:space="preserve">
<style type="text/css">
	.st0{fill:#F39800;}
</style>
<path class="st0" d="M17.4,0.8c-0.6,0-1.1,0.4-1.2,1c-1.9,8.7-6.2,14.6-14.5,16.5c-0.7,0.2-1.1,0.8-1,1.5c0.1,0.6,0.7,1,1.3,1
	c1.3,0,3.7,0.4,6.2,1.3s5,2.1,6.8,3.4c0.6,0.4,1.4,0.3,1.8-0.2c0.3-0.4,0.4-1,0.1-1.5c-1.6-2.4-1.2-4.7,0.2-6.2
	c1.3-1.5,3.5-2.3,5.9-1.2c0,0,0,0,0,0c1.1,0.5,1.8,1.1,1.8,1.4c0,0.1,0,0.3-0.2,0.7c-0.3,0.4-0.9,1-1.9,1.7l0,0
	c-1,0.6-1.6,1.6-1.8,2.5c-0.2,1,0.1,1.9,0.7,2.6c1.1,1.4,3.6,1.8,5.6,0.3c0,0,0,0,0,0c3.8-2.9,7.6-5.2,12-4.9c0.7,0,1.3-0.5,1.4-1.2
	c0-0.6-0.4-1.2-1-1.3c-4.6-0.9-7.7-3-10-5.8s-3.9-6.4-5-10.6c-0.1-0.6-0.7-1-1.2-1H17.4z M18.4,3.3h3.8c1.1,4,2.7,7.6,5.2,10.6
	c1.6,2,3.7,3.6,6.2,4.9c-3,1-5.6,2.8-8.1,4.7c-1.2,0.9-1.7,0.5-2,0.1c-0.2-0.2-0.2-0.4-0.2-0.6c0-0.2,0.1-0.5,0.6-0.8c0,0,0,0,0,0
	c1.2-0.8,2.1-1.5,2.6-2.4c0.6-0.8,0.8-1.8,0.6-2.6c-0.4-1.7-1.9-2.6-3.3-3.2l0,0c-3.4-1.5-6.9-0.4-8.9,1.9c-1.3,1.5-1.9,3.5-1.7,5.6
	c-1.4-0.7-2.8-1.3-4.3-1.8c-0.7-0.2-1.3-0.4-1.9-0.6C13,16.1,16.6,10.4,18.4,3.3z"/>
<g>
	<path d="M51.3,10.3v1.5H41.1v-1.5h4.1V9h-3V7.6h3V6.4h-3.7V4.9h3.7V2.9l2.5,0.1c0,0.2-0.2,0.3-0.5,0.4v1.4h3.7v1.5h-3.7v1.2h3.1V9
		h-3.1v1.2H51.3z M50.2,13v8.8c0,1.9-0.9,2.1-3.6,2.1c-0.1-0.5-0.4-1.3-0.6-1.8c0.8,0,1.6,0,1.9,0c0.2,0,0.3-0.1,0.3-0.3v-1.6h-3.9
		v3.7h-2V13H50.2z M48.2,14.5h-3.9v1.3h3.9V14.5z M44.4,18.7h3.9v-1.4h-3.9V18.7z M62.3,12.8v1.8h-1.5v4.6h-1.9v-0.7h-2.1v3
		c0,1.7-0.5,2.3-4,2.3c-0.1-0.6-0.4-1.4-0.7-2c1.1,0,2.1,0,2.3,0c0.3,0,0.4-0.1,0.4-0.4v-3h-2.7v-1.7h2.7v-2.2H51v-1.8h3.8v-2.1
		h-2.6V9.6L52,9.8c-0.3-0.3-1-0.9-1.4-1.2c1.4-1.3,2.8-3.5,3.6-5.7l2.2,0.7c0,0.2-0.2,0.2-0.5,0.2c-0.2,0.4-0.4,0.8-0.5,1.2h3
		l0.3-0.1l1.5,0.9c0,0.1-0.2,0.2-0.4,0.2c-0.5,0.8-1.2,1.9-1.9,2.9h3v3.9H62.3z M55.7,8.9c0.5-0.7,1-1.5,1.4-2.3h-2.7
		c-0.5,0.8-1,1.6-1.6,2.3H55.7z M56.8,10.7v2.1h2.1v-2.1H56.8z M58.9,16.7v-2.2h-2.1v2.2H58.9z"/>
	<path d="M83.8,4.1v17.4c0,2.2-1.1,2.4-4.7,2.4c-0.1-0.6-0.4-1.5-0.7-2c0.8,0,1.5,0.1,2.1,0.1c1,0,1.2,0,1.2-0.5V6.1H66.8v17.7h-2.1
		V4.1H83.8z M79.5,20.8h-1.8v-1.1h-7v1.5h-1.8v-7.6l2.3,0.1c0,0.2-0.2,0.3-0.5,0.3v3.9h2.5V12h-5.4v-1.8h3c-0.2-0.9-0.9-2.3-1.5-3.3
		l1.7-0.6c0.8,1,1.4,2.4,1.7,3.3L71,10.3h6c-0.4-0.2-1-0.4-1.4-0.5c0.6-1,1.3-2.5,1.6-3.5l2.3,0.7c-0.1,0.2-0.3,0.2-0.5,0.2
		c-0.4,0.9-1.1,2.2-1.8,3.1h3.6V12h-5.3c-0.1,0.1-0.2,0.2-0.5,0.2v5.6h2.5v-4.4l2.3,0.1c0,0.2-0.2,0.3-0.5,0.3V20.8z"/>
	<path d="M93.9,19.3c-0.1,0.2-0.3,0.2-0.6,0.2c-1.2,1.3-3.4,3-5.3,4.1c-0.4-0.4-1.2-1.1-1.7-1.4c1.9-1,4-2.5,5-3.9L93.9,19.3z
		 M107,17.5h-9.1v6.3h-2.3v-6.3h-5.8v0.6h-2.1V5l2.7,0.2c0,0.2-0.2,0.3-0.5,0.4v10.1H107V17.5z M104.4,3.8v10.4H91.9V3.8H104.4z
		 M102.3,6.8V5.3h-8.5v1.5H102.3z M102.3,9.7V8.2h-8.5v1.5H102.3z M102.3,12.7v-1.6h-8.5v1.6H102.3z M105.2,23.6
		c-1.1-1.1-3.5-3-5.3-4.3l1.8-1.1c1.8,1.2,4.2,2.9,5.4,4.1L105.2,23.6z"/>
</g>
</svg>
