<svg fill="none" height="28" viewBox="0 0 111 28" width="111" xmlns="http://www.w3.org/2000/svg"><path d="m13.75 27.9735h.85c-.0016-3.6865 1.4335-7.2285 4.0007-9.8741s6.0645-4.1867 9.7493-4.2959c-.0981-3.6943-1.6346-7.20429-4.2823-9.78252-2.6476-2.57823-6.1971-4.02098-9.8927-4.02098s-7.24512 1.44275-9.89274 4.02098c-2.64763 2.57823-4.1841293 6.08822-4.28226 9.78252 3.68485.1092 7.18204 1.6503 9.74927 4.2959s4.00233 6.1876 4.00073 9.8741z" fill="#00a040"/><g fill="#898989"><path d="m51.07 2.45349h-1.95v1.84h-9.37v1.68001h9.42v1.72h-8.24v8h6.51c-2.1934 2.0578-4.8216 3.5957-7.69 4.5v1.89c3.5544-1.2597 6.7757-3.3114 9.42-6v6.15h1.95v-6.17c2.6425 2.6908 5.8643 4.7429 9.42 6v-1.89c-2.8691-.9027-5.4976-2.4409-7.69-4.5h6.51v-8.00001h-8.24v-1.72h9.42v-1.67999h-9.42zm-8.39 6.81h6.44v1.80001h-6.44zm0 3.16001h6.44v1.75h-6.44zm14.83 1.75h-6.44v-1.75h6.44zm0-4.91001v1.80001h-6.44v-1.80001z"/><path d="m68.53 16.0635c-1.3736 1.5184-2.9723 2.8168-4.74 3.85v2.05c2.711-1.5362 5.1339-3.5326 7.16-5.9z"/><path d="m79.61 16.0635h-2.28c2.02 2.4066 4.4807 4.4056 7.25 5.89v-2.05c-1.8115-1.066-3.4814-2.3562-4.97-3.84z"/><path d="m80.9299 14.2735h1.9v-6.46002h-17.28v6.46002h7.6201v5.38c0 .71-.39.91-1 .91h-2.3701v1.68h2.85c1.77 0 2.51-.83 2.51-2.06v-5.91zm-13.49-4.90003h13.49v3.33003h-13.49z"/><path d="m75.1999 2.45349h-2.03v1.84h-9.38v1.68001h20.79v-1.68001h-9.38z"/><path d="m107.58 10.1635 2.39-7.45h-8.55v19.14h1.64v-17.54999h4.74l-2 5.99999s2.58 2.89 2.58 5.56c.025.3323-.019.666-.129.9806-.11.3145-.283.6032-.509.8479-.226.2448-.5.4405-.805.5749-.305.1345-.634.2048-.967.2066h-1.45v1.59h1.4s4.21 0 4.21-4.29c.04-2.87-2.55-5.61-2.55-5.61z"/><path d="m98.55 2.71346c-.1881.53797-.4051 1.06541-.65 1.58h-3.81v-2h-1.76v2h-4v1.49h4v3.11h-4.58v1.49004h5.42c-1.4611 1.2258-3.0745 2.2576-4.8 3.07v1.8c.35-.17.73-.35 1.11-.55v7.15h10.27v-9.46h-6.61c.8107-.6221 1.5853-1.2898 2.32-2h4.29v-1.49004h-3c1.5514-1.80711 2.7216-3.90921 3.44-6.18zm-.47 17.81004h-6.86v-2.74h6.86zm0-4.07h-6.86v-2.74h6.86zm-4-7.56004v-3.11h3c-.6755 1.12179-1.4737 2.16488-2.38 3.11z"/></g></svg>