<?xml version="1.0" standalone="no"?>
<!DOCTYPE svg PUBLIC "-//W3C//DTD SVG 20010904//EN"
 "http://www.w3.org/TR/2001/REC-SVG-20010904/DTD/svg10.dtd">
<svg version="1.0" xmlns="http://www.w3.org/2000/svg"
 width="400.000000pt" height="388.000000pt" viewBox="0 0 400.000000 388.000000"
 preserveAspectRatio="xMidYMid meet">
<metadata>
Created by potrace 1.15, written by Peter Selinger 2001-2017
</metadata>
<g transform="translate(0.000000,388.000000) scale(0.100000,-0.100000)"
fill="#000000" stroke="none">
<path d="M2486 3172 c-6 -17 -13 -21 -27 -17 -14 5 -19 2 -19 -11 0 -13 -3
-14 -14 -5 -10 9 -16 9 -21 1 -4 -6 -16 -8 -27 -4 -15 4 -18 3 -13 -6 5 -9 2
-10 -14 -5 -13 4 -21 2 -21 -5 0 -8 -9 -10 -25 -6 -29 7 -30 4 -10 -28 14 -20
14 -24 1 -29 -8 -3 -17 1 -20 9 -11 27 -21 14 -21 -28 0 -34 -4 -43 -17 -42
-14 1 -15 -3 -7 -23 15 -39 11 -50 -20 -61 -29 -10 -67 -67 -51 -77 5 -3 11
-1 15 5 3 5 11 10 16 10 6 0 4 -7 -5 -15 -8 -8 -19 -15 -25 -15 -13 0 -14 -9
-11 -75 1 -27 5 -52 10 -55 4 -3 12 -15 19 -27 6 -13 18 -23 26 -23 20 0 19
-4 -12 -53 -18 -27 -27 -56 -27 -82 -1 -54 3 -61 47 -107 l37 -39 -20 -27
c-17 -24 -26 -93 -21 -163 1 -23 23 -29 40 -12 12 13 11 14 -8 8 -17 -5 -21
-2 -21 17 0 18 2 20 10 8 5 -8 12 -11 16 -8 3 4 12 1 19 -5 10 -9 8 -15 -8
-29 -11 -10 -25 -18 -31 -18 -6 0 6 -11 26 -25 20 -14 46 -25 57 -25 26 0 27
-14 3 -38 -9 -9 -22 -34 -29 -54 -15 -52 8 -96 65 -123 23 -11 42 -24 42 -28
0 -4 -9 -20 -20 -35 -11 -15 -22 -37 -25 -50 -2 -12 -7 -27 -10 -32 -11 -17
-54 -11 -107 16 -55 28 -100 27 -146 -2 -13 -9 -43 -14 -70 -14 -26 1 -67 -3
-92 -10 -34 -8 -55 -9 -83 0 -21 6 -47 8 -57 5 -20 -6 -112 -64 -140 -87 -8
-7 -30 -23 -48 -36 -19 -13 -41 -30 -49 -38 -8 -8 -18 -14 -23 -14 -5 0 -30
-20 -56 -45 -25 -25 -50 -45 -54 -45 -5 0 -15 -6 -22 -13 -7 -7 -24 -18 -38
-25 -64 -33 -80 -44 -80 -54 0 -6 -3 -9 -6 -5 -3 3 -11 1 -18 -4 -47 -40 -139
-87 -182 -94 -42 -6 -79 -20 -214 -83 -32 -16 -94 -52 -100 -61 -5 -6 -86 -46
-172 -86 -21 -10 -38 -21 -38 -26 0 -5 -9 -9 -20 -9 -11 0 -20 -4 -20 -8 0 -8
-19 -19 -137 -83 -49 -26 -60 -28 -168 -27 -63 1 -117 -1 -120 -4 -5 -4 -9
-596 -6 -715 1 -22 6 -33 16 -33 8 0 15 -5 15 -11 0 -6 29 -10 77 -9 43 1 90
-1 105 -4 15 -4 29 -2 33 3 3 5 29 7 58 4 86 -8 467 -9 467 0 0 5 5 5 10 2 16
-10 341 -12 347 -2 3 4 10 4 16 -1 7 -4 82 -7 167 -5 216 4 332 3 353 -3 9 -3
17 0 17 6 0 6 4 9 9 5 9 -5 156 -8 281 -4 30 1 92 0 138 -1 46 -1 86 0 89 4 3
3 11 2 17 -3 6 -5 32 -6 59 -2 26 5 47 5 47 1 0 -6 114 -5 253 3 26 2 47 -1
47 -5 0 -9 42 -4 59 6 5 4 11 2 13 -4 2 -6 14 -7 30 -2 15 4 65 5 110 2 52 -4
86 -2 90 5 5 6 8 6 8 0 0 -9 247 -11 373 -3 26 2 47 1 47 -2 0 -5 90 -5 337 0
55 1 107 -1 114 -6 7 -4 14 -3 17 4 2 7 10 12 17 12 7 0 16 7 19 16 3 9 6 180
6 380 l0 364 -32 1 c-18 1 -51 1 -73 1 -22 0 -42 4 -45 8 -7 11 -137 80 -150
80 -6 0 -16 5 -23 11 -21 19 -151 99 -160 99 -5 0 -21 8 -35 18 -42 29 -105
42 -121 25 -11 -12 -15 -12 -30 1 -10 9 -23 16 -29 16 -7 0 -12 4 -12 9 0 5
-28 27 -62 47 -35 21 -67 43 -73 50 -5 6 -32 29 -60 50 -51 40 -73 58 -127
107 -18 15 -35 27 -40 27 -4 0 -8 7 -8 15 0 8 -4 15 -9 15 -6 0 -48 37 -95 83
-61 60 -97 87 -127 96 l-41 12 20 22 c25 28 34 58 36 119 1 40 6 53 26 68 14
11 30 20 36 20 20 0 43 73 37 116 -5 39 -4 39 54 69 87 45 104 68 101 138 -1
56 0 59 31 78 18 11 38 17 44 13 7 -3 2 3 -11 15 -13 11 -18 22 -12 26 5 3 10
1 10 -4 0 -21 16 -11 17 11 1 12 -7 31 -17 41 -11 10 -20 22 -20 26 0 13 39
21 46 9 4 -7 9 -7 13 0 4 7 13 5 26 -4 14 -10 16 -17 8 -22 -11 -7 -16 -25
-14 -51 1 -11 4 -11 16 -1 9 7 14 19 11 26 -3 7 -1 16 3 18 5 3 4 27 0 53 -6
31 -6 49 1 51 5 2 10 14 10 27 0 16 10 27 35 39 37 18 54 36 33 36 -7 1 -1 8
15 16 29 16 37 27 12 18 -8 -4 -15 -1 -15 5 0 6 8 11 18 11 11 0 24 10 29 23
9 19 8 26 -6 36 -15 11 -15 12 2 7 17 -5 22 8 18 43 -2 7 2 10 8 6 6 -3 11 -2
11 4 0 5 -4 13 -10 16 -5 3 -10 13 -10 21 0 8 -14 29 -30 47 -25 27 -32 30
-40 17 -12 -19 -13 -8 0 24 8 21 5 28 -18 47 -23 18 -27 19 -30 5 -3 -12 -8
-14 -23 -6 -10 6 -19 8 -19 5 0 -3 -6 0 -14 7 -11 10 -11 16 -2 27 8 11 8 15
0 18 -7 2 -10 13 -7 23 3 11 0 20 -6 20 -6 0 -11 -9 -11 -20 0 -11 -5 -20 -11
-20 -6 0 -9 7 -5 15 3 8 2 15 -3 15 -5 0 -11 -8 -14 -19 -3 -14 -11 -17 -31
-14 -21 4 -24 8 -15 19 10 12 9 13 -5 8 -9 -3 -16 -12 -16 -19 0 -13 -21 -25
-46 -25 -8 0 -11 6 -7 17 5 13 2 15 -11 10 -10 -4 -22 -7 -27 -7 -18 0 -9 -21
14 -30 23 -9 19 -12 -26 -14 -22 -2 -26 1 -21 16 3 10 1 18 -5 18 -6 0 -11 -5
-11 -12 0 -6 -9 -3 -21 8 -12 10 -23 18 -25 17 -14 -9 -34 0 -39 17 -4 14 -15
20 -36 20 -27 0 -29 3 -29 35 0 20 8 47 17 62 16 24 16 26 0 38 -9 7 -17 18
-17 26 0 10 -3 10 -12 1 -7 -7 -20 -12 -30 -12 -10 0 -18 -4 -18 -10 0 -19
-31 -10 -39 12 l-8 23 -7 -23z m-1344 -2377 c2 2 48 5 102 6 98 2 115 -4 116
-37 0 -21 -33 -27 -156 -30 -110 -2 -121 -1 -132 17 -10 16 -10 23 3 35 8 9
15 12 15 8 0 -5 5 -3 12 4 7 7 16 8 23 2 7 -5 14 -8 17 -5z m1877 -10 c14 -8
14 -42 0 -50 -6 -4 -64 -9 -129 -11 -113 -4 -119 -3 -125 16 -10 31 10 47 62
49 26 0 48 2 49 4 6 5 133 -1 143 -8z m-2453 -46 c16 -13 6 -47 -15 -53 -13
-3 -168 -1 -207 3 -7 0 -14 13 -17 27 -3 18 0 27 14 32 25 10 212 2 225 -9z
m2972 -66 c33 -32 -19 -65 -87 -53 -18 3 -68 2 -110 -1 -84 -6 -111 2 -111 32
0 29 24 34 166 36 103 2 129 -1 142 -14z m-1807 -9 c16 -10 9 -43 -11 -54 -12
-6 -54 -9 -103 -6 -45 3 -96 5 -114 5 -23 1 -33 7 -38 21 -13 42 7 48 136 44
67 -2 125 -7 130 -10z m869 -4 c12 -20 -7 -50 -33 -51 -32 -1 -185 -1 -234 0
-36 1 -44 5 -49 25 -3 14 -4 28 -1 33 3 4 73 8 157 8 118 -1 153 -4 160 -15z"/>
</g>
</svg>
