<?xml version="1.0" encoding="UTF-8" standalone="no"?><!-- Generator: Gravit.io --><svg xmlns="http://www.w3.org/2000/svg" xmlns:xlink="http://www.w3.org/1999/xlink" style="isolation:isolate" viewBox="0 0 111 28" width="111pt" height="28pt"><defs><clipPath id="_clipPath_cQPginvTHvv1YsfxSCLPQLx8LdJrPgjj"><rect width="111" height="28"/></clipPath></defs><g clip-path="url(#_clipPath_cQPginvTHvv1YsfxSCLPQLx8LdJrPgjj)"><path d=" M 95.796 21.327 L 93.72 21.327 L 94.14 21.207 C 94.08 20.799 93.852 20.127 93.588 19.623 L 95.928 19.623 C 95.796 20.091 95.532 20.763 95.34 21.195 L 95.796 21.327 Z  M 95.16 17.667 L 96.912 17.667 L 96.912 16.899 L 95.16 16.899 L 95.16 15.687 L 94.32 15.687 L 94.32 16.899 L 92.496 16.899 L 92.496 17.667 L 94.32 17.667 L 94.32 18.855 L 92.064 18.855 L 92.064 19.623 L 93.492 19.623 L 92.904 19.779 C 93.132 20.259 93.336 20.895 93.408 21.327 L 92.232 21.327 L 92.232 22.107 L 94.32 22.107 L 94.32 23.403 L 92.352 23.403 L 92.352 24.159 L 94.32 24.159 L 94.32 26.595 L 95.16 26.595 L 95.16 24.159 L 97.068 24.159 L 97.068 23.403 L 95.16 23.403 L 95.16 22.107 L 97.224 22.107 L 97.224 21.327 L 96.036 21.327 C 96.24 20.907 96.48 20.331 96.696 19.779 L 96.12 19.623 L 97.368 19.623 L 97.368 18.855 L 95.16 18.855 L 95.16 17.667 Z  M 98.568 21.003 L 98.676 21.003 C 99.036 22.251 99.552 23.415 100.224 24.399 C 99.756 25.035 99.204 25.587 98.568 26.007 L 98.568 21.003 Z  M 101.724 21.003 C 101.508 21.927 101.16 22.839 100.692 23.655 C 100.164 22.863 99.732 21.951 99.432 21.003 L 101.724 21.003 Z  M 102.132 20.223 L 101.976 20.259 L 98.568 20.259 L 98.568 17.031 L 101.58 17.031 L 101.58 18.507 C 101.58 18.651 101.532 18.687 101.34 18.699 C 101.16 18.711 100.536 18.711 99.792 18.687 C 99.912 18.915 100.032 19.227 100.068 19.467 C 100.98 19.467 101.58 19.455 101.94 19.335 C 102.324 19.203 102.408 18.963 102.408 18.519 L 102.408 16.215 L 97.752 16.215 L 97.752 26.631 L 98.568 26.631 L 98.568 26.055 C 98.772 26.223 99.012 26.463 99.132 26.643 C 99.744 26.223 100.284 25.695 100.74 25.095 C 101.268 25.719 101.856 26.247 102.516 26.619 C 102.66 26.391 102.936 26.067 103.128 25.899 C 102.42 25.551 101.784 25.023 101.232 24.375 C 101.952 23.223 102.432 21.867 102.684 20.427 L 102.132 20.223 Z  M 80.592 21.255 C 80.868 20.367 81.06 18.987 81.108 18.051 L 80.448 17.967 C 80.364 18.915 80.172 20.223 79.896 21.027 L 80.592 21.255 Z  M 81.372 26.619 L 82.2 26.619 L 82.2 15.675 L 81.372 15.675 L 81.372 26.619 Z  M 82.296 17.655 C 82.548 18.219 82.824 18.963 82.92 19.419 L 83.544 19.107 C 83.436 18.675 83.148 17.955 82.884 17.427 L 82.296 17.655 Z  M 84.876 24.087 L 84.876 23.175 L 89.196 23.175 L 89.196 24.087 L 84.876 24.087 Z  M 89.196 21.603 L 89.196 22.503 L 84.876 22.503 L 84.876 21.603 L 89.196 21.603 Z  M 90.048 20.907 L 84.036 20.907 L 84.036 26.619 L 84.876 26.619 L 84.876 24.747 L 89.196 24.747 L 89.196 25.611 C 89.196 25.767 89.136 25.815 88.968 25.815 C 88.824 25.827 88.248 25.827 87.648 25.803 C 87.756 26.031 87.852 26.355 87.9 26.571 C 88.752 26.583 89.28 26.571 89.616 26.439 C 89.952 26.307 90.048 26.079 90.048 25.623 L 90.048 20.907 Z  M 87.48 19.539 L 87.48 18.699 L 90.336 18.699 L 90.336 18.051 L 87.48 18.051 L 87.48 17.295 L 90.636 17.295 L 90.636 16.611 L 87.48 16.611 L 87.48 15.675 L 86.604 15.675 L 86.604 16.611 L 83.544 16.611 L 83.544 17.295 L 86.604 17.295 L 86.604 18.051 L 83.82 18.051 L 83.82 18.699 L 86.604 18.699 L 86.604 19.539 L 83.184 19.539 L 83.184 20.223 L 90.972 20.223 L 90.972 19.539 L 87.48 19.539 Z  M 67.26 25.707 L 72.084 25.707 L 72.084 24.795 L 70.32 24.795 L 70.32 16.911 L 69.48 16.911 C 69 17.187 68.436 17.391 67.656 17.535 L 67.656 18.231 L 69.216 18.231 L 69.216 24.795 L 67.26 24.795 L 67.26 25.707 Z  M 75.996 21.555 C 74.952 21.555 74.424 20.787 74.424 19.599 C 74.424 18.399 75.072 17.607 75.912 17.607 C 77.04 17.607 77.712 18.567 77.832 20.379 C 77.244 21.219 76.584 21.555 75.996 21.555 Z  M 73.56 24.963 C 74.052 25.479 74.724 25.863 75.672 25.863 C 77.328 25.863 78.864 24.495 78.864 20.931 C 78.864 18.135 77.604 16.743 75.912 16.743 C 74.544 16.743 73.392 17.895 73.392 19.599 C 73.392 21.423 74.352 22.371 75.816 22.371 C 76.56 22.371 77.316 21.939 77.844 21.279 C 77.76 24.015 76.776 24.951 75.636 24.951 C 75.072 24.951 74.532 24.699 74.16 24.279 L 73.56 24.963 Z  M 40.024 25.863 C 41.164 25.863 42.028 25.407 42.724 24.603 L 42.112 23.907 C 41.548 24.519 40.912 24.891 40.072 24.891 C 38.392 24.891 37.336 23.499 37.336 21.279 C 37.336 19.083 38.44 17.715 40.108 17.715 C 40.864 17.715 41.452 18.063 41.908 18.555 L 42.508 17.835 C 42.004 17.271 41.164 16.743 40.096 16.743 C 37.864 16.743 36.196 18.471 36.196 21.315 C 36.196 24.171 37.84 25.863 40.024 25.863 Z  M 46.424 25.863 C 48.632 25.863 50.18 24.099 50.18 21.279 C 50.18 18.459 48.632 16.743 46.424 16.743 C 44.216 16.743 42.668 18.459 42.668 21.279 C 42.668 24.099 44.216 25.863 46.424 25.863 Z  M 46.424 24.891 C 44.84 24.891 43.808 23.475 43.808 21.279 C 43.808 19.071 44.84 17.715 46.424 17.715 C 47.996 17.715 49.04 19.071 49.04 21.279 C 49.04 23.475 47.996 24.891 46.424 24.891 Z  M 52.764 25.707 L 54.048 25.707 L 56.844 16.911 L 55.716 16.911 L 54.3 21.675 C 53.988 22.707 53.772 23.547 53.448 24.579 L 53.4 24.579 C 53.064 23.547 52.86 22.707 52.548 21.675 L 51.12 16.911 L 49.956 16.911 L 52.764 25.707 Z  M 57.244 25.707 L 58.36 25.707 L 58.36 16.911 L 57.244 16.911 L 57.244 25.707 Z  M 59.96 25.707 L 62.216 25.707 C 64.868 25.707 66.32 24.063 66.32 21.279 C 66.32 18.483 64.868 16.911 62.168 16.911 L 59.96 16.911 L 59.96 25.707 Z  M 61.076 24.795 L 61.076 17.811 L 62.072 17.811 C 64.148 17.811 65.168 19.047 65.168 21.279 C 65.168 23.499 64.148 24.795 62.072 24.795 L 61.076 24.795 Z  M 68.584 4.94 L 63.784 4.94 L 63.784 3.992 L 68.584 3.992 L 68.584 4.94 Z  M 68.584 6.536 L 63.784 6.536 L 63.784 5.564 L 68.584 5.564 L 68.584 6.536 Z  M 68.584 8.132 L 63.784 8.132 L 63.784 7.16 L 68.584 7.16 L 68.584 8.132 Z  M 69.436 3.344 L 62.932 3.344 L 62.932 8.78 L 69.436 8.78 L 69.436 3.344 Z  M 62.824 10.964 C 62.26 11.708 61.12 12.56 60.136 13.1 C 60.352 13.232 60.664 13.508 60.844 13.688 C 61.852 13.1 62.992 12.176 63.736 11.312 L 62.824 10.964 Z  M 70.828 10.472 L 70.828 9.668 L 61.708 9.668 L 61.708 3.944 L 60.832 3.944 L 60.832 10.796 L 61.708 10.796 L 61.708 10.472 L 65.044 10.472 L 65.044 13.832 L 65.968 13.832 L 65.968 10.472 L 70.828 10.472 Z  M 67.264 11.408 C 68.224 12.092 69.46 13.088 70.048 13.7 L 70.84 13.136 C 70.192 12.536 68.944 11.576 67.996 10.928 L 67.264 11.408 Z  M 51.436 5.312 L 53.332 5.312 L 53.332 4.484 L 49.912 4.484 C 50.056 4.028 50.188 3.548 50.284 3.044 L 49.42 2.876 C 49.132 4.328 48.64 5.756 47.932 6.68 C 48.136 6.8 48.508 7.04 48.664 7.196 C 49.036 6.68 49.348 6.032 49.636 5.312 L 50.548 5.312 L 50.548 7.28 C 50.548 7.412 50.548 7.556 50.548 7.7 L 48.076 7.7 L 48.076 8.552 L 50.488 8.552 C 50.332 10.124 49.768 11.852 47.944 13.148 C 48.136 13.28 48.448 13.616 48.568 13.808 C 49.936 12.836 50.668 11.54 51.052 10.268 C 51.7 11 52.636 12.128 53.044 12.716 L 53.644 11.96 C 53.272 11.54 51.82 9.92 51.256 9.356 C 51.304 9.092 51.352 8.816 51.376 8.552 L 53.68 8.552 L 53.68 7.7 L 51.424 7.7 C 51.436 7.556 51.436 7.412 51.436 7.292 L 51.436 5.312 Z  M 54.928 11.708 L 54.928 4.76 L 57.46 4.76 L 57.46 11.708 L 54.928 11.708 Z  M 54.064 3.92 L 54.064 13.496 L 54.928 13.496 L 54.928 12.548 L 57.46 12.548 L 57.46 13.376 L 58.348 13.376 L 58.348 3.92 L 54.064 3.92 Z  M 40.552 4.16 C 40.864 4.628 41.164 5.252 41.248 5.66 L 39.124 5.66 L 39.52 5.492 C 39.4 5.12 39.1 4.616 38.764 4.22 C 39.4 4.184 40.048 4.148 40.696 4.112 L 40.552 4.16 Z  M 37.324 6.38 L 40.732 6.38 L 40.384 6.752 C 41.02 7.028 41.788 7.484 42.16 7.808 L 42.628 7.268 C 42.292 6.98 41.656 6.644 41.092 6.38 L 45.64 6.38 L 45.64 7.82 L 46.504 7.82 L 46.504 5.66 L 44.344 5.66 C 44.692 5.228 45.064 4.712 45.388 4.22 L 44.548 3.896 C 44.284 4.412 43.804 5.168 43.444 5.66 L 41.284 5.66 L 42.028 5.396 C 41.932 5.024 41.68 4.496 41.38 4.052 C 43.072 3.932 44.68 3.74 45.904 3.5 L 45.316 2.876 C 43.384 3.26 39.796 3.512 36.868 3.596 C 36.952 3.764 37.036 4.076 37.06 4.28 C 37.456 4.268 37.864 4.256 38.284 4.232 L 37.936 4.376 C 38.236 4.76 38.56 5.276 38.704 5.66 L 36.496 5.66 L 36.496 7.736 L 37.324 7.736 L 37.324 6.38 Z  M 43.732 7.364 C 44.428 7.916 45.22 8.732 45.58 9.272 L 46.216 8.78 C 45.856 8.24 45.04 7.472 44.344 6.944 L 43.732 7.364 Z  M 37.408 9.416 C 38.212 8.948 38.656 8.156 38.932 7.376 L 38.26 7.088 C 37.996 7.808 37.516 8.516 36.796 8.9 L 37.408 9.416 Z  M 43.42 10.616 C 42.928 11.12 42.28 11.54 41.524 11.876 C 40.732 11.528 40.072 11.108 39.568 10.616 L 43.42 10.616 Z  M 44.176 9.92 L 44.032 9.956 L 40.3 9.956 C 40.552 9.728 40.768 9.488 40.972 9.236 L 40.756 9.164 L 42.7 9.164 C 43.48 9.164 43.708 8.936 43.792 7.964 C 43.564 7.916 43.252 7.832 43.084 7.712 C 43.036 8.42 42.964 8.504 42.592 8.504 L 40.84 8.504 C 40.336 8.504 40.252 8.456 40.252 8.216 L 40.252 7.076 L 39.424 7.076 L 39.424 8.228 C 39.424 8.78 39.568 9.032 40.072 9.116 C 39.196 10.124 37.756 10.976 36.352 11.516 C 36.52 11.66 36.844 11.948 36.976 12.104 C 37.624 11.816 38.308 11.444 38.944 11.024 C 39.4 11.492 39.952 11.9 40.576 12.248 C 39.268 12.692 37.744 12.968 36.184 13.112 C 36.352 13.292 36.568 13.652 36.652 13.856 C 38.368 13.64 40.072 13.292 41.512 12.704 C 42.916 13.292 44.596 13.664 46.36 13.844 C 46.48 13.616 46.684 13.244 46.876 13.064 C 45.28 12.944 43.768 12.668 42.484 12.248 C 43.42 11.744 44.188 11.096 44.74 10.292 L 44.176 9.92 Z " fill="rgb(137,137,137)"/><clipPath id="_clipPath_GQtBA0ENcCdgwGMioIfUK3ABNss9TCpp"><rect x="1.5" y="0" width="28" height="28" transform="matrix(1,0,0,1,0,0)" fill="rgb(255,255,255)"/></clipPath><g clip-path="url(#_clipPath_GQtBA0ENcCdgwGMioIfUK3ABNss9TCpp)"><g><rect x="20.342" y="2.595" width="5.693" height="5.88" transform="matrix(0.677,0.736,-0.736,0.677,11.564,-15.279)" fill="rgb(235,235,235)"/><rect x="20.719" y="10.19" width="4.377" height="8.004" transform="matrix(0.997,0.075,-0.075,0.997,1.129,-1.678)" fill="rgb(235,235,235)"/><rect x="15.994" y="12.996" width="5.984" height="9.736" transform="matrix(0.445,0.896,-0.896,0.445,26.541,-7.086)" fill="rgb(235,235,235)"/><rect x="10.381" y="13.718" width="3.051" height="7.925" transform="matrix(0.041,0.999,-0.999,0.041,29.084,5.059)" fill="rgb(235,235,235)"/><rect x="9.814" y="18.417" width="2.449" height="5.707" transform="matrix(0.024,1,-1,0.024,32.038,9.724)" fill="rgb(235,235,235)"/><rect x="3.901" y="16.508" width="3.284" height="6.926" transform="matrix(1,0.012,-0.012,1,0.24,-0.065)" fill="rgb(235,235,235)"/><rect x="2.656" y="24.379" width="2.743" height="1.839" transform="matrix(1,0.012,-0.012,1,0.304,-0.047)" fill="rgb(235,235,235)"/><g><path d=" M 16.514 6.129 C 16.493 6.188 16.472 6.266 16.41 6.266 C 16.348 6.266 16.327 6.188 16.306 6.129 C 15.683 3.949 13.958 2.987 12.004 2.987 C 9.634 2.987 7.66 5.049 7.66 7.719 C 7.66 10.606 10.133 12.707 11.692 14.121 C 13.583 15.829 15.599 18.166 16.368 19.345 C 16.389 19.384 16.431 19.384 16.452 19.345 C 17.221 18.166 19.237 15.829 21.128 14.121 C 22.687 12.707 25.16 10.626 25.16 7.719 C 25.16 5.049 23.186 2.987 20.816 2.987 C 18.863 2.987 17.117 3.949 16.514 6.129 Z " fill="rgb(168,57,69)"/></g><g style="opacity:0.52;"><g opacity="0.52"><ellipse vector-effect="non-scaling-stroke" cx="16.47056873893404" cy="19.700661886145497" rx="1.1017489610033673" ry="0.326666666666668" fill="rgb(168,57,69)"/></g></g><text transform="matrix(0.093,0,0,0.093,12.191,23.38)" style="font-family:'Open Sans';font-weight:700;font-size:24px;font-style:normal;font-variant-ligatures:none;fill:[Object GRGBColor];stroke:none;">AICHI</text><text transform="matrix(0.093,0,0,0.093,10.464,26.43)" style="font-family:'Open Sans';font-weight:700;font-size:24px;font-style:normal;font-variant-ligatures:none;fill:[Object GRGBColor];stroke:none;">COVID19</text></g></g></g></svg>