<svg width="111" height="28" viewBox="0 0 111 28" fill="none" xmlns="http://www.w3.org/2000/svg">
<path d="M9.55839 14.1698L2 20.8705L11.649 17.5112L11.2559 15.635L9.55839 14.1698ZM16.1161 10.3638L15.044 6.25399L16.4735 3.806L14.097 0L11.7026 3.806L13.1321 6.25399L12.06 10.3638L2.17869 6.96873L11.7026 15.492L14.0791 28L16.4557 15.492L25.9975 6.96873L16.1161 10.3638ZM18.6177 14.1698L16.9202 15.635L16.5093 17.5112L26.194 20.8705L18.6177 14.1698Z" fill="#2D60AD"/>
<path d="M50.5643 7.13344C55.3062 6.74896 56.716 6.34312 56.8014 6.3004C57.1645 6.1936 57.5917 6.02272 57.5917 5.29648C57.5917 5.14696 57.5917 4.01488 56.4383 4.01488C56.2674 4.01488 53.3411 4.52752 52.7644 4.61296C49.1332 5.10424 43.1737 5.2324 42.2339 5.25376C41.3795 5.25376 40.6746 5.25376 40.6746 6.32176C40.6746 7.43248 41.3581 7.43248 41.9776 7.43248C42.2339 7.43248 46.3564 7.38976 48.1079 7.28296V11.8326H40.3756C39.5212 11.8326 39.2435 12.2385 39.2435 13.0502C39.2435 14.0754 39.9911 14.1182 40.3756 14.1182H48.1079V22.7903C48.1079 23.6447 48.471 23.901 49.4536 23.901C50.4361 23.901 50.5643 23.303 50.5643 22.7903V14.1182H58.318C59.1083 14.1182 59.4287 13.7764 59.4287 12.922C59.4287 11.854 58.617 11.8326 58.318 11.8326H50.5643V7.13344ZM69.7669 5.14696H65.6017C65.1532 5.14696 64.5337 5.25376 64.5337 6.0868C64.5337 6.98392 65.3454 6.98392 65.6017 6.98392H69.7669V7.49656C69.7669 7.98784 70.0232 8.3296 70.899 8.3296C71.3689 8.3296 71.9456 8.18008 71.9456 7.45384V6.98392H77.2216V7.49656C77.2216 8.0092 77.5206 8.30824 78.3536 8.30824C78.8236 8.30824 79.4216 8.15872 79.4216 7.45384V6.98392H83.5655C83.95 6.98392 84.6548 6.91984 84.6548 6.06544C84.6548 5.14696 83.8218 5.14696 83.5655 5.14696H79.4216V4.74112C79.4216 4.07896 79.1012 3.82264 78.2468 3.82264C77.2216 3.82264 77.2216 4.4848 77.2216 4.74112V5.14696H71.9456V4.74112C71.9456 4.07896 71.6252 3.82264 70.7922 3.82264C69.7669 3.82264 69.7669 4.4848 69.7669 4.8052V5.14696ZM75.6623 19.629C78.3323 22.2136 82.3693 23.4952 83.416 23.4952C83.6936 23.4952 83.9713 23.4098 84.1636 23.1748C84.3772 22.8758 84.3985 22.534 84.3985 22.3845C84.3985 21.701 84.0995 21.6369 82.1344 21.1242C81.3013 20.9106 79.2935 20.2271 77.4352 18.8601H83.6723C84.3772 18.8601 84.6335 18.561 84.6335 17.8989C84.6335 17.0231 83.9286 17.0231 83.6723 17.0231H75.6623V16.0192H82.5188C83.0101 16.0192 83.4587 15.8697 83.4587 15.1007C83.4587 14.2463 82.8606 14.225 82.5188 14.225H70.4077C69.9164 14.225 69.7456 13.9259 69.7456 13.5414V10.8714H73.4622V11.5336C73.4622 13.2851 74.2739 13.4346 75.5555 13.4346H79.443C80.7032 13.4346 81.5363 13.2851 81.5363 11.5336V10.8714H83.6723C84.1208 10.8714 84.6335 10.786 84.6335 10.017C84.6335 9.22672 84.0568 9.16264 83.6723 9.16264H81.5363V8.41504C81.5363 7.83832 81.1304 7.64608 80.3615 7.64608C79.5071 7.64608 79.3148 7.94512 79.3148 8.41504V9.16264H75.5982V8.41504C75.5982 7.81696 75.2778 7.62472 74.4234 7.62472C73.5476 7.62472 73.4622 8.07328 73.4622 8.41504V9.16264H69.7456V8.41504C69.7456 7.81696 69.3611 7.64608 68.5494 7.64608C67.93 7.64608 67.5668 7.88104 67.5668 8.41504V9.16264H65.4736C64.8968 9.16264 64.5124 9.35488 64.5124 10.0384C64.5124 10.8714 65.1959 10.8714 65.4736 10.8714H67.5668V13.8405C67.5668 15.5493 68.3144 16.0192 69.7242 16.0192H73.4622V17.0231H65.4949C65.1318 17.0231 64.5124 17.0658 64.5124 17.9416C64.5124 18.8601 65.2172 18.8601 65.4949 18.8601H71.6893C70.2155 20.0349 67.9513 20.8679 66.9688 21.1242C65.1104 21.5942 64.7046 21.701 64.7046 22.3845C64.7046 22.769 64.9182 23.4952 65.7299 23.4952C66.3707 23.4952 70.5572 22.4272 73.4622 19.629V22.8758C73.4622 23.7302 73.8253 23.9651 74.6156 23.9651C75.5982 23.9651 75.6623 23.303 75.6623 22.8758V19.629ZM79.3148 10.8714V11.555C79.3148 11.854 79.1653 12.0249 78.8449 12.0249H76.0681C75.705 12.0249 75.5982 11.8326 75.5982 11.555V10.8714H79.3148ZM108.001 6.6208C108.001 4.99744 107.339 4.46344 105.844 4.46344H96.7446C95.2067 4.46344 94.5872 5.06152 94.5872 6.6208V12.3666C94.5872 13.9686 95.2067 14.524 96.7446 14.524H105.844C107.339 14.524 108.001 13.99 108.001 12.3666V6.6208ZM96.7019 10.1025V8.88496H105.844V10.1025H96.7019ZM105.844 11.5763V12.2385C105.844 12.5589 105.716 12.8366 105.246 12.8366H97.2999C96.8941 12.8366 96.7019 12.623 96.7019 12.2385V11.5763H105.844ZM96.7019 7.41112V6.79168C96.7019 6.36448 96.9155 6.1936 97.2999 6.1936H105.246C105.652 6.1936 105.844 6.38584 105.844 6.79168V7.41112H96.7019ZM108.685 17.8562C109.069 17.8562 109.774 17.7707 109.774 16.8736C109.774 16.4464 109.71 15.8056 108.663 15.8056H93.5833C93.0493 15.8056 92.7503 15.5706 92.7503 14.9726V6.0868C92.7503 5.5528 92.6221 4.97608 91.725 4.97608C91.0415 4.97608 90.5502 5.10424 90.5502 6.0868V15.4638C90.5502 17.2367 91.2551 17.8562 92.9211 17.8562H98.5602V22.8117C98.5602 23.4952 98.7952 23.9224 99.6068 23.9224C100.461 23.9224 100.867 23.7302 100.867 22.8117V17.8562H108.685ZM96.1679 19.7145C96.1679 19.1591 95.6552 18.5397 95.0572 18.5397C94.7367 18.5397 94.5445 18.6678 93.9464 19.1591C93.3697 19.629 92.6435 20.2485 91.1696 20.9747C89.9948 21.5514 89.7599 21.6582 89.7599 22.235C89.7599 22.769 90.2298 23.5166 90.956 23.5166C92.0881 23.5166 96.1679 20.633 96.1679 19.7145ZM103.281 19.6718C103.281 20.2058 104.456 21.1029 105.075 21.5728C105.694 22.0641 107.702 23.4738 108.471 23.4738C109.347 23.4738 109.731 22.5554 109.731 22.1282C109.731 21.5728 109.283 21.3592 108.813 21.1456C107.574 20.5475 106.527 19.864 105.716 19.2659C104.733 18.561 104.626 18.4756 104.327 18.4756C103.986 18.4756 103.281 18.8174 103.281 19.6718Z" fill="#808080"/>
</svg>
