<?xml version="1.0" encoding="utf-8"?>
<!-- Generator: Adobe Illustrator 24.1.0, SVG Export Plug-In . SVG Version: 6.00 Build 0)  -->
<svg version="1.1" id="レイヤー_1" xmlns="http://www.w3.org/2000/svg" xmlns:xlink="http://www.w3.org/1999/xlink" x="0px"
	 y="0px" viewBox="0 0 111 28" style="enable-background:new 0 0 111 28;" xml:space="preserve">
<style type="text/css">
	.st0{fill:#898989;}
	.st1{fill-rule:evenodd;clip-rule:evenodd;fill:#0A713A;stroke:#0A713A;stroke-miterlimit:10;}
</style>
<g>
	<path class="st0" d="M53.4,7c0-0.7,0-1-0.1-1.3h2.1C55.3,6,55.3,6.3,55.3,7h4.4c0.9,0,1.5,0,2-0.1v1.7c-0.5-0.1-1-0.1-1.8-0.1h-4.6
		v0.8h4c0.7,0,1.2,0,1.7-0.1v1.6c-0.5-0.1-1-0.1-1.7-0.1h-4v0.8h5.3c0.9,0,1.4,0,1.8-0.1V13c-0.5-0.1-1-0.1-1.8-0.1H48.3
		c-0.8,0-1.3,0-1.8,0.1v-1.7c0.5,0.1,0.9,0.1,1.8,0.1h5.1v-0.8h-3.7c-0.7,0-1.2,0-1.7,0.1V9.1c0.5,0.1,1,0.1,1.7,0.1h3.7V8.5H49
		c-0.9,0-1.3,0-1.8,0.1V6.9C47.6,7,48.3,7,49.1,7H53.4z M50.6,19.4v0.9c0,0.8,0,1.5,0.1,2h-2.1c0.1-0.6,0.1-0.9,0.1-2.2v-4.7
		c0-0.7,0-1.2-0.1-1.7c0.4,0.1,0.8,0.1,1.6,0.1h8.5c0.8,0,1.2,0,1.6-0.1c-0.1,0.5-0.1,1-0.1,1.7v5c0,0.7-0.2,1.1-0.6,1.4
		c-0.4,0.3-1,0.4-2.3,0.4c-0.5,0-0.9,0-1.6-0.1c-0.1-0.6-0.2-1.1-0.4-1.7c0.8,0.1,1.4,0.1,2,0.1c0.8,0,0.9-0.1,0.9-0.5v-0.6
		C58.2,19.4,50.6,19.4,50.6,19.4z M58.3,15h-7.6v0.8h7.6V15z M50.6,17.2V18h7.6v-0.8H50.6z"/>
	<path class="st0" d="M65.9,16c-0.8,0-1.2,0-1.6,0.1v-1.9c0.4,0.1,0.8,0.1,1.7,0.1h1.6v-0.4c0-0.5,0-0.9-0.1-1.2h1.9
		c-0.1,0.3-0.1,0.6-0.1,1.2v0.4h0.9c0.8,0,1.1,0,1.6-0.1V16c-0.5,0-0.8,0-1.6,0h-0.5c0.5,0.8,1.1,1.3,2.2,2
		c-0.5,0.6-0.5,0.6-1.1,1.5c-0.7-0.7-1.1-1.2-1.6-2c0.1,0.5,0.1,0.9,0.1,1.4v1.9c0,0.7,0,1.2,0.1,1.6h-1.9c0.1-0.4,0.1-0.8,0.1-1.5
		V19c0-0.3,0-0.9,0.1-1.3c-0.8,1.4-1.6,2.4-2.7,3.3c-0.3-0.7-0.6-1-1.1-1.5c1.3-0.9,2.4-2.1,3.3-3.6h-1.3V16z M77.7,7.2
		c0.9,0,1.5,0,2.1-0.1V9c-0.6-0.1-1.2-0.1-2.1-0.1h-3.1c1.5,1.2,3.3,2,5.8,2.6c-0.5,0.7-0.7,1-1,1.8c-1.8-0.6-2.4-0.9-3.6-1.5
		c-1.1-0.6-1.6-1-2.7-2.1c0,0.1,0,0.1,0,0.3c0,0.1,0,0.4,0,0.6v1.7c0,0.6,0,1,0.1,1.3h-2.1c0.1-0.4,0.1-0.8,0.1-1.3v-1.6
		c0-0.2,0-0.4,0-0.5c0-0.3,0-0.3,0-0.3c-1.6,1.6-3.5,2.7-6,3.5c-0.3-0.7-0.4-1-0.9-1.6c2.3-0.6,4-1.4,5.5-2.6H67
		c-0.8,0-1.5,0-2.1,0.1V7.1c0.6,0.1,1.2,0.1,2.1,0.1h4.2V7.1c0-0.6,0-1-0.1-1.4h2.1c-0.1,0.4-0.1,0.7-0.1,1.4v0.1H77.7z M73.9,16
		c-0.8,0-1.1,0-1.6,0.1v-1.8c0.4,0.1,0.7,0.1,1.6,0.1h1V14c0-0.6,0-0.9-0.1-1.2h1.9c-0.1,0.3-0.1,0.6-0.1,1.2v0.4h1.9
		c0.9,0,1.2,0,1.6-0.1v1.9C79.9,16,79.5,16,78.8,16h-1.6c0.1,0.1,0.1,0.1,0.2,0.3c0.9,1.2,2.1,2.3,3.6,3.1c-0.5,0.5-0.9,1-1.2,1.7
		c-0.6-0.4-1-0.8-1.7-1.5c-0.6-0.7-0.9-1.1-1.4-2c0,0.3,0,0.3,0.1,0.7c0,0.1,0,0.2,0,0.3c0,0.2,0,0.3,0,0.3v1.8c0,0.8,0,1.2,0.1,1.6
		h-2c0.1-0.5,0.1-0.9,0.1-1.6v-1.8c0-0.3,0-0.4,0.1-1.2c-0.8,1.5-1.7,2.4-3.2,3.5c-0.3-0.7-0.5-1-1.1-1.5c1.7-1,2.6-1.9,3.8-3.6
		L73.9,16L73.9,16z"/>
	<path class="st0" d="M87.7,18.4c-1.3,1.7-2.4,2.7-4.1,3.6c-0.6-0.7-0.8-0.9-1.4-1.5c1-0.4,1.6-0.8,2.3-1.4c0.7-0.5,1-0.9,1.6-1.7
		L87.7,18.4z M91.2,20.3c0,1,0,1.5,0.1,2h-2.2c0.1-0.5,0.1-1.1,0.1-2v-3h-4.4c-0.8,0-1.3,0-1.9,0.1c0.1-0.5,0.1-0.9,0.1-1.9V9.3
		c0-0.9,0-1.3-0.1-1.8H85c0,0.5,0,0.9,0,1.7v6.4h11.3c1,0,1.4,0,2-0.1v1.9c-0.6-0.1-1.1-0.1-2-0.1h-5v3H91.2z M96.4,13.2
		c0,0.7,0,1.2,0.1,1.6c-0.5-0.1-1.1-0.1-1.8-0.1h-6.5c-0.7,0-1.2,0-1.8,0.1c0.1-0.5,0.1-1,0.1-1.7V7.9c0-0.6,0-1.1-0.1-1.6
		c0.6,0.1,1,0.1,1.8,0.1h6.4c0.7,0,1.2,0,1.7-0.1c-0.1,0.5-0.1,0.9-0.1,1.6v5.3H96.4z M88.4,8.8h6.1V7.9h-6.1V8.8z M88.4,11h6.1
		v-0.9h-6.1V11z M88.4,13.3h6.1v-0.9h-6.1V13.3z M94.3,17.6c1.4,1.5,2.3,2.1,4.2,2.9c-0.6,0.6-0.8,0.9-1.3,1.6
		c-1.1-0.6-1.6-0.9-2.3-1.5c-0.9-0.7-1.3-1.2-2.1-2.1L94.3,17.6z"/>
</g>
<path class="st1" d="M36.2,22l-0.2-0.3l-0.1-0.2l-0.1-0.2l-0.2,0L35.5,21v-0.2l-0.3,0l-0.2,0.1L34.9,21h-0.3l-0.3-0.2l-0.2-0.4
	l-0.2-0.5l0-0.4l-0.1-0.2l-0.3-0.6L33.3,18l0-0.8l-0.1-0.7L33,15.8l-0.1-1l-0.1-0.9v-0.8l0.1-0.8l0-0.6l0.1-0.5l-0.1-0.3l0-0.5V9.3
	l0.1-0.7l0.2-0.7L33.2,7l0.2-0.6L33.6,6l0.1-0.2l-0.1-0.1l0.1-0.2l0.1-0.2l-0.1-0.2l-0.4,0.4L33,5.8L32.5,6L32,6.4l-0.4,0.1h-0.2
	L31,6.4l-0.4-0.2l-0.4-0.3l-0.5-0.5L29.4,5l-0.1-0.3l-0.3-0.3l-0.4-0.2h-0.2l-0.4-0.1L27.6,4l-0.3-0.2l-0.4-0.4l-0.2-0.2l-0.2-0.4
	l0,0.4l-0.1,0.3l0.1,0.3V4l-0.1,0.3l-0.1,0.4l-0.2,0.3l-0.1,0.3l-0.3,0.2h-0.1l0,0.4l-0.2,0.8L25,6.9v0.4l-0.1,0.3l-0.1,0.3
	l-0.1,0.4l0.1,0.2v0.4l-0.2,0.4l0,0.2l0,0.3l0,0.3l0.1,0.3l0.3,0.1l0.2,0.1l0.2-0.2l0.2-0.1l0.7-0.4l0.4-0.1H27l0.3-0.3l0.2-0.2h0.3
	L28,9.3l0.3,0.1l0.2-0.1l0.1-0.3L28.9,9l0.3,0l0.2-0.1l0.2-0.2l0.1-0.3l0-0.2l-0.3,0.2V8.2L29.7,8V7.8l0.3,0l0.1-0.1L30.3,8l0.2,0.3
	l0.3,0.3L31,9l0.2,0.4l0.1,0.4l-0.1,0.4l-0.2,0.4l0,0.7L30.9,12l-0.1,0.7l-0.1,0.6l-0.1,0.3l-0.3,0.7l-0.4,0.4l-0.4,0.1l-0.3,0.1
	l-0.3-0.1l-0.2-0.3l-0.3-0.2l-0.3-0.1L28,14l-0.2-0.1h-0.4v-0.4L27,12.9l-0.3-0.1l-0.4-0.3l-0.1,0l-0.2-0.1l0.1,0.4l0,0.2l-0.2,0.3
	l0,0.1l-0.3,0.1l0.1,0.1l0.2,0l-0.1,0.8l-0.2,0.3L25.4,15L25,15.7h-0.7l-0.4-0.3l-0.2-0.5l-0.2-0.5l-0.1-0.6l0-0.8l-0.1-0.7l0-0.8
	L22.9,11v-0.7l0.1-0.5l0-0.4l-0.3-0.2L22.6,9l-0.2,0l-0.2-0.2l-0.3-0.1l-0.1,0.1h-0.2L21.3,9l-0.1,0.3L21,9.4l-0.2,0.1l-0.3-0.1
	l-0.2-0.3L20,8.8l-0.4-0.4l-0.2-0.2l-0.2-0.1L19,8.2v0.2l-0.1,0.3V9l0,0.4l-0.1,0.4l-0.2,0.4l-0.2,0.1l-0.3,0.1l-0.3-0.1l-0.1,0.2
	v0.1H18l0.2,0.1l0.3,0.3l0.2,0.4l0.1,0.3V12l0.3,0l0.1,0.2h0.2l0.3-0.1l0.3,0.3v0.1h-0.4l-0.3,0.2l0,0.3L19,12.6l-0.2-0.4l-0.1,0.6
	l-0.1,0.6l0,0.5l0,0.4l-0.2,0.8L18,15.6l-0.4,0.6l-0.4,0.4l-0.3-0.1h-0.1l-0.4,0.5l-0.3,0.2H16L15.6,17l-0.3-0.1L15,17l-0.2,0.2
	l-0.2,0l-0.1,0.2l-0.1,0.3v0.2L14.1,18v0.3l-0.2,0.2l-0.2,0.1l-0.1,0.2L13.4,19h-0.1l-0.1-0.1l-0.1,0.3l-0.3,0.1l-0.3,0.3v0.2
	l0.1,0.3l0.4,0.1h0.3l0,0.1l0.1,0.3l0.1,0.3l0,0.2v1.2l0,0.6h0.8l0.2,0.1h0.1l0-0.3l-0.1,0l0.2-0.3l0.6-0.2l0.3,0.4l0.1,0.1l0.3,0
	l0.3,0l0.6,0l0.4,0h1.3l0.1-0.1l0.1-0.5l0.4-0.1h0.2l0.4,0l0.3,0.1v0.4l0.2,0.1l0.3-0.1l0.3,0.2l0.3,0.1l0.2,0.1v0.3l0.2,0.2h0.2
	l0.1,0v-0.1L21.8,23l0.1-0.1l0.3-0.1l0.4,0.2l0.2,0.3l0.1,0l0.2-0.1l0.3-0.1l0.1-0.2h0.2l0.2,0.2l0.2-0.1l0.1-0.2l0.1-0.1l0.1-0.3
	H25l0.1-0.1l0-0.3l0.1-0.3l0.3-0.2l0.5-0.1l0.2,0.3l0.2-0.1l0.2,0.1l0.1,0.2l0,0.3l0,0.3l-0.1,0.2l-0.1-0.1v-0.2l-0.2,0.1v0.1
	l0.1,0.3h0l-0.2,0.1l-0.3-0.3l0.1,0.3l0.3,0.1l0.2-0.1l0.3,0h0.4l0,0.3l0.1,0.3l0,0.3v0.3l-0.1,0.2h-0.1l-0.1-0.1v0.2l-0.1,0.3
	L27,25.1v0.6l0.1,0.3l0,0.4l0.3,0.2l0.3,0l0.4,0l0.1-0.2l0.1-0.1l0.4-0.2l0.3,0.1l0.1-0.3l0.1-0.2l0.1-0.3l0.1-0.2l0.2-0.1l0.3-0.2
	h0.4l0.3-0.1l0.3-0.2l0.2-0.1l0.1,0h0.3l0.1-0.1l0.1-0.3l0.2-0.2l0.3,0.4l0.1,0.2l0.2,0.2l0.1-0.2l0.1-0.5l0.2-0.1l0.2,0.3l0.2-0.1
	l0.2-0.2l0.3,0h0.3l0.3,0.3l0.3,0.1l0.2,0.1l0.3-0.2l0.4-0.1l0.1-0.3l0.1-0.4l0.3-0.1l0.3-0.1l0.2-0.2l0.3-0.2L36.2,22z M32.5,15.9
	l-0.2,0.2l0,0.3l0,0.2l0.1,0.4v0.4l-0.1,0.3L32,18l-0.4-0.1v-0.2l-0.1-0.3l0.1-0.2l0.3,0L32,17L32,16.8l-0.2-0.3l-0.1-0.3l0.1-0.4
	l0.3-0.3l0.2,0.1h0.3L32.5,15.9z"/>
</svg>
