<?xml version="1.0" standalone="no"?>
<!DOCTYPE svg PUBLIC "-//W3C//DTD SVG 20010904//EN"
 "http://www.w3.org/TR/2001/REC-SVG-20010904/DTD/svg10.dtd">
<svg version="1.0" xmlns="http://www.w3.org/2000/svg"
 width="258.000000pt" height="257.000000pt" viewBox="0 0 258.000000 257.000000"
 preserveAspectRatio="xMidYMid meet">

<g transform="translate(0.000000,257.000000) scale(0.100000,-0.100000)"
fill="#000000" stroke="none">
<path d="M1183 2194 c-23 -9 -62 -33 -86 -55 -45 -39 -97 -126 -97 -161 0 -15
-8 -18 -48 -18 -212 0 -359 -196 -296 -397 14 -46 31 -71 81 -121 l63 -64 -17
-60 c-75 -269 243 -485 469 -319 41 30 42 31 62 12 12 -10 41 -29 66 -42 62
-32 184 -34 251 -2 136 62 210 226 165 364 -17 49 -17 53 0 62 42 24 96 84
121 135 21 45 27 72 27 127 0 94 -29 159 -100 224 -60 55 -123 81 -198 81
l-51 0 -13 41 c-27 88 -105 168 -191 197 -46 16 -157 14 -208 -4z m179 -66
c55 -16 123 -79 143 -132 11 -28 16 -64 14 -95 -2 -28 -3 -51 -3 -51 1 0 18 7
37 15 51 21 140 19 185 -4 78 -41 132 -126 132 -210 0 -51 -41 -132 -85 -169
-21 -17 -59 -36 -85 -43 l-47 -12 34 -50 c41 -61 46 -82 41 -156 -8 -113 -86
-189 -202 -198 -57 -5 -72 -2 -122 22 -42 20 -63 39 -83 71 -14 24 -28 43 -31
43 -3 0 -17 -19 -31 -43 -34 -56 -111 -96 -185 -96 -192 0 -295 230 -167 371
34 38 35 39 12 39 -13 0 -42 9 -64 19 -164 75 -183 299 -34 398 52 34 154 44
212 20 l37 -16 0 57 c1 156 144 265 292 220z"/>
<path d="M1247 1913 c-3 -5 -15 -57 -27 -118 -12 -60 -25 -113 -28 -116 -4 -4
-54 0 -112 7 -58 7 -110 13 -117 14 -6 0 -18 -20 -26 -45 l-16 -44 32 -19 c18
-11 65 -37 105 -58 39 -21 72 -42 72 -47 0 -5 -20 -54 -45 -109 -25 -55 -45
-103 -45 -108 0 -4 16 -20 36 -35 l36 -28 84 84 84 84 0 57 c0 31 5 60 10 63
6 4 10 -17 10 -55 l0 -60 87 -84 88 -84 37 27 c21 14 38 29 38 32 0 4 -23 55
-50 114 -28 60 -49 109 -48 110 2 2 46 26 98 55 52 29 99 56 103 60 5 4 3 27
-4 50 l-13 42 -60 -6 c-34 -3 -90 -9 -126 -12 l-65 -6 -22 117 c-12 64 -24
120 -27 122 -3 3 -12 3 -21 0 -12 -5 -15 -28 -15 -132 0 -77 -4 -125 -10 -125
-6 0 -10 50 -10 130 0 107 -3 130 -14 130 -8 0 -17 -3 -19 -7z"/>
<path d="M616 763 c-3 -4 -6 -26 -6 -50 l0 -43 -48 0 c-27 0 -52 -3 -55 -7
-15 -14 18 -33 60 -33 l44 0 -3 -62 -3 -63 -50 -16 c-82 -26 -57 -58 27 -35
23 7 27 5 30 -16 2 -12 10 -23 18 -23 22 0 28 340 6 348 -8 3 -17 3 -20 0z"/>
<path d="M705 758 c-3 -8 -4 -86 -3 -173 l3 -160 64 -3 c35 -2 67 1 72 5 4 4
9 28 11 53 2 35 0 45 -12 45 -10 0 -16 -12 -18 -32 -2 -18 -6 -33 -10 -34 -4
-1 -20 -2 -37 -3 l-30 -1 -3 71 -3 71 56 36 c53 36 67 58 45 72 -6 4 -28 -7
-49 -24 -21 -17 -41 -31 -44 -31 -3 0 -7 26 -9 57 -3 54 -21 82 -33 51z"/>
<path d="M1051 756 c-7 -8 -11 -23 -9 -33 3 -15 -6 -19 -52 -23 -42 -4 -56 -9
-58 -22 -3 -16 5 -18 54 -18 l57 0 -7 -52 c-8 -62 -24 -91 -73 -134 -21 -18
-33 -36 -29 -43 34 -55 146 95 146 196 0 32 1 33 40 33 l39 0 3 -117 3 -118
49 -3 c32 -2 52 1 57 10 10 15 12 92 2 101 -12 12 -33 -15 -33 -43 0 -32 -7
-41 -26 -33 -11 4 -14 30 -14 114 0 121 -4 129 -74 129 -31 0 -36 3 -36 24 0
32 -23 51 -39 32z"/>
<path d="M1655 759 c-2 -8 -6 -48 -7 -89 l-3 -75 -25 42 c-14 23 -32 44 -42
46 -10 3 -18 17 -20 38 -6 61 -23 31 -28 -48 l-5 -78 -19 43 c-10 23 -25 42
-33 42 -9 0 -13 13 -13 41 0 33 -3 40 -17 37 -16 -3 -19 -19 -23 -118 -5 -111
-20 -167 -50 -185 -20 -12 -11 -37 12 -33 31 4 66 79 75 158 l6 64 18 -42 c10
-23 25 -42 34 -42 12 0 15 -13 15 -65 0 -51 3 -65 15 -65 12 0 15 18 15 105 0
58 4 105 8 105 5 0 17 -18 27 -40 12 -26 25 -40 37 -40 16 0 18 -9 18 -69 0
-69 13 -98 31 -70 5 8 9 84 9 170 0 127 -3 159 -15 169 -12 10 -16 10 -20 -1z"/>
<path d="M1923 750 c-5 -18 -14 -20 -73 -20 -44 0 -71 -5 -79 -13 -17 -22 -3
-27 76 -27 66 0 73 -2 73 -20 0 -17 -7 -20 -43 -20 -72 0 -78 -11 -75 -120 2
-77 6 -95 18 -95 12 0 16 18 20 85 l5 85 37 3 37 3 3 -98 c3 -83 6 -98 20
-101 15 -3 18 8 20 95 l3 98 40 0 40 0 0 -60 c0 -55 -2 -60 -25 -65 -14 -3
-25 -12 -25 -20 0 -20 75 -27 86 -8 5 7 9 48 9 90 0 94 -10 108 -81 108 -43 0
-50 3 -47 18 3 14 17 18 78 22 58 4 75 8 75 20 0 12 -17 16 -77 18 -70 3 -78
5 -78 22 0 26 -30 26 -37 0z"/>
<path d="M1367 645 c-4 -25 -10 -57 -13 -71 -6 -22 -4 -25 12 -22 21 4 32 35
33 96 1 59 -24 57 -32 -3z"/>
<path d="M516 294 c-21 -20 -20 -37 3 -65 16 -19 23 -22 37 -13 10 6 20 17 23
25 4 12 2 12 -12 0 -21 -17 -47 -7 -47 17 0 27 23 45 38 30 6 -6 15 -8 19 -4
8 8 -15 26 -34 26 -6 0 -19 -7 -27 -16z"/>
<path d="M678 298 c7 -7 12 -27 12 -46 0 -21 4 -31 11 -27 5 4 9 17 7 30 -1
12 3 30 11 39 12 14 10 16 -20 16 -26 0 -30 -3 -21 -12z"/>
<path d="M760 305 c0 -6 9 -28 20 -50 14 -27 20 -33 20 -20 0 11 7 29 15 39
22 29 18 42 -5 21 -20 -18 -21 -18 -35 1 -8 10 -15 14 -15 9z"/>
<path d="M922 298 c-16 -16 -15 -49 2 -70 26 -34 66 -15 66 32 0 29 -16 50
-40 50 -9 0 -21 -5 -28 -12z m52 -21 c16 -25 -16 -56 -38 -37 -19 15 -20 32
-4 48 15 15 28 11 42 -11z"/>
<path d="M1031 258 c1 -29 4 -43 6 -32 2 12 14 25 26 29 19 6 19 8 5 12 -10 2
-18 11 -18 20 0 9 6 13 15 10 8 -4 17 -2 20 3 4 6 -7 10 -24 10 -31 0 -31 0
-30 -52z"/>
<path d="M1217 292 c-15 -14 -19 -15 -26 -3 -13 20 -18 0 -10 -39 3 -19 7 -27
8 -17 1 21 14 22 31 2 21 -25 32 -17 14 10 -13 20 -14 28 -4 40 18 22 7 28
-13 7z"/>
<path d="M1332 297 c9 -7 18 -29 21 -48 l4 -34 1 36 c1 19 7 40 14 47 9 9 4
12 -22 12 -31 -1 -33 -2 -18 -13z"/>
<path d="M1431 288 c-19 -52 -22 -68 -12 -68 6 0 11 5 11 10 0 14 33 12 49 -2
11 -11 12 -8 6 12 -16 51 -25 70 -35 70 -6 0 -14 -10 -19 -22z m29 -23 c0 -8
-4 -15 -10 -15 -5 0 -10 7 -10 15 0 8 5 15 10 15 6 0 10 -7 10 -15z"/>
<path d="M1567 292 c-16 -15 -19 -15 -27 -2 -7 11 -9 2 -9 -30 1 -25 3 -37 6
-27 6 21 12 21 35 0 20 -18 25 -4 6 15 -10 10 -10 17 0 33 17 27 11 33 -11 11z"/>
<path d="M1672 293 c-9 -14 -13 -16 -23 -5 -21 20 -31 14 -15 -10 9 -12 16
-34 17 -48 l0 -25 11 25 c6 14 15 35 21 47 13 28 3 42 -11 16z"/>
<path d="M1720 280 c1 -35 19 -70 37 -70 18 0 43 36 43 63 0 41 -18 41 -22 0
-4 -47 -31 -53 -36 -8 -5 44 -22 56 -22 15z"/>
<path d="M1842 297 c-13 -15 -4 -31 21 -40 20 -7 23 -27 4 -27 -7 0 -19 6 -26
13 -11 10 -13 9 -9 -2 7 -25 35 -36 52 -22 23 19 20 36 -10 49 -14 7 -22 17
-18 23 4 8 9 8 17 0 17 -17 31 -13 17 4 -15 18 -34 19 -48 2z"/>
<path d="M1938 304 c-11 -11 -10 -82 1 -89 5 -3 11 5 13 17 4 30 26 34 37 6 8
-19 10 -16 10 22 0 35 -2 41 -10 28 -14 -24 -37 -23 -41 3 -2 11 -6 17 -10 13z"/>
<path d="M623 260 c0 -25 2 -35 4 -22 2 12 2 32 0 45 -2 12 -4 2 -4 -23z"/>
<path d="M1277 263 c8 -52 13 -54 13 -5 0 23 -4 42 -9 42 -6 0 -7 -17 -4 -37z"/>
<path d="M2041 269 c-2 -75 63 -78 66 -3 l1 39 -6 -35 c-9 -45 -39 -53 -48
-13 -10 47 -12 49 -13 12z"/>
</g>
</svg>
