<?xml version="1.0" encoding="UTF-8"?>
<!DOCTYPE svg PUBLIC "-//W3C//DTD SVG 1.1//EN" "http://www.w3.org/Graphics/SVG/1.1/DTD/svg11.dtd">
<svg version="1.1" xmlns="http://www.w3.org/2000/svg" xmlns:xlink="http://www.w3.org/1999/xlink" x="0" y="0" width="502.205" height="138.873" viewBox="0, 0, 502.205, 138.873">
  <g id="レイヤー_1">
    <text transform="matrix(1, 0, 0, 1, 342.425, 63.187)">
      <tspan x="-163.78" y="42.36" font-family="HiraKakuPro-W6" font-size="100" fill="#14B83F">山口県</tspan>
    </text>
    <path d="M83.131,127.687 C50.176,127.687 23.462,101.5 23.462,69.196 C23.462,36.893 50.176,10.705 83.131,10.705 C116.085,10.705 142.799,36.893 142.799,69.196 C142.799,101.5 116.085,127.687 83.131,127.687 z" fill="#14B840"/>
    <path d="M16.443,79.122 L10,69.196 L16.443,59.271 L29.329,59.271 L35.772,69.196 L29.329,79.122 z" fill="#14B840"/>
    <path d="M83.131,59.271 C101.996,59.472 122.061,65.996 134.161,81.222 C136.794,84.536 137.168,85.556 139.2,89.24 C129.64,113.013 108.638,127.055 83.131,127.687 C62.579,127.577 42.98,117.089 32.1,99.526 C29.466,95.274 29.037,93.835 27.061,89.24 C37.809,68.562 60.85,59.701 83.131,59.271 z" fill="#FFFFFF"/>
    <path d="M58.399,46.035 C54.28,46.035 50.941,42.696 50.941,38.577 C50.941,34.458 54.28,31.118 58.399,31.118 C62.519,31.118 65.858,34.458 65.858,38.577 C65.858,42.696 62.519,46.035 58.399,46.035 z" fill="#FFFFFF"/>
    <path d="M107.862,46.035 C103.742,46.035 100.403,42.696 100.403,38.577 C100.403,34.458 103.742,31.118 107.862,31.118 C111.981,31.118 115.32,34.458 115.32,38.577 C115.32,42.696 111.981,46.035 107.862,46.035 z" fill="#FFFFFF"/>
    <path d="M83.131,51.139 C79.011,51.139 75.672,47.799 75.672,43.68 C75.672,39.561 79.011,36.222 83.131,36.222 C87.25,36.222 90.589,39.561 90.589,43.68 C90.589,47.799 87.25,51.139 83.131,51.139 z" fill="#646565"/>
    <path d="M58.399,44.465 C55.147,44.465 52.511,41.829 52.511,38.577 C52.511,35.325 55.147,32.689 58.399,32.689 C61.652,32.689 64.288,35.325 64.288,38.577 C64.288,41.829 61.652,44.465 58.399,44.465 z" fill="#646565"/>
    <path d="M107.862,44.465 C104.61,44.465 101.973,41.829 101.973,38.577 C101.973,35.325 104.61,32.689 107.862,32.689 C111.114,32.689 113.75,35.325 113.75,38.577 C113.75,41.829 111.114,44.465 107.862,44.465 z" fill="#646565"/>
    <path d="M83.131,46.035 C79.662,46.035 76.85,44.717 76.85,43.091 C76.85,41.465 79.662,40.147 83.131,40.147 C86.599,40.147 89.411,41.465 89.411,43.091 C89.411,44.717 86.599,46.035 83.131,46.035 z" fill="#4AC16A"/>
    <path d="M138.272,79.122 L131.829,69.196 L138.272,59.271 L151.158,59.271 L157.601,69.196 L151.158,79.122 z" fill="#14B840"/>
    <path d="M83.631,128.58 C50.752,128.58 24.098,102.217 24.098,69.696 C24.098,37.176 50.752,10.813 83.631,10.813 C116.509,10.813 143.163,37.176 143.163,69.696 C143.163,102.217 116.509,128.58 83.631,128.58 z" fill-opacity="0" stroke="#14B840" stroke-width="4"/>
    <path d="M45.194,93.535 C39.99,93.535 35.772,91.426 35.772,88.824 C35.772,86.222 39.99,84.113 45.194,84.113 C50.397,84.113 54.615,86.222 54.615,88.824 C54.615,91.426 50.397,93.535 45.194,93.535 z" fill="#ABABAB"/>
    <path d="M64.026,79.122 C58.822,79.122 54.604,77.013 54.604,74.411 C54.604,71.81 58.822,69.701 64.026,69.701 C69.229,69.701 73.447,71.81 73.447,74.411 C73.447,77.013 69.229,79.122 64.026,79.122 z" fill="#ABABAB"/>
    <path d="M101.711,79.122 C96.508,79.122 92.29,77.013 92.29,74.411 C92.29,71.81 96.508,69.701 101.711,69.701 C106.914,69.701 111.133,71.81 111.133,74.411 C111.133,77.013 106.914,79.122 101.711,79.122 z" fill="#ABABAB"/>
    <path d="M120.564,93.535 C115.361,93.535 111.143,91.426 111.143,88.824 C111.143,86.222 115.361,84.113 120.564,84.113 C125.768,84.113 129.986,86.222 129.986,88.824 C129.986,91.426 125.768,93.535 120.564,93.535 z" fill="#ABABAB"/>
    <path d="M45.194,59.271 C39.99,59.271 35.772,57.162 35.772,54.56 C35.772,51.958 39.99,49.849 45.194,49.849 C50.397,49.849 54.615,51.958 54.615,54.56 C54.615,57.162 50.397,59.271 45.194,59.271 z" fill="#ABABAB"/>
    <path d="M120.564,59.271 C115.361,59.271 111.143,57.162 111.143,54.56 C111.143,51.958 115.361,49.849 120.564,49.849 C125.768,49.849 129.986,51.958 129.986,54.56 C129.986,57.162 125.768,59.271 120.564,59.271 z" fill="#ABABAB"/>
  </g>
</svg>
