<?xml version="1.0" encoding="UTF-8"?>
<!DOCTYPE svg PUBLIC "-//W3C//DTD SVG 1.1//EN" "http://www.w3.org/Graphics/SVG/1.1/DTD/svg11.dtd">
<svg version="1.1" xmlns="http://www.w3.org/2000/svg" xmlns:xlink="http://www.w3.org/1999/xlink" x="0" y="0" width="520.267" height="168" viewBox="0, 0, 520.267, 168">
  <g id="レイヤー_1">
    <text transform="matrix(1, 0, 0, 1, 376.487, 84)">
      <tspan x="-155.78" y="-18.5" font-family="Avenir-Black" font-size="44" fill="#45494F">COVID-19</tspan>
      <tspan x="-155.78" y="47.5" font-family="Avenir-Black" font-size="48" fill="#14B840">Yamaguchi</tspan>
    </text>
    <path d="M105.147,158.5 C63.173,158.5 29.147,125.145 29.147,84 C29.147,42.855 63.173,9.5 105.147,9.5 C147.12,9.5 181.147,42.855 181.147,84 C181.147,125.145 147.12,158.5 105.147,158.5 z" fill="#14B840"/>
    <path d="M20.207,96.642 L12,84 L20.207,71.358 L36.62,71.358 L44.826,84 L36.62,96.642 z" fill="#14B840"/>
    <path d="M105.146,71.358 C129.175,71.614 154.732,79.924 170.144,99.317 C173.498,103.538 173.975,104.837 176.562,109.529 C164.386,139.81 137.636,157.694 105.146,158.5 C78.969,158.359 54.007,145.002 40.149,122.631 C36.794,117.215 36.247,115.383 33.731,109.529 C47.421,83.192 76.768,71.905 105.146,71.358 z" fill="#FFFFFF"/>
    <path d="M73.647,54.5 C68.4,54.5 64.147,50.247 64.147,45 C64.147,39.753 68.4,35.5 73.647,35.5 C78.893,35.5 83.147,39.753 83.147,45 C83.147,50.247 78.893,54.5 73.647,54.5 z" fill="#FFFFFF"/>
    <path d="M136.647,54.5 C131.4,54.5 127.147,50.247 127.147,45 C127.147,39.753 131.4,35.5 136.647,35.5 C141.893,35.5 146.147,39.753 146.147,45 C146.147,50.247 141.893,54.5 136.647,54.5 z" fill="#FFFFFF"/>
    <path d="M105.147,61 C99.9,61 95.647,56.747 95.647,51.5 C95.647,46.253 99.9,42 105.147,42 C110.393,42 114.647,46.253 114.647,51.5 C114.647,56.747 110.393,61 105.147,61 z" fill="#646565"/>
    <path d="M73.647,52.5 C69.504,52.5 66.147,49.142 66.147,45 C66.147,40.858 69.504,37.5 73.647,37.5 C77.789,37.5 81.147,40.858 81.147,45 C81.147,49.142 77.789,52.5 73.647,52.5 z" fill="#646565"/>
    <path d="M136.647,52.5 C132.504,52.5 129.147,49.142 129.147,45 C129.147,40.858 132.504,37.5 136.647,37.5 C140.789,37.5 144.147,40.858 144.147,45 C144.147,49.142 140.789,52.5 136.647,52.5 z" fill="#646565"/>
    <path d="M105.147,54.5 C100.728,54.5 97.147,52.821 97.147,50.75 C97.147,48.679 100.728,47 105.147,47 C109.565,47 113.147,48.679 113.147,50.75 C113.147,52.821 109.565,54.5 105.147,54.5 z" fill="#4AC16A"/>
    <path d="M175.38,96.642 L167.174,84 L175.38,71.358 L191.793,71.358 L200,84 L191.793,96.642 z" fill="#14B840"/>
    <path d="M105.647,159.5 C63.769,159.5 29.82,125.921 29.82,84.5 C29.82,43.079 63.769,9.5 105.647,9.5 C147.524,9.5 181.473,43.079 181.473,84.5 C181.473,125.921 147.524,159.5 105.647,159.5 z" fill-opacity="0" stroke="#14B840" stroke-width="4"/>
    <path d="M56.826,115 C50.199,115 44.826,112.314 44.826,109 C44.826,105.686 50.199,103 56.826,103 C63.454,103 68.826,105.686 68.826,109 C68.826,112.314 63.454,115 56.826,115 z" fill="#ABABAB"/>
    <path d="M80.813,96.642 C74.185,96.642 68.813,93.956 68.813,90.642 C68.813,87.329 74.185,84.642 80.813,84.642 C87.44,84.642 92.813,87.329 92.813,90.642 C92.813,93.956 87.44,96.642 80.813,96.642 z" fill="#ABABAB"/>
    <path d="M128.813,96.642 C122.185,96.642 116.813,93.956 116.813,90.642 C116.813,87.329 122.185,84.642 128.813,84.642 C135.44,84.642 140.813,87.329 140.813,90.642 C140.813,93.956 135.44,96.642 128.813,96.642 z" fill="#ABABAB"/>
    <path d="M152.826,115 C146.199,115 140.826,112.314 140.826,109 C140.826,105.686 146.199,103 152.826,103 C159.454,103 164.826,105.686 164.826,109 C164.826,112.314 159.454,115 152.826,115 z" fill="#ABABAB"/>
    <path d="M56.826,71.358 C50.199,71.358 44.826,68.671 44.826,65.358 C44.826,62.044 50.199,59.358 56.826,59.358 C63.454,59.358 68.826,62.044 68.826,65.358 C68.826,68.671 63.454,71.358 56.826,71.358 z" fill="#ABABAB"/>
    <path d="M152.826,71.358 C146.199,71.358 140.826,68.671 140.826,65.358 C140.826,62.044 146.199,59.358 152.826,59.358 C159.454,59.358 164.826,62.044 164.826,65.358 C164.826,68.671 159.454,71.358 152.826,71.358 z" fill="#ABABAB"/>
  </g>
</svg>
