<svg xmlns:svg="http://www.w3.org/2000/svg" xmlns="http://www.w3.org/2000/svg" xmlns:xlink="http://www.w3.org/1999/xlink" version="1.1" id="svg2" height="315.85" width="318.74"><defs id="defs4"><linearGradient id="linearGradient4145"><stop id="stop4147" offset="0" style="stop-color:#302888;stop-opacity:1"/><stop id="stop4149" offset="1" style="stop-color:#20c0ff;stop-opacity:1"/></linearGradient><linearGradient gradientUnits="userSpaceOnUse" y2="3605.59" x2="3918.32" y1="3921.44" x1="3918.32" id="linearGradient4151" xlink:href="#linearGradient4145"/></defs><metadata id="metadata7"/><g transform="translate(-3758.953,-3605.5908)" id="layer1"><g id="g4137" fill="url(#linearGradient4151)"><path d="m4071.47 3623.48c-47.35 34.34-83.68 3.16-100.89-17.89l-62.09 38.03c44.79 45.78 114.42 51.16 162.97-20.14zM4040.75 3661.05 4040.75 3661.05 4040.75 3661.05 4040.75 3661.05c-63.2 58.74-126.11 29.81-159.16-0.97l-62.09 38.03c51.02 46.42 148.51 67.59 221.26-37.06zM4012.61 3883.93c-30.97-17.7-70.83-58.12-119.26-88.08-34.63-21.43-80.52-28.15-134.4 1.21 42.98-0.3 91.11 38.44 129.55 68.71 31.89 25.11 65.38 49.04 85.06 53.88 16.48 4.05 21.13 0.78 26.94-5.45 5.55-5.95 23.31-28.15 23.31-28.15 0 0-5.55 1.11-11.2-2.12zM3967.21 3745.9c-51.46-19.07-107.76 6.96-138.94 21.49 52.67-10.29 97.16 9.38 119.56 24.21 22.92 15.18 81.42 59.83 85.96 63.46 4.54 3.63 10.8 3.43 14.73-1.51l29.16-36.53c-12.62-13.52-60.72-52.69-110.48-71.13z" id="path4224" style="fill-opacity:1;fill:url(#linearGradient4151)"/></g></g></svg>