<svg id="レイヤー_2のコピー_4" data-name="レイヤー 2のコピー 4" xmlns="http://www.w3.org/2000/svg" viewBox="0 0 106.51 25.99">
  <g>
    <path d="M39.77,10.09A1.21,1.21,0,0,0,38.5,9c-1,0-1.54.77-1.54,2.09s.59,2.09,1.58,2.09a1.26,1.26,0,0,0,1.05-.5,1.33,1.33,0,0,0,.24-.69l1.66.25a3,3,0,0,1-.66,1.46,2.86,2.86,0,0,1-2.24.87,3.22,3.22,0,0,1-2.37-.88,3.68,3.68,0,0,1-.92-2.6,3.6,3.6,0,0,1,1-2.63,3.22,3.22,0,0,1,2.3-.83,2.8,2.8,0,0,1,2.36,1,2.52,2.52,0,0,1,.49,1.1Z" transform="translate(-1.77 -1.44)" style="fill: #424242"/>
    <path d="M48.51,11.06a3.19,3.19,0,0,1-3.23,3.51c-2,0-3.22-1.36-3.22-3.48a3.23,3.23,0,1,1,6.45,0Zm-1.66,0c0-1.3-.6-2.08-1.56-2.08s-1.58.79-1.58,2.08.6,2.11,1.58,2.11S46.85,12.39,46.85,11.08Z" transform="translate(-1.77 -1.44)" style="fill: #424242"/>
    <path d="M52.09,12.48c.07.21.07.21.16.55.09-.35.11-.4.15-.55l1.16-3.85a4.28,4.28,0,0,0,.18-.86h1.88c-.11.24-.18.42-.38,1l-1.7,4.82a7.77,7.77,0,0,0-.25.86H51.21a5.64,5.64,0,0,0-.26-.86l-1.7-4.82a9.92,9.92,0,0,0-.38-1h1.87a6.2,6.2,0,0,0,.2.86Z" transform="translate(-1.77 -1.44)" style="fill: #424242"/>
    <path d="M57.94,7.77A7,7,0,0,0,57.87,9v4.29a7.27,7.27,0,0,0,.07,1.18H56.18a8.94,8.94,0,0,0,.06-1.18V9a8.63,8.63,0,0,0-.06-1.18Z" transform="translate(-1.77 -1.44)" style="fill: #424242"/>
    <path d="M59,8.92a7.46,7.46,0,0,0-.07-1.17c.32,0,.52,0,1.18,0h1.67a3.2,3.2,0,0,1,2.31.79A3.34,3.34,0,0,1,65,11a3.56,3.56,0,0,1-.92,2.58,3.09,3.09,0,0,1-2.25.8H60.11c-.61,0-.84,0-1.17,0A9.09,9.09,0,0,0,59,13.28ZM61.66,13a1.54,1.54,0,0,0,1.17-.42,2.16,2.16,0,0,0,.5-1.54,2,2,0,0,0-.46-1.48,1.63,1.63,0,0,0-1.24-.41H60.58V13Z" transform="translate(-1.77 -1.44)" style="fill: #424242"/>
    <path d="M66.09,11.13a4.6,4.6,0,0,0,.77,0h1.59a4.6,4.6,0,0,0,.77,0v1.52a4.72,4.72,0,0,0-.77-.06H66.86a4.72,4.72,0,0,0-.77.06Z" transform="translate(-1.77 -1.44)" style="fill: #424242"/>
    <path d="M69.9,7.71a4.85,4.85,0,0,0,.95.06h1a8.4,8.4,0,0,0,1,0,12.43,12.43,0,0,0,0,1.28v4.19a9,9,0,0,0,.06,1.21H71.13a10.86,10.86,0,0,0,.06-1.21V9.14h-.32a8.3,8.3,0,0,0-1,0Z" transform="translate(-1.77 -1.44)" style="fill: #424242"/>
    <path d="M75.4,12.65a.89.89,0,0,0,.19.34,1,1,0,0,0,.75.3,1.15,1.15,0,0,0,1-.56,2.52,2.52,0,0,0,.27-1.09,2.08,2.08,0,0,1-1.59.57A2.16,2.16,0,0,1,73.67,10a2.41,2.41,0,0,1,2.67-2.38A2.58,2.58,0,0,1,78.65,8.8a4.21,4.21,0,0,1,.5,2.16,5.14,5.14,0,0,1-.46,2.24,2.37,2.37,0,0,1-1.36,1.21,3.43,3.43,0,0,1-1.07.17A2.69,2.69,0,0,1,74.42,14a2.34,2.34,0,0,1-.62-1Zm2.08-2.73a1.13,1.13,0,0,0-2.25,0,1,1,0,0,0,1.09,1A1,1,0,0,0,77.48,9.92Z" transform="translate(-1.77 -1.44)" style="fill: #424242"/>
  </g>
  <g>
    <path d="M42.45,25.19a16.33,16.33,0,0,0,1.06,1.48h-2.6a12,12,0,0,0-.69-1.27l-1.55-2.47-1,1v1.26a11.3,11.3,0,0,0,.08,1.48H35.62a11.3,11.3,0,0,0,.08-1.48V19.84a10.91,10.91,0,0,0-.08-1.48h2.12a11.1,11.1,0,0,0-.08,1.48v1.77l2-2.13a6.1,6.1,0,0,0,.87-1.12h2.7l-.39.4-.7.7L40,21.65Z" transform="translate(-1.77 -1.44)" style="fill: #e5752b"/>
    <path d="M49.89,26.67a8.12,8.12,0,0,0-.24-1.08l-.27-.85H46.53l-.27.85A5.76,5.76,0,0,0,46,26.67H43.67a9.85,9.85,0,0,0,.48-1.22l2.16-6a6.1,6.1,0,0,0,.32-1.08h2.61a8,8,0,0,0,.34,1.08l2.17,6c.19.53.35.94.48,1.22Zm-2-6.6-.93,3h1.88Z" transform="translate(-1.77 -1.44)" style="fill: #e5752b"/>
    <path d="M57.77,23.63a8,8,0,0,0-1,.05V21.92a8.52,8.52,0,0,0,1.31.06h.8c.51,0,.88,0,1.32-.05a9.49,9.49,0,0,0-.07,1.36V24.4a10.2,10.2,0,0,0,.07,1.49,5,5,0,0,1-1.27.63,6.68,6.68,0,0,1-2.12.34,4,4,0,0,1-3-1.07,4.64,4.64,0,0,1-1.18-3.31c0-2.63,1.59-4.3,4.11-4.3a3.48,3.48,0,0,1,2.86,1.19,2.91,2.91,0,0,1,.59,1.09l-2,.47a1.27,1.27,0,0,0-.45-.72,1.54,1.54,0,0,0-1-.31c-1.28,0-2,.93-2,2.61a3.06,3.06,0,0,0,.61,2.08,1.88,1.88,0,0,0,1.44.54,3,3,0,0,0,1.45-.36V23.63Z" transform="translate(-1.77 -1.44)" style="fill: #e5752b"/>
    <path d="M69.15,22.48c0,2.63-1.61,4.38-4,4.38s-4-1.71-4-4.35,1.58-4.33,4-4.33S69.15,19.86,69.15,22.48Zm-2.08,0c0-1.62-.74-2.6-1.95-2.6s-2,1-2,2.6.75,2.63,2,2.63S67.07,24.13,67.07,22.5Z" transform="translate(-1.77 -1.44)" style="fill: #e5752b"/>
    <path d="M72,24a1.32,1.32,0,0,0,.26.74,1.46,1.46,0,0,0,1.17.47c.77,0,1.23-.34,1.23-.9a.74.74,0,0,0-.42-.69,8.07,8.07,0,0,0-1.5-.41,3.88,3.88,0,0,1-1.61-.58,2.25,2.25,0,0,1-1-1.92c0-1.54,1.24-2.51,3.21-2.51a3.26,3.26,0,0,1,2.78,1.14,2.78,2.78,0,0,1,.5,1.2l-2.12.23c-.12-.65-.48-.92-1.24-.92-.61,0-1.06.33-1.06.79a.69.69,0,0,0,.47.64,6,6,0,0,0,1.38.33,4.81,4.81,0,0,1,1.62.57,2.22,2.22,0,0,1,1.08,2,2.5,2.5,0,0,1-.7,1.84,3.66,3.66,0,0,1-2.63.85,4.75,4.75,0,0,1-2.23-.49,2.36,2.36,0,0,1-1.08-1.28,3.74,3.74,0,0,1-.22-.92Z" transform="translate(-1.77 -1.44)" style="fill: #e5752b"/>
    <path d="M85.3,18.36a9.5,9.5,0,0,0-.08,1.48v5.35a10.63,10.63,0,0,0,.08,1.48H83.15a9.67,9.67,0,0,0,.08-1.48V23.25H79.86v1.94a10.27,10.27,0,0,0,.08,1.48H77.79a9.5,9.5,0,0,0,.08-1.48V19.84a9.75,9.75,0,0,0-.08-1.48h2.15a10.72,10.72,0,0,0-.08,1.48V21.5h3.37V19.84a9.42,9.42,0,0,0-.08-1.48Z" transform="translate(-1.77 -1.44)" style="fill: #e5752b"/>
    <path d="M88.75,18.36a9.26,9.26,0,0,0-.08,1.48v5.35a9.67,9.67,0,0,0,.08,1.48h-2.2a9.58,9.58,0,0,0,.08-1.48V19.84a9.34,9.34,0,0,0-.08-1.48Z" transform="translate(-1.77 -1.44)" style="fill: #e5752b"/>
    <path d="M93.63,26.67a7.79,7.79,0,0,0-.43-1.48l-.92-2.65c0-.05-.31-1-.34-1.06-.11-.36-.11-.36-.16-.5.06.63.1,1.45.1,2v2.16A10.71,10.71,0,0,0,92,26.67H90a11.07,11.07,0,0,0,.08-1.55v-5.2A13.79,13.79,0,0,0,90,18.36h2.64A7.39,7.39,0,0,0,93,19.77l1.5,4.31L96,19.77a6.88,6.88,0,0,0,.37-1.41H99a13.53,13.53,0,0,0-.08,1.56v5.2A11.39,11.39,0,0,0,99,26.67h-2a10.89,10.89,0,0,0,.08-1.55V23c0-.24,0-1,.05-1.3,0-.53,0-.53,0-.68-.22.78-.32,1.14-.45,1.5l-1,2.73a9.08,9.08,0,0,0-.43,1.47Z" transform="translate(-1.77 -1.44)" style="fill: #e5752b"/>
    <path d="M105.94,26.67a8.12,8.12,0,0,0-.24-1.08l-.27-.85h-2.85l-.27.85a5.76,5.76,0,0,0-.25,1.08H99.72a9.85,9.85,0,0,0,.48-1.22l2.16-6a6.1,6.1,0,0,0,.32-1.08h2.61a8,8,0,0,0,.34,1.08l2.17,6c.19.53.35.94.48,1.22Zm-2-6.6-.93,3h1.88Z" transform="translate(-1.77 -1.44)" style="fill: #e5752b"/>
  </g>
  <g>
    <polygon points="23.6 13.34 22.62 11.02 7.5 11.02 1.62 24.92 1.66 24.92 28.5 24.92 23.6 13.34" style="fill: #e5752b;stroke: #e5752b;stroke-miterlimit: 10;stroke-width: 2.14497238219076px"/>
    <g>
      <polygon points="23.6 13.34 1.66 24.92 28.5 24.92 23.6 13.34" style="fill: #fff"/>
      <polygon points="22.62 11.02 7.5 11.02 1.62 24.92 1.66 24.92 23.6 13.34 22.62 11.02" style="fill: #e5752b"/>
    </g>
  </g>
  <ellipse cx="24.61" cy="5.42" rx="1.32" ry="1.39" style="fill: #e5752b"/>
  <ellipse cx="21.15" cy="7.85" rx="0.88" ry="0.92" style="fill: #e5752b"/>
  <g>
    <g>
      <g>
        <ellipse cx="17.87" cy="19.89" rx="0.89" ry="0.83" style="fill: #e5752b"/>
        <line x1="18.4" y1="19.89" x2="20.77" y2="19.89" style="fill: none;stroke: #e5752b;stroke-linecap: round;stroke-miterlimit: 10;stroke-width: 0.469799820386771px"/>
      </g>
      <g>
        <ellipse cx="24.74" cy="19.89" rx="0.89" ry="0.83" style="fill: #e5752b"/>
        <line x1="24.22" y1="19.89" x2="21.85" y2="19.89" style="fill: none;stroke: #e5752b;stroke-linecap: round;stroke-miterlimit: 10;stroke-width: 0.469799820386771px"/>
      </g>
    </g>
    <g>
      <g>
        <ellipse cx="21.31" cy="23.09" rx="0.89" ry="0.83" style="fill: #e5752b"/>
        <line x1="21.31" y1="22.6" x2="21.31" y2="20.39" style="fill: none;stroke: #e5752b;stroke-linecap: round;stroke-miterlimit: 10;stroke-width: 0.469799820386771px"/>
      </g>
      <g>
        <ellipse cx="21.31" cy="16.69" rx="0.89" ry="0.83" style="fill: #e5752b"/>
        <line x1="21.31" y1="17.18" x2="21.31" y2="19.39" style="fill: none;stroke: #e5752b;stroke-linecap: round;stroke-miterlimit: 10;stroke-width: 0.469799820386771px"/>
      </g>
    </g>
    <ellipse cx="21.31" cy="19.89" rx="1.6" ry="1.5" style="fill: none;stroke: #e5752b;stroke-miterlimit: 10;stroke-width: 0.939599640773542px"/>
  </g>
  <circle cx="29.62" cy="2.86" r="2.39" style="fill: #fff"/>
  <circle cx="29.62" cy="2.86" r="2.39" style="fill: none;stroke: #e5752b;stroke-miterlimit: 10;stroke-width: 0.939202680910205px"/>
</svg>
