<?xml version="1.0" encoding="utf-8"?>
<!-- Generator: Adobe Illustrator 16.0.3, SVG Export Plug-In . SVG Version: 6.00 Build 0)  -->
<!DOCTYPE svg PUBLIC "-//W3C//DTD SVG 1.1//EN" "http://www.w3.org/Graphics/SVG/1.1/DTD/svg11.dtd">
<svg version="1.1" id="レイヤー_1" xmlns="http://www.w3.org/2000/svg" xmlns:xlink="http://www.w3.org/1999/xlink" x="0px"
	 y="0px" width="765.354px" height="765.354px" viewBox="0 0 765.354 765.354" enable-background="new 0 0 765.354 765.354"
	 xml:space="preserve">
<g>
	<defs>
		<rect id="SVGID_1_" x="-228.322" y="-86.323" width="1280" height="1024"/>
	</defs>
	<clipPath id="SVGID_2_">
		<use xlink:href="#SVGID_1_"  overflow="visible"/>
	</clipPath>
	<g clip-path="url(#SVGID_2_)">
		<defs>
			<rect id="SVGID_3_" x="-228.322" y="-86.323" width="1280" height="1024"/>
		</defs>
		<clipPath id="SVGID_4_">
			<use xlink:href="#SVGID_3_"  overflow="visible"/>
		</clipPath>
		<g opacity="0.4" clip-path="url(#SVGID_4_)">
			<g>
				<defs>
					<rect id="SVGID_5_" x="160.55" y="105.662" width="462.678" height="640.349"/>
				</defs>
				<clipPath id="SVGID_6_">
					<use xlink:href="#SVGID_5_"  overflow="visible"/>
				</clipPath>
				<path clip-path="url(#SVGID_6_)" fill-rule="evenodd" clip-rule="evenodd" fill="#4D4D4D" d="M262.776,198.739
					c0,0-2.04-4.264,0-12.011c2.041-7.747,24.022-18.017,24.022-18.017s11.173,22.345,18.016,18.017
					c6.844-4.329,9.19-12.31,12.011-18.017c2.821-5.706,0-12.01,0-12.01l12.011-18.017c0,0-2.222-2.04,0-6.005
					c2.223-3.965-2.164-7.507,12.011-12.011c14.172-4.504,19.037,4.504,24.022,0c4.985-4.504,8.768-8.105,12.01-12.011
					c3.243-3.906,19.697-4.082,24.022,0c4.325,4.082,15.674,11.354,18.017,6.006c2.343-5.349,3.965-2.64,6.006,0
					c2.04,2.639,4.264,18.016,6.005,24.021c1.742,6.006,6.305,10.569,12.012,18.017c5.706,7.447,3.483,18.315,12.011,18.016
					c8.526-0.299,12.011,6.005,12.011,6.005s-0.123,8.956-1.673,13.36c-1.16,3.302,2.139,5.519-11.013,4.862
					c-13.151-0.657-16.999-2.146-20.963,0.616c-3.965,2.762-6.407,12.75-14.396,17.195c-7.987,4.445-13.354,8.251-13.894,13.237
					c-0.539,4.985,3.563,7.542,1.883,10.785c-1.681,3.243-7.594,8.213-6.286,13.243c0.856,3.299,4.016,7.766,5.756,10.112
					c1.742,2.346,1.953,24.09,0.53,30.694c-0.516,2.398-20.387-1.728-25.43-7.674c-5.043-5.946-5.869-7.53-10.603-4.337
					c-3.923,2.646-18.497,2.281-24.022,12.011c-5.524,9.729-17.243,30.301-18.369,27.696c-1.7-3.93-5.653-15.686-5.653-15.686
					s-7.688-14.356-6.005-18.016c1.684-3.659-6.005-6.005-6.005-6.005l-8.965-5.124c0,0,7.865-11.617,9.847-14.139
					s6.325-11.128,11.128-10.764c4.804,0.363,3.946-1.76,12.714-7.941c8.768-6.181,10.548-5.265,11.87-13.135
					c1.322-7.87-6.567-14.957-6.567-14.957s-7.387-4.445-12.011,0c-4.624,4.445-9.264,12.011-12.011,12.011
					c-3.753,0-12.011-12.011-12.011-12.011l-6.005-6.005c0,0-6.479-7.044-9.57-5.629c-2.625,1.202-14.103,9.855-14.103,9.855
					l-6.354,1.779c0,0-8.046-2.762-6.006-6.005C264.817,207.506,262.776,198.739,262.776,198.739 M490.983,180.723h-24.021
					l-2.018,16.116l-3.989,1.901c0,0-21.243-0.78-25.141-0.611c-3.802,0.166-4.55,5.851-10.451,12.727
					c-8.932,10.408-0.977,1.237-14.693,11.213c-10.678,7.765-3.155,15.061-3.155,15.061s-6.109,8.505-6.958,14.166
					c-0.898,5.983,6.351,13.503,6.351,13.503v18.017v12.011c0,0,7.729,13.92,12.011,18.016c3.409,3.262,23.071-10.876,24.743-14.521
					c1.26-2.746-6.727-3.495-6.727-3.495c0.078,0.361-5.09-15.259-5.929-24.999c-0.743-8.633,6.624,1.605,6.624,1.605
					s15.679-1.285,19.679-0.323c2.788,0.668,5.969,12.169,11.059,19.584c8.028,11.695,4.171,13.954,4.6,28.154
					c0.428,14.185,6.757,10.006,12.011,24.022c4.642,12.381,3.604,8.469,6.006,12.011c2.401,3.542,12.756,6.561,12.756,6.561
					s11.087-10.103,11.266-12.566c0.18-2.464,6.155,9.964,7.792,12.169c4.022,5.419,1.618,7.54,8.114,5.422
					c9.489-3.096,34.578-5.431,34.578-5.431s10.075-7.232,14.071-11.562c2.119-2.296,4.918,4.122,7.501,7.665
					c2.583,3.542,5.321,5.278,13.858,2.932c4.542-1.247,6.39-3.031,10.172-5.19c3.783-2.158,13.334-14.955,12.012-18.016
					c-1.323-3.062-2.104-3.783-6.006-6.006c-3.903-2.222-7.507-10.333-12.011-18.016c-4.505-7.683,2.223-7.143,0-18.016
					c-2.223-10.873-4.624-2.827-12.011-6.006c-7.387-3.178-6.305-4.803-6.006-12.01c0.299-7.208,12.251-15.671,12.01-18.017
					c-0.239-2.346-6.605-7.929-12.01-12.011c-5.405-4.082-3.724,8.646-6.005,12.011c-2.282,3.366-9.129,2.346-12.012,0
					c-2.882-2.346-6.005-6.005-6.005-6.005l-18.017,6.005c0,0-13.093-3.366-18.017-6.005c-4.923-2.64,7.208-17.9,12.012-18.016
					c4.803-0.118,6.005-6.006,6.005-6.006s8.647-1.865,18.017-6.006c9.369-4.14,2.041-14.11,0-18.016
					c-2.041-3.906,0.9-13.213,0-18.016c-0.9-4.803-4.804-14.592-6.006-18.017c-1.202-3.424-13.632-10.269-18.016-12.01
					c-4.385-1.742-11.65,13.149-12.012,18.016c-0.36,4.868-24.021,12.011-24.021,12.011L490.983,180.723z M200.986,255.045
					c0,0,7.455,12.761,16.188,16.602c4.292,1.889,14.812,4.472,14.812,4.472s4.554,8.033,6.768,12.701
					c2.1,4.428,4.024,9.566,12.012,18.016c7.263,7.683,4.143,6.346,13.512,5.501c9.369-0.844,16.514,6.51,16.514,6.51
					s2.282-4.023,0-12.011c-2.281-7.987-7.987-9.125-12.01-12.01c-4.023-2.886,0.601-3.965,0-12.011
					c-0.601-8.046,5.167,0.059,12.01-6.005c6.844-6.065,6.006-6.006,6.006-6.006s4.965,4.234,9.228,5.079
					c4.264,0.844,3.554,2.815,7.278,1.372c3.724-1.442,4.466-6.967,4.466-6.967s2.859-5.05,7.023-11.272
					c4.284-6.398,12.363-4.013,17.465-10.896c4.932-6.655,13.441-7.632,14.594-13.348c1.212-6.006,1.659-6.878-1.575-12.438
					c-3.379-5.806-7.062-8.716-12.602-7.456c-5.539,1.26-12.935,14.65-15.85,13.888c-3.14-0.821-8.358-7.151-12.011-12.011
					c-3.559-4.736-11.03-11.381-14.011-11.753c-2.981-0.372-7.183,4.105-7.183,4.105s-8.603,7.457-13.894,7.558
					c-4.235,0.082-7.856-4.666-7.856-4.666s-6.178,0.076-11.104,4.756c-4.927,4.68-4.206-2.404-6.006-6.005
					c-1.801-3.602-8.469-14.651-6.006-18.017c2.464-3.366-11.588-3.483-12.01-6.005c-0.422-2.522-9.847,9.371-18.017,18.016
					c-8.169,8.645,2.512,8.009,0,12.011c-1.471,2.344,7.026,9.008,6.006,18.017c-1.021,9.007-8.108,5.829-12.011,6.005
					C198.819,240.954,200.986,255.045,200.986,255.045 M280.792,324.854c-2.281-3.66,0.294-6.686,0.294-6.686
					s-8.61-4.628-11.493-5.473c-2.882-0.844-12.822,0.148-12.822,0.148s-10.877-11.527-15.59-18.968
					c-4.287-6.766-6.031-14.425-8.432-17.064c-2.401-2.64-6.164-1.913-6.164-1.913l-11.388-3.933c0,0-5.37-3.453-10.413-10.362
					s-2.062-19.825-2.062-19.825l-18.017-6.005l-12.01-6.006c0,0-6.065,15.254-6.006,18.016c0.059,2.762-4.624,15.495-6.005,18.016
					c-1.381,2.522,8.228,8.892,12.011,12.012c3.782,3.119,6.005,0,6.005,0s7.387,4.926,12.011,6.005s12.011,6.005,12.011,6.005
					s2.762,5.466,12.011,6.006c9.248,0.539,12.011,12.01,12.011,12.01s8.406,7.988,6.005,12.011
					c-2.401,4.024,6.968,6.246,12.011,18.017c5.043,11.77-8.469,8.768-12.011,12.011s-11.29-2.1-12.011-6.006
					c-0.721-3.906-8.407-2.944-6.005-6.005c2.401-3.062-4.686-7.208-12.011-18.017c-7.325-10.808-2.944-9.729-6.006-12.011
					c-3.061-2.281-12.011-12.01-12.011-12.01v12.01c0,0-8.888,17.114-12.01,18.017c-3.123,0.903,13.392,12.791,18.016,18.016
					c4.624,5.226,12.492,9.607,18.016,18.016c5.524,8.41,0.182,16.691,0,24.021c-0.182,7.331-6.668,12.07-6.005,24.022
					s15.313-11.952,18.016-12.011c2.704-0.06,16.697-20.479,18.016-24.021c1.32-3.542,6.669-3.302,18.017-6.006
					s9.19-9.852,12.011-12.011c2.82-2.158,6.005,6.005,6.005,6.005s4.865,10.991,6.005,18.017c1.141,7.025-7.987,4.387-12.01,12.011
					c-4.023,7.625,18.016,6.006,18.016,6.006s24.86-12.492,30.027-18.017c5.167-5.524,3.965-16.152,0-18.017
					c-3.965-1.864-4.023-7.266-12.011-12.01c-7.987-4.745-26.303-7.806-30.027-6.006
					C271.063,344.669,283.075,328.514,280.792,324.854 M340.848,456.973c0,0,1.202,11.531-6.006,18.017
					c-7.207,6.486-16.274,4.985-18.016,12.011c-1.742,7.026-6.005,18.017-6.005,18.017c14.149,1.73,13.33,2.275,24.021,0
					c8.768-1.865,12.43-3.302,18.017-6.006c5.586-2.703,8.742,3.941,12.011,6.006c1.791,1.132-2.507,0.284,12.01,6.005
					c9.487,3.739,20.656,11.425,29.303,5.536c8.646-5.888,9.726-13.271,18.756-13.271c11.299,0,13.639,0.425,19.094-5.632
					c9.232-10.25,12.391-13.23,11.77-18.156c-0.505-4.005-3.341-10.432-3.64-14.76s-2.182-8.962-5.05-20.45
					c-1.854-7.431-6.512-13.267-9.753-18.011c-2.284-3.349-6.431-11.342-6.431-11.342l14.979-14.399c0,0,5.845-5.929,12.933-13.26
					c7.087-7.331,7.04-10.579,9.902-15.682c3.092-5.512,10.23-16.714,10.23-16.714l6.005-12.011l-6.005-12.011
					c0,0-6.786-9.125-6.006-12.011c0.779-2.885,0.361-10.333,0-18.016c-0.36-7.683-2.521-6.064-6.005-12.011
					c-3.484-5.946-6.591-17.438-12.011-18.016c-11.012-1.176-16.58,2.575-18.017,0c-3.558-6.376-5.636-5.476-5.931-2.747
					c-0.716,6.609,5.931,26.769,5.931,26.769s11.38,0.279,5.285,5.338c-6.682,5.546-8.192,8.058-15.285,10.939
					c-3.614,1.467-5.431,3.374-6.798,2.205c-8.407-7.196-10.406-17.943-13.229-18.482c-2.823-0.54-8.306,0.477-15.618-2.111
					c-7.054-2.497-3.521-0.389-8.01-3.927c-4.201-3.313-4.044-10.285-8.552-8.15c-5.315,2.521-10.577,4.491-15.594,5.628
					c-3.756,0.851-10.818,4.332-12.921,9.493c-2.102,5.161-2.342,1.196-9.473,13.828c-7.768,13.765-8.255,12.339-7.768,13.765
					c2.607,7.623,5.692,12.186,11.876,19.517c6.184,7.331,6.424,8.709,12.011,12.011c5.586,3.302,8.709,5.889,6.005,12.011
					c-2.703,6.122-1.322,13.934-6.005,18.016c-4.683,4.082-30.028,18.016-30.028,18.016s23.301,5.947,30.028,0
					c6.726-5.945,19.036-15.793,18.016-12.01c-1.02,3.782-1.862,7.625-6.005,12.01c-4.143,4.389-11.891,7.086-12.011,12.013
					c-0.12,4.926-3.903,12.854-6.006,18.016C344.75,438.112,340.848,456.973,340.848,456.973 M298.81,450.968
					c0,0,15.133-3.725,18.016-6.006c2.883-2.281,12.011-12.011,12.011-12.011V420.94H310.82c0,0-6.006,1.202-12.011,6.006
					c-6.005,4.803-6.005,12.011-6.005,12.011L298.81,450.968z M244.761,462.979c0,0-3.903,15.072-6.006,18.017
					c-2.102,2.943,6.006,12.011,6.006,12.011s13.213-5.83,18.016-12.011c4.804-6.182,8.888-12.07,12.011-12.012
					c3.123,0.061,6.005-12.011,6.005-12.011s4.563-12.011,6.006-18.016c1.443-6.006-3.724-13.396-6.006-18.017
					c-2.281-4.621-3.424-7.929-6.005-6.005c-2.581,1.923-6.005,0-6.005,0s-9.672,4.926-18.016,12.011
					c-8.346,7.084-6.006,18.016-6.006,18.016V462.979z M521.011,535.045c1.621-8.106,7.507-9.01,6.005-18.018
					c-1.501-9.008,10.688-23.001,12.012-36.032c1.322-13.031,5.524-15.495,6.005-24.022c0.481-8.526,14.354-27.986,18.017-30.026
					c3.663-2.041-2.521-12.792,0-12.011c2.521,0.778,10.028-14.476,12.011-18.017c1.981-3.543,8.287-11.354,12.011-12.012
					c3.725-0.656,14.685-23.146,19.207-26.716c2.609-2.06-7.197,2.694-13.201,2.694c-3.91,0-10.871-10.685-12.011-12.01
					c-1.141-1.326-12.551,12.732-18.017,12.01c-5.467-0.721-36.183,6.511-36.183,6.511l-11.861-18.521c0,0-6.771,8.715-9.507,11.007
					c-3.291,2.757-5.397-1.43-8.4-1.008s-12.12-16.005-12.12-16.005l-6.005,12.011c0,0-3.854,5.551-7.165,11.509
					c-1.325,2.387-9.02,16.014-10.853,18.518c-1.637,2.238-14.593,15.553-18.015,18.016c-3.423,2.465-12.012,12.013-12.012,12.013
					s9.734,16.825,11.342,18.552c1.729,1.858,9.798,33.15,12.681,41.502c2.881,8.352-6.305,16.755-12.011,24.021
					c-5.707,7.267-19.399,1.865-24.022,6.006c-4.625,4.141-14.603,13.242-14.603,13.242l-15.881-2.127l-11.555-5.11l8.921,12.557
					c0,0-0.036,4.994,4.148,13.704c4.092,8.516,22.964,27.789,22.964,27.789l-6.006,18.016l16.381-0.793
					c0,0,10.386,5.673,13.208,10.834c2.825,5.161,1.521,6.58,1.521,6.58l28.945,13.406c0,0-0.12,23.6,0,30.027
					c0.252,13.512,0.065,17.028,0.065,17.028s21.554,10.841,29.962,6.993c8.406-3.847,4.143-9.853,6.005-18.016
					c1.862-8.164,1.561-14.715,0-18.017c-1.56-3.302,4.985-8.105,12.011-12.011c7.026-3.906,0-30.027,0-30.027
					S519.39,543.148,521.011,535.045 M298.81,697.19c0,0,25.403-3.366,30.027-6.005c4.624-2.64,6.005,12.011,6.005,12.011
					s3.062,10.028,6.006,12.011c2.944,1.982,19.879-1.982,24.022-6.006c4.143-4.022-0.722-9.665,0-12.011
					c0.721-2.346-7.566-5.643-12.011-6.005c-4.445-0.364,1.02-11.049-6.006-18.016c-7.025-6.969,1.323-9.01,0-12.012
					c-1.322-3.003-3.243-9.548-6.005-18.017c-2.763-8.469,6.005-6.006,6.005-6.006s7.026-8.409,6.006-12.011
					c-1.021-3.601,6.005-30.027,6.005-30.027l12.011-6.005c0,0,9.248,4.264,12.011,12.011c2.762,7.747,12.011,6.006,12.011,6.006
					l-6.005,12.011c0,0-1.921,7.331-6.006,6.005c-4.085-1.325-6.006-6.005-6.006-6.005h-7.365c0,0-7.323-4.232-10.651,0
					c-4.082,5.192-4.082,15.159,0,18.016c4.083,2.857,24.022,0,24.022,0s-1.621,11.049,0,18.017
					c1.62,6.968,6.006,12.011,6.006,12.011v24.022c0,0-5.347,15.189-6.006,18.016c-0.601,2.581-6.184,12.311-6.184,12.311
					s0.058-0.123,0.178-0.3c1.323-2.281-14.576,22.644-12.01,24.022c3.254,1.747,12.01,0,12.01,0l12.012-12.012l12.01-6.005
					c0,0,4.325,5.407,12.012,0c7.686-5.407,10.628-10.568,18.016-18.017c7.387-7.447,6.305-6.245,12.012-6.005
					c5.706,0.24,6.005,0,6.005,0s1.501-20.269,0-24.022c-0.921-2.305-12.011-6.004-12.011-6.004s0.299-9.01,0-12.012
					c-0.299-3.003,8.287-6.123,12.011-6.006c3.723,0.117,20.09,6.991,19.177,4.492c-1.911-5.243-1.16-22.509-1.16-22.509v-24.021
					l-11.688-5.413c0,0-1.05-0.041-9.355-4.334c-4.485-2.316-6.921-2.985-9.422-10.239c-1.321-3.83-8.544-7.172-11.572-10.041
					c-2.895-2.741-18.017,0-18.017,0l6.006-18.016c0,0-8.407-8.586-13.069-14.279c-4.82-5.886-7.17-7.644-10.952-15.747
					c-3.783-8.106-0.854-8.358-4.003-13.015c-5.531-8.182-8.009-11.009-8.009-11.009s-11.594-4.504-18.016-12.011
					c-2.733-3.196-14.348,3.49-14.348,3.49l-18.682,3.987l-15.013-1.472c0,0-8.287,0.422-12.011,0s-12.31,3.847-18.017,6.005
					c-5.706,2.159-12.01,0-12.01,0l6.005,12.012v12.012c0,0,3.724,3.542,6.005,6.004c2.282,2.464,1.141,13.513,0,18.017
					c-1.14,4.504-12.01,12.011-12.01,12.011s7.447,9.729,12.01,12.011s12.613,9.126,12.012,12.011
					c-0.602,2.886,12.01,15.377,12.01,18.017s1.141,11.049,0,18.017c-1.14,6.968-7.987,4.445-12.01,12.011
					c-4.024,7.565,0,18.017,0,18.017l-24.022-6.006c-8.586-2.158-6.006,6.006-6.006,6.006s10.683,9.794,12.011,12.012
					c2.252,3.752,4.179,22.654,6.005,24.021C282.795,698.691,298.81,697.19,298.81,697.19"/>
			</g>
		</g>
	</g>
	<g clip-path="url(#SVGID_2_)">
		<defs>
			<rect id="SVGID_7_" x="-228.322" y="-86.323" width="1280" height="1024"/>
		</defs>
		<clipPath id="SVGID_8_">
			<use xlink:href="#SVGID_7_"  overflow="visible"/>
		</clipPath>
		<g opacity="0.4" clip-path="url(#SVGID_8_)">
			<g>
				<defs>
					<rect id="SVGID_9_" x="261.87" y="105.662" width="205.092" height="217.087"/>
				</defs>
				<clipPath id="SVGID_10_">
					<use xlink:href="#SVGID_9_"  overflow="visible"/>
				</clipPath>
				<path clip-path="url(#SVGID_10_)" fill-rule="evenodd" clip-rule="evenodd" fill="#4D4D4D" d="M262.777,198.739
					c0,0-2.041-4.264,0-12.011c2.041-7.747,24.021-18.016,24.021-18.016s11.173,22.344,18.017,18.016
					c6.844-4.328,9.19-12.31,12.011-18.016c2.821-5.707,0-12.011,0-12.011l12.011-18.017c0,0-2.223-2.04,0-6.005
					c2.222-3.965-2.164-7.507,12.011-12.011c14.172-4.504,19.036,4.504,24.021,0c4.986-4.504,8.768-8.105,12.011-12.011
					c3.243-3.906,19.696-4.082,24.022,0c4.324,4.082,15.673,11.354,18.016,6.006c2.343-5.349,3.965-2.64,6.006,0
					c2.04,2.639,4.264,18.016,6.005,24.021c1.742,6.006,6.305,10.569,12.012,18.017c5.706,7.448,3.483,18.315,12.011,18.016
					c8.526-0.299,12.011,6.005,12.011,6.005s-0.123,8.956-1.672,13.36c-1.161,3.302,2.138,5.52-11.014,4.862s-17-2.146-20.963,0.616
					c-3.965,2.762-6.407,12.75-14.396,17.195s-13.354,8.252-13.893,13.237c-0.541,4.985,3.563,7.542,1.881,10.785
					c-1.68,3.243-7.592,8.213-6.287,13.243c0.858,3.3,4.017,7.766,5.759,10.112c1.741,2.346,1.952,24.09,0.528,30.694
					c-0.515,2.398-20.385-1.728-25.429-7.674c-5.044-5.946-5.869-7.53-10.603-4.337c-3.924,2.646-18.497,2.281-24.022,12.011
					c-5.524,9.729-17.243,30.301-18.369,27.696c-1.7-3.929-5.653-15.685-5.653-15.685s-7.688-14.357-6.005-18.016
					c1.683-3.66-6.006-6.006-6.006-6.006l-8.964-5.124c0,0,7.864-11.617,9.847-14.139c1.982-2.521,6.325-11.127,11.128-10.764
					c4.803,0.363,3.946-1.76,12.714-7.941s10.547-5.265,11.87-13.135c1.322-7.87-6.567-14.957-6.567-14.957s-7.387-4.445-12.011,0
					s-9.264,12.011-12.011,12.011c-3.753,0-12.011-12.011-12.011-12.011l-6.005-6.005c0,0-6.48-7.044-9.571-5.629
					c-2.624,1.202-14.102,9.855-14.102,9.855l-6.355,1.779c0,0-8.046-2.762-6.005-6.005
					C264.818,207.507,262.777,198.739,262.777,198.739"/>
			</g>
		</g>
	</g>
	<g clip-path="url(#SVGID_2_)">
		<defs>
			<rect id="SVGID_11_" x="-228.322" y="-86.323" width="1280" height="1024"/>
		</defs>
		<clipPath id="SVGID_12_">
			<use xlink:href="#SVGID_11_"  overflow="visible"/>
		</clipPath>
		<path clip-path="url(#SVGID_12_)" fill="#231815" d="M117.349,446.458c0.18-10.71,0.09-43.107,0.359-52.559
			c0.181-7.199,4.861-10.979,12.15-11.338c1.62-0.09,6.66-0.18,11.519-0.18c4.951,0,9.81,0.09,11.16,0.18
			c3.42,0.179,5.04,2.429,5.04,4.769c0,2.431-1.89,4.86-5.31,4.86c0,0-7.829-0.09-13.77-0.09c-8.639,0-10.709,0.18-10.979,4.049
			c-0.18,2.16-0.09,6.75-0.18,11.97c0,1.801,0.09,1.801,10.619,1.801c3.871,0,7.83,0,9.451-0.091c5.04-0.27,5.04,4.5,5.04,4.771
			c0,2.608-1.62,5.129-4.771,5.129h-0.45c-2.249-0.181-5.399-0.271-8.64-0.271c-9.989,0-11.339,0-11.339,1.979
			c0,5.4,0.09,16.291,0.09,22.05v3.24c-0.09,2.879-2.7,4.5-5.219,4.5c-2.43,0-4.77-1.53-4.77-4.681V446.458z"/>
		<path clip-path="url(#SVGID_12_)" fill="#231815" d="M176.297,411.359c-0.09,3.688-0.18,10.438-0.18,16.021
			c0,3.509,0.09,6.568,0.18,8.009c0.36,5.85,3.69,8.279,7.47,8.279c5.04,0,10.8-4.41,11.07-10.17c0.09-1.979,0.18-4.77,0.18-8.458
			c0-3.691-0.09-8.281-0.271-13.681c-0.09-3.149,2.25-4.59,4.59-4.59c2.34,0,4.771,1.53,4.771,4.5v0.18
			c-0.271,9.63-0.451,15.119-0.451,20.97c0,3.959,0.81,7.829,2.43,10.979c0.63,1.17,0.811,2.25,0.811,3.149
			c0,2.88-2.34,4.68-4.681,4.68c-3.06,0-4.319-2.16-5.31-5.13c-0.089-0.27-0.179-0.449-0.269-0.449c-0.09,0-0.181,0.09-0.361,0.27
			c-3.509,3.96-8.639,5.939-13.588,5.939c-7.83,0-15.3-5.039-15.661-15.119c-0.089-2.88-0.179-9.358-0.179-15.39
			c0-3.689,0-7.289,0.09-9.719c0.089-3.24,2.429-4.771,4.769-4.771c2.25,0,4.59,1.53,4.59,4.41V411.359z"/>
		<path clip-path="url(#SVGID_12_)" fill="#231815" d="M252.075,451.498c-1.17,0-2.43-0.54-3.51-1.62
			c-2.609-2.7-13.319-14.31-17.189-18.81c-0.36-0.45-0.989-0.63-1.8-0.63c-2.069,0-2.069,0.54-2.069,6.57
			c0,1.979,0.089,4.859,0.269,9.899c0.09,1.89-0.99,4.59-4.59,4.59c-2.429,0-4.769-1.53-4.769-4.41v-0.18
			c0.269-9.36,0.45-22.859,0.45-35.099c0-10.08-0.091-19.26-0.271-24.66c-0.089-2.428,1.89-4.138,4.951-4.138
			c2.34,0,4.679,1.259,4.679,4.048v0.181c-0.27,9.899-0.36,33.118-0.36,33.118c0,0.811,0.811,1.261,1.44,1.261
			c1.35,0,1.71-0.271,18.719-13.858c0.99-0.721,1.981-1.08,2.88-1.08c2.7,0,4.95,2.699,4.95,5.309c0,1.35-0.54,2.611-1.8,3.51
			c-5.31,3.78-9.269,6.57-14.04,9.721c-0.629,0.359-0.899,0.719-0.899,0.989c0,0.358,0.27,0.72,0.72,1.17
			c4.59,4.59,13.59,12.689,16.019,15.299c1.08,1.17,1.53,2.431,1.53,3.601C257.385,449.067,254.865,451.498,252.075,451.498"/>
		<path clip-path="url(#SVGID_12_)" fill="#231815" d="M275.925,411.359c-0.09,3.688-0.18,10.438-0.18,16.021
			c0,3.509,0.09,6.568,0.18,8.009c0.36,5.85,3.69,8.279,7.47,8.279c5.04,0,10.8-4.41,11.07-10.17c0.09-1.979,0.18-4.77,0.18-8.458
			c0-3.691-0.09-8.281-0.271-13.681c-0.09-3.149,2.25-4.59,4.59-4.59c2.341,0,4.771,1.53,4.771,4.5v0.18
			c-0.271,9.63-0.451,15.119-0.451,20.97c0,3.959,0.81,7.829,2.43,10.979c0.63,1.17,0.811,2.25,0.811,3.149
			c0,2.88-2.341,4.68-4.681,4.68c-3.06,0-4.319-2.16-5.31-5.13c-0.089-0.27-0.179-0.449-0.269-0.449c-0.09,0-0.181,0.09-0.361,0.27
			c-3.509,3.96-8.639,5.939-13.588,5.939c-7.83,0-15.3-5.039-15.661-15.119c-0.089-2.88-0.179-9.358-0.179-15.39
			c0-3.689,0-7.289,0.09-9.719c0.089-3.24,2.429-4.771,4.769-4.771c2.25,0,4.59,1.53,4.59,4.41V411.359z"/>
		<path clip-path="url(#SVGID_12_)" fill="#231815" d="M314.625,429.089c0-13.141,9.81-22.77,22.679-22.77
			c12.87,0,22.589,9.629,22.589,22.77c0,13.589-9.719,22.769-22.589,22.769C324.435,451.857,314.625,442.678,314.625,429.089
			 M350.804,429.089c0-8.91-6.12-14.488-13.5-14.488s-13.589,5.578-13.589,14.488c0,8.819,6.119,14.31,13.589,14.31
			C344.773,443.398,350.804,437.908,350.804,429.089"/>
		<path clip-path="url(#SVGID_12_)" fill="#231815" d="M404.892,451.498c-1.17,0-2.431-0.54-3.51-1.62
			c-2.609-2.7-13.319-14.31-17.189-18.81c-0.36-0.45-0.989-0.63-1.8-0.63c-2.069,0-2.069,0.54-2.069,6.57
			c0,1.979,0.089,4.859,0.269,9.899c0.09,1.89-0.99,4.59-4.59,4.59c-2.429,0-4.769-1.53-4.769-4.41v-0.18
			c0.269-9.36,0.45-22.859,0.45-35.099c0-10.08-0.091-19.26-0.271-24.66c-0.089-2.428,1.89-4.138,4.951-4.138
			c2.34,0,4.679,1.259,4.679,4.048v0.181c-0.271,9.899-0.36,33.118-0.36,33.118c0,0.811,0.812,1.261,1.44,1.261
			c1.35,0,1.709-0.271,18.719-13.858c0.99-0.721,1.98-1.08,2.88-1.08c2.7,0,4.95,2.699,4.95,5.309c0,1.35-0.54,2.611-1.801,3.51
			c-5.31,3.78-9.269,6.57-14.039,9.721c-0.629,0.359-0.899,0.719-0.899,0.989c0,0.358,0.271,0.72,0.72,1.17
			c4.59,4.59,13.59,12.689,16.02,15.299c1.08,1.17,1.529,2.431,1.529,3.601C410.201,449.067,407.682,451.498,404.892,451.498"/>
		<path clip-path="url(#SVGID_12_)" fill="#231815" d="M449.891,449.607c-0.81-0.63-1.62-1.62-2.43-2.97
			c-0.09-0.18-0.271-0.27-0.36-0.27c-0.18,0-0.359,0.09-0.54,0.27c-3.06,3.51-8.729,5.4-14.039,5.4
			c-9.899,0-15.749-7.2-15.749-14.13c0-4.59,2.699-9.18,8.729-11.249c6.21-2.16,13.949-3.87,15.39-3.961
			c0.899-0.088,1.619-1.168,1.619-3.06c0-1.079-0.27-5.669-6.39-5.669c-4.05,0-7.109,1.891-8.82,3.779
			c-0.989,1.17-2.25,1.619-3.329,1.619c-2.339,0-4.319-1.799-4.319-4.139c0-4.32,7.919-9.09,17.009-9.09
			c9.899,0,15.3,4.859,15.3,15.209c0,1.17-0.09,2.25-0.181,3.51c-0.18,1.351-0.449,4.771-0.449,7.47c0,0.811,0,1.53,0.09,2.07
			c0.81,7.2,4.14,7.47,4.859,8.01c0.99,0.72,1.44,1.89,1.44,3.149c0,2.521-1.98,5.4-4.59,5.4
			C452.141,450.958,450.971,450.508,449.891,449.607 M441.611,430.259c-15.21,1.89-16.109,5.67-16.109,7.829
			c0,2.79,2.43,5.58,7.02,5.58c7.29,0,10.439-3.689,10.439-10.079c0-1.352-0.18-3.33-1.26-3.33H441.611z"/>
		<path clip-path="url(#SVGID_12_)" fill="#231815" d="M524.139,452.128c-22.409,0-34.469-16.649-34.469-34.199
			c0-18.269,12.869-35.638,34.829-35.638c14.309,0,24.028,8.278,24.028,13.14c0,3.06-2.609,5.579-5.49,5.579
			c-1.619,0-3.239-0.72-4.589-2.43c-3.51-4.32-9.18-6.39-14.85-6.39c-15.209,0-23.31,12.959-23.31,25.108
			c0,7.56,4.41,24.479,23.399,24.479c6.84,0,13.59-2.61,17.279-7.56c1.26-1.71,2.79-2.34,4.41-2.34c3.06,0,6.029,2.699,6.029,5.76
			C551.407,442.318,540.698,452.128,524.139,452.128"/>
		<path clip-path="url(#SVGID_12_)" fill="#231815" d="M560.5,388.771c0-4.41,3.778-6.12,6.3-6.12c3.239,0,6.3,2.7,6.3,6.12
			c0,3.239-2.43,6.391-6.3,6.391C563.29,395.161,560.5,392.911,560.5,388.771 M566.8,451.768c-2.43,0-4.771-1.529-4.771-4.59
			c0-7.47,0.091-17.729,0.091-25.919c0-4.051,0-7.649-0.091-10.079c-0.09-2.97,2.16-4.59,4.86-4.59c2.34,0,4.77,1.44,4.77,4.319
			v0.181c-0.09,3.69-0.18,10.799-0.18,18.358c0,6.21,0.09,12.6,0.18,17.549v0.181C571.659,450.238,569.229,451.768,566.8,451.768"/>
		<path clip-path="url(#SVGID_12_)" fill="#231815" d="M599.92,415.589c-1.351,0-1.351,0.45-1.351,0.99
			c0,3.33-0.27,10.979-0.27,16.919c0,7.021,0.27,9.9,5.31,9.9c0.63,0,1.35-0.091,2.07-0.181c0.27,0,0.449-0.09,0.719-0.09
			c2.431,0,3.871,1.98,3.871,3.96c0,3.24-2.971,4.77-7.65,4.77c-13.319,0-13.319-11.79-13.319-15.479
			c0-5.22,0.181-14.219,0.181-18.18v-1.348c0-1.171-0.539-1.262-1.44-1.262h-2.7c-2.609,0-4.05-2.159-4.05-4.318
			c0-2.072,1.351-4.141,4.05-4.141h2.61c1.439,0,1.53-0.27,1.53-1.529c0,0,0.09-1.801,0.09-3.871c0-1.08,0-2.16-0.09-3.149v-0.271
			c0-2.699,2.159-4.05,4.499-4.05c4.771,0,4.771,4.32,4.771,5.49c0,2.43-0.181,5.851-0.181,5.851c0,1.439,0.36,1.529,1.26,1.529
			h6.03c2.7,0,3.96,2.068,3.96,4.23c0,2.069-1.26,4.229-3.96,4.229H599.92z"/>
		<path clip-path="url(#SVGID_12_)" fill="#231815" d="M617.47,473.997c-2.88,0-4.05-2.521-4.05-4.77c0-2.25,1.17-4.5,4.05-4.59
			c5.94-0.271,8.729-4.41,12.51-13.14c0.09-0.36,0.179-0.811,0.179-1.44c0-0.72-0.089-1.529-0.448-2.34
			c-2.7-6.75-11.79-28.349-13.95-34.287c-0.27-0.722-0.359-1.352-0.359-1.981c0-2.79,2.43-4.591,4.77-4.591
			c1.62,0,3.33,0.902,4.05,2.881c8.37,22.77,10.71,28.529,11.25,28.529c0.63,0,7.199-16.739,11.159-28.349
			c0.72-2.159,2.609-3.062,4.41-3.062c2.43,0,4.859,1.621,4.859,4.41c0,0.631-0.09,1.351-0.45,2.162
			c-4.319,10.528-12.06,28.888-17.369,41.667C633.039,467.157,627.908,473.907,617.47,473.997"/>
	</g>
	<g clip-path="url(#SVGID_2_)">
		<defs>
			<rect id="SVGID_13_" x="-228.322" y="-86.323" width="1280" height="1024"/>
		</defs>
		<clipPath id="SVGID_14_">
			<use xlink:href="#SVGID_13_"  overflow="visible"/>
		</clipPath>
		<path clip-path="url(#SVGID_14_)" fill="#302A60" d="M358.678,77.01c0,28.351-52.5,116.667-52.5,116.667
			s-52.5-88.316-52.5-116.667s23.505-51.333,52.5-51.333S358.678,48.659,358.678,77.01"/>
		<path clip-path="url(#SVGID_14_)" fill="none" stroke="#FFFFFF" stroke-miterlimit="10" d="M358.678,77.01
			c0,28.351-52.5,116.667-52.5,116.667s-52.5-88.316-52.5-116.667s23.505-51.333,52.5-51.333S358.678,48.659,358.678,77.01z"/>
	</g>
</g>
</svg>
