<?xml version="1.0" encoding="UTF-8" standalone="no"?>
<!-- Created with Inkscape (http://www.inkscape.org/) -->

<svg
   xmlns:dc="http://purl.org/dc/elements/1.1/"
   xmlns:cc="http://creativecommons.org/ns#"
   xmlns:rdf="http://www.w3.org/1999/02/22-rdf-syntax-ns#"
   xmlns:svg="http://www.w3.org/2000/svg"
   xmlns="http://www.w3.org/2000/svg"
   xmlns:sodipodi="http://sodipodi.sourceforge.net/DTD/sodipodi-0.dtd"
   xmlns:inkscape="http://www.inkscape.org/namespaces/inkscape"
   width="111"
   height="28"
   viewBox="0 0 29.36875 7.4083337"
   version="1.1"
   id="svg8"
   inkscape:version="0.92.4 (5da689c313, 2019-01-14)"
   sodipodi:docname="logo.svg">
  <defs
     id="defs2" />
  <sodipodi:namedview
     id="base"
     pagecolor="#ffffff"
     bordercolor="#666666"
     borderopacity="1.0"
     inkscape:pageopacity="0.0"
     inkscape:pageshadow="2"
     inkscape:zoom="4"
     inkscape:cx="52.23243"
     inkscape:cy="-23.513001"
     inkscape:document-units="mm"
     inkscape:current-layer="layer1"
     showgrid="false"
     fit-margin-top="0"
     fit-margin-left="0"
     fit-margin-right="0"
     fit-margin-bottom="0"
     inkscape:window-width="1192"
     inkscape:window-height="736"
     inkscape:window-x="208"
     inkscape:window-y="80"
     inkscape:window-maximized="0"
     units="px" />
  <metadata
     id="metadata5">
    <rdf:RDF>
      <cc:Work
         rdf:about="">
        <dc:format>image/svg+xml</dc:format>
        <dc:type
           rdf:resource="http://purl.org/dc/dcmitype/StillImage" />
        <dc:title></dc:title>
      </cc:Work>
    </rdf:RDF>
  </metadata>
  <g
     inkscape:label="レイヤー 1"
     inkscape:groupmode="layer"
     id="layer1"
     transform="translate(-6.6558292,-32.228853)">
    <path
       inkscape:connector-curvature="0"
       style="fill:#00a29a;stroke-width:0.01446608"
       d="m 12.564901,36.155799 -0.0019,-0.0019 -0.0065,0.0022 0.0017,-0.0046 -0.0029,-0.0029 0.0024,-0.0014 h -0.0031 v -0.0053 -0.0029 l 0.0034,-0.0014 -0.0012,-0.0019 h -0.0017 l -0.0043,-0.0014 0.0024,-0.0039 h 0.0051 l -0.0034,-0.0041 -0.0041,-0.0036 0.0027,-0.0019 -0.0012,-0.0024 h 0.0027 l -0.0022,-0.0034 0.0051,-0.0029 -0.0046,-0.0029 0.0017,-0.0031 h -0.0043 l 0.0029,-0.0022 -0.0027,-0.0056 -0.0027,-0.0017 -0.0027,0.0019 -0.0029,-0.0039 h -0.0019 v 0.0043 h -0.01351 l -0.0019,0.0022 -0.0036,0.0046 h -0.0027 l -0.0036,-0.0027 0.0019,-0.0041 0.0017,-0.0029 h 0.0036 v -0.0039 l -0.0036,-0.0065 h -0.0019 l -0.0039,-0.0014 v -0.0031 -0.0024 l -0.0019,-0.0014 v -0.0034 h 0.0024 0.0019 v -0.0031 -0.0039 h -0.0041 v -0.0039 l 0.007,-0.0031 -0.0027,-0.0041 h -0.0027 -0.0029 l 0.0053,-0.0068 h -0.006 -0.0056 v 0.0046 l -0.0022,0.0036 v -0.0082 l -0.0041,0.0084 v -0.0034 h -0.0019 -0.0024 v -0.0063 h -0.0063 l -0.0031,0.0019 -0.01062,0.0058 -0.0027,-0.0046 -0.0036,0.0019 -0.0056,-0.0022 -0.0041,0.0055 -0.0036,-0.0027 v 0.0022 l -0.0041,0.0022 v -0.0063 h 0.0019 0.0031 v -0.0039 -0.0034 l -0.006,0.0019 0.0024,-0.0046 -0.0019,-0.0019 -9.66e-4,-7.18e-4 -0.0031,0.0029 0.0024,0.0053 -0.0058,0.0056 h -0.0053 l -0.0014,-0.0063 v 0.0024 l -0.0075,-0.0019 -0.0027,0.0039 -0.0019,-0.0017 0.0048,-0.0058 0.0036,0.0017 v -0.0024 h -0.0051 l -0.0022,-0.0031 -0.0036,-0.0043 0.0022,-0.0043 v -0.0022 l 0.0012,-0.0036 0.0031,-0.0029 0.0029,-0.0036 -0.0014,-0.0048 v -0.0022 l 0.0029,-0.0041 v -0.0046 l 0.0068,-0.0099 -0.0051,-0.0022 -0.0029,-0.0029 v -0.0029 -0.0022 l 0.0029,-0.0039 0.0017,-0.0029 -0.0027,-0.0031 v -0.0027 l 0.0034,-0.0075 h 0.0017 l 0.0077,-0.0075 h -0.0027 -0.0019 l -0.0041,0.0012 h -0.0019 l -0.006,-0.0029 -0.0068,-0.01012 -0.0039,-0.01374 0.0019,-0.0039 v -0.0022 -0.0048 l 0.0039,-0.0022 0.0022,-0.0022 0.0014,-0.0014 h 0.0024 0.0048 v -0.0024 h 0.0024 l 0.0027,-0.0017 0.0024,0.0019 h 0.0039 v -0.0027 h -0.0019 l -0.0029,-0.0014 h -0.0046 v -0.0022 -0.0024 l -0.0017,-0.0031 h -0.0029 l 0.0029,-0.0046 h -0.0019 v -0.0027 h -0.0022 l -0.0014,0.0014 -0.0019,0.0022 v -0.0036 l -0.0024,0.0043 v -0.0072 l -0.0043,0.006 h -0.0027 -0.0029 l -0.0019,-0.0022 -0.0022,-0.0041 v -0.0041 l -0.0034,-0.0019 0.0041,-0.0043 -0.0034,-0.0036 0.0034,-0.0019 v -0.0031 l 0.0029,-0.0022 -0.0029,-0.0022 0.0014,-0.0019 v -0.0077 l 0.0017,-0.0017 v -0.0034 h -0.0036 l -0.0014,-0.0046 -0.0046,-0.0022 0.0043,-0.0019 v 0.0019 l 0.0034,-0.0029 0.0019,-0.0029 h -0.0031 l 0.0048,-0.0031 -0.0024,-0.0014 h -0.0043 v -0.0027 h -0.0022 v -0.0027 l 0.01302,-0.0019 0.0058,-0.0051 -0.0019,-0.0039 h -0.0039 l -0.0043,-0.0051 0.0027,-0.0027 h -0.0041 l 0.0034,-0.0027 h -0.006 v -0.0029 l -0.0034,-0.0019 0.0058,-0.0051 0.0063,0.0024 v -0.0024 h 0.0053 l -0.0072,-0.0034 0.0017,-0.006 h -0.006 v -0.0029 l 0.0046,-0.0014 v -0.0019 h -0.0041 l -0.0019,-0.0022 0.0034,-0.0014 0.0048,-0.0031 0.0027,-0.0017 -0.0024,-0.0012 -0.0041,-0.0017 -0.0043,-0.0014 0.0068,-0.0014 v -0.0022 h 0.0014 l 0.0012,-0.0094 h -0.0031 v -0.0022 l -0.0072,0.0012 -0.0014,-0.0027 v -0.0019 l 0.0017,-0.0014 v -0.0017 l 0.0019,-0.0017 0.0022,-0.0034 -0.006,-0.0019 h -0.0039 l 0.0012,-0.0031 -0.0034,-0.0022 0.006,-0.0034 h 0.0019 v -0.0027 h 0.0029 v -0.0031 l -0.0048,-0.0012 h -0.0029 l 0.0012,-0.0041 -0.0051,0.0034 -0.0022,0.0027 v -0.0019 l -0.0024,-0.0031 h -0.0027 l -0.0056,0.0043 -0.0022,-0.0041 -0.0024,0.0012 h -0.0017 -0.0022 l 0.0043,0.0014 -0.0051,0.0014 0.0022,0.0017 -0.0024,0.006 h -0.0053 l 0.0017,0.0034 -0.0068,0.0036 0.0014,0.0043 -0.0017,0.0056 -0.0043,0.0039 h -0.0039 l -0.0034,0.0048 0.0019,0.0027 h -0.0017 l -0.0063,0.0041 v 0.0019 l -0.0024,0.0036 v 0.0034 l 0.0027,0.0053 -0.0084,0.0031 0.0019,0.0012 v 0.0082 h -0.0031 l -0.0051,0.0022 h 0.0014 l -0.0014,0.006 -0.0046,0.0014 v 0.0039 l -0.0043,0.0036 -0.0034,0.0039 -0.0029,0.0053 -0.0043,0.007 -0.0043,0.007 -0.0043,0.0056 -0.0043,0.0084 v 0.0029 l -0.01134,0.02411 v 0.0024 l -0.0075,0.0065 -0.0017,0.0053 -0.0111,0.0027 -0.0029,0.0043 -0.0036,0.0014 -0.0089,0.0058 0.0065,0.0012 -0.006,0.0092 -0.0017,0.0046 -0.0041,0.0027 -0.0031,0.0019 -0.0019,0.0012 -0.0022,0.0014 v 0.0019 l -0.0012,0.0039 -0.0027,0.0097 -0.0077,0.0043 0.0017,0.0024 -0.0036,0.006 0.0017,0.0043 -0.0087,0.0092 -0.0012,0.0051 v 0.0039 l -0.0053,0.0031 0.0012,0.0036 -0.0027,0.0034 h -0.0039 v 0.0087 l -0.0053,0.0041 -0.0027,0.0075 h -0.01761 l -0.0043,-0.0046 -0.0014,0.0022 -0.0094,-0.0036 0.0046,-0.0087 -0.0017,-0.0024 h -0.0048 l 0.0053,-0.008 -0.0075,-0.0034 -0.0056,-0.01327 v -0.01085 l 0.0063,-0.0036 0.01013,0.0075 0.0017,-0.0022 -0.0089,-0.0092 0.0051,-0.0063 0.01279,-0.0068 0.0041,0.0031 0.0019,0.0014 0.0039,-0.0041 -0.0034,-0.0094 0.006,-0.0089 0.01448,-0.0099 0.0027,-0.0017 -0.0043,-0.01062 v -0.0072 l 0.0043,-0.0022 v -0.0058 l 0.0022,-0.0027 h 0.0043 v 0.0075 l 0.0034,-0.0036 -0.0019,-0.0014 v -0.0053 h -0.0017 l -0.0024,-0.0082 h -0.0039 l -0.0019,-0.007 0.0022,-0.0056 0.0065,0.0029 h 0.01134 v -0.01062 h 0.0068 l -0.0092,-0.02027 v -0.008 l -0.0089,-0.0036 v -0.0072 l 0.01977,0.0053 -0.0027,-0.0051 -0.01206,-0.0041 -0.01157,-0.0039 v -0.0053 -0.0053 l 0.02074,0.0058 0.0043,-0.0036 0.0012,-0.0031 -0.01424,-0.006 0.0048,-0.02122 h 0.0046 l 0.0022,0.0053 0.01134,0.0097 0.0036,-0.0043 h 0.0082 l 0.006,-0.0036 0.0024,-0.0031 v -0.0017 l 0.0036,-0.0031 h -0.0123 v -0.0031 l 0.0039,-0.0014 0.0041,-0.0017 -0.0072,-0.0017 0.0014,-0.0048 -0.0036,-0.0017 -0.0022,-0.0094 -0.01496,0.0053 -0.007,0.0031 -0.0039,-0.0022 -0.0017,-0.0056 0.0029,-0.0017 -0.0022,-0.0034 h 0.0043 l -0.0014,-0.0039 h 0.0039 v -0.0014 l 0.0014,-0.0053 0.0041,-0.0024 -0.0039,-0.0056 -0.0046,-0.0082 h -0.0014 v -0.0041 h 0.0027 l 0.0031,0.0046 v -0.0041 -0.0022 l 0.0048,-0.0017 0.0017,-0.0046 h -0.0012 l 0.0027,-0.0017 -0.0034,-0.0039 0.0019,-0.0041 v -0.0072 l 0.007,-0.01037 0.0019,-0.0039 h 0.006 l 0.0017,-0.0041 0.0017,-0.008 v -0.0039 l 0.0041,-0.0017 0.0014,-0.0034 v -0.0082 -0.0024 h 0.0024 l 0.0024,-0.0017 v -0.0029 -0.0043 l 0.007,-0.0058 0.0017,-0.0022 -0.0017,-0.0068 0.0034,-0.0029 -0.0043,-0.0022 v -0.006 h -0.0068 v -0.0029 l -0.0027,0.0027 v -0.0031 h -0.0019 v 0.0019 h -0.0027 -0.0029 -0.0024 l -0.0014,-0.0031 -0.0051,0.0058 h -0.0087 l -0.0029,-0.006 v -0.0019 l -0.0027,-0.0041 v 0.0092 l -0.0041,-0.0017 -0.0014,-0.0034 h -0.0034 l 0.0012,0.0034 -0.0053,0.0014 -0.0034,-0.0048 v -0.0039 h -0.0022 l -0.0022,-0.0041 v -0.0027 h 0.0027 v -0.0043 h 0.006 l 0.0039,-0.0039 0.0019,-0.0027 0.0014,-0.01254 0.0046,-0.0027 -0.0072,-0.007 v -0.0058 l 0.0039,-0.0065 h 0.0017 0.0041 v -0.0043 -0.0029 l 0.0017,-0.01085 0.0041,-0.0027 v 0.0031 l 0.0019,-0.0014 0.0084,0.0027 h 0.0014 l -0.0039,-0.0022 0.0043,-0.0019 0.0027,-0.0024 0.0027,-0.0024 0.0027,-0.0046 0.0017,-0.0027 h 0.0051 0.0029 l -0.0031,-0.0024 h -0.0022 l 0.0041,-0.01351 -0.0039,-0.0022 0.0019,-0.0024 -0.0024,-0.0022 -0.0051,-0.0022 h -0.0027 v -0.0056 l 0.0024,-0.0084 0.0039,-0.0029 -0.0024,-0.0019 0.0022,-0.0072 h 0.0048 0.0022 l 0.0046,-0.0024 h -0.0048 -0.0024 -0.0043 l -0.0012,-0.0039 0.0022,-0.0012 -0.0036,-0.0036 0.0043,-0.0022 -0.0051,-0.0012 -0.0012,-0.0031 h -0.0024 -0.0053 -0.0022 -0.0019 l -0.0056,0.0031 -0.0065,-0.0024 v -0.0031 h -0.0036 v -0.0031 l -0.0036,0.0017 -0.0036,-0.0036 v -0.0053 h -0.0017 l 0.0017,-0.0039 h 0.0056 l -0.007,-0.0039 0.0041,-0.0068 0.0065,0.0014 -0.0014,-0.0089 h 0.01012 l 0.0017,0.01013 -0.0029,0.0017 h 0.0058 l 0.0094,-0.0017 0.0014,-0.0014 h -0.0031 v -0.0046 h 0.0027 0.0099 l -0.006,-0.0043 v -0.0041 l 0.0068,-0.0039 h 0.0024 v -0.0048 l 0.0024,-0.0036 v -0.0084 l 0.0096,-0.0193 0.0063,-0.0046 h 0.0024 l 0.0031,0.0012 0.0046,-0.0046 0.0017,-0.0017 0.0075,-0.0017 h 0.0024 0.0022 l 0.0022,0.0019 -0.0017,-0.0017 v -0.0024 h 0.0017 0.0017 0.0024 0.0029 l 0.0029,-0.0017 0.0019,-0.0031 -0.0012,-0.0019 -0.0027,-0.0043 -0.0027,0.0017 -0.0053,0.0031 -0.0041,-0.0029 0.0034,-0.0036 -0.005,0.0026 -0.0046,-0.0024 -0.0027,0.0053 h 0.0029 v 0.0027 h -0.007 l -0.0084,-0.0065 -0.0031,-0.0012 -0.0084,-0.01521 -0.0019,-0.01713 v -0.0036 l 0.0017,-0.0048 h 0.0031 l -0.0022,-0.0034 0.0017,-0.01037 0.0027,-0.0012 h -0.0019 l 0.0024,-0.0012 0.0029,-0.0075 0.01399,-0.0092 0.0041,-0.0058 0.0111,-0.0036 0.0068,-0.0024 0.0046,-0.0056 -0.0041,-0.0024 v -0.0031 h -0.0031 v -0.0031 h -0.0024 l -0.0022,-0.0014 h -0.0043 -0.0041 -0.006 l -0.0017,-0.0043 -0.0036,-0.0075 -0.0051,-0.0014 -0.0031,-0.0084 -0.0048,-0.0029 0.0019,-0.0043 0.0012,-0.0031 h -0.0017 -0.0051 v -0.0056 h -0.0027 -0.0048 l -0.0031,-0.0014 h -0.0031 l -0.0034,-0.0029 0.0046,-0.0014 -0.0022,-0.0087 h 0.0036 l 0.0022,-0.0014 0.0031,-0.0029 v -0.0024 l -0.0019,-0.0036 v -0.0027 l -0.0024,-0.0019 0.0019,-0.0014 0.0014,-0.0022 -0.0012,-0.0019 0.0053,-0.0036 v -0.0024 l -0.0043,-0.0027 v -0.0039 h -0.0099 l 0.0041,-0.0041 0.0017,-0.0019 -0.0094,-0.0094 0.0022,-0.0034 0.0014,-0.0019 -0.0039,-0.008 0.0029,-0.0072 v -0.0058 l 0.0019,-0.0017 0.0031,-0.0029 h -0.0014 l -0.0022,-0.0019 h -0.0027 v -0.0087 h 0.0043 0.0036 0.0031 l 0.0031,-0.0017 -0.0022,-0.006 0.006,-0.0029 h 0.0022 -0.0027 v -0.0048 l 0.0014,-0.0022 0.0017,-0.0017 0.0031,-0.0041 -0.0048,-0.0014 v -0.0058 l -0.0072,-0.0075 v -0.0046 h 0.0039 v -0.0048 l -0.0019,-0.0034 -0.0039,-0.0017 -0.0031,-0.006 0.0014,-0.0029 h -0.0028 l -0.0027,0.0017 -0.0082,0.0053 -0.0046,0.0024 -0.0051,-0.0036 0.0014,-0.0022 -0.0019,-0.0043 -0.0014,-0.0039 0.007,0.0022 -0.0024,-0.0024 0.0019,-0.0048 v -0.0019 h -0.0019 v -0.0068 -0.0022 l 0.0041,-0.0046 v -0.0029 l -0.0014,-0.0024 v -0.0027 l 0.0019,-0.0017 0.0031,-0.0048 h -0.0043 l -0.0039,-0.0019 -0.0024,-0.0012 h -0.0022 0.0027 -0.0053 v -0.006 l 0.0019,-0.0014 0.0056,-0.0063 h -0.0063 l -0.0019,-0.0017 h -0.0022 l -0.0014,-0.0014 h -0.0017 v -0.0094 h 0.0046 v -0.0036 l -0.0041,-0.0012 -0.0019,-0.0053 0.0087,-0.0019 h 0.0017 l 0.0034,-0.0014 -0.0043,-0.0022 -0.0068,0.0034 0.0034,-0.0034 -0.0014,-0.0029 h 0.007 l 0.0017,-0.0027 -0.0019,-0.0022 h -0.0053 l -0.0012,-0.0068 h 0.0031 l -0.0027,-0.0017 0.0014,-0.0017 h -0.0017 -0.0014 l 0.0041,-0.0029 h -0.0056 0.0019 l -0.0027,-0.0039 0.0029,-0.0022 v -0.0258 h 0.0029 0.0014 0.0017 v -0.0051 l 0.0041,-0.0029 v -0.0031 -0.0051 l -0.0068,-0.0072 v -0.0082 -0.0036 -0.0036 l -0.0053,-0.0063 -0.0048,-0.0053 0.0017,-0.0039 -0.0039,-0.0036 0.0012,-0.0024 v -0.0056 l -0.0031,-0.0017 v -0.0024 h -0.0036 l -0.0024,-0.006 0.0029,-0.0017 -0.0031,-0.0034 v -0.0022 -0.006 l -0.0031,-0.0029 -0.0019,-0.0014 -0.0029,0.0031 -0.01616,-0.0014 -0.007,-0.0065 -0.0058,-0.0034 -0.0017,-0.0029 -0.0027,-0.0051 -0.0014,-0.0024 -0.0043,-0.0024 -0.0041,-0.0019 v -0.01109 l -0.0058,-0.0082 v -0.0056 -0.0027 l -0.0053,-0.01368 v -0.0043 l -0.0072,-0.01447 0.0014,-0.01062 v -0.0017 l -0.0058,-0.0068 0.0036,-0.0043 -0.0031,0.0022 -0.0024,-0.0031 0.0031,-0.0022 v -0.0041 l -0.0041,0.0014 -0.01109,-0.01037 v -0.0024 h -0.006 l -0.0014,-0.0031 -0.0046,-0.0099 0.0029,-0.01351 0.0017,-0.0022 h 0.0027 l 0.0014,-0.0027 0.0022,-0.0041 -0.0027,-0.0017 h -0.0024 -0.0019 -0.0014 l -0.0014,-0.0058 0.0019,-0.0019 0.0075,-0.0048 v -0.0024 h -0.0022 v -0.0068 l -0.0084,0.0014 -0.0039,-0.0034 0.0024,-0.007 h 0.0031 l 0.0041,-0.0017 0.0017,-0.0041 v -0.0031 -0.0036 -0.0031 l -0.0024,-0.0017 v -0.0048 0.0031 l -0.0036,-0.0024 0.01062,-0.006 0.0017,-0.0058 -0.0012,-0.0036 v -0.0027 l 0.0072,-0.01012 0.006,0.0014 h 0.0022 0.0024 0.0053 l 0.0024,-0.0017 h 0.0036 0.0019 v 0.0017 h 0.0022 0.0022 0.0019 v 0.0027 l 0.0024,0.0014 h 0.0024 l -0.0012,-0.0022 0.0034,-0.0031 0.0019,-0.0014 0.0065,0.0065 0.0024,-0.0048 -0.0031,-0.0017 v -0.0046 l -0.0012,-0.0024 h -0.0022 l -0.0022,-0.0034 -0.0017,-0.0024 v -0.0043 l 0.0043,-0.0048 v 0.0027 h 0.0034 v -0.0034 h 0.0017 0.0029 v -0.0027 h -0.0024 l 0.0058,-0.0036 -0.0089,0.0019 h -0.0017 -0.0027 l -0.0034,-0.0039 -0.0039,-0.0024 v -0.0039 l 0.0014,-0.0024 0.0024,-0.0017 0.0014,-0.0031 h -0.0019 l -0.0048,-0.0017 -0.0036,-0.0036 v -0.0043 -0.01447 l 0.0022,-0.0019 h -0.0031 v -0.0056 -0.0029 -0.0029 -0.0029 l 0.0014,-0.0014 h -0.0029 0.0019 l 0.0031,-0.0024 -0.0048,-0.0019 0.0022,-0.0029 -0.0039,-0.0014 v -0.0034 -0.0029 l 0.0019,-0.0019 0.0029,-0.0043 h -0.0024 l -0.0014,-0.0046 v -0.0027 l 0.0031,-0.0014 -0.0029,-0.0029 v -0.0029 -0.0029 l 0.0036,-0.0031 0.0034,-0.0046 -0.0014,-0.0017 h -0.0017 -0.0024 l 0.0024,-0.0041 -0.0024,-0.0017 0.0024,-0.0014 -0.0048,-0.0048 0.0041,-0.0034 -0.0041,-0.0019 -0.0014,-0.0041 h -0.0068 l 0.0065,-0.0077 h -0.0039 l -0.0039,0.0034 v -0.0029 h -0.0072 v -0.0022 -0.0031 h -0.0034 v -0.0034 l -0.0024,-0.0046 -0.0029,0.0046 h -0.0022 l -0.0022,-0.0019 v -0.008 l -0.0029,-0.006 -0.0027,-0.0022 -0.0022,0.0019 v -0.0029 h -0.0031 l 0.0034,-0.0014 h 0.0027 v -0.0031 h -0.0022 v -0.007 h -0.0041 l -0.0048,-0.007 v 0.0022 l -0.0077,-0.0029 0.0036,-0.007 v -0.0075 l -0.0014,0.0022 h -0.0048 v -0.01496 h -0.0022 -0.0041 l 0.0012,-0.0024 0.0017,-0.0041 v -0.0056 l -0.0027,-0.0027 v -0.0031 l -0.0017,-0.0041 -0.0031,-0.0053 -0.0043,0.0029 -0.0031,-0.0058 h -0.0036 l -0.0082,0.0097 -0.0029,-0.0019 v -0.0027 h -0.0019 l -0.0036,-0.0019 -0.0017,0.0019 h -0.0022 v 0.0022 l -0.0017,0.0019 -0.0012,0.0017 h -0.006 l -0.0029,-0.0022 h -0.0027 l -0.0099,0.0014 -0.0051,-0.0022 -0.0087,-0.0024 -7.18e-4,-0.0043 -0.0024,-0.0036 -0.0034,0.0027 -0.0022,-0.0014 -0.0034,0.0034 -0.0031,0.0043 -0.0019,-0.0017 -0.0027,-0.0048 h 0.0027 l -0.0048,-0.0043 -0.0019,-0.0017 -0.0012,-0.006 0.0036,-0.0031 v -0.0029 l -0.0039,0.0034 -0.0024,0.0024 v -0.0053 l -0.0077,0.0031 -0.0056,-0.0056 0.0017,-0.007 0.0048,-0.0065 -0.0024,-0.0041 h -0.0063 l -0.0058,-0.0094 0.0024,-0.0029 -0.0022,-0.0043 -0.0058,-0.0029 0.0029,-0.0031 h -0.0034 l -0.0036,-0.0072 -0.0046,-0.0027 -0.0041,-0.0024 -0.0034,-0.0017 -0.0017,-0.0051 -0.0065,-0.0046 h -0.0024 v -0.0051 l -0.0019,-0.0048 -0.0039,0.0029 -0.0017,-0.0027 0.0014,-0.0046 v -0.0024 h -0.0031 l 0.0027,-0.0048 h -0.0039 v -0.0041 h -0.0036 l 0.0014,-0.0036 v -0.0029 h -0.0034 v -0.0031 l -0.0022,-0.0027 0.0034,-0.0029 h -0.0036 v -0.0029 h -0.0036 l 0.0027,-0.0017 v -0.0027 l -0.0024,0.0017 -0.0019,-0.0031 h -0.0027 l 0.0014,-0.0036 -0.0043,-0.0034 0.0017,-0.0065 h -0.0022 -0.0036 v -0.0024 l -0.0012,-0.0017 v -0.0028 l -0.0024,0.0024 h -0.0029 -0.0024 l -0.0036,0.0012 h -0.007 l -0.0029,-0.0046 v -0.0046 l -0.0012,-0.0022 h -0.006 l 0.0036,-0.0031 -0.0012,-0.0019 v -0.0024 l -0.0099,0.0065 h -0.0019 l -0.0024,-0.0022 v 0.0039 l -0.0014,0.0014 v -0.0036 l -0.0043,-0.0014 h -0.0017 l -0.0063,-0.0039 h -0.0019 l -0.0058,-0.0029 h -0.0024 v -0.0029 h -0.0034 l -0.0014,-0.0022 h -0.0027 -0.01037 l -0.0051,-0.01134 0.0019,-0.0034 h -0.0031 l 0.0012,-0.0017 v -0.0024 l -0.0029,-0.0019 -0.0024,-0.0012 -0.0017,-0.0014 -0.0019,-0.0017 h -0.0017 l -0.0014,-0.0019 h 0.0017 l -0.0027,-0.0012 v -0.0036 l -0.0046,-0.0068 h -0.0022 l 0.0012,-0.0019 h -0.0027 v -0.0024 l -0.0029,-0.0027 -0.0034,-0.0022 v -0.0034 l -0.0053,-0.0034 v -0.0024 l -0.01568,-0.0152 -0.0022,-0.008 0.0012,-0.0092 -0.0031,-0.0056 v -0.0034 l -0.0034,-0.0024 h -0.0017 l -0.0031,-0.0068 -0.0024,-0.02895 0.0068,-0.01616 -0.0014,-0.0058 -0.01182,-0.01351 -0.0017,-0.0068 v -0.006 l -0.0022,-0.0048 0.0048,-0.04246 0.0077,-0.01471 0.0034,-0.0024 0.0014,0.0017 0.0065,-0.0056 -0.0022,-0.0027 0.0053,-0.0024 0.0051,0.0048 -0.0034,-0.0068 v -0.01496 l 0.0075,-0.01593 0.01543,-0.02099 0.01761,-0.01737 0.0034,0.0065 v -0.0029 l 0.0065,-0.0022 0.01761,0.0092 0.0058,0.0034 h 0.0019 l 0.0014,-0.0017 h 0.0019 0.0014 l 0.01496,-0.0029 v -0.0027 l 0.006,-0.0051 h 0.0089 l 0.0048,-0.0036 v -0.0056 -0.0039 -0.0075 l 0.0039,-0.0043 0.0029,-0.0056 0.0022,-0.0027 v -0.0024 h 0.0019 l -0.0039,-0.0024 h -0.0022 -0.0017 l -0.0039,-0.0017 -0.0097,-0.02002 v -0.0075 l -0.0027,-0.0022 -0.0053,-0.0019 -0.0031,-0.0041 v -0.0019 l -0.0065,-0.0019 v -0.0082 l -0.0019,-0.0027 -0.0056,-0.0041 0.0017,-0.0065 0.0031,-0.0039 h -0.01037 l -0.0014,-0.0041 0.0029,-0.007 -0.0024,-0.007 -0.0022,-0.0012 h -0.0019 l -0.0017,-0.0014 -0.0123,-0.0087 -0.0027,-0.0014 v -0.0039 l -0.0022,-0.0014 v 0.0022 h -0.01833 v -0.0058 -0.0024 h -0.0022 -0.0022 l -0.01327,-0.0068 -0.0099,-0.0087 -0.0053,-0.0041 v -0.0027 l -0.0034,-0.0053 -0.0082,-0.0014 v -0.0046 l -0.01109,0.0022 -0.0056,-0.0029 v -0.0034 l -0.006,0.0014 -0.0022,-0.0024 h -0.0019 l -0.0087,-0.0034 0.0058,0.0051 -0.0072,0.0019 -0.0043,0.0014 -0.01037,-0.0072 -0.0027,-0.0014 v -0.0063 h -0.0263 v -0.0024 l -0.0092,0.0017 -0.0031,-0.0075 h -0.0039 l -0.0041,-0.0072 -0.0029,-0.0094 -0.0027,-0.0048 -0.01399,-0.0034 -0.0014,-0.01761 h 0.0065 l 0.0019,0.01013 h 0.0034 v 0.0041 l 0.01713,0.0097 -0.0063,-0.0053 0.0084,-0.0084 v -0.0051 l -0.0051,-0.0029 v -0.01085 l 0.01543,-0.0017 -0.0029,-0.0058 -0.0164,-0.0014 v 0.0041 h -0.0029 v -0.0036 l -0.0019,-0.0072 v -0.0068 -0.0031 l 0.0053,-0.02147 0.01109,-0.01012 0.008,-0.01713 h 0.0014 l 0.01568,0.01182 0.0055,-0.0072 -0.01012,-0.0077 0.0034,-0.0043 0.0051,-0.007 0.0051,0.0031 0.0065,-0.01109 0.0048,-0.0031 0.02099,0.0043 0.0152,-0.0027 0.0077,0.0043 v 0.0024 -0.006 h -0.0027 l 0.0024,-0.0024 h -0.0051 l -0.0022,-0.0048 0.0022,-0.0065 v -0.0058 l -0.0017,-0.0024 -0.0029,-0.0056 0.0024,-0.0053 v -0.0022 l -0.0022,-0.007 0.0041,-0.01037 -0.0012,-0.0063 v -0.0029 l -0.006,-0.0099 v -0.006 l -0.0087,-0.0084 0.0012,-0.0056 -0.0019,-0.0022 -0.0043,-0.0036 -0.0022,-0.0029 -0.0053,-0.0031 v -0.0027 l -0.0014,-0.0034 0.0056,-0.0029 v -0.0012 h 0.0017 l -0.0022,-0.0017 0.0029,-0.0027 -0.0017,-0.0017 v -0.0022 h -0.0041 l 0.0027,-0.0036 h 0.0027 v -0.0031 h -0.0027 -0.0031 l 0.0014,-0.0024 h -0.0027 v -0.0043 h -0.0024 -0.0029 v -0.0036 -0.0031 -0.0019 l -0.0017,-0.0027 v -0.0031 l 0.0017,-0.0024 -0.0056,-0.0022 0.0048,-0.0014 h -0.0034 l 0.0024,-0.0014 -0.0024,-0.0014 h -0.0019 l -0.0024,-0.0012 0.0014,-0.0022 h 0.0014 0.0022 v -0.0019 l -0.0058,-0.0029 0.0039,-0.0014 h 0.0019 l -0.0022,-0.006 v -0.0027 l -0.0043,0.0022 v -0.0031 h -0.0022 v -0.0022 l -0.0017,-0.0012 v 2.45e-4 h 0.0029 l -0.01012,-0.0034 h 0.0014 0.0029 v -0.0056 l -0.0031,0.0027 0.0034,-0.0072 -0.0034,-0.0022 h 0.0039 l -0.0017,-0.006 -0.0027,-0.0014 -0.0012,-0.0024 -0.0024,-0.0031 h -0.0024 v -0.0027 l -0.0017,-0.0027 h -0.0027 l 0.0017,-0.0022 -0.0036,-0.0012 0.0027,-0.0014 h -0.0063 l 0.0024,-0.0012 h -0.0022 0.0036 l -0.0053,-0.0056 -0.0034,-0.006 -0.0014,-0.0027 0.0012,-0.0027 -0.0024,-0.0029 v -0.0022 h -0.0027 -0.0036 l 0.0024,-0.0029 h -0.0036 l 0.0036,-0.0024 -0.0029,-0.0041 v 0.0024 l -0.0034,-0.0024 v -0.0024 l -0.0084,-0.0053 v -0.0027 -0.0017 h -0.0036 v -0.0056 l -0.0031,-0.0027 -0.0029,-0.0017 0.0036,-0.0019 -0.0048,-0.0039 h 0.0022 l -0.0019,-0.0048 h -0.0019 l -0.0039,-0.0022 -0.0014,-0.0034 -0.0034,-0.0036 v -0.0036 l 0.0031,-0.0017 -0.0019,-0.0051 h -0.0014 l -0.0041,-0.0089 -0.0046,-0.0029 v -0.0022 -0.0029 l -0.0019,-0.0027 -0.0036,-0.0046 v -0.0043 -0.0029 -0.0022 l -0.0017,-0.0039 -0.0024,-0.0048 h 0.0024 l -0.0031,-0.0017 0.0012,-0.0029 -0.0036,-0.0031 h -0.0017 -0.0017 v -0.0019 -0.0034 -0.0024 l -0.0022,-0.0029 0.0022,-0.0029 -0.0039,-0.0034 v 0 h -0.0027 -0.0027 l -0.007,-0.0046 v -0.0041 -0.0027 l -0.0055,-0.0022 h -0.0029 v -0.0022 l -0.008,-0.0072 -0.0022,-0.01085 v -0.0099 l -0.0092,-0.02074 v -0.0275 l -0.0024,-0.0058 0.0014,-0.01496 0.0048,-0.0092 -0.0039,-0.0058 v -0.0053 l -0.0019,-0.0027 -0.0039,0.0017 -0.0034,-0.0043 -0.007,0.0036 -0.0055,-0.0034 -0.0014,-0.0048 v -0.0047 h 0.0051 l -0.0041,-0.0068 0.0046,-0.0036 h -0.01085 l -0.0034,-0.0036 -0.0152,-0.0043 -0.0063,-0.0075 -0.0046,-0.01424 0.0063,-0.0205 v -0.0152 l -0.0034,-0.0031 v -0.0022 l -0.0077,-0.0065 -0.0031,-0.0087 -0.0096,-0.01157 -0.02219,-0.01496 -0.0017,-0.01037 -0.0046,-0.0068 -0.01641,-0.0053 -0.0027,-0.0029 0.0022,-0.0019 -0.0036,-0.0027 h -0.0024 l -0.008,-0.0087 -0.0031,-0.0087 v -0.0072 l -0.0077,-0.0082 -0.0075,-0.0123 -0.0017,-0.0012 h -0.0041 l -0.0027,-0.0058 0.0027,-0.0036 h -0.0019 l -0.0022,-0.0087 0.0082,-0.0029 0.0017,0.0034 v -0.0043 l -0.0031,-0.0046 v 0.0031 l -0.008,-0.0014 0.0017,-0.0075 v -0.0031 -0.0065 h 0.0048 -0.006 l -0.0048,-0.01713 -0.01713,-0.02725 0.0043,-0.0036 -0.0034,0.0017 -0.0029,-0.0031 -0.02411,-0.0043 -0.01062,-0.02099 -0.0019,-0.01254 0.0029,-0.0036 -0.0029,-0.0048 h -0.0022 l -0.01254,-0.0041 -0.0099,-0.0072 -0.01374,-0.02411 v -0.0027 h -0.0027 v -0.0094 l -0.01858,-0.02195 -0.0017,-0.0029 -0.01978,0.007 v 0.0053 l -0.005,0.0021 v 0.0036 l 0.0024,0.0097 -0.0068,0.0053 -0.008,0.02027 -0.007,0.0056 -0.02027,0.0082 v 0.0043 l -0.0034,0.006 -0.01399,0.0063 -0.0017,0.0043 -0.008,0.0039 -0.01713,-0.0022 -0.02147,0.02099 -0.02628,0.0089 -0.0039,0.0036 -0.0058,-0.0022 -0.04101,0.0029 -0.0056,0.0039 -0.0039,0.0075 v 0.0043 l -0.0039,0.0041 h -0.0084 l -0.01134,0.0056 -0.01013,-0.0017 -0.01424,0.0053 -0.0089,0.0036 -0.0046,0.007 v 0.0053 h -0.0051 l -0.006,0.0077 h -0.0092 l -0.0041,0.01037 v 0.0068 l -0.0024,0.0068 -0.01182,0.01109 v 0.0287 l 0.0056,0.0019 0.0053,0.0075 -0.0053,0.01858 0.0031,0.0094 0.0094,0.008 -0.0036,0.0097 -0.01206,0.0068 -0.0017,0.0022 v 0.0094 l -0.01424,0.01302 -0.01351,0.0051 -0.0014,0.01471 -0.007,0.0019 -0.01858,0.0164 -0.0094,0.0031 -0.01446,-0.0022 -0.007,0.01062 -0.0022,0.0036 -0.0164,0.0123 -0.007,0.01447 h -0.0067 v 0.0024 l -0.01182,0.0089 h -0.0039 l -0.0034,0.0022 h -0.0046 v -0.0053 l -0.0051,-0.0017 -0.0024,-0.0053 -0.0063,-0.0041 -0.0046,0.0043 -0.0097,0.0019 -0.01062,-0.006 -0.01737,-0.0014 -0.0094,-0.0068 -0.0123,-0.01905 -0.0065,-0.0046 -0.0048,-0.0084 v -0.0058 h -0.0051 l -0.0063,-0.0046 -0.0152,0.007 -0.0067,-0.007 v -0.0084 l -0.0019,-0.006 -0.02653,-0.01954 h -0.0084 l -0.0063,-0.01109 h -0.007 l -0.0029,-0.0053 -0.0094,0.0012 -0.01302,-0.0048 -0.006,0.0031 -0.01037,-0.0029 h -0.0046 l -0.01062,0.0094 -0.01978,0.0019 -0.0067,0.0065 -0.02195,-0.0017 -0.006,-0.0056 -0.0027,-0.0014 -0.0053,-0.0012 -0.01206,0.01037 h -0.01182 v 0.0056 l -0.007,0.01737 -0.0072,0.0017 v 0.0048 l -0.006,0.0075 v 0.01182 l -0.01157,0.0039 -0.0026,-0.0097 h -0.0111 l -0.03715,0.02412 -0.006,-0.0097 v -0.006 l -0.0041,-0.0012 -0.0036,-0.01351 -0.0048,-0.007 h -0.0022 l -0.0014,-0.0014 -0.0097,-0.0014 -0.01037,0.01374 -0.0029,0.0082 v 0.0053 l -0.0123,0.0058 -0.0017,0.0068 0.0026,0.0043 v 0.0077 0.0063 0.0019 l -0.01882,0.02412 -0.0053,0.01182 v 0.008 l -0.0152,0.01327 v -0.0087 l -0.01062,-0.0087 -0.0099,0.01905 -0.03159,0.01688 -0.0087,0.0019 -0.01254,0.01206 h -0.0065 v -0.01471 h -0.01062 l -0.0043,-0.0034 0.0072,-0.01062 -0.0048,-0.0077 -0.01062,-0.0056 -0.01665,-0.0036 -0.0043,-0.008 -0.0087,-0.0048 0.0012,-0.01134 0.0058,-0.007 0.0019,-0.0065 v -0.0077 l 0.0022,-0.0065 v -0.0062 l -0.0046,-0.006 v -0.01109 l -0.0075,-0.007 h -0.01182 l -0.0056,-0.0048 -0.0022,-0.0089 -0.008,-0.0017 -0.0024,-0.0053 0.0017,-0.0065 -0.0014,-0.0053 h -0.01254 l -0.0012,-0.0043 -0.0092,-0.0068 h -0.0034 l -0.0048,0.0068 v 0.0058 l -0.01182,0.01085 -0.01424,0.0053 -0.0072,-0.0022 -0.01568,0.0014 -0.0152,0.01037 0.0058,0.0048 0.0017,0.0056 -0.0024,0.0051 -0.0099,0.0065 0.0031,0.01665 -0.0019,0.0087 -0.01062,0.01013 -0.02412,0.01109 -0.0058,0.007 -0.01134,0.0019 -0.02847,-0.0205 -0.0077,-0.0024 -0.006,0.0022 -0.0075,0.01302 v 0.0075 l 0.0034,0.0043 -0.0026,0.006 h -0.01858 l -0.0181,0.0043 -0.01134,0.01593 -0.0205,0.01182 -0.0075,0.01279 -0.0087,0.0043 -0.0014,0.0068 -0.01954,0.0022 -0.0031,0.006 v 0.0036 l -0.0051,0.0029 -0.0012,0.0087 -0.01496,0.01882 v 0.01157 l -0.02895,0.0051 -0.0072,0.0065 -0.0094,0.0017 -0.02027,0.01785 h -0.01977 l -0.0058,0.0024 -0.03329,-0.01037 -0.01785,-0.0014 -0.01279,0.01399 -0.02147,0.0029 h -0.0024 l -0.0056,0.0041 -0.01593,0.01374 -0.02412,0.0041 -0.0031,0.0031 -0.02099,-0.0034 -0.0065,0.007 -0.007,0.01833 -0.01616,0.0041 -0.02942,0.01593 -0.0053,0.0084 -0.0152,0.008 -0.0048,0.0072 -0.01471,0.01013 -0.01134,0.0048 -0.01062,-0.0022 0.03209,0.08105 -0.01134,0.008 -0.007,0.01374 -0.030871,0.0039 -0.01302,0.01157 h -0.00531 -0.00772 l -0.00723,-0.006 -0.01399,0.0043 -0.0082,-0.0014 -0.013512,0.01254 -0.00893,0.0031 -0.011341,0.01399 -0.00556,0.01447 -0.010125,0.0094 -0.0024,0.0056 -0.01399,0.0053 -0.015927,0.0017 -0.01134,-0.0029 h -0.014465 v 0.01085 l -0.014236,0.007 -0.011573,0.0123 -0.00675,0.0017 -0.00531,0.0072 -0.00796,0.0031 -0.00337,0.0097 v 0.01012 l -0.012064,0.0063 -0.01665,0.0014 h -0.00218 v 0.006 l -0.0099,0.0012 h -0.00119 l -0.00675,-0.0046 -0.013512,0.0043 -0.012296,-0.0111 -0.016404,0.006 -0.017128,-0.01496 -0.015203,0.0075 -0.020744,0.0051 -0.00482,-0.01182 -0.00628,-0.0036 0.00144,-0.0056 -0.00144,-0.0034 -0.012064,-0.0043 -0.011095,0.0017 0.00289,-0.0097 -0.00289,-0.0084 v -0.0084 l -0.00796,-0.0087 0.00386,-0.0039 v -0.0082 l -0.010849,-0.01062 -0.015926,-0.0048 -0.00965,-0.01085 v -0.0099 -0.0029 l -0.03087,0.0053 -0.00169,0.0014 -0.00409,0.01206 -0.00917,0.01037 0.00386,0.01593 -0.00169,0.01737 0.00459,0.01206 -0.00434,0.01012 -0.00917,-0.0019 -0.012064,0.0053 h -0.031117 l -0.020266,0.01013 -0.024115,0.0019 -0.00434,-0.0017 -0.01302,0.0065 -0.00362,0.0164 -0.00675,0.0065 -0.011818,0.0036 -0.00723,0.007 0.010371,0.0053 -0.0024,0.01374 v 0.0039 l -0.00651,0.0036 -0.00265,0.0063 -0.019543,0.02075 v 0.0092 l 0.00531,0.0077 0.00193,0.01544 0.0024,0.0027 -0.043659,0.0398 -0.00337,0.007 -0.00675,0.0058 -0.010128,0.0058 -0.015927,0.0041 -0.021468,0.01616 -0.00314,0.0077 0.0024,0.01037 0.00434,0.0048 v 0.0072 l 0.00675,0.0084 0.0099,0.006 0.00579,0.01109 0.020744,-0.0051 0.017374,0.0031 0.0082,0.01085 -0.00409,0.0058 0.00265,0.0094 -0.0024,0.01134 -0.00893,0.0072 -0.00845,0.01665 -0.00723,0.0075 v 0.01471 l -0.010849,0.0087 -0.01302,0.0205 v 0.007 l 0.021468,0.03353 -0.0099,0.01882 v 0.0075 l 0.02099,0.0031 h 0.0024 l 0.00723,0.0046 v 0.0022 l -0.00506,0.0089 0.00144,0.01978 -0.00119,0.0027 h -0.00556 l -0.00169,0.01157 v 0.01785 l -0.00531,0.0068 v 0.0077 l -0.00482,0.0024 -0.00579,0.01206 -0.011341,0.0051 -0.00556,0.0099 -0.011572,0.01062 -0.012064,-0.0046 -0.00965,0.0048 -0.00218,0.0022 v 0.01085 l -0.0082,0.0031 v 0.01327 l -0.02099,0.01302 v 0.0058 l 0.00893,0.03281 0.00482,0.0092 0.00723,0.0068 -0.00289,0.01254 0.00362,0.0068 v 0.01279 l 0.013266,0.02725 v 0.01134 l -0.00362,0.0068 0.0024,0.02099 -0.014711,0.02267 0.00409,0.0084 -0.00337,0.0034 0.00506,0.008 -0.00193,0.0046 0.00893,0.0056 0.00314,0.0082 -0.00772,0.0084 v 0.006 l 0.00845,0.01302 -0.00144,0.0065 -0.011818,0.0084 -0.0082,0.01521 v 0.01037 l -0.00218,0.0082 0.00748,0.01616 v 0.02412 l -0.00409,0.01833 -0.00409,0.0058 -0.00409,0.04824 -0.00482,0.0048 0.00748,0.02172 -0.00169,0.0164 0.00506,0.01496 -0.00265,0.01062 v 0.0041 l 0.017852,0.0053 0.00289,0.0087 0.00796,0.0089 -0.00506,0.006 0.0024,0.006 -0.00169,0.008 0.00289,0.01471 -0.011818,0.01037 v 0.01254 l -0.00265,0.0087 0.00265,0.007 0.01399,0.01761 v 0.0077 l -0.00506,0.01037 v 0.0051 l -0.00434,0.0046 0.031117,0.02678 0.00193,0.0022 0.00868,0.0181 v 0.03835 l -0.00289,0.0041 v 0.0046 l 0.024115,0.02412 v 0.0043 l 0.00723,0.01279 0.00748,0.02412 v 0.0039 0.02074 l -0.00459,0.01593 -0.014482,0.0043 -0.011341,0.0084 -0.012296,-0.0022 -0.024115,0.0051 -0.00362,0.0029 -0.00386,0.0099 -0.0082,0.0053 h -0.00169 l -0.015435,-0.0077 h -0.00169 l -0.00675,-0.0063 -0.00675,-0.007 0.00482,-0.006 -7.183e-4,-0.0024 -0.019775,-0.0084 -0.00796,0.0036 -0.00917,-0.0014 v -0.0068 l 0.00796,-0.0111 -0.00289,-0.0084 -0.00409,-0.0041 h -0.0099 l -0.00362,-0.01182 -0.0082,-0.0051 -0.00603,0.0022 -0.00144,0.0089 -0.00386,0.0034 -0.011818,0.0027 -0.00506,-0.0019 -0.00362,0.01279 H 8.575176 l -0.026778,-0.0097 -0.00506,0.0029 -0.00337,0.01279 -0.012788,0.0123 -0.013744,0.0022 -0.00531,0.0048 v 0.0046 l -0.00506,0.0022 -0.00169,0.0089 -0.00579,0.0058 0.00362,0.02412 v 0.0056 l 0.014465,0.007 -0.011818,0.01085 0.014711,0.01616 0.00144,0.0087 -0.00675,0.02412 -0.00603,0.0077 0.00409,0.0097 v 0.02171 l -0.0094,0.01351 v 0.01182 l 0.015435,0.0075 -0.00531,0.01279 0.026054,0.0097 0.010849,0.0082 0.00265,0.0087 0.00723,0.0014 0.00772,0.0058 0.024115,-0.01327 0.00556,0.0022 0.00675,0.0075 0.010125,-0.0024 0.00893,0.0048 0.00531,0.0051 0.00628,0.0181 h 0.011341 l 0.012296,0.01254 0.00723,0.0012 0.010617,0.0065 0.00459,-0.0022 0.00628,0.0027 0.00651,0.01616 0.00628,0.0039 0.00459,0.007 v 0.0164 l 0.00314,0.0041 -0.013512,0.0075 -0.012296,0.01182 -0.018819,0.03087 -0.013266,0.0087 -0.015203,0.0181 H 8.620771 l -0.0082,0.01085 -0.00506,0.01737 -0.00579,0.0087 0.00193,0.0053 -0.00193,0.0053 -0.015435,0.01302 -0.00868,0.0012 -0.0099,0.01109 0.00531,0.01448 -0.00314,0.02411 -0.00723,0.01037 -0.019543,0.01471 -0.033533,0.01302 H 8.490519 l -0.00265,0.0048 -0.016158,0.0089 v 0.007 l 0.01302,0.0014 0.00845,0.0048 0.00651,0.0092 -0.00218,0.01374 0.0082,0.0027 0.00386,0.0063 0.00482,0.0024 -0.00265,0.0056 0.00144,0.0075 h 0.00193 l 0.00265,0.01302 0.00556,0.0022 0.00119,0.0065 0.00337,0.0029 0.00337,0.01471 0.014711,-0.0048 h 0.019543 l 0.014465,0.01134 0.00144,0.01062 -0.00459,0.01448 0.00314,0.0019 v 0.01206 l 0.00337,0.0034 v 0.0084 l 0.00459,0.007 0.00868,0.0058 v 0.0058 l 0.012064,0.0063 0.00482,0.0063 h 0.00459 l -0.0024,0.0084 -0.0082,0.0084 -0.0024,0.01616 0.00603,0.01013 -0.0024,0.01037 0.00723,0.0072 -0.00119,0.01109 0.00337,0.0058 0.00119,0.01496 -0.00337,0.006 -0.00531,0.04414 0.00651,0.01302 -0.012296,0.0123 -0.0094,0.0034 v 0.0077 l -0.00628,0.01012 -0.00169,0.0205 -0.014465,0.01833 v 0.0092 l 0.00409,0.01109 v 0.01206 l -0.00772,0.0046 -0.010617,0.01737 0.00409,0.0092 0.00314,0.01882 -0.00459,0.0031 v 0.0036 l -0.00265,0.0039 -0.00893,0.01206 -0.00675,0.0048 -0.00144,0.0046 v 0.0019 l -0.0024,0.0017 -0.00289,0.0014 h -0.00337 l -0.0094,-0.0024 H 8.511748 l -0.016158,-0.0027 -0.00169,0.008 -0.00796,0.0082 -0.0024,0.01688 0.00651,0.02244 -0.020266,-0.0024 -0.00723,0.0029 -0.00578,0.007 -0.018822,0.0034 -0.00628,0.01206 v 0.0084 l -0.012788,0.02411 -0.00506,0.0036 -0.007,0.02099 -0.022667,0.0072 -0.021714,0.01471 -0.012296,0.0014 -0.018576,-0.0036 -0.010371,0.02919 v 0.01109 l 0.00603,0.0072 v 0.0051 l 0.033286,0.02605 0.00193,0.0065 -0.00337,0.0048 v 0.01327 l 0.00556,0.01761 -0.00265,0.0082 -0.00506,0.0056 -0.00337,0.04246 -0.00409,0.0041 -0.015435,-0.0041 -0.010619,0.0082 -0.00651,0.0017 -0.00482,0.0058 v 0.0053 l -0.00506,0.01206 h -0.00651 l 0.010125,0.01182 -0.00289,0.0097 0.00169,0.01785 -0.00362,0.0014 -0.00965,-0.0031 -0.00748,0.01327 -0.012064,0.01109 v 0.01134 l -0.00193,0.0082 0.00651,0.0063 0.00506,0.01496 0.00434,0.0046 0.00193,0.01182 0.011818,0.0072 0.00531,0.01012 -0.00965,0.008 H 8.284557 l -0.010617,0.0087 -0.00193,0.0043 -0.011095,0.0029 -0.00651,0.0046 -0.00218,0.0068 -0.00723,0.0072 h -0.00482 l -0.012064,0.01085 -0.00409,0.0041 h -0.00144 l -0.02099,0.0075 -0.007,0.01882 -0.00603,0.0031 -0.00628,0.0092 h -0.00482 l -0.00289,0.01665 -0.00628,0.0051 -0.00289,0.01109 -0.00409,0.0053 0.00289,0.01062 h 0.00409 l 0.00434,0.0082 0.00603,0.0046 0.00169,0.0022 0.00845,0.01568 0.00218,0.01206 v 0.0022 0.0043 l -0.00193,0.01182 -0.00603,0.01254 0.00362,0.0089 -0.00531,0.01182 -0.00218,0.0019 -0.00409,0.007 -0.00218,0.0072 -0.00386,0.0029 -0.00193,-0.0036 -0.00651,-0.0036 -0.00556,0.008 -0.017128,-0.0029 -0.024115,0.01206 -0.00651,0.0017 -0.00556,-0.0034 -0.00243,0.01593 0.00386,0.0077 0.012788,0.0048 -0.00337,0.0111 0.00603,0.007 -0.01665,0.01447 -0.00144,0.0019 v 0.0056 l -0.00337,0.0036 -0.00434,0.01302 h -0.00434 l -0.00409,0.01182 0.0094,0.0075 0.00531,0.0024 0.00917,0.01037 0.013512,0.0029 0.00289,0.0048 h 0.0099 l 0.00531,-0.0056 0.014465,-0.0019 0.011818,0.01062 v 0.0053 l 0.0024,0.0012 -0.00409,0.01012 0.00144,0.0077 -0.00337,0.007 0.00218,0.0084 -0.0082,0.0084 -0.00193,0.01206 h 0.00289 l 0.00314,0.008 h 0.00459 l 0.00868,0.0084 0.00265,0.0092 0.00893,0.0019 0.00965,0.0092 0.013512,0.0029 -0.00917,0.02895 -0.00506,0.0043 0.00193,0.0039 v 0.01012 l 0.013266,0.0123 0.00965,-0.0036 0.01399,0.008 h 0.0099 l 0.00193,0.0041 v 0.0089 l 0.00531,0.0019 0.0024,0.0043 v 0.0043 l 0.00265,0.0123 h 0.00459 l 0.00386,0.0181 -0.017606,0.0056 H 8.229596 l 0.00122,0.0046 -0.00386,0.0092 0.00144,0.006 -0.00218,0.0072 -0.011095,0.0082 v 0.006 l -0.00531,0.01037 v 0.0087 l 0.00796,0.0034 0.00651,0.01013 -0.00337,0.01085 -0.0094,0.01399 v 0.01882 l 0.00748,-0.0024 h 0.019051 l 0.00651,-0.0077 0.00434,0.0077 0.0082,0.0065 0.00144,0.0058 0.00748,0.0046 0.00386,-0.0034 h 0.00796 l 0.00289,0.0031 0.00579,-0.0027 0.00482,0.0094 v 0.01254 l -0.00675,0.0058 0.00459,0.0205 -0.00265,0.01134 0.00215,0.0072 -0.00289,0.0092 0.00459,0.0043 v 0.01688 l 0.00603,0.0027 h 0.010617 l 0.00386,0.0068 h 0.011095 v 0.0039 l 0.016158,0.01182 h 0.011095 l 0.00796,0.01182 0.014711,0.0084 h 0.007 l 0.00482,-0.0053 h 0.010849 v 0.0075 l 0.00603,0.0082 v 0.0036 l 0.00868,0.0053 0.00409,0.0082 0.00579,0.0019 0.00748,-0.0017 0.00386,0.0046 0.007,0.0019 0.00434,0.0082 0.00845,-0.0056 0.00482,0.01424 0.00651,0.0099 0.011341,0.01013 0.00337,0.01012 0.01302,0.0065 0.024115,0.0063 -0.00845,0.01737 0.00169,0.0036 v 0.01085 l 0.00386,0.0084 v 0.0072 l -0.00893,0.006 -0.024115,0.0077 H 8.455804 l -0.00289,0.01616 -0.0094,0.0034 -0.00169,0.01109 -0.00893,0.01134 0.011572,0.01882 0.00289,0.01521 -0.00362,0.007 v 0.01206 l -0.00506,0.0089 0.013512,0.01037 0.00578,0.0077 0.024115,-0.0053 0.00675,0.01134 0.012542,0.0043 0.012064,0.0092 h 0.00169 l 0.026532,-0.0056 0.00965,0.0089 0.00556,0.0089 0.011819,0.0094 0.00723,0.01182 v 0.0087 l -0.014957,0.0077 -0.011573,0.0051 -0.010619,-0.006 -0.011341,0.01012 -0.01302,0.0058 -0.00723,0.02412 -0.00796,0.0056 -0.012064,-0.006 -0.00434,-0.0068 -0.01399,0.0029 -0.0082,0.01954 -0.00265,0.01496 -0.016158,0.01785 0.00193,0.0029 -0.00218,0.008 -0.018576,0.02411 -0.00169,0.01085 h -0.00965 l -0.010371,0.0046 -0.010125,0.0087 -0.00243,0.0094 0.00723,0.0205 h 0.02099 v -0.0031 l 0.00845,0.01616 0.021468,0.01302 0.00772,0.0097 -0.010849,0.01593 -0.020021,0.008 H 8.409003 l 0.00144,0.01399 -0.00289,0.0065 0.00144,0.0043 h 0.00651 l 0.011572,0.0056 v 0.0099 l 0.00482,0.0034 -0.00409,0.0072 v 0.0029 l -0.00459,0.0014 -0.00556,0.01157 -0.00265,0.01374 -0.00675,0.01013 v 0.0058 l 0.00362,0.0082 -0.00409,0.0075 -0.0082,0.0048 -0.00169,0.01882 0.01833,0.0034 0.00144,0.0082 0.00965,0.0053 0.00386,0.006 0.010617,-0.0019 0.00482,0.006 0.00748,0.0029 h 0.011573 l 0.013512,-0.01206 0.012064,0.0024 0.00409,0.0099 0.024115,0.0036 0.010125,0.0046 0.011341,-0.0019 0.00723,0.0041 v -0.0048 h 0.00675 l -0.00506,0.01593 h 0.00556 l 0.00482,0.0068 v 0.006 l -0.00337,0.0046 0.00169,0.0092 -0.012788,0.01374 v 0.01157 l 0.00796,0.0087 0.00893,0.0039 0.011573,-0.0012 0.00556,0.0031 -0.017606,0.0181 0.00144,0.0039 -0.00434,0.0063 -0.0094,0.0041 v 0.0089 l -0.00434,0.0051 v 0.0068 l -0.018576,0.01013 0.0082,0.02411 -0.00917,0.01399 v 0.0041 l 0.00506,0.0046 v 0.0048 l -0.00772,0.0058 -0.00772,0.01737 -0.014957,0.0092 -0.00265,0.0072 -0.00434,0.01302 -0.011095,0.0077 v 0.0082 l -0.00531,0.01833 -0.014236,0.01206 -0.017374,0.007 -0.00144,0.01013 -0.013512,0.0031 0.00218,0.0031 v 0.01182 l 0.0082,0.0036 0.00193,0.0039 -0.00218,0.01134 -0.010617,0.01012 0.00314,0.0084 v 0.0072 l 0.013512,0.01399 0.00434,0.02412 0.0094,0.01157 0.00531,0.01134 v 0.0065 l -0.0082,0.0097 v 0.01062 l 0.0094,0.01471 -0.00409,0.0092 0.0094,-0.0036 0.01665,0.0034 0.027977,-0.01448 0.010125,-0.0092 0.016158,0.0046 0.00506,0.0043 0.014236,-0.006 h 0.014236 l 0.00506,-0.0053 0.00868,0.0017 h 0.033764 l 0.027499,0.02171 0.01399,0.0046 0.00265,0.01134 0.00893,0.01858 0.024115,0.01157 0.020744,0.01688 0.030639,0.0082 0.00556,0.0077 0.0082,0.0046 0.012064,0.01327 0.00459,0.0123 0.012788,0.0082 h 0.00965 v 0.007 l 0.012542,0.0036 0.00531,-0.0082 0.024115,0.007 0.026532,-0.008 0.00893,0.0027 0.00337,0.0043 h 0.012296 l 0.00772,0.0099 -0.00144,0.0043 0.00386,0.007 -0.00218,0.0068 h 0.007 l -0.00169,0.01447 0.018576,0.0024 0.00578,0.0077 v -0.01616 l 0.00675,-0.0099 0.00651,-0.0027 0.015435,0.0039 -0.00218,0.01013 0.00409,0.0065 h 0.00651 l 0.00119,0.0048 0.00556,0.0017 h 0.00556 l 0.00628,-0.0053 0.012296,0.0056 0.00386,0.0063 -0.00144,0.0051 0.00845,0.008 0.00748,-0.0041 0.00506,0.0068 0.011095,-0.0017 0.010619,0.0068 0.00628,0.0077 0.00506,0.0017 0.00144,0.01447 h 0.00893 l 0.00434,0.0039 0.00169,0.01351 0.00965,0.01109 h 0.00409 v 0.0077 l 0.00506,0.0099 -0.00628,0.01062 0.013266,0.0036 0.00193,0.0048 0.00772,0.0029 v 0.0056 l 0.00796,0.0012 0.00169,0.0087 0.011818,0.006 -0.00628,0.0046 0.0094,0.01447 0.014957,0.0036 0.011818,-0.0099 0.00386,-0.01351 0.00314,-0.0022 h 0.00893 l 0.00651,-0.0039 0.00409,0.0014 0.00772,0.01013 h 0.00386 l 0.00651,-0.0087 0.00651,-0.0029 0.00482,0.0036 h 0.00506 l 0.013512,-0.01327 0.012788,-0.007 h 0.00265 v 0.0099 l -0.00169,0.0019 0.00506,0.0089 h 0.00386 l 0.00434,-0.0087 0.014465,-0.0022 0.00603,0.01085 0.00362,0.0017 0.00119,0.0058 -0.00169,0.0043 0.00651,0.0029 0.00265,-0.0017 0.00459,0.0036 0.010371,-0.0027 0.010371,0.0036 0.0082,-0.0099 -0.00169,-0.0027 v -0.0017 l 0.00531,-0.0046 h 0.00409 l 0.010125,-0.0094 0.00603,0.0063 0.012542,-0.0017 0.011818,-0.0072 0.024115,0.01037 0.00748,-0.0027 0.011095,0.01013 0.014236,-0.0075 h 0.00603 l 0.00218,-0.0056 0.010125,-0.0046 h 0.011818 l 0.0094,-0.01593 0.0053,-0.0017 0.01688,0.01254 h 0.01279 v 0.0164 l 0.01568,0.01302 0.0084,-0.0046 0.01279,0.0024 0.0022,-0.0043 h 0.0048 l 0.0019,-0.0056 h 0.0046 l 0.0022,0.0027 0.01593,-0.0019 0.0043,0.0041 h 0.01374 l 0.0193,0.01037 0.01351,-0.0022 0.0068,0.01568 0.0036,0.0046 0.0014,0.0077 0.008,0.0046 -0.0014,0.0193 v 0.0058 l 0.0026,0.0014 0.0012,0.01206 -0.0043,0.0068 0.0029,0.0084 -0.02147,0.02219 -0.006,0.01279 -0.01713,0.0096 -0.0077,0.01254 v 0.0089 l -0.0152,0.01206 -0.007,0.0041 -0.0084,0.0036 -0.0123,-0.0036 -0.0111,-0.0084 -0.01206,0.0031 -0.01013,-0.0024 -0.0043,0.0024 v 0.0097 l -0.0041,0.0068 -0.0019,0.01085 0.0024,0.0094 h 0.0048 l -0.0034,0.0072 0.0039,0.01593 0.0046,-0.0077 0.0068,-0.0027 0.02412,0.01085 0.0053,-0.0094 0.008,-0.0048 h 0.0024 l 0.0084,0.0034 0.0072,0.01471 -0.0068,0.0092 v 0.01206 l 0.01496,0.0024 0.0058,0.01327 h 0.01761 l 0.0058,-0.0051 0.0077,-0.0014 0.0082,0.0092 -0.0046,0.01496 -0.0012,0.05211 -0.006,0.01977 0.01085,0.01351 0.01399,0.0094 v 0.0027 h 0.0058 v -0.0065 h 0.0092 l 0.0072,0.0075 0.01302,0.0053 h 0.0058 l 0.0053,0.0048 0.0092,-0.0022 0.01206,0.01327 v 0.0053 h 0.0034 l 0.0029,-0.0012 0.0041,-0.0053 0.0072,0.0029 0.0019,-0.01134 h 0.0072 l 0.0099,-0.0046 0.0056,-0.0097 0.01785,0.01954 0.01737,0.0099 0.01206,0.0014 0.0051,0.0053 0.0017,0.0068 0.0099,0.0099 0.0065,0.0056 0.01037,0.0024 0.0039,0.01013 v 0.02002 l 0.0039,0.0039 -0.0039,0.01062 v 0.007 l 0.006,0.01085 0.0065,0.0017 0.0065,0.0075 0.0082,0.01374 0.05739,0.0025 0.01085,-0.0056 v -0.01157 l -0.02412,0.0022 v -0.0043 l 0.02027,-0.01471 h 0.0039 v 0.0036 l 0.01616,-0.0019 v -0.0085 l 0.02074,-0.0022 v -0.0084 l 0.01665,-0.0017 0.0046,0.0051 0.008,-0.006 0.0026,-0.0036 -0.0056,-0.01905 v -0.0164 l 0.0072,-0.01351 v -0.0092 l 0.0164,-0.01688 -0.0017,-0.0041 0.0022,-0.01882 -0.0014,-0.0058 0.0046,-0.0034 0.0087,0.0036 0.0058,-0.0039 v -0.02002 l 0.0056,-0.0041 0.006,-0.01157 0.0082,0.0041 v 0.0068 l 0.01037,0.0019 0.0075,0.0053 0.0063,-0.0051 v -0.0056 l 0.0094,-0.01037 0.01713,0.006 0.0053,-0.0012 0.0024,0.0043 0.01544,0.008 h 0.02244 l 0.0012,-0.0029 -0.0026,-0.01351 -0.0065,-0.0051 0.0019,-0.0031 v -0.0029 l 0.0041,-0.0063 -0.0039,-0.0063 0.0019,-0.0063 0.01351,-0.01568 -0.0031,-0.0075 0.0039,-0.0034 v -0.02027 l -0.0031,-0.0123 0.0075,-0.0056 v -0.006 h 0.01544 l 0.0077,-0.0043 h 0.0022 l 0.0022,0.0039 0.0092,0.01521 0.01012,0.0056 0.0019,0.0065 0.01279,0.0048 0.0123,0.0094 v 0.0099 l 0.0041,0.0034 0.0024,0.0072 h 0.0087 l 0.0046,0.0034 0.0084,-0.0012 0.0017,-0.0029 -0.0017,-0.0063 h 0.01037 l 0.0111,-0.0051 -0.0027,-0.0089 h 0.0092 l 0.0092,0.0068 h 0.0111 l 0.0019,0.0014 v 0.0068 l 0.0075,0.0031 h 0.008 l 0.0051,-0.0039 0.0082,0.006 0.0084,0.0017 0.0034,0.01327 0.0092,0.007 0.01206,0.02533 h 0.0041 l 0.01037,-0.01037 0.01062,-0.0056 h 0.0048 l 0.0046,0.0065 0.0123,-0.0065 0.0058,0.0063 0.006,0.0123 0.0022,0.01206 -0.0048,0.007 v 0.0022 l 0.02847,0.0065 0.01616,0.01157 0.0043,-0.0031 h 0.0087 l -0.0019,0.0068 h 0.0043 v 0.02002 l -0.0092,0.01882 -0.0084,0.0084 0.0014,0.0046 v 0.0041 0.0029 l -0.0036,0.0063 0.0012,0.0029 0.01254,-0.0012 0.01399,-0.01109 h 0.01085 l 0.0068,-0.0034 v -0.01157 l -0.0058,-0.01327 0.0017,-0.008 0.01157,-0.0063 h 0.01399 v -0.0058 l 0.0039,-0.0041 0.01279,0.0031 0.0029,-0.0029 0.0065,0.0041 0.0051,-0.01157 v -0.0029 l -0.0034,-0.0051 -0.0092,0.0014 -0.01062,-0.02002 0.0024,-0.0041 -0.0012,-0.0063 0.0043,-0.0072 -0.0014,-0.006 0.0096,-0.01544 -0.0014,-0.01616 -0.0094,-0.008 -0.0063,0.0041 -0.0065,-0.0164 0.0077,-0.0065 0.0029,0.0041 h 0.0051 l 0.01085,-0.0072 0.01012,0.0063 0.01761,0.0034 0.01544,-0.0058 0.0097,0.0039 0.01374,-0.01254 0.0012,-0.0053 -0.01446,-0.0046 -0.0048,-0.0089 0.0051,-0.01471 -0.0084,-0.02411 v -0.01327 l -0.0058,-0.0056 -0.0012,-0.01954 0.01496,-0.04029 0.0087,-0.01157 0.02074,-0.01206 0.0072,-0.01496 -0.0063,-0.0065 -0.02725,-0.0082 -0.0097,-0.0089 0.0043,-0.0123 -0.0039,-0.0051 -0.0056,-0.01833 -0.0014,-0.01713 0.0094,-0.01399 0.01496,-0.0087 0.008,-0.01037 0.01616,-0.0077 0.0039,-0.01134 -0.006,-0.0123 0.0031,-0.01109 0.01302,-0.0041 0.007,-0.01062 0.01665,-0.0089 0.0072,-0.0087 0.0089,-0.0029 0.006,-0.0087 0.01302,-0.0099 0.0039,-0.01568 0.0046,-0.008 v -0.008 l -0.0089,-0.01085 0.0065,-0.0082 0.0022,-0.0089 -0.0072,-0.0097 v -0.0056 l -0.0089,-0.01979 -0.0029,-0.0089 0.0019,-0.0034 -0.0019,-0.01062 0.01593,-0.03353 0.0027,-0.01978 -0.0048,-0.0058 0.0123,-0.02122 -0.01206,-0.0077 -0.0029,-0.01327 0.0029,-0.0089 -0.0048,-0.02412 v -0.0034 l -0.0063,-0.0075 -0.0043,-0.01977 -0.0056,-0.0077 0.0063,-0.01713 -0.0046,-0.01254 0.007,-0.0123 -0.0014,-0.0075 0.0034,-0.0034 0.0012,-0.01157 0.0048,-0.0041 0.0039,-0.01182 0.008,-0.0056 0.01833,0.0017 0.01327,-0.0068 0.01351,0.0014 0.0056,-0.01182 h 0.0019 0.0051 l 0.02412,0.0043 -0.0056,0.01279 0.02099,0.02798 0.04366,-0.01688 0.01206,0.0024 0.0068,-0.0039 0.0041,0.0019 0.0123,-0.0046 0.01688,0.006 0.01182,-0.0041 0.01037,0.008 0.02171,-0.0089 0.0056,0.0046 0.0075,0.01543 0.01085,0.01521 0.0181,0.0019 0.01013,-0.0077 h 0.01134 l 0.01688,0.0072 0.02967,0.0024 0.0084,0.0034 h 0.0027 l 0.02219,0.02244 0.0022,0.0017 0.01351,0.0092 0.0072,0.01109 0.0077,0.0051 0.0024,0.0012 0.01858,0.0084 h 0.0034 l 0.0087,-0.0012 v -0.0048 l 0.0053,-0.0031 v -0.0051 l -0.0094,-0.0053 v -0.0031 l -0.0068,-0.0024 -0.0027,-0.0043 v -0.0046 l -0.0017,-0.0099 h -0.0053 v -0.0056 l 0.0017,-0.0043 V 38.466 l -0.0022,-0.0039 0.0082,-0.01013 h 0.0046 l -0.0031,-0.0041 h 0.0014 l 0.0029,-0.0014 v -0.0019 l -0.0024,-0.0024 h 0.0019 v -0.0024 -0.0031 l -0.0072,0.0027 v 0.0029 h -0.0031 l -0.0065,-0.0039 h 0.0031 l -0.0017,-0.0039 h -0.0031 l -0.0027,-0.0046 0.01954,-0.0051 -0.01399,-0.0181 0.0048,-0.0046 0.01037,-0.0089 0.03209,-0.01351 0.01978,-0.0019 h 0.0024 v 0.0043 h 0.0087 0.0034 l -0.0041,-0.0039 0.02558,0.0019 v 0.0027 l 0.0058,0.0012 v -0.0017 l 0.0051,0.0034 -0.0056,0.0048 0.0027,0.0029 -0.0048,0.0072 0.0014,0.0027 0.0068,-0.0019 0.0022,-0.0058 h 0.0041 l 0.0094,-0.01206 0.0034,-0.0014 0.0046,-0.0014 0.01157,0.0043 0.01593,0.01085 0.0056,0.0072 0.0027,0.0031 v 0.0024 l 0.0039,-0.0019 0.0097,0.007 h -0.0019 l 0.01446,0.0046 h -0.01085 l -0.0046,0.0027 0.0022,0.0063 h -0.0058 l 0.0027,0.0019 h -0.0051 v -0.0031 l -0.0058,0.0068 h -0.01351 l -0.0065,0.01568 -0.007,0.0014 v -0.0036 l -0.006,0.0043 -0.0019,0.0094 0.0051,0.0082 -0.0022,0.007 h -0.0027 l -0.0036,0.0056 0.0068,0.0043 0.0034,0.0089 -0.0039,0.0053 0.0022,0.008 0.0063,-0.0034 0.0056,0.0046 v 0.0063 l 0.01713,0.0053 v 0.0031 l -0.0077,2.73e-4 -0.0019,0.006 0.02195,-0.0017 0.007,0.0048 v 0.0043 0.0039 h 0.0014 l 0.01157,0.0048 v 0.0056 l -0.0048,0.0046 h 0.0024 v 0.0043 l -0.0056,0.0022 0.0058,0.0019 0.0014,0.0041 v 0.0034 l -0.0027,0.0014 0.0017,0.0012 -0.0014,0.0017 h -0.0048 l 0.0014,0.0034 v 0.0017 l 0.0034,-0.0019 0.0029,0.0024 h 0.0031 l 0.0051,0.0014 -0.0019,0.0099 h 0.0039 v 0.0039 l -0.0077,0.0068 h -0.0039 v 0.01134 l 0.0019,0.0024 h 0.0031 v 0.0027 l 0.0039,0.0024 h 0.0029 l 0.0022,-0.0017 v -0.0019 l 0.0063,-0.0039 h 0.0043 l 0.0022,0.0029 0.006,0.0082 -0.0089,0.0063 h 0.0019 v 0.0024 h 0.0031 l -0.0031,0.0043 h 0.0024 l 0.01109,-0.0019 0.0036,0.0046 -0.0043,0.0024 -0.0027,0.0022 v 0.0031 h 0.0039 0.0084 0.0017 0.0024 0.0022 l -0.0017,-0.0017 h 0.0039 v -0.0041 l 0.0051,-0.0027 h -0.0051 v -0.0043 l -0.0075,-0.0034 0.0017,-0.0077 0.0072,0.0012 0.01207,-0.0019 v -0.0024 l 0.0027,0.0019 v -0.0029 h 0.0077 l 0.0024,-0.0022 -0.0036,-0.0031 v -0.0031 l 0.0063,0.0012 -0.0075,-0.0084 -0.0039,-0.0014 v -0.0034 l 0.0072,-0.0031 h 0.0027 l 0.0034,0.0022 0.0046,-0.0017 v -0.0017 l 0.0039,-0.0022 0.0053,-0.0012 0.0056,0.0077 0.0034,0.0019 0.0027,-0.007 h 0.0039 v -0.0024 0.0029 l 0.0029,0.0014 0.0041,-0.0019 0.0012,-0.0017 -0.008,-0.0046 0.0031,-0.0027 h -0.0031 l 0.0027,-0.0012 h 0.0017 l 0.0022,-0.0024 v -0.0022 h -0.0024 -0.0034 -0.0024 v -0.0029 h -0.0022 l -0.0029,-0.0029 0.0029,-0.0036 v 0.0039 l 0.0017,-0.0034 v -0.0075 h -0.0019 l -0.0041,-0.0019 0.0029,-0.0046 -0.0019,-0.0027 0.0024,-0.0019 -0.0017,-0.0022 -0.0036,-0.0024 -0.0056,-0.0046 h -0.0024 v 0.0029 l -0.006,-0.0017 0.0014,-0.0041 -0.0041,-0.0027 0.0034,-0.0019 -0.0029,-0.0017 -0.0017,-0.0022 -0.0017,0.0029 -0.0048,-0.0019 -0.0027,-0.0022 -0.0024,-0.0024 -0.0019,0.0029 h -0.0022 -0.0014 -0.0017 -0.0031 -0.0058 l -0.0041,0.0027 0.0014,0.0058 h -0.01013 v 0.0068 l -0.0075,0.0089 0.0017,-0.0046 -0.0039,-0.0063 -0.0065,-0.0022 0.0019,-0.0053 -0.0048,-0.0022 -0.0048,-0.01013 v -0.0075 l 0.0072,-0.0027 h -0.0034 l 0.0014,-0.0027 -0.0024,-0.0022 0.0046,-0.0029 v -0.0075 h 0.0043 v 0.0024 l 0.0053,0.0012 v -0.0024 l -0.0027,-0.0017 0.0034,-0.0039 h 0.0034 l 0.0039,0.0046 -0.0019,-0.0043 0.0027,-0.0022 h 0.01157 0.0048 l -0.0039,-0.0036 h 0.0024 l -0.0022,-0.0043 v -0.0041 l -0.0019,-0.007 0.0031,-0.0034 v -0.0036 l -0.0022,-0.0029 0.0068,0.0039 v 0.0041 l 0.0048,0.0017 0.0017,-0.0019 0.0027,0.0034 0.0041,0.0058 0.0014,0.0014 0.0065,-0.0053 h -0.0024 l -0.0014,-0.0043 0.0017,-0.0019 -0.0014,-0.0012 -0.0031,-0.0012 -0.0022,-0.0014 h -0.0024 v -0.0041 -0.0043 l 0.0014,-0.0034 v -0.0036 l -0.0019,-0.0012 v -0.0043 l -0.0043,-0.0024 0.0024,-0.0046 -0.007,-0.0058 v -0.0046 -0.0019 -0.0051 l 0.0036,-0.0034 0.01351,-0.0029 v 0.0063 h 0.0065 l 0.0087,0.0027 v 0.0036 l 0.0053,0.0087 0.0022,0.0068 -0.0014,0.0056 h -0.0029 v 9.67e-4 l 0.0012,-0.0019 h 0.0039 l 0.0022,-0.0051 0.008,0.0019 v -0.0031 h 0.0019 v -0.0022 l 0.0024,-0.0027 0.0034,0.0036 -0.0031,0.0029 0.0041,0.0031 0.0034,-0.0017 -0.0017,-0.0014 0.0019,-0.0024 0.0041,0.0014 h 0.0017 v 0.0036 l 0.0022,0.0043 0.0046,-0.0024 0.0014,0.0024 h 0.0022 l 0.0027,-0.0022 0.0017,0.0012 v -0.0034 h 0.0034 l 0.0014,0.0017 0.0046,0.0051 h 0.0022 v 0.0046 l 0.0031,0.0029 0.0027,-0.01012 h 0.0034 l -0.0014,-0.0077 h 0.0029 v -0.0046 -0.006 h -0.0019 l -0.0029,-0.0034 v -0.0027 h -0.0022 l 0.0022,-0.0012 -0.0024,-0.0014 0.006,-0.0036 0.0017,-0.0029 v -0.0027 l -0.0029,-0.0012 h -0.0034 -0.0022 l 0.0022,-0.0056 -0.0019,-0.0012 -0.0075,-0.0029 -0.0027,-0.0022 0.0014,-0.0031 -0.0034,0.0029 v -0.0053 l 0.0017,-0.0094 v -0.0029 l -0.0022,0.0012 -0.0029,-0.0014 -0.0043,-0.0089 0.0019,-0.0024 -0.0029,-0.0012 -0.0017,-0.0017 -0.0012,-0.0012 -0.0022,-0.0029 v -0.0048 h -0.0024 l -0.0024,-0.0024 v -0.0027 -0.01543 0.0034 h -0.0056 l -0.0043,0.0019 -0.0029,-0.0024 v -0.0058 h -0.0031 -0.0019 v -0.0022 l -0.0034,-0.0046 -0.0039,-0.0031 -0.0017,-0.0029 h -0.0034 l -0.0063,0.0056 0.006,0.0041 -0.0027,0.0053 v 0.0053 l -0.0077,0.0065 0.006,-0.0077 v -0.0065 l -0.0072,-0.0043 v -0.0051 -0.0029 l -0.0031,-0.0022 v 0.0027 l -0.0051,0.0031 v 0.0123 h -0.0017 l -0.0031,-0.0082 0.0056,-0.01327 -0.0077,-0.0063 -0.0051,-0.0034 -0.0029,0.0019 -0.0068,-0.0075 0.0014,-0.006 0.0039,-0.0019 0.0014,-0.0024 0.0024,-0.0019 0.0014,-0.0046 0.0051,-0.0017 v -0.0053 -0.0024 l 0.0029,-0.0022 0.0024,-0.0022 0.0019,-0.0087 0.0152,-0.0084 0.0029,-0.0058 h -0.0014 l 0.0029,-0.0036 0.0046,-0.0097 -0.0022,-0.01977 -0.0014,-0.0082 -0.0036,-0.0056 -0.0017,-0.01157 h 0.0036 v -0.0065 l -0.0041,-0.0019 v -0.0041 -0.0048 l 0.0058,-0.0017 0.0051,-0.02219 -0.0048,-0.0058 -0.0089,-0.01109 0.0027,-0.0027 0.0075,0.0084 0.01037,-0.01012 -0.0048,-0.0056 0.0087,-0.01157 0.0077,0.0053 0.0014,0.0041 h 0.0019 l 0.0022,0.0048 0.0014,0.0046 0.0058,0.007 h 0.0056 v 0.0043 h 0.0046 l -0.0017,0.0063 h -0.0019 l -0.0048,0.01858 -0.0046,-0.0014 -0.0029,0.01037 0.006,0.0014 -0.0058,0.0039 v 0.0039 l 0.0031,0.0089 h 0.0039 l 0.0097,-0.01496 h 0.0034 v 0.0056 l 0.0034,0.0017 v 0.0077 l -0.0084,0.0065 h -0.007 v 0.0031 l 0.0031,0.0024 -0.01085,0.0094 0.0019,0.01085 0.0046,-0.0041 0.0031,0.01351 0.0063,0.0084 v 0.0024 l -0.0048,-0.0019 -0.0017,0.0048 h 0.0036 l 0.0019,0.0041 -0.0041,0.0048 -0.0031,-0.0024 -0.0043,0.0031 h -0.0053 l -0.0058,0.0075 v 0.0036 h 0.0072 l 0.0039,-0.0056 h 0.0019 v 0.0056 l 0.0084,-0.0027 0.0014,0.0014 -0.0017,0.0024 0.0031,0.0051 -0.0022,0.0031 -0.0096,-0.0029 -0.0031,0.0046 h -0.0039 v 0.0036 l -0.0036,0.0029 h -0.0111 v 0.0043 l 0.0014,0.0058 0.0017,0.0046 0.0077,0.0056 0.0027,0.0012 0.0019,0.0012 v 0.0046 -0.0058 h 0.0041 l 0.0029,0.0022 0.0029,-0.0031 0.0063,0.0043 0.0022,-0.0012 V 38.31 l 0.0029,0.0027 0.0019,-0.0027 h 0.0027 l 0.0014,-0.006 0.0087,-0.0019 0.0027,0.0024 0.0024,0.0031 v 0.0022 h 0.0027 v 0.0024 0.0019 l 0.0029,0.0019 v 0.0041 0.0017 l 0.0034,0.0012 0.0024,0.0012 v -0.0056 h 0.01279 l 0.0019,0.0017 -0.0036,0.0012 h 0.0027 l -0.0014,0.0039 h 0.0036 0.0019 l 0.0022,-0.0022 0.0014,-0.0017 0.0053,0.0019 0.0046,0.0068 v -0.0056 l 0.0082,-0.0019 h -0.0056 v -0.0022 h 0.0072 l 0.0027,-0.0027 0.0039,-0.0094 h -0.0051 v -0.0019 l -0.0022,-0.0036 0.0019,-0.0014 h 0.0041 v -0.0041 -0.0041 h 0.0034 v -0.0034 l -0.0019,-0.0039 h 0.0036 0.0024 l -0.0014,-0.0034 -0.0017,-0.0022 0.0031,-0.0063 0.0043,0.0046 0.0029,0.0024 v -0.0029 l -0.0014,-0.0041 v -0.0034 -0.0024 -0.0022 h 0.0046 l -0.0043,-0.0019 0.0017,-0.0019 0.0029,-0.0014 0.0048,0.0034 v 0.0031 h 0.0022 0.0019 v 0.0039 l 0.0029,0.0022 0.0029,0.0041 0.0039,0.0039 h 0.0024 l 0.0024,0.0048 h 0.0027 0.0036 l 0.0031,0.0019 0.0019,0.0017 V 38.288 38.2858 h 0.0027 l 0.0017,0.0031 0.0012,-0.0022 V 38.284 h 0.0024 v -0.0031 l -0.0027,-0.0029 0.0027,-0.0017 v -0.0022 l 0.0017,-0.0063 h 0.0046 0.0024 l 0.0014,-0.0017 v -0.0048 h 0.0024 0.0043 v 0.0041 h 0.0022 v -0.0027 l 0.0027,-0.01013 v -0.0024 l 0.0012,-0.0058 h 0.0065 l 0.0022,-0.0097 h -0.0039 l 0.0068,-0.0031 0.0027,-0.0056 0.0019,0.0022 0.0051,0.0065 -0.0031,0.0075 h -0.0034 l 0.0051,0.0046 -0.006,0.0096 -0.0029,0.0056 v 0.0034 l 0.0014,0.0024 -0.0039,0.0046 -0.0017,0.0024 v 0.0031 0.0031 0.0024 h 0.0031 v 0.0082 l 0.0029,0.0019 v 0.0029 h 0.0027 v 0.0027 l 0.0027,0.0019 v -0.0036 h 0.0022 l 0.0029,0.0027 v 0.0029 h 0.0036 v 0.0029 h 0.0022 0.0027 l 0.0022,-0.007 h 0.0017 0.0043 v -0.0022 l 0.0043,-0.0031 0.007,0.0051 h 0.0019 v -0.0019 h 0.0031 l 0.0041,0.0039 h 0.0014 l 0.0053,0.0056 0.0014,0.0012 0.0017,-0.0014 0.0024,-0.0022 v 0.0039 l 0.0051,-0.0056 v 0.0075 l 0.0022,0.0017 v -0.0031 l 0.0012,0.0039 0.0048,-0.008 0.0014,0.0014 h 0.0017 l 0.0012,-0.0019 v -0.0058 h 0.0041 0.0022 l 0.0019,-0.0019 0.0024,-0.0041 0.0051,0.0046 0.0019,0.0014 0.0036,-0.0022 v 0.0034 h 0.0099 v 0.0022 h 0.0065 0.0027 0.0036 0.0017 l 0.0092,-0.0024 -0.0022,-0.0014 0.0029,-0.0017 0.0034,0.0017 0.0031,0.0014 0.0039,-0.0058 0.0039,0.0024 h 0.0068 0.0027 0.0034 0.0019 l 0.0036,-0.0024 0.0022,-0.0017 h -0.0022 l 0.0017,-0.0019 -0.0014,-0.0022 h 0.006 0.0041 l 0.0017,-0.0029 h -0.0058 l 0.0019,-0.0024 -0.0041,-0.0024 h -0.0024 l 0.0053,-0.0036 h -0.0041 l 0.0027,-0.0031 -0.0027,-0.0014 0.0024,-0.0012 h -0.0034 l -0.0024,-0.0077 h -0.0024 l 0.0048,-0.0051 -0.0024,-0.0022 h -0.0014 l -0.0027,-0.0019 -0.0022,-0.0014 h -0.0029 -0.0043 v -0.0034 h -0.0034 l 0.0024,-0.0034 -0.0051,0.0024 0.0014,-0.0048 -0.0024,0.0031 v -0.0053 l -0.0029,0.0041 -0.0041,-0.0019 h -0.0027 v -0.0048 h -0.0039 -0.0024 v -0.0039 0.0031 l -0.0034,-0.0039 -0.0017,-0.0014 h -0.0034 -0.0017 l -0.0027,0.0019 0.0014,-0.0051 -0.0034,-0.0014 -0.0017,0.0017 v -0.0029 l -0.0075,-0.0029 -0.006,0.0012 0.0014,-0.0022 h -0.0058 l 0.0019,-0.0024 h -0.0075 l -0.0017,-0.0022 h -0.0027 l 0.0012,-0.0034 -0.0068,-0.0012 -0.0036,-0.0046 h -0.0043 -0.0029 l -0.0017,-0.0029 -0.0036,-0.0082 0.0024,-0.0022 0.0017,-0.0051 v -0.0048 0.0027 h -0.0031 l -0.0022,-0.0043 -0.0039,0.0022 v -0.01374 l 0.0031,-0.0036 h 0.0022 0.006 0.0029 v -0.0034 h 0.0031 l 0.0048,0.0012 h 0.007 l 0.0019,0.0027 0.0019,0.0019 0.0053,-0.0014 h 0.0024 v -0.0036 h 0.0014 v -0.0017 l 0.0039,0.0046 h 0.0075 0.0027 v -0.0043 h 0.0068 l 0.0024,-0.0046 0.0034,0.0017 0.0092,-0.0041 0.0058,0.0027 h 0.0019 0.0019 l 0.0043,0.0019 h 0.0027 0.007 0.0022 0.0024 v 0.0022 h 0.0051 l 0.0072,0.0056 -0.0019,-0.0043 h 0.0031 l 0.0063,0.0014 0.0014,-0.0019 h -0.0024 l 0.0019,-0.0027 0.0031,0.0029 0.0019,-0.0056 0.0043,0.0027 v -0.0024 h -0.0029 l 0.0014,-0.0012 0.0082,-0.0029 0.0039,-0.0019 0.0034,0.008 0.0036,-0.0029 v -0.0036 h 0.0029 v 0.0031 l 0.0039,-0.0024 0.0019,0.0034 -0.0019,0.0051 0.01374,-0.008 -0.0034,-0.0017 v -0.0022 l 0.0068,-0.0058 0.0014,0.0014 0.0056,0.0017 0.01013,-0.0043 0.0039,-0.0056 -0.0065,0.0012 v -0.0019 l -0.0065,-0.0036 0.0022,-0.0031 0.0022,-0.0046 h -0.0024 v -0.0031 l 0.0019,-0.0024 h -0.0039 v -0.0029 -0.0041 h -0.0034 v -0.0043 h -0.0022 -0.0051 l -0.0072,0.007 -0.0048,-0.0036 -0.0029,0.0029 -0.0022,-0.0031 -0.0041,0.0043 v -0.0041 l -0.0051,-0.0012 -0.0024,0.0022 v 0.0019 l -0.0041,-0.0012 v -0.0036 l -0.0029,0.0019 -0.0029,-0.0014 v -0.0053 h -0.02411 l -0.01351,-0.01206 -0.0056,0.0022 -0.0039,-0.0017 -0.007,0.0048 0.0053,-0.0022 v 0.0036 l -0.0024,0.0022 -0.0048,-0.0017 v 0.0031 h -0.0024 l -0.0053,-0.0029 -0.0051,0.0056 -0.0036,-0.0077 h -0.0024 v -0.0027 0.0022 h -0.01446 l -0.0092,0.0034 -0.006,-0.0024 -0.0017,-0.0039 -0.0036,-0.0012 -0.0017,-0.0041 0.0022,-0.0012 0.0029,-0.0039 -0.0014,-0.0027 -0.0039,-0.0043 v -0.0041 l -0.0012,-0.0036 -0.0017,-0.0022 h 0.0027 0.0019 l 0.0014,-0.0017 0.0043,-0.0024 v -0.0027 l 0.0031,-0.0034 -0.0022,-0.0012 0.0019,-0.0014 h -0.0056 l -0.006,0.0043 -0.0072,-0.0063 -0.0087,0.0053 -0.006,-0.0043 -0.0051,0.0019 -0.0024,-0.0084 -0.0022,0.0017 -0.0017,-0.0024 -0.0048,-0.0068 v -0.0075 l 0.0029,-0.0048 0.01206,-0.0034 h 0.0029 0.0017 l 0.0024,-0.0012 v -0.0022 l -0.0019,-0.0019 v -0.0051 l -0.0039,-0.0048 -0.0019,-0.0022 -0.0031,-0.0022 v -0.0036 l 0.0019,-0.0027 -0.01085,-0.008 0.0029,-0.0027 0.0017,-0.0019 h 0.0034 0.0024 l 0.0058,-0.0043 v -0.0036 l 0.0039,-0.0017 -0.0024,-0.0022 v -0.0031 l -0.0043,-0.0024 v 0.0048 l -0.0041,-0.0019 -0.0022,-0.0036 v -0.0046 h -0.0029 v -0.0027 l 0.0065,-0.01109 v -0.0039 l 0.0036,-0.0039 0.0034,0.0022 v -0.0027 h 0.0019 l -0.0022,-0.0034 0.01012,0.0068 0.0111,0.0012 v 0.0043 l -0.0019,0.0012 h 0.0051 l 0.0019,0.0012 h 0.0048 l 0.0043,0.0058 0.01254,0.0051 0.0014,0.0029 v 0.0051 l 0.0034,0.0036 0.0027,0.0029 h 0.0051 l 0.0014,0.006 h 0.0075 0.0048 l 0.0034,0.0019 0.0024,0.0014 h 0.0092 0.0024 0.0041 l 0.0041,-0.0014 h 0.0048 0.0022 l 0.0029,0.0017 0.0022,0.0019 0.0051,-0.0036 0.0029,-0.0019 h 0.0029 0.0029 l 0.0024,0.0024 h 0.0014 l 0.0022,-0.0014 h 0.0065 l 0.0034,0.0048 0.0043,-0.0017 0.0034,0.007 0.0041,0.01351 v 0.0041 l 0.0019,0.0034 -0.0022,0.0029 h 0.0031 l 0.0063,-0.0012 0.0053,-0.0017 h 0.0034 0.0029 l 0.0031,0.0017 h 0.0024 l 0.0041,0.0022 0.0014,0.0029 0.0017,0.0017 0.0039,0.0014 0.0019,0.0056 h 0.0031 v 0.0034 l 0.0043,-0.0024 h 0.0036 v 0.0063 0.0024 l 0.0019,0.0024 -0.0014,0.0014 v 0.0024 l -0.0019,0.0053 0.0029,0.0039 -0.0014,0.0019 v 0.0024 l 0.0075,0.0084 v -0.0034 l 0.0029,0.0017 0.0031,-0.0036 -0.0017,-0.0041 h 0.0022 v -0.0019 l -0.0024,-0.0027 0.0022,-0.0012 -0.0022,-0.0041 0.0017,-0.0022 v -0.0034 h 0.0024 0.0029 0.0029 l 0.0014,-0.0041 0.006,0.0036 0.0019,0.0014 h 0.0024 0.0029 v -0.0027 l -0.0022,-0.0024 h 0.0048 l -0.0024,-0.0012 0.0019,-0.0014 -0.0024,-0.0053 0.0051,-0.0017 h 0.0014 l -0.0024,-0.0024 v -0.0034 l 0.0012,-0.0031 0.0017,-0.0039 h 0.0072 0.0034 0.0017 l 0.0019,-0.0014 0.0012,-0.0014 h 0.0039 l 0.0029,-0.0048 h 0.0027 0.0036 v -0.0039 l 0.0017,-0.0053 h 0.0019 0.0029 l 0.0022,-0.0017 h 0.0034 0.0024 l 0.0031,-0.0029 0.0019,-0.0019 0.01134,-0.0017 0.0065,-0.0094 0.0051,0.0043 h 0.0029 0.0046 v -0.0022 l 0.0055,0.0041 v -0.0031 l 0.0046,0.0017 v -0.0043 h -0.0051 -0.0041 l 0.0043,-0.0075 -0.0092,0.0024 -0.0123,-0.0027 v -0.0075 h -0.0056 l -0.0043,0.0036 -0.0022,-0.0024 -0.0014,-0.0031 0.0014,-0.0029 v -0.0022 l -0.0019,-0.0031 -0.0027,0.0017 v -0.0027 l -0.0031,0.0014 v -0.003 h -0.0036 l 0.0012,-0.0046 v -0.0029 h -0.0029 l 0.0022,-0.0087 h -0.0019 -0.0017 v -0.0029 l -0.0029,0.0027 0.0012,-0.0041 h -0.0022 l -0.0029,0.0027 v -0.0024 l -0.0048,0.0017 v -0.0019 l 0.0017,-0.0058 -0.0022,-0.0014 -0.0031,0.0043 0.0012,-0.0056 -0.0027,0.0039 v -0.0039 l -0.0031,0.0014 -0.0036,0.0017 -0.0024,0.0036 -0.0027,0.0036 -0.0022,-0.0027 v 0.0024 l -0.0012,-0.0031 v 0.0024 h -0.0029 l -0.0053,0.0077 h -0.0024 v -0.0036 h -0.0024 -0.0027 l -0.0017,0.0048 -0.0031,-0.0017 -0.0056,0.0027 h -0.0053 v -0.0034 l -0.0024,0.0029 -0.0058,0.0012 v -0.02992 l -0.0022,0.0029 v -0.0027 h -0.0036 -0.0041 l -0.0039,0.0041 v -0.0043 l -0.0068,0.006 -0.0014,-0.0012 h -0.0014 l 0.0012,-0.0039 -0.0041,0.0017 -0.0017,-0.0029 0.0029,-0.0096 0.0014,-0.0036 -0.0014,-0.0034 0.0014,-0.0012 v -0.0029 h -0.0019 -0.0019 l -0.0031,0.0048 h -0.0024 l 0.0017,-0.0036 h -0.0034 l 0.0024,-0.0039 h -0.0022 v -4.97e-4 l 0.0029,-0.0031 v -0.0017 l -0.0012,-0.0014 0.0075,-0.0058 h -0.0029 l 0.0017,-0.0039 0.0046,-0.0051 h -0.0027 l -0.0041,-0.0029 h 0.0029 l -0.0029,-0.0017 0.0036,-0.0024 h -0.0053 -0.0041 v -0.0051 l -0.0048,0.0012 v -0.0031 h -0.0022 v -0.0027 h -0.0017 v -0.0024 l -0.0051,0.0029 v -0.0024 h -0.0022 -0.0022 l -0.0024,-0.0022 h -0.0051 -0.0029 v -0.0024 l -0.0027,0.0012 v -0.0027 l -0.0031,-0.0014 -0.0039,0.0024 0.0017,-0.0027 -0.006,0.0019 v -0.0022 l -0.0031,0.0012 v -0.0022 h -0.0027 -0.0027 v -0.0019 l -0.0046,-0.0063 -0.0034,-0.0034 h -0.0051 l 0.0031,-0.0043 h -0.0031 l 0.0017,-0.0036 -0.0031,0.0012 v -0.0046 -0.0027 l -0.0039,0.0014 -0.0087,-0.0068 h -0.0022 -0.006 l -0.0039,-0.0019 -0.0024,-0.0053 -0.01424,0.0014 0.0029,-0.0123 0.01182,-0.0068 0.0043,-0.01351 0.0072,-0.0063 0.0024,-0.0031 0.0072,-0.0043 0.0092,-0.0039 0.0048,0.0012 h 0.0022 l 0.0031,-0.0014 0.0068,-0.0034 0.0048,0.0027 v 0.0031 h 0.0022 l -0.0027,0.0017 0.0036,0.0024 0.0022,-0.0048 0.0058,0.0036 0.0012,-0.0017 -0.0034,-0.0022 0.0043,-0.0022 0.0058,0.0068 0.0036,0.0048 0.0058,0.0012 h 0.0041 0.0068 0.0017 0.0063 0.0024 l 0.0022,-0.0014 v 0.0022 l 0.0041,-0.0019 -0.0019,-0.0019 h 0.0065 l 0.0022,-0.0029 0.0024,-0.0017 h 0.0048 0.0053 l 0.0051,0.0041 0.0075,-0.0031 0.0094,-0.0024 v -0.0065 l 0.0039,0.0027 0.0053,-0.0031 h -0.0039 l 0.0056,-0.0012 v -0.0036 h 0.0029 l 0.0024,-0.0017 v -0.0027 l 0.0014,-0.0024 h 0.0041 l 0.0036,-0.0017 v 0.0039 l 0.0027,-0.0017 -0.0024,-0.0053 v -0.0019 l 0.0034,-0.0012 -0.0017,-0.0022 h 0.0043 v -0.0022 l 0.0031,-0.0027 h 0.0034 0.0046 l 0.0034,-0.0029 h 0.0027 v -0.0022 l 0.0012,-0.0022 v -0.0024 h 0.0017 l 0.0024,-0.0029 0.0031,-0.0053 h 0.0017 l 0.0024,-0.0014 h 0.0022 l 0.0075,-0.0031 0.0031,-0.0036 0.0041,-0.0048 0.0024,0.0029 0.0056,-0.0053 v 0.0022 l 0.0077,-0.0043 h -0.0043 l 0.0024,-0.0024 -0.0017,-0.0014 0.0056,-0.0053 h 0.0053 v -0.0036 l 0.0029,-0.0029 0.006,-0.0048 h -0.0039 v -0.0082 l 0.0019,-0.0039 0.0041,-0.0014 -0.0056,-0.0046 0.0053,-0.0022 -0.0019,-0.0019 0.0034,-0.0031 -0.0022,-0.0017 -0.0024,-0.0029 -0.0087,-0.0036 -0.0022,0.0029 -0.0048,-0.0024 -0.0046,-0.0024 -0.0034,0.0056 -0.0092,-0.0039 h -0.0111 l -0.0075,0.0043 -0.008,0.0041 -0.0022,0.0014 -0.0063,-0.0014 v -0.0034 h -0.0027 -0.0041 l -0.0024,-0.0017 -0.0031,0.0017 -0.0039,0.0019 v -0.0029 l -0.0034,0.0014 0.0012,0.0046 h -0.0017 l 0.0029,0.0019 -0.0012,0.0019 -0.0058,0.0017 v 0.0031 h -0.0068 l -0.0041,-0.0041 v -0.0034 h -0.0031 v -0.006 h -0.0024 -0.0022 -0.0017 v -0.0034 h -0.0022 -0.0039 -0.0024 -0.0014 -0.0022 -0.0036 v -0.006 -0.0036 l 0.0046,-0.0034 h -0.0048 l 0.0012,-0.0031 -0.0056,-0.0024 0.0019,-0.0043 -0.0058,0.0014 -0.0017,-0.0027 -0.0043,-0.0034 h -0.0034 l -0.01374,0.0041 h -0.0031 v -0.0022 -0.0024 l -0.0027,0.0048 h -0.0077 v -0.0027 l -0.0017,0.0022 -0.0017,-0.008 0.0027,-0.0043 0.0024,-0.0019 0.0068,-0.0072 h 0.0077 l 0.0034,-0.0034 -0.007,-0.0031 0.0022,-0.0031 -0.0036,-0.0034 -0.0017,-0.0012 v -0.0029 l -0.0056,0.0053 -0.0014,-0.0024 -0.0022,0.0014 0.0014,0.0019 -0.0039,-0.0012 -0.0063,-0.01327 0.0027,-0.0034 v -0.0024 l 0.0041,-0.0077 0.0123,-0.0029 0.006,0.0017 v 0.0014 l 0.006,-0.0019 0.01496,0.0072 0.0072,0.0065 h 0.0041 l 0.0041,0.0034 0.006,-0.0017 0.0043,0.0092 -0.0012,0.0022 0.0014,0.0017 h 0.0022 l 0.0065,0.0036 0.0058,-0.0043 0.0012,-0.0014 0.0039,-0.0031 0.0019,-0.0022 v -0.0022 l -0.0048,0.0014 v -0.004 l -0.0012,-0.0019 0.0031,-0.0014 v -0.0034 l 0.0019,-0.0034 h -0.0084 v -0.007 l -0.0017,-0.0024 -0.008,-0.0041 -0.0036,-0.0014 v -0.0031 l 0.0036,-0.0017 0.0029,0.0046 v -0.0022 l 0.01157,0.0017 0.0087,-0.0048 0.0029,0.0017 v 0.0036 l 0.0082,0.0017 v 0.0075 l 0.0051,-0.0022 0.0024,-0.0012 v 0.0041 l 0.0017,0.0031 0.0063,-0.0036 -0.0014,0.0027 h 0.0034 l 0.0012,-0.0046 v -0.0039 h 0.0019 0.0019 l 0.0094,-0.0024 v -0.0075 l 0.0036,-0.0012 0.0036,-0.0014 h 0.0022 l 0.0019,-0.0012 0.0019,-0.0068 0.0082,-0.0068 0.01543,-0.008 0.0036,0.0012 h 0.0053 l 0.0014,0.0031 0.0022,-0.0034 0.0084,-0.0019 h -0.0019 l 0.0027,-0.0022 v -0.0051 h -0.0027 l 0.0024,-0.0022 h -0.0019 l -0.007,-0.0017 0.0012,-0.0046 h -0.0072 v -0.0029 h 0.0019 l 0.0046,-0.0017 h -0.0053 v -0.0043 l 0.0072,0.0046 h 0.0014 l 0.0017,0.0029 0.0017,-0.0014 0.0036,-0.0014 0.0017,-0.0024 0.0041,0.0036 -0.0017,0.0019 0.0029,-0.0022 0.0024,-0.0039 0.0027,-0.0022 0.0039,0.0017 0.0024,0.0024 h 0.0017 l 0.0014,-0.0024 0.0027,-0.0039 h 0.0039 l 0.0027,0.0046 0.0029,0.0019 0.0046,0.006 v 0.0022 l 0.0017,0.0024 h 0.0022 l 0.0017,0.0051 h 0.0024 l 0.0019,-0.0014 v 0.0039 l 0.0022,-0.0022 v 0.0034 l 0.0031,-0.0024 0.0019,-0.0022 v 0.0022 l 0.0014,0.0017 v -0.0027 l 0.0027,-0.007 0.0084,-0.0058 0.01085,-0.0068 v -0.0027 -0.0034 l 0.0027,-0.0031 h -0.0022 -0.0019 -0.0024 -0.0022 -0.0029 l -0.0029,-0.0041 0.0017,-0.0022 v -0.0024 l -0.0031,-0.0014 -0.0022,-0.0017 v -0.0032 -0.0039 l -0.0014,-0.0068 v -0.0022 l -0.0027,-0.0082 0.0051,-0.0065 h -0.0031 l 0.0014,-0.0027 h -0.0027 l -0.0031,-0.0063 v 0.0041 l -0.0043,-0.0039 h -0.0039 l -0.0046,0.0017 v -0.0087 h 0.0022 l 0.0041,-0.0019 -0.0036,-0.0063 h 0.0022 l 0.0039,-0.0031 0.007,0.0056 h 0.0017 l 0.0046,-0.006 0.0041,-0.0065 h 0.0039 0.0043 l 0.0017,0.0024 0.0046,-0.0024 0.0012,0.0019 0.0014,0.0024 0.0034,-0.0029 0.0017,-0.0017 -0.0019,-0.0027 0.0031,-0.0022 -0.0019,-0.0022 0.0063,-0.0043 0.0065,0.0053 v -0.0043 l 0.0034,-0.0019 0.0027,0.0036 v 0.0039 l 0.0024,-0.0014 0.0029,-0.0012 -0.0027,0.0039 h 0.0043 v -0.006 l 0.0027,-0.0022 h 0.0039 0.0024 0.0036 0.0022 l -0.0031,-0.008 0.0027,-0.0046 v -0.0019 h -0.0029 l -0.0024,-0.0014 h -0.0022 v 0.0029 h -0.0022 l -0.0019,0.0019 h -0.0019 v -0.0051 l -0.0027,0.0046 v -0.0024 l -0.0019,0.0024 -0.0027,-0.0017 -0.0087,0.0014 v -0.0022 l -0.008,0.0058 -0.0039,-0.0022 0.0017,0.0039 h -0.0024 v 0.0034 l -0.006,0.0014 -0.0034,-0.0051 -0.0019,0.0017 v 0.0019 l -0.0072,-0.0022 -0.0012,0.0034 -0.01399,0.0068 -0.0041,-0.0024 -0.0019,-0.0017 -0.0034,0.0041 -0.0017,0.0029 -0.0027,-0.0065 -0.0039,0.0017 v -0.0036 h -0.0072 v 0.0048 0.006 l 0.0019,0.0017 v 0.0027 0.0034 h -0.0092 -0.0029 l 0.0012,0.0039 -0.0022,0.0012 -0.0043,0.0051 -0.0053,-0.0024 v -0.0092 l -0.0019,-0.0024 -0.0077,-0.0031 -0.0024,0.0031 -0.0019,0.0024 -0.0019,0.007 h -0.0027 v 0.0053 l -0.0043,0.0068 v 0.0053 l -0.0034,0.0024 -0.0043,-0.0017 v 0.0031 h -0.0058 l -0.0014,-0.0053 h -0.0041 l -0.0012,-0.0046 -0.0029,-0.0019 -0.0056,0.0048 -0.006,-0.0039 v -0.007 l 0.0027,-0.0065 v -0.0022 l -0.0017,-0.0031 0.0027,-0.0022 v -0.0039 l -0.0019,-0.0048 -0.0017,-0.0024 -0.0056,0.0043 h -0.01037 l -0.0039,0.0012 -0.0027,-0.0022 v -0.0029 -0.0029 h -0.0031 l 0.0024,-0.0017 -0.0043,-0.0039 -0.0029,0.0046 -0.0065,-0.0017 -0.0034,0.0065 h -0.006 l -0.006,-0.0036 -0.0058,0.0043 0.0017,0.0024 h -0.01013 l 0.0022,0.0014 -0.0031,0.0031 -0.0041,-0.0019 -0.0034,-0.0024 -0.0017,-0.0039 h 0.01134 l 0.0087,-0.0048 0.02074,-0.01254 -0.0063,-0.01134 h 0.0043 l 0.0014,-0.0017 0.0017,-0.0041 -0.0031,-0.0014 v -0.0036 h -0.0065 -0.0036 v -0.0039 l -0.0014,-0.0075 0.0019,-0.0022 -0.0036,-0.0034 -0.0014,-0.0012 -0.0014,-0.0012 -0.0053,-0.0048 0.0012,-0.0043 h 0.0034 l 0.0012,-0.0043 -0.01785,-0.0075 -0.0043,0.0019 -0.007,-0.0019 -0.0053,-0.0014 -0.0019,-0.0053 0.0024,-0.0051 0.0024,-0.0053 0.0012,-0.0029 0.006,0.0014 -0.0046,-0.0036 0.008,-0.0022 0.01206,0.01134 h 0.0022 l 0.0058,-0.0022 0.0063,-0.0019 0.01157,-0.0014 0.0012,0.0031 h 0.01013 l 0.0031,0.0036 0.0092,0.0092 0.0039,0.0077 0.0027,-0.0014 0.0036,0.0029 0.0012,-0.0063 -0.0017,-0.0068 0.0027,-0.0024 v -0.0034 h 0.0048 l 0.0039,0.01616 0.01062,-0.0068 0.0022,0.0027 0.0036,0.0024 v 0.0041 0.0024 0.0019 l 0.0017,-0.0048 0.0043,0.0014 h 0.0039 l 0.0024,-0.0017 0.0053,-0.0014 0.0017,-0.0012 h 0.0017 l -0.0031,-0.0065 0.0051,-0.0051 -0.0022,-0.0053 h -0.0019 -0.0019 l -0.0014,-0.0012 v -0.0022 l -0.0017,0.0019 -0.0019,-0.0046 -0.0022,-0.0068 h 0.0024 v -0.0041 -0.0031 l -0.0027,-0.0014 -0.0014,-0.0017 h -0.0034 v -0.0027 h -0.0053 l -0.0019,-0.0036 0.0051,-0.0053 0.0043,-0.0017 0.0022,0.0029 0.0019,-0.0046 h 0.0019 v 0.0019 l 0.0012,0.0024 v -0.0034 -0.0053 h -0.0022 v -0.0027 l 0.0017,-0.0024 v -0.0027 h -0.0024 v -0.0048 l -0.0017,-0.0017 h -0.01062 l -0.0012,-0.0017 -0.0027,0.0024 h -0.0027 -0.0043 v -0.0031 l -0.0031,0.0029 h -0.0022 l -0.0024,-0.0031 -0.0017,0.0039 h -0.0041 l -0.0014,-0.0024 v -0.0019 -0.0048 l -0.0014,-0.0039 -0.0017,-0.0017 -0.0017,0.0014 v -0.0022 l -0.0019,-0.0019 h -0.0014 -0.0027 v 0.0036 h -0.0041 -0.0036 l 0.0014,-0.0029 -0.0019,-0.0024 -0.0036,0.0014 -0.0014,-0.0024 h -0.0017 -0.0041 v -0.0022 l -0.0029,0.0012 v -0.0027 -0.0034 l 0.0058,-0.0022 0.0017,-0.0043 h 0.0024 l 0.0014,-0.0036 h 0.0046 l -0.0027,-0.0041 h -0.0036 v -0.0024 l -0.0017,-0.0027 -0.0039,0.0019 -0.0036,-0.0027 -0.0072,-0.0051 h -0.0058 l -0.0056,-0.0043 -0.0039,0.0034 -0.0075,-0.0014 -0.0039,-0.0072 -0.0019,-0.0012 -0.0027,0.0029 h -0.01157 l -0.0056,-0.0046 v -0.0056 l 0.0072,-0.007 h 0.0058 l 0.0012,-0.0041 h -0.0048 l 0.0024,-0.01037 h 0.0034 l -0.0014,0.0029 0.0022,0.0039 0.0072,0.0031 0.0051,-0.0048 h 0.0029 v 0.008 l 0.0046,-0.0077 0.0087,-0.0041 h 0.0046 l 0.0029,-0.0056 0.0087,0.0029 -0.0019,-0.0046 h 0.0022 l 0.0058,0.0031 -0.0031,0.0058 v 0.0022 l 0.0031,0.0053 h 0.0019 v 0 l 0.0022,0.0036 v -0.0039 h 0.0029 l 0.0034,0.0031 0.0031,0.0014 h 0.0024 v -0.0029 l 0.0046,-0.0027 0.0014,0.0051 0.0012,0.0022 0.0014,0.0031 h 0.0029 v 0.0027 l 0.0017,0.0019 v -0.0036 l -0.0051,-0.0043 h 0.0043 l -0.0029,-0.0051 h 0.0039 0.0031 l -0.0014,-0.0065 0.007,-0.01085 0.0084,0.0017 0.0058,-0.0022 0.0056,0.0022 v 0.0036 l 0.0024,-0.0046 h 0.008 0.0029 0.0041 l 0.0029,0.0014 0.0075,0.0068 0.0029,-0.0022 h 0.0043 l 0.0058,-0.0029 v -0.01275 l 0.0034,-0.0034 h 0.0089 l 0.0017,-0.0022 -0.0029,-0.0056 0.0051,-0.0036 h 0.0034 v 0.0036 h 0.0022 l 0.01351,0.0075 h 0.006 l 0.0084,-0.0031 -0.0022,-0.0046 0.0019,-0.0014 -0.0024,-0.0034 0.0041,-0.0029 0.0084,0.0039 h 0.006 l 0.0087,0.008 0.01737,0.0039 h 0.0019 v -0.0058 -0.0029 -0.0019 -0.0072 l 0.0048,-0.0027 0.0019,0.0022 0.0027,-0.0063 h 0.0017 0.0063 l -0.0012,-0.0031 h 0.0022 v -0.0046 l -0.0046,-0.0024 0.0031,-0.0039 v -0.0031 l -0.0022,-0.0034 h -0.0046 v -0.0034 l -0.0012,-0.0027 0.0034,-0.0031 0.0027,-0.0029 -0.0022,-0.0027 0.0029,-0.0068 0.007,-0.0017 v -0.0029 l 0.0029,-0.0039 h -0.0019 l 0.0053,-0.0053 v -0.0034 l -0.0031,0.0027 v -0.0027 l 0.0051,-0.0058 0.0022,-0.0053 -0.0034,-0.0024 h 0.0029 l 0.0017,-0.0027 0.0029,-0.0048 0.0027,-0.007 v 0.0039 l 0.0031,-0.006 v 0.0031 h 0.0024 l 0.0094,-0.0092 -0.0031,-0.0056 h 0.006 v -0.0063 h 0.0031 0.0017 l -0.0019,-0.0034 h 0.0031 l 0.0036,-0.0051 v 0.0024 l 0.0046,-0.0181 0.0075,-0.0099 0.0024,-0.0065 -0.0048,0.0046 v -0.0051 h -0.0024 l -0.0019,0.0014 -0.0034,0.0051 -0.01302,0.0029 v -0.0025 h -0.0027 l -0.0046,0.0075 -0.0017,-0.0024 -0.0046,0.0022 -0.0019,0.0014 v -0.0046 l -0.0034,0.0058 h -0.0029 l -0.0029,0.0031 -0.0014,0.0068 -0.0043,0.0017 -0.0014,0.0019 v 0.0051 l -0.0043,0.0043 h 0.0017 l -0.0027,0.0043 0.0014,0.0036 -0.0034,0.0027 -0.0046,0.006 -0.0068,-0.0027 -0.0022,0.0024 -0.0022,-0.0012 -0.0029,0.0024 v -0.0043 l -0.0024,0.0022 0.0012,0.0051 -0.0029,0.0014 h -0.0022 v -0.0022 l -0.0019,0.0012 v -0.0036 h -0.0036 -0.0034 v -0.0024 l -0.0041,0.0017 -0.0022,0.0017 h -0.0019 v -0.0031 l -0.0019,0.0039 -0.0036,-0.0017 h -0.0024 -0.0019 l -0.0036,0.0024 h -0.0034 l -0.0014,-0.0053 0.0056,-0.008 0.0012,-0.0019 h -0.0014 -0.0022 l -0.0046,0.0017 v -0.0019 l -0.0036,0.0017 v -0.0022 l -0.0053,0.0053 h -0.0039 l -0.0036,0.0056 -0.0017,0.0017 v 0.0072 l -0.0043,0.0017 -0.0046,-0.0046 -0.0027,0.0024 -0.0024,0.0056 -0.0058,0.0031 -0.0014,0.0031 0.0017,0.006 v 0 l 0.0019,0.0034 -0.0034,0.0031 h -0.0099 v 0.0019 h -0.0056 l -0.0058,-0.0029 -0.0027,-0.0014 h -0.0053 l -0.0024,-0.0039 -0.0027,-0.0046 h -0.0017 l -0.0075,0.0024 -0.0027,-0.0029 h -0.0022 -0.0068 -0.0022 -0.0072 l -0.0152,0.01254 -0.0029,0.0094 -0.0077,0.0046 h 0.0029 l 0.0012,0.0029 -0.0014,0.0068 -0.0084,0.0014 -0.0046,-0.0014 v -0.0072 l -0.0034,-0.0041 v -0.0075 l -0.0089,0.0075 -0.0082,-0.0027 0.0022,0.0022 -0.0027,0.0034 -0.0017,0.0022 -0.0036,-0.0022 0.0022,-0.0027 -0.0068,-0.0014 -0.0077,-0.01302 -0.0041,-0.02411 0.0046,-0.01182 0.0058,-0.0041 0.0087,-0.0022 0.0094,-0.0022 v -0.0063 l 0.0041,-0.0041 0.0058,-0.0014 h 0.0048 l 0.0029,-0.0024 0.0063,-0.0041 v -0.007 l -0.0029,-0.0022 -0.0036,-0.0014 -0.0024,-0.006 0.01761,-0.01157 -0.0029,-0.0051 h -0.0031 l -0.0058,-0.0043 0.0029,-0.0058 0.0089,0.007 0.0036,-0.0031 0.02822,0.01206 v -0.0034 h 0.0058 v 0.0031 l 0.0099,0.0036 0.0012,0.0043 0.0017,-0.0031 h 0.0034 l 0.01327,0.0111 h 0.0014 l 0.0063,-0.0084 0.0017,-0.0017 h 0.0041 0.0027 0.0022 0.0022 0.0027 l 0.01254,-0.0089 0.0036,-0.0012 0.0043,-0.0027 0.0058,-0.0022 0.0012,-0.0053 h 0.0019 l 0.0043,-0.0024 v -0.0022 -0.0031 l 0.0012,-0.0029 0.0012,-0.0027 v -0.0029 h -0.0019 l -0.0053,-0.0072 -0.0017,0.0014 v -0.0043 l 0.0046,-0.0024 0.0034,-0.0027 h 0.0017 v -0.0048 l 0.0053,-0.0034 0.0036,-0.0024 0.0063,-0.0082 -0.0019,0.0058 0.0053,-0.0065 -0.0027,-0.0022 -0.0019,-0.0017 0.007,-0.0022 -0.0036,-0.0063 h 0.0022 0.0017 l -0.0041,-0.0027 h 0.0068 l 0.0034,-0.0056 v -0.0024 -0.0039 l -0.0051,-0.0034 v -0.0027 l 0.0017,-0.0022 v -0.0051 h -0.0038 l -0.0027,-0.0039 -0.0041,0.0017 -0.0029,0.0051 h -0.0092 l -0.0022,0.0034 h -0.0041 -0.0024 -0.0024 l -0.0014,0.0027 0.0017,0.0036 h -0.0034 l -0.0024,0.0019 v 0.0039 h -0.006 l 0.0031,0.0048 -0.01206,0.0034 -0.0014,0.0031 h -0.0043 l -0.01182,-0.0123 0.0031,-0.0041 -0.0017,-0.0031 h 0.0053 l -0.0017,-0.007 -0.0051,0.0022 -0.0014,-0.0019 -0.0065,-0.007 0.0012,-0.0029 -0.0017,-0.0029 h -0.0022 -0.0027 l -0.0051,-0.01568 0.0055,-0.01182 0.0048,-0.0017 0.0056,-0.0027 h -0.0019 l 0.0058,-0.0056 h -0.0039 l 0.0048,-0.0063 h 0.0027 l 0.0048,-0.0024 -0.0017,-0.0019 0.0024,-0.0017 h -0.0043 v -0.0036 l 0.01037,-0.0051 0.0024,-0.0039 h 0.0017 0.0017 l -0.0029,-0.0048 h 0.0027 l 0.0034,-0.0014 v -0.0029 l 0.0022,0.0012 v -0.0027 -0.0029 l 0.0019,-0.0019 v -0.0024 l 0.0019,-0.0019 h 0.0063 l -0.0022,-0.0041 0.0043,-0.0027 -0.0027,-0.0036 0.0041,-0.0022 v -0.0029 -0.0082 h 0.0075 l 0.0014,-0.0022 0.0012,-0.0022 0.0041,-0.0082 0.0029,-0.0019 v -0.0034 l 0.0017,-0.0031 v -0.0041 l 0.0034,-0.0019 h 0.0022 l 0.0046,-0.0043 0.0065,-0.01302 0.0014,0.0019 0.0014,-0.0022 0.0029,-0.0072 0.0056,-0.0029 h 0.0017 v -0.01062 h 0.0051 v -0.006 -0.0082 l 0.0048,-0.0027 -0.0017,-0.0019 0.0041,-0.0029 v 0.0027 l 0.0053,-0.0019 0.01351,0.0058 v 0.0029 l -0.0087,0.0034 v 0.0019 l 0.0077,-0.0027 0.0046,0.01254 -0.0056,0.0027 0.0068,-0.0012 0.0053,0.01448 -0.007,0.0051 -0.0036,0.0063 -0.0014,0.0031 v 0.0123 l -0.0027,0.0034 0.0084,0.0056 h 0.0019 0.0036 0.0034 l 0.0111,-0.0041 0.0027,0.0022 0.0022,0.0012 0.0051,-0.0017 h 0.0029 l 0.0039,-0.0014 h -0.0029 l 0.0046,-0.0014 v -0.0024 -0.0046 l 0.0043,-0.0034 0.0053,0.0029 0.0012,0.0017 0.0024,0.0014 h 0.0022 0.0022 0.0036 l 0.0051,0.0017 v -0.0024 -0.0022 -0.0019 -0.0034 -0.0072 l 0.0075,-0.0039 0.0051,0.0048 0.0012,-0.0039 0.0022,-0.0017 -0.0017,-0.006 -0.0048,-0.0027 0.0017,-0.0027 h -0.0014 l -0.0056,-0.0043 v -0.0029 l -0.0014,-0.0039 0.0046,-0.0068 v -0.0034 -0.0048 l 0.0065,-0.0063 h 0.0063 0.0029 l 0.006,0.0043 0.0019,0.0031 h 0.0063 l 0.0014,0.0041 0.0063,0.01302 0.0046,-0.0017 0.0051,0.0029 -0.0017,0.0048 h 0.0017 v 0.0053 l 0.0024,0.0017 0.0031,-0.0019 0.0041,0.0053 h 0.0019 l 0.0022,0.0017 v 0.0022 h 0.0022 0.0019 l 0.0077,-0.0041 v 0.0029 l 0.0022,-0.0041 h -0.0024 l 0.0046,-0.0031 0.0031,0.0012 0.0019,-0.0024 h 2.46e-4 -0.0046 l 0.01424,-0.0019 v -0.0031 l -0.0024,-0.0034 0.0024,-0.0056 h 0.0019 0.0034 l 0.0022,-0.0036 -0.0043,-0.0022 0.0031,-0.0053 -0.0024,-0.0019 v -0.0024 l 0.0053,0.0022 0.0043,-0.0063 0.0048,0.0031 0.0017,-0.0012 h 0.0024 l 0.0022,-0.0019 -0.0019,-0.0056 h -0.0031 v -0.0017 h -0.0043 l 0.0039,-0.0041 -0.0048,-0.0063 0.0053,-0.0043 h -0.0022 l 0.0036,-0.0056 h -0.0053 v -0.0036 h -0.0058 v -0.0045 -0.006 l -0.0087,0.0024 0.0019,-0.0019 v -0.0031 l -0.0014,-0.0014 0.0039,-0.0014 0.0027,-0.0022 -0.0048,-0.0039 h 0.0068 l -0.0036,-0.0063 0.0072,0.0048 -0.0034,-0.0041 0.0063,0.0017 0.0017,-0.0039 -0.0019,-0.0036 h -0.0056 l 0.0024,-0.0036 h -0.0041 -0.0027 -0.0048 l 0.0041,-0.0041 h -0.0017 v -0.0046 l -0.0031,-0.0027 h 0.0048 l -0.0017,-0.0022 -0.0024,-0.0022 0.0029,-0.0039 0.0075,0.0029 0.0036,-0.0058 0.0029,-0.0017 v -0.0029 l 0.008,-0.0022 h 0.0029 l 0.0063,-0.0031 h -0.0036 v -0.0034 l -0.0027,-0.0019 v -0.0048 l 0.0036,-0.0017 -0.0031,-0.0014 v -0.0092 l 0.006,-0.0072 0.0014,-0.0019 0.0056,-0.0063 0.0063,-0.0036 v -0.0096 l 0.0022,-0.0017 v -0.0022 l 0.0019,-0.0029 0.0041,-0.0012 h 0.0022 l 0.0048,-0.0024 -0.007,-0.0027 v -0.0043 h 0.0034 v -0.0034 h 0.0046 l -0.0051,-0.0068 0.0089,-0.0043 h -0.0111 v -0.0039 l 0.0034,-0.0017 h 0.0012 l -0.0019,-0.0024 v -0.0019 l -0.0039,-0.0019 h -0.0014 l -0.0014,-0.0029 -0.0041,0.0043 -0.0027,-0.0022 v -0.0051 l -0.0019,-0.0014 0.0017,-0.0014 -0.007,-0.0031 -0.0014,-0.0036 -0.0027,-0.0043 v -0.0027 l 0.0017,-0.0031 h 0.0029 0.0029 l -0.0012,-0.0036 0.0012,-0.0019 v -0.0024 l 0.0014,-0.0041 h -0.0051 l -0.0024,0.0029 -0.0053,0.0063 -0.0029,-0.0017 -0.0039,-0.0012 h -0.01374 -0.0022 v 0.0046 l -0.0036,0.0017 v -0.0036 h -0.0087 l 0.0017,-0.0031 -0.0019,-0.0014 -0.0034,0.0043 -0.0022,0.0017 v 0.0031 h -0.0017 l -0.0019,0.0024 -0.0017,0.0082 -0.0039,0.0029 -0.0043,0.0041 h -0.0048 l 0.0022,0.0046 -0.008,0.0017 -0.0012,0.0034 0.0019,0.0056 -0.0027,0.0014 -0.0036,0.0014 -0.0096,0.0051 -0.0058,0.0031 -0.0051,0.0022 -0.007,0.0087 -0.0048,0.0031 h -0.0036 l -0.0051,0.0072 -0.0063,0.0027 v 0.0024 0.0046 l -0.0036,0.0046 -0.0068,0.0084 -0.0043,0.007 -0.0039,0.01374 h -0.0036 l 0.0041,0.0029 -0.0019,0.0068 0.0027,0.0051 v 0.0094 l 0.0029,0.0041 0.0022,0.01134 -0.0022,-0.0027 -0.0048,0.0019 -0.0024,-0.0077 h -0.0024 l -0.01954,-0.02074 -0.0087,0.0092 h -0.0096 v 0.0092 h -0.0075 v 0.0065 l -0.0097,0.01157 -0.0036,0.0089 -0.0053,0.0034 -0.0027,0.0058 v 0.0039 l -0.0019,-0.0017 -0.0053,0.0029 -0.01302,-0.006 -0.0039,-0.0046 0.0014,-0.0092 -0.0041,-0.0056 0.0029,-0.0034 -0.0029,-0.0031 v -0.01013 l -0.0046,-0.0029 -0.0065,0.007 h -0.01013 l -0.0053,-0.0087 -0.0014,-0.007 -0.0036,-0.0089 0.0041,0.0024 -0.0029,-0.0056 h -0.0058 l -0.0094,-0.008 0.0039,-0.0046 0.0017,0.0019 0.0084,-0.0024 v -0.0063 l -0.0017,-0.0031 v 0.0029 l -0.01206,-0.0022 -0.0017,-0.0031 -0.0082,-0.02412 v 0.0046 l -0.0024,-0.0024 0.0012,-0.01302 v -0.0092 l 0.0017,-0.0084 0.0094,-0.0084 0.008,0.0014 0.01279,-0.0063 0.0024,0.0043 h 0.0034 l 0.0034,-0.0019 -0.0024,-0.0029 0.0048,-0.0082 0.0036,-0.0027 0.0075,-0.0024 v -0.0022 l 0.0063,-0.0043 0.0053,-0.0012 -0.0046,0.0041 h 0.01182 l -0.0043,-0.0039 h 0.01254 l -0.0022,0.0058 0.006,0.0024 -0.0027,0.0022 0.01085,-0.0027 0.0039,-0.0058 0.0046,0.0014 0.0031,-0.01593 0.0092,-0.0041 0.0014,0.0034 0.0041,-0.0017 0.02942,0.01858 0.01206,-0.0029 0.0082,0.01374 0.0034,-0.0022 h 0.0043 l -0.0014,-0.0027 0.0014,-0.0019 v -0.0065 l 0.0034,-0.0022 h -0.0031 v -0.0089 -0.0053 l -0.0022,-0.0027 -0.0017,-0.0024 0.0029,-0.0027 v -0.0017 l -0.0014,-0.0031 -0.0024,-0.0063 v -0.0041 -0.0017 -0.0031 l -0.0014,-0.0046 v -0.0053 l 0.0012,-0.0022 -0.0017,-0.0072 0.0024,-0.0056 0.0046,-0.0022 h 0.0019 v -0.0031 h 0.0036 l -0.0053,-0.0063 -4.7e-4,-0.0056 -0.0031,0.0022 0.0039,-0.0077 h 0.0029 l 0.0096,0.0034 0.0039,-0.0034 0.0019,0.0046 h 0.0027 v 0.0036 l 0.0046,0.0022 v -0.0034 h 0.0043 0.0017 v -0.0034 l -0.0024,0.0019 -0.0022,-0.0029 -0.0014,-0.0019 h 0.0029 0.0039 l 0.0019,-0.0039 0.0031,0.0019 v -0.0041 h 0.0017 l 0.0017,-0.0058 0.0024,-0.0031 v 0.0019 -0.0017 -0.0024 l -0.0029,-0.0017 v -0.0048 l 0.0031,-0.0012 h 0.0024 0.0029 l 0.0029,-0.0034 v -0.0029 h -0.0039 l 0.0022,-0.0043 0.0019,-0.0027 0.0012,-0.0063 -0.0017,-0.0019 0.0014,-0.0012 v -0.0027 -0.0024 -0.0029 l 0.0027,-0.0048 v -0.0022 h 0.0019 l -0.0012,-0.0024 v -0.0027 l 0.0027,-0.0012 h 0.0022 v -0.0036 l -0.007,-0.0065 -0.0014,-0.0039 0.0019,-0.0041 v -0.0051 l 0.006,-0.0024 0.0017,-0.0019 v -0.0034 l 0.0017,-0.0072 v -0.0024 h 0.0036 l -0.0039,-0.0029 0.0051,-0.0039 0.0012,0.0056 0.0034,-0.0053 v -0.0029 l 0.0039,-0.0027 0.0056,0.0022 h 0.0022 l 0.0027,0.0014 0.0043,-0.0019 0.0048,-0.0012 h 0.0027 l 0.0019,0.0014 0.0019,0.0019 0.0022,0.0017 0.0022,0.0017 0.0039,0.0039 0.0017,0.0029 0.0014,0.0019 v 0.0022 0.0019 l 0.0012,0.0017 h 0.0022 l 0.0022,0.0014 0.0036,0.0027 0.0048,0.0024 v 0.0029 0.0051 l 0.0031,0.0017 0.0039,-0.0029 h 0.0084 l 0.0017,-0.0036 0.0031,-0.0014 h 0.0012 0.0019 l 0.0012,-0.0041 0.0031,-0.0036 h -0.0048 -0.0029 v -0.0022 h -0.0017 v -0.0034 h -0.0019 -9.67e-4 l -0.0027,-0.0048 h -0.0029 v -0.0027 h -0.0034 l -0.0046,0.0019 v -0.0056 l -0.0031,-0.0027 0.008,-0.0034 h -0.0048 -0.0024 l -0.0012,-0.0046 h -0.0027 l -0.0024,-0.0014 0.0063,-0.0017 0.0055,0.0039 0.0019,-0.0017 v -0.0019 l 0.0029,0.0029 0.0041,-0.0017 0.0012,0.0029 0.0027,-0.0014 -0.0027,-0.0058 0.0014,-0.0019 h 0.0034 0.0068 0.0036 0.0034 v -0.0034 l 0.0019,0.0056 h 0.0039 l 0.0014,-0.0041 -0.0024,-0.0043 0.0024,-0.0019 h -0.0017 -0.0034 l 0.0036,-0.0036 -0.0019,-0.0024 0.0058,-0.0063 -0.0053,-0.0058 h 0.0051 l 0.0043,0.0029 0.0017,-0.0046 0.0031,0.0024 -0.0019,-0.0043 h 0.0039 l -0.0043,-0.0036 0.0034,-0.0039 -0.0029,-0.0043 0.0051,0.0014 0.0053,-0.01157 -0.0036,0.0031 z m -3.3416084,-0.548047 0.00748,0.0036 -0.00119,0.0075 0.00265,0.0072 0.00917,0.006 h -0.00723 l -0.00434,-0.0043 v -0.0051 -0.0024 l -0.00434,-0.0063 -0.00386,-0.0046 z"
       id="path1376" />
    <text
       xml:space="preserve"
       style="font-style:normal;font-weight:normal;font-size:5.69744873px;line-height:1.25;font-family:sans-serif;letter-spacing:0px;word-spacing:0px;fill:#898989;fill-opacity:1;stroke:none;stroke-width:0.26706794"
       x="14.4186"
       y="37.893692"
       id="text1945"><tspan
         sodipodi:role="line"
         id="tspan1943"
         x="14.4186"
         y="37.893692"
         style="fill:#898989;fill-opacity:1;stroke-width:0.26706794">岩手県</tspan></text>
  </g>
</svg>
