<svg xmlns="http://www.w3.org/2000/svg" xmlns:xlink="http://www.w3.org/1999/xlink" style="isolation:isolate" viewBox="0 0 111 28" width="111pt" height="28pt"><defs><clipPath id="_clipPath_N8QHsk1TT2ZvPtGIGjOfb8l6OsZrZ7Yl"><rect width="111" height="28"/></clipPath></defs><g clip-path="url(#_clipPath_N8QHsk1TT2ZvPtGIGjOfb8l6OsZrZ7Yl)"><text transform="matrix(1,0,0,1,32.87,23.439)" style="font-family:'Noto Sans CJK KR';font-weight:400;font-size:24px;font-style:normal;fill:#898989;stroke:none;">愛知県</text><g><path d=" M 25.234 7.799 C 23.564 8.79 22.184 10.218 21.262 11.933 C 21.262 11.933 24.11 13.493 24.076 16.795 C 24.073 17.055 24.053 17.304 24.02 17.542 C 23.682 22.545 19.555 26.468 14.464 26.468 C 13.796 26.468 13.145 26.399 12.515 26.269 C 14.248 27.364 16.299 28 18.5 28 C 24.698 28 29.723 22.975 29.723 16.777 C 29.723 13.106 27.96 9.847 25.234 7.799 L 25.234 7.799 Z " fill="rgb(168,57,69)"/><path d=" M 14.464 25.987 C 18.468 25.987 21.901 23.421 23.146 19.84 C 22.124 21.346 20.625 21.94 20.625 21.94 C 19.883 20.443 19.465 18.756 19.465 16.972 C 19.465 12.956 21.58 9.435 24.756 7.459 C 24.756 7.459 24.756 7.459 24.756 7.459 C 25.823 6.796 27.008 6.304 28.275 6.03 C 28.275 6.03 25.301 4.66 21.219 5.504 C 21.219 5.504 20.441 1.792 18.549 0.082 L 18.49 0 L 18.434 0.082 C 16.542 1.792 15.764 5.504 15.764 5.504 C 11.682 4.66 8.708 6.03 8.708 6.03 C 9.979 6.305 11.167 6.798 12.236 7.464 C 12.236 7.464 12.236 7.464 12.235 7.465 C 15.407 9.441 17.518 12.96 17.518 16.972 C 17.518 18.756 17.1 20.443 16.358 21.94 C 16.358 21.94 12.947 20.591 12.907 16.795 C 12.873 13.493 15.721 11.933 15.721 11.933 C 14.801 10.221 13.424 8.796 11.758 7.805 C 9.037 9.853 7.277 13.109 7.277 16.777 C 7.277 20.272 8.875 23.393 11.379 25.451 C 12.343 25.797 13.381 25.987 14.464 25.987 L 14.464 25.987 Z " fill="rgb(168,57,69)"/></g></g></svg>
