<?xml version="1.0" encoding="UTF-8" standalone="no"?>
<!DOCTYPE svg PUBLIC "-//W3C//DTD SVG 1.1//EN" "http://www.w3.org/Graphics/SVG/1.1/DTD/svg11.dtd">
<svg width="100%" height="100%" viewBox="0 0 2048 1536" version="1.1" xmlns="http://www.w3.org/2000/svg" xmlns:xlink="http://www.w3.org/1999/xlink" xml:space="preserve" xmlns:serif="http://www.serif.com/" style="fill-rule:evenodd;clip-rule:evenodd;stroke-linejoin:round;stroke-miterlimit:2;">
    <g transform="matrix(4.91846,0,0,4.91846,-2199.37,-4989.21)">
        <text x="465.957px" y="1112.4px" style="font-family:'01FLOPDESIGN';font-size:79.769px;fill:rgb(255,0,0);">沖<tspan x="560.548px 655.14px " y="1112.4px 1112.4px ">縄県</tspan></text>
    </g>
    <g transform="matrix(4.91846,0,0,4.91846,-2201.62,-4199.48)">
        <text x="465.957px" y="1112.4px" style="font-family:'01FLOPDESIGN';font-size:65.824px;fill:rgb(255,0,0);">対<tspan x="546.94px 627.924px 708.908px 789.891px " y="1112.4px 1112.4px 1112.4px 1112.4px ">策サイト</tspan></text>
    </g>
    <g transform="matrix(2.74365,0,0,2.74365,-1257.61,-637.357)">
        <rect x="491.923" y="428.425" width="687.901" height="156.154" style="fill:rgb(255,0,0);"/>
    </g>
    <g transform="matrix(4.07532,0,0,4.07532,-1690.08,-3988.2)">
        <text x="465.957px" y="1193.94px" style="font-family:'migmix-1p-regular', 'MigMix 1P', sans-serif;font-size:84.154px;fill:white;">C<tspan x="522.761px 587.055px " y="1193.94px 1193.94px ">OV</tspan>ID<tspan x="730.286px " y="1193.94px ">-</tspan>19</text>
    </g>
    <g transform="matrix(1.50358,0,0,1.72843,-1135.4,-863.954)">
        <ellipse cx="1784.62" cy="741.931" rx="72.621" ry="63.074" style="fill:rgb(255,0,0);"/>
    </g>
    <g transform="matrix(4.41502,0,0,4.04898,-6170.78,-2628.72)">
        <text x="1727.41px" y="768px" style="font-family:'migmix-1p-regular', 'MigMix 1P', sans-serif;font-size:42.012px;fill:white;">非</text>
    </g>
    <g transform="matrix(3.30266,0,0,3.30266,-4468.39,-2431.18)">
        <text x="1855.07px" y="884.082px" style="font-family:'migmix-1p-regular', 'MigMix 1P', sans-serif;font-size:49.844px;fill:rgb(255,0,0);">公<tspan x="1901.85px " y="884.082px ">式</tspan></text>
    </g>
</svg>
