<?xml version="1.0" encoding="utf-8"?>
<!-- Generator: Adobe Illustrator 24.1.1, SVG Export Plug-In . SVG Version: 6.00 Build 0)  -->
<svg version="1.1" id="レイヤー_1" xmlns="http://www.w3.org/2000/svg" xmlns:xlink="http://www.w3.org/1999/xlink" x="0px"
	 y="0px" viewBox="0 0 111 28" style="enable-background:new 0 0 111 28;" xml:space="preserve">
<style type="text/css">
	.st0{fill:#13AE67;}
</style>
<g>
	<path d="M49.9,5.4c-0.1-0.3-0.1-0.5-0.3-0.6c-0.2-0.3-0.6-0.4-1.1-0.4c-0.8,0-1.3,0.4-1.3,1c0,0.4,0.2,0.7,0.7,0.9
		C48,6.3,48,6.3,48.9,6.5c1.2,0.3,1.7,0.7,1.7,1.6c0,1.1-0.7,1.7-2.1,1.7c-0.9,0-1.5-0.3-1.8-0.7c-0.2-0.3-0.3-0.5-0.4-1L47,8
		c0,0.4,0.1,0.5,0.2,0.8c0.3,0.3,0.7,0.5,1.3,0.5c0.9,0,1.5-0.4,1.5-1.1c0-0.4-0.2-0.7-0.4-0.8c-0.3-0.1-0.3-0.2-1.3-0.4
		c-0.5-0.1-0.8-0.2-1-0.4c-0.5-0.3-0.7-0.7-0.7-1.2c0-1,0.8-1.6,2-1.6c0.8,0,1.3,0.2,1.7,0.7c0.2,0.2,0.3,0.4,0.3,0.8L49.9,5.4z"/>
	<path d="M53.8,8.9c0,0.4,0,0.6,0.1,0.9h-0.7c0-0.2,0.1-0.5,0.1-0.9V4.5H52c-0.4,0-0.6,0-0.9,0.1V3.9c0.3,0,0.5,0.1,0.9,0.1h3
		c0.4,0,0.6,0,0.9-0.1v0.6c-0.3,0-0.5-0.1-0.9-0.1h-1.2V8.9z"/>
	<path d="M61.6,6.8c0,1.8-1,3-2.6,3c-1.6,0-2.6-1.2-2.6-3c0-1.8,1-3,2.6-3C60.6,3.8,61.6,5,61.6,6.8z M60.3,8.8
		c0.4-0.4,0.7-1.1,0.7-2c0-0.8-0.2-1.5-0.7-2C60,4.5,59.5,4.4,59,4.4c-1.2,0-2,1-2,2.5c0,1.5,0.8,2.5,2,2.5
		C59.5,9.3,60,9.1,60.3,8.8z"/>
	<path d="M62.6,9.7c0-0.3,0.1-0.5,0.1-0.9V4.8c0-0.3,0-0.5-0.1-0.9c0.3,0,0.5,0,0.8,0H65c1.2,0,1.8,0.6,1.8,1.7
		c0,1.1-0.7,1.8-1.9,1.8h-1.7v1.5c0,0.4,0,0.6,0.1,0.9H62.6z M65,6.8c0.8,0,1.3-0.4,1.3-1.2c0-0.8-0.4-1.2-1.3-1.2h-1.7v2.4H65z"/>
	<path d="M74.3,5.6c-0.1-0.3-0.2-0.5-0.4-0.7c-0.3-0.4-0.8-0.5-1.3-0.5c-1.2,0-2,0.9-2,2.5c0,1.5,0.8,2.5,2,2.5
		c0.6,0,1.1-0.2,1.4-0.6c0.2-0.2,0.2-0.4,0.3-0.8L75,8c-0.1,0.5-0.2,0.7-0.4,0.9c-0.4,0.6-1.1,0.9-2,0.9c-0.7,0-1.4-0.2-1.8-0.7
		C70.3,8.6,70,7.8,70,6.8c0-1,0.3-1.8,0.9-2.4c0.4-0.4,1-0.6,1.7-0.6c0.7,0,1.3,0.2,1.7,0.6c0.3,0.3,0.4,0.5,0.6,1L74.3,5.6z"/>
	<path d="M81.1,6.8c0,1.8-1,3-2.6,3c-1.6,0-2.6-1.2-2.6-3c0-1.8,1-3,2.6-3C80,3.8,81.1,5,81.1,6.8z M79.8,8.8c0.4-0.4,0.7-1.1,0.7-2
		c0-0.8-0.2-1.5-0.7-2c-0.4-0.3-0.8-0.5-1.3-0.5c-1.2,0-2,1-2,2.5c0,1.5,0.8,2.5,2,2.5C79,9.3,79.4,9.1,79.8,8.8z"/>
	<path d="M84,8.6c0,0.1,0.1,0.3,0.2,0.5c0.1-0.2,0.1-0.4,0.2-0.5l1.4-3.9C86,4.4,86,4.1,86,3.9h0.8c-0.1,0.2-0.2,0.4-0.4,0.9L84.8,9
		c-0.1,0.3-0.2,0.5-0.2,0.7h-0.7c0-0.2-0.1-0.3-0.2-0.7L82,4.8c-0.2-0.4-0.3-0.7-0.4-0.9h0.8c0,0.2,0.1,0.5,0.2,0.8L84,8.6z"/>
	<path d="M88.2,3.9c0,0.3-0.1,0.5-0.1,0.9v4.1c0,0.3,0,0.6,0.1,0.9h-0.7c0-0.3,0.1-0.5,0.1-0.9V4.8c0-0.4,0-0.6-0.1-0.9H88.2z"/>
	<path d="M89.5,4.8c0-0.3,0-0.5-0.1-0.9c0.3,0,0.5,0,0.8,0h1.3c1.7,0,2.7,1,2.7,2.9c0,1-0.3,1.7-0.8,2.3c-0.5,0.4-1.1,0.7-1.9,0.7
		h-1.3c-0.4,0-0.6,0-0.8,0c0-0.3,0.1-0.5,0.1-0.9V4.8z M91.5,9.2c0.6,0,1.1-0.2,1.4-0.5c0.4-0.4,0.6-1.1,0.6-1.9
		C93.6,6,93.4,5.4,93,5c-0.3-0.4-0.8-0.5-1.4-0.5h-1.5v4.7H91.5z"/>
	<path d="M95.7,7.2c0.2,0,0.4,0,0.7,0h0.9c0.3,0,0.5,0,0.7,0v0.6c-0.2,0-0.4,0-0.7,0h-0.9c-0.3,0-0.5,0-0.7,0V7.2z"/>
	<path d="M99.2,3.9c0.2,0,0.3,0,0.6,0h0.5c0.3,0,0.4,0,0.6,0c0,0.5-0.1,0.9-0.1,1.3v3.7c0,0.4,0,0.6,0.1,0.9h-0.7
		c0-0.3,0.1-0.5,0.1-0.9V4.5h-0.4c-0.2,0-0.4,0-0.7,0V3.9z"/>
	<path d="M103.2,8.5c0.1,0.3,0.2,0.4,0.3,0.5c0.2,0.2,0.5,0.4,1,0.4c0.5,0,0.9-0.2,1.2-0.7c0.1-0.2,0.3-0.6,0.3-1
		c0-0.2,0.1-0.5,0.1-0.9c-0.1,0.2-0.2,0.3-0.3,0.4c-0.4,0.4-0.8,0.5-1.4,0.5c-0.6,0-1-0.2-1.4-0.5c-0.3-0.3-0.5-0.8-0.5-1.4
		c0-1.2,0.8-2,2.1-2c0.9,0,1.6,0.5,1.8,1.3c0.2,0.4,0.2,0.9,0.2,1.6c0,1.1-0.2,1.9-0.6,2.4c-0.4,0.5-0.9,0.7-1.6,0.7
		c-0.5,0-1-0.1-1.3-0.4c-0.2-0.2-0.3-0.4-0.5-0.8L103.2,8.5z M105.9,5.8c0-0.8-0.6-1.4-1.4-1.4c-0.5,0-1,0.2-1.2,0.6
		c-0.1,0.2-0.2,0.5-0.2,0.8c0,0.9,0.5,1.4,1.4,1.4C105.3,7.2,105.9,6.6,105.9,5.8z"/>
	<path class="st0" d="M48.4,22.1c0,0.9,0,1.3,0.1,1.8h-1.8c0.1-0.4,0.1-0.9,0.1-1.7v-6.4c0-0.7,0-1-0.1-1.6c0.5,0,0.8,0,1.6,0h3.4
		c0.8,0,1.2,0,1.7-0.1v1.6c-0.4-0.1-0.9-0.1-1.7-0.1h-3.2v2.6H51c0.8,0,1.2,0,1.7-0.1v1.6c-0.5-0.1-0.9-0.1-1.7-0.1h-2.6V22.1z"/>
	<path class="st0" d="M62.9,14.1c-0.1,0.5-0.1,0.9-0.1,1.7v4.3c0,2.5-1.5,3.9-4.2,3.9c-1.4,0-2.5-0.4-3.1-1.1
		c-0.6-0.7-0.9-1.6-0.9-2.8v-4.3c0-0.8,0-1.2-0.1-1.7h1.8c-0.1,0.4-0.1,0.9-0.1,1.7v4.3c0,1.6,0.9,2.5,2.5,2.5
		c1.6,0,2.5-0.9,2.5-2.5v-4.3c0-0.8,0-1.2-0.1-1.7H62.9z"/>
	<path class="st0" d="M71.9,22.3c0.7,1,0.9,1.2,1.2,1.6h-2.3c-0.2-0.4-0.5-0.9-0.8-1.3l-2.4-3.4l-1.3,1.3v1.8c0,0.7,0,1.1,0.1,1.6
		h-1.8c0.1-0.5,0.1-0.9,0.1-1.6v-6.6c0-0.7,0-1.1-0.1-1.6h1.8c-0.1,0.4-0.1,0.9-0.1,1.6v2.8l3.1-3.2c0.5-0.5,0.7-0.8,1-1.2h2.3
		c-0.4,0.4-0.8,0.7-1.3,1.3l-2.6,2.7L71.9,22.3z"/>
	<path class="st0" d="M82.6,14.1c-0.1,0.5-0.1,0.9-0.1,1.7v4.3c0,2.5-1.5,3.9-4.2,3.9c-1.4,0-2.5-0.4-3.1-1.1
		c-0.6-0.7-0.9-1.6-0.9-2.8v-4.3c0-0.8,0-1.2-0.1-1.7H76c-0.1,0.4-0.1,0.9-0.1,1.7v4.3c0,1.6,0.9,2.5,2.5,2.5c1.6,0,2.5-0.9,2.5-2.5
		v-4.3c0-0.8,0-1.2-0.1-1.7H82.6z"/>
	<path class="st0" d="M86.1,14.1C86.1,14.6,86,15,86,15.7v6.6c0,0.7,0,1.1,0.1,1.6h-1.9c0.1-0.5,0.1-0.9,0.1-1.6v-6.6
		c0-0.8,0-1.1-0.1-1.6H86.1z"/>
</g>
<polygon class="st0" points="26.3,0 24.8,0.9 24.7,0.9 24.1,1.2 23.9,1.1 23.3,1.3 23.1,1.6 23.3,2 22.7,3.3 22.7,3.4 21.7,4.6 
	21.4,4.7 21.1,5.3 20.5,5.8 20.5,6.2 20.1,6.9 19.8,7.8 19.1,8 18.7,8.6 18.7,8.7 18.5,9.3 19.6,10.5 19.5,11.8 19.8,12.4 
	19.7,12.4 19.7,12.5 19.8,12.7 21.1,14.1 21.2,14.7 21.6,15.5 21.6,15.8 21.4,17.3 21,17.6 21.1,18.2 20.7,18.8 20.2,18.8 
	20.1,18.6 19.8,18.3 20.1,17.8 19.7,16.4 20,16.5 20,16.2 19.7,15.8 19,16.2 18.5,16.7 18.3,16.8 18.1,16.8 18.1,17.2 17.9,17.3 
	18,17.6 18.3,17.4 18.4,17.7 18.4,18.2 18.1,18.4 18.2,19 18.6,19.5 18.1,19.9 18,19.9 17.9,19.7 17.7,19.7 17.2,20.1 16.7,20.1 
	16.6,19.8 16.3,19.9 16.2,20.1 16,19.9 15.7,20 15.2,19.7 15.1,19.4 15,19.3 14.4,19.1 14.2,19.3 14.7,19.7 14.6,20.1 14.7,20.2 
	15.1,20.2 15.2,20.4 15.1,20.9 14.8,21.4 14.4,21.2 14.1,21.3 13.9,21.4 14.4,22.1 13.7,22.4 13.1,21.7 12.9,21.9 12.8,21.7 
	12.8,21.4 11.8,21.2 11.2,21.7 11.7,22.1 11.6,22.5 12.1,22.4 12.3,22.2 12.9,22.2 12.2,23.2 11.5,23.7 11.2,23.5 9.5,23.6 9.5,24 
	9.7,24.5 9.5,24.7 9.3,24.7 9.2,24 9.3,23.7 9,23.5 8.6,23.3 8.3,23.3 9.5,23.2 9.8,22.7 9.5,22.5 10.3,22.2 10.2,21.9 9.8,21.9 
	9.3,22.4 8.4,23 7.5,23 6.7,23 6.5,22.7 6.9,22.2 6.7,21.5 6.3,21.3 6.4,21.8 6.2,22.1 5.7,21.8 5.9,21.2 5.3,21.4 5,22.1 5.5,22.7 
	5.5,23.1 5.2,23.5 5.3,23.9 5.6,24.2 5.8,24.5 5.9,24.8 6.7,25.3 6.7,25.3 6.8,26.3 7.1,26.6 10,27.3 10.5,27.8 11,27.8 11.4,27.5 
	12.6,27.6 13.3,26.8 13.3,26.8 13.6,26.7 14,25.9 14.3,25.9 14.7,26.1 14.8,26.1 15,26.4 15.5,26.4 16.3,25.5 16.4,24.8 16.5,24.4 
	16.6,24.3 17.3,23 17.4,23 18.2,24 18.9,23.9 19.3,23 19.5,23 20.2,22.9 20.4,23 20.9,22.6 21.2,22.9 21.4,22.7 21.4,22 21.6,21.4 
	22.9,21.7 23.1,21.3 22.8,19.1 22.4,18.8 22.8,18.1 22.8,18.1 23.7,17.9 24.2,18.4 25.9,19.2 26.4,18.8 26.3,18.2 27.2,17.4 
	27.2,16.9 27,16.4 27.3,15.9 28.1,15.7 28.8,15.5 29.5,15.8 29.5,15.9 31.1,16.1 31.4,16.6 31.7,16.6 32.3,15.8 32.6,16 33.4,16.1 
	33.9,15.7 34.3,15.7 34.8,15.9 35.3,15.4 35.3,15.4 35.6,15.9 36.8,15.9 37.2,15.4 37.9,15.5 38.3,15.4 38.5,15.7 38.8,15.6 
	39.3,14.3 39.8,14.2 40,13.8 39.6,12.4 39,11.8 39.1,11.3 38.1,10.8 38.2,10 37.7,9.7 37.6,9.7 37.6,9.4 37.8,8.9 37.8,8 38.5,7.5 
	38.5,7.1 37.3,7 36.8,7.3 36,7.3 36,7.3 35.9,6.7 35,6 34.7,5.6 33.4,4.7 32.3,4.8 32.1,4.7 31.8,4.7 31.2,5 30.8,4.9 30.7,4.9 
	30.1,4 28.8,4 28.3,3.7 28.2,3 28.1,2.8 28,2.8 28.3,2.1 27.6,1.4 26.7,1 26.5,0.5 "/>
</svg>
