<?xml version="1.0" standalone="no"?>
<!DOCTYPE svg PUBLIC "-//W3C//DTD SVG 20010904//EN"
 "http://www.w3.org/TR/2001/REC-SVG-20010904/DTD/svg10.dtd">
<svg version="1.0" xmlns="http://www.w3.org/2000/svg"
 width="512.000000pt" height="512.000000pt" viewBox="0 0 512.000000 512.000000"
 preserveAspectRatio="xMidYMid meet">

<g transform="translate(0.000000,512.000000) scale(0.100000,-0.100000)"
fill="#000000" stroke="none">
<path d="M4016 4688 c-3 -13 -6 -38 -6 -55 0 -26 -4 -33 -19 -33 -14 0 -20
-10 -25 -40 -4 -26 -11 -40 -21 -40 -9 0 -15 -10 -15 -25 0 -15 -6 -25 -14
-25 -10 0 -19 -19 -26 -54 -6 -30 -18 -57 -26 -60 -11 -4 -14 -37 -14 -185 0
-156 -2 -181 -16 -189 -12 -7 -19 -31 -24 -92 -5 -61 -12 -85 -24 -92 -9 -5
-16 -17 -16 -27 0 -10 -9 -21 -20 -24 -17 -4 -20 -14 -20 -57 0 -43 -3 -53
-20 -57 -11 -3 -20 -14 -20 -24 0 -12 -7 -19 -20 -19 -13 0 -20 -7 -20 -20 0
-13 -7 -20 -20 -20 -13 0 -20 -7 -20 -19 0 -14 -10 -20 -40 -25 -26 -4 -40
-11 -40 -21 0 -8 -8 -15 -19 -15 -10 0 -21 -9 -24 -19 -3 -13 -17 -22 -41 -26
-21 -4 -36 -13 -36 -21 0 -8 -9 -14 -21 -14 -12 0 -23 -8 -26 -19 -3 -12 -17
-21 -39 -26 -19 -3 -34 -12 -34 -20 0 -9 -16 -16 -45 -21 -27 -4 -45 -12 -45
-19 0 -8 -17 -16 -40 -20 -25 -4 -40 -12 -40 -21 0 -8 -7 -14 -16 -14 -9 0
-18 -9 -21 -20 -3 -13 -17 -22 -39 -26 -19 -3 -34 -12 -34 -19 0 -8 -17 -16
-39 -20 -27 -4 -41 -13 -44 -26 -3 -11 -14 -19 -26 -19 -14 0 -21 -6 -21 -20
0 -11 -6 -20 -14 -20 -8 0 -17 -11 -20 -25 -4 -14 -13 -25 -21 -25 -8 0 -15
-7 -15 -15 0 -8 -8 -15 -19 -15 -10 0 -21 -9 -24 -20 -3 -12 -14 -20 -26 -20
-14 0 -21 -6 -21 -20 0 -13 -7 -20 -20 -20 -13 0 -20 -7 -20 -20 0 -13 -7 -20
-19 -20 -15 0 -19 -10 -24 -57 -3 -31 -11 -59 -18 -63 -6 -4 -14 -40 -17 -80
-4 -60 -8 -73 -23 -77 -14 -4 -19 -15 -19 -42 0 -51 -10 -81 -26 -81 -10 0
-14 -13 -14 -40 0 -23 -6 -42 -14 -47 -8 -4 -19 -28 -25 -52 -5 -25 -17 -48
-25 -53 -9 -5 -16 -18 -16 -28 0 -13 -7 -20 -20 -20 -13 0 -20 -7 -20 -20 0
-13 -7 -20 -19 -20 -14 0 -20 -10 -25 -40 -4 -26 -11 -40 -21 -40 -8 0 -15 -9
-15 -20 0 -11 -7 -20 -15 -20 -9 0 -20 -11 -25 -25 -5 -14 -16 -25 -25 -25 -8
0 -15 -9 -15 -20 0 -13 -7 -20 -20 -20 -13 0 -20 -7 -20 -20 0 -13 -7 -20 -20
-20 -13 0 -20 -7 -20 -20 0 -13 -7 -20 -20 -20 -13 0 -20 -7 -20 -20 0 -15 -7
-20 -25 -20 -14 0 -25 -6 -25 -13 0 -7 -15 -19 -34 -27 -19 -7 -37 -21 -39
-32 -3 -10 -12 -18 -21 -18 -9 0 -16 -7 -16 -15 0 -8 -9 -15 -20 -15 -13 0
-20 -7 -20 -20 0 -13 -7 -20 -20 -20 -13 0 -20 -7 -20 -20 0 -13 -7 -20 -19
-20 -10 0 -21 -9 -24 -20 -3 -12 -14 -20 -26 -20 -12 0 -21 -6 -21 -15 0 -8
-14 -17 -36 -21 -24 -4 -38 -13 -41 -25 -3 -11 -14 -19 -24 -19 -11 0 -19 -6
-19 -14 0 -10 -19 -19 -54 -26 -30 -6 -57 -18 -60 -26 -4 -11 -27 -14 -119
-12 -110 3 -115 2 -140 -22 -15 -14 -27 -35 -27 -48 0 -12 -9 -30 -20 -39 -11
-10 -20 -25 -20 -35 0 -11 -8 -18 -20 -18 -13 0 -20 -7 -20 -20 0 -17 -7 -20
-41 -20 -32 0 -42 -4 -46 -20 -4 -15 -14 -20 -40 -20 -26 0 -36 -5 -40 -20 -4
-14 -14 -20 -34 -20 -18 0 -32 -7 -39 -20 -7 -14 -21 -20 -43 -20 -46 0 -77
-10 -77 -25 0 -8 -20 -14 -56 -17 -39 -3 -59 -10 -66 -21 -5 -10 -19 -17 -32
-17 -44 0 -86 -13 -86 -26 0 -8 -16 -14 -42 -16 -48 -3 -56 -19 -44 -83 6 -30
10 -33 58 -38 28 -4 53 -9 56 -11 2 -3 7 -37 10 -76 3 -50 9 -70 18 -70 10 0
14 -14 14 -49 0 -83 9 -109 40 -116 36 -8 80 3 80 20 0 8 10 15 23 17 18 2 23
10 25 41 2 24 8 37 18 37 11 0 14 15 14 61 0 51 3 62 19 66 11 3 21 13 24 24
5 17 15 19 104 19 111 0 143 -6 143 -26 0 -8 9 -14 21 -14 12 0 23 -8 26 -19
3 -11 11 -22 19 -25 21 -8 17 -36 -6 -36 -17 0 -20 -7 -20 -46 l0 -47 61 7
c34 3 77 6 95 6 24 0 34 5 39 20 3 11 13 20 21 20 8 0 14 7 14 15 0 13 20 15
120 15 88 0 122 3 125 13 2 6 6 33 10 60 4 31 11 47 21 47 8 0 14 9 14 20 0
13 7 20 20 20 14 0 20 7 20 21 0 12 8 23 20 26 11 3 20 12 20 20 0 8 9 17 19
20 11 3 21 13 24 24 3 11 14 19 26 19 14 0 21 6 21 20 0 16 7 20 34 20 25 0
35 5 39 20 5 18 13 20 104 20 109 0 143 -6 143 -25 0 -7 9 -15 20 -18 18 -5
20 -14 20 -79 0 -86 7 -118 26 -118 8 0 14 -9 14 -20 0 -13 7 -20 20 -20 13 0
20 -7 20 -20 0 -13 7 -20 20 -20 13 0 20 -7 20 -20 0 -13 7 -20 20 -20 19 0
20 -7 20 -105 0 -83 3 -105 14 -105 7 0 16 -9 19 -20 5 -18 14 -20 82 -20 68
0 77 2 82 20 3 11 13 20 23 20 12 0 20 10 24 31 7 34 31 58 59 59 9 0 17 7 17
15 0 12 13 15 59 15 l58 0 7 39 c3 21 12 41 20 44 7 3 16 21 20 40 4 23 13 37
26 40 11 3 20 12 20 21 0 9 7 16 15 16 11 0 15 11 15 40 0 29 -4 40 -15 40 -8
0 -15 9 -15 19 0 10 7 21 15 25 8 3 15 15 15 26 0 13 7 20 19 20 10 0 21 9 24
20 5 18 14 20 86 20 74 0 81 2 81 20 0 11 6 20 14 20 7 0 16 9 19 20 7 26 37
26 44 0 3 -11 14 -20 24 -20 12 0 19 -7 19 -20 0 -11 6 -20 14 -20 9 0 16 -17
20 -45 6 -36 11 -45 27 -45 13 0 19 -7 19 -21 0 -19 4 -21 31 -15 17 3 35 6
40 6 5 0 9 18 9 40 0 29 4 40 15 40 13 0 15 28 15 194 0 155 -3 195 -14 199
-7 3 -16 21 -20 40 -5 29 -12 37 -38 42 -18 4 -32 15 -35 26 -3 11 -14 19 -25
19 -11 0 -22 9 -25 20 -3 11 -12 20 -19 20 -10 0 -14 13 -14 40 0 27 4 40 14
40 8 0 16 16 20 39 4 27 12 40 26 44 12 3 20 14 20 26 0 12 6 21 15 21 18 0
29 57 21 113 -9 57 3 127 20 127 7 0 16 15 19 34 8 42 24 46 176 46 90 0 109
3 109 15 0 8 9 15 20 15 13 0 20 7 20 19 0 10 9 21 20 24 11 3 20 12 20 20 0
15 40 27 91 27 18 0 29 5 29 14 0 14 42 26 91 26 l29 0 0 105 c0 92 -2 106
-21 123 -27 26 -18 92 12 92 11 0 19 6 19 14 0 7 13 19 30 26 16 7 35 25 42
41 7 16 21 32 30 35 10 3 18 11 18 17 0 7 13 18 28 25 17 7 34 26 42 46 7 19
21 37 32 39 10 3 18 12 18 21 0 9 7 16 15 16 11 0 15 11 15 40 0 27 -4 40 -14
40 -8 0 -17 15 -20 34 -4 22 -13 36 -26 39 -12 3 -20 14 -20 26 0 14 -6 21
-20 21 -19 0 -20 7 -20 174 0 189 5 236 26 236 10 0 14 13 14 39 0 83 13 161
26 161 9 0 14 11 14 29 0 49 12 91 26 91 8 0 14 8 14 19 0 14 10 20 40 25 26
4 40 11 40 21 0 12 14 15 61 15 52 0 62 3 66 20 3 11 14 20 24 20 12 0 19 7
19 20 0 13 7 20 20 20 13 0 20 7 20 20 0 11 7 20 15 20 11 0 15 11 15 39 0 25
-5 41 -15 45 -11 4 -15 21 -15 61 0 48 -2 55 -20 55 -11 0 -20 7 -20 15 0 24
-31 31 -46 10 -9 -13 -31 -20 -69 -23 -51 -4 -55 -3 -55 17 0 14 -6 21 -20 21
-15 0 -20 7 -20 25 0 15 -6 25 -14 25 -19 0 -27 52 -20 127 6 60 5 64 -15 70
-11 3 -21 12 -21 20 0 8 -9 17 -19 20 -12 3 -21 17 -26 39 -3 19 -12 34 -20
34 -8 0 -20 9 -28 20 -8 11 -28 23 -45 26 -22 5 -32 12 -32 25 0 12 -7 19 -20
19 -11 0 -20 7 -20 15 0 10 -10 15 -34 15 -26 0 -35 -5 -40 -22z"/>
<path d="M3598 4553 c-11 -3 -19 -18 -23 -41 -3 -20 -8 -49 -10 -63 -2 -15 -1
-43 2 -63 5 -34 8 -36 44 -36 32 0 39 4 39 20 0 10 7 23 16 28 11 6 18 27 21
59 5 45 3 51 -16 56 -13 3 -21 13 -21 26 0 21 -13 24 -52 14z"/>
<path d="M2119 3791 c-7 -17 -21 -32 -31 -34 -10 -3 -18 -14 -18 -26 0 -12 -6
-21 -14 -21 -9 0 -17 -15 -21 -40 -4 -26 -12 -40 -22 -40 -8 0 -17 -9 -20 -20
-3 -11 -12 -20 -19 -20 -8 0 -14 -9 -14 -21 0 -12 -8 -23 -20 -26 -13 -3 -22
-17 -26 -39 -4 -21 -12 -34 -21 -34 -8 0 -17 -9 -20 -20 -3 -11 -11 -20 -18
-20 -8 0 -16 -17 -20 -40 -4 -25 -12 -40 -21 -40 -8 0 -14 -9 -14 -21 0 -12
-8 -23 -20 -26 -13 -3 -22 -17 -26 -40 -4 -23 -14 -37 -25 -40 -11 -3 -19 -14
-19 -24 0 -11 -6 -19 -14 -19 -16 0 -26 -30 -26 -77 0 -26 4 -33 20 -33 11 0
20 6 20 14 0 17 50 28 90 20 29 -6 30 -9 30 -59 0 -44 -3 -54 -20 -58 -14 -3
-20 -14 -20 -31 0 -14 -9 -34 -20 -43 -14 -12 -20 -30 -20 -56 0 -24 -5 -40
-15 -43 -8 -3 -17 -21 -21 -39 -5 -28 -11 -34 -40 -40 -31 -5 -34 -9 -34 -40
0 -23 5 -35 14 -35 7 0 16 -9 19 -20 7 -25 37 -26 37 -1 0 14 10 20 40 25 26
4 40 11 40 21 0 8 8 15 19 15 10 0 21 9 24 20 3 12 14 20 26 20 12 0 21 6 21
13 0 7 16 19 35 27 19 8 35 20 35 28 0 8 9 16 20 19 11 3 20 12 20 20 0 8 9
17 20 20 13 3 22 17 26 39 3 19 12 34 19 34 7 0 15 9 18 20 3 11 12 20 21 20
11 0 18 13 22 39 4 27 12 41 25 44 11 3 19 14 19 26 0 14 6 21 20 21 13 0 20
7 20 20 0 11 7 20 15 20 8 0 17 14 21 35 3 20 12 35 20 35 8 0 14 9 14 20 0
11 -6 20 -14 20 -8 0 -22 3 -31 6 -11 5 -18 0 -21 -14 -7 -23 -49 -35 -94 -25
-23 4 -30 11 -30 28 0 44 -13 85 -26 85 -10 0 -14 13 -14 39 0 30 4 40 20 44
17 4 20 14 20 61 0 41 4 56 14 56 19 0 26 22 26 81 0 36 4 49 14 49 18 0 31
74 21 119 -8 39 -20 39 -36 2z"/>
</g>
</svg>
