<?xml version="1.0" encoding="UTF-8"?>
<svg width="16px" height="15px" viewBox="0 0 16 15" version="1.1" xmlns="http://www.w3.org/2000/svg" xmlns:xlink="http://www.w3.org/1999/xlink">
    <!-- Generator: Sketch 63.1 (92452) - https://sketch.com -->
    <title>Untitled</title>
    <desc>Created with Sketch.</desc>
    <g id="Page-1" stroke="none" stroke-width="1" fill="none" fill-rule="evenodd">
        <g id="printer_outline" fill="#FFFFFF" fill-rule="nonzero">
            <path d="M12.5,0.75 L12.5,3.73828 L3.5,3.73828 L3.5,0.75 L12.5,0.75 Z M12.2907236,7.70920716 C12.4768717,7.89526013 12.7093252,7.98828 12.9884811,7.98828 C13.2675047,7.98828 13.5000906,7.89526013 13.6861063,7.70920716 C13.9032129,7.52316741 14.0117,7.29061112 14.0117,7.01153828 C14.0117,6.73246543 13.9032129,6.49990914 13.6861063,6.31386939 C13.5000906,6.09680539 13.2675047,5.98828 12.9884811,5.98828 C12.7093252,5.98828 12.4768717,6.09680539 12.2907236,6.31386939 C12.1047079,6.49990914 12.0117,6.73246543 12.0117,7.01153828 C12.0117,7.29061112 12.1047079,7.52316741 12.2907236,7.70920716 Z M10.9883,12.7383 L10.9883,9.01172 L5.01172,9.01172 L5.01172,12.7383 L10.9883,12.7383 Z M13.2383,4.51172 C13.8477,4.51172 14.375,4.73437 14.8203,5.17969 C15.2656,5.625 15.4883,6.15234 15.4883,6.76172 L15.4883,11.2617 L12.5,11.2617 L12.5,14.25 L3.5,14.25 L3.5,11.2617 L0.511719,11.2617 L0.511719,6.76172 C0.511719,6.15234 0.734375,5.625 1.17969,5.17969 C1.625,4.73437 2.15234,4.51172 2.76172,4.51172 L13.2383,4.51172 Z" id="Shape"></path>
        </g>
    </g>
</svg>