<svg id="whiteback" xmlns="http://www.w3.org/2000/svg" viewBox="0 0 1254 339"><defs><style>.cls-1{fill:#f57;}.cls-2{opacity:0.4;}.cls-3{fill:#808088;}</style></defs><title>アートボード 2</title><path class="cls-1" d="M242.18,73.59c-22.21-17.86-54.81-14-72.75,8.17l-24.3,30a12.28,12.28,0,0,0,9.54,20h71.12a20.88,20.88,0,0,1,20.42,16.54l.43,2,3.31-4.09A51.57,51.57,0,0,0,242.18,73.59Z"/><g class="cls-2"><path class="cls-3" d="M97.6,135.33l-3.31,4.09a51.57,51.57,0,0,0,7.77,72.65,50.91,50.91,0,0,0,32,11.26,52.35,52.35,0,0,0,40.71-19.43l24.3-30a12.28,12.28,0,0,0-9.54-20H118.45A20.88,20.88,0,0,1,98,137.35l-.43-2"/></g><path class="cls-3" d="M459.56,174.7v52.92c0,16.6,12.26,28.85,33.93,28.85,20.41,0,33.72-11.14,33.72-29.31V174.7H515.37v49.08c0,17.23-7.37,22.79-20.75,22.79-14,0-19.54-7.12-19.54-23.14V174.69Z"/><rect class="cls-3" x="742.63" y="195.4" width="14.72" height="59.8"/><circle class="cls-3" cx="749.99" cy="179.76" r="8.74"/><path class="cls-3" d="M913.84,194.13c-18,0-28.58,12.76-28.58,31v.58c0,19,12,30.7,30.56,30.7a42,42,0,0,0,22-5.88V240.35C930.93,245.46,924,248,916,248c-8.59,0-14.9-5.93-14.9-19.42h40.24C941.38,207.13,933.26,194.13,913.84,194.13ZM901.31,220c.47-10.48,3.75-17.38,12.54-17.38,8.36,0,11.41,7.63,11.67,17.38Z"/><path class="cls-3" d="M1094.8,194.13c-18,0-28.58,12.76-28.58,31v.58c0,19,12,30.7,30.56,30.7a42,42,0,0,0,22-5.88V240.35c-6.89,5.12-13.81,7.6-21.79,7.6-8.59,0-14.9-5.93-14.9-19.42h40.24C1122.33,207.13,1114.21,194.13,1094.8,194.13ZM1082.26,220c.47-10.48,3.75-17.38,12.54-17.38,8.36,0,11.41,7.63,11.67,17.38Z"/><path class="cls-3" d="M859.16,239V203.91H876.5V195.4H859.16V177.69H844.44V195.4h-8v8.51h8v36c0,9.69,8,16.53,19.73,16.53,5.33,0,9.23-1,12.47-3.15v-7.46a25.12,25.12,0,0,1-9.18,1.63C862.5,247.49,859.16,244.16,859.16,239Z"/><path class="cls-3" d="M241.64,193.87c0-6.58,4.52-10.43,13.32-10.43,9.59,0,15.9,2.67,23.75,7.8v-13a61.63,61.63,0,0,0-23.78-4.72c-17.52,0-30,8.63-30,21.62,0,26.61,40.85,22.31,40.85,40.19,0,7.1-5.21,11.1-12.71,11.1-11.06,0-20.93-5.53-28-11.39v13.35c8,5.74,18.26,7.93,29,7.93,17.21,0,28.31-9,28.31-22.48C282.48,205.43,241.64,211,241.64,193.87Z"/><path class="cls-3" d="M611.69,198.38c0-17.53-14.71-23.68-28.9-23.68H546.93v80.5h15.52V223.11h14.81l18.32,32.08h17.88L594.1,221.25C602.73,218.92,611.69,211.86,611.69,198.38Zm-49.24-13.73h15.21c10.39,0,17.36,4.71,17.36,14.46,0,10.4-8.29,14-17.36,14H562.45Z"/><polygon class="cls-3" points="428.42 255.2 447.82 255.2 414.22 210.4 445.9 174.7 432.68 174.7 393.26 219.12 393.26 174.7 377.73 174.7 377.73 255.2 393.26 255.2 393.26 234.02 403.7 222.25 428.42 255.2"/><path class="cls-3" d="M350,255.2H366.7l-31.45-81.07H319.47L288,255.2h12.7L309,233.88h32.78ZM312.83,224l12.56-32.37L337.94,224Z"/><path class="cls-3" d="M807.9,194.13c-7.93,0-16,5.3-19.55,10.12V195.4H773.63v59.79h14.72V213.31c3.3-6.14,8.8-9.14,13.43-9.14a8.68,8.68,0,0,1,8.82,8.72v42.31h14.72V209.61C825.32,202.31,820.23,194.13,807.9,194.13Z"/><path class="cls-3" d="M1036.24,194.13c-7.93,0-16,5.3-19.55,10.12V195.4H1002v59.79h14.72V213.31c3.3-6.14,8.8-9.14,13.43-9.14a8.68,8.68,0,0,1,8.82,8.72v42.31h14.72V209.61C1053.66,202.31,1048.57,194.13,1036.24,194.13Z"/><path class="cls-3" d="M969.38,206V195.4H954.66v59.8h14.72V215.07c6.08-6.61,13.16-9.09,22.22-9.09V194.82A27.38,27.38,0,0,0,969.38,206Z"/><path class="cls-3" d="M683.53,255.2h16.65l-31.45-81.07H653L621.51,255.2h12.7l8.27-21.31h32.78ZM646.31,224l12.56-32.37L671.43,224Z"/><path class="cls-3" d="M1153.42,239V203.91h17.34V195.4h-17.34V177.69H1138.7V195.4h-8v8.51h8v36c0,9.69,8,16.53,19.73,16.53,5.33,0,9.23-1,12.47-3.15v-7.46a25.12,25.12,0,0,1-9.18,1.63C1156.77,247.49,1153.42,244.16,1153.42,239Z"/></svg>