<svg xmlns="http://www.w3.org/2000/svg" viewBox="0 0 370 370"><path d="M0 0h70v10H0zM90 0h10v10H90zM110 0h10v10h-10zM130 0h10v10h-10zM150 0h10v10h-10zM240 0h20v10h-20zM270 0h10v10h-10zM300 0h70v10h-70zM0 10h10v10H0zM60 10h10v10H60zM80 10h10v10H80zM100 10h10v10h-10zM120 10h10v10h-10zM150 10h10v10h-10zM210 10h10v10h-10zM230 10h20v10h-20zM260 10h10v10h-10zM280 10h10v10h-10zM300 10h10v10h-10zM360 10h10v10h-10zM0 20h10v10H0zM20 20h30v10H20zM60 20h10v10H60zM90 20h10v10H90zM120 20h10v10h-10zM140 20h10v10h-10zM160 20h30v10h-30zM220 20h10v10h-10zM270 20h20v10h-20zM300 20h10v10h-10zM320 20h30v10h-30zM360 20h10v10h-10zM0 30h10v10H0zM20 30h30v10H20zM60 30h10v10H60zM90 30h50v10H90zM150 30h10v10h-10zM170 30h10v10h-10zM190 30h20v10h-20zM220 30h10v10h-10zM240 30h50v10h-50zM300 30h10v10h-10zM320 30h30v10h-30zM360 30h10v10h-10zM0 40h10v10H0zM20 40h30v10H20zM60 40h10v10H60zM90 40h10v10H90zM120 40h10v10h-10zM200 40h10v10h-10zM220 40h60v10h-60zM300 40h10v10h-10zM320 40h30v10h-30zM360 40h10v10h-10zM0 50h10v10H0zM60 50h10v10H60zM80 50h10v10H80zM100 50h20v10h-20zM140 50h30v10h-30zM180 50h40v10h-40zM240 50h30v10h-30zM280 50h10v10h-10zM300 50h10v10h-10zM360 50h10v10h-10zM0 60h70v10H0zM80 60h10v10H80zM100 60h10v10h-10zM120 60h10v10h-10zM140 60h10v10h-10zM160 60h10v10h-10zM180 60h10v10h-10zM200 60h10v10h-10zM220 60h10v10h-10zM240 60h10v10h-10zM260 60h10v10h-10zM280 60h10v10h-10zM300 60h70v10h-70zM80 70h10v10H80zM100 70h70v10h-70zM210 70h20v10h-20zM260 70h10v10h-10zM40 80h40v10H40zM100 80h10v10h-10zM140 80h20v10h-20zM170 80h30v10h-30zM210 80h10v10h-10zM230 80h10v10h-10zM250 80h30v10h-30zM300 80h20v10h-20zM350 80h10v10h-10zM0 90h20v10H0zM30 90h20v10H30zM70 90h10v10H70zM100 90h30v10h-30zM160 90h20v10h-20zM190 90h10v10h-10zM220 90h30v10h-30zM280 90h60v10h-60zM10 100h40v10H10zM60 100h20v10H60zM90 100h20v10H90zM120 100h10v10h-10zM160 100h20v10h-20zM190 100h10v10h-10zM230 100h40v10h-40zM280 100h20v10h-20zM310 100h10v10h-10zM0 110h20v10H0zM40 110h10v10H40zM70 110h10v10H70zM90 110h50v10H90zM150 110h20v10h-20zM180 110h10v10h-10zM210 110h30v10h-30zM260 110h10v10h-10zM290 110h10v10h-10zM330 110h20v10h-20zM360 110h10v10h-10zM0 120h10v10H0zM20 120h10v10H20zM50 120h30v10H50zM110 120h40v10h-40zM160 120h20v10h-20zM190 120h10v10h-10zM210 120h10v10h-10zM230 120h10v10h-10zM270 120h10v10h-10zM290 120h30v10h-30zM340 120h20v10h-20zM20 130h20v10H20zM70 130h30v10H70zM110 130h20v10h-20zM150 130h10v10h-10zM190 130h10v10h-10zM230 130h20v10h-20zM270 130h30v10h-30zM320 130h10v10h-10zM340 130h20v10h-20zM0 140h10v10H0zM20 140h20v10H20zM50 140h20v10H50zM80 140h10v10H80zM110 140h40v10h-40zM170 140h10v10h-10zM190 140h10v10h-10zM210 140h10v10h-10zM230 140h10v10h-10zM270 140h10v10h-10zM330 140h20v10h-20zM0 150h10v10H0zM30 150h30v10H30zM70 150h20v10H70zM100 150h20v10h-20zM130 150h10v10h-10zM180 150h10v10h-10zM210 150h20v10h-20zM240 150h10v10h-10zM260 150h60v10h-60zM340 150h10v10h-10zM360 150h10v10h-10zM20 160h20v10H20zM60 160h20v10H60zM90 160h10v10H90zM120 160h60v10h-60zM190 160h20v10h-20zM220 160h10v10h-10zM240 160h10v10h-10zM260 160h50v10h-50zM330 160h30v10h-30zM0 170h20v10H0zM30 170h30v10H30zM100 170h60v10h-60zM170 170h10v10h-10zM240 170h40v10h-40zM320 170h10v10h-10zM0 180h10v10H0zM30 180h10v10H30zM60 180h10v10H60zM80 180h20v10H80zM110 180h10v10h-10zM130 180h10v10h-10zM170 180h30v10h-30zM210 180h10v10h-10zM230 180h20v10h-20zM270 180h30v10h-30zM310 180h40v10h-40zM10 190h10v10H10zM30 190h10v10H30zM80 190h30v10H80zM120 190h30v10h-30zM160 190h20v10h-20zM190 190h10v10h-10zM210 190h20v10h-20zM260 190h20v10h-20zM300 190h30v10h-30zM340 190h10v10h-10zM360 190h10v10h-10zM0 200h10v10H0zM30 200h10v10H30zM60 200h10v10H60zM90 200h30v10H90zM130 200h10v10h-10zM150 200h10v10h-10zM210 200h20v10h-20zM260 200h10v10h-10zM290 200h20v10h-20zM340 200h10v10h-10zM360 200h10v10h-10zM0 210h30v10H0zM40 210h20v10H40zM70 210h30v10H70zM130 210h20v10h-20zM160 210h10v10h-10zM190 210h10v10h-10zM210 210h20v10h-20zM240 210h10v10h-10zM260 210h20v10h-20zM320 210h20v10h-20zM0 220h20v10H0zM50 220h20v10H50zM90 220h10v10H90zM110 220h20v10h-20zM140 220h20v10h-20zM180 220h10v10h-10zM210 220h10v10h-10zM250 220h40v10h-40zM300 220h10v10h-10zM330 220h20v10h-20zM10 230h40v10H10zM70 230h20v10H70zM100 230h20v10h-20zM130 230h40v10h-40zM190 230h30v10h-30zM230 230h30v10h-30zM280 230h40v10h-40zM340 230h30v10h-30zM20 240h20v10H20zM50 240h20v10H50zM110 240h20v10h-20zM160 240h20v10h-20zM230 240h30v10h-30zM270 240h30v10h-30zM310 240h20v10h-20zM340 240h10v10h-10zM360 240h10v10h-10zM0 250h10v10H0zM20 250h10v10H20zM40 250h20v10H40zM80 250h60v10H80zM150 250h20v10h-20zM180 250h20v10h-20zM250 250h20v10h-20zM300 250h10v10h-10zM330 250h20v10h-20zM30 260h20v10H30zM60 260h20v10H60zM90 260h10v10H90zM110 260h20v10h-20zM160 260h30v10h-30zM200 260h10v10h-10zM250 260h10v10h-10zM270 260h10v10h-10zM290 260h10v10h-10zM320 260h10v10h-10zM20 270h30v10H20zM70 270h20v10H70zM100 270h10v10h-10zM130 270h10v10h-10zM150 270h40v10h-40zM210 270h10v10h-10zM240 270h10v10h-10zM260 270h30v10h-30zM300 270h50v10h-50zM360 270h10v10h-10zM0 280h90v10H0zM100 280h10v10h-10zM130 280h20v10h-20zM160 280h10v10h-10zM180 280h30v10h-30zM230 280h10v10h-10zM280 280h50v10h-50zM360 280h10v10h-10zM80 290h30v10H80zM150 290h20v10h-20zM230 290h10v10h-10zM280 290h10v10h-10zM320 290h20v10h-20zM0 300h70v10H0zM80 300h10v10H80zM100 300h30v10h-30zM170 300h30v10h-30zM210 300h10v10h-10zM230 300h40v10h-40zM280 300h10v10h-10zM300 300h10v10h-10zM320 300h30v10h-30zM0 310h10v10H0zM60 310h10v10H60zM80 310h20v10H80zM130 310h40v10h-40zM190 310h40v10h-40zM240 310h10v10h-10zM280 310h10v10h-10zM320 310h10v10h-10zM340 310h20v10h-20zM0 320h10v10H0zM20 320h30v10H20zM60 320h10v10H60zM80 320h10v10H80zM100 320h40v10h-40zM160 320h10v10h-10zM180 320h10v10h-10zM230 320h10v10h-10zM280 320h90v10h-90zM0 330h10v10H0zM20 330h30v10H20zM60 330h10v10H60zM100 330h20v10h-20zM140 330h10v10h-10zM170 330h20v10h-20zM200 330h10v10h-10zM240 330h10v10h-10zM260 330h10v10h-10zM300 330h10v10h-10zM0 340h10v10H0zM20 340h30v10H20zM60 340h10v10H60zM90 340h10v10H90zM120 340h10v10h-10zM150 340h10v10h-10zM170 340h20v10h-20zM210 340h10v10h-10zM230 340h50v10h-50zM300 340h10v10h-10zM350 340h10v10h-10zM0 350h10v10H0zM60 350h10v10H60zM100 350h10v10h-10zM120 350h50v10h-50zM190 350h20v10h-20zM230 350h10v10h-10zM270 350h10v10h-10zM290 350h30v10h-30zM340 350h20v10h-20zM0 360h70v10H0zM90 360h10v10H90zM130 360h10v10h-10zM150 360h10v10h-10zM170 360h20v10h-20zM200 360h20v10h-20zM240 360h10v10h-10zM270 360h10v10h-10zM290 360h20v10h-20zM320 360h10v10h-10zM340 360h30v10h-30z"/></svg>
