<svg xmlns="http://www.w3.org/2000/svg" width="370" height="370"><path d="M0 0h70v10H0zM100 0h10v10h-10zM130 0h10v10h-10zM160 0h90v10h-90zM280 0h10v10h-10zM300 0h70v10h-70zM0 10h10v10H0zM60 10h10v10H60zM120 10h10v10h-10zM150 10h10v10h-10zM170 10h10v10h-10zM190 10h30v10h-30zM230 10h20v10h-20zM260 10h10v10h-10zM280 10h10v10h-10zM300 10h10v10h-10zM360 10h10v10h-10zM0 20h10v10H0zM20 20h30v10H20zM60 20h10v10H60zM80 20h20v10H80zM110 20h10v10h-10zM160 20h40v10h-40zM210 20h10v10h-10zM230 20h60v10h-60zM300 20h10v10h-10zM320 20h30v10h-30zM360 20h10v10h-10zM0 30h10v10H0zM20 30h30v10H20zM60 30h10v10H60zM80 30h10v10H80zM110 30h10v10h-10zM130 30h10v10h-10zM170 30h10v10h-10zM190 30h10v10h-10zM210 30h10v10h-10zM230 30h30v10h-30zM280 30h10v10h-10zM300 30h10v10h-10zM320 30h30v10h-30zM360 30h10v10h-10zM0 40h10v10H0zM20 40h30v10H20zM60 40h10v10H60zM120 40h20v10h-20zM160 40h20v10h-20zM200 40h20v10h-20zM250 40h10v10h-10zM300 40h10v10h-10zM320 40h30v10h-30zM360 40h10v10h-10zM0 50h10v10H0zM60 50h10v10H60zM110 50h20v10h-20zM150 50h10v10h-10zM170 50h20v10h-20zM200 50h20v10h-20zM250 50h20v10h-20zM300 50h10v10h-10zM360 50h10v10h-10zM0 60h70v10H0zM80 60h10v10H80zM100 60h10v10h-10zM120 60h10v10h-10zM140 60h10v10h-10zM160 60h10v10h-10zM180 60h10v10h-10zM200 60h10v10h-10zM220 60h10v10h-10zM240 60h10v10h-10zM260 60h10v10h-10zM280 60h10v10h-10zM300 60h70v10h-70zM90 70h10v10H90zM110 70h40v10h-40zM170 70h20v10h-20zM200 70h10v10h-10zM240 70h10v10h-10zM260 70h30v10h-30zM30 80h20v10H30zM60 80h20v10H60zM90 80h10v10H90zM130 80h20v10h-20zM170 80h60v10h-60zM250 80h20v10h-20zM330 80h20v10h-20zM20 90h20v10H20zM110 90h40v10h-40zM160 90h10v10h-10zM230 90h40v10h-40zM280 90h10v10h-10zM320 90h40v10h-40zM20 100h10v10H20zM40 100h60v10H40zM130 100h30v10h-30zM170 100h10v10h-10zM190 100h20v10h-20zM230 100h10v10h-10zM250 100h10v10h-10zM270 100h40v10h-40zM320 100h10v10h-10zM340 100h10v10h-10zM360 100h10v10h-10zM0 110h30v10H0zM40 110h20v10H40zM70 110h10v10H70zM90 110h10v10H90zM110 110h10v10h-10zM150 110h10v10h-10zM220 110h20v10h-20zM260 110h10v10h-10zM280 110h30v10h-30zM340 110h10v10h-10zM360 110h10v10h-10zM10 120h30v10H10zM60 120h20v10H60zM90 120h10v10H90zM120 120h10v10h-10zM150 120h10v10h-10zM170 120h10v10h-10zM190 120h10v10h-10zM230 120h10v10h-10zM270 120h20v10h-20zM300 120h20v10h-20zM330 120h10v10h-10zM360 120h10v10h-10zM20 130h30v10H20zM80 130h20v10H80zM110 130h10v10h-10zM140 130h10v10h-10zM170 130h30v10h-30zM220 130h20v10h-20zM270 130h30v10h-30zM310 130h20v10h-20zM340 130h20v10h-20zM10 140h10v10H10zM30 140h10v10H30zM50 140h60v10H50zM120 140h10v10h-10zM140 140h30v10h-30zM180 140h20v10h-20zM210 140h10v10h-10zM240 140h20v10h-20zM270 140h10v10h-10zM290 140h20v10h-20zM320 140h50v10h-50zM40 150h20v10H40zM70 150h10v10H70zM90 150h10v10H90zM110 150h10v10h-10zM130 150h20v10h-20zM160 150h10v10h-10zM190 150h10v10h-10zM220 150h10v10h-10zM270 150h10v10h-10zM310 150h10v10h-10zM330 150h30v10h-30zM10 160h10v10H10zM50 160h50v10H50zM110 160h20v10h-20zM140 160h30v10h-30zM190 160h40v10h-40zM240 160h30v10h-30zM280 160h10v10h-10zM300 160h20v10h-20zM340 160h10v10h-10zM20 170h30v10H20zM70 170h40v10H70zM120 170h20v10h-20zM150 170h30v10h-30zM220 170h40v10h-40zM270 170h30v10h-30zM310 170h10v10h-10zM340 170h20v10h-20zM10 180h30v10H10zM60 180h20v10H60zM90 180h10v10H90zM130 180h10v10h-10zM170 180h10v10h-10zM220 180h20v10h-20zM250 180h40v10h-40zM330 180h20v10h-20zM360 180h10v10h-10zM0 190h10v10H0zM20 190h10v10H20zM40 190h20v10H40zM90 190h10v10H90zM110 190h30v10h-30zM150 190h10v10h-10zM190 190h10v10h-10zM210 190h50v10h-50zM280 190h10v10h-10zM330 190h10v10h-10zM20 200h10v10H20zM50 200h50v10H50zM120 200h20v10h-20zM160 200h20v10h-20zM240 200h10v10h-10zM260 200h50v10h-50zM320 200h20v10h-20zM350 200h20v10h-20zM0 210h30v10H0zM50 210h10v10H50zM90 210h40v10H90zM140 210h10v10h-10zM160 210h10v10h-10zM180 210h10v10h-10zM200 210h10v10h-10zM230 210h20v10h-20zM260 210h40v10h-40zM310 210h40v10h-40zM0 220h130v10H0zM190 220h20v10h-20zM220 220h20v10h-20zM260 220h20v10h-20zM320 220h20v10h-20zM360 220h10v10h-10zM10 230h10v10H10zM40 230h10v10H40zM80 230h40v10H80zM130 230h10v10h-10zM150 230h10v10h-10zM180 230h10v10h-10zM210 230h10v10h-10zM230 230h20v10h-20zM260 230h30v10h-30zM310 230h10v10h-10zM330 230h40v10h-40zM10 240h10v10H10zM40 240h10v10H40zM60 240h10v10H60zM90 240h50v10H90zM150 240h10v10h-10zM190 240h10v10h-10zM220 240h10v10h-10zM250 240h20v10h-20zM280 240h30v10h-30zM0 250h30v10H0zM50 250h10v10H50zM80 250h10v10H80zM100 250h40v10h-40zM160 250h40v10h-40zM240 250h20v10h-20zM280 250h10v10h-10zM300 250h10v10h-10zM320 250h30v10h-30zM0 260h70v10H0zM90 260h10v10H90zM150 260h30v10h-30zM190 260h40v10h-40zM280 260h10v10h-10zM300 260h40v10h-40zM350 260h20v10h-20zM0 270h10v10H0zM20 270h30v10H20zM70 270h10v10H70zM110 270h50v10h-50zM200 270h10v10h-10zM220 270h10v10h-10zM240 270h10v10h-10zM270 270h10v10h-10zM290 270h10v10h-10zM330 270h40v10h-40zM0 280h10v10H0zM20 280h20v10H20zM50 280h20v10H50zM80 280h10v10H80zM100 280h20v10h-20zM140 280h10v10h-10zM160 280h10v10h-10zM200 280h10v10h-10zM220 280h40v10h-40zM280 280h70v10h-70zM80 290h10v10H80zM110 290h10v10h-10zM130 290h20v10h-20zM160 290h40v10h-40zM220 290h10v10h-10zM250 290h20v10h-20zM280 290h10v10h-10zM320 290h40v10h-40zM0 300h70v10H0zM80 300h10v10H80zM120 300h40v10h-40zM170 300h10v10h-10zM200 300h20v10h-20zM230 300h20v10h-20zM280 300h10v10h-10zM300 300h10v10h-10zM320 300h30v10h-30zM360 300h10v10h-10zM0 310h10v10H0zM60 310h10v10H60zM90 310h20v10H90zM160 310h10v10h-10zM180 310h10v10h-10zM230 310h10v10h-10zM250 310h40v10h-40zM320 310h20v10h-20zM360 310h10v10h-10zM0 320h10v10H0zM20 320h30v10H20zM60 320h10v10H60zM80 320h20v10H80zM110 320h50v10h-50zM180 320h70v10h-70zM260 320h70v10h-70zM350 320h20v10h-20zM0 330h10v10H0zM20 330h30v10H20zM60 330h10v10H60zM80 330h10v10H80zM130 330h20v10h-20zM160 330h10v10h-10zM180 330h10v10h-10zM220 330h10v10h-10zM250 330h20v10h-20zM280 330h10v10h-10zM300 330h10v10h-10zM340 330h10v10h-10zM0 340h10v10H0zM20 340h30v10H20zM60 340h10v10H60zM90 340h10v10H90zM110 340h10v10h-10zM130 340h10v10h-10zM150 340h20v10h-20zM180 340h20v10h-20zM240 340h20v10h-20zM310 340h20v10h-20zM340 340h30v10h-30zM0 350h10v10H0zM60 350h10v10H60zM90 350h10v10H90zM120 350h10v10h-10zM140 350h10v10h-10zM160 350h20v10h-20zM200 350h10v10h-10zM220 350h10v10h-10zM260 350h10v10h-10zM290 350h10v10h-10zM320 350h50v10h-50zM0 360h70v10H0zM90 360h20v10H90zM140 360h10v10h-10zM170 360h30v10h-30zM220 360h10v10h-10zM240 360h10v10h-10zM260 360h10v10h-10zM280 360h10v10h-10zM300 360h40v10h-40zM360 360h10v10h-10z"/></svg>
