<?xml version="1.0" encoding="utf-8"?><svg version="1.1" xmlns="http://www.w3.org/2000/svg" xmlns:xlink="http://www.w3.org/1999/xlink" width="370px" height="370px" viewBox="0 0 370 370"><rect x="0" y="0" width="70" height="10"></rect><rect x="100" y="0" width="10" height="10"></rect><rect x="130" y="0" width="40" height="10"></rect><rect x="190" y="0" width="10" height="10"></rect><rect x="210" y="0" width="30" height="10"></rect><rect x="250" y="0" width="20" height="10"></rect><rect x="280" y="0" width="10" height="10"></rect><rect x="300" y="0" width="70" height="10"></rect><rect x="0" y="10" width="10" height="10"></rect><rect x="60" y="10" width="10" height="10"></rect><rect x="130" y="10" width="10" height="10"></rect><rect x="150" y="10" width="50" height="10"></rect><rect x="210" y="10" width="30" height="10"></rect><rect x="250" y="10" width="10" height="10"></rect><rect x="280" y="10" width="10" height="10"></rect><rect x="300" y="10" width="10" height="10"></rect><rect x="360" y="10" width="10" height="10"></rect><rect x="0" y="20" width="10" height="10"></rect><rect x="20" y="20" width="30" height="10"></rect><rect x="60" y="20" width="10" height="10"></rect><rect x="90" y="20" width="20" height="10"></rect><rect x="130" y="20" width="10" height="10"></rect><rect x="150" y="20" width="70" height="10"></rect><rect x="250" y="20" width="10" height="10"></rect><rect x="270" y="20" width="20" height="10"></rect><rect x="300" y="20" width="10" height="10"></rect><rect x="320" y="20" width="30" height="10"></rect><rect x="360" y="20" width="10" height="10"></rect><rect x="0" y="30" width="10" height="10"></rect><rect x="20" y="30" width="30" height="10"></rect><rect x="60" y="30" width="10" height="10"></rect><rect x="110" y="30" width="10" height="10"></rect><rect x="150" y="30" width="10" height="10"></rect><rect x="250" y="30" width="40" height="10"></rect><rect x="300" y="30" width="10" height="10"></rect><rect x="320" y="30" width="30" height="10"></rect><rect x="360" y="30" width="10" height="10"></rect><rect x="0" y="40" width="10" height="10"></rect><rect x="20" y="40" width="30" height="10"></rect><rect x="60" y="40" width="10" height="10"></rect><rect x="80" y="40" width="30" height="10"></rect><rect x="130" y="40" width="20" height="10"></rect><rect x="160" y="40" width="10" height="10"></rect><rect x="180" y="40" width="10" height="10"></rect><rect x="200" y="40" width="40" height="10"></rect><rect x="250" y="40" width="40" height="10"></rect><rect x="300" y="40" width="10" height="10"></rect><rect x="320" y="40" width="30" height="10"></rect><rect x="360" y="40" width="10" height="10"></rect><rect x="0" y="50" width="10" height="10"></rect><rect x="60" y="50" width="10" height="10"></rect><rect x="90" y="50" width="20" height="10"></rect><rect x="120" y="50" width="10" height="10"></rect><rect x="150" y="50" width="20" height="10"></rect><rect x="180" y="50" width="30" height="10"></rect><rect x="260" y="50" width="10" height="10"></rect><rect x="300" y="50" width="10" height="10"></rect><rect x="360" y="50" width="10" height="10"></rect><rect x="0" y="60" width="70" height="10"></rect><rect x="80" y="60" width="10" height="10"></rect><rect x="100" y="60" width="10" height="10"></rect><rect x="120" y="60" width="10" height="10"></rect><rect x="140" y="60" width="10" height="10"></rect><rect x="160" y="60" width="10" height="10"></rect><rect x="180" y="60" width="10" height="10"></rect><rect x="200" y="60" width="10" height="10"></rect><rect x="220" y="60" width="10" height="10"></rect><rect x="240" y="60" width="10" height="10"></rect><rect x="260" y="60" width="10" height="10"></rect><rect x="280" y="60" width="10" height="10"></rect><rect x="300" y="60" width="70" height="10"></rect><rect x="80" y="70" width="60" height="10"></rect><rect x="160" y="70" width="20" height="10"></rect><rect x="210" y="70" width="80" height="10"></rect><rect x="20" y="80" width="20" height="10"></rect><rect x="60" y="80" width="30" height="10"></rect><rect x="100" y="80" width="10" height="10"></rect><rect x="140" y="80" width="20" height="10"></rect><rect x="210" y="80" width="20" height="10"></rect><rect x="250" y="80" width="30" height="10"></rect><rect x="290" y="80" width="20" height="10"></rect><rect x="320" y="80" width="10" height="10"></rect><rect x="20" y="90" width="10" height="10"></rect><rect x="50" y="90" width="10" height="10"></rect><rect x="80" y="90" width="20" height="10"></rect><rect x="110" y="90" width="20" height="10"></rect><rect x="140" y="90" width="10" height="10"></rect><rect x="160" y="90" width="10" height="10"></rect><rect x="200" y="90" width="10" height="10"></rect><rect x="220" y="90" width="10" height="10"></rect><rect x="240" y="90" width="20" height="10"></rect><rect x="270" y="90" width="10" height="10"></rect><rect x="300" y="90" width="40" height="10"></rect><rect x="0" y="100" width="10" height="10"></rect><rect x="40" y="100" width="30" height="10"></rect><rect x="80" y="100" width="10" height="10"></rect><rect x="100" y="100" width="20" height="10"></rect><rect x="150" y="100" width="20" height="10"></rect><rect x="190" y="100" width="20" height="10"></rect><rect x="260" y="100" width="10" height="10"></rect><rect x="280" y="100" width="20" height="10"></rect><rect x="330" y="100" width="10" height="10"></rect><rect x="0" y="110" width="30" height="10"></rect><rect x="40" y="110" width="10" height="10"></rect><rect x="110" y="110" width="10" height="10"></rect><rect x="130" y="110" width="40" height="10"></rect><rect x="190" y="110" width="10" height="10"></rect><rect x="210" y="110" width="10" height="10"></rect><rect x="230" y="110" width="40" height="10"></rect><rect x="280" y="110" width="10" height="10"></rect><rect x="320" y="110" width="10" height="10"></rect><rect x="340" y="110" width="30" height="10"></rect><rect x="50" y="120" width="20" height="10"></rect><rect x="80" y="120" width="10" height="10"></rect><rect x="120" y="120" width="20" height="10"></rect><rect x="150" y="120" width="10" height="10"></rect><rect x="180" y="120" width="10" height="10"></rect><rect x="200" y="120" width="30" height="10"></rect><rect x="240" y="120" width="40" height="10"></rect><rect x="300" y="120" width="10" height="10"></rect><rect x="320" y="120" width="10" height="10"></rect><rect x="360" y="120" width="10" height="10"></rect><rect x="20" y="130" width="40" height="10"></rect><rect x="100" y="130" width="20" height="10"></rect><rect x="150" y="130" width="10" height="10"></rect><rect x="180" y="130" width="10" height="10"></rect><rect x="200" y="130" width="10" height="10"></rect><rect x="230" y="130" width="20" height="10"></rect><rect x="260" y="130" width="20" height="10"></rect><rect x="300" y="130" width="30" height="10"></rect><rect x="340" y="130" width="30" height="10"></rect><rect x="20" y="140" width="10" height="10"></rect><rect x="40" y="140" width="30" height="10"></rect><rect x="80" y="140" width="10" height="10"></rect><rect x="100" y="140" width="40" height="10"></rect><rect x="160" y="140" width="10" height="10"></rect><rect x="180" y="140" width="10" height="10"></rect><rect x="220" y="140" width="10" height="10"></rect><rect x="250" y="140" width="20" height="10"></rect><rect x="300" y="140" width="10" height="10"></rect><rect x="340" y="140" width="20" height="10"></rect><rect x="0" y="150" width="10" height="10"></rect><rect x="20" y="150" width="20" height="10"></rect><rect x="50" y="150" width="10" height="10"></rect><rect x="70" y="150" width="10" height="10"></rect><rect x="110" y="150" width="10" height="10"></rect><rect x="130" y="150" width="20" height="10"></rect><rect x="160" y="150" width="10" height="10"></rect><rect x="180" y="150" width="30" height="10"></rect><rect x="220" y="150" width="30" height="10"></rect><rect x="270" y="150" width="10" height="10"></rect><rect x="300" y="150" width="10" height="10"></rect><rect x="320" y="150" width="10" height="10"></rect><rect x="350" y="150" width="20" height="10"></rect><rect x="10" y="160" width="10" height="10"></rect><rect x="30" y="160" width="20" height="10"></rect><rect x="60" y="160" width="10" height="10"></rect><rect x="80" y="160" width="10" height="10"></rect><rect x="110" y="160" width="10" height="10"></rect><rect x="130" y="160" width="50" height="10"></rect><rect x="190" y="160" width="20" height="10"></rect><rect x="220" y="160" width="10" height="10"></rect><rect x="240" y="160" width="20" height="10"></rect><rect x="270" y="160" width="20" height="10"></rect><rect x="330" y="160" width="30" height="10"></rect><rect x="0" y="170" width="40" height="10"></rect><rect x="70" y="170" width="10" height="10"></rect><rect x="90" y="170" width="50" height="10"></rect><rect x="160" y="170" width="10" height="10"></rect><rect x="180" y="170" width="20" height="10"></rect><rect x="210" y="170" width="10" height="10"></rect><rect x="230" y="170" width="10" height="10"></rect><rect x="270" y="170" width="10" height="10"></rect><rect x="300" y="170" width="10" height="10"></rect><rect x="330" y="170" width="20" height="10"></rect><rect x="360" y="170" width="10" height="10"></rect><rect x="10" y="180" width="30" height="10"></rect><rect x="50" y="180" width="20" height="10"></rect><rect x="80" y="180" width="30" height="10"></rect><rect x="120" y="180" width="20" height="10"></rect><rect x="160" y="180" width="50" height="10"></rect><rect x="230" y="180" width="10" height="10"></rect><rect x="250" y="180" width="10" height="10"></rect><rect x="270" y="180" width="10" height="10"></rect><rect x="290" y="180" width="40" height="10"></rect><rect x="340" y="180" width="30" height="10"></rect><rect x="20" y="190" width="40" height="10"></rect><rect x="70" y="190" width="40" height="10"></rect><rect x="130" y="190" width="20" height="10"></rect><rect x="170" y="190" width="10" height="10"></rect><rect x="190" y="190" width="10" height="10"></rect><rect x="210" y="190" width="10" height="10"></rect><rect x="230" y="190" width="10" height="10"></rect><rect x="260" y="190" width="40" height="10"></rect><rect x="320" y="190" width="20" height="10"></rect><rect x="350" y="190" width="10" height="10"></rect><rect x="20" y="200" width="70" height="10"></rect><rect x="110" y="200" width="10" height="10"></rect><rect x="130" y="200" width="10" height="10"></rect><rect x="150" y="200" width="50" height="10"></rect><rect x="220" y="200" width="30" height="10"></rect><rect x="260" y="200" width="30" height="10"></rect><rect x="320" y="200" width="20" height="10"></rect><rect x="0" y="210" width="40" height="10"></rect><rect x="50" y="210" width="10" height="10"></rect><rect x="100" y="210" width="20" height="10"></rect><rect x="150" y="210" width="30" height="10"></rect><rect x="190" y="210" width="10" height="10"></rect><rect x="230" y="210" width="20" height="10"></rect><rect x="260" y="210" width="10" height="10"></rect><rect x="290" y="210" width="10" height="10"></rect><rect x="310" y="210" width="10" height="10"></rect><rect x="340" y="210" width="10" height="10"></rect><rect x="360" y="210" width="10" height="10"></rect><rect x="0" y="220" width="10" height="10"></rect><rect x="20" y="220" width="10" height="10"></rect><rect x="50" y="220" width="30" height="10"></rect><rect x="100" y="220" width="30" height="10"></rect><rect x="140" y="220" width="20" height="10"></rect><rect x="170" y="220" width="20" height="10"></rect><rect x="200" y="220" width="30" height="10"></rect><rect x="260" y="220" width="10" height="10"></rect><rect x="280" y="220" width="20" height="10"></rect><rect x="320" y="220" width="30" height="10"></rect><rect x="360" y="220" width="10" height="10"></rect><rect x="10" y="230" width="20" height="10"></rect><rect x="40" y="230" width="20" height="10"></rect><rect x="70" y="230" width="10" height="10"></rect><rect x="90" y="230" width="10" height="10"></rect><rect x="110" y="230" width="30" height="10"></rect><rect x="150" y="230" width="50" height="10"></rect><rect x="220" y="230" width="10" height="10"></rect><rect x="240" y="230" width="40" height="10"></rect><rect x="290" y="230" width="10" height="10"></rect><rect x="330" y="230" width="20" height="10"></rect><rect x="360" y="230" width="10" height="10"></rect><rect x="10" y="240" width="10" height="10"></rect><rect x="30" y="240" width="10" height="10"></rect><rect x="60" y="240" width="10" height="10"></rect><rect x="110" y="240" width="20" height="10"></rect><rect x="140" y="240" width="10" height="10"></rect><rect x="160" y="240" width="10" height="10"></rect><rect x="190" y="240" width="10" height="10"></rect><rect x="210" y="240" width="10" height="10"></rect><rect x="230" y="240" width="10" height="10"></rect><rect x="300" y="240" width="20" height="10"></rect><rect x="340" y="240" width="20" height="10"></rect><rect x="10" y="250" width="40" height="10"></rect><rect x="90" y="250" width="50" height="10"></rect><rect x="160" y="250" width="20" height="10"></rect><rect x="190" y="250" width="10" height="10"></rect><rect x="210" y="250" width="30" height="10"></rect><rect x="280" y="250" width="10" height="10"></rect><rect x="320" y="250" width="50" height="10"></rect><rect x="10" y="260" width="20" height="10"></rect><rect x="50" y="260" width="40" height="10"></rect><rect x="110" y="260" width="20" height="10"></rect><rect x="140" y="260" width="20" height="10"></rect><rect x="170" y="260" width="20" height="10"></rect><rect x="200" y="260" width="10" height="10"></rect><rect x="240" y="260" width="20" height="10"></rect><rect x="270" y="260" width="20" height="10"></rect><rect x="300" y="260" width="10" height="10"></rect><rect x="350" y="260" width="10" height="10"></rect><rect x="0" y="270" width="10" height="10"></rect><rect x="20" y="270" width="20" height="10"></rect><rect x="70" y="270" width="10" height="10"></rect><rect x="100" y="270" width="30" height="10"></rect><rect x="140" y="270" width="20" height="10"></rect><rect x="180" y="270" width="20" height="10"></rect><rect x="220" y="270" width="10" height="10"></rect><rect x="240" y="270" width="10" height="10"></rect><rect x="260" y="270" width="10" height="10"></rect><rect x="280" y="270" width="10" height="10"></rect><rect x="340" y="270" width="10" height="10"></rect><rect x="360" y="270" width="10" height="10"></rect><rect x="20" y="280" width="20" height="10"></rect><rect x="60" y="280" width="30" height="10"></rect><rect x="110" y="280" width="20" height="10"></rect><rect x="140" y="280" width="50" height="10"></rect><rect x="210" y="280" width="30" height="10"></rect><rect x="250" y="280" width="10" height="10"></rect><rect x="270" y="280" width="60" height="10"></rect><rect x="350" y="280" width="10" height="10"></rect><rect x="80" y="290" width="10" height="10"></rect><rect x="100" y="290" width="30" height="10"></rect><rect x="140" y="290" width="10" height="10"></rect><rect x="160" y="290" width="40" height="10"></rect><rect x="210" y="290" width="10" height="10"></rect><rect x="270" y="290" width="20" height="10"></rect><rect x="320" y="290" width="30" height="10"></rect><rect x="360" y="290" width="10" height="10"></rect><rect x="0" y="300" width="70" height="10"></rect><rect x="80" y="300" width="10" height="10"></rect><rect x="120" y="300" width="10" height="10"></rect><rect x="140" y="300" width="40" height="10"></rect><rect x="220" y="300" width="10" height="10"></rect><rect x="250" y="300" width="20" height="10"></rect><rect x="280" y="300" width="10" height="10"></rect><rect x="300" y="300" width="10" height="10"></rect><rect x="320" y="300" width="20" height="10"></rect><rect x="350" y="300" width="20" height="10"></rect><rect x="0" y="310" width="10" height="10"></rect><rect x="60" y="310" width="10" height="10"></rect><rect x="90" y="310" width="30" height="10"></rect><rect x="130" y="310" width="30" height="10"></rect><rect x="190" y="310" width="40" height="10"></rect><rect x="240" y="310" width="10" height="10"></rect><rect x="280" y="310" width="10" height="10"></rect><rect x="320" y="310" width="20" height="10"></rect><rect x="0" y="320" width="10" height="10"></rect><rect x="20" y="320" width="30" height="10"></rect><rect x="60" y="320" width="10" height="10"></rect><rect x="90" y="320" width="10" height="10"></rect><rect x="110" y="320" width="20" height="10"></rect><rect x="140" y="320" width="20" height="10"></rect><rect x="170" y="320" width="10" height="10"></rect><rect x="200" y="320" width="10" height="10"></rect><rect x="220" y="320" width="20" height="10"></rect><rect x="260" y="320" width="10" height="10"></rect><rect x="280" y="320" width="60" height="10"></rect><rect x="350" y="320" width="20" height="10"></rect><rect x="0" y="330" width="10" height="10"></rect><rect x="20" y="330" width="30" height="10"></rect><rect x="60" y="330" width="10" height="10"></rect><rect x="80" y="330" width="20" height="10"></rect><rect x="110" y="330" width="20" height="10"></rect><rect x="140" y="330" width="10" height="10"></rect><rect x="180" y="330" width="40" height="10"></rect><rect x="260" y="330" width="10" height="10"></rect><rect x="300" y="330" width="10" height="10"></rect><rect x="320" y="330" width="10" height="10"></rect><rect x="0" y="340" width="10" height="10"></rect><rect x="20" y="340" width="30" height="10"></rect><rect x="60" y="340" width="10" height="10"></rect><rect x="80" y="340" width="20" height="10"></rect><rect x="110" y="340" width="10" height="10"></rect><rect x="140" y="340" width="10" height="10"></rect><rect x="160" y="340" width="10" height="10"></rect><rect x="190" y="340" width="10" height="10"></rect><rect x="260" y="340" width="10" height="10"></rect><rect x="290" y="340" width="50" height="10"></rect><rect x="350" y="340" width="10" height="10"></rect><rect x="0" y="350" width="10" height="10"></rect><rect x="60" y="350" width="10" height="10"></rect><rect x="90" y="350" width="20" height="10"></rect><rect x="130" y="350" width="30" height="10"></rect><rect x="190" y="350" width="10" height="10"></rect><rect x="230" y="350" width="30" height="10"></rect><rect x="300" y="350" width="50" height="10"></rect><rect x="0" y="360" width="70" height="10"></rect><rect x="110" y="360" width="30" height="10"></rect><rect x="210" y="360" width="10" height="10"></rect><rect x="230" y="360" width="30" height="10"></rect><rect x="270" y="360" width="10" height="10"></rect><rect x="290" y="360" width="30" height="10"></rect><rect x="330" y="360" width="40" height="10"></rect></svg>