<?xml version="1.0" encoding="utf-8"?><svg version="1.1" xmlns="http://www.w3.org/2000/svg" xmlns:xlink="http://www.w3.org/1999/xlink" width="330px" height="330px" viewBox="0 0 330 330"><rect x="0" y="0" width="70" height="10"></rect><rect x="80" y="0" width="20" height="10"></rect><rect x="130" y="0" width="20" height="10"></rect><rect x="160" y="0" width="10" height="10"></rect><rect x="180" y="0" width="10" height="10"></rect><rect x="220" y="0" width="30" height="10"></rect><rect x="260" y="0" width="70" height="10"></rect><rect x="0" y="10" width="10" height="10"></rect><rect x="60" y="10" width="10" height="10"></rect><rect x="90" y="10" width="10" height="10"></rect><rect x="170" y="10" width="10" height="10"></rect><rect x="190" y="10" width="10" height="10"></rect><rect x="210" y="10" width="10" height="10"></rect><rect x="230" y="10" width="10" height="10"></rect><rect x="260" y="10" width="10" height="10"></rect><rect x="320" y="10" width="10" height="10"></rect><rect x="0" y="20" width="10" height="10"></rect><rect x="20" y="20" width="30" height="10"></rect><rect x="60" y="20" width="10" height="10"></rect><rect x="90" y="20" width="20" height="10"></rect><rect x="130" y="20" width="20" height="10"></rect><rect x="170" y="20" width="20" height="10"></rect><rect x="200" y="20" width="10" height="10"></rect><rect x="230" y="20" width="20" height="10"></rect><rect x="260" y="20" width="10" height="10"></rect><rect x="280" y="20" width="30" height="10"></rect><rect x="320" y="20" width="10" height="10"></rect><rect x="0" y="30" width="10" height="10"></rect><rect x="20" y="30" width="30" height="10"></rect><rect x="60" y="30" width="10" height="10"></rect><rect x="80" y="30" width="10" height="10"></rect><rect x="110" y="30" width="10" height="10"></rect><rect x="160" y="30" width="20" height="10"></rect><rect x="190" y="30" width="10" height="10"></rect><rect x="260" y="30" width="10" height="10"></rect><rect x="280" y="30" width="30" height="10"></rect><rect x="320" y="30" width="10" height="10"></rect><rect x="0" y="40" width="10" height="10"></rect><rect x="20" y="40" width="30" height="10"></rect><rect x="60" y="40" width="10" height="10"></rect><rect x="90" y="40" width="20" height="10"></rect><rect x="130" y="40" width="50" height="10"></rect><rect x="190" y="40" width="10" height="10"></rect><rect x="210" y="40" width="20" height="10"></rect><rect x="260" y="40" width="10" height="10"></rect><rect x="280" y="40" width="30" height="10"></rect><rect x="320" y="40" width="10" height="10"></rect><rect x="0" y="50" width="10" height="10"></rect><rect x="60" y="50" width="10" height="10"></rect><rect x="160" y="50" width="20" height="10"></rect><rect x="200" y="50" width="20" height="10"></rect><rect x="260" y="50" width="10" height="10"></rect><rect x="320" y="50" width="10" height="10"></rect><rect x="0" y="60" width="70" height="10"></rect><rect x="80" y="60" width="10" height="10"></rect><rect x="100" y="60" width="10" height="10"></rect><rect x="120" y="60" width="10" height="10"></rect><rect x="140" y="60" width="10" height="10"></rect><rect x="160" y="60" width="10" height="10"></rect><rect x="180" y="60" width="10" height="10"></rect><rect x="200" y="60" width="10" height="10"></rect><rect x="220" y="60" width="10" height="10"></rect><rect x="240" y="60" width="10" height="10"></rect><rect x="260" y="60" width="70" height="10"></rect><rect x="100" y="70" width="10" height="10"></rect><rect x="120" y="70" width="10" height="10"></rect><rect x="150" y="70" width="50" height="10"></rect><rect x="210" y="70" width="20" height="10"></rect><rect x="240" y="70" width="10" height="10"></rect><rect x="20" y="80" width="10" height="10"></rect><rect x="40" y="80" width="30" height="10"></rect><rect x="80" y="80" width="20" height="10"></rect><rect x="110" y="80" width="10" height="10"></rect><rect x="130" y="80" width="20" height="10"></rect><rect x="160" y="80" width="10" height="10"></rect><rect x="190" y="80" width="10" height="10"></rect><rect x="210" y="80" width="10" height="10"></rect><rect x="230" y="80" width="30" height="10"></rect><rect x="290" y="80" width="10" height="10"></rect><rect x="320" y="80" width="10" height="10"></rect><rect x="10" y="90" width="10" height="10"></rect><rect x="40" y="90" width="10" height="10"></rect><rect x="70" y="90" width="10" height="10"></rect><rect x="120" y="90" width="10" height="10"></rect><rect x="140" y="90" width="20" height="10"></rect><rect x="190" y="90" width="30" height="10"></rect><rect x="240" y="90" width="10" height="10"></rect><rect x="260" y="90" width="10" height="10"></rect><rect x="310" y="90" width="20" height="10"></rect><rect x="10" y="100" width="10" height="10"></rect><rect x="30" y="100" width="10" height="10"></rect><rect x="50" y="100" width="20" height="10"></rect><rect x="80" y="100" width="10" height="10"></rect><rect x="100" y="100" width="20" height="10"></rect><rect x="130" y="100" width="40" height="10"></rect><rect x="200" y="100" width="10" height="10"></rect><rect x="220" y="100" width="10" height="10"></rect><rect x="240" y="100" width="20" height="10"></rect><rect x="280" y="100" width="10" height="10"></rect><rect x="300" y="100" width="30" height="10"></rect><rect x="0" y="110" width="10" height="10"></rect><rect x="20" y="110" width="10" height="10"></rect><rect x="40" y="110" width="10" height="10"></rect><rect x="80" y="110" width="10" height="10"></rect><rect x="100" y="110" width="20" height="10"></rect><rect x="130" y="110" width="20" height="10"></rect><rect x="170" y="110" width="20" height="10"></rect><rect x="210" y="110" width="20" height="10"></rect><rect x="240" y="110" width="30" height="10"></rect><rect x="320" y="110" width="10" height="10"></rect><rect x="0" y="120" width="30" height="10"></rect><rect x="50" y="120" width="20" height="10"></rect><rect x="100" y="120" width="20" height="10"></rect><rect x="140" y="120" width="10" height="10"></rect><rect x="170" y="120" width="10" height="10"></rect><rect x="200" y="120" width="10" height="10"></rect><rect x="220" y="120" width="10" height="10"></rect><rect x="240" y="120" width="40" height="10"></rect><rect x="310" y="120" width="10" height="10"></rect><rect x="0" y="130" width="20" height="10"></rect><rect x="30" y="130" width="10" height="10"></rect><rect x="50" y="130" width="10" height="10"></rect><rect x="90" y="130" width="20" height="10"></rect><rect x="150" y="130" width="10" height="10"></rect><rect x="170" y="130" width="10" height="10"></rect><rect x="220" y="130" width="10" height="10"></rect><rect x="240" y="130" width="30" height="10"></rect><rect x="290" y="130" width="40" height="10"></rect><rect x="50" y="140" width="60" height="10"></rect><rect x="130" y="140" width="10" height="10"></rect><rect x="150" y="140" width="10" height="10"></rect><rect x="180" y="140" width="10" height="10"></rect><rect x="200" y="140" width="20" height="10"></rect><rect x="260" y="140" width="10" height="10"></rect><rect x="290" y="140" width="40" height="10"></rect><rect x="10" y="150" width="20" height="10"></rect><rect x="50" y="150" width="10" height="10"></rect><rect x="90" y="150" width="40" height="10"></rect><rect x="140" y="150" width="10" height="10"></rect><rect x="160" y="150" width="10" height="10"></rect><rect x="180" y="150" width="20" height="10"></rect><rect x="210" y="150" width="20" height="10"></rect><rect x="240" y="150" width="10" height="10"></rect><rect x="260" y="150" width="40" height="10"></rect><rect x="320" y="150" width="10" height="10"></rect><rect x="60" y="160" width="20" height="10"></rect><rect x="90" y="160" width="20" height="10"></rect><rect x="120" y="160" width="10" height="10"></rect><rect x="140" y="160" width="30" height="10"></rect><rect x="190" y="160" width="40" height="10"></rect><rect x="250" y="160" width="20" height="10"></rect><rect x="310" y="160" width="10" height="10"></rect><rect x="20" y="170" width="40" height="10"></rect><rect x="70" y="170" width="20" height="10"></rect><rect x="110" y="170" width="10" height="10"></rect><rect x="130" y="170" width="20" height="10"></rect><rect x="160" y="170" width="10" height="10"></rect><rect x="180" y="170" width="10" height="10"></rect><rect x="200" y="170" width="10" height="10"></rect><rect x="250" y="170" width="20" height="10"></rect><rect x="290" y="170" width="20" height="10"></rect><rect x="320" y="170" width="10" height="10"></rect><rect x="0" y="180" width="20" height="10"></rect><rect x="30" y="180" width="10" height="10"></rect><rect x="60" y="180" width="10" height="10"></rect><rect x="80" y="180" width="20" height="10"></rect><rect x="110" y="180" width="30" height="10"></rect><rect x="210" y="180" width="10" height="10"></rect><rect x="260" y="180" width="10" height="10"></rect><rect x="280" y="180" width="10" height="10"></rect><rect x="300" y="180" width="10" height="10"></rect><rect x="320" y="180" width="10" height="10"></rect><rect x="0" y="190" width="10" height="10"></rect><rect x="30" y="190" width="30" height="10"></rect><rect x="70" y="190" width="10" height="10"></rect><rect x="90" y="190" width="20" height="10"></rect><rect x="150" y="190" width="10" height="10"></rect><rect x="180" y="190" width="10" height="10"></rect><rect x="200" y="190" width="20" height="10"></rect><rect x="250" y="190" width="10" height="10"></rect><rect x="270" y="190" width="10" height="10"></rect><rect x="20" y="200" width="10" height="10"></rect><rect x="60" y="200" width="10" height="10"></rect><rect x="80" y="200" width="10" height="10"></rect><rect x="100" y="200" width="10" height="10"></rect><rect x="130" y="200" width="20" height="10"></rect><rect x="160" y="200" width="10" height="10"></rect><rect x="190" y="200" width="30" height="10"></rect><rect x="240" y="200" width="10" height="10"></rect><rect x="260" y="200" width="10" height="10"></rect><rect x="290" y="200" width="10" height="10"></rect><rect x="320" y="200" width="10" height="10"></rect><rect x="10" y="210" width="10" height="10"></rect><rect x="70" y="210" width="20" height="10"></rect><rect x="100" y="210" width="20" height="10"></rect><rect x="140" y="210" width="100" height="10"></rect><rect x="250" y="210" width="20" height="10"></rect><rect x="290" y="210" width="20" height="10"></rect><rect x="320" y="210" width="10" height="10"></rect><rect x="0" y="220" width="10" height="10"></rect><rect x="40" y="220" width="40" height="10"></rect><rect x="100" y="220" width="10" height="10"></rect><rect x="140" y="220" width="10" height="10"></rect><rect x="170" y="220" width="10" height="10"></rect><rect x="200" y="220" width="10" height="10"></rect><rect x="260" y="220" width="40" height="10"></rect><rect x="310" y="220" width="20" height="10"></rect><rect x="10" y="230" width="10" height="10"></rect><rect x="40" y="230" width="10" height="10"></rect><rect x="70" y="230" width="30" height="10"></rect><rect x="120" y="230" width="20" height="10"></rect><rect x="170" y="230" width="20" height="10"></rect><rect x="210" y="230" width="10" height="10"></rect><rect x="240" y="230" width="20" height="10"></rect><rect x="270" y="230" width="20" height="10"></rect><rect x="320" y="230" width="10" height="10"></rect><rect x="0" y="240" width="10" height="10"></rect><rect x="20" y="240" width="30" height="10"></rect><rect x="60" y="240" width="60" height="10"></rect><rect x="140" y="240" width="10" height="10"></rect><rect x="160" y="240" width="20" height="10"></rect><rect x="200" y="240" width="90" height="10"></rect><rect x="320" y="240" width="10" height="10"></rect><rect x="80" y="250" width="10" height="10"></rect><rect x="100" y="250" width="30" height="10"></rect><rect x="140" y="250" width="20" height="10"></rect><rect x="200" y="250" width="10" height="10"></rect><rect x="220" y="250" width="10" height="10"></rect><rect x="240" y="250" width="10" height="10"></rect><rect x="280" y="250" width="10" height="10"></rect><rect x="300" y="250" width="30" height="10"></rect><rect x="0" y="260" width="70" height="10"></rect><rect x="120" y="260" width="40" height="10"></rect><rect x="210" y="260" width="10" height="10"></rect><rect x="230" y="260" width="20" height="10"></rect><rect x="260" y="260" width="10" height="10"></rect><rect x="280" y="260" width="20" height="10"></rect><rect x="310" y="260" width="20" height="10"></rect><rect x="0" y="270" width="10" height="10"></rect><rect x="60" y="270" width="10" height="10"></rect><rect x="80" y="270" width="30" height="10"></rect><rect x="120" y="270" width="40" height="10"></rect><rect x="170" y="270" width="10" height="10"></rect><rect x="240" y="270" width="10" height="10"></rect><rect x="280" y="270" width="10" height="10"></rect><rect x="320" y="270" width="10" height="10"></rect><rect x="0" y="280" width="10" height="10"></rect><rect x="20" y="280" width="30" height="10"></rect><rect x="60" y="280" width="10" height="10"></rect><rect x="80" y="280" width="10" height="10"></rect><rect x="100" y="280" width="10" height="10"></rect><rect x="120" y="280" width="20" height="10"></rect><rect x="180" y="280" width="10" height="10"></rect><rect x="240" y="280" width="60" height="10"></rect><rect x="310" y="280" width="10" height="10"></rect><rect x="0" y="290" width="10" height="10"></rect><rect x="20" y="290" width="30" height="10"></rect><rect x="60" y="290" width="10" height="10"></rect><rect x="100" y="290" width="10" height="10"></rect><rect x="120" y="290" width="10" height="10"></rect><rect x="140" y="290" width="40" height="10"></rect><rect x="190" y="290" width="20" height="10"></rect><rect x="240" y="290" width="10" height="10"></rect><rect x="280" y="290" width="10" height="10"></rect><rect x="300" y="290" width="10" height="10"></rect><rect x="0" y="300" width="10" height="10"></rect><rect x="20" y="300" width="30" height="10"></rect><rect x="60" y="300" width="10" height="10"></rect><rect x="80" y="300" width="20" height="10"></rect><rect x="120" y="300" width="10" height="10"></rect><rect x="150" y="300" width="10" height="10"></rect><rect x="170" y="300" width="30" height="10"></rect><rect x="220" y="300" width="20" height="10"></rect><rect x="250" y="300" width="10" height="10"></rect><rect x="270" y="300" width="20" height="10"></rect><rect x="320" y="300" width="10" height="10"></rect><rect x="0" y="310" width="10" height="10"></rect><rect x="60" y="310" width="10" height="10"></rect><rect x="90" y="310" width="10" height="10"></rect><rect x="110" y="310" width="20" height="10"></rect><rect x="140" y="310" width="10" height="10"></rect><rect x="160" y="310" width="10" height="10"></rect><rect x="220" y="310" width="10" height="10"></rect><rect x="240" y="310" width="20" height="10"></rect><rect x="270" y="310" width="10" height="10"></rect><rect x="310" y="310" width="10" height="10"></rect><rect x="0" y="320" width="70" height="10"></rect><rect x="90" y="320" width="10" height="10"></rect><rect x="120" y="320" width="10" height="10"></rect><rect x="160" y="320" width="20" height="10"></rect><rect x="210" y="320" width="80" height="10"></rect><rect x="310" y="320" width="20" height="10"></rect></svg>