<svg xmlns="http://www.w3.org/2000/svg" viewBox="0 0 188.97 37.65"><defs><style>.cls-1{fill:#666;}.cls-2{fill:#e50011;}.cls-3{fill:#fff;}</style></defs><g id="レイヤー_2" data-name="レイヤー 2"><g id="レイヤー_1-2" data-name="レイヤー 1"><path class="cls-1" d="M116.25,27.74a22,22,0,0,1-1.32,4.79,20.49,20.49,0,0,1,1.71,2.66l-.81.69a18.55,18.55,0,0,0-1.39-2.31,10.29,10.29,0,0,1-3.52,3.94,4.11,4.11,0,0,0-.71-.76,9.28,9.28,0,0,0,3.59-4,39.24,39.24,0,0,0-2.73-3.3l.72-.56c.82.85,1.68,1.83,2.46,2.82a20.41,20.41,0,0,0,1-4.06Zm1.34-.51h-7v-.94h3V23.77h1v2.52h3.1Zm6.64,1.19h-1.86v7.81c0,.72-.2,1-.63,1.21a7.71,7.71,0,0,1-2.48.2,4.35,4.35,0,0,0-.34-1c1,0,1.83,0,2.08,0s.38-.09.38-.37V28.42h-4.25v-1h4.25V23.74h1v3.72h1.86ZM119,33.91a13.43,13.43,0,0,0-1.66-3.44l.84-.38a12.25,12.25,0,0,1,1.69,3.38Z"/><path class="cls-1" d="M129.62,26a10.57,10.57,0,0,1-1.43,1.83c-.2-.15-.63-.44-.86-.58a9.23,9.23,0,0,0,2.4-3.54l1,.26c-.16.38-.35.78-.55,1.16h4V26h-2.69a10.66,10.66,0,0,1,.68,1.47l-.91.35a8,8,0,0,0-.81-1.82ZM135,32.69a12.81,12.81,0,0,0,6.49,3.51,7.67,7.67,0,0,0-.64.89A13.7,13.7,0,0,1,135,33.83v3.82h-1.05V33.82a13.64,13.64,0,0,1-5.79,3.33,3.6,3.6,0,0,0-.66-.84,12.43,12.43,0,0,0,6.45-3.73V31.24H130v3H129V30.33h5V29.08h-6.07v-.9h6.07v-.4a6.91,6.91,0,0,0-.84-.59,8.08,8.08,0,0,0,2.49-3.5l1,.24a10.38,10.38,0,0,1-.53,1.18h5.07V26h-3.3a7.77,7.77,0,0,1,.8,1.47l-.92.32a8.07,8.07,0,0,0-.95-1.79h-1.22a8.91,8.91,0,0,1-1,1.21H135v1h5.91v.9H135v1.25h5v2.88c0,.5-.1.71-.49.87a6.28,6.28,0,0,1-1.81.13,3.37,3.37,0,0,0-.35-.81c.64,0,1.23,0,1.39,0s.23-.06.23-.21v-2h-4Z"/><path class="cls-1" d="M157.58,27.37a11.37,11.37,0,0,0,1.44-.08v1.22c-.15,0-.75,0-1.42,0h-1.89V29c0,4.36-.92,6.52-4.57,8.17l-1-.92c2.9-1.13,4.39-2.5,4.39-7.14v-.67h-4.73v2.67c0,.59,0,1.3,0,1.43H148.6a13.91,13.91,0,0,0,.08-1.43V28.47h-1.8c-.7,0-1.46,0-1.6,0V27.27a14.56,14.56,0,0,0,1.6.1h1.8V25.22a9.81,9.81,0,0,0-.06-1.13h1.28a8.49,8.49,0,0,0-.07,1.11v2.17h4.73V25.29a10.25,10.25,0,0,0-.08-1.3h1.31a10.58,10.58,0,0,0-.08,1.3v2.08Z"/><path class="cls-1" d="M174.47,24.85a26.51,26.51,0,0,1-4.34,3.49v7a10.1,10.1,0,0,0,.1,1.65h-1.42a15.72,15.72,0,0,0,.09-1.65V29.06a31.39,31.39,0,0,1-6.16,2.57l-.67-1.11a26.53,26.53,0,0,0,7.2-3A17,17,0,0,0,173.5,24Z"/><path class="cls-1" d="M188.47,32.28a41.06,41.06,0,0,0-6.42-2.62V35.1a16.55,16.55,0,0,0,.09,1.86h-1.39a13.64,13.64,0,0,0,.09-1.86V25.69a11.74,11.74,0,0,0-.11-1.63h1.41c-.05.48-.1,1.18-.1,1.63v2.69A54.21,54.21,0,0,1,189,31.06Z"/><rect class="cls-2" y="8.95" width="98.46" height="25.51" rx="4"/><path class="cls-3" d="M18.74,15.39v2.43a5.69,5.69,0,0,0-3.68-1.49,4.68,4.68,0,0,0-3.53,1.51,5.05,5.05,0,0,0-1.44,3.66,5,5,0,0,0,1.44,3.61,4.78,4.78,0,0,0,3.54,1.47,4.41,4.41,0,0,0,1.84-.35,5.52,5.52,0,0,0,.88-.48,10.37,10.37,0,0,0,.95-.72V27.5a7.31,7.31,0,0,1-3.69,1,6.81,6.81,0,0,1-5-2A6.7,6.7,0,0,1,8,21.52a7,7,0,0,1,1.72-4.64,6.83,6.83,0,0,1,5.46-2.49A6.84,6.84,0,0,1,18.74,15.39Z"/><path class="cls-3" d="M20.2,21.39a6.69,6.69,0,0,1,2.11-4.93,7,7,0,0,1,5-2.06,7.12,7.12,0,0,1,7.07,7.07,6.68,6.68,0,0,1-2.1,5,7.19,7.19,0,0,1-9.81.23A6.7,6.7,0,0,1,20.2,21.39Zm2.07,0a4.93,4.93,0,0,0,1.52,3.71,5,5,0,0,0,7.09,0,5,5,0,0,0,1.47-3.65,5,5,0,0,0-1.46-3.64,5.06,5.06,0,0,0-7.15,0A4.89,4.89,0,0,0,22.27,21.42Z"/><path class="cls-3" d="M36.73,14.66l3.76,9.42,3.81-9.42h2.25L40.44,29.27l-6-14.61Z"/><path class="cls-3" d="M50.29,14.66V28.25h-2V14.66Z"/><path class="cls-3" d="M53.55,28.25V14.66h2.86a10.42,10.42,0,0,1,3.24.4A6,6,0,0,1,62,16.41a6.48,6.48,0,0,1,2.11,5,6.46,6.46,0,0,1-2.19,5.08,6.53,6.53,0,0,1-2.31,1.34,10.28,10.28,0,0,1-3.2.38Zm2.06-1.93h.92a7.53,7.53,0,0,0,2.3-.29,4.61,4.61,0,0,0,1.65-1A4.68,4.68,0,0,0,62,21.45a4.69,4.69,0,0,0-1.5-3.62,5.66,5.66,0,0,0-4-1.25h-.92Z"/><path class="cls-3" d="M66.89,20.61h3.93v1.72H66.89Z"/><path class="cls-3" d="M75.34,16.58H73l1.13-1.92h3.27V28.25h-2Z"/><path class="cls-3" d="M83.83,28.72l-1.5-1.12,3.25-4.43-.45,0a1.85,1.85,0,0,1-.3,0A3.84,3.84,0,0,1,82,22a4.21,4.21,0,0,1-1.19-3,4.56,4.56,0,0,1,4.53-4.54,4.5,4.5,0,0,1,3.23,1.32,4.14,4.14,0,0,1,1.38,3.1,6,6,0,0,1-1.34,3.42Zm-1-9.9a2.56,2.56,0,0,0,2.57,2.61,2.46,2.46,0,0,0,1.81-.75A2.57,2.57,0,0,0,83.53,17,2.47,2.47,0,0,0,82.78,18.82Z"/><path class="cls-2" d="M118.19,0a9,9,0,1,0,9,9A9,9,0,0,0,118.19,0Zm0,13.54a6.28,6.28,0,1,1,6.28-6.28A6.28,6.28,0,0,1,118.19,13.54Z"/><path class="cls-2" d="M118.19,2a4,4,0,1,0,4,4A4,4,0,0,0,118.19,2Z"/><path class="cls-1" d="M134.72,8.18a12.33,12.33,0,0,0-2.89-1.48l.52-.77a13.56,13.56,0,0,1,2.93,1.4Zm-2.4,6.39a45.68,45.68,0,0,0,2.81-4.81l.73.64c-.78,1.58-1.84,3.45-2.7,4.85Zm.84-12.67A11.4,11.4,0,0,1,136,3.49l-.59.81a11.48,11.48,0,0,0-2.82-1.67Zm12,2.79v6.45h-1v-.8h-2.89v5.09h-1V10.34h-2.83v.89h-.93V4.69h3.76V1.82h1V4.69ZM140.31,9.4V5.66h-2.83V9.4Zm3.89,0V5.66h-2.89V9.4Z"/><path class="cls-1" d="M151.76,10.4a14.07,14.07,0,0,1-1,3.81,3.35,3.35,0,0,0-.76-.37,11.54,11.54,0,0,0,1-3.59Zm2.54-3.84a13,13,0,0,1,1.47,3.06L155,10a8.56,8.56,0,0,0-.32-1l-1.29.09v6.34h-.88V9.16L150,9.29,150,8.38l1-.05c.32-.39.65-.84,1-1.32a14.89,14.89,0,0,0-1.89-2.17l.54-.63c.15.13.31.28.46.43a18.59,18.59,0,0,0,1.38-2.85l.89.33a28.06,28.06,0,0,1-1.73,3.09c.33.36.63.72.87,1a31.15,31.15,0,0,0,1.64-2.78l.85.41a51.47,51.47,0,0,1-3,4.41l2.31-.11a15,15,0,0,0-.71-1.32Zm.39,3.66a10.23,10.23,0,0,1,.81,2.72l-.78.24a10.78,10.78,0,0,0-.77-2.73Zm8,4.47c.42,0,.51-.25.53-1.27a2.69,2.69,0,0,0,.82.34c-.08,1.31-.35,1.71-1.31,1.71h-2.18c-1.15,0-1.47-.28-1.47-1.53v-.7h-2.27v.81h-.9V8.23h3.17v-1h-3V2.5h7V7.28H160v1h3.39v5H160V14c0,.61.09.73.67.73ZM156.79,9v1.35h2.27V9Zm2.27,3.47V11.11h-2.27v1.35Zm-2.12-7.94h2.12V3.25h-2.12Zm2.12,2V5.24h-2.12V6.53Zm3.14-3.28H160V4.52h2.22Zm0,2H160V6.53h2.22ZM160,9v1.35h2.49V9Zm2.49,3.47V11.11H160v1.35Z"/><path class="cls-1" d="M173,12.25a15.24,15.24,0,0,1-3.62,3,10,10,0,0,0-.78-.68,11.7,11.7,0,0,0,3.38-2.7Zm8.92-1.92v.9h-6.13v4.21h-1V11.23h-4.31v.42h-1V3.1h1v7.23Zm-1.75-1.17h-8.1V2.36h8.1Zm-1-6.05H173V4.37h6.2Zm0,2H173V6.4h6.2Zm0,2H173V8.41h6.2Zm-.86,4.72a32.81,32.81,0,0,1,3.56,2.79l-.86.63a32.1,32.1,0,0,0-3.51-2.89Z"/></g></g></svg>