<svg width="44" height="51" viewBox="0 0 44 51" fill="none" xmlns="http://www.w3.org/2000/svg">
<path d="M22.2292 0.0833282C10.3087 0.0833282 0.625 9.76708 0.625 21.6875C0.625 33.6079 10.3087 43.2917 22.2292 43.2917H23.5V50.9167C35.8525 44.9692 43.8333 33.125 43.8333 21.6875C43.8333 9.76708 34.1496 0.0833282 22.2292 0.0833282ZM24.7708 36.9375H19.6875V31.8542H24.7708V36.9375ZM24.7708 28.0417H19.6875C19.6875 19.7812 27.3125 20.4167 27.3125 15.3333C27.3125 12.5375 25.025 10.25 22.2292 10.25C19.4333 10.25 17.1458 12.5375 17.1458 15.3333H12.0625C12.0625 9.71624 16.6121 5.16666 22.2292 5.16666C27.8462 5.16666 32.3958 9.71624 32.3958 15.3333C32.3958 21.6875 24.7708 22.3229 24.7708 28.0417Z" fill="#333333"/>
</svg>
