<svg xmlns="http://www.w3.org/2000/svg" viewBox="0 0 256 256"><path d="M191.75,255.62v-64H128A25.62,25.62,0,0,1,102.5,166V90.3a26,26,0,0,1,23.07-26.51,25.16,25.16,0,0,1,15.17,3.33h.13c.13,0,.13.12.27.12A24.74,24.74,0,0,1,148.91,73l16.45,18.31a71.43,71.43,0,0,0,51.89,23.43v25.61a108.61,108.61,0,0,1-63.76-25v44.18h38.29a25.62,25.62,0,0,1,25.5,25.61v70.43Zm-153-64a64,64,0,0,1,51-62.74v26.5a38.4,38.4,0,1,0,48.82,49.05H165A63.74,63.74,0,0,1,38.74,191.59ZM102.5,25.12A25.5,25.5,0,1,1,128,50.73,25.5,25.5,0,0,1,102.5,25.12Z" style="fill:#4d4d4d"/></svg>