<svg viewBox="0 0 120 120" fill="none" xmlns="http://www.w3.org/2000/svg">
<path d="M49.5189 21.8889C49.8152 21 49.3707 20.037 48.4818 19.7407C47.593 19.4444 46.63 19.8889 46.3337 20.7778C45.0004 24.7037 40.7041 28.037 38.7041 28.037C38.4078 28.037 38.3337 27.963 38.1855 27.6667C37.7411 26.4074 37.0004 25.5926 36.0374 25.2222C34.2596 24.5556 32.4078 25.7407 30.4818 26.9259C28.8522 27.8889 27.0744 29.0741 25.5189 29.0741C24.5559 29.0741 23.8152 29.8148 23.8152 30.7778C23.8152 31.7407 24.5559 32.4815 25.5189 32.4815C28.0374 32.4815 30.4078 31 32.2596 29.8889C33.0744 29.3704 34.2596 28.6296 34.7781 28.5556C34.7781 28.6296 34.8522 28.7037 34.9263 28.9259C35.5189 30.6296 36.8522 31.5926 38.63 31.5926C42.4818 31.4444 47.8152 26.7037 49.5189 21.8889ZM58.4078 38.3333C56.9263 38.3333 52.4818 38.037 50.3337 37C47.8893 35.8148 47.0004 32.7778 47.0004 32.7037C46.8522 32.1852 46.2596 31.8889 45.7411 32.037C45.2226 32.1852 44.9263 32.7778 45.0744 33.2963C45.1485 33.4444 46.2596 37.2222 49.4448 38.8519C52.4078 40.3333 58.1115 40.4074 58.4078 40.4074C58.9263 40.4074 59.4448 39.963 59.4448 39.3704C59.3707 38.7778 58.9263 38.3333 58.4078 38.3333ZM98.4818 66.3333C98.5559 66.4074 98.7041 66.4074 98.7781 66.4074C99.0004 66.4074 99.2226 66.2593 99.3707 66.037C99.4448 65.963 100.26 64.2593 99.667 62.5556C99.0744 61.0741 97.1485 59.1481 97.0744 59.0741C96.8522 58.8519 96.4078 58.8519 96.1856 59.0741C95.9633 59.2963 95.9633 59.7407 96.1856 59.963C96.7041 60.4815 98.1115 61.963 98.4818 63C98.9263 64.1111 98.2596 65.3704 98.2596 65.4444C98.0374 65.7407 98.1855 66.1852 98.4818 66.3333ZM118.408 97.4444C116.408 90.4074 112.334 86.4074 109 83.1481C105.815 80.037 103.371 77.6667 103.371 73.6667C103.371 71.8148 104.037 70.3333 105 68.2593C106.408 65.2222 108.334 61 108.852 53.4444C109.519 43.963 107.667 36.6296 103.519 32.1111C100.482 28.7778 96.1856 27.1481 90.7781 27.1481C85.3707 27.1481 81.0744 28.8519 78.0374 32.1111C72.7781 37.7407 72.2596 46.7778 72.7041 53.4444C73.2226 61 75.1485 65.2222 76.5559 68.2593C77.5189 70.3333 78.1855 71.8148 78.1855 73.6667C78.1855 77.5926 75.667 80.037 72.5559 83.1481C70.7781 84.9259 68.7781 86.8519 67.0004 89.3704C66.8522 89.2222 66.7041 89.0741 66.5559 89C62.1856 84.7037 58.7041 81.2963 58.7041 75.8148C58.7041 73.2963 59.667 71.1481 61.0004 68.2593C62.9263 64.037 65.667 58.1852 66.4078 47.5926C67.3707 34.4074 64.7781 24.1111 59.0004 17.963C54.9263 13.2963 48.9263 11 41.4448 11C33.9633 11 27.9633 13.2963 23.667 17.8889C17.8893 24.1111 15.3707 34.3333 16.2596 47.5185C17.0004 58.1111 19.667 63.8889 21.667 68.1852C23.0004 71.0741 23.9633 73.1481 23.9633 75.7407C23.9633 81.2222 20.4818 84.6296 16.1115 88.9259C11.5189 93.4444 5.7411 99.0741 3.00036 108.778C2.77814 109.667 3.29666 110.63 4.18555 110.852C5.07444 111.074 6.0374 110.556 6.25962 109.667C8.77814 100.778 13.8893 95.7407 18.4818 91.2963C23.0744 86.8519 27.3707 82.6296 27.3707 75.7407C27.3707 74.1852 27.0744 72.8518 26.7041 71.5185L28.5559 70.2593C30.7041 70.8518 36.63 72.3333 41.5189 72.3333C46.4078 72.3333 52.4078 70.8518 54.4818 70.2593L56.1856 71.4444C55.7411 72.7778 55.4448 74.1852 55.4448 75.7407C55.4448 82.6296 59.7411 86.8519 64.3337 91.2963C68.8522 95.7407 74.0374 100.778 76.5559 109.667C76.7781 110.407 77.4448 110.926 78.1855 110.926C78.3337 110.926 78.4818 110.926 78.63 110.852C79.5189 110.63 80.0374 109.667 79.8152 108.778C77.5189 100.481 73.0004 95.2222 68.8522 91C70.5559 88.5555 72.4818 86.6296 74.3337 84.7778C74.3337 84.7778 74.3337 84.7778 74.4078 84.7037L75.2967 87.4444C75.2967 87.5185 75.3707 87.5926 75.3707 87.6667C74.1115 88.5555 73.2226 90.037 73.2226 91.7407C73.2226 94.4815 75.4448 96.7037 78.1855 96.7037C80.9263 96.7037 83.1485 94.4815 83.1485 91.7407C83.1485 89 80.9263 86.7778 78.1855 86.7778C77.8893 86.7778 77.593 86.7778 77.2967 86.8519C77.2967 86.8519 77.2967 86.8519 77.2967 86.7778L76.1115 83C78.63 80.4074 80.7041 77.5926 80.7041 73.5185C80.7041 71.1481 79.8152 69.2963 78.8522 67.0741C77.4448 64.037 75.667 60.2593 75.2226 53.0741C74.7781 46.9259 75.2226 38.5556 79.8893 33.5926C82.4818 30.7778 86.1855 29.3704 90.8522 29.3704C95.5189 29.3704 99.2226 30.7778 101.815 33.5926C106.482 38.5556 106.926 46.9259 106.482 53.0741C105.963 60.1852 104.26 64.037 102.852 67.0741C101.815 69.2222 101 71.1481 101 73.5185C101 77.5926 103.074 80.3333 105.593 83L104.704 85.8148C102.408 85.3704 98.8522 85.5926 96.5559 88.7037C92.5559 94.1852 95.2967 102.037 95.3707 102.407C95.593 103 96.1856 103.296 96.7041 103.074C97.2967 102.852 97.593 102.259 97.3707 101.741C97.3707 101.667 94.9263 94.5555 98.2596 90.037C100.63 86.7778 104.852 88.1111 105.074 88.1852C105.223 88.2593 109.445 89.5926 109.445 93.6667C109.445 99.2963 103.371 103.593 103.297 103.667C102.778 104.037 102.704 104.704 103 105.148C103.223 105.444 103.519 105.593 103.889 105.593C104.111 105.593 104.334 105.519 104.482 105.37C104.778 105.148 111.593 100.333 111.519 93.5926C111.519 89.7407 108.704 87.4444 106.63 86.4815L107.223 84.7037C107.223 84.7037 107.223 84.7037 107.297 84.7778C110.556 87.963 114.26 91.5926 116.037 97.963C116.186 98.4815 116.704 98.8518 117.223 98.8518C117.297 98.8518 117.445 98.8519 117.519 98.7778C118.186 98.7037 118.556 98.037 118.408 97.4444ZM26.5559 67.5185L25.4448 68.2593C25.2226 67.7407 25.0004 67.2963 24.7781 66.7778C23.2967 63.5926 21.593 59.8148 20.4818 53.8148L26.5559 55.8148V67.5185ZM53.0744 67.1481C50.7781 67.7407 45.593 69 41.4448 69C37.2967 69 32.1115 67.7407 29.8152 67.1481V55.8889C32.1115 55.2963 37.2967 54.037 41.4448 54.037C45.593 54.037 50.7781 55.2963 53.0744 55.8889V67.1481ZM54.7781 52.8518C52.9263 52.3333 46.7041 50.7037 41.5189 50.7037C36.3337 50.7037 30.1115 52.3333 28.2596 52.8518L19.9633 50.1852C19.8893 49.2963 19.7411 48.3333 19.667 47.3704C19.0744 38.8519 19.667 27.2222 26.1115 20.2593C29.7411 16.4074 34.8522 14.4074 41.3707 14.4074C47.8893 14.4074 53.0744 16.4074 56.63 20.2593C63.0744 27.2222 63.7411 38.8519 63.0744 47.3704C63.0004 48.4074 62.9263 49.2963 62.7781 50.2593L54.7781 52.8518ZM57.4448 68.1852L56.4818 67.5185V55.8148L62.4078 53.8889C61.2967 59.8148 59.593 63.5926 58.1115 66.7778C57.8893 67.2963 57.667 67.7407 57.4448 68.1852ZM78.2596 89C79.8152 89 81.0744 90.2593 81.0744 91.8148C81.0744 93.3704 79.8152 94.6296 78.2596 94.6296C76.7041 94.6296 75.4448 93.3704 75.4448 91.8148C75.4448 90.2593 76.7041 89 78.2596 89ZM103.445 47.0741C104.037 47.0741 104.556 46.6296 104.63 46.037C104.704 45.3704 104.26 44.7778 103.593 44.6296C95.0744 43.2963 88.4078 39 87.593 35.8148C87.4448 35.2963 87.0004 34.9259 86.4818 34.9259C85.9633 34.9259 85.5189 35.2222 85.2967 35.6667C84.3337 37.963 80.1855 39.963 78.2596 40.1111C77.593 40.1852 77.0744 40.7778 77.1485 41.4444C77.2226 42.1111 77.8152 42.6296 78.4818 42.5556C80.4078 42.4074 84.1115 40.9259 86.2596 38.5556C88.9263 42.3333 95.7411 45.8148 103.223 47.0741C103.371 47.0741 103.445 47.0741 103.445 47.0741ZM51.2967 42.1111C49.7411 42.1111 49.2226 43.6667 49.2226 45.5185C49.2226 47.3704 49.7411 48.9259 51.2967 48.9259C52.8522 48.9259 53.3707 47.3704 53.3707 45.5185C53.3707 43.6667 52.8522 42.1111 51.2967 42.1111ZM31.7411 42.1111C30.1855 42.1111 29.667 43.6667 29.667 45.5185C29.667 47.3704 30.1855 48.9259 31.7411 48.9259C33.2967 48.9259 33.8152 47.3704 33.8152 45.5185C33.8152 43.6667 33.2967 42.1111 31.7411 42.1111ZM97.7411 55.2963C99.0744 55.2963 99.5189 54.1852 99.5189 52.7778C99.5189 51.3704 99.0744 50.2593 97.7411 50.2593C96.4078 50.2593 95.9633 51.3704 95.9633 52.7778C95.9633 54.1852 96.4818 55.2963 97.7411 55.2963ZM85.667 52.7778C85.667 51.3704 85.2226 50.2593 83.8893 50.2593C82.5559 50.2593 82.1115 51.3704 82.1115 52.7778C82.1115 54.1852 82.5559 55.2963 83.8893 55.2963C85.2226 55.2963 85.667 54.1852 85.667 52.7778ZM90.8522 66.1852C93.0744 66.1852 96.0374 64.9259 97.0004 63C97.1485 62.7037 97.0004 62.2593 96.7041 62.1111C96.4078 61.963 95.9633 62.1111 95.8152 62.4074C95.0744 63.8889 92.63 64.8518 90.8522 64.8518C89.0744 64.8518 86.63 63.8148 85.8893 62.4074C85.7411 62.1111 85.3707 61.963 85.0004 62.1111C84.7041 62.2593 84.5559 62.6296 84.7041 63C85.667 64.9259 88.63 66.1852 90.8522 66.1852ZM100.556 76.8519C100.186 76.2593 99.4448 76.1111 98.9263 76.4074L90.8522 81.3704L82.7781 76.4815C82.1855 76.1111 81.4448 76.3333 81.1485 76.9259C80.7781 77.5185 81.0004 78.2593 81.593 78.5555L90.2596 83.8148C90.4818 83.963 90.7041 83.963 90.8522 83.963C91.0004 83.963 91.2967 83.8889 91.4448 83.8148L100.111 78.5555C100.704 78.1852 100.926 77.4444 100.556 76.8519Z" fill="#4D4D4D"/>
</svg>
