<svg viewBox="0 0 120 120" fill="none" xmlns="http://www.w3.org/2000/svg">
<path d="M68.5185 21.8889C68.8148 21 68.3704 20.037 67.4815 19.7407C66.5926 19.4444 65.6296 19.8889 65.3333 20.7778C64 24.7037 59.7037 28.037 57.7037 28.037C57.4074 28.037 57.3333 27.963 57.1852 27.6667C56.7407 26.4074 56 25.5926 55.037 25.2222C53.2593 24.5556 51.4074 25.7407 49.4815 26.9259C47.8518 27.8889 46.0741 29.0741 44.5185 29.0741C43.5555 29.0741 42.8148 29.8148 42.8148 30.7778C42.8148 31.7407 43.5555 32.4815 44.5185 32.4815C47.037 32.4815 49.4074 31 51.2593 29.8889C52.0741 29.3704 53.2593 28.6296 53.7778 28.5556C53.7778 28.6296 53.8518 28.7037 53.9259 28.9259C54.5185 30.6296 55.8518 31.5926 57.6296 31.5926C61.4815 31.4444 66.8148 26.7037 68.5185 21.8889ZM77.4074 38.3333C75.9259 38.3333 71.4815 38.037 69.3333 37C66.8889 35.8148 66 32.7778 66 32.7037C65.8518 32.1852 65.2593 31.8889 64.7407 32.037C64.2222 32.1852 63.9259 32.7778 64.0741 33.2963C64.1481 33.4444 65.2593 37.2222 68.4444 38.8519C71.4074 40.3333 77.1111 40.4074 77.4074 40.4074C77.9259 40.4074 78.4444 39.963 78.4444 39.3704C78.3704 38.7778 77.9259 38.3333 77.4074 38.3333ZM86.1481 89.3704C86 89.2222 85.8518 89.0741 85.7037 89C81.3333 84.7037 77.8518 81.2963 77.8518 75.8148C77.8518 73.2963 78.8148 71.1482 80.1481 68.2593C82.0741 64.037 84.8148 58.1852 85.5555 47.5926C86.5185 34.4074 83.9259 24.1111 78.1481 17.963C73.9259 13.2963 67.9259 11 60.4444 11C52.963 11 46.963 13.2963 42.6667 17.8889C36.8889 24.1111 34.3704 34.3333 35.2593 47.5185C36 58.1111 38.6667 63.8889 40.6667 68.1852C42 71.0741 42.963 73.1482 42.963 75.7407C42.963 81.2222 39.4815 84.6296 35.1111 88.9259C30.5185 93.4444 24.7407 99.0741 22 108.778C21.7778 109.667 22.2963 110.63 23.1852 110.852C24.0741 111.074 25.037 110.556 25.2593 109.667C27.7778 100.778 32.8889 95.7407 37.4815 91.2963C42.0741 86.8519 46.3704 82.6296 46.3704 75.7407C46.3704 74.1852 46.0741 72.8519 45.7037 71.5185L47.5555 70.2593C49.7037 70.8519 55.6296 72.3333 60.5185 72.3333C65.4074 72.3333 71.4074 70.8519 73.4815 70.2593L75.1852 71.4444C74.7407 72.7778 74.4444 74.1852 74.4444 75.7407C74.4444 82.6296 78.7407 86.8519 83.3333 91.2963C87.8518 95.7407 93.037 100.778 95.5555 109.667C95.7778 110.407 96.4444 110.926 97.1852 110.926C97.3333 110.926 97.4815 110.926 97.6296 110.852C98.5185 110.63 99.037 109.667 98.8148 108.778C96.5185 100.481 92 95.2222 87.8518 91L86.1481 89.3704ZM45.5555 67.5185L44.4444 68.2593C44.2222 67.7407 44 67.2963 43.7778 66.7778C42.2963 63.5926 40.5926 59.8148 39.4815 53.8148L45.5555 55.8148V67.5185ZM72.0741 67.1482C69.7778 67.7407 64.5926 69 60.4444 69C56.2963 69 51.1111 67.7407 48.8148 67.1482V55.8889C51.1111 55.2963 56.2963 54.037 60.4444 54.037C64.5926 54.037 69.7778 55.2963 72.0741 55.8889V67.1482ZM73.7778 52.8519C71.9259 52.3333 65.7037 50.7037 60.5185 50.7037C55.3333 50.7037 49.1111 52.3333 47.2593 52.8519L38.963 50.1852C38.8889 49.2963 38.7407 48.3333 38.6667 47.3704C38.0741 38.8519 38.6667 27.2222 45.1111 20.2593C48.7407 16.4074 53.8518 14.4074 60.3704 14.4074C66.8889 14.4074 72.0741 16.4074 75.6296 20.2593C82.0741 27.2222 82.7407 38.8519 82.0741 47.3704C82 48.4074 81.9259 49.2963 81.7778 50.2593L73.7778 52.8519ZM76.4444 68.1852L75.4815 67.5185V55.8148L81.4074 53.8889C80.2963 59.8148 78.5926 63.5926 77.1111 66.7778C76.8889 67.2963 76.6667 67.7407 76.4444 68.1852ZM70.2963 42.1111C68.7407 42.1111 68.2222 43.6667 68.2222 45.5185C68.2222 47.3704 68.7407 48.9259 70.2963 48.9259C71.8518 48.9259 72.3704 47.3704 72.3704 45.5185C72.3704 43.6667 71.8518 42.1111 70.2963 42.1111ZM50.7407 42.1111C49.1852 42.1111 48.6667 43.6667 48.6667 45.5185C48.6667 47.3704 49.1852 48.9259 50.7407 48.9259C52.2963 48.9259 52.8148 47.3704 52.8148 45.5185C52.8148 43.6667 52.2963 42.1111 50.7407 42.1111Z" fill="#4D4D4D"/>
</svg>
