<svg width="86" height="100" viewBox="0 0 86 100" fill="none" xmlns="http://www.w3.org/2000/svg">
<path d="M50.7257 23.3672C50.5806 22.8592 50 22.5689 49.492 22.7141C48.984 22.8592 48.6938 23.4398 48.8389 23.9477C48.9115 24.0929 50 27.7939 53.1205 29.3904C56.0232 30.8418 61.611 30.9144 61.9013 30.9144C62.4093 30.9144 62.9173 30.4789 62.9173 29.8984C62.9173 29.3178 62.4819 28.8824 61.9013 28.8824C61.8287 28.8824 56.5312 28.8099 53.9913 27.5762C51.5965 26.3425 50.7257 23.3672 50.7257 23.3672ZM45.3556 49.0566C39.9855 49.0566 35.9942 51.7416 34.3977 54.4267C33.9623 55.225 34.18 56.2409 34.9782 56.6763C35.7765 57.1117 36.7925 56.894 37.2279 56.0958C38.3164 54.2816 41.2917 52.3948 45.283 52.3948C49.2743 52.3948 52.3222 54.3541 53.3382 56.0958C53.6285 56.6038 54.209 56.894 54.7896 56.894C55.0798 56.894 55.3701 56.8215 55.6604 56.6763C56.4586 56.2409 56.6763 55.225 56.2409 54.4267C54.717 51.7416 50.7257 49.0566 45.3556 49.0566ZM70.1016 78.3745C65.82 74.1655 62.4093 70.8998 62.4093 65.5297C62.4093 63.0624 63.3527 60.9579 64.6589 58.1277C66.5457 53.9913 69.2308 48.2583 69.9565 37.881C70.8999 24.9637 68.36 14.8766 62.6996 8.8534C58.4906 4.35413 52.6851 2.10449 45.283 2.10449C37.881 2.10449 32.0755 4.35413 27.8665 8.8534C22.2061 14.9492 19.7388 24.9637 20.6096 37.881C21.3353 48.2583 23.9478 53.9187 25.9071 58.1277C27.2134 60.9579 28.1568 62.9898 28.1568 65.5297C28.1568 70.8998 24.746 74.238 20.4644 78.447C15.9652 82.8737 10.3048 88.3889 7.61974 97.8955C7.40204 98.7663 7.91002 99.7097 8.78085 99.9274C9.65167 100.145 10.5951 99.6371 10.8128 98.7663C13.2801 90.058 18.2874 85.1234 22.7867 80.7692C27.2859 76.4151 31.4949 72.2787 31.4949 65.5297C31.4949 62.2641 30.3338 59.7242 28.955 56.7489C27.0682 52.6125 24.6734 47.4601 23.9478 37.6633C23.3672 29.3178 23.9478 17.9245 30.2613 11.103C33.8171 7.32946 38.8244 5.3701 45.2105 5.3701C51.5965 5.3701 56.6763 7.32946 60.1597 11.103C66.4732 17.9245 67.1263 29.3178 66.4732 37.6633C65.7475 47.3875 63.4253 52.6125 61.4659 56.7489C60.0871 59.7242 58.926 62.2641 58.926 65.5297C58.926 72.2787 63.135 76.4151 67.6343 80.7692C72.061 85.1234 77.1408 90.058 79.6081 98.7663C79.8258 99.492 80.479 100 81.2047 100C81.3498 100 81.4949 100 81.6401 99.9274C82.5109 99.7097 83.0189 98.7663 82.8012 97.8955C80.2613 88.3164 74.6009 82.8012 70.1016 78.3745ZM52.1771 10.5951C51.3062 10.3048 50.3629 10.7402 50.0726 11.611C48.7663 15.4572 44.5573 18.7228 42.598 18.7228C42.3077 18.7228 42.2351 18.6502 42.09 18.3599C41.6546 17.1263 40.9289 16.328 39.9855 15.9652C38.2438 15.312 36.4296 16.4731 34.5428 17.6342C32.9463 18.5776 31.2047 19.7387 29.6807 19.7387C28.7373 19.7387 28.0116 20.4644 28.0116 21.4078C28.0116 22.3512 28.7373 23.0769 29.6807 23.0769C32.148 23.0769 34.4703 21.6255 36.2845 20.537C37.0827 20.029 38.2438 19.3033 38.7518 19.2308C38.7518 19.3033 38.8244 19.3759 38.897 19.5936C39.4775 21.2627 40.7838 22.2061 42.5254 22.2061C46.299 22.2061 51.524 17.5617 53.1205 12.8447C53.4833 11.8287 53.0479 10.8853 52.1771 10.5951ZM55.0073 32.5109C53.4833 32.5109 52.9753 34.0348 52.9753 35.849C52.9753 37.6633 53.4833 39.1872 55.0073 39.1872C56.5312 39.1872 57.0392 37.6633 57.0392 35.849C57.0392 34.0348 56.4586 32.5109 55.0073 32.5109ZM35.8491 39.1872C37.373 39.1872 37.881 37.6633 37.881 35.849C37.881 34.0348 37.373 32.5109 35.8491 32.5109C34.3251 32.5109 33.8171 34.0348 33.8171 35.849C33.7446 37.7358 34.3251 39.1872 35.8491 39.1872ZM8.92598 89.6952C9.3614 89.6226 9.65167 89.1872 9.65167 88.7518L9.50654 85.3411L12.7721 84.5428C13.2076 84.4702 13.4978 84.0348 13.4978 83.5994L13.3527 80.1887L16.6183 79.3904C17.0537 79.3178 17.344 78.8824 17.344 78.447L17.1988 75.0363L20.4644 74.238C20.8999 74.1655 21.1901 73.73 21.1901 73.2946L21.045 69.8839L24.3106 69.0856C24.8186 68.9405 25.1089 68.5051 24.9637 67.9971C24.8186 67.4891 24.3832 67.1988 23.8752 67.344L19.8839 68.2874C19.4485 68.3599 19.1582 68.7953 19.1582 69.2308L19.3033 72.6415L16.0377 73.4398C15.6023 73.5123 15.3121 73.9477 15.3121 74.3832L15.4572 77.7939L12.1916 78.5922C11.7562 78.6647 11.4659 79.1001 11.4659 79.5355L11.611 82.9463L8.34543 83.7446C7.91002 83.8171 7.61974 84.2525 7.61974 84.6879L7.76488 88.0987L4.42671 88.8969C3.9913 88.9695 3.70102 89.4049 3.70102 89.8403L3.91873 93.9768C3.91873 94.4847 4.35414 94.8476 4.78955 94.8476C4.78955 94.8476 4.78955 94.8476 4.86212 94.8476C5.37011 94.8476 5.73295 94.4122 5.73295 93.9042L5.58781 90.4935L8.92598 89.6952ZM85.0508 87.2279L81.7852 86.357L82.0029 82.9463C82.0029 82.5109 81.7852 82.148 81.3498 82.0029L78.0842 81.1321L78.3745 77.7213C78.3745 77.2859 78.1568 76.9231 77.7213 76.7779L73.73 75.6894C73.2221 75.5443 72.7867 75.8345 72.6415 76.3425C72.4964 76.8505 72.7867 77.2859 73.2946 77.431L76.5602 78.3019L76.27 81.7126C76.27 82.148 76.4877 82.5109 76.9231 82.656L80.1887 83.5268L79.971 86.9376C79.971 87.373 80.1887 87.7358 80.6241 87.881L83.8897 88.7518L83.672 92.1625C83.5994 92.6705 84.0348 93.1059 84.4703 93.1059H84.5428C84.9782 93.1059 85.4137 92.7431 85.4137 92.3077L85.7039 88.1713C85.7765 87.7358 85.4862 87.3004 85.0508 87.2279ZM6.0958 15.0943C6.82149 15.5297 7.76488 15.82 8.63571 16.1103C9.07112 16.2554 9.72424 16.4006 10.4499 16.2554C10.8853 16.1829 11.2482 15.8926 11.611 15.6749C12.3367 15.2395 12.9898 14.7315 13.643 14.1509C13.8607 14.2961 14.0058 14.5138 14.0784 14.7315C14.1509 14.8766 14.1509 14.9492 14.1509 15.0943C13.5704 15.312 12.8447 15.6023 12.4093 16.1829C11.9739 16.6908 11.8287 17.344 12.0464 17.9971C12.1916 18.5776 12.5544 18.9405 13.0624 19.1582C13.2801 19.2308 13.4978 19.3033 13.7155 19.3033C14.4412 19.3033 15.0943 18.9405 15.4572 18.4325C15.8926 17.852 16.0377 17.2714 16.1103 16.6908C16.1103 16.6183 16.1103 16.5457 16.1103 16.5457C16.5457 16.4731 16.9086 16.4006 17.344 16.4731C17.9971 16.5457 18.5051 17.0537 19.1582 17.5617C19.5936 17.9245 20.1742 17.852 20.537 17.4165C20.8999 16.9811 20.8273 16.4006 20.3919 16.0377C19.7388 15.4572 18.7954 14.6589 17.5617 14.5138C17.0537 14.4412 16.5457 14.4412 16.0377 14.5138C15.9652 14.3686 15.9652 14.1509 15.8926 14.0058C15.7475 13.5704 15.4572 13.135 15.0943 12.8447C15.6023 12.3367 16.1103 11.6836 16.4006 10.9579C16.9811 9.57909 16.6183 8.05515 15.5298 7.25689C15.0218 6.89404 14.3687 6.67634 13.7155 6.60377C14.2235 5.5878 14.3687 4.49927 14.1509 3.4833C13.9332 2.46734 13.2801 1.59651 12.4093 1.08853C11.7562 0.725684 10.9579 0.507977 10.1597 0.507977C10.0145 0.362839 9.86938 0.217701 9.57911 0.145132C8.56314 -0.145143 7.18433 0.0725635 6.02323 0.725684C5.07983 1.30624 4.35414 2.17706 3.77359 3.2656C3.77359 3.41073 3.70102 3.4833 3.62845 3.62844C2.24964 4.78954 1.30625 5.95065 0.653125 7.18432C-0.507978 9.57909 -0.145134 12.3367 1.52395 14.0058C2.17707 14.6589 3.0479 15.0943 3.91873 15.2395C4.71699 15.3846 5.51524 15.2395 6.0958 15.0943ZM6.53121 12.9173L6.45864 12.8447C6.16836 12.4819 6.0958 11.9739 6.16836 11.3933C7.18433 11.5385 8.12773 11.0305 8.63571 10.8128C8.78085 10.7402 8.92598 10.6676 9.07112 10.5951C8.99855 10.9579 8.92598 11.3933 8.92598 11.7562C8.27286 12.1916 7.40204 12.5544 6.53121 12.9173ZM10.5225 14.0784C10.3048 14.2235 10.1597 14.2961 10.0145 14.3686C9.79681 14.4412 9.43397 14.2961 9.14369 14.2235C8.99855 14.1509 8.85342 14.1509 8.78085 14.0784C9.14369 13.9332 9.50654 13.7155 9.79681 13.4978C10.0145 13.7155 10.3048 13.8607 10.5225 14.0058C10.5951 14.0058 10.5951 14.0058 10.5225 14.0784ZM7.83745 8.99854C7.61974 9.07111 7.40204 9.21625 7.18433 9.28882C7.32947 9.07111 7.54717 8.78084 7.76488 8.56313C8.34543 7.83744 9.07112 7.11175 9.86938 7.03918C9.94195 7.03918 9.94195 7.03918 10.0145 7.03918C10.3048 7.03918 10.5951 7.18432 10.8128 7.25689C9.94195 7.91001 8.85342 8.49056 7.83745 8.99854ZM13.4253 8.8534C13.4253 8.78084 13.4253 8.70827 13.4253 8.6357C13.7881 8.6357 14.1509 8.70827 14.3687 8.8534C14.8041 9.21625 14.8041 9.7968 14.5864 10.3048C14.2961 10.9579 13.7155 11.5385 13.135 12.119C12.7721 12.119 12.4819 12.1916 12.1916 12.1916C11.9013 12.2641 11.6836 12.2641 11.5385 12.2641C12.6996 11.1756 13.3527 10.0145 13.4253 8.8534ZM5.29754 4.86211C5.66038 4.57184 6.0958 4.28156 6.60378 3.91872C7.32947 3.41073 8.2003 2.90275 9.14369 2.68505C10.0145 2.46734 10.8853 2.53991 11.5385 2.90275C11.9739 3.12046 12.1916 3.4833 12.3367 3.99129C12.4819 4.57184 12.4093 5.22496 12.119 5.80551C11.4659 5.29753 10.5951 5.00725 9.79681 5.07982C8.12773 5.15239 7.03919 6.31349 6.24093 7.25689C5.95066 7.61973 5.73295 7.91001 5.44268 8.27285C5.00726 7.25689 4.93469 5.95065 5.29754 4.86211ZM2.46735 8.05515C2.61249 7.6923 2.83019 7.40203 3.12047 7.03918C3.19304 7.83744 3.41074 8.6357 3.77359 9.36139C3.9913 9.7968 4.209 10.0871 4.42671 10.3774C4.13643 11.3933 4.13643 12.4093 4.49928 13.2801C4.42671 13.2801 4.35414 13.2801 4.28157 13.2801C3.84616 13.2075 3.33818 12.9173 2.97533 12.5544C1.66909 11.3207 1.81423 9.43396 2.46735 8.05515Z" fill="#4D4D4D"/>
</svg>
