<svg width="116" height="100" viewBox="0 0 116 100" fill="none" xmlns="http://www.w3.org/2000/svg">
<path d="M46.5189 10.8889C46.8152 10 46.3708 9.03704 45.4819 8.74074C44.593 8.44444 43.63 8.88889 43.3337 9.77778C42.0004 13.7037 37.7041 17.037 35.7041 17.037C35.4078 17.037 35.3337 16.963 35.1856 16.6667C34.7411 15.4074 34.0004 14.5926 33.0374 14.2222C31.2596 13.5556 29.4078 14.7407 27.4819 15.9259C25.8522 16.8889 24.0745 18.0741 22.5189 18.0741C21.5559 18.0741 20.8152 18.8148 20.8152 19.7778C20.8152 20.7407 21.5559 21.4815 22.5189 21.4815C25.0374 21.4815 27.4078 20 29.2596 18.8889C30.0745 18.3704 31.2596 17.6296 31.7782 17.5556C31.7782 17.6296 31.8522 17.7037 31.9263 17.9259C32.5189 19.6296 33.8522 20.5926 35.63 20.5926C39.4819 20.4444 44.8152 15.7037 46.5189 10.8889ZM55.4078 27.3333C53.9263 27.3333 49.4819 27.037 47.3337 26C44.8893 24.8148 44.0004 21.7778 44.0004 21.7037C43.8522 21.1852 43.2596 20.8889 42.7411 21.037C42.2226 21.1852 41.9263 21.7778 42.0745 22.2963C42.1485 22.4444 43.2596 26.2222 46.4448 27.8519C49.4078 29.3333 55.1115 29.4074 55.4078 29.4074C55.9263 29.4074 56.4448 28.963 56.4448 28.3704C56.3707 27.7778 55.9263 27.3333 55.4078 27.3333ZM95.4819 55.3333C95.5559 55.4074 95.7041 55.4074 95.7782 55.4074C96.0004 55.4074 96.2226 55.2593 96.3708 55.037C96.4448 54.963 97.2596 53.2593 96.667 51.5556C96.0745 50.0741 94.1485 48.1481 94.0745 48.0741C93.8522 47.8519 93.4078 47.8519 93.1856 48.0741C92.9633 48.2963 92.9633 48.7407 93.1856 48.963C93.7041 49.4815 95.1115 50.963 95.4819 52C95.9263 53.1111 95.2596 54.3704 95.2596 54.4444C95.0374 54.7407 95.1856 55.1852 95.4819 55.3333ZM115.408 86.4444C113.408 79.4074 109.334 75.4074 106 72.1481C102.815 69.037 100.371 66.6667 100.371 62.6667C100.371 60.8148 101.037 59.3333 102 57.2593C103.408 54.2222 105.334 50 105.852 42.4444C106.519 32.963 104.667 25.6296 100.519 21.1111C97.4819 17.7778 93.1856 16.1481 87.7782 16.1481C82.3708 16.1481 78.0745 17.8519 75.0374 21.1111C69.7782 26.7407 69.2596 35.7778 69.7041 42.4444C70.2226 50 72.1485 54.2222 73.5559 57.2593C74.5189 59.3333 75.1856 60.8148 75.1856 62.6667C75.1856 66.5926 72.667 69.037 69.5559 72.1481C67.7782 73.9259 65.7782 75.8519 64.0004 78.3704C63.8522 78.2222 63.7041 78.0741 63.5559 78C59.1856 73.7037 55.7041 70.2963 55.7041 64.8148C55.7041 62.2963 56.667 60.1481 58.0004 57.2593C59.9263 53.037 62.667 47.1852 63.4078 36.5926C64.3708 23.4074 61.7782 13.1111 56.0004 6.96296C51.9263 2.2963 45.9263 0 38.4448 0C30.9633 0 24.9633 2.2963 20.667 6.88889C14.8893 13.1111 12.3707 23.3333 13.2596 36.5185C14.0004 47.1111 16.667 52.8889 18.667 57.1852C20.0004 60.0741 20.9633 62.1481 20.9633 64.7407C20.9633 70.2222 17.4819 73.6296 13.1115 77.9259C8.5189 82.4444 2.74112 88.0741 0.000377007 97.7778C-0.221845 98.6667 0.296673 99.6296 1.18556 99.8519C2.07445 100.074 3.03741 99.5555 3.25964 98.6667C5.77816 89.7778 10.8893 84.7407 15.4819 80.2963C20.0745 75.8519 24.3708 71.6296 24.3708 64.7407C24.3708 63.1852 24.0745 61.8518 23.7041 60.5185L25.5559 59.2593C27.7041 59.8518 33.63 61.3333 38.5189 61.3333C43.4078 61.3333 49.4078 59.8518 51.4819 59.2593L53.1856 60.4444C52.7411 61.7778 52.4448 63.1852 52.4448 64.7407C52.4448 71.6296 56.7411 75.8519 61.3337 80.2963C65.8522 84.7407 71.0374 89.7778 73.5559 98.6667C73.7782 99.4074 74.4448 99.9259 75.1856 99.9259C75.3337 99.9259 75.4819 99.9259 75.63 99.8519C76.5189 99.6296 77.0374 98.6667 76.8152 97.7778C74.5189 89.4815 70.0004 84.2222 65.8522 80C67.5559 77.5555 69.4819 75.6296 71.3337 73.7778C71.3337 73.7778 71.3337 73.7778 71.4078 73.7037L72.2967 76.4444C72.2967 76.5185 72.3708 76.5926 72.3708 76.6667C71.1115 77.5555 70.2226 79.037 70.2226 80.7407C70.2226 83.4815 72.4448 85.7037 75.1856 85.7037C77.9263 85.7037 80.1485 83.4815 80.1485 80.7407C80.1485 78 77.9263 75.7778 75.1856 75.7778C74.8893 75.7778 74.593 75.7778 74.2967 75.8519C74.2967 75.8519 74.2967 75.8519 74.2967 75.7778L73.1115 72C75.63 69.4074 77.7041 66.5926 77.7041 62.5185C77.7041 60.1481 76.8152 58.2963 75.8522 56.0741C74.4448 53.037 72.667 49.2593 72.2226 42.0741C71.7782 35.9259 72.2226 27.5556 76.8893 22.5926C79.4819 19.7778 83.1856 18.3704 87.8522 18.3704C92.5189 18.3704 96.2226 19.7778 98.8152 22.5926C103.482 27.5556 103.926 35.9259 103.482 42.0741C102.963 49.1852 101.26 53.037 99.8522 56.0741C98.8152 58.2222 98.0004 60.1481 98.0004 62.5185C98.0004 66.5926 100.074 69.3333 102.593 72L101.704 74.8148C99.4078 74.3704 95.8522 74.5926 93.5559 77.7037C89.5559 83.1852 92.2967 91.037 92.3708 91.4074C92.593 92 93.1856 92.2963 93.7041 92.0741C94.2967 91.8519 94.593 91.2593 94.3708 90.7407C94.3708 90.6667 91.9263 83.5555 95.2596 79.037C97.63 75.7778 101.852 77.1111 102.074 77.1852C102.223 77.2593 106.445 78.5926 106.445 82.6667C106.445 88.2963 100.371 92.5926 100.297 92.6667C99.7782 93.037 99.7041 93.7037 100 94.1481C100.223 94.4444 100.519 94.5926 100.889 94.5926C101.111 94.5926 101.334 94.5185 101.482 94.3704C101.778 94.1481 108.593 89.3333 108.519 82.5926C108.519 78.7407 105.704 76.4444 103.63 75.4815L104.223 73.7037C104.223 73.7037 104.223 73.7037 104.297 73.7778C107.556 76.963 111.26 80.5926 113.037 86.963C113.186 87.4815 113.704 87.8518 114.223 87.8518C114.297 87.8518 114.445 87.8519 114.519 87.7778C115.186 87.7037 115.556 87.037 115.408 86.4444ZM23.5559 56.5185L22.4448 57.2593C22.2226 56.7407 22.0004 56.2963 21.7782 55.7778C20.2967 52.5926 18.593 48.8148 17.4819 42.8148L23.5559 44.8148V56.5185ZM50.0745 56.1481C47.7782 56.7407 42.593 58 38.4448 58C34.2967 58 29.1115 56.7407 26.8152 56.1481V44.8889C29.1115 44.2963 34.2967 43.037 38.4448 43.037C42.593 43.037 47.7782 44.2963 50.0745 44.8889V56.1481ZM51.7782 41.8518C49.9263 41.3333 43.7041 39.7037 38.5189 39.7037C33.3337 39.7037 27.1115 41.3333 25.2596 41.8518L16.9633 39.1852C16.8893 38.2963 16.7411 37.3333 16.667 36.3704C16.0745 27.8519 16.667 16.2222 23.1115 9.25926C26.7411 5.40741 31.8522 3.40741 38.3708 3.40741C44.8893 3.40741 50.0745 5.40741 53.63 9.25926C60.0745 16.2222 60.7411 27.8519 60.0745 36.3704C60.0004 37.4074 59.9263 38.2963 59.7782 39.2593L51.7782 41.8518ZM54.4448 57.1852L53.4819 56.5185V44.8148L59.4078 42.8889C58.2967 48.8148 56.593 52.5926 55.1115 55.7778C54.8893 56.2963 54.667 56.7407 54.4448 57.1852ZM75.2596 78C76.8152 78 78.0745 79.2593 78.0745 80.8148C78.0745 82.3704 76.8152 83.6296 75.2596 83.6296C73.7041 83.6296 72.4448 82.3704 72.4448 80.8148C72.4448 79.2593 73.7041 78 75.2596 78ZM100.445 36.0741C101.037 36.0741 101.556 35.6296 101.63 35.037C101.704 34.3704 101.26 33.7778 100.593 33.6296C92.0745 32.2963 85.4078 28 84.593 24.8148C84.4448 24.2963 84.0004 23.9259 83.4819 23.9259C82.9633 23.9259 82.5189 24.2222 82.2967 24.6667C81.3337 26.963 77.1856 28.963 75.2596 29.1111C74.593 29.1852 74.0745 29.7778 74.1485 30.4444C74.2226 31.1111 74.8152 31.6296 75.4819 31.5556C77.4078 31.4074 81.1115 29.9259 83.2596 27.5556C85.9263 31.3333 92.7411 34.8148 100.223 36.0741C100.371 36.0741 100.445 36.0741 100.445 36.0741ZM48.2967 31.1111C46.7411 31.1111 46.2226 32.6667 46.2226 34.5185C46.2226 36.3704 46.7411 37.9259 48.2967 37.9259C49.8522 37.9259 50.3708 36.3704 50.3708 34.5185C50.3708 32.6667 49.8522 31.1111 48.2967 31.1111ZM28.7411 31.1111C27.1856 31.1111 26.667 32.6667 26.667 34.5185C26.667 36.3704 27.1856 37.9259 28.7411 37.9259C30.2967 37.9259 30.8152 36.3704 30.8152 34.5185C30.8152 32.6667 30.2967 31.1111 28.7411 31.1111ZM94.7411 44.2963C96.0745 44.2963 96.5189 43.1852 96.5189 41.7778C96.5189 40.3704 96.0745 39.2593 94.7411 39.2593C93.4078 39.2593 92.9633 40.3704 92.9633 41.7778C92.9633 43.1852 93.4819 44.2963 94.7411 44.2963ZM82.667 41.7778C82.667 40.3704 82.2226 39.2593 80.8893 39.2593C79.5559 39.2593 79.1115 40.3704 79.1115 41.7778C79.1115 43.1852 79.5559 44.2963 80.8893 44.2963C82.2226 44.2963 82.667 43.1852 82.667 41.7778ZM87.8522 55.1852C90.0745 55.1852 93.0374 53.9259 94.0004 52C94.1485 51.7037 94.0004 51.2593 93.7041 51.1111C93.4078 50.963 92.9633 51.1111 92.8152 51.4074C92.0745 52.8889 89.63 53.8518 87.8522 53.8518C86.0745 53.8518 83.63 52.8148 82.8893 51.4074C82.7411 51.1111 82.3708 50.963 82.0004 51.1111C81.7041 51.2593 81.5559 51.6296 81.7041 52C82.6671 53.9259 85.63 55.1852 87.8522 55.1852ZM97.5559 65.8519C97.1856 65.2593 96.4448 65.1111 95.9263 65.4074L87.8522 70.3704L79.7782 65.4815C79.1856 65.1111 78.4448 65.3333 78.1485 65.9259C77.7782 66.5185 78.0004 67.2593 78.593 67.5555L87.2596 72.8148C87.4819 72.963 87.7041 72.963 87.8522 72.963C88.0004 72.963 88.2967 72.8889 88.4448 72.8148L97.1115 67.5555C97.7041 67.1852 97.9263 66.4444 97.5559 65.8519Z" fill="#4D4D4D"/>
</svg>
