<svg viewBox="0 0 120 120" fill="none" xmlns="http://www.w3.org/2000/svg">
<path d="M64.7386 34.3672C64.5935 33.8592 64.0129 33.5689 63.5049 33.7141C62.9969 33.8592 62.7067 34.4398 62.8518 34.9477C62.9244 35.0929 64.0129 38.7939 67.1334 40.3904C70.0361 41.8418 75.624 41.9144 75.9142 41.9144C76.4222 41.9144 76.9302 41.4789 76.9302 40.8984C76.9302 40.3178 76.4948 39.8824 75.9142 39.8824C75.8417 39.8824 70.5441 39.8099 68.0042 38.5762C65.6094 37.3425 64.7386 34.3672 64.7386 34.3672ZM59.3685 60.0566C53.9984 60.0566 50.0071 62.7416 48.4106 65.4267C47.9752 66.225 48.1929 67.2409 48.9911 67.6763C49.7894 68.1117 50.8054 67.894 51.2408 67.0958C52.3293 65.2816 55.3046 63.3948 59.2959 63.3948C63.2872 63.3948 66.3351 65.3541 67.3511 67.0958C67.6414 67.6038 68.2219 67.894 68.8025 67.894C69.0927 67.894 69.383 67.8215 69.6733 67.6763C70.4715 67.2409 70.6893 66.225 70.2538 65.4267C68.7299 62.7416 64.7386 60.0566 59.3685 60.0566ZM84.1145 89.3745C79.8329 85.1655 76.4222 81.8998 76.4222 76.5297C76.4222 74.0624 77.3656 71.9579 78.6718 69.1277C80.5586 64.9913 83.2437 59.2583 83.9694 48.881C84.9128 35.9637 82.3729 25.8766 76.7125 19.8534C72.5035 15.3541 66.698 13.1045 59.2959 13.1045C51.8939 13.1045 46.0884 15.3541 41.8794 19.8534C36.219 25.9492 33.7517 35.9637 34.6225 48.881C35.3482 59.2583 37.9607 64.9187 39.92 69.1277C41.2263 71.9579 42.1697 73.9898 42.1697 76.5297C42.1697 81.8998 38.7589 85.238 34.4774 89.447C29.9781 93.8737 24.3177 99.3889 21.6327 108.895C21.4149 109.766 21.9229 110.71 22.7938 110.927C23.6646 111.145 24.608 110.637 24.8257 109.766C27.293 101.058 32.3003 96.1234 36.7996 91.7692C41.2988 87.4151 45.5078 83.2787 45.5078 76.5297C45.5078 73.2641 44.3467 70.7242 42.9679 67.7489C41.0811 63.6125 38.6864 58.4601 37.9607 48.6633C37.3801 40.3178 37.9607 28.9245 44.2742 22.103C47.83 18.3295 52.8373 16.3701 59.2234 16.3701C65.6094 16.3701 70.6893 18.3295 74.1726 22.103C80.4861 28.9245 81.1392 40.3178 80.4861 48.6633C79.7604 58.3875 77.4382 63.6125 75.4788 67.7489C74.1 70.7242 72.9389 73.2641 72.9389 76.5297C72.9389 83.2787 77.1479 87.4151 81.6472 91.7692C86.0739 96.1234 91.1537 101.058 93.621 109.766C93.8388 110.492 94.4919 111 95.2176 111C95.3627 111 95.5078 111 95.653 110.927C96.5238 110.71 97.0318 109.766 96.8141 108.895C94.2742 99.3164 88.6138 93.8012 84.1145 89.3745ZM66.19 21.5951C65.3192 21.3048 64.3758 21.7402 64.0855 22.611C62.7792 26.4572 58.5702 29.7228 56.6109 29.7228C56.3206 29.7228 56.248 29.6502 56.1029 29.3599C55.6675 28.1263 54.9418 27.328 53.9984 26.9652C52.2567 26.312 50.4425 27.4731 48.5557 28.6342C46.9592 29.5776 45.2176 30.7387 43.6936 30.7387C42.7502 30.7387 42.0245 31.4644 42.0245 32.4078C42.0245 33.3512 42.7502 34.0769 43.6936 34.0769C46.161 34.0769 48.4832 32.6255 50.2974 31.537C51.0956 31.029 52.2568 30.3033 52.7647 30.2308C52.7647 30.3033 52.8373 30.3759 52.9099 30.5936C53.4904 32.2627 54.7967 33.2061 56.5383 33.2061C60.3119 33.2061 65.5369 28.5617 67.1334 23.8447C67.4962 22.8287 67.0608 21.8853 66.19 21.5951ZM69.0202 43.5109C67.4962 43.5109 66.9882 45.0348 66.9882 46.849C66.9882 48.6633 67.4962 50.1872 69.0202 50.1872C70.5441 50.1872 71.0521 48.6633 71.0521 46.849C71.0521 45.0348 70.4716 43.5109 69.0202 43.5109ZM49.862 50.1872C51.3859 50.1872 51.8939 48.6633 51.8939 46.849C51.8939 45.0348 51.3859 43.5109 49.862 43.5109C48.338 43.5109 47.83 45.0348 47.83 46.849C47.7575 48.7358 48.338 50.1872 49.862 50.1872ZM22.9389 100.695C23.3743 100.623 23.6646 100.187 23.6646 99.7518L23.5194 96.3411L26.785 95.5428C27.2205 95.4702 27.5107 95.0348 27.5107 94.5994L27.3656 91.1887L30.6312 90.3904C31.0666 90.3178 31.3569 89.8824 31.3569 89.447L31.2118 86.0363L34.4774 85.238C34.9128 85.1655 35.203 84.73 35.203 84.2946L35.0579 80.8839L38.3235 80.0856C38.8315 79.9405 39.1218 79.5051 38.9766 78.9971C38.8315 78.4891 38.3961 78.1988 37.8881 78.344L33.8968 79.2874C33.4614 79.3599 33.1711 79.7953 33.1711 80.2308L33.3163 83.6415L30.0507 84.4398C29.6152 84.5123 29.325 84.9477 29.325 85.3832L29.4701 88.7939L26.2045 89.5922C25.7691 89.6647 25.4788 90.1001 25.4788 90.5355L25.6239 93.9463L22.3583 94.7446C21.9229 94.8171 21.6327 95.2525 21.6327 95.6879L21.7778 99.0987L18.4396 99.8969C18.0042 99.9695 17.7139 100.405 17.7139 100.84L17.9316 104.977C17.9316 105.485 18.367 105.848 18.8025 105.848C18.8025 105.848 18.8025 105.848 18.875 105.848C19.383 105.848 19.7459 105.412 19.7459 104.904L19.6007 101.493L22.9389 100.695ZM99.0637 98.2279L95.7981 97.357L96.0158 93.9463C96.0158 93.5109 95.7981 93.148 95.3627 93.0029L92.0971 92.1321L92.3874 88.7213C92.3874 88.2859 92.1697 87.9231 91.7343 87.7779L87.743 86.6894C87.235 86.5443 86.7996 86.8345 86.6544 87.3425C86.5093 87.8505 86.7996 88.2859 87.3075 88.431L90.5732 89.3019L90.2829 92.7126C90.2829 93.148 90.5006 93.5109 90.936 93.656L94.2016 94.5268L93.9839 97.9376C93.9839 98.373 94.2016 98.7358 94.637 98.881L97.9026 99.7518L97.6849 103.163C97.6123 103.671 98.0478 104.106 98.4832 104.106H98.5557C98.9911 104.106 99.4266 103.743 99.4266 103.308L99.7168 99.1713C99.7894 98.7358 99.4991 98.3004 99.0637 98.2279ZM20.1087 26.0943C20.8344 26.5297 21.7778 26.82 22.6486 27.1103C23.084 27.2554 23.7372 27.4006 24.4628 27.2554C24.8983 27.1829 25.2611 26.8926 25.6239 26.6749C26.3496 26.2395 27.0028 25.7315 27.6559 25.1509C27.8736 25.2961 28.0187 25.5138 28.0913 25.7315C28.1639 25.8766 28.1639 25.9492 28.1639 26.0943C27.5833 26.312 26.8576 26.6023 26.4222 27.1829C25.9868 27.6908 25.8417 28.344 26.0594 28.9971C26.2045 29.5776 26.5673 29.9405 27.0753 30.1582C27.293 30.2308 27.5107 30.3033 27.7284 30.3033C28.4541 30.3033 29.1073 29.9405 29.4701 29.4325C29.9055 28.852 30.0507 28.2714 30.1232 27.6908C30.1232 27.6183 30.1232 27.5457 30.1232 27.5457C30.5586 27.4731 30.9215 27.4006 31.3569 27.4731C32.01 27.5457 32.518 28.0537 33.1711 28.5617C33.6065 28.9245 34.1871 28.852 34.5499 28.4165C34.9128 27.9811 34.8402 27.4006 34.4048 27.0377C33.7517 26.4572 32.8083 25.6589 31.5746 25.5138C31.0666 25.4412 30.5586 25.4412 30.0507 25.5138C29.9781 25.3686 29.9781 25.1509 29.9055 25.0058C29.7604 24.5704 29.4701 24.135 29.1073 23.8447C29.6152 23.3367 30.1232 22.6836 30.4135 21.9579C30.994 20.5791 30.6312 19.0551 29.5427 18.2569C29.0347 17.894 28.3816 17.6763 27.7284 17.6038C28.2364 16.5878 28.3816 15.4993 28.1639 14.4833C27.9462 13.4673 27.293 12.5965 26.4222 12.0885C25.7691 11.7257 24.9708 11.508 24.1726 11.508C24.0274 11.3628 23.8823 11.2177 23.592 11.1451C22.576 10.8549 21.1972 11.0726 20.0361 11.7257C19.0927 12.3062 18.367 13.1771 17.7865 14.2656C17.7865 14.4107 17.7139 14.4833 17.6414 14.6284C16.2626 15.7895 15.3192 16.9506 14.666 18.1843C13.5049 20.5791 13.8678 23.3367 15.5369 25.0058C16.19 25.6589 17.0608 26.0943 17.9316 26.2395C18.7299 26.3846 19.5282 26.2395 20.1087 26.0943ZM20.5441 23.9173L20.4715 23.8447C20.1813 23.4819 20.1087 22.9739 20.1813 22.3933C21.1972 22.5385 22.1406 22.0305 22.6486 21.8128C22.7938 21.7402 22.9389 21.6676 23.084 21.5951C23.0115 21.9579 22.9389 22.3933 22.9389 22.7562C22.2858 23.1916 21.4149 23.5544 20.5441 23.9173ZM24.5354 25.0784C24.3177 25.2235 24.1726 25.2961 24.0274 25.3686C23.8097 25.4412 23.4469 25.2961 23.1566 25.2235C23.0115 25.1509 22.8663 25.1509 22.7938 25.0784C23.1566 24.9332 23.5194 24.7155 23.8097 24.4978C24.0274 24.7155 24.3177 24.8607 24.5354 25.0058C24.608 25.0058 24.608 25.0058 24.5354 25.0784ZM21.8504 19.9985C21.6327 20.0711 21.4149 20.2162 21.1972 20.2888C21.3424 20.0711 21.5601 19.7808 21.7778 19.5631C22.3583 18.8374 23.084 18.1117 23.8823 18.0392C23.9549 18.0392 23.9549 18.0392 24.0274 18.0392C24.3177 18.0392 24.608 18.1843 24.8257 18.2569C23.9549 18.91 22.8663 19.4906 21.8504 19.9985ZM27.4382 19.8534C27.4382 19.7808 27.4382 19.7083 27.4382 19.6357C27.801 19.6357 28.1639 19.7083 28.3816 19.8534C28.817 20.2162 28.817 20.7968 28.5993 21.3048C28.309 21.9579 27.7284 22.5385 27.1479 23.119C26.785 23.119 26.4948 23.1916 26.2045 23.1916C25.9142 23.2641 25.6965 23.2641 25.5514 23.2641C26.7125 22.1756 27.3656 21.0145 27.4382 19.8534ZM19.3104 15.8621C19.6733 15.5718 20.1087 15.2816 20.6167 14.9187C21.3424 14.4107 22.2132 13.9028 23.1566 13.685C24.0274 13.4673 24.8983 13.5399 25.5514 13.9028C25.9868 14.1205 26.2045 14.4833 26.3496 14.9913C26.4948 15.5718 26.4222 16.225 26.1319 16.8055C25.4788 16.2975 24.608 16.0073 23.8097 16.0798C22.1406 16.1524 21.0521 17.3135 20.2538 18.2569C19.9636 18.6197 19.7459 18.91 19.4556 19.2729C19.0202 18.2569 18.9476 16.9506 19.3104 15.8621ZM16.4803 19.0551C16.6254 18.6923 16.8431 18.402 17.1334 18.0392C17.2059 18.8374 17.4237 19.6357 17.7865 20.3614C18.0042 20.7968 18.2219 21.0871 18.4396 21.3774C18.1493 22.3933 18.1493 23.4093 18.5122 24.2801C18.4396 24.2801 18.367 24.2801 18.2945 24.2801C17.8591 24.2075 17.3511 23.9173 16.9882 23.5544C15.682 22.3207 15.8271 20.434 16.4803 19.0551Z" fill="#4D4D4D"/>
</svg>
