<svg width="77" height="100" viewBox="0 0 77 100" fill="none" xmlns="http://www.w3.org/2000/svg">
<path d="M46.5185 10.8889C46.8148 10 46.3704 9.03704 45.4815 8.74074C44.5926 8.44444 43.6296 8.88889 43.3333 9.77778C42 13.7037 37.7037 17.037 35.7037 17.037C35.4074 17.037 35.3333 16.963 35.1852 16.6667C34.7407 15.4074 34 14.5926 33.037 14.2222C31.2593 13.5556 29.4074 14.7407 27.4815 15.9259C25.8519 16.8889 24.0741 18.0741 22.5185 18.0741C21.5556 18.0741 20.8148 18.8148 20.8148 19.7778C20.8148 20.7407 21.5556 21.4815 22.5185 21.4815C25.037 21.4815 27.4074 20 29.2593 18.8889C30.0741 18.3704 31.2593 17.6296 31.7778 17.5556C31.7778 17.6296 31.8519 17.7037 31.9259 17.9259C32.5185 19.6296 33.8519 20.5926 35.6296 20.5926C39.4815 20.4444 44.8148 15.7037 46.5185 10.8889ZM55.4074 27.3333C53.9259 27.3333 49.4815 27.037 47.3333 26C44.8889 24.8148 44 21.7778 44 21.7037C43.8519 21.1852 43.2593 20.8889 42.7407 21.037C42.2222 21.1852 41.9259 21.7778 42.0741 22.2963C42.1482 22.4444 43.2593 26.2222 46.4445 27.8519C49.4074 29.3333 55.1111 29.4074 55.4074 29.4074C55.9259 29.4074 56.4445 28.963 56.4445 28.3704C56.3704 27.7778 55.9259 27.3333 55.4074 27.3333ZM64.1482 78.3704C64 78.2222 63.8519 78.0741 63.7037 78C59.3333 73.7037 55.8519 70.2963 55.8519 64.8148C55.8519 62.2963 56.8148 60.1482 58.1482 57.2593C60.0741 53.037 62.8148 47.1852 63.5556 36.5926C64.5185 23.4074 61.9259 13.1111 56.1482 6.96296C51.9259 2.2963 45.9259 0 38.4445 0C30.963 0 24.963 2.2963 20.6667 6.88889C14.8889 13.1111 12.3704 23.3333 13.2593 36.5185C14 47.1111 16.6667 52.8889 18.6667 57.1852C20 60.0741 20.963 62.1482 20.963 64.7407C20.963 70.2222 17.4815 73.6296 13.1111 77.9259C8.51853 82.4444 2.74075 88.0741 1.07922e-05 97.7778C-0.222211 98.6667 0.296307 99.6296 1.1852 99.8519C2.07408 100.074 3.03705 99.5556 3.25927 98.6667C5.77779 89.7778 10.8889 84.7407 15.4815 80.2963C20.0741 75.8519 24.3704 71.6296 24.3704 64.7407C24.3704 63.1852 24.0741 61.8519 23.7037 60.5185L25.5556 59.2593C27.7037 59.8519 33.6296 61.3333 38.5185 61.3333C43.4074 61.3333 49.4074 59.8519 51.4815 59.2593L53.1852 60.4444C52.7408 61.7778 52.4445 63.1852 52.4445 64.7407C52.4445 71.6296 56.7408 75.8519 61.3333 80.2963C65.8519 84.7407 71.037 89.7778 73.5556 98.6667C73.7778 99.4074 74.4445 99.9259 75.1852 99.9259C75.3333 99.9259 75.4815 99.9259 75.6296 99.8519C76.5185 99.6296 77.037 98.6667 76.8148 97.7778C74.5185 89.4815 70 84.2222 65.8519 80L64.1482 78.3704ZM23.5556 56.5185L22.4445 57.2593C22.2222 56.7407 22 56.2963 21.7778 55.7778C20.2963 52.5926 18.5926 48.8148 17.4815 42.8148L23.5556 44.8148V56.5185ZM50.0741 56.1482C47.7778 56.7407 42.5926 58 38.4445 58C34.2963 58 29.1111 56.7407 26.8148 56.1482V44.8889C29.1111 44.2963 34.2963 43.037 38.4445 43.037C42.5926 43.037 47.7778 44.2963 50.0741 44.8889V56.1482ZM51.7778 41.8519C49.9259 41.3333 43.7037 39.7037 38.5185 39.7037C33.3333 39.7037 27.1111 41.3333 25.2593 41.8519L16.963 39.1852C16.8889 38.2963 16.7408 37.3333 16.6667 36.3704C16.0741 27.8519 16.6667 16.2222 23.1111 9.25926C26.7408 5.40741 31.8519 3.40741 38.3704 3.40741C44.8889 3.40741 50.0741 5.40741 53.6296 9.25926C60.0741 16.2222 60.7407 27.8519 60.0741 36.3704C60 37.4074 59.9259 38.2963 59.7778 39.2593L51.7778 41.8519ZM54.4445 57.1852L53.4815 56.5185V44.8148L59.4074 42.8889C58.2963 48.8148 56.5926 52.5926 55.1111 55.7778C54.8889 56.2963 54.6667 56.7407 54.4445 57.1852ZM48.2963 31.1111C46.7407 31.1111 46.2222 32.6667 46.2222 34.5185C46.2222 36.3704 46.7407 37.9259 48.2963 37.9259C49.8519 37.9259 50.3704 36.3704 50.3704 34.5185C50.3704 32.6667 49.8519 31.1111 48.2963 31.1111ZM28.7407 31.1111C27.1852 31.1111 26.6667 32.6667 26.6667 34.5185C26.6667 36.3704 27.1852 37.9259 28.7407 37.9259C30.2963 37.9259 30.8148 36.3704 30.8148 34.5185C30.8148 32.6667 30.2963 31.1111 28.7407 31.1111Z" fill="#4D4D4D"/>
</svg>
